<svg width="30" height="30" fill="none" xmlns="http://www.w3.org/2000/svg"><path d="M25.781 3.281H4.22a.936.936 0 0 0-.938.938V25.78c0 .519.42.938.938.938H25.78a.937.937 0 0 0 .938-.938V4.22a.937.937 0 0 0-.938-.938ZM10.233 23.253H6.756V12.067h3.477v11.186ZM8.496 10.538a2.015 2.015 0 1 1 0-4.03 2.015 2.015 0 0 1 0 4.03Zm14.757 12.715h-3.475v-5.44c0-1.298-.023-2.965-1.807-2.965-1.808 0-2.086 1.412-2.086 2.87v5.535h-3.472V12.067h3.334v1.53h.047c.463-.88 1.597-1.808 3.29-1.808 3.521 0 4.169 2.317 4.169 5.33v6.134Z" fill="#131414"/></svg>