<svg width="45" height="40" fill="none" xmlns="http://www.w3.org/2000/svg"><path d="m2.707 22.88 10.162 5.38.037-.021.284-.149.27-.143c1.353-.717 2.31-1.246 2.237-1.65-.054-.306-.66-.48-1.158-.534-.27-.02-.534-.09-.773-.207a.532.532 0 0 1-.223-.17.468.468 0 0 1-.093-.253c0-.188.151-.386.445-.542.54-.285 1.353-.316 1.826-.067.179.09.317.233.39.407.105.265.434.585 1.013.612.8.04 1.695-.433 3.17-1.216l.351-.186L10.5 18.766l-7.792 4.113Zm27.087 6.098c-.32.166-.628.323-.93.477-1.218.619-2.095 1.062-2.03 1.428.022.09.08.17.163.225.224.167.635.269.995.307.27.02.533.09.773.206.09.038.167.098.223.173a.477.477 0 0 1 .095.253.463.463 0 0 1-.118.284c-.091.104-.204.191-.331.255-.542.287-1.353.315-1.826.069a.82.82 0 0 1-.39-.408c-.105-.265-.432-.584-1.012-.613-.677-.035-1.373.352-2.435.94l-.947.524.526.276 12.213 6.45a43.489 43.489 0 0 0 9.052-2.886c.19-.083.38-.17.568-.264l-14.589-7.696Z" fill="#407BFF"/><path opacity=".2" d="m2.707 22.88 10.162 5.38.037-.021.284-.149.27-.143c1.353-.717 2.31-1.246 2.237-1.65-.054-.306-.66-.48-1.158-.534-.27-.02-.534-.09-.773-.207a.532.532 0 0 1-.223-.17.468.468 0 0 1-.093-.253c0-.188.151-.386.445-.542.54-.285 1.353-.316 1.826-.067.179.09.317.233.39.407.105.265.434.585 1.013.612.8.04 1.695-.433 3.17-1.216l.351-.186L10.5 18.766l-7.792 4.113Zm27.087 6.098c-.32.166-.628.323-.93.477-1.218.619-2.095 1.062-2.03 1.428.022.09.08.17.163.225.224.167.635.269.995.307.27.02.533.09.773.206.09.038.167.098.223.173a.477.477 0 0 1 .095.253.463.463 0 0 1-.118.284c-.091.104-.204.191-.331.255-.542.287-1.353.315-1.826.069a.82.82 0 0 1-.39-.408c-.105-.265-.432-.584-1.012-.613-.677-.035-1.373.352-2.435.94l-.947.524.526.276 12.213 6.45a43.489 43.489 0 0 0 9.052-2.886c.19-.083.38-.17.568-.264l-14.589-7.696Z" fill="#fff"/><path d="M13.165 6.708 6.6.574.032 13.649l2.675-1.413v10.646l7.784-4.115V8.121l2.674-1.413Z" fill="#407BFF"/></svg>