<svg width="120" height="117" fill="none" xmlns="http://www.w3.org/2000/svg"><path d="M67.982 3.569H9.239c-1.118 0-2.025.86-2.025 1.921v77.752c0 1.06.907 1.92 2.025 1.92h58.743c1.118 0 2.025-.86 2.025-1.92V5.49c0-1.061-.907-1.921-2.025-1.921Z" fill="#F5F5F5"/><path d="m115.67 8.426.115.566-1.181 6.07a3.91 3.91 0 0 1-1.399.61 4.011 4.011 0 0 1-1.539.034l-6.692-1.174s-1.066-.227-.768-1.537c0 0 .051-.691.675-.737 0 0-1.296-.501-1.153-1.449.144-.947.88-.936.88-.936s-1.214-.291-1.088-1.359c.127-1.067.782-1.067.782-1.067s-1.406-.325-1.06-1.508c.04-.157.112-.305.213-.435.101-.13.228-.24.374-.323a1.33 1.33 0 0 1 .982-.135l4.76.835 4.173.73a2.47 2.47 0 0 1 1.255.629c.343.323.577.736.671 1.186Z" fill="#EBEBEB"/><path d="M114.477 6.876s-1.465-1.26-1.969-2.629a6.454 6.454 0 0 1-.348-2.113c0-.053.095-.534.166-.923a.586.586 0 0 0-.103-.442.644.644 0 0 0-.395-.252 2.178 2.178 0 0 0-1.445.306c-.427.266-.736.67-.869 1.138-.563 1.82-.082 3.06-.065 3.613l.014.555 5.014.747ZM113.569 15.98l4.673.819 1.755-9.013-4.673-.82-1.755 9.013Z" fill="#EBEBEB"/><path d="M113.574 15.973s.374-2.02.857-4.507c.484-2.487.892-4.507.892-4.505 0 .003-.374 2.02-.861 4.51-.486 2.49-.88 4.504-.888 4.502ZM118.246 16.796s.374-2.023.86-4.51c.486-2.487.886-4.504.894-4.504.009 0-.374 2.023-.857 4.51-.484 2.487-.886 4.504-.897 4.504Z" fill="#E0E0E0"/><path d="M116.575 9.311a.804.804 0 0 0 .062.485.858.858 0 0 0 .335.371.923.923 0 0 0 .986-.018.85.85 0 0 0 .319-.383.798.798 0 0 0 .042-.487.826.826 0 0 0-.251-.427.904.904 0 0 0-.458-.224.936.936 0 0 0-.667.138.831.831 0 0 0-.368.546Z" fill="#fff"/><path d="M108.464 5.695s.515.072 1.142.181c.627.11 1.139.208 1.125.216-.014.008-.515-.072-1.142-.181-.627-.11-1.125-.216-1.125-.216ZM104.496 9.904s.329.04.731.11c.244.037.486.086.725.146 0 0-.329-.04-.731-.112a7.328 7.328 0 0 1-.725-.144ZM104.203 7.41s.464.065 1.034.163c.571.1 1.032.19 1.029.2-.002.011-.463-.064-1.034-.165s-1.032-.187-1.029-.197ZM104.578 12.218s.464.064 1.034.163c.571.099 1.032.19 1.029.197a15.41 15.41 0 0 1-1.034-.162c-.571-.102-1.032-.19-1.029-.198Z" fill="#E0E0E0"/><path d="M116.378 7.41s.658.1 1.463.24c.804.142 1.456.267 1.456.267s-.658-.096-1.462-.237c-.804-.141-1.457-.259-1.457-.27ZM103.957 8.97a.16.16 0 0 1-.023-.05.92.92 0 0 1-.031-.369c.011-.09.031-.18.062-.267.033-.086.075-.168.127-.245a.92.92 0 0 1 .267-.267l.048-.029s-.062.05-.149.141a1.107 1.107 0 0 0-.256.411 1.231 1.231 0 0 0-.065.267 1.114 1.114 0 0 0 0 .216c.003.117.025.19.02.192ZM103.707 6.57a.31.31 0 0 1-.093-.114.663.663 0 0 1 .011-.675.318.318 0 0 1 .099-.11s-.034.046-.073.123a.724.724 0 0 0-.014.65c.025.042.049.083.07.126ZM104.303 11.568a.368.368 0 0 1-.132-.112.58.58 0 0 1 .011-.753c.07-.08.132-.112.135-.106-.04.037-.078.078-.112.12a.594.594 0 0 0 0 .725c.047.075.101.126.098.126ZM104.842 13.864a.335.335 0 0 1-.09-.12.763.763 0 0 1 0-.698.386.386 0 0 1 .09-.12s-.031.05-.067.13a.828.828 0 0 0 0 .678c.036.082.073.128.067.13ZM109.567 4.078a.492.492 0 0 1-.031-.1.997.997 0 0 1-.031-.12c0-.047-.023-.1-.031-.162a2.98 2.98 0 0 1-.037-.422 3.53 3.53 0 0 1 .034-.533c.028-.172.07-.341.124-.507a2.89 2.89 0 0 1 .163-.398c.025-.053.053-.101.076-.144l.065-.107a.795.795 0 0 1 .061-.088.376.376 0 0 1-.047.094l-.059.11a2.7 2.7 0 0 0-.074.146c-.05.11-.104.245-.154.395a4.18 4.18 0 0 0-.118.504 3.7 3.7 0 0 0-.037.515c.001.14.011.28.028.42 0 .06.017.114.026.16.008.045.016.087.025.12.01.038.016.077.017.117Z" fill="#fff"/><path d="m108.431 63.946.318.344 1.721 4.609c-.166.357-.407.679-.709.945-.302.265-.657.47-1.046.6l-5.078 1.697s-.823.245-1.166-.763c0 0-.254-.494.157-.76 0 0-1.099.143-1.406-.561-.306-.704.214-.971.214-.971s-.956.267-1.313-.534c-.357-.8.09-1.027.09-1.027s-1.105.306-1.356-.635a.92.92 0 0 1 .087-.742.982.982 0 0 1 .26-.29c.105-.079.226-.138.356-.172l3.611-1.214 3.166-1.067a2.009 2.009 0 0 1 1.136-.039c.374.097.708.3.958.58Z" fill="#EBEBEB"/><path d="M106.977 63.333s-1.53-.312-2.455-1.067a5.404 5.404 0 0 1-1.125-1.319l-.281-.696a.49.49 0 0 0-.253-.266.532.532 0 0 0-.377-.025 1.634 1.634 0 0 0-.863.758c-.18.344-.223.738-.118 1.11.379 1.457 1.22 2.135 1.462 2.503l.242.373 3.768-1.371ZM110.141 69.916l3.546-1.193-2.555-6.838-3.545 1.193 2.554 6.838Z" fill="#EBEBEB"/><path d="M110.143 69.907s-.585-1.527-1.291-3.416a230.104 230.104 0 0 1-1.263-3.423c.009 0 .585 1.526 1.291 3.415.706 1.89 1.271 3.421 1.263 3.424ZM113.685 68.715s-.584-1.527-1.29-3.416c-.706-1.89-1.271-3.42-1.263-3.424.009-.002.585 1.527 1.291 3.416.706 1.89 1.271 3.42 1.262 3.424Z" fill="#E0E0E0"/><path d="M109.415 64.213a.67.67 0 0 0 .243.31.726.726 0 0 0 .779.038.68.68 0 0 0 .275-.287.64.64 0 0 0-.113-.732.713.713 0 0 0-.349-.2.741.741 0 0 0-.408.018.695.695 0 0 0-.399.343.64.64 0 0 0-.028.51Z" fill="#fff"/><path d="M102.351 64.774s.382-.144.86-.304.866-.286.869-.267c.003.019-.382.144-.86.304s-.866.272-.869.267ZM101.386 69.152s.242-.096.549-.197c.183-.068.371-.126.562-.173a5.966 5.966 0 0 1-.548.2 5.794 5.794 0 0 1-.563.17ZM100.136 67.553s.346-.13.779-.266c.433-.136.785-.267.787-.251.003.016-.345.13-.778.267-.433.136-.774.258-.788.25ZM102.41 70.71s.346-.131.779-.267c.433-.136.784-.267.787-.248.003.018-.346.13-.779.266-.433.136-.785.256-.787.248Z" fill="#E0E0E0"/><path d="M108.496 62.983s.489-.181 1.102-.386c.613-.206 1.108-.366 1.125-.358.016.008-.49.179-1.103.384-.613.206-1.122.366-1.124.36ZM100.63 68.711l-.036-.026a.74.74 0 0 1-.175-.24.886.886 0 0 1-.087-.42.928.928 0 0 1 .031-.172.562.562 0 0 1 .042-.112c0-.025.02-.038.023-.038.003 0-.023.059-.045.152a.984.984 0 0 0-.023.17c-.001.07.005.14.017.209.015.068.037.135.065.2.025.052.054.103.087.152.059.08.104.123.101.125ZM99.457 67.16a.26.26 0 0 1-.11-.043.565.565 0 0 1-.2-.2.512.512 0 0 1-.072-.267.217.217 0 0 1 .02-.112v.112a.612.612 0 0 0 .078.254.63.63 0 0 0 .186.197c.059.04.1.056.098.059ZM101.95 70.36a.311.311 0 0 1-.138-.029.509.509 0 0 1-.25-.208.473.473 0 0 1-.056-.312.254.254 0 0 1 .048-.122s-.017.048-.026.125a.474.474 0 0 0 .062.296c.053.089.134.16.231.205.076.032.129.04.129.046ZM103.275 71.74a.314.314 0 0 1-.112-.048.635.635 0 0 1-.206-.208.593.593 0 0 1-.087-.267.233.233 0 0 1 0-.117v.114a.676.676 0 0 0 .284.472c.042.015.082.033.121.053ZM102.437 63.257l-.065-.059a1.521 1.521 0 0 1-.16-.168 2.403 2.403 0 0 1-.574-1.364v-.224a.57.57 0 0 1 0-.082.286.286 0 0 1 0 .082v.225c0 .093.031.205.059.328.094.374.268.725.512 1.032.031.04.059.072.084.102l.068.075a.488.488 0 0 1 .076.053Z" fill="#fff"/><path d="M64.534 96.75h-13.69c-2.067 0-3.743 1.591-3.743 3.552v12.993c0 1.961 1.676 3.552 3.742 3.552h13.691c2.067 0 3.742-1.591 3.742-3.552v-12.993c0-1.961-1.675-3.551-3.742-3.551Z" fill="#E0E0E0"/><path d="M60.73 96.75H47.038c-2.067 0-3.743 1.591-3.743 3.552v12.993c0 1.961 1.676 3.552 3.743 3.552h13.69c2.067 0 3.743-1.591 3.743-3.552v-12.993c0-1.961-1.676-3.551-3.743-3.551Z" fill="#EBEBEB"/><path d="m46.574 107.088 2.131-2.026 4.114 3.472 6.872-6.546 1.979 2.023-9.155 8.427-5.941-5.35Z" fill="#fff"/><path d="M15.635 101.062H6.691c-2.067 0-3.742 1.59-3.742 3.552v8.488c0 1.961 1.675 3.551 3.742 3.551h8.944c2.067 0 3.743-1.59 3.743-3.551v-8.488c0-1.962-1.676-3.552-3.743-3.552Z" fill="#E0E0E0"/><path d="M12.686 101.062H3.742c-2.067 0-3.742 1.59-3.742 3.552v8.488c0 1.961 1.675 3.551 3.742 3.551h8.944c2.067 0 3.743-1.59 3.743-3.551v-8.488c0-1.962-1.676-3.552-3.743-3.552Z" fill="#EBEBEB"/><path d="m2.542 109.088 1.657-1.572 3.191 2.693 5.328-5.078 1.538 1.571-7.102 6.535-4.612-4.149Z" fill="#fff"/></svg>