<svg width="52" height="31" fill="none" xmlns="http://www.w3.org/2000/svg"><path d="M31.211.465H11.97c-3.444 0-6.237 2.648-6.237 5.916v18.25c0 3.268 2.793 5.916 6.237 5.916h19.242c3.445 0 6.238-2.648 6.238-5.916V6.381c0-3.268-2.793-5.916-6.238-5.916Z" fill="#7E57C2"/><path d="M31.211.465H11.97c-3.444 0-6.237 2.649-6.237 5.916v18.25c0 3.268 2.793 5.917 6.237 5.917h19.242c3.445 0 6.238-2.649 6.238-5.916V6.382c0-3.268-2.793-5.917-6.238-5.917Z" fill="#000" opacity=".3"/><path d="M25.517.465H6.275C2.831.465.038 3.113.038 6.38v18.25c0 3.268 2.793 5.916 6.237 5.916h19.242c3.445 0 6.238-2.648 6.238-5.916V6.381c0-3.268-2.793-5.916-6.238-5.916Z" fill="#7E57C2"/><path d="M4.945 15.942 8.14 12.91l6.162 5.196L24.59 8.31l2.966 3.027L13.844 23.95l-8.9-8.01Z" fill="#fff"/><path d="M47.866 11.306H35.293c-2.13 0-3.857 1.637-3.857 3.658v11.925c0 2.02 1.727 3.658 3.857 3.658h12.573c2.13 0 3.857-1.637 3.857-3.658V14.964c0-2.02-1.727-3.659-3.857-3.659Z" fill="#263238"/><path d="M44.225 11.306H31.652c-2.13 0-3.857 1.637-3.857 3.658v11.925c0 2.02 1.727 3.658 3.857 3.658h12.573c2.13 0 3.857-1.637 3.857-3.658V14.964c0-2.02-1.727-3.659-3.857-3.659Z" fill="#455A64"/><path d="m30.935 21.204 2.043-1.938 3.94 3.325 6.585-6.267 1.898 1.938-8.773 8.067-5.693-5.125Z" fill="#fff"/></svg>