<svg width="32" height="19" fill="none" xmlns="http://www.w3.org/2000/svg"><path d="M18.728.14H7.183C5.116.14 3.441 1.73 3.441 3.69v10.957c0 1.961 1.675 3.551 3.742 3.551h11.545c2.067 0 3.743-1.59 3.743-3.552V3.692c0-1.961-1.676-3.552-3.743-3.552Z" fill="#7E57C2"/><path d="M18.724.14H7.18c-2.066 0-3.742 1.59-3.742 3.552V14.65c0 1.961 1.676 3.551 3.742 3.551h11.546c2.066 0 3.742-1.59 3.742-3.551V3.692c0-1.961-1.676-3.551-3.742-3.551Z" fill="#000" opacity=".3"/><path d="M15.31.14H3.765C1.698.14.023 1.73.023 3.69v10.957c0 1.961 1.675 3.551 3.742 3.551h11.546c2.066 0 3.742-1.59 3.742-3.552V3.692c0-1.961-1.676-3.552-3.743-3.552Z" fill="#7E57C2"/><path d="m2.968 9.43 1.918-1.82 3.697 3.12 6.172-5.88 1.78 1.816-8.227 7.573-5.34-4.808Z" fill="#fff"/><path d="M28.717 6.647h-7.544c-1.278 0-2.314.983-2.314 2.196v7.16c0 1.212 1.036 2.195 2.314 2.195h7.544c1.278 0 2.314-.983 2.314-2.196V8.843c0-1.213-1.036-2.196-2.314-2.196Z" fill="#263238"/><path d="M26.537 6.647h-7.544c-1.278 0-2.314.983-2.314 2.196v7.16c0 1.212 1.036 2.195 2.314 2.195h7.544c1.278 0 2.314-.983 2.314-2.196V8.843c0-1.213-1.036-2.196-2.314-2.196Z" fill="#455A64"/><path d="m18.562 12.59 1.226-1.163 2.365 1.996 3.95-3.762 1.139 1.163-5.264 4.843-3.416-3.077Z" fill="#fff"/></svg>