<svg width="57" height="116" fill="none" xmlns="http://www.w3.org/2000/svg"><path d="m21.889 102.769-.242 6.022s6.369 2.258 6.442 3.373l-12.327-.024-.028-9.401 6.155.03Z" fill="#263238"/><path d="M17.835 108.276a.502.502 0 0 0-.28.205.458.458 0 0 0-.068.329c.03.113.106.211.21.273a.5.5 0 0 0 .352.06.527.527 0 0 0 .3-.221.48.48 0 0 0 .066-.355.487.487 0 0 0-.254-.262.524.524 0 0 0-.373-.023" fill="#E0E0E0"/><path d="m15.765 112.14.037-.947 11.81.379s.561.227.486.592l-12.333-.024Z" fill="#455A64"/><path d="M21.844 108.735c0 .056-.304.083-.599.267s-.455.421-.512.397c-.056-.024.037-.352.4-.565.362-.213.725-.152.711-.099ZM23.14 109.242c.014.056-.245.152-.45.392-.205.24-.264.499-.326.496-.062-.002-.096-.325.163-.621.258-.296.613-.32.613-.267ZM23.867 110.715c-.053 0-.137-.266.02-.586.157-.32.436-.435.461-.387.026.048-.149.213-.281.472-.132.259-.138.496-.2.501ZM21.742 107.36c-.025.053-.303-.027-.644 0-.34.026-.604.122-.635.074-.031-.048.225-.266.624-.266.4 0 .683.141.655.192Z" fill="#fff"/><path d="m6.799 101.946-.667 7.282 1.218 5.87a.713.713 0 0 1-.134.583.807.807 0 0 1-.54.303.797.797 0 0 1-.678-.234C4.9 114.613.88 110.413.962 109.879c.092-.614.168-7.709.168-7.709l5.669-.224Z" fill="#263238"/><path d="m6.677 115.99-5.68-6.591-.023.31c-.017.266.065.53.231.744.453.571 1.732 2.135 4.78 5.303a.82.82 0 0 0 .7.234h-.008Z" fill="#455A64"/><path d="M2.727 107.148a.436.436 0 0 1 .09.597.466.466 0 0 1-.293.163.486.486 0 0 1-.331-.072.46.46 0 0 1-.09-.635.49.49 0 0 1 .658-.024" fill="#fff" opacity=".6"/><path d="M5.138 112.697c.2-.219.441-.4.711-.534.288-.09.592-.126.895-.106 0-.019-.088-.08-.265-.115a1.307 1.307 0 0 0-.695.073c-.22.086-.409.23-.545.415-.101.16-.118.267-.101.267ZM5.62 113.712c.229-.101.463-.19.701-.267a7.35 7.35 0 0 1 .756-.045.92.92 0 0 0-.793-.11c-.46.094-.703.4-.663.422ZM4.21 111.391c.031.038.433-.306 1.05-.488.615-.181 1.15-.133 1.155-.181.005-.048-.548-.176-1.206.029a1.748 1.748 0 0 0-.999.64ZM4.218 109.165c.017.046.45-.096 1.004-.082.554.013.981.168 1.001.122a2.04 2.04 0 0 0-2.005-.04ZM4.352 107.03c.34-.083.692-.121 1.043-.112.582.048.973.344 1.001.304.028-.04-.065-.112-.233-.219a1.781 1.781 0 0 0-.751-.245 1.757 1.757 0 0 0-.784.101c-.192.075-.287.155-.276.171ZM5.414 106.512a.58.58 0 0 0 .031-.267 1.833 1.833 0 0 0-.183-.733.858.858 0 0 0-.357-.43.335.335 0 0 0-.36.045.486.486 0 0 0-.143.323c.003.245.096.481.261.669.165.188.394.316.647.363.252.04.51.008.743-.092.233-.099.43-.262.565-.468a.407.407 0 0 0 .044-.352.3.3 0 0 0-.125-.136.333.333 0 0 0-.187-.04 1.124 1.124 0 0 0-.523.219c-.22.144-.41.325-.562.533a.647.647 0 0 0-.135.243c.22-.261.477-.491.765-.683.134-.095.292-.157.458-.178a.165.165 0 0 1 .172.093.282.282 0 0 1-.042.229 1.144 1.144 0 0 1-.498.397 1.211 1.211 0 0 1-.644.078.977.977 0 0 1-.552-.304.888.888 0 0 1-.232-.563.343.343 0 0 1 .09-.226.176.176 0 0 1 .094-.047.18.18 0 0 1 .105.017c.14.087.247.211.31.358.144.3.232.622.258.952Z" fill="#fff"/><path d="M27.825 51.983a24.54 24.54 0 0 1 .596 7.613c-.124 1.622-5.888 46.403-5.888 46.403H14.76l2.185-42.089-.636.131s-4.243 17.95-4.588 20.856c-.31 2.613-3.889 21.593-3.889 21.593l-7.091.069 2.25-25.083 2.64-24.087 1.014-7.023 21.178 1.617Z" fill="#263238"/><path d="M16.664 61.056s.014.021.05.05c.056.04.12.068.189.084a.929.929 0 0 0 .736-.166c.147-.119.267-.264.354-.428.086-.163.137-.342.15-.524.056-.4.064-.83.095-1.287a97.32 97.32 0 0 0 .113-2.335 6.551 6.551 0 0 0 0-.968c-.063.318-.1.64-.11.963-.048.598-.104 1.42-.157 2.332-.031.454-.037.894-.082 1.276-.017.339-.17.658-.43.891a.874.874 0 0 1-.658.192 1.45 1.45 0 0 1-.25-.08ZM5.242 56.726a.68.68 0 0 0 .216.075c.204.05.412.083.622.098a4.692 4.692 0 0 0 2.048-.29 4.48 4.48 0 0 0 1.691-1.135c.14-.15.265-.31.377-.48a.702.702 0 0 0 .107-.2c-.023 0-.197.25-.562.608-.47.466-1.04.83-1.67 1.07a5.01 5.01 0 0 1-1.986.323c-.528-.016-.843-.093-.843-.07ZM24.73 54.853c-.002.25.038.5.118.739a5.517 5.517 0 0 0 2.08 2.972c.203.163.43.296.676.393.033-.04-1.038-.62-1.848-1.794s-.975-2.326-1.026-2.31Z" fill="#455A64"/><path d="m48.47 42.183 1.783.533 3.239-1.7 1.839 4.86-4.41.995-3.34-.35.89-4.338Z" fill="#AE7461"/><path d="M27.734 22.678s1.822 1.038 3.332 4.566c2.963 6.937 4.828 10.673 4.828 10.673l13.597 4.07-1.088 5.176s-13.794-1.825-15.642-2.481c-2.53-.9-4.403-5.63-4.403-5.63l-.624-16.374Z" fill="#E0E0E0"/><path d="M23.983 7.133c.349.013.69-.096.961-.306s.452-.506.51-.833a1.307 1.307 0 0 0-.199-.944 1.43 1.43 0 0 0-.805-.585 1.358 1.358 0 0 0 .17-1.652 1.47 1.47 0 0 0-.685-.581 1.567 1.567 0 0 0-.914-.091 1.645 1.645 0 0 0-.313-.813 1.767 1.767 0 0 0-.694-.561 1.872 1.872 0 0 0-1.76.114 2.089 2.089 0 0 0-1.25-.367c-.448.013-.879.168-1.224.44a1.493 1.493 0 0 0-.875.162c-.266.142-.477.36-.603.624-.125.263-.159.558-.095.841.063.283.22.54.448.731" fill="#263238"/><path d="M17.544 2.306h.315a6.3 6.3 0 0 1 4.207 1.334c1.175.93 1.938 2.248 2.136 3.688.383 2.78.768 5.855.827 7.352.124 3.1-3.118 3.736-3.118 3.736l.472 3.709-7.937.141-1.406-13.47c-.464-3.215 1.116-6.14 4.504-6.49Z" fill="#AE7461"/><path d="M21.94 18.397a8.285 8.285 0 0 1-4.327-.988s1.125 2.183 4.366 1.75l-.039-.762Z" fill="#6F4439"/><path d="M23.026 10.174a.426.426 0 0 1-.112.316.473.473 0 0 1-.312.15.465.465 0 0 1-.329-.09.419.419 0 0 1-.163-.285.431.431 0 0 1 .114-.316.479.479 0 0 1 .313-.151.467.467 0 0 1 .327.092.426.426 0 0 1 .162.284ZM23.58 8.862c-.056.062-.421-.17-.924-.146-.504.024-.844.28-.914.226-.07-.053.025-.133.18-.25.21-.153.464-.24.728-.251.261-.013.52.052.74.187.16.106.216.208.19.234ZM18.457 10.292a.42.42 0 0 1-.112.322.462.462 0 0 1-.32.15.465.465 0 0 1-.335-.087.429.429 0 0 1-.166-.289.429.429 0 0 1 .112-.315.476.476 0 0 1 .312-.151.468.468 0 0 1 .338.082.43.43 0 0 1 .171.288ZM18.65 9.186c-.056.058-.421-.174-.922-.147-.5.027-.858.267-.917.224-.059-.043.026-.13.18-.25.21-.154.464-.241.729-.252.261-.013.52.054.74.19.16.104.216.213.19.235ZM20.659 12.631c.261-.09.533-.15.81-.178.126-.02.247-.048.264-.131a.614.614 0 0 0-.104-.358 88.682 88.682 0 0 1-.427-.907c-.597-1.294-1.035-2.362-.979-2.383.056-.021.582 1.009 1.178 2.303.144.317.281.622.41.913a.675.675 0 0 1 .094.474.301.301 0 0 1-.079.116.321.321 0 0 1-.124.071.903.903 0 0 1-.216.04 3.42 3.42 0 0 1-.827.04ZM18.996 7.33c-.062.126-.498.014-1.03.022-.53.008-.97.115-1.026 0-.022-.059.065-.173.25-.267.24-.13.512-.197.788-.197.272-.004.54.06.776.187.183.085.267.197.242.256ZM23.517 6.897c-.1.112-.52.019-1.02.037-.5.019-.914.118-1.018 0-.045-.053.014-.165.194-.266.247-.14.53-.215.818-.216.287-.013.571.049.824.178.169.102.23.21.202.267Z" fill="#263238"/><path d="M23.815 5.904s-.964-1.9-1.968-2.306c-1.223-.49-1.67.777-2.812.534-1.141-.243-2.322-.72-3.441.168-1.223.974-.593 1.585-.602 2.965-.025 5.59-1.015 7.218-1.46 4.605-.047-.285-.902-.475-1.09-1.683-.242-1.57-.408-3.47-.096-4.617.264-.958.796-1.635 1.774-2.401 1.544-1.209 3.746-1.334 5.25-1.265 1.504.07 4.454 1.564 4.445 4Z" fill="#263238"/><path d="M13.722 11.772a.811.811 0 0 0-.1-.325.855.855 0 0 0-.228-.26.933.933 0 0 0-.673-.18c-.607.082-1.265.442-1.164 1.635.182 2.116 2.381 1.505 2.381 1.447 0-.06-.132-1.433-.216-2.317Z" fill="#AE7461"/><path d="M13.391 13.327s-.036.03-.098.064a.417.417 0 0 1-.281.027c-.245-.064-.473-.403-.518-.782-.02-.18.002-.362.065-.534a.42.42 0 0 1 .094-.184.451.451 0 0 1 .173-.122.212.212 0 0 1 .135.001.2.2 0 0 1 .104.081c.034.06.023.102.037.104.014.003.044-.04.02-.125a.27.27 0 0 0-.102-.125.29.29 0 0 0-.22-.038.553.553 0 0 0-.237.134.512.512 0 0 0-.14.227c-.078.19-.107.396-.084.6.051.424.316.8.647.87a.43.43 0 0 0 .349-.086c.056-.058.056-.106.056-.112Z" fill="#6F4439"/><path d="M13.551 7.668c.286.197.62.324.97.368a.758.758 0 0 0 .497-.127.69.69 0 0 0 .285-.407c.02-.15-.028-.317.067-.438.096-.12.344-.109.532-.098.652.034 1.375-.683 1.507-1.29a.61.61 0 0 0 .787.115c.2-.13.374-.29.515-.477a.904.904 0 0 1 .322-.288.96.96 0 0 1 .426-.112c.16.043.323.07.489.077.281-.037.419-.37.45-.648.03-.278.048-.603.281-.763.233-.16.526-.086.799-.06.272.027.615-.05.672-.306a.468.468 0 0 0-.121-.379 1.453 1.453 0 0 0-.786-.504 1.52 1.52 0 0 0-.946.066 1.88 1.88 0 0 0-.682-.86 2.052 2.052 0 0 0-2.17-.102 1.91 1.91 0 0 0-.767.792 2.04 2.04 0 0 0-.855-.388 2.097 2.097 0 0 0-.947.03 2.023 2.023 0 0 0-.825.442 1.885 1.885 0 0 0-.517.754 1.518 1.518 0 0 0-.828.068c-.263.099-.49.269-.651.49-.162.22-.252.48-.26.748a1.32 1.32 0 0 0 .218.762 1.336 1.336 0 0 0-.494.448c-.122.186-.192.4-.203.619 0 .438.486.854.928.718a.732.732 0 0 0 .11.84.798.798 0 0 0 .247.182.836.836 0 0 0 .884-.105.769.769 0 0 0 .193-.234" fill="#263238"/><path d="M20.495 3.026v.155a1.335 1.335 0 0 1-.14.413c-.112.21-.273.393-.47.534-.26.189-.577.29-.903.29l.037-.058c.076.19.071.4-.015.587-.091.193-.21.372-.354.534-.07.097-.15.186-.239.267a.786.786 0 0 1-.346.141.858.858 0 0 1-.393-.019.826.826 0 0 1-.338-.192l.082-.026c-.02.22-.087.433-.199.626a1.61 1.61 0 0 1-.448.497 1.27 1.27 0 0 1-.723.267c-.247 0-.493-.038-.728-.115l.056-.03c-.106.259-.28.487-.503.665a.953.953 0 0 1-.356.201.99.99 0 0 1-.412.037 1.259 1.259 0 0 1-.628-.29 1.159 1.159 0 0 1-.361-.57l.05.022c-.228.13-.496.18-.759.141a1.283 1.283 0 0 1-.548-.2 1.073 1.073 0 0 1-.264-.248.427.427 0 0 1-.062-.107c.095.128.213.238.348.326.16.099.342.16.532.179.25.031.503-.02.717-.147l.042-.024v.045c.059.205.178.39.345.532.167.142.373.235.594.269a.886.886 0 0 0 .376-.036.853.853 0 0 0 .322-.188c.208-.175.367-.396.463-.644l.014-.04h.045c.224.075.46.113.698.113a1.16 1.16 0 0 0 .666-.246 1.52 1.52 0 0 0 .428-.471c.106-.184.17-.387.188-.596v-.1l.076.073a.757.757 0 0 0 .644.187.712.712 0 0 0 .309-.123c.083-.072.157-.153.222-.24.142-.155.26-.328.349-.515a.655.655 0 0 0 .02-.534l-.02-.05h.056c.312.003.616-.091.866-.267.197-.128.361-.296.48-.491.094-.167.156-.347.184-.534Z" fill="#455A64"/><path d="M20.635 14.264c-.017-.08-.562.056-1.068-.288s-.602-.909-.678-.893c-.076.016-.073.147-.014.381.08.303.27.569.535.752.255.177.572.252.885.211.233-.037.352-.128.34-.163Z" fill="#263238"/><path d="M33.888 33.857c-.05-.168-2.958-7.677-3.883-9.32-1.11-1.967-3.445-2.837-4.893-2.936-1.448-.099-16.94 1.089-16.94 1.089s-4.629.982-5.22 4.76C2.273 31.8 1.68 41.755 1.68 41.755l7.052-3.431.914-2.183 14.593 3.09 3.562-4.984 6.088-.39Z" fill="#E0E0E0"/><path d="m7.146 23.133 6.05-2.532.678-2.476 7.066 3.17 1.48-1.553.62 1.75 1.547.48 3.619 6.039v12.867l.731 11.1-.796 1.75-6.48.908a7.74 7.74 0 0 1-2.138 0L6.364 52.6l-.337-3.674 1.406-10.11-.287-15.683Z" fill="#E0E0E0"/><path d="M13.878 18.125s.79.216 2.812 1.243c1.988 1.006 4.246 1.927 4.246 1.927l-.172 3.025-7.518-3.58M22.42 19.739l-1.48 1.553.791 3.244 1.319-2.932" fill="#E0E0E0"/><path d="M20.97 21.626c.065.048.475 3.736.475 3.736l-7.535-4.323 6.86 3.269.2-2.682Z" fill="#000" opacity=".3"/><path d="M20.92 35.426c-.115-2.828.354-10.044.354-10.044l.985-.152a100.61 100.61 0 0 1 2.53 15.613c.281 3.469.281 7.511.281 7.511l-1.968 4.02-2.182-4.004s.138-9.504 0-12.944Z" fill="#455A64"/><path d="M6.695 23.573c-.014.013.203.173.51.472a5.811 5.811 0 0 1 1.596 2.82c.093.406.116.665.133.663a.535.535 0 0 0 0-.182 5.046 5.046 0 0 0-.627-2.044 5.319 5.319 0 0 0-1.046-1.307 3.667 3.667 0 0 0-.4-.32.872.872 0 0 0-.166-.102Z" fill="#263238"/><path d="m20.918 22.738.672-.248.638 1.038.116 1.706-.9.138-.675-1.054.15-1.58Z" fill="#455A64"/><path d="M28.194 27.814c-.029 0-.054 3.693-.054 8.245s.025 8.248.054 8.248c.028 0 .053-3.69.053-8.248s-.025-8.245-.053-8.245ZM20.867 21.263c.116.212.244.418.382.617.308.493.59 1 .844 1.52l.073.148.047.096.048-.096c.246-.49.455-.996.627-1.513.065-.195.113-.355.14-.467a.46.46 0 0 0 .035-.177c-.014 0-.093.238-.242.622-.192.508-.41 1.005-.655 1.492h.095l-.073-.147a12.522 12.522 0 0 0-.886-1.515c-.129-.185-.238-.331-.317-.433-.079-.101-.113-.152-.118-.147Z" fill="#263238"/><path d="M13.199 20.599a.549.549 0 0 0 .104.058l.303.152 1.125.553c.948.467 2.25 1.134 3.684 1.868.874.443 1.704.854 2.426 1.195l.068.032v-.083c0-.888.016-1.635.022-2.177v-.614a1.453 1.453 0 0 0 0-.218c-.013.072-.02.145-.02.218 0 .152-.014.358-.025.611l-.059 2.178.067-.038c-.716-.35-1.543-.763-2.42-1.206a175.929 175.929 0 0 0-3.698-1.838c-.478-.224-.869-.403-1.139-.534l-.315-.133a.451.451 0 0 0-.123-.024ZM27.29 22.932c-.017 0 .101.198.256.534.196.422.34.863.43 1.316.087.454.117.916.09 1.377-.02.354-.059.57-.042.573a.511.511 0 0 0 .048-.15c.03-.138.053-.277.067-.418a4.737 4.737 0 0 0-.528-2.727 2.92 2.92 0 0 0-.222-.369c-.06-.096-.093-.14-.099-.136ZM21.614 25.482c0 .024.186-.053.38-.17.194-.118.343-.23.326-.254a.952.952 0 0 0-.383.17c-.194.118-.34.23-.323.254ZM21.285 25.066c.182-.273.334-.563.455-.865.153-.286.276-.585.369-.894-.186.271-.34.56-.459.862a4.504 4.504 0 0 0-.365.897Z" fill="#263238"/><path d="M5.905 23.765s-2.33 1.6-2.623 2.473c-.293.873-1.53 15.18-1.75 16.883-.219 1.703-.438 4.88.948 5.918 1.386 1.039 4.373 1.818 4.373 1.818l2.758-5.404-1.462-2.906 1.462-10.86-3.706-7.922Z" fill="#E0E0E0"/><path d="M6.187 50.663c.05-.005.1-.005.149 0 .144 0 .288-.01.43-.027a3.24 3.24 0 0 0 1.49-.512 3.875 3.875 0 0 0 1.423-1.847 8.01 8.01 0 0 0 .54-2.91l.014.037-2.142-2.816-.017-.021v-.027c0-.072.02-.152.03-.23.411-3.044.785-5.803 1.058-7.812.135-.99.244-1.796.323-2.367.037-.267.065-.486.087-.646.023-.16.031-.224.034-.224.005.02.005.04 0 .059v.168c-.017.16-.036.376-.062.648-.059.56-.154 1.372-.28 2.372a766.822 766.822 0 0 1-1.016 7.822c0 .077-.02.154-.03.226v-.048l2.133 2.818v.037a8.083 8.083 0 0 1-.562 2.954 3.948 3.948 0 0 1-1.485 1.868 2.882 2.882 0 0 1-.843.371l-.191.05-.18.03c-.104.02-.21.032-.315.035a2.675 2.675 0 0 1-.433 0 .808.808 0 0 1-.155-.008Z" fill="#263238"/><path d="M3.37 43.543c.18-.168.387-.307.613-.413a5.982 5.982 0 0 1 3.506-.648c.252.019.498.074.731.165a7.319 7.319 0 0 0-4.861.896h.011Z" fill="#263238"/><path d="M21.668 29.305s.134.475.345 1.313a6.157 6.157 0 0 1 1.8-1.633s3.599-3.394 4.749-6.962c.843-2.59.627-5.462.627-5.462-.034-.136-.315-1.353-.543-2.348a1.489 1.489 0 0 1 .205-1.144c.22-.343.573-.59.982-.692 1.78-.456 6.619-1.345 7.743 1.734 1.657 4.603-1.023 9.575-.992 10.997v.664c1.42-.312 2.53-.533 2.53-.512l9.319-2.063s3.078-.886 4.136 2.111c1.057 2.997-2.53 4.003-2.53 4.003s1.686-.072 2.142 2.652c.455 2.724-2.624 3.608-2.624 3.608s1.887-.115 2.376 2.3c.475 2.35-2.603 3.768-2.77 3.842a6.82 6.82 0 0 1 .743-.133 4.377 4.377 0 0 1-.562.155c1.437.173 1.645 1.796 1.645 1.796.925 3.327-1.775 4.026-1.775 4.026l-17.022 3.768a10.296 10.296 0 0 1-5.129-.176c.163.688.25 1.067.245 1.067L15.423 54.85c-.026 0-1.308-5.12-2.866-11.445C11 37.081 9.76 31.931 9.785 31.931l11.883-2.626Z" fill="#7E57C2"/><path d="M21.668 29.31s.134.476.345 1.313a6.157 6.157 0 0 1 1.8-1.633s3.599-3.394 4.749-6.961c.843-2.591.627-5.463.627-5.463-.034-.136-.315-1.353-.543-2.348a1.489 1.489 0 0 1 .205-1.144c.22-.342.573-.59.982-.692 1.78-.456 6.619-1.345 7.743 1.735 1.657 4.603-1.023 9.574-.992 10.996v.665c1.42-.313 2.53-.534 2.53-.513l9.319-2.062s3.078-.886 4.136 2.11c1.057 2.997-2.53 4.003-2.53 4.003s1.686-.072 2.142 2.652c.455 2.725-2.624 3.608-2.624 3.608s1.887-.115 2.376 2.3c.475 2.35-2.603 3.768-2.77 3.843a6.82 6.82 0 0 1 .743-.134 4.362 4.362 0 0 1-.562.155c1.437.173 1.645 1.796 1.645 1.796.925 3.327-1.775 4.026-1.775 4.026L32.192 51.33a10.297 10.297 0 0 1-5.129-.176c.163.688.25 1.067.245 1.067l-11.885 2.634c-.026 0-1.308-5.12-2.866-11.445C11 37.086 9.76 31.936 9.785 31.936l11.883-2.625Z" fill="#000" opacity=".3"/><path d="m23.965 32.518-.231 1.468 3.801 15.437a10.095 10.095 0 0 0 3.68 1.404c1.315.224 2.665.192 3.966-.097l17.016-3.77s2.7-.7 1.774-4.027c0 0-.222-1.767-1.827-1.815 0 0 3.262-1.43 2.775-3.845-.486-2.415-2.373-2.297-2.373-2.297s3.079-.886 2.62-3.61c-.458-2.725-2.142-2.653-2.142-2.653s3.585-.995 2.53-4.003c-1.054-3.007-4.136-2.11-4.136-2.11l-12.09 2.668-10.606 2.351a6.303 6.303 0 0 0-3.176 1.752 5.783 5.783 0 0 0-1.581 3.147Z" fill="#7E57C2"/><path d="M26.793 28.4s3.599-3.394 4.748-6.962c.844-2.59.628-5.46.628-5.46-.034-.138-.315-1.355-.543-2.35a1.489 1.489 0 0 1 .204-1.144c.221-.342.573-.59.983-.692 1.788-.459 5.013.384 6.123 3.47 1.657 4.6.594 7.836.622 9.258l.028 1.423L26.793 28.4ZM24.66 28.708l-11.883 2.635 5.64 22.913 11.884-2.635-5.641-22.913Z" fill="#7E57C2"/><path d="M30.298 51.63c.025 0-1.215-5.14-2.773-11.474-1.557-6.335-2.84-11.453-2.865-11.447-.025.005 1.215 5.14 2.772 11.474 1.558 6.335 2.835 11.453 2.866 11.447ZM18.414 54.26c.025 0-1.218-5.139-2.776-11.474-1.557-6.334-2.84-11.452-2.865-11.447-.025.006 1.215 5.14 2.773 11.474 1.557 6.335 2.84 11.448 2.868 11.448Z" fill="#263238"/><path d="M21.752 34.893c.103.417.073.854-.086 1.255-.159.4-.44.748-.806.998a2.378 2.378 0 0 1-2.535.08 2.206 2.206 0 0 1-.875-.945 2.066 2.066 0 0 1-.174-1.247c.073-.422.276-.815.585-1.128a2.314 2.314 0 0 1 1.147-.63 2.39 2.39 0 0 1 1.725.27c.514.303.88.787 1.02 1.347Z" fill="#fff"/><path d="M42.097 24.673c0-.024-1.307.243-2.904.597-1.597.355-2.89.659-2.885.683.006.024 1.308-.243 2.905-.595 1.597-.352 2.89-.661 2.884-.685ZM52.81 35.031c0-.024-.843.142-1.86.366-.623.12-1.24.27-1.845.453 0 .024.844-.142 1.861-.366a19.72 19.72 0 0 0 1.845-.453ZM53.244 28.605c0-.024-1.187.218-2.637.533-1.451.315-2.62.6-2.615.627.005.026 1.186-.219 2.637-.534 1.451-.314 2.62-.586 2.615-.626ZM52.892 40.983c0-.024-1.186.216-2.637.533-1.45.318-2.62.6-2.615.624.006.024 1.187-.216 2.638-.533 1.45-.317 2.62-.6 2.614-.624Z" fill="#263238"/><path d="M32.91 12.928a1.31 1.31 0 0 0-.332.63 1.27 1.27 0 0 0 .052.704c.178.45.395.884.65 1.3.487.964.628 2.055.398 3.103-.07.318-.163.683.051.937.304.357.914.16 1.3-.12a4.623 4.623 0 0 0 1.554-2.1 4.39 4.39 0 0 0 .132-2.562 3.226 3.226 0 0 0-1.198-1.833c-.621-.438-1.574-.833-2.629-.067M52.525 23.005a3.064 3.064 0 0 0-1.257.125l-7.181 1.73c-.782.189-2.25.357-2.266 1.114-.158.414.174.884.601 1.052.445.136.921.153 1.375.048.96-.144 1.907-.358 2.854-.571 1.9-.433 3.807-.875 5.624-1.601.273-.094.527-.23.753-.403a.935.935 0 0 0 .265-.323.885.885 0 0 0 .092-.4.94.94 0 0 0-.297-.519 1.027 1.027 0 0 0-.563-.252Z" fill="#fff" opacity=".3"/><path d="M22.015 29.976c0-.024-1.688.326-3.72.779-2.033.453-3.703.84-3.698.864.006.024 1.67-.323 3.72-.776 2.05-.453 3.703-.83 3.698-.867ZM54.077 32.586a.424.424 0 0 0 .044-.134c.035-.123.056-.25.062-.378.014-.19.008-.38-.02-.569a3.135 3.135 0 0 0-.19-.675 3.06 3.06 0 0 0-.355-.614 2.718 2.718 0 0 0-.4-.427 2.063 2.063 0 0 0-.32-.232.432.432 0 0 0-.129-.066c0 .015.166.122.405.346.138.131.262.274.371.427.134.188.247.388.337.598.087.212.152.43.195.654.03.183.042.37.039.555-.009.31-.06.51-.04.515ZM54.405 26.393a.834.834 0 0 0 .225-.304c.137-.274.197-.576.174-.878a1.734 1.734 0 0 0-.281-.851.852.852 0 0 0-.264-.267c-.014 0 .09.112.205.307a1.85 1.85 0 0 1 .115 1.668c-.098.2-.188.314-.174.325ZM53.507 39.258a.94.94 0 0 0 .318-.299c.215-.287.32-.635.298-.987a1.501 1.501 0 0 0-.421-.945.956.956 0 0 0-.355-.267s.135.104.304.302c.22.26.35.577.377.91.018.333-.073.664-.26.947-.14.222-.275.328-.26.339ZM52.427 45.23a.94.94 0 0 0 .214-.32 1.931 1.931 0 0 0-.082-1.79.948.948 0 0 0-.242-.302c-.014 0 .08.123.183.331.133.27.21.562.225.86.013.297-.037.595-.146.875-.084.216-.166.339-.152.347ZM39.07 20.673c.031-.087.055-.176.07-.267.02-.082.042-.187.062-.31.02-.122.045-.266.056-.416a7.959 7.959 0 0 0-.49-3.706 7.593 7.593 0 0 0-.469-.995 4.146 4.146 0 0 0-.216-.366c-.065-.099-.127-.195-.18-.267a1.338 1.338 0 0 0-.17-.216c.04.082.086.16.139.235.047.075.104.165.163.267.059.101.138.23.205.37.169.324.317.656.444.996.153.417.276.843.369 1.275.083.435.137.875.16 1.316.015.356.008.712-.023 1.067 0 .155-.028.294-.042.414-.014.12-.03.227-.045.312a1.245 1.245 0 0 0-.034.291Z" fill="#fff"/><path d="M11.937 47.707s.934-.689 1.628-.715c.695-.027 1.598.226 1.777.141.18-.085.605-.462.875-.144.27.317.604 1.46-.844 1.774h-.995s.12.945.363 1.316c.242.37 3.618 4.405 3.618 4.405s.422.403.211.8c-.21.398-1.124.172-1.124.172s-.633.533-1.356.285a5.146 5.146 0 0 1-1.026-.456c-.234.17-.52.261-.814.261-.294 0-.58-.092-.814-.261-.844-.6-3.655-3.95-3.655-3.95l1.006-3.735 1.15.107Z" fill="#AE7461"/><path d="m9.008 45.496 2.93 2.214-2.152 3.632-4.29-1.478s.123-4.291 3.511-4.368ZM54.703 40.544s-.093-.995-.68-.8c-.588.195-.844 1.376-.844 1.376l1.524-.576Z" fill="#AE7461"/><path d="M52.602 41.528s1.021-1.083 2.438-.995c1.417.088.526 1.23.526 1.23s1.051.614.281 1.495l-.124.234s.895.32-.03 1.228a.858.858 0 0 1-.124 1.027c-.464.438-1.62-.147-1.62-.147s-1.066.235-1.158-.176a.738.738 0 0 1 .01-.418.775.775 0 0 1 .237-.353c.093-.059.65-.267.65-.267s-1.235.147-1.266-.147c-.03-.293-.154-.616.77-.907l.496-.125s-1.282.037-1.29-.267c-.01-.304-.068-.411.393-.614.291-.128.573-.275.843-.44 0 0-1.214.259-1.032-.358Z" fill="#AE7461"/><path d="M52.382 42.672a5.343 5.343 0 0 1 1.527-.742 5.603 5.603 0 0 1 1.71-.128 1.472 1.472 0 0 0-.504-.101 3.613 3.613 0 0 0-2.361.632 1.284 1.284 0 0 0-.372.339ZM52.52 44.344s-.028-.037-.06-.104a.444.444 0 0 1 0-.304.694.694 0 0 1 .282-.368 1.67 1.67 0 0 1 .562-.221 14.608 14.608 0 0 1 1.62-.187 1.594 1.594 0 0 0-.484-.05 5.302 5.302 0 0 0-1.164.12 1.663 1.663 0 0 0-.604.25.74.74 0 0 0-.298.435.433.433 0 0 0 .042.346c.062.072.101.088.104.083ZM53.039 45.634s-.045-.027-.107-.083a.494.494 0 0 1-.158-.373.472.472 0 0 1 .186-.36c.185-.12.39-.21.605-.267.406-.08.823-.1 1.237-.061.175.021.353.012.526-.027a4.126 4.126 0 0 0-.52-.059 3.621 3.621 0 0 0-1.28.032 2.127 2.127 0 0 0-.644.296.531.531 0 0 0-.183.267.631.631 0 0 0 .072.448.504.504 0 0 0 .14.141c.07.051.126.051.126.046ZM52.589 41.575s.025-.037.09-.093a4.096 4.096 0 0 1 1.327-.75c.37-.133.768-.188 1.164-.16.16.035.32.078.475.129a.862.862 0 0 0-.458-.211 2.535 2.535 0 0 0-1.218.128c-.928.315-1.456.917-1.38.957Z" fill="#6F4439"/></svg>