<svg width="39" height="60" fill="none" xmlns="http://www.w3.org/2000/svg"><path d="M36.4 38.12c.403.058.774.254 1.047.556.376.478 1.209 1.907 1.373 2.066a1.17 1.17 0 0 1-.372.39l-.445-.502c-.11-.09-.157-.192-.152.105.005.296.047.602.04 1.046 0 .35.066 1.012-.534 1.682-.56.626-1.163.928-1.582.986-.25.035-.688-.023-.66-.524.014-.263.132-1.13.174-1.61.042-.48 1.11-4.195 1.11-4.195Z" fill="#263238"/><path d="M36.519 38.23a2 2 0 0 1-.475-.629c-.108-.22-.66-1.435-1.32-3.122-.852-2.169-2.27-3.77-2.708-4.584a17.106 17.106 0 0 1-1.233-2.774l-1.755 1.172-2.322-.042c-.023.35.118.803.377 1.336v.015c.022.046.049.097.075.146.524 1.015 1.397 2.243 2.383 3.489l.023.03.035.043c.95 1.2 1.992 2.421 2.904 3.478v-.026a23.852 23.852 0 0 1 2.015 2.652c.824 1.348.768 2.53.773 3.25 0 .45.35.535.826.143a2.405 2.405 0 0 0 .919-1.979c.103-1.54-.032-1.983-.517-2.599Z" fill="#B16668"/><path d="m30.729 28.325-4.034-.075v.192c0 .017 0 .063.009.096s0 .047.014.072l.016.087c0 .028.015.057.022.087l.021.078c0 .01 0 .018.01.025.008.007 1.019.698 2.906 1.019 0 0 .058 3.007.557 4.221l.561.679c.089-1.797-.082-6.48-.082-6.48Z" fill="#9A4A4D"/><path d="M33.558 41.316c.299.309.491.705.548 1.13.056.651-.02 2.43.03 2.671-.161.087-.34.133-.524.135l-.101-.716c-.044-.146-.028-.263-.185 0-.157.264-.288.572-.533.967-.195.312-.494.954-1.363 1.209-.81.239-1.481.158-1.863-.034-.23-.113-.566-.423-.273-.856.155-.23.726-.944 1.023-1.354.297-.41 3.241-3.152 3.241-3.152Z" fill="#263238"/><path d="M31.35 41.29c.041-1.702-1.562-9.482-1.13-13.136l4.573-.056a19.68 19.68 0 0 0-.473 3.229c-.075.994.244 3.269-.22 5.728a33.167 33.167 0 0 0-.524 3.473c0 .264-.028.822-.016.967.073.84-.054 1.319-.978 2.651-.174.257-.607 1.089-1.847 1.251-.61.078-.857-.204-.617-.612.395-.654 1.191-1.794 1.232-3.494Z" fill="#B16668"/><path d="M34.319 31.329c-.009.387.014.771.035 1.157.02.385.035.772.047 1.158.02.775-.008 1.55-.084 2.322-.04.385-.103.767-.175 1.148l-.209 1.133c-.069.38-.133.76-.192 1.14-.061.38-.122.76-.159 1.144.047-.771.135-1.54.262-2.301.112-.764.286-1.514.35-2.28.045-.38.067-.766.088-1.15.021-.383.018-.769.021-1.154.004-.386 0-.771-.014-1.157a8.884 8.884 0 0 1 .03-1.16ZM30.151 30.187a14.293 14.293 0 0 1 .067-2.034l4.573-.055a14.5 14.5 0 0 0-.294 1.536s-1.756.884-4.346.553Z" fill="#9A4A4D"/><path d="M26.778 20.723c.104-1.05.27-2.093.496-3.123.175-.789.35-1.472.473-2.076 1.329.885 4.633.965 6.154-.031.63.877 1.169 1.816 1.608 2.803.524 1.235.738 2.006.714 3.54-.023 1.395-.65 5.526-1.222 7.288-1.546.856-6.964.659-8.497-.873.002-.001.09-6.076.274-7.529Z" fill="#455A64"/><path d="M28.213 1.696a.823.823 0 0 1 .088-.515c.192-.349.616-.512 1.014-.553.218.001.435-.04.638-.118.178-.087.3-.262.475-.374a.993.993 0 0 1 .67-.122c.275.034.533.153.737.34.152.156.34.27.548.335.498.143.854-.034 1.32.37a1.263 1.263 0 0 1 .383 1.047c.349.19.85 1.395.227 2.79-.32.713-.728 1.048-1.231 1.656l-.512.025c-.188-.426-.62-.325-1.023-.405-.248-.098-.391-.349-.627-.459a1.904 1.904 0 0 0-.698-.117 1.342 1.342 0 0 1-.76-.214 1.22 1.22 0 0 1-.316-.523c-.052-.124-.147-.54 0-.642-.229.174-.683.265-.927.085a.502.502 0 0 1-.19-.497.4.4 0 0 0 .019-.112.241.241 0 0 0-.126-.183c-.066-.042-.14-.066-.204-.11a.561.561 0 0 1-.175-.619c.082-.215.23-.398.424-.523.12-.086.259-.175.282-.321a.698.698 0 0 0-.035-.241Z" fill="#263238"/><path d="m30.165 8.198.265-.045c.227-.039.196-.297.207-.524v-.348a1.554 1.554 0 0 1-1.156-.307c-.49-.39-.78-1.195-.774-2.075 0-.584.143-.872.13-.994-.086-.78-.032-.92.132-1.333.299-.657 1.112-.93 1.5-.254.983-.841 2.156.152 2.169 1.359-.093 1.001.214 1.036.41 1.034.258-.633.901-.652 1.19-.265.261.349.28.91-.175 1.44-.456.531-.964.222-.975.121 0 0-.016 1.345-.014 1.612.002.267.039.424.376.523l.485.136s-.024.035-.075.095c-.114.146-.363.465-.784 1.011a23.28 23.28 0 0 0-3.218 1.64 14.84 14.84 0 0 1-.594-1.725c.259-.4.56-.769.901-1.1Z" fill="#B16668"/><path d="m31.192 5.564-.75.237a.384.384 0 0 0 .487.27.414.414 0 0 0 .263-.507Z" fill="#9A4A4D"/><path d="M31.148 5.74a.433.433 0 0 0-.433.337.373.373 0 0 0 .401-.125.41.41 0 0 0 .091-.202l-.06-.01Z" fill="#F28F8F"/><path d="m29.07 3.49.578-.183a.292.292 0 0 0-.37-.203.318.318 0 0 0-.208.386ZM31.837 3.636l-.571-.221a.295.295 0 0 1 .386-.175.321.321 0 0 1 .185.396ZM29.764 4.064a.255.255 0 0 1-.323.26.238.238 0 0 1-.17-.21.253.253 0 0 1 .407-.215.24.24 0 0 1 .086.165ZM31.558 4.171a.261.261 0 0 1-.33.267.244.244 0 0 1-.173-.216.26.26 0 0 1 .33-.265.244.244 0 0 1 .173.214Z" fill="#263238"/><path d="M30.64 7.282c.96-.095 1.883-.35 2.118-.94a.985.985 0 0 1-.55.816 3.478 3.478 0 0 1-1.571.406l.003-.282ZM29.64 4.888l.884.326.115-1.658-.998 1.332Z" fill="#9A4A4D"/><path d="M26.473 11.41c-1.039 2.919-1.517 4.14-1.517 4.14s-3.328 2.978-3.877 3.372c-.548.394-1.571 1.012-1.571 1.012-.624.43-.845.697-1.004 1.099-.16.4.083 1.123.349 1.439.265.316.492.542.831.582.219.028.44.024.658-.012.079-.038.15-.094.233-.125.082-.032.213-.04.309-.088.155-.075.235-.25.377-.348.07-.048.15-.074.218-.12a.665.665 0 0 0 .149-.14.432.432 0 0 0 .117-.316.525.525 0 0 0-.051-.136l-.09-.188a.64.64 0 0 1 .085-.363c.106-.138.468-.587.468-.587l.03-.02c.214-.175.37-.35.534-.489.278-.225.573-.428.883-.607 1.645-.996 2.661-1.756 3.283-2.14.622-.384.71-.763 1.17-1.55.78-1.337 1.645-3.314 1.645-3.314l.068-4.478c-1.902.12-2.618 1.467-3.297 3.378Z" fill="#B16668"/><path d="m23.052 17.192-.763.635c.334.192.618.459.831.78.2.31.333.659.391 1.023l.849-.523s0-.459-.43-1.102a2.64 2.64 0 0 0-.878-.813Z" fill="#BA68C8"/><path opacity=".7" d="m23.052 17.192-.763.635c.334.192.618.459.831.78.2.31.333.659.391 1.023l.849-.523s0-.459-.43-1.102a2.64 2.64 0 0 0-.878-.813Z" fill="#fff"/><path d="M29.762 7.975c-1.088.146-1.89.373-2.54 1.626-.649 1.252-2.28 5.794-2.28 5.794l-2.25 2.038c.344.194.64.466.86.794.227.354.376.753.439 1.168 0 0 2.19-1.418 2.914-1.871.724-.454.944-.92 1.681-2.249.737-1.33 1.301-2.398 1.301-2.398l-.125-4.902Z" fill="#263238"/><path d="M30.407 8.157s-.428.89-.136 1.427c1.439-.164 2.654-.832 3.143-1.283l1.21.19s.791 1.51.545 2.792c-.246 1.282-1.275 4.218-1.275 4.218-1.369 1.987-6.03.936-6.153.031l-.253-2.055s-.654-.626-.685-1.463c-.035-.873.328-1.495 1.222-2.402a10.948 10.948 0 0 1 1.684-1.427l.698-.028Z" fill="#BA68C8"/><path opacity=".7" d="M30.407 8.157s-.428.89-.136 1.427c1.439-.164 2.654-.832 3.143-1.283l1.21.19s.791 1.51.545 2.792c-.246 1.282-1.275 4.218-1.275 4.218-1.369 1.987-6.03.936-6.153.031l-.253-2.055s-.654-.626-.685-1.463c-.035-.873.328-1.495 1.222-2.402a10.948 10.948 0 0 1 1.684-1.427l.698-.028Z" fill="#fff"/><path opacity=".3" d="M33.012 13.295a1.85 1.85 0 0 1-1.596 1.22 1.954 1.954 0 0 1-1.795-.78s.252 1.338 1.844 1.103c1.592-.235 1.547-1.543 1.547-1.543Z" fill="#BA68C8"/><path d="M33.088 7.79s-1.187 2.76-1.587 4.093c-.4 1.333-.192 2.397-.042 4.81.117 1.856.32 4.657.32 4.657s3.525-.05 4.608-1.62c-.288-.923-1.193-3.076-1.425-3.663-.232-.588-.119-1.11.257-2.47.375-1.361.983-2.108.965-3.116a2.813 2.813 0 0 0-.977-1.994l-2.119-.698ZM30.594 8.016a.222.222 0 0 1-.148.14s-2.392 2.297-2.558 4.676c-.166 2.38-.316 7.592-.316 7.592s-.26-.12-.767-.671c.108-1.082.482-5.35.38-5.839-.1-.489-1.267-1.603-.198-3.192 1.069-1.59 2.77-2.742 2.77-2.742l.872-.19a.565.565 0 0 1-.035.226Z" fill="#37474F"/><path d="M29.413 8.6c-.151.137-.303.275-.448.418-.294.284-.585.57-.873.872-.14.15-.28.3-.414.454a5.31 5.31 0 0 0-.2.237.809.809 0 0 0-.174.282.912.912 0 0 0-.02.328c.012.105.031.21.06.31.051.19.117.373.196.552-.168.198-.304.42-.403.66a.423.423 0 0 0-.025.108.576.576 0 0 0 0 .11c0 .068.018.134.028.2.023.13.049.262.077.39.112.524.244 1.032.39 1.543-.104-.524-.207-1.047-.301-1.558-.023-.13-.044-.26-.061-.39 0-.065-.018-.13-.02-.192a.36.36 0 0 1 .021-.175c.105-.235.244-.454.414-.647l.025-.032-.016-.036a3.808 3.808 0 0 1-.195-.567 1.86 1.86 0 0 1-.053-.29.79.79 0 0 1 .03-.284.74.74 0 0 1 .141-.237c.063-.08.128-.157.194-.234.131-.155.269-.305.405-.455.274-.302.552-.602.835-.895.283-.293.562-.592.862-.872a7.685 7.685 0 0 0-.475.4ZM33.614 11.764v-.978c-.009-.872-.02-1.729-.05-2.594-.036.872-.053 1.73-.069 2.597v1.054c.004.02.004.04 0 .06a.348.348 0 0 1-.066.116 1.507 1.507 0 0 1-.515.332 4.388 4.388 0 0 1-.601.21l-.072.02.026.066c.106.262.197.529.273.8.017.069.033.137.044.205a.493.493 0 0 1 .008.187v.017l-.012.024-.166.335c-.126.255-.255.508-.377.766l-.396.77.419-.745c.14-.248.274-.5.41-.75l.101-.187.051-.095.038-.071.01-.033a.595.595 0 0 0 0-.236 1.72 1.72 0 0 0-.041-.214 7.404 7.404 0 0 0-.243-.754c.19-.051.376-.115.557-.19.214-.08.406-.206.563-.372a.449.449 0 0 0 .09-.174.383.383 0 0 0 .013-.1l.005-.066Z" fill="#263238"/><path d="M38.13 15.07c.151 1.141.183 1.335.11 2.094-.055.568-.114.664-.33 1.7-.214 1.037-.755 2.928-.746 3.203.022.263.022.528 0 .79a3.33 3.33 0 0 1-.219.913c-.078.2-.129.422-.221.617a2.432 2.432 0 0 1-.283.372c-.105.136-.142.31-.271.433-.224.212-.46.244-.672.348-.093.135-.246.42-.35.548-.263.323-.323-.206-.314-.385a2.78 2.78 0 0 1 .108-.57c.135-.465.243-.938.325-1.415.014-.086.117-.437-.022-.435a.176.176 0 0 0-.116.068c-.096.108-.159.243-.244.36-.069.09-.144.175-.225.254a.764.764 0 0 1-.227.175c-.091.038-.423.064-.437-.091a.16.16 0 0 1 .018-.073c.068-.16.15-.314.22-.473.073-.16.137-.322.192-.488.108-.495.31-.963.593-1.382.563-.775.68-5.347.68-5.347l-.755-3.15a6.93 6.93 0 0 1-.434-2.652c.048-1.496.609-1.896.609-1.896 1.161.466 1.793.83 2.095 1.898.302 1.068.812 3.817.915 4.584Z" fill="#B16668"/><path d="m35.49 19.2-.088.896s.393-.108 1.209.12c.644.183.873.5.873.5l.211-.871s-.683-.73-2.205-.646Z" fill="#BA68C8"/><path opacity=".7" d="m35.49 19.2-.088.896s.393-.108 1.209.12c.644.183.873.5.873.5l.211-.871s-.683-.73-2.205-.646Z" fill="#fff"/><path d="M38.281 15.888c-.033-.27-.202-1.689-.623-3.763-.398-1.971-.494-2.19-.837-2.644-.288-.38-.586-.663-1.602-.998 0 0-.828.493-.847 1.793-.02 1.239.513 2.966.513 2.966l.718 3.194-.175 3.18c.553-.194 1.905.115 2.193.662 0 0 .35-1.304.564-2.314a6.183 6.183 0 0 0 .096-2.076Z" fill="#263238"/><path d="m2.887 27.493 1.06-3.927c.49-2.016-.147-4.565-.147-4.565-.906.107-1.709.523-2.149 1.666-.44 1.143-1.08 5.059-1.235 5.912a7.668 7.668 0 0 0-.087 2.233c.079.95.557 2.656.747 3.588.088.43.142.848.2 1.287.09.452.211.897.363 1.331.065.21.185.4.349.548.101.096.244.113.35.204.104.09.113.239.25.316.139.077.332.043.465.13.13.107.267.206.409.295.133.044.252.12.349.222.084.101.16.324.321.316.16-.009.219-.175.234-.332a1.37 1.37 0 0 0-.248-.823 7.605 7.605 0 0 0-.483-.77 1.897 1.897 0 0 1-.35-.777c-.047-.187-.019-.424.215-.306.278.142.564.426.905.382.237-.028.258-.212.129-.373a6.788 6.788 0 0 1-.578-.837c-.175-.299-.318-.614-.501-.907-.1-.153-.21-.298-.329-.436-.323-.391-.286-.9-.303-1.375-.035-.665.035-2.153.064-3.002Z" fill="#FFA8A7"/><path d="m.582 30.52.21.957s.365.227 1.122.122c.758-.104.994-.349.994-.349l-.044-1.008-2.282.278Z" fill="#F0F0F0"/><path d="M3.521 18.481c-1.316.16-1.779.977-2.179 2.313C.93 22.166.486 25.282.375 25.93a8.935 8.935 0 0 0-.194 2.392c.093.847.236 1.69.428 2.52 0 0 .349.196 1.088.159 1.026-.052 1.222-.37 1.222-.37l.066-3.122 1.465-4.895-.929-4.133Z" fill="#455A64"/><path d="M19.01 51.998c.096-.043.175.21.152.35-.068.409-.443.951-1.11 1.361-.667.41-2.136.689-2.567.816-.431.128-1.097.604-1.498.82-.734.392-1.333.349-1.666.174a.525.525 0 0 1-.224-.349c-.087-.31-.08-.381-.047-.39l6.96-2.782Z" fill="#263238"/><path d="M11.86 53.853c.04.39.132.772.277 1.136a.813.813 0 0 0 .65.246c.556 0 1.047-.204 1.56-.523a4.202 4.202 0 0 1 1.056-.504c.45-.124 1.452-.35 1.895-.494.417-.135.8-.356 1.125-.649.248-.24.593-.706.618-.977-.075-.586-.23-.898-.592-.984-.362-.085-.856.028-1.505.194-.196.049-.44.118-.545.141a18.38 18.38 0 0 0-1.065.258 1.67 1.67 0 0 1-.769.079.505.505 0 0 1-.31-.16c-.105-.123-.175-.33-.29-.302 0 0-2.056 1.127-2.227 1.205-.17.078.032.356.123 1.334Z" fill="#37474F"/><path d="M16.558 51.368c.084.033.16.083.222.147.068.07.126.146.175.23.065.107-.065.175-.16.061a1.503 1.503 0 0 0-.254-.265.35.35 0 0 0-.232-.077l-.114.026c.01-.097.264-.151.363-.122ZM15.541 51.58a.267.267 0 0 1 .226 0c.092.041.171.106.229.189.072.1.137.206.193.316.032.071-.138.125-.174.05a2.994 2.994 0 0 0-.175-.284c-.035-.045-.183-.213-.306-.194l-.052.014c-.009-.024.02-.054.04-.068l.02-.022ZM14.955 51.757a.216.216 0 0 1 .15.035.665.665 0 0 1 .147.15c.072.107.127.225.164.349.031.094-.143.125-.175.062a.998.998 0 0 0-.258-.446.44.44 0 0 0-.194-.11c0-.02.023-.03.04-.033.018-.004.098-.007.126-.007Z" fill="#FAFAFA"/><path d="M10.922 50.128s.646 2.057.843 2.526c.063.15.36.117.524.134.202.01.4.054.587.131.484.258.786.253.801-.488a.242.242 0 0 1 .245-.265c.135.002.269-.023.394-.072.016-.021 0-.047-.024-.063a.7.7 0 0 1-.295-.483c-.201-.872-.306-1.638-.524-2.72l-2.551 1.3Z" fill="#FFA8A7"/><path d="M9.365 29.783s.987 1.24 1.582 3.56a55.874 55.874 0 0 1 1.222 6.554c.143.988.248 1.693.503 3.49.22 1.506 1.165 7.071 1.165 7.071s-.688.625-1.266.855c-.538.213-1.037.298-1.235.213 0 0-.663-1.788-1.484-4.13a23.299 23.299 0 0 1-.944-3.314c-.107-.579-.08-1.608-.07-2.128l-4.411-7.152a4.985 4.985 0 0 1-.822-1.492c-.58-1.528.16-3.729.16-3.729l5.6.202Z" fill="#263238"/><path d="M5.027 31.793h5.413c.202.506.371 1.024.506 1.552a53.011 53.011 0 0 1 1.156 6.034c-.133.931-.28 1.886-.419 2.543-.365 1.734-.592 2.966-.873 3.676-.279.607-.61 1.189-.988 1.739a22.961 22.961 0 0 1-.922-3.238c-.107-.579-.08-1.608-.07-2.128L5.631 36.77l-.25-1.608c-.82-1.4-.73-2.45-.354-3.369Z" fill="#000"/><path d="M2.492 53.03c.31-.524.589-1.33 1.271-3.365l2.543 2.093-1.572 2.625c-.05.136-.088.275-.115.417-.337.506-2.127-1.77-2.127-1.77Z" fill="#FFA8A7"/><path d="M1.552 54.137c0-.03-.011-.276 0-.306.066-.263.221-.336.42-.485.203-.142.388-.308.552-.493.066-.098.079-.149.183-.192a.94.94 0 0 1 .812.111c.573.316.748.698.716 1.11-.026.316-.05.734.213.92.11.08.285-.425.285-.425.162.288-.066.686-.185 1.267-.07.321-.076.653-.018.977.06.509.126.507.385.544.221.03.852-.014 1.236.267a.872.872 0 0 1 .388.903c-.07.196-.645 1.146-2.744.792-.61-.103-1.889-1.11-1.87-1.202a1.236 1.236 0 0 0 0-.29c0-.224-.016-.45-.024-.676a3.603 3.603 0 0 0-.037-.644 3.834 3.834 0 0 1-.078-.532l-.121-1.357c-.02-.13-.13-.16-.113-.29Z" fill="#37474F"/><path d="M1.29 54.048c-.207.21-.08.82.198 1.552.122.327.349.885.284 1.48-.064.595-.078.872.067 1.155.228.436 1.45.994 2.168 1.168a4.295 4.295 0 0 1-.731-2.18c-.072-1.314-.175-2.16-.739-2.742-.723-.736-1.247-.433-1.247-.433Z" fill="#000"/><path d="M6.536 58.338s-.422.827-2.046.8c-.64-.01-.982-.338-.997-1.358-.02-1.23-.114-2.472-.493-3.083-.379-.61-.983-.907-1.45-.863a.46.46 0 0 0-.26.216s.467-.162 1.197.473c.538.47.683 1.448.676 2.665 0 .524-.035 1.117.111 1.515a1.172 1.172 0 0 0 .776.716c.883.26 2.095-.174 2.397-.56a.633.633 0 0 0 .09-.521Z" fill="#263238"/><path d="M4.585 56.944c.066.05.113.121.131.202a.59.59 0 0 1-.255.534c-.098.064-.174.042-.028-.175.1-.17.152-.364.152-.561ZM4.496 56.307s.051.035.065.206c0 .09-.13.46-.3.547-.171.088-.079-.118 0-.22.115-.159.195-.34.235-.533ZM4.556 55.604s.056.017 0 .253a.737.737 0 0 1-.35.326c-.11.014-.164-.046-.027-.149.097-.08.356-.315.377-.43Z" fill="#FAFAFA"/><path d="M5.947 29.784c-.258.277-.899 1.205-1.002 2.634-.042.932.238 1.85.791 2.602.206 3.166.203 9.148.203 9.148a10.68 10.68 0 0 0-1.572 3.365c-.285.937-1.336 4.164-1.336 4.164 1.722-.242 2.32 1.76 2.32 1.76s1.798-2.84 3.254-5.059c1.069-1.629 1.786-2.843 2.107-3.804.296-.883.509-1.952.797-4.012.288-2.06.569-4.777.71-6.804.142-2.027.06-4.959.06-4.959l-6.332.965Z" fill="#263238"/><path d="M3.39 32.27c.233-.083.435-.234.58-.433.07-.142.12-.293.149-.448.06-.26.142-.514.244-.76l.149.069a4.754 4.754 0 0 0-.234.734c-.035.173-.094.34-.175.495-.17.244-.415.425-.698.513-.006-.057-.01-.115-.014-.17ZM7.262 34.077a.425.425 0 0 1-.103-.01c-.238-.057-.421-.222-.79-.716-.277-.375-.25-.643-.202-1.09.017-.164.175-1.046.192-1.27l.157.091c-.012.237-.174 1.033-.187 1.198-.047.443-.068.645.175.966.339.456.501.607.698.653.198.045 1.015-.1 1.237-.26.125-.094.34-1.238.464-2.245l.162.021c-.062.51-.288 2.185-.534 2.365-.229.162-.94.309-1.27.297Z" fill="#000"/><path d="m8.338 17.427-.299 2.18-2.965-.15.32-2.361 2.944.331Z" fill="#FFA8A7"/><path d="M9.523 13.345c.227.29.924 1.076 1.048 1.282l-.665.403-.383-1.685Z" fill="#F28F8F"/><path d="M7.872 11.159c.915-.098 1.51.55 1.776 2.497.01.077.124.198.21.489.367 1.25.162 2.442-.05 2.758-.525.425-1.122.584-1.976.513-.651-.056-2.313-.255-3.157-1.133-.99-1.04-1.484-2.592-.785-3.401.99-1.137 3.476-1.67 3.982-1.723Z" fill="#FFA8A7"/><path d="M9.81 16.9c-.116.175-.955.604-1.482.639l.049-.41c.486-.013.968-.09 1.434-.228Z" fill="#F28F8F"/><path d="M8.053 14.568a.175.175 0 0 1-.306.05 2.288 2.288 0 0 0-.335-.387.829.829 0 0 0-.566-.19c-.768.058-.581 1.07-.204 1.422.618.577.946.078.946.078s.444.98-.202 1.553c0 0-1.116.481-1.993.21a7.948 7.948 0 0 1-1.629-1.705c-1.047-1.44-.953-2.917-.283-3.315-.038-.51.24-1.278 1.29-1.721.998-.422 1.668-.38 2.391-.35.723.032 1.612.37 2.284-.19a1.374 1.374 0 0 1-.112 1.252.454.454 0 0 1 .393.818.349.349 0 0 1 .163.422.433.433 0 0 1-.376.279 1.883 1.883 0 0 1-.454-.03c-.211.59-.873.797-1.274.771.012 0 .063.082.07.093.006.01.043.066.062.1a1.22 1.22 0 0 1 .15.694.403.403 0 0 1-.015.146Z" fill="#263238"/><path d="M3.523 18.483c-.77.429-1.247 1.63-1.08 3.37.198 2.074.525 2.522.759 4.253.134.896.198 1.802.192 2.709 0 .825-.112 2.492-.112 2.492s1.03 1.276 3.86 1.441c3.612.213 5.213-.659 5.213-.659s.02-3.73-.065-6.058c-.129-3.454-.138-4.464-.677-5.64-.175-.349-.365-1.12-.954-1.273-.466-.12-2.051-.482-2.477-.546-.699.174-2.51.193-2.958-.189v-.1c-.69.037-1.701.2-1.701.2Z" fill="#37474F"/><path d="M4.64 18.334c.461-.411.524-.467.662-.523l-.028.208s.093.247.967.334c1.521.152 2-.193 2-.193l.015-.128a.561.561 0 0 1 .402.138c.248.175.803.675.803.675l-.396-.087s-.887.773-3.056.466c-1.509-.222-1.369-.89-1.369-.89Z" fill="#263238"/><path d="M22.336 20.472c-.07.033-.144.06-.22.076a3.72 3.72 0 0 1-1.905.063.303.303 0 0 1-.222-.15.323.323 0 0 1 0-.174l.073-.433c.038-.177.052-.36.04-.54a.494.494 0 0 0-.128-.31c-.083-.078-.142-.1-.241-.045a.552.552 0 0 0-.125.26c-.12.394-.309.562-.523 1.022-.215.461-.369.754-1.13 1.396-.269.227-2.864 1.959-2.864 1.959s-.31-.36-1.865-2.378c-1.06-1.378-1.38-1.702-2.397-1.919 0 0-1.207 1.417-.33 3.678.32.607 2.155 2.477 2.846 3.075 1.14.986 1.769 1.341 2.588.598.885-.802 1.571-1.641 2.319-2.463.644-.697.924-.954 1.44-1.14a5.53 5.53 0 0 0 1.556-.96c.098-.078.184-.169.257-.27.065-.1.106-.213.175-.31.128-.15.265-.292.41-.427a.989.989 0 0 0 .255-.507c-.007-.033.005-.079-.009-.101Z" fill="#FFA8A7"/><path d="m17.32 22.06.686-.51c.364.102.68.33.89.644.208.32.345.68.403 1.058l-.524.463-1.455-1.655Z" fill="#F0F0F0"/><path d="M10.7 19.132c1.036.221 1.397.336 1.92.97.525.633 2.463 3.364 2.463 3.364l2.445-1.623c.36.134.678.362.922.66.268.339.427.75.457 1.18 0 0-1.572 1.744-2.492 2.648-.92.903-1.35 1.078-2.341.422-.992-.656-3.17-2.849-3.17-2.849s-1.882-2.618-.204-4.772Z" fill="#455A64"/><path d="M19.684 23.041A.612.612 0 0 0 20 22.82c.1-.189.238-.304.281-.513.013-.079.032-.157.058-.232a.873.873 0 0 1 .234-.3c.09-.084.159-.174.255-.263.046-.04.13-.079.183-.025a.728.728 0 0 1 .102-.225c.05-.07.19-.192.277-.111.023.023.041.05.053.08l.25.523c.023.043.04.089.05.136a.429.429 0 0 1-.117.316.663.663 0 0 1-.148.14c-.069.046-.149.073-.219.12-.141.096-.221.272-.377.348-.096.047-.21.05-.309.088-.1.038-.154.087-.232.125-.218.036-.44.041-.658.014Z" fill="#B16668"/><path d="M19.684 23.041A.612.612 0 0 0 20 22.82c.1-.189.238-.304.281-.513.013-.079.032-.157.058-.232a.873.873 0 0 1 .234-.3c.09-.084.159-.174.255-.263.046-.04.13-.079.183-.025a.728.728 0 0 1 .102-.225c.05-.07.19-.192.277-.111.023.023.041.05.053.08l.25.523c.023.043.04.089.05.136a.429.429 0 0 1-.117.316.663.663 0 0 1-.148.14c-.069.046-.149.073-.219.12-.141.096-.221.272-.377.348-.096.047-.21.05-.309.088-.1.038-.154.087-.232.125-.218.036-.44.041-.658.014ZM22.299 19.343c-.35.238-.69.221-1.166.228a2.87 2.87 0 0 0-.458.028.773.773 0 0 0-.162.043 1.09 1.09 0 0 0-.175.126c-.252.174-.578.274-.753.54-.1.154-.134.35-.235.5-.047.06-.09.124-.13.19a.212.212 0 0 0 .01.217.227.227 0 0 0 .09.062.56.56 0 0 0 .384.012c.255-.087.405-.349.62-.508.166-.117.355-.2.555-.24.09-.027.183-.047.276-.061.075-.001.149.005.222.019.325.028.922-1.156.922-1.156Z" fill="#B16668"/></svg>