<svg width="25" height="41" fill="none" xmlns="http://www.w3.org/2000/svg"><path d="m24.356 32.372-.787.268-.163-.503.665.012.285.223Z" fill="#000"/><path d="M24.018 30.965s.365.318.479.42c.113.104-.068.837-.135.991l-.286-.222c.007.214.045.428.112.634.055.229.22.619.144 1.024-.111.607-.593 1.248-1.218 1.773-.625.525-1.132.675-1.44.696-.309.021-.51-.078-.61-.258-.1-.18 2.954-5.058 2.954-5.058Z" fill="#263238"/><path d="m21.128 31.156-.206-.19c-.122.09.152.384.23.768.127.57.17 1.153.127 1.734-.123 1.034-.373 1.819-.424 2.282-.072.62 1.121.584 2.12-.29.495-.434 1.187-1.39 1.172-1.865-.014-.474-.281-1.021-.27-1.382.01-.36.256-.909.143-1.25-.062-.186-.406-.463-.717-.69-.281-.208-.54-.681-.665-.531l.11.16c.044.154-.041.523-.399.916-.18.194-.79.7-1.221.338Z" fill="#455A64"/><path opacity=".15" d="M22.019 31.091c-.217.142-.491.248-.737.16h-.009a.607.607 0 0 1 .185.215.553.553 0 0 1 .06.268c.008.339.203 2.631.203 2.631s-.035-1.989-.038-2.366c0-.559.06-.673.337-.905l-.001-.003Z" fill="#000"/><path d="M20.85 35.745c.043-.391.228-1.012.358-1.82.046.249.007.496.043.558.088.16.7 0 1.027-.145.326-.145.287-.71.37-1.312.084-.603.782-.522 1.34-.205.082.25.133.509.154.77.015.474-.676 1.43-1.173 1.864-.993.875-2.186.91-2.12.29Z" fill="#37474F"/><path opacity=".15" d="M22.123 31.648a.09.09 0 0 0 .06.022.091.091 0 0 0 .06-.023.076.076 0 0 0 .02-.024.068.068 0 0 0 0-.058.074.074 0 0 0-.02-.024.092.092 0 0 0-.06-.022.092.092 0 0 0-.061.022.072.072 0 0 0-.019.024.066.066 0 0 0 0 .058c.005.01.012.018.02.024ZM22.118 32.202a.095.095 0 0 0 .122-.006.075.075 0 0 0 .018-.024.07.07 0 0 0-.018-.083.091.091 0 0 0-.062-.02.09.09 0 0 0-.06.026.07.07 0 0 0 0 .106ZM22.113 32.747a.092.092 0 0 0 .061.022.092.092 0 0 0 .061-.022.074.074 0 0 0 .017-.026.07.07 0 0 0-.004-.058.076.076 0 0 0-.02-.024.094.094 0 0 0-.121.006.069.069 0 0 0 .006.102ZM22.109 33.29a.095.095 0 0 0 .14-.03.069.069 0 0 0 0-.058.074.074 0 0 0-.019-.025.091.091 0 0 0-.06-.022.09.09 0 0 0-.06.022.075.075 0 0 0-.021.026.068.068 0 0 0 0 .061c.004.01.01.019.02.026ZM22.105 33.831a.092.092 0 0 0 .122-.006.075.075 0 0 0 .016-.025.068.068 0 0 0-.003-.058.076.076 0 0 0-.02-.023.094.094 0 0 0-.122.006.073.073 0 0 0-.021.054c0 .01.003.02.008.029a.078.078 0 0 0 .02.023Z" fill="#000"/><path d="M22.203 31.623a.034.034 0 0 0 .01-.02.032.032 0 0 0-.01-.022.038.038 0 0 0-.025-.01c-.024 0-.599-.02-.982.317a.03.03 0 0 0-.007.01.027.027 0 0 0 0 .024.03.03 0 0 0 .007.01.038.038 0 0 0 .025.008.039.039 0 0 0 .024-.009c.363-.318.925-.3.93-.298a.04.04 0 0 0 .028-.01ZM22.202 32.167a.029.029 0 0 0 0-.042.033.033 0 0 0-.01-.007.037.037 0 0 0-.013-.003c-.024 0-.6-.02-.982.317a.029.029 0 0 0-.01.022c0 .004.001.007.003.01a.029.029 0 0 0 .007.01.037.037 0 0 0 .038.007.033.033 0 0 0 .01-.006c.362-.317.925-.299.931-.299l.014-.001a.032.032 0 0 0 .012-.008ZM22.203 32.709a.029.029 0 0 0 .01-.02.03.03 0 0 0-.01-.022.036.036 0 0 0-.025-.01c-.024 0-.598-.021-.982.317a.028.028 0 0 0-.01.021c0 .004 0 .008.003.012a.028.028 0 0 0 .007.01.033.033 0 0 0 .011.006.037.037 0 0 0 .027 0 .034.034 0 0 0 .01-.007c.362-.317.926-.298.932-.298a.036.036 0 0 0 .027-.009ZM22.192 33.252a.026.026 0 0 0 .007-.009.023.023 0 0 0 .002-.01c0-.005 0-.009-.002-.012a.031.031 0 0 0-.018-.017.035.035 0 0 0-.012-.003c-.025 0-.6-.02-.983.316a.03.03 0 0 0 0 .043.039.039 0 0 0 .05 0c.36-.318.924-.298.93-.298.01 0 .019-.004.026-.01ZM22.187 33.795a.03.03 0 0 0 .01-.02.029.029 0 0 0-.01-.022.037.037 0 0 0-.023-.01c-.024 0-.6-.021-.983.316a.028.028 0 0 0-.01.02c0 .005 0 .009.002.012a.028.028 0 0 0 .008.01.033.033 0 0 0 .01.007.037.037 0 0 0 .027 0 .034.034 0 0 0 .011-.007c.363-.317.926-.299.931-.299a.04.04 0 0 0 .027-.007ZM12.364 16.314c-.1 1.453-.11 2.91-.033 4.363.11 2.338.256 3.454 1.443 4.87 1.059 1.266 6.868 5.537 7.334 5.97 0 0 1.894.032 1.844-1.667 0 0-1.43-2.22-2.383-3.725-.954-1.506-2.142-2.18-2.142-2.18l.985-6.887-7.048-.744Z" fill="#263238"/><path d="m18.747 17.004.66.057v.025l-.947 6.64-.036.168h.012l-.007.05a6.544 6.544 0 0 1 1.683 1.538c-.212.604-.646 1.666-.646 1.666-.033.164.54.785.405 2.774-.009.144-.032.352-.059.576-1.433-1.098-3.382-2.6-4.708-3.715-.085-.305-.346-1.308-.308-2.089.038-.781.127-4.609.127-4.609a3.61 3.61 0 0 1-1.053-.734 2.055 2.055 0 0 1-.531-.85 12.032 12.032 0 0 1-.637-1.523l6.045.026ZM17.42 38.755l-.801-.23.231-.48.507.379.064.331Z" fill="#000"/><path d="M18.166 37.468s.058.45.073.592c.015.14-.65.61-.811.69l-.064-.331c-.147.17-.27.356-.365.555-.12.208-.27.598-.618.873-.52.41-1.353.639-2.212.7-.86.062-1.364-.106-1.624-.26-.26-.156-.342-.345-.292-.54.05-.194 5.913-2.28 5.913-2.28Z" fill="#263238"/><path d="m15.776 36.024-.024-.26c-.16 0-.158.382-.37.723-.31.513-.691.987-1.135 1.41-.833.734-1.588 1.203-1.96 1.534-.498.44.456 1.075 1.857.952.697-.062 1.919-.418 2.246-.795.327-.376.51-.948.774-1.223.264-.275.847-.562 1.002-.89.087-.179.012-.586-.063-.933-.07-.317.063-.828-.136-.781l-.03.187c-.075.142-.405.381-.963.486-.282.053-1.118.108-1.198-.41Z" fill="#455A64"/><path opacity=".15" d="M16.52 36.462c-.27-.01-.562-.077-.687-.286v-.006a.53.53 0 0 1-.009.272.567.567 0 0 1-.144.238c-.242.269-1.73 2.15-1.73 2.15s1.392-1.56 1.66-1.857c.395-.435.525-.495.908-.516l.002.005Z" fill="#000"/><path d="M12.286 39.429c.314-.28.901-.66 1.579-1.211-.136.214-.347.385-.364.455-.046.174.54.39.902.457.361.068.73-.39 1.226-.81.495-.422.98.029 1.188.584a3.62 3.62 0 0 1-.428.682c-.327.371-1.549.733-2.246.795-1.401.123-2.357-.511-1.857-.952Z" fill="#37474F"/><path opacity=".15" d="M16.196 36.962a.08.08 0 0 0 .036.05.093.093 0 0 0 .118-.017.074.074 0 0 0 .014-.027.068.068 0 0 0 .001-.03.079.079 0 0 0-.035-.05.093.093 0 0 0-.118.017.072.072 0 0 0-.016.057ZM15.804 37.38c.005.02.017.038.036.05a.093.093 0 0 0 .063.013.083.083 0 0 0 .056-.03.072.072 0 0 0 .016-.057.081.081 0 0 0-.036-.05.094.094 0 0 0-.063-.013.086.086 0 0 0-.056.03.07.07 0 0 0-.016.057ZM15.412 37.797c.004.02.017.039.035.05a.093.093 0 0 0 .064.014.086.086 0 0 0 .056-.03.07.07 0 0 0 .016-.057.078.078 0 0 0-.036-.05.092.092 0 0 0-.063-.012.088.088 0 0 0-.031.01.081.081 0 0 0-.025.019.072.072 0 0 0-.016.056ZM15.02 38.217c.004.02.016.038.034.05.018.011.04.016.063.013a.086.086 0 0 0 .056-.03.07.07 0 0 0 .016-.057.08.08 0 0 0-.036-.05.093.093 0 0 0-.118.017.07.07 0 0 0-.015.057ZM14.626 38.637a.08.08 0 0 0 .035.05.089.089 0 0 0 .064.013.086.086 0 0 0 .055-.029.072.072 0 0 0 .014-.026.067.067 0 0 0 .001-.03.077.077 0 0 0-.035-.05.092.092 0 0 0-.064-.013.08.08 0 0 0-.055.03.071.071 0 0 0-.015.055Z" fill="#000"/><path d="M16.284 36.976a.035.035 0 0 0 .022-.01.03.03 0 0 0 .01-.022.03.03 0 0 0-.01-.021 1.557 1.557 0 0 0-.992-.3.034.034 0 0 0-.023.011.028.028 0 0 0-.007.023.032.032 0 0 0 .013.02.037.037 0 0 0 .025.007 1.494 1.494 0 0 1 .95.29.033.033 0 0 0 .012.002ZM15.893 37.396a.042.042 0 0 0 .021-.01.03.03 0 0 0 .01-.022.03.03 0 0 0-.01-.022 1.546 1.546 0 0 0-1.005-.298.035.035 0 0 0-.012.008.03.03 0 0 0-.009.025.032.032 0 0 0 .015.022.037.037 0 0 0 .028.004c.507-.047.933.282.937.284a.041.041 0 0 0 .025.009ZM15.5 37.819a.03.03 0 0 0 .012-.003.03.03 0 0 0 .01-.007.029.029 0 0 0 .008-.01.025.025 0 0 0-.008-.032 1.54 1.54 0 0 0-.99-.3.034.034 0 0 0-.023.01.029.029 0 0 0-.007.023.032.032 0 0 0 .013.02.038.038 0 0 0 .024.007c.51-.046.934.282.938.285a.036.036 0 0 0 .023.007ZM15.11 38.234a.05.05 0 0 0 .021-.01.03.03 0 0 0 .008-.01.027.027 0 0 0 0-.023.03.03 0 0 0-.008-.01 1.54 1.54 0 0 0-.99-.3.033.033 0 0 0-.022.011.029.029 0 0 0-.006.023c0 .004.002.008.004.011a.03.03 0 0 0 .008.009.035.035 0 0 0 .024.006c.34-.012.673.09.938.286a.038.038 0 0 0 .023.007ZM14.717 38.653a.032.032 0 0 0 .022-.01.029.029 0 0 0 .01-.021l-.003-.012a.029.029 0 0 0-.007-.01 1.546 1.546 0 0 0-.992-.3.036.036 0 0 0-.023.01.03.03 0 0 0-.008.023.033.033 0 0 0 .014.02.04.04 0 0 0 .025.008c.507-.046.932.282.938.284a.033.033 0 0 0 .024.008ZM20.67 15.935s.167 1.28.221 2.053a11.701 11.701 0 0 1-.38 4.041c-.27 1.103-1.253 4.83-1.332 5.22.224.827.387 1.507.16 3.35-.35 2.832-1.243 5.89-1.243 5.89-.246.353-2.176.3-2.762-.15 0 0-.185-8.266-.27-9.994-.074-1.502.32-6.47.32-6.47s-2.627-.78-3.057-3.406l8.344-.534Z" fill="#263238"/><path d="M13.838 7.708c-.92.28-1.31.675-2.182 1.752a1769.13 1769.13 0 0 0-2.089 2.588l-4.517-.46.456 2.086s3.27.75 4.336.877c.798.095 1.217-.3 1.742-.867.935-1.023 2.128-2.532 2.128-2.532l.126-3.444Z" fill="#F0F0F0"/><path d="M18.417 7.082s-2.698-.1-4.329.483c-.362.124-1.307.893-1.514 3.062-.254 2.654-.27 6.099-.27 6.099.071.226.9 1.486 3.39 1.839 2.57.363 4.038.197 5.31-.712 0-2.062.008-2.205.014-3.802 0-1.031.341-3.018.532-3.88.135-.608 0-1.61-.414-1.858-.435-.258-2.053-.788-2.053-.788a1.999 1.999 0 0 1-.666-.443Z" fill="#FAFAFA"/><path d="M17.956 7.19h.406c.19.185.416.335.667.442h.007c.016 0 1.61.528 2.03.775.348.207.492 1.146.36 1.741-.184.832-.53 2.832-.54 3.903v1.239c0 .656-.009 1.175-.008 2.509-.838.583-1.745.833-3.019.833a15.66 15.66 0 0 1-2.151-.177c-2.522-.358-3.222-1.619-3.287-1.749 0-.293.032-3.557.27-6.067.238-2.51 1.426-2.964 1.438-2.972 1.218-.436 3.077-.482 3.82-.482m0-.113c-.84 0-2.65.056-3.864.496-.363.123-1.307.892-1.514 3.062-.255 2.654-.27 6.099-.27 6.099.071.226.9 1.486 3.39 1.838.715.11 1.438.17 2.164.179 1.323 0 2.278-.275 3.141-.89 0-2.062.007-2.205.014-3.802 0-1.032.34-3.018.531-3.881.136-.607 0-1.61-.414-1.857-.435-.258-2.053-.788-2.053-.788a1.997 1.997 0 0 1-.658-.443s-.173-.008-.458-.008l-.008-.005Z" fill="#E0E0E0"/><path d="M19.102 2.07c.707.826.406 1.734.07 2.647-.387 1.037-.427 1.378-1.106 1.61.362-3.304-1.123.316-3.858-2.415-.496-.496-.488-1.78.19-2.399.96-.88 3.316-1.003 4.704.557Z" fill="#37474F"/><path d="M19.111 5.803c-.54.174-.787-.18-.787-.18l-.087 1.295s.719.83-.043 1.03c-1.876.495-2.011.846-2.612 1.43-.279-.496-.104-1.297-.118-1.59l.07-.964a2.565 2.565 0 0 1-.642-.06c-.541-.142-.905-.51-1.02-1.19-.135-.82 0-2.114.381-3.22.583-.37 2.499-.321 3.653.412-.101.912.16 1.075.135 1.468-.028.444 0 .547.142.62.142.073.29-.133.357-.26.115-.213.212-.35.45-.392.24-.042.5.009.698.311.299.46-.188 1.165-.577 1.29Z" fill="#FFA8A7"/><path d="M16.328 3.984a.188.188 0 0 0 .029.113.214.214 0 0 0 .092.08.238.238 0 0 0 .242-.027.2.2 0 0 0 .069-.098.185.185 0 0 0-.002-.116.203.203 0 0 0-.072-.096.232.232 0 0 0-.335.067.191.191 0 0 0-.023.077Z" fill="#263238"/><path d="m16.232 5.25-.802.15a.352.352 0 0 0 .057.137.386.386 0 0 0 .11.106.425.425 0 0 0 .572-.106.366.366 0 0 0 .063-.287Z" fill="#B16668"/><path d="M16.142 5.413c-.09 0-.177.03-.244.085a.329.329 0 0 0-.121.212.443.443 0 0 0 .128 0 .433.433 0 0 0 .202-.098.378.378 0 0 0 .115-.18.408.408 0 0 0-.08-.02Z" fill="#F28F8F"/><path d="m14.369 3.325.599-.274a.302.302 0 0 0-.078-.093.334.334 0 0 0-.24-.073.347.347 0 0 0-.123.033.325.325 0 0 0-.168.174.29.29 0 0 0 .01.233ZM16.524 3.258l.532.378a.289.289 0 0 0 .059-.105.27.27 0 0 0-.032-.23.308.308 0 0 0-.086-.089.365.365 0 0 0-.473.046ZM14.476 3.792a.19.19 0 0 0 .03.114.215.215 0 0 0 .093.08.24.24 0 0 0 .243-.028.202.202 0 0 0 .069-.098.187.187 0 0 0-.002-.117.203.203 0 0 0-.072-.097.234.234 0 0 0-.282.005.204.204 0 0 0-.08.141Z" fill="#263238"/><path d="m15.96 3.616-.37 1.353-.705-.301c.24-.458.63-.746 1.075-1.052ZM15.533 6.825c.598 0 1.436-.124 1.8-.389.324-.225.566-.535.696-.888-.018.23-.086.456-.2.662-.114.207-.271.39-.463.54-.518.424-1.858.459-1.858.459l.025-.384Z" fill="#F28F8F"/><path d="M20.174 7.907s-.333 1.351-.169 2.382c.164 1.03.827 1.55 1.308 2.066.482.517 1.268 1.193 2.203 1.239l.175-2.669a15.973 15.973 0 0 0-1.217-1.54c-.652-.731-.724-.99-2.3-1.478Z" fill="#F0F0F0"/><path opacity=".1" d="M20.174 7.907s-.333 1.351-.169 2.382c.164 1.03.827 1.55 1.308 2.066.482.517 1.268 1.193 2.203 1.239l.175-2.669a15.973 15.973 0 0 0-1.217-1.54c-.652-.731-.724-.99-2.3-1.478Z" fill="#000"/><path d="M15.575 9.378c.289-.327.727-1.007.981-1.166.255-.16 1.51-.707 1.679-1.268l.024-.328c.174-.062.215.351.824.91-.01.458-.183.9-.495 1.259a1.675 1.675 0 0 1-.648.514c-.26.118-.55.173-.84.16 0 0-.425-.752-.541-.79-.116-.039-.61.468-.984.71ZM15.575 9.378c-.158-.29-.135-1.387-.135-1.387l.062-.816s-.27-.015-.485.312c-.483.756-.492 1.27-.424 1.414.19-.32.567-.471.632-.384.065.088.154.597.35.861Z" fill="#F0F0F0"/><path d="M21.663 7.367a2.814 2.814 0 0 1-.433-1.114c-.055-.456-.376-.91-.482-1.093-.105-.183-.347-.463-.526-.724-.178-.261-.231-.333-.531-.418-.406-.118-.734-.218-.905-.194-.172.025-.182.124-.057.278.124.153.42.22.51.257.09.037.282.145.282.145l.313.574a6.346 6.346 0 0 0-.812.079c-.135.048-.295.342-.263.517 0 0-.271.124-.202.352 0 0-.173.159-.093.316.092.16.204.31.334.448.072.073.388.124.388.124.111.214.253.413.422.593.204.182.355.19.556.544l1.499-.684Z" fill="#FFA8A7"/><path d="M19.534 5.095c-.147-.08-.167-.182-.323-.148-.155.033-.122.194-.122.194l.445-.046ZM18.761 5.69c.11-.065.227-.116.35-.152.116-.034.352-.079.352-.079a1.752 1.752 0 0 0-.473.042 1.44 1.44 0 0 0-.231.073.351.351 0 0 0 0 .1l.002.015ZM18.71 5.893c-.055.014-.109.031-.161.052a.33.33 0 0 0 .01.1c.104-.1.451-.185.451-.185a1.508 1.508 0 0 0-.3.033ZM19.234 7.011a2.806 2.806 0 0 0-.253-.516.24.24 0 0 0-.145-.091.257.257 0 0 0-.173.024c-.052.052.165.072.223.104.142.142.26.304.348.48ZM20.023 5.085s-.098-.172-.279-.447c-.181-.275-.172-.238-.376-.302-.204-.065-.594-.174-.682-.306.015.025.033.049.052.072.119.146.42.22.51.257.09.037.282.145.282.145l.322.59.17-.01Z" fill="#F28F8F"/><path d="M21.662 7.367c.591.867 2.221 2.98 2.551 3.78.23.554.136 1.765-.244 2.163-.38.397-1.238.105-1.873-.561-.548-.576-.89-1.841-1.217-2.753-.328-.911-.724-1.942-.724-1.942l1.507-.687Z" fill="#FFA8A7"/><path d="M20.383 8.78s.736.08 1.218-.17c.27-.127.486-.336.61-.59 0 0 1.269 1.764 1.623 2.303.355.538.65.909.586 1.712-.065.804-.154 1.515-.785 1.563-.63.048-1.335-.463-1.71-.867-.375-.404-1.1-2.297-1.542-3.951Z" fill="#F0F0F0"/><path d="M21.662 7.365a3.887 3.887 0 0 1-.338-.678c-.094-.235-.09-.495-.175-.728a4.812 4.812 0 0 0-.778-1.302c-.165-.188-.258-.454-.504-.566-.156-.05-1.372-.485-1.173-.081.17.287.598.287.85.484l.312.574c.015.03.02.023-.016.025-.245.009-.49.029-.733.06-.126 0-.2.105-.255.201a.516.516 0 0 0-.076.327.328.328 0 0 0-.17.14.285.285 0 0 0-.032.207.305.305 0 0 0-.095.128.281.281 0 0 0-.014.153c.047.096.105.187.174.271.058.09.133.169.221.234.107.044.218.076.333.095.11.223.259.43.44.611.203.155.425.301.534.533-.114-.232-.335-.372-.54-.524a2.36 2.36 0 0 1-.446-.606 1.25 1.25 0 0 1-.326-.088.93.93 0 0 1-.233-.24c-.15-.19-.288-.371-.069-.58v.013a.309.309 0 0 1 .033-.22.354.354 0 0 1 .176-.151l-.009.014a.6.6 0 0 1 .04-.255.642.642 0 0 1 .146-.221.28.28 0 0 1 .17-.077c.245-.033.492-.054.739-.063l-.016.025-.314-.573c-.229-.156-.7-.206-.85-.484-.216-.488 1.03-.026 1.218.037a.688.688 0 0 1 .288.272c.367.522.797 1.019 1.002 1.62.082.24.075.496.164.731.084.236.192.465.322.682Z" fill="#B16668"/><path d="M13.984 15.554c-.018-.46-.368-.997-.782-1.202a.875.875 0 0 0-.506-.09 1.118 1.118 0 0 1-.54-.084 1.013 1.013 0 0 1-.418-.327c-.335-.42-.345-1.024-.358-1.936 0-.248-.007-.523-.015-.821-1.504-.824-3.075-1.65-3.43-1.51l-.017.007c-.192.096-.055.443.125.72.13.175.211.377.234.587.017.396-.468.472-1.083.172-.614-.3-1.116-.867-1.132-1.26a.387.387 0 0 1 .045-.21.43.43 0 0 1 .153-.162c.17-.108.286-.34.06-.644C5.946 8.3 4.77 7.78 3.27 7.124v.01l.01.241v.23c.044 1.156.054 1.98-.305 2.087-.27.085-.687-.234-.96-.535a1.792 1.792 0 0 0-.511-.414.54.54 0 0 0-.487-.037c-.152.076-.243.248-.233.496.017.46.366.999.782 1.202.154.08.332.111.507.09.185-.017.372.012.54.084.169.073.312.185.417.326.405.496.426 1.262.472 2.52l.01.3c1.368.743 2.664 1.402 3.038 1.253l.014-.006c.192-.094.056-.443-.124-.718a1.236 1.236 0 0 1-.234-.59c-.014-.395.47-.47 1.082-.17.613.302 1.119.867 1.132 1.26a.391.391 0 0 1-.045.21.433.433 0 0 1-.152.162c-.17.107-.287.34-.057.642.34.45 1.579 1.047 3.014 1.734.135.067.28.134.425.202a56.352 56.352 0 0 0-.043-.788c-.06-1.025-.103-1.764.22-1.866.27-.085.687.235.96.535.143.168.32.31.521.416a.531.531 0 0 0 .488.037c.151-.06.242-.235.232-.483Z" fill="#407BFF"/><path opacity=".3" d="M13.984 15.554c-.018-.46-.368-.997-.782-1.202a.875.875 0 0 0-.506-.09 1.118 1.118 0 0 1-.54-.084 1.013 1.013 0 0 1-.418-.327c-.335-.42-.345-1.024-.358-1.936 0-.248-.007-.523-.015-.821-1.504-.824-3.075-1.65-3.43-1.51l-.017.007c-.192.096-.055.443.125.72.13.175.211.377.234.587.017.396-.468.472-1.083.172-.614-.3-1.116-.867-1.132-1.26a.387.387 0 0 1 .045-.21.43.43 0 0 1 .153-.162c.17-.108.286-.34.06-.644C5.946 8.3 4.77 7.78 3.27 7.124v.01l.01.241v.23c.044 1.156.054 1.98-.305 2.087-.27.085-.687-.234-.96-.535a1.792 1.792 0 0 0-.511-.414.54.54 0 0 0-.487-.037c-.152.076-.243.248-.233.496.017.46.366.999.782 1.202.154.08.332.111.507.09.185-.017.372.012.54.084.169.073.312.185.417.326.405.496.426 1.262.472 2.52l.01.3c1.368.743 2.664 1.402 3.038 1.253l.014-.006c.192-.094.056-.443-.124-.718a1.236 1.236 0 0 1-.234-.59c-.014-.395.47-.47 1.082-.17.613.302 1.119.867 1.132 1.26a.391.391 0 0 1-.045.21.433.433 0 0 1-.152.162c-.17.107-.287.34-.057.642.34.45 1.579 1.047 3.014 1.734.135.067.28.134.425.202a56.352 56.352 0 0 0-.043-.788c-.06-1.025-.103-1.764.22-1.866.27-.085.687.235.96.535.143.168.32.31.521.416a.531.531 0 0 0 .488.037c.151-.06.242-.235.232-.483Z" fill="#fff"/><path d="M2.438 11.399c-.204-.261-.186-.296-.076-.428a.882.882 0 0 1 .32-.253.97.97 0 0 1 .41-.09c.252.007.505 0 .634.063.128.063.02.31-.307.371-.514.105-.512.233-.512.233a7.13 7.13 0 0 1 .664-.107c.255.017.507.052.755.106.218.03.261.287-.107.371l.398.058c.277.041.372.177.154.335a.442.442 0 0 1-.253.086s.298 0 .303.09c.018.26-.165.328-.764.486a.958.958 0 0 0-.561.337l.013.344s-.258-.176-.462-.304c-.15-.096-.28-.202-.211-.416 0 0-.326 0-.347-.18a.894.894 0 0 1 .08-.396.342.342 0 0 1-.139-.13.303.303 0 0 1-.04-.177.497.497 0 0 1 .117-.325l-.07-.074Z" fill="#FFA8A7"/><path d="M4.22 11.675a2.132 2.132 0 0 0-.361-.036c-.122.017-.24.052-.35.102-.22.087-.43.19-.631.31.232-.057.458-.13.676-.221.102-.047.209-.086.318-.117.104-.016.23-.017.348-.038ZM4.519 12.153a.885.885 0 0 0-.39-.011 2.329 2.329 0 0 0-.373.108c-.237.09-.464.201-.676.333.245-.07.485-.153.72-.248.226-.1.47-.162.719-.182Z" fill="#F28F8F"/></svg>