<svg width="31" height="52" fill="none" xmlns="http://www.w3.org/2000/svg"><path d="m30.445 40.62-.984.344-.203-.646.83.016.357.286Z" fill="#000"/><path d="M30.022 38.811s.457.41.599.541c.142.133-.085 1.075-.17 1.274l-.356-.287c.009.277.056.55.14.816.068.294.274.796.18 1.316-.139.78-.741 1.605-1.522 2.28-.782.675-1.416.868-1.801.895-.386.027-.638-.1-.763-.331s3.693-6.504 3.693-6.504Z" fill="#263238"/><path d="m26.41 39.057-.257-.246c-.152.117.19.496.287.99a7.85 7.85 0 0 1 .16 2.228c-.155 1.33-.467 2.339-.532 2.934-.09.796 1.402.752 2.65-.372.619-.56 1.485-1.788 1.466-2.398-.018-.61-.352-1.313-.338-1.777.014-.463.32-1.168.18-1.606-.078-.24-.508-.597-.897-.889-.352-.267-.676-.875-.832-.682l.139.206c.054.198-.053.672-.5 1.177-.226.25-.987.901-1.526.435Z" fill="#455A64"/><path opacity=".15" d="M27.523 38.973c-.27.183-.613.319-.921.206h-.01a.775.775 0 0 1 .23.276.728.728 0 0 1 .076.344c.01.437.253 3.383.253 3.383s-.043-2.556-.047-3.042c0-.718.075-.864.421-1.164l-.002-.003Z" fill="#000"/><path d="M26.062 44.956c.054-.503.286-1.3.448-2.338.057.318.008.636.054.716.11.205.876 0 1.284-.186.407-.187.358-.912.463-1.688.105-.775.977-.67 1.674-.263.102.322.167.654.193.99.018.609-.846 1.838-1.466 2.397-1.241 1.124-2.733 1.17-2.65.372Z" fill="#37474F"/><path opacity=".15" d="M27.654 39.688a.112.112 0 0 0 .15 0 .09.09 0 0 0 0-.137.114.114 0 0 0-.075-.028.114.114 0 0 0-.076.028.093.093 0 0 0-.032.07.089.089 0 0 0 .033.067ZM27.648 40.401a.117.117 0 0 0 .175-.039.09.09 0 0 0-.023-.106.113.113 0 0 0-.152.008.094.094 0 0 0-.03.069.09.09 0 0 0 .03.068ZM27.642 41.101a.114.114 0 0 0 .152 0 .096.096 0 0 0 .027-.07.097.097 0 0 0-.035-.068.116.116 0 0 0-.153.008.09.09 0 0 0 .009.13ZM27.636 41.8a.116.116 0 0 0 .152-.008.093.093 0 0 0 .032-.068.09.09 0 0 0-.032-.069.112.112 0 0 0-.15 0 .096.096 0 0 0-.036.072.095.095 0 0 0 .034.073ZM27.63 42.496a.112.112 0 0 0 .153-.008c.01-.01.016-.02.02-.032a.09.09 0 0 0-.004-.075.097.097 0 0 0-.024-.03.116.116 0 0 0-.153.008.095.095 0 0 0-.02.033.09.09 0 0 0 .004.074.097.097 0 0 0 .025.03Z" fill="#000"/><path d="M27.753 39.657a.045.045 0 0 0 .012-.025c0-.01-.005-.02-.012-.029a.047.047 0 0 0-.03-.013c-.03 0-.75-.025-1.228.408a.039.039 0 0 0-.013.028c0 .005.002.01.004.015.002.005.005.01.01.013a.048.048 0 0 0 .06 0c.453-.41 1.157-.386 1.163-.384a.05.05 0 0 0 .034-.013ZM27.753 40.357a.037.037 0 0 0 0-.054.043.043 0 0 0-.029-.013c-.03 0-.75-.027-1.228.408a.038.038 0 0 0-.012.027l.003.015a.038.038 0 0 0 .01.012.044.044 0 0 0 .046.01.044.044 0 0 0 .014-.01c.452-.408 1.155-.384 1.164-.384a.04.04 0 0 0 .032-.01ZM27.753 41.053a.037.037 0 0 0 .012-.025.04.04 0 0 0-.012-.029.045.045 0 0 0-.03-.013c-.03 0-.748-.027-1.228.408a.036.036 0 0 0-.013.027c0 .005.002.01.004.015a.036.036 0 0 0 .01.012.043.043 0 0 0 .03.012.044.044 0 0 0 .03-.012c.451-.407 1.157-.384 1.163-.384.007.001.013 0 .019-.001a.04.04 0 0 0 .015-.01ZM27.74 41.752a.031.031 0 0 0 .011-.026c0-.005 0-.01-.003-.015a.036.036 0 0 0-.008-.013.041.041 0 0 0-.03-.012c-.03 0-.749-.027-1.227.406a.039.039 0 0 0-.012.028c0 .01.004.02.012.028a.048.048 0 0 0 .06 0c.452-.41 1.157-.384 1.164-.384a.047.047 0 0 0 .032-.012ZM27.734 42.45a.04.04 0 0 0 .011-.026.037.037 0 0 0-.01-.029.043.043 0 0 0-.03-.013c-.03 0-.75-.027-1.23.406a.036.036 0 0 0-.012.028c0 .005.001.01.003.014a.036.036 0 0 0 .01.013.044.044 0 0 0 .06 0c.454-.408 1.157-.384 1.164-.384a.049.049 0 0 0 .034-.01ZM15.455 19.974a47.094 47.094 0 0 0-.04 5.61c.136 3.006.319 4.44 1.802 6.262 1.324 1.627 8.585 7.118 9.168 7.674 0 0 2.368.041 2.305-2.143 0 0-1.787-2.853-2.98-4.789-1.192-1.936-2.676-2.802-2.676-2.802l1.23-8.855-8.81-.957Z" fill="#263238"/><path d="m23.434 20.862.825.073v.032l-1.183 8.538-.046.215h.015l-.008.065a8.268 8.268 0 0 1 2.103 1.976c-.265.777-.808 2.143-.808 2.143-.04.21.676 1.01.507 3.566-.012.185-.04.452-.074.74-1.79-1.412-4.228-3.343-5.885-4.776-.106-.391-.433-1.68-.385-2.685.047-1.005.159-5.926.159-5.926a4.51 4.51 0 0 1-1.316-.944 2.654 2.654 0 0 1-.665-1.092c-.31-.636-.575-1.29-.796-1.959l7.557.034ZM21.776 48.827l-1.003-.296.29-.616.634.485.08.427Z" fill="#000"/><path d="M22.708 47.171s.072.58.09.761c.02.182-.81.785-1.014.889l-.08-.427a3.232 3.232 0 0 0-.456.713c-.15.268-.338.77-.773 1.123-.649.527-1.69.821-2.764.9-1.074.08-1.705-.136-2.03-.335-.324-.2-.427-.443-.365-.693.063-.25 7.392-2.93 7.392-2.93Z" fill="#263238"/><path d="m19.72 45.315-.03-.335c-.2 0-.197.491-.463.93a8.736 8.736 0 0 1-1.418 1.813c-1.042.944-1.986 1.547-2.45 1.972-.623.567.57 1.382 2.321 1.224.871-.08 2.398-.538 2.807-1.022.41-.484.638-1.22.968-1.573.33-.353 1.058-.722 1.253-1.143.108-.23.015-.754-.08-1.2-.088-.408.08-1.065-.169-1.005l-.037.24c-.095.184-.508.491-1.204.626-.354.069-1.399.139-1.498-.527Z" fill="#455A64"/><path opacity=".15" d="M20.65 45.878c-.338-.013-.703-.099-.859-.368v-.008a.703.703 0 0 1-.01.35.733.733 0 0 1-.18.306c-.303.346-2.163 2.766-2.163 2.766s1.74-2.008 2.074-2.388c.494-.56.657-.637 1.135-.664l.003.006Z" fill="#000"/><path d="M15.358 49.693c.392-.36 1.126-.847 1.973-1.557-.169.275-.433.495-.455.585-.057.223.677.5 1.128.588.452.087.913-.502 1.532-1.043.62-.541 1.226.038 1.485.752-.145.309-.324.603-.535.877-.409.477-1.936.942-2.806 1.022-1.752.157-2.948-.658-2.322-1.224Z" fill="#37474F"/><path opacity=".15" d="M20.245 46.52a.101.101 0 0 0 .045.065.113.113 0 0 0 .079.017.108.108 0 0 0 .069-.038.095.095 0 0 0 .019-.074.102.102 0 0 0-.044-.064.113.113 0 0 0-.08-.017.106.106 0 0 0-.068.039.095.095 0 0 0-.02.073ZM19.755 47.059a.102.102 0 0 0 .044.064.113.113 0 0 0 .08.017.106.106 0 0 0 .07-.038.096.096 0 0 0 .02-.074.103.103 0 0 0-.045-.063.115.115 0 0 0-.15.02.096.096 0 0 0-.019.074ZM19.265 47.595a.101.101 0 0 0 .044.064.114.114 0 0 0 .08.017.106.106 0 0 0 .07-.037.092.092 0 0 0 .02-.074.1.1 0 0 0-.046-.064.112.112 0 0 0-.079-.015.106.106 0 0 0-.069.037.095.095 0 0 0-.02.072ZM18.775 48.135a.1.1 0 0 0 .043.064c.023.015.05.02.078.017a.108.108 0 0 0 .07-.038.094.094 0 0 0 .02-.074.101.101 0 0 0-.044-.064.113.113 0 0 0-.08-.017.103.103 0 0 0-.069.038.095.095 0 0 0-.018.074ZM18.282 48.675a.096.096 0 0 0 .044.065.109.109 0 0 0 .08.016.107.107 0 0 0 .038-.012.099.099 0 0 0 .048-.06.09.09 0 0 0 .002-.038.1.1 0 0 0-.044-.064.112.112 0 0 0-.08-.017.1.1 0 0 0-.069.037.092.092 0 0 0-.019.073Z" fill="#000"/><path d="M20.355 46.54c.01-.002.02-.006.027-.014a.038.038 0 0 0 0-.055 1.908 1.908 0 0 0-1.239-.385.043.043 0 0 0-.016.004.04.04 0 0 0-.02.023.036.036 0 0 0-.001.016c.002.01.007.02.016.026.009.006.02.01.031.008a1.831 1.831 0 0 1 1.186.374.04.04 0 0 0 .017.002ZM19.866 47.079a.052.052 0 0 0 .027-.013.038.038 0 0 0 0-.056 1.896 1.896 0 0 0-1.258-.383.042.042 0 0 0-.024.024.038.038 0 0 0 .004.033.044.044 0 0 0 .048.017c.634-.059 1.167.363 1.172.367.009.007.02.01.03.01ZM19.375 47.623a.037.037 0 0 0 .027-.013.034.034 0 0 0 0-.054 1.888 1.888 0 0 0-1.238-.387.043.043 0 0 0-.027.015.038.038 0 0 0-.01.028c.002.01.008.02.016.027.01.006.02.01.031.008.636-.059 1.167.363 1.172.367.008.006.019.01.03.01ZM18.887 48.157a.06.06 0 0 0 .027-.013.039.039 0 0 0 .013-.028.037.037 0 0 0-.013-.027 1.887 1.887 0 0 0-1.238-.386.042.042 0 0 0-.027.015.038.038 0 0 0-.008.028c0 .005.002.01.005.014a.039.039 0 0 0 .025.019h.016c.425-.015.841.116 1.171.368.009.007.019.01.03.01ZM18.396 48.695c.005 0 .01-.002.015-.004a.04.04 0 0 0 .012-.009.036.036 0 0 0 .009-.012.035.035 0 0 0 0-.03.037.037 0 0 0-.009-.012 1.896 1.896 0 0 0-1.24-.387.045.045 0 0 0-.028.014.04.04 0 0 0-.01.03c.002.01.008.02.017.026.009.006.02.01.032.008.634-.059 1.165.363 1.172.366a.042.042 0 0 0 .03.01ZM25.838 19.488s.208 1.644.276 2.64a15.456 15.456 0 0 1-.475 5.194c-.338 1.419-1.566 6.21-1.666 6.71.28 1.064.484 1.938.2 4.307-.437 3.643-1.553 7.574-1.553 7.574-.307.454-2.72.387-3.453-.193 0 0-.231-10.627-.338-12.85-.091-1.93.4-8.316.4-8.316s-3.283-1.005-3.82-4.38l10.43-.686Z" fill="#263238"/><path d="M17.297 8.91c-1.15.361-1.637.868-2.727 2.253-1.064 1.351-2.611 3.327-2.611 3.327l-5.646-.592.57 2.682s4.087.965 5.419 1.128c.998.122 1.522-.386 2.178-1.115 1.168-1.315 2.66-3.256 2.66-3.256l.157-4.427Z" fill="#F0F0F0"/><path d="M23.02 8.105s-3.371-.127-5.41.62c-.454.16-1.634 1.149-1.893 3.938-.318 3.412-.338 7.84-.338 7.84.09.292 1.126 1.911 4.238 2.365 3.212.466 5.047.253 6.638-.915 0-2.651.009-2.834.017-4.888 0-1.326.427-3.88.665-4.99.169-.78 0-2.07-.518-2.388-.544-.33-2.567-1.012-2.567-1.012a2.496 2.496 0 0 1-.832-.57Z" fill="#FAFAFA"/><path d="M22.445 8.244h.507c.237.238.52.43.834.568h.008c.02 0 2.013.679 2.537.997.436.266.616 1.473.451 2.238-.23 1.07-.662 3.641-.676 5.019v1.592c0 .843-.01 1.51-.008 3.225-1.049.75-2.182 1.072-3.775 1.072-.9-.013-1.8-.089-2.688-.228-3.152-.46-4.028-2.08-4.11-2.248 0-.377.041-4.574.339-7.801.297-3.227 1.782-3.81 1.797-3.821 1.522-.56 3.846-.62 4.776-.62m0-.144c-1.052 0-3.315.071-4.832.637-.453.159-1.633 1.147-1.892 3.937-.318 3.411-.338 7.84-.338 7.84.09.292 1.126 1.911 4.238 2.365.894.14 1.799.217 2.705.23 1.654 0 2.848-.354 3.927-1.146 0-2.65.008-2.834.017-4.887 0-1.326.426-3.88.664-4.99.17-.78 0-2.07-.517-2.388-.545-.331-2.567-1.012-2.567-1.012a2.493 2.493 0 0 1-.822-.57s-.216-.01-.573-.01l-.01-.006Z" fill="#E0E0E0"/><path d="M23.877 1.662c.884 1.062.507 2.229.088 3.402-.484 1.334-.535 1.772-1.384 2.07.454-4.248-1.403.407-4.822-3.105-.62-.637-.609-2.287.238-3.084 1.2-1.13 4.145-1.29 5.88.717Z" fill="#37474F"/><path d="M23.889 6.461c-.677.223-.985-.23-.985-.23l-.108 1.663s.898 1.067-.054 1.325c-2.345.637-2.515 1.087-3.265 1.837-.349-.637-.13-1.667-.147-2.044l.086-1.239a3.12 3.12 0 0 1-.802-.078c-.676-.181-1.131-.654-1.275-1.528-.169-1.056 0-2.718.477-4.14.729-.477 3.123-.414 4.566.529-.127 1.173.2 1.382.169 1.888-.036.57 0 .702.178.796.177.094.361-.17.446-.334.144-.274.264-.45.563-.503.3-.054.624.01.87.4.375.592-.234 1.497-.72 1.658Z" fill="#FFA8A7"/><path d="M20.409 4.122c-.004.05.009.102.036.146a.27.27 0 0 0 .116.103.29.29 0 0 0 .302-.035.258.258 0 0 0 .086-.126.244.244 0 0 0-.002-.15.26.26 0 0 0-.09-.124.285.285 0 0 0-.419.087.249.249 0 0 0-.03.099Z" fill="#263238"/><path d="m20.29 5.75-1.003.192a.462.462 0 0 0 .21.314.523.523 0 0 0 .713-.136.481.481 0 0 0 .08-.37Z" fill="#B16668"/><path d="M20.177 5.96a.477.477 0 0 0-.305.109.425.425 0 0 0-.151.273.538.538 0 0 0 .16 0 .535.535 0 0 0 .252-.127.488.488 0 0 0 .144-.232.5.5 0 0 0-.1-.024Z" fill="#F28F8F"/><path d="m17.96 3.275.75-.352a.386.386 0 0 0-.098-.12.413.413 0 0 0-.3-.093.425.425 0 0 0-.363.266.383.383 0 0 0 .011.299ZM20.654 3.19l.665.485a.375.375 0 0 0 .086-.287.389.389 0 0 0-.159-.258.447.447 0 0 0-.592.06ZM18.094 3.876a.248.248 0 0 0 .037.146c.028.044.068.08.117.103a.292.292 0 0 0 .303-.036.26.26 0 0 0 .087-.126.247.247 0 0 0-.002-.15.262.262 0 0 0-.09-.125.287.287 0 0 0-.147-.057.297.297 0 0 0-.206.064.264.264 0 0 0-.099.18Z" fill="#263238"/><path d="m19.95 3.65-.463 1.738-.881-.386c.3-.59.787-.959 1.344-1.352ZM19.415 7.775c.748 0 1.796-.16 2.25-.5.406-.29.709-.688.87-1.142a2.145 2.145 0 0 1-.25.851 2.27 2.27 0 0 1-.579.695c-.647.545-2.321.59-2.321.59l.03-.494Z" fill="#F28F8F"/><path d="M25.217 9.166s-.416 1.737-.211 3.062c.204 1.324 1.033 1.993 1.635 2.657.602.664 1.585 1.533 2.753 1.592l.22-3.43a20.454 20.454 0 0 0-1.522-1.98c-.815-.94-.905-1.273-2.875-1.9Z" fill="#F0F0F0"/><path opacity=".1" d="M25.217 9.166s-.416 1.737-.211 3.062c.204 1.324 1.033 1.993 1.635 2.657.602.664 1.585 1.533 2.753 1.592l.22-3.43a20.454 20.454 0 0 0-1.522-1.98c-.815-.94-.905-1.273-2.875-1.9Z" fill="#000"/><path d="M19.469 11.057c.36-.42.908-1.294 1.226-1.5.318-.205 1.887-.909 2.098-1.63l.03-.422c.217-.08.27.452 1.03 1.17a2.591 2.591 0 0 1-.618 1.62 2.106 2.106 0 0 1-.811.66 2.252 2.252 0 0 1-1.05.207s-.53-.968-.676-1.017c-.145-.05-.762.602-1.23.912Z" fill="#F0F0F0"/><path d="M19.469 11.057c-.198-.374-.17-1.783-.17-1.783l.079-1.049s-.339-.019-.608.401c-.603.972-.613 1.632-.529 1.819.239-.411.709-.607.79-.494.081.113.193.767.438 1.106Z" fill="#F0F0F0"/><path d="M27.078 8.472a3.68 3.68 0 0 1-.54-1.433c-.07-.586-.471-1.169-.603-1.404-.132-.236-.434-.596-.658-.932-.223-.336-.289-.428-.664-.538-.508-.151-.917-.28-1.131-.248-.215.032-.227.159-.072.356.156.198.525.284.638.332.113.047.353.186.353.186l.391.737c-.34.011-.68.046-1.015.102-.169.062-.368.44-.33.665 0 0-.337.16-.251.452 0 0-.217.204-.117.406.116.207.256.4.418.577.09.094.485.159.485.159.14.275.317.532.528.763.255.234.443.245.695.698l1.873-.878Z" fill="#FFA8A7"/><path d="M24.418 5.551c-.185-.103-.21-.234-.404-.191-.195.043-.153.25-.153.25l.557-.059ZM23.451 6.315c.137-.083.284-.148.438-.195.144-.044.44-.102.44-.102a2.13 2.13 0 0 0-.592.055c-.1.023-.196.054-.29.093a.472.472 0 0 0 0 .13l.004.019ZM23.387 6.577c-.069.017-.136.04-.201.067a.435.435 0 0 0 .014.129c.128-.13.563-.24.563-.24a1.834 1.834 0 0 0-.376.044ZM24.042 8.014a3.647 3.647 0 0 0-.317-.664.298.298 0 0 0-.18-.117.314.314 0 0 0-.217.031c-.064.067.206.093.28.134.177.183.324.39.434.616ZM25.028 5.537s-.122-.221-.348-.574c-.227-.354-.215-.306-.47-.389-.256-.083-.743-.223-.853-.393.02.032.04.063.065.092.148.188.524.284.637.331.113.048.354.187.354.187l.402.757.213-.01Z" fill="#F28F8F"/><path d="M27.077 8.472c.74 1.114 2.777 3.83 3.19 4.86.287.712.169 2.269-.307 2.78-.475.511-1.547.135-2.34-.721-.685-.74-1.113-2.368-1.522-3.54-.41-1.171-.905-2.496-.905-2.496l1.884-.883Z" fill="#FFA8A7"/><path d="M25.479 10.288s.92.103 1.521-.218a1.61 1.61 0 0 0 .763-.76s1.586 2.269 2.03 2.961c.442.693.813 1.17.732 2.202-.082 1.034-.193 1.947-.981 2.01-.788.062-1.67-.596-2.138-1.115-.468-.519-1.376-2.953-1.927-5.08Z" fill="#F0F0F0"/><path d="M27.077 8.47a5.05 5.05 0 0 1-.422-.873c-.117-.302-.114-.637-.219-.936a6.226 6.226 0 0 0-.972-1.673c-.206-.242-.323-.584-.63-.728-.195-.065-1.715-.624-1.467-.105.212.37.748.37 1.064.623l.389.738c.018.039.025.029-.02.032a9.735 9.735 0 0 0-.917.077c-.157 0-.248.135-.318.26a.68.68 0 0 0-.095.42.413.413 0 0 0-.212.18.376.376 0 0 0-.041.265.391.391 0 0 0-.118.164.37.37 0 0 0-.018.198c.059.123.131.24.217.348.073.115.167.217.277.301.133.057.273.097.416.121.138.288.324.553.55.787.253.199.53.387.668.684-.142-.297-.42-.477-.677-.673a3.038 3.038 0 0 1-.556-.779 1.53 1.53 0 0 1-.407-.113 1.183 1.183 0 0 1-.291-.309c-.188-.245-.36-.477-.087-.745v.016a.408.408 0 0 1 .042-.282.446.446 0 0 1 .219-.195l-.01.019a.79.79 0 0 1 .05-.329.828.828 0 0 1 .181-.284.346.346 0 0 1 .213-.099c.306-.042.615-.07.924-.081l-.02.032-.393-.736c-.286-.2-.874-.266-1.062-.622-.27-.628 1.287-.034 1.522.047a.87.87 0 0 1 .36.35c.459.67.996 1.31 1.253 2.083.102.307.093.637.205.94.105.303.24.597.402.877Z" fill="#B16668"/><path d="M17.48 18.998c-.022-.591-.46-1.282-.977-1.546a1.068 1.068 0 0 0-.632-.115 1.36 1.36 0 0 1-.676-.109 1.271 1.271 0 0 1-.522-.42c-.419-.54-.43-1.316-.448-2.49 0-.318-.008-.671-.018-1.055-1.88-1.059-3.844-2.12-4.289-1.942l-.02.01c-.24.123-.07.57.155.926.164.224.265.484.293.755.022.509-.585.606-1.353.22-.767-.384-1.395-1.114-1.415-1.62a.51.51 0 0 1 .056-.27.548.548 0 0 1 .19-.208c.214-.138.36-.437.075-.827-.465-.637-1.936-1.304-3.81-2.148v.013l.012.31v.295c.056 1.487.068 2.547-.38 2.684-.338.11-.86-.301-1.2-.688a2.255 2.255 0 0 0-.64-.532.663.663 0 0 0-.609-.047c-.19.097-.303.318-.29.636.021.593.458 1.285.977 1.546.192.102.415.143.634.117.231-.023.464.015.675.107.21.093.39.238.52.42.508.636.533 1.622.59 3.24l.014.385c1.71.955 3.33 1.802 3.796 1.61l.019-.007c.24-.121.07-.57-.156-.924a1.614 1.614 0 0 1-.292-.757c-.017-.508.587-.605 1.353-.218.766.386 1.398 1.114 1.415 1.619a.515.515 0 0 1-.057.269.552.552 0 0 1-.19.208c-.211.139-.358.438-.07.826.423.578 1.972 1.346 3.767 2.23.169.085.35.171.53.259a76.16 76.16 0 0 0-.053-1.013c-.075-1.318-.129-2.268.275-2.399.338-.11.86.303 1.2.688.18.216.4.397.652.535a.652.652 0 0 0 .609.048c.189-.077.302-.303.29-.621Z" fill="#407BFF"/><path opacity=".3" d="M17.48 18.998c-.022-.591-.46-1.282-.977-1.546a1.068 1.068 0 0 0-.632-.115 1.36 1.36 0 0 1-.676-.109 1.271 1.271 0 0 1-.522-.42c-.419-.54-.43-1.316-.448-2.49 0-.318-.008-.671-.018-1.055-1.88-1.059-3.844-2.12-4.289-1.942l-.02.01c-.24.123-.07.57.155.926.164.224.265.484.293.755.022.509-.585.606-1.353.22-.767-.384-1.395-1.114-1.415-1.62a.51.51 0 0 1 .056-.27.548.548 0 0 1 .19-.208c.214-.138.36-.437.075-.827-.465-.637-1.936-1.304-3.81-2.148v.013l.012.31v.295c.056 1.487.068 2.547-.38 2.684-.338.11-.86-.301-1.2-.688a2.255 2.255 0 0 0-.64-.532.663.663 0 0 0-.609-.047c-.19.097-.303.318-.29.636.021.593.458 1.285.977 1.546.192.102.415.143.634.117.231-.023.464.015.675.107.21.093.39.238.52.42.508.636.533 1.622.59 3.24l.014.385c1.71.955 3.33 1.802 3.796 1.61l.019-.007c.24-.121.07-.57-.156-.924a1.614 1.614 0 0 1-.292-.757c-.017-.508.587-.605 1.353-.218.766.386 1.398 1.114 1.415 1.619a.515.515 0 0 1-.057.269.552.552 0 0 1-.19.208c-.211.139-.358.438-.07.826.423.578 1.972 1.346 3.767 2.23.169.085.35.171.53.259a76.16 76.16 0 0 0-.053-1.013c-.075-1.318-.129-2.268.275-2.399.338-.11.86.303 1.2.688.18.216.4.397.652.535a.652.652 0 0 0 .609.048c.189-.077.302-.303.29-.621Z" fill="#fff"/><path d="M3.047 13.655c-.255-.336-.231-.38-.094-.55a1.11 1.11 0 0 1 .4-.325c.158-.077.334-.117.513-.117.314.01.63 0 .791.082.16.08.025.4-.384.477-.642.136-.639.3-.639.3a8.73 8.73 0 0 1 .83-.138c.318.021.634.067.944.136.272.04.326.37-.134.478l.497.074c.347.053.465.228.193.43a.543.543 0 0 1-.316.112s.372 0 .379.116c.022.333-.207.42-.956.624a1.192 1.192 0 0 0-.701.433l.017.443s-.323-.227-.579-.392c-.188-.123-.348-.26-.264-.535 0 0-.407 0-.432-.23a1.178 1.178 0 0 1 .1-.51.432.432 0 0 1-.174-.167.398.398 0 0 1-.052-.228.65.65 0 0 1 .147-.417l-.086-.096Z" fill="#FFA8A7"/><path d="M5.275 14.01a2.608 2.608 0 0 0-.451-.046c-.153.022-.3.066-.438.13a5.48 5.48 0 0 0-.788.399c.29-.072.572-.167.845-.284.128-.06.26-.11.398-.15.13-.02.287-.021.434-.048ZM5.649 14.625a1.075 1.075 0 0 0-.487-.015c-.16.033-.316.08-.467.139a4.84 4.84 0 0 0-.845.428c.306-.09.607-.197.9-.318.283-.13.587-.209.899-.234Z" fill="#F28F8F"/></svg>