<svg width="78" height="52" fill="none" xmlns="http://www.w3.org/2000/svg"><path d="M77.095 51.695H.648V16.458l5.843-3.375 4.404 2.547v8.512l1.985-1.144v-3.314l2.158-1.263V5.79L21.6 2.006l2.969 1.71v3.778l2.794-1.61 2.968 1.71v7.195l2.705 1.554V9.54l2.968-1.71 3.674 2.13v8.199l3.423-1.975V2.906L47.504.364 52.63 3.32v10.776l2.159 1.245v4.361l2.704 1.56V6.433l3.685-2.125 4.41 2.546v3.542l2.159 1.246v9.57l2.698 1.57V16.4l4.398-2.542 2.246 1.296.007 36.54ZM.823 51.521H76.92V15.256l-2.078-1.196-4.23 2.442v6.58l-3.053-1.76v-9.577l-2.146-1.246V6.955l-4.231-2.442-3.51 2.025V21.56l-3.054-1.76V15.44l-2.158-1.246V3.419L47.504.567l-4.229 2.442V16.29l-3.771 2.175v-8.405l-3.512-2.025-2.794 1.61v6.999l-3.057-1.757V7.694l-2.794-1.61-2.969 1.712v-3.98l-2.793-1.61-6.372 3.686v12.635l-2.16 1.246v3.314l-2.333 1.352v-8.722l-4.229-2.442-5.668 3.28V51.52Z" fill="#E0E0E0"/></svg>