<svg width="14" height="18" fill="none" xmlns="http://www.w3.org/2000/svg"><path d="m11.14 2.497.417-.82L9.73.68a2.963 2.963 0 0 0-.944-.323A3.588 3.588 0 0 0 7.502.39a5.122 5.122 0 0 0-.942.29 7.128 7.128 0 0 0-1.256.694 8.41 8.41 0 0 0-.47.347C2.567 3.527.791 6.738.331 9.827a10.041 10.041 0 0 0-.113 1.514 8.264 8.264 0 0 0 .1 1.259c.028.181.065.353.108.522.112.463.292.909.534 1.325.05.083.1.159.154.239.216.316.49.595.808.823.096.066.195.127.298.183l1.726.937.383-.75c.101-.02.202-.046.306-.074.42-.122.824-.29 1.202-.502.243-.135.479-.282.705-.44a8.85 8.85 0 0 0 .866-.697c1.892-1.714 3.382-4.395 3.928-7.065.081-.392.14-.787.18-1.185.03-.328.047-.652.045-.972 0-.463-.04-.924-.12-1.38a5.81 5.81 0 0 0-.303-1.067Z" fill="#407BFF"/><path opacity=".25" d="m.749 8.002 3.705 2.014.487-1.327-3.708-2.02c-.185.437-.347.881-.484 1.333ZM9.73.68a2.963 2.963 0 0 0-.944-.323A3.588 3.588 0 0 0 7.501.39L7.332.43l3.811 2.07V2.49l.418-.82L9.73.68ZM9.335 5.772l.487-.552-5.555-3.007c-.175.164-.348.337-.517.519l5.585 3.04ZM2.57 4.21l4.817 2.616.53-1.303-4.482-2.436c-.31.36-.599.735-.866 1.124Z" fill="#fff"/><path opacity=".4" d="M9.731.68a2.963 2.963 0 0 0-.943-.323A3.588 3.588 0 0 0 7.503.39a5.121 5.121 0 0 0-.942.29 7.128 7.128 0 0 0-1.256.694 8.414 8.414 0 0 0-.47.347C2.723 3.4 1.032 6.301.437 9.185l7.727 4.201a13.844 13.844 0 0 0 3.16-6.29c.082-.392.142-.787.18-1.184a9.98 9.98 0 0 0 .046-.973c0-.463-.04-.924-.12-1.38a5.817 5.817 0 0 0-.298-1.067l.418-.82L9.73.68Z" fill="#fff"/><path opacity=".1" d="m3.942 16.629.382-.75c.102-.02.203-.046.307-.075.42-.122.823-.29 1.202-.502a7.92 7.92 0 0 0 .705-.44c.304-.215.593-.447.866-.696.27-.246.526-.505.768-.776L.444 9.19a11.682 11.682 0 0 0-.186 1.264c-.027.3-.04.595-.04.887a8.266 8.266 0 0 0 .1 1.26c.03.18.066.353.109.521.112.463.292.909.534 1.325.05.083.1.16.154.239.216.317.49.595.808.823.096.066.195.127.298.183l1.721.938Z" fill="#000"/><path opacity=".1" d="M.961 14.45c.05.082.1.159.154.238.216.317.49.596.808.823.096.066.195.127.298.183l1.726.938.383-.75h.015l.027-.307-3.839-2.087c.106.334.25.656.428.961Z" fill="#000"/><path d="M13.389 4.625a5.452 5.452 0 0 0-.421-1.37 3.564 3.564 0 0 0-1.121-1.395 2.938 2.938 0 0 0-1.272-.522 3.588 3.588 0 0 0-1.285.033 5.302 5.302 0 0 0-.942.29 6.806 6.806 0 0 0-1.253.691 8.378 8.378 0 0 0-.468.347c-2.266 1.8-4.059 5.012-4.504 8.1-.03.21-.055.419-.072.628a9.244 9.244 0 0 0-.009 1.582 6.686 6.686 0 0 0 .178 1.086c.109.463.287.909.53 1.324a5 5 0 0 0 .151.24c.217.316.491.595.81.822a2.988 2.988 0 0 0 1.597.538 3.87 3.87 0 0 0 1.276-.159c.42-.121.824-.29 1.203-.501a7.53 7.53 0 0 0 .705-.441c.304-.215.593-.447.866-.696 1.892-1.713 3.382-4.396 3.928-7.066.08-.391.14-.787.177-1.184.032-.318.048-.653.048-.973 0-.46-.041-.92-.122-1.374Z" fill="#407BFF"/><path opacity=".05" d="M2.237 10.154c-.044.213-.081.428-.114.637a8.793 8.793 0 0 0-.072.627 9.244 9.244 0 0 0-.009 1.583 6.686 6.686 0 0 0 .178 1.086c.109.462.287.908.53 1.324a5 5 0 0 0 .151.239c.217.317.491.595.81.823a2.988 2.988 0 0 0 1.597.538c.432.018.864-.035 1.276-.16.42-.12.824-.29 1.203-.5.211-.117.42-.249.627-.39l-6.177-5.807Z" fill="#000"/><path opacity=".05" d="M2.326 14.473a4.678 4.678 0 0 0 .575 1.194c.217.317.49.595.81.823.38.267.823.442 1.292.508l-2.677-2.525Z" fill="#000"/><path opacity=".1" d="M3.023 7.65c-.185.437-.339.881-.484 1.328l6.727 6.334.091-.082c.291-.265.567-.545.825-.839l-7.16-6.74ZM5.221 4.063c-.308.36-.595.735-.859 1.124l7.403 6.972c.24-.425.46-.866.658-1.315l-7.202-6.78ZM6.062 3.194c-.17.159-.352.34-.523.522l7.079 6.664c.099-.248.191-.5.277-.754L6.062 3.194ZM13.494 5.523c0-.129-.019-.255-.032-.379 0-.04 0-.08-.014-.122l-.015-.126c-.013-.09-.027-.182-.044-.27a5.452 5.452 0 0 0-.42-1.371 3.562 3.562 0 0 0-1.122-1.395 2.938 2.938 0 0 0-1.272-.522 3.588 3.588 0 0 0-1.285.033l-.169.038 4.373 4.114Z" fill="#fff"/><path d="M12.045 6.834c0 2.848-1.764 6.139-3.996 7.537-.095.06-.191.116-.287.169-2.368 1.286-4.285-.078-4.285-3.05 0-2.97 1.917-6.42 4.285-7.706a5.4 5.4 0 0 1 .287-.144c2.232-1.028 3.996.344 3.996 3.194Z" fill="#407BFF"/><path opacity=".4" d="M12.045 6.834c0 2.848-1.764 6.139-3.996 7.537-.095.06-.191.116-.287.169-2.368 1.286-4.285-.078-4.285-3.05 0-2.97 1.917-6.42 4.285-7.706a5.4 5.4 0 0 1 .287-.144c2.232-1.028 3.996.344 3.996 3.194Z" fill="#000"/><path d="M11.855 6.937v.277c-.108 2.656-1.752 5.633-3.813 6.926l-.056.035c-.073.043-.146.086-.218.126a3.694 3.694 0 0 1-1.287.44c-.96.123-1.764-.273-2.261-1.084a4.038 4.038 0 0 1-.538-1.83 5.973 5.973 0 0 1-.015-.434c0-.15 0-.272.014-.41.017-.294.052-.586.103-.876.362-2.052 1.522-4.14 3.003-5.4a5.837 5.837 0 0 1 .974-.677 5.38 5.38 0 0 1 .274-.138l.076-.034a2.922 2.922 0 0 1 1.69-.253c.863.16 1.523.796 1.846 1.836.143.487.213.99.208 1.496Z" fill="#407BFF"/><path opacity=".5" d="M11.855 6.937v.277c-.108 2.656-1.752 5.633-3.813 6.926l-.056.035c-.073.043-.146.086-.218.126a3.694 3.694 0 0 1-1.287.44c-.96.123-1.764-.273-2.261-1.084a4.038 4.038 0 0 1-.538-1.83 5.973 5.973 0 0 1-.015-.434c0-.15 0-.272.014-.41.017-.294.052-.586.103-.876.362-2.052 1.522-4.14 3.003-5.4a5.837 5.837 0 0 1 .974-.677 5.38 5.38 0 0 1 .274-.138l.076-.034a2.922 2.922 0 0 1 1.69-.253c.863.16 1.523.796 1.846 1.836.143.487.213.99.208 1.496Z" fill="#000"/><path d="M11.17 6.842v-.279a5.136 5.136 0 0 0-.207-1.503 2.82 2.82 0 0 0-.87-1.391 2.044 2.044 0 0 0-.283-.072 2.922 2.922 0 0 0-1.691.253l-.076.034c-.09.043-.183.087-.274.138a5.838 5.838 0 0 0-.974.677c-1.48 1.256-2.642 3.343-3.004 5.4a7.817 7.817 0 0 0-.116 1.286c0 .136 0 .293.015.434.026.642.208 1.27.531 1.837.141.234.323.445.538.624.335.106.693.136 1.043.087a3.693 3.693 0 0 0 1.287-.44c.073-.039.147-.082.218-.126l.056-.036c2.054-1.29 3.698-4.268 3.806-6.923Z" fill="#407BFF"/><path opacity=".25" d="M11.17 6.842v-.279a5.136 5.136 0 0 0-.207-1.503 2.82 2.82 0 0 0-.87-1.391 2.044 2.044 0 0 0-.283-.072 2.922 2.922 0 0 0-1.691.253l-.076.034c-.09.043-.183.087-.274.138a5.838 5.838 0 0 0-.974.677c-1.48 1.256-2.642 3.343-3.004 5.4a7.817 7.817 0 0 0-.116 1.286c0 .136 0 .293.015.434.026.642.208 1.27.531 1.837.141.234.323.445.538.624.335.106.693.136 1.043.087a3.693 3.693 0 0 0 1.287-.44c.073-.039.147-.082.218-.126l.056-.036c2.054-1.29 3.698-4.268 3.806-6.923Z" fill="#000"/><path d="M10.58 1.34c-2.475-.263-4.487 1.667-5.83 3.4-1.94 2.693-3.168 6.101-2.497 9.36.22.906.66 1.817 1.46 2.388-.818-.565-1.293-1.474-1.521-2.388-.619-2.668.159-5.472 1.456-7.858 1.385-2.357 3.74-5.224 6.931-4.902Z" fill="#F5F5F5"/><path opacity=".35" d="m8.705 7.644-.822-.447 1.59-1.277.821.448-1.59 1.276ZM9.21 7.938c-.422-.28-1.15-.068-1.77.115-.148.048-.282.09-.404.124a.69.69 0 0 0-.06.27c0 .451.405.32 1.288.055a6.79 6.79 0 0 1 .912-.226c.027.23.196.438.855.11l-.822-.448Z" fill="#000"/><path opacity=".45" d="m7.173 13.807-.821-.448v-.913l.821.447v.914Z" fill="#000"/><path opacity=".35" d="M8.57 10.343c0 .363-.289.688-.719.923-.676.374-.952.069-1.014-.229l-.146-.08a1.55 1.55 0 0 0 .339-.138c.297-.143.533-.379.668-.667.503-.156.872-.217.872.191ZM5.51 12.576a.563.563 0 0 0-.299-.068 1.22 1.22 0 0 1-.044-.145l-.825-.447a.923.923 0 0 0 .154.377.99.99 0 0 0 .306.284l.82.447a.345.345 0 0 0 .028-.242.363.363 0 0 0-.14-.206Z" fill="#000"/><path d="M8.265 8.503c-.883.273-1.289.397-1.289-.054a.69.69 0 0 1 .061-.27c-.602.175-.882.197-.882-.177 0-.276.197-.615.742-.912.58-.319.905-.244.986.108l1.59-1.274c0-.019-.014-.036-.023-.056.1-.02.195-.054.283-.101l-.656-.37-.063-.035h-.01a1.17 1.17 0 0 0-.624-.097c-.285.03-.563.1-.825.209V5.45l.822-.45-.822-.441-.557.305-.754.413v.912c-1.114.764-1.81 1.76-1.81 2.84 0 .49.141.77.37.911h.01a.56.56 0 0 0 .06.032l.689.364a.452.452 0 0 0-.037-.285 3.96 3.96 0 0 0 .644-.132c.835-.237 1.577-.611 1.577-.028a.66.66 0 0 1-.05.256c.507-.16.872-.217.872.191 0 .363-.289.688-.718.923-.677.374-.952.069-1.015-.229l-.145-.08-.677-.367-1.672 1.332.822.448c.026.114.068.224.125.328a2.79 2.79 0 0 0 1.06-.247v.37l1.299-.168v-.912c1.126-.782 1.902-1.834 1.902-2.934a1.389 1.389 0 0 0-.093-.551 4.872 4.872 0 0 0-1.192.251Z" fill="#407BFF"/><path opacity=".15" d="M8.265 8.503c-.883.273-1.289.397-1.289-.054a.69.69 0 0 1 .061-.27c-.602.175-.882.197-.882-.177 0-.276.197-.615.742-.912.58-.319.905-.244.986.108l1.59-1.274c0-.019-.014-.036-.023-.056.1-.02.195-.054.283-.101l-.656-.37-.063-.035h-.01a1.17 1.17 0 0 0-.624-.097c-.285.03-.563.1-.825.209V5.45l.822-.45-.822-.441-.557.305-.754.413v.912c-1.114.764-1.81 1.76-1.81 2.84 0 .49.141.77.37.911h.01a.56.56 0 0 0 .06.032l.689.364a.452.452 0 0 0-.037-.285 3.96 3.96 0 0 0 .644-.132c.835-.237 1.577-.611 1.577-.028a.66.66 0 0 1-.05.256c.507-.16.872-.217.872.191 0 .363-.289.688-.718.923-.677.374-.952.069-1.015-.229l-.145-.08-.677-.367-1.672 1.332.822.448c.026.114.068.224.125.328a2.79 2.79 0 0 0 1.06-.247v.37l1.299-.168v-.912c1.126-.782 1.902-1.834 1.902-2.934a1.389 1.389 0 0 0-.093-.551 4.872 4.872 0 0 0-1.192.251Z" fill="#000"/><path d="M6.25 6.192a4.902 4.902 0 0 0-1.485 1.687c-.165.333-.26.691-.283 1.057a1.73 1.73 0 0 0 .03.545.741.741 0 0 0 .292.462.754.754 0 0 1-.339-.45 1.804 1.804 0 0 1-.064-.56c.015-.378.11-.75.28-1.092.175-.34.403-.653.677-.928.265-.273.565-.516.891-.721Z" fill="#000" opacity=".2"/><path d="M9.46 8.255c-.408.034-.81.119-1.195.252-.883.272-1.289.396-1.289-.054a.69.69 0 0 1 .061-.27c.148-.275.385-.499.677-.638.58-.318.904-.242.985.11l1.59-1.274a.875.875 0 0 0-.337-.485.97.97 0 0 0-.585-.182 2.623 2.623 0 0 0-.992.219V5.01l-.82.444-.49.267v.913c-1.113.764-1.808 1.762-1.808 2.838-.008.204.026.407.1.599.246.578.92.498 1.63.302.248-.07.49-.159.705-.22.507-.159.872-.216.872.192 0 .363-.289.688-.719.923-.676.374-.952.069-1.014-.23l-1.67 1.333c.025.114.067.225.124.328.218.384.607.49 1.06.433.285-.04.561-.118.822-.232v.914l1.3-.707v-.919c1.125-.78 1.901-1.832 1.901-2.932.007-.795-.392-1.013-.908-1.002Z" fill="#407BFF"/><path d="M9.461 8.255c-.408.033-.81.118-1.195.251-.883.273-1.289.397-1.289-.054a.69.69 0 0 1 .061-.27c.148-.275.385-.498.677-.637.58-.319.904-.242.985.11l1.59-1.274a.875.875 0 0 0-.337-.485.97.97 0 0 0-.585-.182 2.623 2.623 0 0 0-.992.218V5.01l-.82.444-.49.268v.912c-1.113.764-1.808 1.763-1.808 2.839-.008.203.026.407.1.598.246.578.92.499 1.63.303.248-.07.49-.16.705-.22.507-.159.872-.216.872.191 0 .363-.289.688-.719.924-.676.374-.952.068-1.014-.23l-1.67 1.333c.025.114.067.224.124.328.218.384.607.49 1.06.433.285-.04.561-.119.822-.232v.913l1.299-.707v-.918c1.126-.78 1.902-1.833 1.902-2.933.007-.794-.392-1.012-.908-1.001Z" fill="#fff" opacity=".1"/><path opacity=".1" d="m6.722 11.129-1.027.816 1.14 1.075c.112-.035.225-.075.338-.123v.441l.318.3.98-.534v-.318l-1.75-1.657ZM9.46 8.254c-.409.034-.81.118-1.196.252l-.285.087 2.054 1.933c.217-.394.333-.83.338-1.274a1.716 1.716 0 0 0-.037-.372l-.65-.613a1.303 1.303 0 0 0-.224-.013ZM7.239 7.898c.141-.142.305-.263.485-.357.58-.318.905-.242.986.11l.17-.14-1.81-1.705v.837a5.9 5.9 0 0 0-.633.502l.802.753ZM8.816 5.778a4.13 4.13 0 0 0-.436.142v-.553l-.242-.234-.583.319-.1.054 1.8 1.697.581-.466-1.02-.959ZM6.068 10.507l-.787-.739c.013.102.039.202.076.298a.697.697 0 0 0 .28.328c.128.079.278.119.43.113Z" fill="#fff"/><path d="m7.07 6.64-.822-.448V5.28l.822.447v.912Z" fill="#407BFF"/><path opacity=".35" d="m7.07 6.64-.822-.448V5.28l.822.447v.912Z" fill="#000"/><path d="M8.473 12.185s.047-.033.126-.095c.05-.035.098-.072.144-.112.054-.044.119-.092.183-.15.064-.057.135-.117.206-.186l.108-.105c.038-.036.073-.075.11-.113.037-.038.075-.078.11-.12.036-.04.075-.082.11-.125.07-.088.142-.175.205-.269.062-.094.125-.188.184-.282.055-.093.105-.19.149-.288.047-.094.08-.19.117-.278l.04-.134.02-.064c0-.02.01-.041.014-.062.019-.081.037-.16.046-.223.008-.064.02-.126.022-.173 0-.098.008-.16.008-.16v.16a1.49 1.49 0 0 1-.015.175c-.008.076-.02.151-.037.226 0 .02 0 .041-.014.062-.013.02-.012.043-.018.065l-.04.135a3.173 3.173 0 0 1-.445.858c-.068.091-.136.184-.207.271-.036.043-.075.085-.11.126l-.112.12-.111.112-.114.104c-.07.067-.145.126-.21.181-.067.056-.131.104-.187.147-.056.043-.106.078-.147.107l-.135.09Z" fill="#fff"/><path d="m7.07 5.729 1.31-.718v.912l-.087-.764-1.223.57ZM7.174 12.896l.07.793 1.229-.585-1.3.706v-.914Z" fill="#FAFAFA"/><path d="m11.177 2.154.11-1.358.11 1.358 1.442.104-1.442.103-.11 1.358-.11-1.358-1.443-.103 1.443-.104ZM12.386 3.306l.052-.659.054.66.698.049-.698.05-.054.658-.052-.657-.7-.051.7-.05Z" fill="#fff"/></svg>