<svg width="101" height="100" fill="none" xmlns="http://www.w3.org/2000/svg"><path d="m6.219 25.656 5.217 53.466M10.41 68.674l-2.18-2.451" stroke="#263238" stroke-width=".128" stroke-linecap="round" stroke-linejoin="round"/><path d="M8.95 67.022a3.023 3.023 0 0 0-.252-1.181 2.845 2.845 0 0 0-.688-.964c-.608-.58-3.804-2.024-4.107-.814-.338 1.315 2.942 3.88 5.047 2.959Z" fill="#92E3A9" stroke="#263238" stroke-width=".128" stroke-miterlimit="10"/><path d="m8.95 67.018-3.044-2.026M10.954 74.192 8.828 72.3" stroke="#263238" stroke-width=".128" stroke-linecap="round" stroke-linejoin="round"/><path d="M9.545 73.104a3.03 3.03 0 0 0-.25-1.18 2.852 2.852 0 0 0-.683-.965c-.608-.58-3.804-2.024-4.107-.814-.338 1.304 2.933 3.879 5.04 2.959Z" fill="#92E3A9" stroke="#263238" stroke-width=".128" stroke-miterlimit="10"/><path d="m9.547 73.102-3.043-2.028M8.928 53.45l-2.147-2.067" stroke="#263238" stroke-width=".128" stroke-linecap="round" stroke-linejoin="round"/><path d="M7.502 52.182a3.03 3.03 0 0 0-.254-1.181 2.852 2.852 0 0 0-.688-.964c-.608-.58-3.804-2.023-4.107-.814-.33 1.313 2.942 3.879 5.049 2.96Z" fill="#92E3A9" stroke="#263238" stroke-width=".128" stroke-miterlimit="10"/><path d="M7.504 52.182 4.46 50.156M9.532 59.916 7.38 57.465" stroke="#263238" stroke-width=".128" stroke-linecap="round" stroke-linejoin="round"/><path d="M8.099 58.266a3.035 3.035 0 0 0-.254-1.182c-.163-.37-.397-.7-.688-.965-.608-.58-3.802-2.023-4.107-.814-.324 1.304 2.942 3.881 5.049 2.961Z" fill="#92E3A9" stroke="#263238" stroke-width=".128" stroke-miterlimit="10"/><path d="m8.098 58.266-3.043-2.028M7.976 43.853l-2.155-2.35" stroke="#263238" stroke-width=".128" stroke-linecap="round" stroke-linejoin="round"/><path d="M6.539 42.307a3.03 3.03 0 0 0-.254-1.181 2.852 2.852 0 0 0-.688-.964c-.606-.58-3.802-2.023-4.105-.814-.33 1.309 2.94 3.879 5.047 2.96Z" fill="#92E3A9" stroke="#263238" stroke-width=".128" stroke-miterlimit="10"/><path d="m6.539 42.307-3.043-2.026M6.938 33.292l-2.086-1.706" stroke="#263238" stroke-width=".128" stroke-linecap="round" stroke-linejoin="round"/><path d="M5.571 32.385a3.028 3.028 0 0 0-.254-1.181 2.848 2.848 0 0 0-.688-.964c-.608-.58-3.804-2.023-4.107-.814-.321 1.309 2.942 3.879 5.049 2.96Z" fill="#92E3A9" stroke="#263238" stroke-width=".128" stroke-miterlimit="10"/><path d="m5.57 32.388-3.042-2.029M10.2 65.297 12 62.16" stroke="#263238" stroke-width=".128" stroke-linecap="round" stroke-linejoin="round"/><path d="M11.45 63.102a3.063 3.063 0 0 1 .02-1.214 2.96 2.96 0 0 1 .487-1.096c.481-.701 3.33-2.812 3.86-1.702.574 1.208-2.128 4.445-4.367 4.011Z" fill="#92E3A9" stroke="#263238" stroke-width=".128" stroke-miterlimit="10"/><path d="m11.45 63.103 2.14-2.15M8.637 49.297l1.798-3.137" stroke="#263238" stroke-width=".128" stroke-linecap="round" stroke-linejoin="round"/><path d="M9.887 47.097c-.074-.401-.067-.814.02-1.212.088-.398.254-.771.487-1.095.484-.702 2.713-2.46 3.24-1.35.576 1.21-1.507 4.093-3.747 3.657Z" fill="#92E3A9" stroke="#263238" stroke-width=".128" stroke-miterlimit="10"/><path d="m9.887 47.1 2.74-2.8M7.95 42.266l1.8-3.137" stroke="#263238" stroke-width=".128" stroke-linecap="round" stroke-linejoin="round"/><path d="M9.2 40.07a3.063 3.063 0 0 1 .02-1.213 2.96 2.96 0 0 1 .487-1.096c.481-.701 3.33-2.813 3.86-1.702.576 1.214-2.128 4.445-4.367 4.011Z" fill="#92E3A9" stroke="#263238" stroke-width=".128" stroke-miterlimit="10"/><path d="m9.203 40.067 2.74-2.801M6.946 31.957l1.797-3.137" stroke="#263238" stroke-width=".128" stroke-linecap="round" stroke-linejoin="round"/><path d="M8.192 29.758a3.063 3.063 0 0 1 .02-1.213 2.96 2.96 0 0 1 .487-1.096c.483-.702 3.333-2.813 3.86-1.702.58 1.207-2.123 4.445-4.367 4.01Z" fill="#92E3A9" stroke="#263238" stroke-width=".128" stroke-miterlimit="10"/><path d="m8.196 29.762 2.74-2.801" stroke="#263238" stroke-width=".128" stroke-linecap="round" stroke-linejoin="round"/><path d="M6.176 25.353c-.074-.4-.067-.814.02-1.212.088-.398.254-.771.487-1.095.482-.701 3.33-2.813 3.86-1.702.577 1.214-2.127 4.459-4.367 4.01Z" fill="#92E3A9" stroke="#263238" stroke-width=".128" stroke-miterlimit="10"/><path d="m6.176 25.362 2.74-2.8" stroke="#263238" stroke-width=".128" stroke-linecap="round" stroke-linejoin="round"/><path d="M6.334 25.485a2.517 2.517 0 0 1-1.13-.145 2.655 2.655 0 0 1-.972-.635c-.591-.587-2.257-3.845-1.167-4.295 1.183-.474 3.91 2.739 3.27 5.075Z" fill="#92E3A9" stroke="#263238" stroke-width=".128" stroke-miterlimit="10"/><path d="M6.335 25.484 4.02 22.277M14.04 11.25v67.615M19.98 33.02l-5.187 53.47M15.892 75.566l-1.2-1.468" stroke="#263238" stroke-width=".128" stroke-linecap="round" stroke-linejoin="round"/><path d="M14.69 74.1a3.056 3.056 0 0 0-.02-1.212 2.95 2.95 0 0 0-.489-1.095c-.481-.699-3.333-2.817-3.86-1.693-.575 1.2 2.13 4.439 4.369 4Z" fill="#92E3A9" stroke="#263238" stroke-width=".128" stroke-miterlimit="10"/><path d="m14.692 74.099-2.586-2.654M17.355 60.303l-1.78-1.592" stroke="#263238" stroke-width=".128" stroke-linecap="round" stroke-linejoin="round"/><path d="M16.129 59.263a3.052 3.052 0 0 0-.02-1.213 2.95 2.95 0 0 0-.49-1.094c-.48-.702-3.332-2.82-3.855-1.696-.58 1.203 2.125 4.439 4.365 4.003Z" fill="#92E3A9" stroke="#263238" stroke-width=".128" stroke-miterlimit="10"/><path d="m16.13 59.263-2.587-2.654M16.788 67.537l-1.8-3.135" stroke="#263238" stroke-width=".128" stroke-linecap="round" stroke-linejoin="round"/><path d="M15.548 65.34a3.06 3.06 0 0 0-.02-1.213 2.955 2.955 0 0 0-.487-1.095c-.483-.699-3.332-2.81-3.862-1.7-.585 1.208 2.121 4.446 4.37 4.007Z" fill="#92E3A9" stroke="#263238" stroke-width=".128" stroke-miterlimit="10"/><path d="m15.54 65.34-2.587-2.653M18.261 50.563l-1.718-2.118" stroke="#263238" stroke-width=".128" stroke-linecap="round" stroke-linejoin="round"/><path d="M17.089 49.385a3.057 3.057 0 0 0-.02-1.214 2.952 2.952 0 0 0-.489-1.096c-.481-.699-3.333-2.81-3.86-1.7-.577 1.21 2.13 4.446 4.369 4.01Z" fill="#92E3A9" stroke="#263238" stroke-width=".128" stroke-miterlimit="10"/><path d="M17.087 49.386 14.5 46.73M19.16 41.274l-1.66-2.755" stroke="#263238" stroke-width=".128" stroke-linecap="round" stroke-linejoin="round"/><path d="M18.054 39.46a3.064 3.064 0 0 0-.022-1.212 2.96 2.96 0 0 0-.487-1.094c-.484-.702-3.333-2.81-3.86-1.7-.577 1.207 2.13 4.443 4.369 4.007Z" fill="#92E3A9" stroke="#263238" stroke-width=".128" stroke-miterlimit="10"/><path d="m18.053 39.462-2.588-2.653M16.246 72.685l2.364-2.673" stroke="#263238" stroke-width=".128" stroke-linecap="round" stroke-linejoin="round"/><path d="M17.89 70.814c.006-.409.092-.812.255-1.182.162-.37.397-.7.688-.965.606-.58 3.802-2.024 4.104-.816.33 1.308-2.94 3.88-5.046 2.963Z" fill="#92E3A9" stroke="#263238" stroke-width=".128" stroke-miterlimit="10"/><path d="m17.89 70.814 3.222-2.138M17.797 56.685l2.364-2.673" stroke="#263238" stroke-width=".128" stroke-linecap="round" stroke-linejoin="round"/><path d="M19.446 54.81c.004-.409.09-.812.252-1.182.162-.37.396-.7.688-.965.607-.58 3.801-2.024 4.106-.816.33 1.31-2.94 3.883-5.046 2.963Z" fill="#92E3A9" stroke="#263238" stroke-width=".128" stroke-miterlimit="10"/><path d="m19.446 54.81 3.219-2.138M18.48 49.654l2.364-2.674" stroke="#263238" stroke-width=".128" stroke-linecap="round" stroke-linejoin="round"/><path d="M20.125 47.779c.005-.409.092-.812.254-1.183.162-.37.397-.699.688-.964.606-.58 3.802-2.024 4.105-.816.33 1.308-2.94 3.883-5.047 2.963Z" fill="#92E3A9" stroke="#263238" stroke-width=".128" stroke-miterlimit="10"/><path d="m20.125 47.777 3.222-2.136M19.453 38.813l2.391-2.145" stroke="#263238" stroke-width=".128" stroke-linecap="round" stroke-linejoin="round"/><path d="M21.13 37.47c.004-.408.09-.812.252-1.182.162-.37.396-.7.687-.965.608-.58 3.802-2.023 4.107-.816.33 1.309-2.94 3.89-5.047 2.963Z" fill="#92E3A9" stroke="#263238" stroke-width=".128" stroke-miterlimit="10"/><path d="m21.13 37.47 3.218-2.138" stroke="#263238" stroke-width=".128" stroke-miterlimit="10"/><path d="M20 32.72a3.03 3.03 0 0 1 .253-1.182c.162-.37.396-.7.687-.965.608-.58 3.802-2.024 4.107-.816.33 1.308-2.94 3.88-5.047 2.963Z" fill="#92E3A9" stroke="#263238" stroke-width=".128" stroke-miterlimit="10"/><path d="m20 32.72 3.22-2.138" stroke="#263238" stroke-width=".128" stroke-linecap="round" stroke-linejoin="round"/><path d="M20.133 32.877a2.572 2.572 0 0 1-1.07-.394 2.77 2.77 0 0 1-.823-.83c-.475-.707-1.472-4.255-.328-4.453 1.245-.213 3.295 3.533 2.22 5.677Z" fill="#92E3A9" stroke="#263238" stroke-width=".128" stroke-miterlimit="10"/><path d="m20.131 32.876-1.65-3.65M13.948 68.574l-1.956-2.797" stroke="#263238" stroke-width=".128" stroke-linecap="round" stroke-linejoin="round"/><path d="M12.633 66.655a3.059 3.059 0 0 0-.137-1.209 2.913 2.913 0 0 0-.593-1.04c-.547-.642-3.585-2.427-3.995-1.263-.465 1.273 2.54 4.194 4.724 3.512Z" fill="#92E3A9" stroke="#263238" stroke-width=".128" stroke-miterlimit="10"/><path d="M12.631 66.655 9.801 64.3M14.017 55.091l-2.025-2.017" stroke="#263238" stroke-width=".128" stroke-linecap="round" stroke-linejoin="round"/><path d="M12.633 53.95a3.057 3.057 0 0 0-.137-1.21 2.91 2.91 0 0 0-.593-1.04c-.547-.642-3.585-2.427-3.995-1.265-.465 1.275 2.54 4.196 4.724 3.514Z" fill="#92E3A9" stroke="#263238" stroke-width=".128" stroke-miterlimit="10"/><path d="m12.631 53.948-2.83-2.354M14.085 41.077l-2.093-2.92" stroke="#263238" stroke-width=".128" stroke-linecap="round" stroke-linejoin="round"/><path d="M12.633 39.028a3.057 3.057 0 0 0-.137-1.21 2.911 2.911 0 0 0-.593-1.039c-.547-.643-3.585-2.428-3.995-1.266-.465 1.275 2.54 4.196 4.724 3.515Z" fill="#92E3A9" stroke="#263238" stroke-width=".128" stroke-miterlimit="10"/><path d="m12.631 39.03-2.83-2.354M13.948 30.11l-1.956-1.887" stroke="#263238" stroke-width=".128" stroke-linecap="round" stroke-linejoin="round"/><path d="M12.633 29.102a3.057 3.057 0 0 0-.137-1.21 2.912 2.912 0 0 0-.593-1.039c-.547-.643-3.585-2.428-3.995-1.266-.465 1.275 2.54 4.196 4.724 3.515Z" fill="#92E3A9" stroke="#263238" stroke-width=".128" stroke-miterlimit="10"/><path d="m12.631 29.1-2.83-2.354M14.065 20.174l-2.03-1.592" stroke="#263238" stroke-width=".128" stroke-linecap="round" stroke-linejoin="round"/><path d="M12.633 19.125a3.057 3.057 0 0 0-.137-1.209 2.91 2.91 0 0 0-.593-1.039c-.547-.645-3.585-2.428-3.995-1.266-.465 1.275 2.54 4.196 4.724 3.514Z" fill="#92E3A9" stroke="#263238" stroke-width=".128" stroke-miterlimit="10"/><path d="m12.631 19.124-2.83-2.354M14.45 71.951l1.688-2.29" stroke="#263238" stroke-width=".128" stroke-linecap="round" stroke-linejoin="round"/><path d="M15.497 70.535c-.037-.408.01-.82.135-1.209.125-.387.327-.742.592-1.04.55-.642 3.588-2.427 4.006-1.265.454 1.28-2.549 4.202-4.733 3.514Z" fill="#92E3A9" stroke="#263238" stroke-width=".128" stroke-miterlimit="10"/><path d="m15.496 70.533 2.997-2.482M14.043 52.37l2.095-2.92" stroke="#263238" stroke-width=".128" stroke-linecap="round" stroke-linejoin="round"/><path d="M15.497 50.325c-.037-.409.01-.821.135-1.21.125-.387.327-.742.592-1.039.55-.645 3.588-2.428 4.006-1.266.454 1.275-2.549 4.196-4.733 3.515Z" fill="#92E3A9" stroke="#263238" stroke-width=".128" stroke-miterlimit="10"/><path d="m15.496 50.326 2.997-2.482M14.043 42.391l2.095-2.918" stroke="#263238" stroke-width=".128" stroke-linecap="round" stroke-linejoin="round"/><path d="M15.5 40.349a3.042 3.042 0 0 1 .137-1.203c.125-.386.327-.739.59-1.035.55-.645 3.588-2.428 4.006-1.265.454 1.265-2.548 4.184-4.733 3.503Z" fill="#92E3A9" stroke="#263238" stroke-width=".128" stroke-miterlimit="10"/><path d="m15.496 40.347 2.997-2.48M14.043 29.21l2.095-2.92" stroke="#263238" stroke-width=".128" stroke-linecap="round" stroke-linejoin="round"/><path d="M15.497 27.171c-.037-.409.01-.82.135-1.209.125-.388.327-.742.592-1.04.55-.643 3.588-2.428 4.006-1.263.454 1.273-2.549 4.193-4.733 3.512Z" fill="#92E3A9" stroke="#263238" stroke-width=".128" stroke-miterlimit="10"/><path d="m15.496 27.168 2.997-2.48M14.13 17.834l2.051-1.713" stroke="#263238" stroke-width=".128" stroke-linecap="round" stroke-linejoin="round"/><path d="M15.497 16.81a3.044 3.044 0 0 1 .135-1.21 2.9 2.9 0 0 1 .592-1.038c.55-.646 3.588-2.431 4.006-1.266.454 1.266-2.548 4.189-4.733 3.514Z" fill="#92E3A9" stroke="#263238" stroke-width=".128" stroke-miterlimit="10"/><path d="m15.496 16.804 2.997-2.48" stroke="#263238" stroke-width=".128" stroke-linecap="round" stroke-linejoin="round"/><path d="M13.919 12.207c-.037-.409.01-.82.135-1.209.125-.388.327-.742.592-1.04.547-.642 3.587-2.428 3.995-1.265.465 1.275-2.538 4.196-4.722 3.514Z" fill="#92E3A9" stroke="#263238" stroke-width=".128" stroke-miterlimit="10"/><path d="m13.914 12.205 2.997-2.482" stroke="#263238" stroke-width=".128" stroke-linecap="round" stroke-linejoin="round"/><path d="M14.062 12.343a2.544 2.544 0 0 1-1.105-.273 2.716 2.716 0 0 1-.9-.736c-.541-.65-1.883-4.068-.756-4.392 1.224-.35 3.62 3.148 2.761 5.401Z" fill="#92E3A9" stroke="#263238" stroke-width=".128" stroke-miterlimit="10"/><path d="M14.062 12.345 12.07 8.898" stroke="#263238" stroke-width=".128" stroke-linecap="round" stroke-linejoin="round"/><path d="M16.64 96.4H9.943l-.837-18.084h8.37l-.836 18.085Z" fill="#263238" stroke="#263238" stroke-width=".128" stroke-linecap="round" stroke-linejoin="round"/><path d="M30.996 93.125h-2.71v3.274h2.71v-3.274Z" fill="#E8E8E8" stroke="#263238" stroke-width=".128" stroke-linejoin="round"/><path d="M33.746 93.125h-2.71v3.274h2.71v-3.274Z" fill="#CFCFCF" stroke="#263238" stroke-width=".128" stroke-linejoin="round"/><path d="M36.496 93.125h-2.71v3.274h2.71v-3.274Z" fill="#333" stroke="#263238" stroke-width=".128" stroke-linejoin="round"/><path d="M39.25 93.125h-2.71v3.274h2.71v-3.274Z" fill="#7D7D7D" stroke="#263238" stroke-width=".128" stroke-linejoin="round"/><path d="M42.004 93.125h-2.71v3.274h2.71v-3.274Z" fill="#D4D4D4" stroke="#263238" stroke-width=".128" stroke-linejoin="round"/><path d="M44.754 93.125h-2.71v3.274h2.71v-3.274Z" fill="#CFCFCF" stroke="#263238" stroke-width=".128" stroke-linejoin="round"/><path d="M47.504 93.125h-2.71v3.274h2.71v-3.274Z" fill="#E8E8E8" stroke="#263238" stroke-width=".128" stroke-linejoin="round"/><path d="M50.258 93.125h-2.71v3.274h2.71v-3.274ZM53.011 93.125h-2.71v3.274h2.71v-3.274Z" fill="#fff" stroke="#263238" stroke-width=".128" stroke-linejoin="round"/><path d="M55.765 93.125h-2.71v3.274h2.71v-3.274Z" fill="#263238"/><path d="M58.515 93.125h-2.71v3.274h2.71v-3.274ZM61.265 93.125h-2.71v3.274h2.71v-3.274Z" fill="#fff" stroke="#263238" stroke-width=".128" stroke-linejoin="round"/><path d="M32.953 89.754h-2.71v3.274h2.71v-3.274Z" fill="#E8E8E8" stroke="#263238" stroke-width=".128" stroke-linejoin="round"/><path d="M35.703 89.754h-2.71v3.274h2.71v-3.274Z" fill="#CFCFCF" stroke="#263238" stroke-width=".128" stroke-linejoin="round"/><path d="M38.457 89.754h-2.71v3.274h2.71v-3.274Z" fill="#333" stroke="#263238" stroke-width=".128" stroke-linejoin="round"/><path d="M41.21 89.754H38.5v3.274h2.71v-3.274Z" fill="#7D7D7D" stroke="#263238" stroke-width=".128" stroke-linejoin="round"/><path d="M43.957 89.754h-2.71v3.274h2.71v-3.274Z" fill="#D4D4D4" stroke="#263238" stroke-width=".128" stroke-linejoin="round"/><path d="M46.71 89.754H44v3.274h2.71v-3.274Z" fill="#CFCFCF" stroke="#263238" stroke-width=".128" stroke-linejoin="round"/><path d="M49.46 89.754h-2.71v3.274h2.71v-3.274Z" fill="#E8E8E8" stroke="#263238" stroke-width=".128" stroke-linejoin="round"/><path d="M52.215 89.754h-2.71v3.274h2.71v-3.274ZM54.965 89.754h-2.71v3.274h2.71v-3.274Z" fill="#fff" stroke="#263238" stroke-width=".128" stroke-linejoin="round"/><path d="M57.718 89.754h-2.71v3.274h2.71v-3.274Z" fill="#263238"/><path d="M60.472 89.754h-2.71v3.274h2.71v-3.274ZM63.226 89.754h-2.71v3.274h2.71v-3.274Z" fill="#fff" stroke="#263238" stroke-width=".128" stroke-linejoin="round"/><path d="M32.812 86.379h-2.71v3.274h2.71v-3.274Z" fill="#E8E8E8" stroke="#263238" stroke-width=".128" stroke-linejoin="round"/><path d="M35.566 86.379h-2.71v3.274h2.71v-3.274Z" fill="#CFCFCF" stroke="#263238" stroke-width=".128" stroke-linejoin="round"/><path d="M38.312 86.379h-2.71v3.274h2.71v-3.274Z" fill="#333" stroke="#263238" stroke-width=".128" stroke-linejoin="round"/><path d="M41.066 86.379h-2.71v3.274h2.71v-3.274Z" fill="#7D7D7D" stroke="#263238" stroke-width=".128" stroke-linejoin="round"/><path d="M43.82 86.379h-2.71v3.274h2.71v-3.274Z" fill="#D4D4D4" stroke="#263238" stroke-width=".128" stroke-linejoin="round"/><path d="M46.57 86.379h-2.71v3.274h2.71v-3.274Z" fill="#CFCFCF" stroke="#263238" stroke-width=".128" stroke-linejoin="round"/><path d="M49.32 86.379h-2.71v3.274h2.71v-3.274Z" fill="#E8E8E8" stroke="#263238" stroke-width=".128" stroke-linejoin="round"/><path d="M52.074 86.379h-2.71v3.274h2.71v-3.274ZM54.828 86.379h-2.71v3.274h2.71v-3.274Z" fill="#fff" stroke="#263238" stroke-width=".128" stroke-linejoin="round"/><path d="M57.582 86.379h-2.71v3.274h2.71v-3.274Z" fill="#263238"/><path d="M60.332 86.379h-2.71v3.274h2.71v-3.274ZM63.086 86.379h-2.71v3.274h2.71v-3.274Z" fill="#fff" stroke="#263238" stroke-width=".128" stroke-linejoin="round"/><path d="M32.672 83.008h-2.71v3.274h2.71v-3.274Z" fill="#E8E8E8" stroke="#263238" stroke-width=".128" stroke-linejoin="round"/><path d="M35.422 83.008h-2.71v3.274h2.71v-3.274Z" fill="#CFCFCF" stroke="#263238" stroke-width=".128" stroke-linejoin="round"/><path d="M38.175 83.008h-2.71v3.274h2.71v-3.274Z" fill="#333" stroke="#263238" stroke-width=".128" stroke-linejoin="round"/><path d="M40.93 83.008h-2.711v3.274h2.71v-3.274Z" fill="#7D7D7D" stroke="#263238" stroke-width=".128" stroke-linejoin="round"/><path d="M43.68 83.008h-2.711v3.274h2.71v-3.274Z" fill="#D4D4D4" stroke="#263238" stroke-width=".128" stroke-linejoin="round"/><path d="M46.43 83.008h-2.711v3.274h2.71v-3.274Z" fill="#CFCFCF" stroke="#263238" stroke-width=".128" stroke-linejoin="round"/><path d="M49.183 83.008h-2.71v3.274h2.71v-3.274Z" fill="#E8E8E8" stroke="#263238" stroke-width=".128" stroke-linejoin="round"/><path d="M51.937 83.008h-2.71v3.274h2.71v-3.274ZM54.691 83.008h-2.71v3.274h2.71v-3.274Z" fill="#fff" stroke="#263238" stroke-width=".128" stroke-linejoin="round"/><path d="M57.441 83.008h-2.71v3.274h2.71v-3.274Z" fill="#263238"/><path d="M60.191 83.008h-2.71v3.274h2.71v-3.274ZM62.941 83.008h-2.71v3.274h2.71v-3.274Z" fill="#fff" stroke="#263238" stroke-width=".128" stroke-linejoin="round"/><path d="M30.297 79.633h-2.71v3.274h2.71v-3.274Z" fill="#E8E8E8" stroke="#263238" stroke-width=".128" stroke-linejoin="round"/><path d="M33.05 79.633h-2.71v3.274h2.71v-3.274Z" fill="#CFCFCF" stroke="#263238" stroke-width=".128" stroke-linejoin="round"/><path d="M35.8 79.633h-2.71v3.274h2.71v-3.274Z" fill="#333" stroke="#263238" stroke-width=".128" stroke-linejoin="round"/><path d="M38.554 79.633h-2.71v3.274h2.71v-3.274Z" fill="#7D7D7D" stroke="#263238" stroke-width=".128" stroke-linejoin="round"/><path d="M41.3 79.633h-2.71v3.274h2.71v-3.274Z" fill="#D4D4D4" stroke="#263238" stroke-width=".128" stroke-linejoin="round"/><path d="M44.054 79.633h-2.71v3.274h2.71v-3.274Z" fill="#CFCFCF" stroke="#263238" stroke-width=".128" stroke-linejoin="round"/><path d="M46.808 79.633h-2.71v3.274h2.71v-3.274Z" fill="#E8E8E8" stroke="#263238" stroke-width=".128" stroke-linejoin="round"/><path d="M49.558 79.633h-2.71v3.274h2.71v-3.274ZM52.308 79.633h-2.71v3.274h2.71v-3.274Z" fill="#fff" stroke="#263238" stroke-width=".128" stroke-linejoin="round"/><path d="M55.062 79.633h-2.71v3.274h2.71v-3.274Z" fill="#263238"/><path d="M57.816 79.633h-2.71v3.274h2.71v-3.274ZM60.57 79.633h-2.71v3.274h2.71v-3.274Z" fill="#fff" stroke="#263238" stroke-width=".128" stroke-linejoin="round"/><path d="M30.574 76.258h-2.71v3.274h2.71v-3.274Z" fill="#E8E8E8" stroke="#263238" stroke-width=".128" stroke-linejoin="round"/><path d="M33.328 76.258h-2.71v3.274h2.71v-3.274Z" fill="#CFCFCF" stroke="#263238" stroke-width=".128" stroke-linejoin="round"/><path d="M36.078 76.258h-2.71v3.274h2.71v-3.274Z" fill="#333" stroke="#263238" stroke-width=".128" stroke-linejoin="round"/><path d="M38.832 76.258h-2.71v3.274h2.71v-3.274Z" fill="#7D7D7D" stroke="#263238" stroke-width=".128" stroke-linejoin="round"/><path d="M41.582 76.258h-2.71v3.274h2.71v-3.274Z" fill="#D4D4D4" stroke="#263238" stroke-width=".128" stroke-linejoin="round"/><path d="M44.336 76.258h-2.71v3.274h2.71v-3.274Z" fill="#CFCFCF" stroke="#263238" stroke-width=".128" stroke-linejoin="round"/><path d="M47.09 76.258h-2.71v3.274h2.71v-3.274Z" fill="#E8E8E8" stroke="#263238" stroke-width=".128" stroke-linejoin="round"/><path d="M49.84 76.258h-2.71v3.274h2.71v-3.274ZM52.59 76.258h-2.71v3.274h2.71v-3.274Z" fill="#fff" stroke="#263238" stroke-width=".128" stroke-linejoin="round"/><path d="M55.343 76.258h-2.71v3.274h2.71v-3.274Z" fill="#263238"/><path d="M58.093 76.258h-2.71v3.274h2.71v-3.274ZM60.847 76.258h-2.71v3.274h2.71v-3.274Z" fill="#fff" stroke="#263238" stroke-width=".128" stroke-linejoin="round"/><path d="M33.793 72.883h-2.71v3.274h2.71v-3.274Z" fill="#E8E8E8" stroke="#263238" stroke-width=".128" stroke-linejoin="round"/><path d="M36.543 72.883h-2.71v3.274h2.71v-3.274Z" fill="#CFCFCF" stroke="#263238" stroke-width=".128" stroke-linejoin="round"/><path d="M39.297 72.883h-2.71v3.274h2.71v-3.274Z" fill="#333" stroke="#263238" stroke-width=".128" stroke-linejoin="round"/><path d="M42.047 72.883h-2.71v3.274h2.71v-3.274Z" fill="#7D7D7D" stroke="#263238" stroke-width=".128" stroke-linejoin="round"/><path d="M44.797 72.883h-2.71v3.274h2.71v-3.274Z" fill="#D4D4D4" stroke="#263238" stroke-width=".128" stroke-linejoin="round"/><path d="M47.55 72.883h-2.71v3.274h2.71v-3.274Z" fill="#CFCFCF" stroke="#263238" stroke-width=".128" stroke-linejoin="round"/><path d="M50.3 72.883h-2.71v3.274h2.71v-3.274Z" fill="#E8E8E8" stroke="#263238" stroke-width=".128" stroke-linejoin="round"/><path d="M53.054 72.883h-2.71v3.274h2.71v-3.274ZM55.804 72.883h-2.71v3.274h2.71v-3.274Z" fill="#fff" stroke="#263238" stroke-width=".128" stroke-linejoin="round"/><path d="M58.558 72.883h-2.71v3.274h2.71v-3.274Z" fill="#263238"/><path d="M61.312 72.883h-2.71v3.274h2.71v-3.274ZM64.062 72.883h-2.71v3.274h2.71v-3.274Z" fill="#fff" stroke="#263238" stroke-width=".128" stroke-linejoin="round"/><path d="M30.015 69.512h-2.71v3.273h2.71v-3.273Z" fill="#E8E8E8" stroke="#263238" stroke-width=".128" stroke-linejoin="round"/><path d="M32.765 69.512h-2.71v3.273h2.71v-3.273Z" fill="#CFCFCF" stroke="#263238" stroke-width=".128" stroke-linejoin="round"/><path d="M35.52 69.512h-2.711v3.273h2.71v-3.273Z" fill="#333" stroke="#263238" stroke-width=".128" stroke-linejoin="round"/><path d="M38.273 69.512h-2.71v3.273h2.71v-3.273Z" fill="#7D7D7D" stroke="#263238" stroke-width=".128" stroke-linejoin="round"/><path d="M41.023 69.512h-2.71v3.273h2.71v-3.273Z" fill="#D4D4D4" stroke="#263238" stroke-width=".128" stroke-linejoin="round"/><path d="M43.773 69.512h-2.71v3.273h2.71v-3.273Z" fill="#CFCFCF" stroke="#263238" stroke-width=".128" stroke-linejoin="round"/><path d="M46.527 69.512h-2.71v3.273h2.71v-3.273Z" fill="#E8E8E8" stroke="#263238" stroke-width=".128" stroke-linejoin="round"/><path d="M49.281 69.512h-2.71v3.273h2.71v-3.273ZM52.031 69.512h-2.71v3.273h2.71v-3.273ZM54.785 69.512h-2.71v3.273h2.71v-3.273Z" fill="#fff" stroke="#263238" stroke-width=".128" stroke-linejoin="round"/><path d="M57.539 69.512h-2.71v3.273h2.71v-3.273Z" fill="#263238"/><path d="M60.289 69.512h-2.71v3.273h2.71v-3.273Z" fill="#fff" stroke="#263238" stroke-width=".128" stroke-linejoin="round"/><path d="M33.508 66.137h-2.71v3.273h2.71v-3.273Z" fill="#E8E8E8" stroke="#263238" stroke-width=".128" stroke-linejoin="round"/><path d="M36.261 66.137h-2.71v3.273h2.71v-3.273Z" fill="#CFCFCF" stroke="#263238" stroke-width=".128" stroke-linejoin="round"/><path d="M39.015 66.137h-2.71v3.273h2.71v-3.273Z" fill="#333" stroke="#263238" stroke-width=".128" stroke-linejoin="round"/><path d="M41.765 66.137h-2.71v3.273h2.71v-3.273Z" fill="#7D7D7D" stroke="#263238" stroke-width=".128" stroke-linejoin="round"/><path d="M44.515 66.137h-2.71v3.273h2.71v-3.273Z" fill="#D4D4D4" stroke="#263238" stroke-width=".128" stroke-linejoin="round"/><path d="M47.27 66.137h-2.711v3.273h2.71v-3.273Z" fill="#CFCFCF" stroke="#263238" stroke-width=".128" stroke-linejoin="round"/><path d="M50.023 66.137h-2.71v3.273h2.71v-3.273Z" fill="#E8E8E8" stroke="#263238" stroke-width=".128" stroke-linejoin="round"/><path d="M52.777 66.137h-2.71v3.273h2.71v-3.273ZM55.527 66.137h-2.71v3.273h2.71v-3.273Z" fill="#fff" stroke="#263238" stroke-width=".128" stroke-linejoin="round"/><path d="M58.281 66.137h-2.71v3.273h2.71v-3.273Z" fill="#263238"/><path d="M61.031 66.137h-2.71v3.273h2.71v-3.273ZM63.781 66.137h-2.71v3.273h2.71v-3.273Z" fill="#fff" stroke="#263238" stroke-width=".128" stroke-linejoin="round"/><path d="M33.793 62.762h-2.71v3.273h2.71v-3.273Z" fill="#E8E8E8" stroke="#263238" stroke-width=".128" stroke-linejoin="round"/><path d="M36.543 62.762h-2.71v3.273h2.71v-3.273Z" fill="#CFCFCF" stroke="#263238" stroke-width=".128" stroke-linejoin="round"/><path d="M39.297 62.762h-2.71v3.273h2.71v-3.273Z" fill="#333" stroke="#263238" stroke-width=".128" stroke-linejoin="round"/><path d="M42.047 62.762h-2.71v3.273h2.71v-3.273Z" fill="#7D7D7D" stroke="#263238" stroke-width=".128" stroke-linejoin="round"/><path d="M44.797 62.762h-2.71v3.273h2.71v-3.273Z" fill="#D4D4D4" stroke="#263238" stroke-width=".128" stroke-linejoin="round"/><path d="M47.55 62.762h-2.71v3.273h2.71v-3.273Z" fill="#CFCFCF" stroke="#263238" stroke-width=".128" stroke-linejoin="round"/><path d="M50.3 62.762h-2.71v3.273h2.71v-3.273Z" fill="#E8E8E8" stroke="#263238" stroke-width=".128" stroke-linejoin="round"/><path d="M53.054 62.762h-2.71v3.273h2.71v-3.273ZM55.804 62.762h-2.71v3.273h2.71v-3.273Z" fill="#fff" stroke="#263238" stroke-width=".128" stroke-linejoin="round"/><path d="M58.558 62.762h-2.71v3.273h2.71v-3.273Z" fill="#263238"/><path d="M61.312 62.762h-2.71v3.273h2.71v-3.273ZM64.062 62.762h-2.71v3.273h2.71v-3.273Z" fill="#fff" stroke="#263238" stroke-width=".128" stroke-linejoin="round"/><path d="M30.996 59.387h-2.71v3.273h2.71v-3.273Z" fill="#E8E8E8" stroke="#263238" stroke-width=".128" stroke-linejoin="round"/><path d="M33.746 59.387h-2.71v3.273h2.71v-3.273Z" fill="#CFCFCF" stroke="#263238" stroke-width=".128" stroke-linejoin="round"/><path d="M36.496 59.387h-2.71v3.273h2.71v-3.273Z" fill="#333" stroke="#263238" stroke-width=".128" stroke-linejoin="round"/><path d="M39.25 59.387h-2.71v3.273h2.71v-3.273Z" fill="#7D7D7D" stroke="#263238" stroke-width=".128" stroke-linejoin="round"/><path d="M42.004 59.387h-2.71v3.273h2.71v-3.273Z" fill="#D4D4D4" stroke="#263238" stroke-width=".128" stroke-linejoin="round"/><path d="M44.754 59.386h-2.71v3.274h2.71v-3.273Z" fill="#CFCFCF" stroke="#263238" stroke-width=".128" stroke-linejoin="round"/><path d="M47.504 59.387h-2.71v3.273h2.71v-3.273Z" fill="#E8E8E8" stroke="#263238" stroke-width=".128" stroke-linejoin="round"/><path d="M50.258 59.387h-2.71v3.273h2.71v-3.273ZM53.011 59.387h-2.71v3.273h2.71v-3.273Z" fill="#fff" stroke="#263238" stroke-width=".128" stroke-linejoin="round"/><path d="M55.765 59.387h-2.71v3.273h2.71v-3.273Z" fill="#263238"/><path d="M58.515 59.387h-2.71v3.273h2.71v-3.273ZM61.265 59.387h-2.71v3.273h2.71v-3.273Z" fill="#fff" stroke="#263238" stroke-width=".128" stroke-linejoin="round"/><path d="M34.07 56.012h-2.71v3.273h2.71v-3.273Z" fill="#E8E8E8" stroke="#263238" stroke-width=".128" stroke-linejoin="round"/><path d="M36.82 56.012h-2.71v3.273h2.71v-3.273Z" fill="#CFCFCF" stroke="#263238" stroke-width=".128" stroke-linejoin="round"/><path d="M39.574 56.012h-2.71v3.273h2.71v-3.273Z" fill="#333" stroke="#263238" stroke-width=".128" stroke-linejoin="round"/><path d="M42.328 56.012h-2.71v3.273h2.71v-3.273Z" fill="#7D7D7D" stroke="#263238" stroke-width=".128" stroke-linejoin="round"/><path d="M45.078 56.012h-2.71v3.273h2.71v-3.273Z" fill="#D4D4D4" stroke="#263238" stroke-width=".128" stroke-linejoin="round"/><path d="M47.832 56.012h-2.71v3.273h2.71v-3.273Z" fill="#CFCFCF" stroke="#263238" stroke-width=".128" stroke-linejoin="round"/><path d="M50.582 56.012h-2.71v3.273h2.71v-3.273Z" fill="#E8E8E8" stroke="#263238" stroke-width=".128" stroke-linejoin="round"/><path d="M53.336 56.012h-2.71v3.273h2.71v-3.273ZM56.086 56.012h-2.71v3.273h2.71v-3.273Z" fill="#fff" stroke="#263238" stroke-width=".128" stroke-linejoin="round"/><path d="M58.836 56.012h-2.71v3.274h2.71v-3.274Z" fill="#263238"/><path d="M61.59 56.012h-2.71v3.273h2.71v-3.273ZM64.34 56.012h-2.71v3.273h2.71v-3.273Z" fill="#fff" stroke="#263238" stroke-width=".128" stroke-linejoin="round"/><path d="M33.418 52.64h-2.71v3.274h2.71v-3.273Z" fill="#E8E8E8" stroke="#263238" stroke-width=".128" stroke-linejoin="round"/><path d="M36.172 52.64h-2.71v3.274h2.71v-3.273Z" fill="#CFCFCF" stroke="#263238" stroke-width=".128" stroke-linejoin="round"/><path d="M38.925 52.64h-2.71v3.274h2.71v-3.273Z" fill="#333" stroke="#263238" stroke-width=".128" stroke-linejoin="round"/><path d="M41.675 52.64h-2.71v3.274h2.71v-3.273Z" fill="#7D7D7D" stroke="#263238" stroke-width=".128" stroke-linejoin="round"/><path d="M44.425 52.64h-2.71v3.274h2.71v-3.273Z" fill="#D4D4D4" stroke="#263238" stroke-width=".128" stroke-linejoin="round"/><path d="M47.175 52.64h-2.71v3.274h2.71v-3.273Z" fill="#CFCFCF" stroke="#263238" stroke-width=".128" stroke-linejoin="round"/><path d="M49.93 52.64h-2.711v3.274h2.71v-3.273Z" fill="#E8E8E8" stroke="#263238" stroke-width=".128" stroke-linejoin="round"/><path d="M52.683 52.64h-2.71v3.274h2.71v-3.273ZM55.433 52.64h-2.71v3.274h2.71v-3.273Z" fill="#fff" stroke="#263238" stroke-width=".128" stroke-linejoin="round"/><path d="M58.187 52.64h-2.71v3.274h2.71v-3.273Z" fill="#263238"/><path d="M60.937 52.64h-2.71v3.274h2.71v-3.273ZM63.691 52.64h-2.71v3.274h2.71v-3.273Z" fill="#fff" stroke="#263238" stroke-width=".128" stroke-linejoin="round"/><path d="M33.23 49.266h-2.71v3.273h2.71v-3.273Z" fill="#E8E8E8" stroke="#263238" stroke-width=".128" stroke-linejoin="round"/><path d="M35.98 49.266h-2.71v3.273h2.71v-3.273Z" fill="#CFCFCF" stroke="#263238" stroke-width=".128" stroke-linejoin="round"/><path d="M38.734 49.266h-2.71v3.273h2.71v-3.273Z" fill="#333" stroke="#263238" stroke-width=".128" stroke-linejoin="round"/><path d="M41.488 49.266h-2.71v3.273h2.71v-3.273Z" fill="#7D7D7D" stroke="#263238" stroke-width=".128" stroke-linejoin="round"/><path d="M44.238 49.266h-2.71v3.273h2.71v-3.273Z" fill="#D4D4D4" stroke="#263238" stroke-width=".128" stroke-linejoin="round"/><path d="M46.992 49.266h-2.71v3.273h2.71v-3.273Z" fill="#CFCFCF" stroke="#263238" stroke-width=".128" stroke-linejoin="round"/><path d="M49.746 49.266h-2.71v3.273h2.71v-3.273Z" fill="#E8E8E8" stroke="#263238" stroke-width=".128" stroke-linejoin="round"/><path d="M52.496 49.266h-2.71v3.273h2.71v-3.273ZM55.246 49.266h-2.71v3.273h2.71v-3.273Z" fill="#fff" stroke="#263238" stroke-width=".128" stroke-linejoin="round"/><path d="M57.996 49.266h-2.71v3.273h2.71v-3.273Z" fill="#263238"/><path d="M60.75 49.266h-2.71v3.273h2.71v-3.273ZM63.504 49.266h-2.71v3.273h2.71v-3.273Z" fill="#fff" stroke="#263238" stroke-width=".128" stroke-linejoin="round"/><path d="M33.617 45.895h-2.71v3.273h2.71v-3.273Z" fill="#E8E8E8" stroke="#263238" stroke-width=".128" stroke-linejoin="round"/><path d="M36.37 45.895h-2.71v3.273h2.71v-3.273Z" fill="#CFCFCF" stroke="#263238" stroke-width=".128" stroke-linejoin="round"/><path d="M39.125 45.895h-2.71v3.273h2.71v-3.273Z" fill="#333" stroke="#263238" stroke-width=".128" stroke-linejoin="round"/><path d="M41.875 45.895h-2.71v3.273h2.71v-3.273Z" fill="#7D7D7D" stroke="#263238" stroke-width=".128" stroke-linejoin="round"/><path d="M44.629 45.895h-2.71v3.273h2.71v-3.273Z" fill="#D4D4D4" stroke="#263238" stroke-width=".128" stroke-linejoin="round"/><path d="M47.379 45.895h-2.71v3.273h2.71v-3.273Z" fill="#CFCFCF" stroke="#263238" stroke-width=".128" stroke-linejoin="round"/><path d="M50.129 45.895h-2.71v3.273h2.71v-3.273Z" fill="#E8E8E8" stroke="#263238" stroke-width=".128" stroke-linejoin="round"/><path d="M52.883 45.895h-2.71v3.273h2.71v-3.273ZM55.633 45.895h-2.71v3.273h2.71v-3.273Z" fill="#fff" stroke="#263238" stroke-width=".128" stroke-linejoin="round"/><path d="M58.383 45.895h-2.71v3.273h2.71v-3.273Z" fill="#263238"/><path d="M61.136 45.895h-2.71v3.273h2.71v-3.273ZM63.89 45.895h-2.71v3.273h2.71v-3.273Z" fill="#fff" stroke="#263238" stroke-width=".128" stroke-linejoin="round"/><path d="M33.23 42.52h-2.71v3.273h2.71V42.52Z" fill="#E8E8E8" stroke="#263238" stroke-width=".128" stroke-linejoin="round"/><path d="M35.98 42.52h-2.71v3.273h2.71V42.52Z" fill="#CFCFCF" stroke="#263238" stroke-width=".128" stroke-linejoin="round"/><path d="M38.734 42.52h-2.71v3.273h2.71V42.52Z" fill="#333" stroke="#263238" stroke-width=".128" stroke-linejoin="round"/><path d="M41.488 42.52h-2.71v3.273h2.71V42.52Z" fill="#7D7D7D" stroke="#263238" stroke-width=".128" stroke-linejoin="round"/><path d="M44.238 42.52h-2.71v3.273h2.71V42.52Z" fill="#D4D4D4" stroke="#263238" stroke-width=".128" stroke-linejoin="round"/><path d="M46.992 42.52h-2.71v3.273h2.71V42.52Z" fill="#CFCFCF" stroke="#263238" stroke-width=".128" stroke-linejoin="round"/><path d="M49.746 42.52h-2.71v3.273h2.71V42.52Z" fill="#E8E8E8" stroke="#263238" stroke-width=".128" stroke-linejoin="round"/><path d="M52.496 42.52h-2.71v3.273h2.71V42.52ZM55.246 42.52h-2.71v3.273h2.71V42.52Z" fill="#fff" stroke="#263238" stroke-width=".128" stroke-linejoin="round"/><path d="M57.996 42.52h-2.71v3.273h2.71V42.52Z" fill="#263238"/><path d="M60.75 42.52h-2.71v3.273h2.71V42.52ZM63.504 42.52h-2.71v3.273h2.71V42.52Z" fill="#fff" stroke="#263238" stroke-width=".128" stroke-linejoin="round"/><path d="M33.691 39.14h-2.71v3.274h2.71v-3.273Z" fill="#E8E8E8" stroke="#263238" stroke-width=".128" stroke-linejoin="round"/><path d="M36.445 39.14h-2.71v3.274h2.71v-3.273Z" fill="#CFCFCF" stroke="#263238" stroke-width=".128" stroke-linejoin="round"/><path d="M39.195 39.14h-2.71v3.274h2.71v-3.273Z" fill="#333" stroke="#263238" stroke-width=".128" stroke-linejoin="round"/><path d="M41.945 39.14h-2.71v3.274h2.71v-3.273Z" fill="#7D7D7D" stroke="#263238" stroke-width=".128" stroke-linejoin="round"/><path d="M44.699 39.14h-2.71v3.274h2.71v-3.273Z" fill="#D4D4D4" stroke="#263238" stroke-width=".128" stroke-linejoin="round"/><path d="M47.449 39.14h-2.71v3.274h2.71v-3.273Z" fill="#CFCFCF" stroke="#263238" stroke-width=".128" stroke-linejoin="round"/><path d="M50.203 39.14h-2.71v3.274h2.71v-3.273Z" fill="#E8E8E8" stroke="#263238" stroke-width=".128" stroke-linejoin="round"/><path d="M52.953 39.14h-2.71v3.274h2.71v-3.273ZM55.707 39.14h-2.71v3.274h2.71v-3.273Z" fill="#fff" stroke="#263238" stroke-width=".128" stroke-linejoin="round"/><path d="M58.46 39.14h-2.71v3.274h2.71v-3.273Z" fill="#263238"/><path d="M61.21 39.14H58.5v3.274h2.71v-3.273ZM63.965 39.14h-2.71v3.274h2.71v-3.273Z" fill="#fff" stroke="#263238" stroke-width=".128" stroke-linejoin="round"/><path d="M32.113 35.77h-2.71v3.273h2.71V35.77Z" fill="#E8E8E8" stroke="#263238" stroke-width=".128" stroke-linejoin="round"/><path d="M34.867 35.77h-2.71v3.273h2.71V35.77Z" fill="#CFCFCF" stroke="#263238" stroke-width=".128" stroke-linejoin="round"/><path d="M37.617 35.77h-2.71v3.273h2.71V35.77Z" fill="#333" stroke="#263238" stroke-width=".128" stroke-linejoin="round"/><path d="M40.37 35.77h-2.71v3.273h2.71V35.77Z" fill="#7D7D7D" stroke="#263238" stroke-width=".128" stroke-linejoin="round"/><path d="M43.12 35.77h-2.71v3.273h2.71V35.77Z" fill="#D4D4D4" stroke="#263238" stroke-width=".128" stroke-linejoin="round"/><path d="M45.87 35.77h-2.71v3.273h2.71V35.77Z" fill="#CFCFCF" stroke="#263238" stroke-width=".128" stroke-linejoin="round"/><path d="M48.625 35.77h-2.71v3.273h2.71V35.77Z" fill="#E8E8E8" stroke="#263238" stroke-width=".128" stroke-linejoin="round"/><path d="M51.375 35.77h-2.71v3.273h2.71V35.77ZM54.129 35.77h-2.71v3.273h2.71V35.77Z" fill="#fff" stroke="#263238" stroke-width=".128" stroke-linejoin="round"/><path d="M56.879 35.77h-2.71v3.273h2.71V35.77Z" fill="#263238"/><path d="M59.633 35.77h-2.71v3.273h2.71V35.77ZM62.386 35.77h-2.71v3.273h2.71V35.77Z" fill="#fff" stroke="#263238" stroke-width=".128" stroke-linejoin="round"/><path d="M33.418 32.332h-2.71v3.274h2.71v-3.274Z" fill="#E8E8E8" stroke="#263238" stroke-width=".128" stroke-linejoin="round"/><path d="M36.172 32.332h-2.71v3.274h2.71v-3.274Z" fill="#CFCFCF" stroke="#263238" stroke-width=".128" stroke-linejoin="round"/><path d="M38.925 32.332h-2.71v3.274h2.71v-3.274Z" fill="#333" stroke="#263238" stroke-width=".128" stroke-linejoin="round"/><path d="M41.675 32.332h-2.71v3.274h2.71v-3.274Z" fill="#7D7D7D" stroke="#263238" stroke-width=".128" stroke-linejoin="round"/><path d="M44.425 32.332h-2.71v3.274h2.71v-3.274Z" fill="#D4D4D4" stroke="#263238" stroke-width=".128" stroke-linejoin="round"/><path d="M47.175 32.332h-2.71v3.274h2.71v-3.274Z" fill="#CFCFCF" stroke="#263238" stroke-width=".128" stroke-linejoin="round"/><path d="M49.93 32.332h-2.711v3.274h2.71v-3.274Z" fill="#E8E8E8" stroke="#263238" stroke-width=".128" stroke-linejoin="round"/><path d="M52.683 32.332h-2.71v3.274h2.71v-3.274ZM55.433 32.332h-2.71v3.274h2.71v-3.274Z" fill="#fff" stroke="#263238" stroke-width=".128" stroke-linejoin="round"/><path d="M58.187 32.332h-2.71v3.274h2.71v-3.274Z" fill="#263238"/><path d="M60.937 32.332h-2.71v3.274h2.71v-3.274ZM63.691 32.332h-2.71v3.274h2.71v-3.274Z" fill="#fff" stroke="#263238" stroke-width=".128" stroke-linejoin="round"/><path d="M33.23 28.96h-2.71v3.275h2.71V28.96Z" fill="#E8E8E8" stroke="#263238" stroke-width=".128" stroke-linejoin="round"/><path d="M35.98 28.96h-2.71v3.275h2.71V28.96Z" fill="#CFCFCF" stroke="#263238" stroke-width=".128" stroke-linejoin="round"/><path d="M38.734 28.96h-2.71v3.275h2.71V28.96Z" fill="#333" stroke="#263238" stroke-width=".128" stroke-linejoin="round"/><path d="M41.488 28.96h-2.71v3.275h2.71V28.96Z" fill="#7D7D7D" stroke="#263238" stroke-width=".128" stroke-linejoin="round"/><path d="M44.238 28.96h-2.71v3.275h2.71V28.96Z" fill="#D4D4D4" stroke="#263238" stroke-width=".128" stroke-linejoin="round"/><path d="M46.992 28.96h-2.71v3.275h2.71V28.96Z" fill="#CFCFCF" stroke="#263238" stroke-width=".128" stroke-linejoin="round"/><path d="M49.746 28.96h-2.71v3.275h2.71V28.96Z" fill="#E8E8E8" stroke="#263238" stroke-width=".128" stroke-linejoin="round"/><path d="M52.496 28.96h-2.71v3.275h2.71V28.96ZM55.246 28.96h-2.71v3.275h2.71V28.96Z" fill="#fff" stroke="#263238" stroke-width=".128" stroke-linejoin="round"/><path d="M57.996 28.96h-2.71v3.275h2.71V28.96Z" fill="#263238"/><path d="M60.75 28.96h-2.71v3.275h2.71V28.96ZM63.504 28.96h-2.71v3.275h2.71V28.96Z" fill="#fff" stroke="#263238" stroke-width=".128" stroke-linejoin="round"/><path d="M33.617 25.586h-2.71v3.274h2.71v-3.274Z" fill="#E8E8E8" stroke="#263238" stroke-width=".128" stroke-linejoin="round"/><path d="M36.37 25.586h-2.71v3.274h2.71v-3.274Z" fill="#CFCFCF" stroke="#263238" stroke-width=".128" stroke-linejoin="round"/><path d="M39.125 25.586h-2.71v3.274h2.71v-3.274Z" fill="#333" stroke="#263238" stroke-width=".128" stroke-linejoin="round"/><path d="M41.875 25.586h-2.71v3.274h2.71v-3.274Z" fill="#7D7D7D" stroke="#263238" stroke-width=".128" stroke-linejoin="round"/><path d="M44.629 25.586h-2.71v3.274h2.71v-3.274Z" fill="#D4D4D4" stroke="#263238" stroke-width=".128" stroke-linejoin="round"/><path d="M47.379 25.586h-2.71v3.274h2.71v-3.274Z" fill="#CFCFCF" stroke="#263238" stroke-width=".128" stroke-linejoin="round"/><path d="M50.129 25.586h-2.71v3.274h2.71v-3.274Z" fill="#E8E8E8" stroke="#263238" stroke-width=".128" stroke-linejoin="round"/><path d="M52.883 25.586h-2.71v3.274h2.71v-3.274ZM55.633 25.586h-2.71v3.274h2.71v-3.274Z" fill="#fff" stroke="#263238" stroke-width=".128" stroke-linejoin="round"/><path d="M58.383 25.586h-2.71v3.274h2.71v-3.274Z" fill="#263238"/><path d="M61.136 25.586h-2.71v3.274h2.71v-3.274ZM63.89 25.586h-2.71v3.274h2.71v-3.274Z" fill="#fff" stroke="#263238" stroke-width=".128" stroke-linejoin="round"/><path d="M33.23 22.207h-2.71v3.274h2.71v-3.274Z" fill="#E8E8E8" stroke="#263238" stroke-width=".128" stroke-linejoin="round"/><path d="M35.98 22.207h-2.71v3.274h2.71v-3.274Z" fill="#CFCFCF" stroke="#263238" stroke-width=".128" stroke-linejoin="round"/><path d="M38.734 22.207h-2.71v3.274h2.71v-3.274Z" fill="#333" stroke="#263238" stroke-width=".128" stroke-linejoin="round"/><path d="M41.488 22.207h-2.71v3.274h2.71v-3.274Z" fill="#7D7D7D" stroke="#263238" stroke-width=".128" stroke-linejoin="round"/><path d="M44.238 22.207h-2.71v3.274h2.71v-3.274Z" fill="#D4D4D4" stroke="#263238" stroke-width=".128" stroke-linejoin="round"/><path d="M46.992 22.207h-2.71v3.274h2.71v-3.274Z" fill="#CFCFCF" stroke="#263238" stroke-width=".128" stroke-linejoin="round"/><path d="M49.746 22.207h-2.71v3.274h2.71v-3.274Z" fill="#E8E8E8" stroke="#263238" stroke-width=".128" stroke-linejoin="round"/><path d="M52.496 22.207h-2.71v3.274h2.71v-3.274ZM55.246 22.207h-2.71v3.274h2.71v-3.274Z" fill="#fff" stroke="#263238" stroke-width=".128" stroke-linejoin="round"/><path d="M57.996 22.207h-2.71v3.274h2.71v-3.274Z" fill="#263238"/><path d="M60.75 22.207h-2.71v3.274h2.71v-3.274ZM63.504 22.207h-2.71v3.274h2.71v-3.274Z" fill="#fff" stroke="#263238" stroke-width=".128" stroke-linejoin="round"/><path d="M33.691 18.836h-2.71v3.274h2.71v-3.274Z" fill="#E8E8E8" stroke="#263238" stroke-width=".128" stroke-linejoin="round"/><path d="M36.445 18.836h-2.71v3.274h2.71v-3.274Z" fill="#CFCFCF" stroke="#263238" stroke-width=".128" stroke-linejoin="round"/><path d="M39.195 18.836h-2.71v3.274h2.71v-3.274Z" fill="#333" stroke="#263238" stroke-width=".128" stroke-linejoin="round"/><path d="M41.945 18.836h-2.71v3.274h2.71v-3.274Z" fill="#7D7D7D" stroke="#263238" stroke-width=".128" stroke-linejoin="round"/><path d="M44.699 18.836h-2.71v3.274h2.71v-3.274Z" fill="#D4D4D4" stroke="#263238" stroke-width=".128" stroke-linejoin="round"/><path d="M47.449 18.836h-2.71v3.274h2.71v-3.274Z" fill="#CFCFCF" stroke="#263238" stroke-width=".128" stroke-linejoin="round"/><path d="M50.203 18.836h-2.71v3.274h2.71v-3.274Z" fill="#E8E8E8" stroke="#263238" stroke-width=".128" stroke-linejoin="round"/><path d="M52.953 18.836h-2.71v3.274h2.71v-3.274ZM55.707 18.836h-2.71v3.274h2.71v-3.274Z" fill="#fff" stroke="#263238" stroke-width=".128" stroke-linejoin="round"/><path d="M58.46 18.836h-2.71v3.274h2.71v-3.274Z" fill="#263238"/><path d="M61.21 18.836H58.5v3.274h2.71v-3.274ZM63.965 18.836h-2.71v3.274h2.71v-3.274Z" fill="#fff" stroke="#263238" stroke-width=".128" stroke-linejoin="round"/><path d="M32.113 15.46h-2.71v3.275h2.71V15.46Z" fill="#E8E8E8" stroke="#263238" stroke-width=".128" stroke-linejoin="round"/><path d="M34.867 15.46h-2.71v3.275h2.71V15.46Z" fill="#CFCFCF" stroke="#263238" stroke-width=".128" stroke-linejoin="round"/><path d="M37.617 15.46h-2.71v3.275h2.71V15.46Z" fill="#333" stroke="#263238" stroke-width=".128" stroke-linejoin="round"/><path d="M40.37 15.46h-2.71v3.275h2.71V15.46Z" fill="#7D7D7D" stroke="#263238" stroke-width=".128" stroke-linejoin="round"/><path d="M43.12 15.46h-2.71v3.275h2.71V15.46Z" fill="#D4D4D4" stroke="#263238" stroke-width=".128" stroke-linejoin="round"/><path d="M45.87 15.46h-2.71v3.275h2.71V15.46Z" fill="#CFCFCF" stroke="#263238" stroke-width=".128" stroke-linejoin="round"/><path d="M48.625 15.46h-2.71v3.275h2.71V15.46Z" fill="#E8E8E8" stroke="#263238" stroke-width=".128" stroke-linejoin="round"/><path d="M51.375 15.46h-2.71v3.275h2.71V15.46ZM54.129 15.46h-2.71v3.275h2.71V15.46Z" fill="#fff" stroke="#263238" stroke-width=".128" stroke-linejoin="round"/><path d="M56.879 15.46h-2.71v3.275h2.71V15.46Z" fill="#263238"/><path d="M59.633 15.46h-2.71v3.275h2.71V15.46ZM62.386 15.46h-2.71v3.275h2.71V15.46Z" fill="#fff" stroke="#263238" stroke-width=".128" stroke-linejoin="round"/><path d="M54.316 93.125h-2.71v3.274h2.71v-3.274Z" fill="#E8E8E8" stroke="#263238" stroke-width=".128" stroke-linejoin="round"/><path d="M57.07 93.125h-2.71v3.274h2.71v-3.274Z" fill="#CFCFCF" stroke="#263238" stroke-width=".128" stroke-linejoin="round"/><path d="M59.82 93.125h-2.71v3.274h2.71v-3.274Z" fill="#333" stroke="#263238" stroke-width=".128" stroke-linejoin="round"/><path d="M62.57 93.125h-2.71v3.274h2.71v-3.274Z" fill="#7D7D7D" stroke="#263238" stroke-width=".128" stroke-linejoin="round"/><path d="M65.324 93.125h-2.71v3.274h2.71v-3.274Z" fill="#D4D4D4" stroke="#263238" stroke-width=".128" stroke-linejoin="round"/><path d="M68.078 93.125h-2.71v3.274h2.71v-3.274Z" fill="#CFCFCF" stroke="#263238" stroke-width=".128" stroke-linejoin="round"/><path d="M70.828 93.125h-2.71v3.274h2.71v-3.274Z" fill="#E8E8E8" stroke="#263238" stroke-width=".128" stroke-linejoin="round"/><path d="M73.582 93.125h-2.71v3.274h2.71v-3.274ZM76.332 93.125h-2.71v3.274h2.71v-3.274Z" fill="#fff" stroke="#263238" stroke-width=".128" stroke-linejoin="round"/><path d="M79.085 93.125h-2.71v3.274h2.71v-3.274Z" fill="#263238"/><path d="M81.835 93.125h-2.71v3.274h2.71v-3.274ZM84.585 93.125h-2.71v3.274h2.71v-3.274Z" fill="#fff" stroke="#263238" stroke-width=".128" stroke-linejoin="round"/><path d="M56.273 89.754h-2.71v3.274h2.71v-3.274Z" fill="#E8E8E8" stroke="#263238" stroke-width=".128" stroke-linejoin="round"/><path d="M59.027 89.754h-2.71v3.274h2.71v-3.274Z" fill="#CFCFCF" stroke="#263238" stroke-width=".128" stroke-linejoin="round"/><path d="M61.777 89.754h-2.71v3.274h2.71v-3.274Z" fill="#333" stroke="#263238" stroke-width=".128" stroke-linejoin="round"/><path d="M64.531 89.754h-2.71v3.274h2.71v-3.274Z" fill="#7D7D7D" stroke="#263238" stroke-width=".128" stroke-linejoin="round"/><path d="M67.285 89.754h-2.71v3.274h2.71v-3.274Z" fill="#D4D4D4" stroke="#263238" stroke-width=".128" stroke-linejoin="round"/><path d="M70.03 89.754h-2.71v3.274h2.71v-3.274Z" fill="#CFCFCF" stroke="#263238" stroke-width=".128" stroke-linejoin="round"/><path d="M72.785 89.754h-2.71v3.274h2.71v-3.274Z" fill="#E8E8E8" stroke="#263238" stroke-width=".128" stroke-linejoin="round"/><path d="M75.535 89.754h-2.71v3.274h2.71v-3.274ZM78.288 89.754h-2.71v3.274h2.71v-3.274Z" fill="#fff" stroke="#263238" stroke-width=".128" stroke-linejoin="round"/><path d="M81.038 89.754h-2.71v3.274h2.71v-3.274Z" fill="#263238"/><path d="M83.792 89.754h-2.71v3.274h2.71v-3.274ZM86.546 89.754h-2.71v3.274h2.71v-3.274Z" fill="#fff" stroke="#263238" stroke-width=".128" stroke-linejoin="round"/><path d="M56.133 86.379h-2.71v3.274h2.71v-3.274Z" fill="#E8E8E8" stroke="#263238" stroke-width=".128" stroke-linejoin="round"/><path d="M58.886 86.379h-2.71v3.274h2.71v-3.274Z" fill="#CFCFCF" stroke="#263238" stroke-width=".128" stroke-linejoin="round"/><path d="M61.64 86.379h-2.71v3.274h2.71v-3.274Z" fill="#333" stroke="#263238" stroke-width=".128" stroke-linejoin="round"/><path d="M64.386 86.379h-2.71v3.274h2.71v-3.274Z" fill="#7D7D7D" stroke="#263238" stroke-width=".128" stroke-linejoin="round"/><path d="M67.14 86.379h-2.71v3.274h2.71v-3.274Z" fill="#D4D4D4" stroke="#263238" stroke-width=".128" stroke-linejoin="round"/><path d="M69.894 86.379h-2.71v3.274h2.71v-3.274Z" fill="#CFCFCF" stroke="#263238" stroke-width=".128" stroke-linejoin="round"/><path d="M72.644 86.379h-2.71v3.274h2.71v-3.274Z" fill="#E8E8E8" stroke="#263238" stroke-width=".128" stroke-linejoin="round"/><path d="M75.394 86.379h-2.71v3.274h2.71v-3.274ZM78.148 86.379h-2.71v3.274h2.71v-3.274Z" fill="#fff" stroke="#263238" stroke-width=".128" stroke-linejoin="round"/><path d="M80.902 86.379h-2.71v3.274h2.71v-3.274Z" fill="#263238"/><path d="M83.656 86.379h-2.71v3.274h2.71v-3.274ZM86.402 86.379h-2.71v3.274h2.71v-3.274Z" fill="#fff" stroke="#263238" stroke-width=".128" stroke-linejoin="round"/><path d="M55.996 83.008h-2.71v3.274h2.71v-3.274Z" fill="#E8E8E8" stroke="#263238" stroke-width=".128" stroke-linejoin="round"/><path d="M58.746 83.008h-2.71v3.274h2.71v-3.274Z" fill="#CFCFCF" stroke="#263238" stroke-width=".128" stroke-linejoin="round"/><path d="M61.496 83.008h-2.71v3.274h2.71v-3.274Z" fill="#333" stroke="#263238" stroke-width=".128" stroke-linejoin="round"/><path d="M64.25 83.008h-2.71v3.274h2.71v-3.274Z" fill="#7D7D7D" stroke="#263238" stroke-width=".128" stroke-linejoin="round"/><path d="M67 83.008h-2.71v3.274H67v-3.274Z" fill="#D4D4D4" stroke="#263238" stroke-width=".128" stroke-linejoin="round"/><path d="M69.753 83.008h-2.71v3.274h2.71v-3.274Z" fill="#CFCFCF" stroke="#263238" stroke-width=".128" stroke-linejoin="round"/><path d="M72.503 83.008h-2.71v3.274h2.71v-3.274Z" fill="#E8E8E8" stroke="#263238" stroke-width=".128" stroke-linejoin="round"/><path d="M75.257 83.008h-2.71v3.274h2.71v-3.274ZM78.011 83.008h-2.71v3.274h2.71v-3.274Z" fill="#fff" stroke="#263238" stroke-width=".128" stroke-linejoin="round"/><path d="M80.761 83.008h-2.71v3.274h2.71v-3.274Z" fill="#263238"/><path d="M83.511 83.008h-2.71v3.274h2.71v-3.274ZM86.265 83.008h-2.71v3.274h2.71v-3.274Z" fill="#fff" stroke="#263238" stroke-width=".128" stroke-linejoin="round"/><path d="M53.617 79.633h-2.71v3.274h2.71v-3.274Z" fill="#E8E8E8" stroke="#263238" stroke-width=".128" stroke-linejoin="round"/><path d="M56.37 79.633h-2.71v3.274h2.71v-3.274Z" fill="#CFCFCF" stroke="#263238" stroke-width=".128" stroke-linejoin="round"/><path d="M59.12 79.633h-2.71v3.274h2.71v-3.274Z" fill="#333" stroke="#263238" stroke-width=".128" stroke-linejoin="round"/><path d="M61.875 79.633h-2.71v3.274h2.71v-3.274Z" fill="#7D7D7D" stroke="#263238" stroke-width=".128" stroke-linejoin="round"/><path d="M64.629 79.633h-2.71v3.274h2.71v-3.274Z" fill="#D4D4D4" stroke="#263238" stroke-width=".128" stroke-linejoin="round"/><path d="M67.375 79.633h-2.71v3.274h2.71v-3.274Z" fill="#CFCFCF" stroke="#263238" stroke-width=".128" stroke-linejoin="round"/><path d="M70.128 79.633h-2.71v3.274h2.71v-3.274Z" fill="#E8E8E8" stroke="#263238" stroke-width=".128" stroke-linejoin="round"/><path d="M72.878 79.633h-2.71v3.274h2.71v-3.274ZM75.632 79.633h-2.71v3.274h2.71v-3.274Z" fill="#fff" stroke="#263238" stroke-width=".128" stroke-linejoin="round"/><path d="M78.382 79.633h-2.71v3.274h2.71v-3.274Z" fill="#263238"/><path d="M81.136 79.633h-2.71v3.274h2.71v-3.274ZM83.89 79.633h-2.71v3.274h2.71v-3.274Z" fill="#fff" stroke="#263238" stroke-width=".128" stroke-linejoin="round"/><path d="M53.894 76.258h-2.71v3.274h2.71v-3.274Z" fill="#E8E8E8" stroke="#263238" stroke-width=".128" stroke-linejoin="round"/><path d="M56.648 76.258h-2.71v3.274h2.71v-3.274Z" fill="#CFCFCF" stroke="#263238" stroke-width=".128" stroke-linejoin="round"/><path d="M59.398 76.258h-2.71v3.274h2.71v-3.274Z" fill="#333" stroke="#263238" stroke-width=".128" stroke-linejoin="round"/><path d="M62.152 76.258h-2.71v3.274h2.71v-3.274Z" fill="#7D7D7D" stroke="#263238" stroke-width=".128" stroke-linejoin="round"/><path d="M64.906 76.258h-2.71v3.274h2.71v-3.274Z" fill="#D4D4D4" stroke="#263238" stroke-width=".128" stroke-linejoin="round"/><path d="M67.656 76.258h-2.71v3.274h2.71v-3.274Z" fill="#CFCFCF" stroke="#263238" stroke-width=".128" stroke-linejoin="round"/><path d="M70.41 76.258H67.7v3.274h2.71v-3.274Z" fill="#E8E8E8" stroke="#263238" stroke-width=".128" stroke-linejoin="round"/><path d="M73.163 76.258h-2.71v3.274h2.71v-3.274ZM75.913 76.258h-2.71v3.274h2.71v-3.274Z" fill="#fff" stroke="#263238" stroke-width=".128" stroke-linejoin="round"/><path d="M78.663 76.258h-2.71v3.274h2.71v-3.274Z" fill="#263238"/><path d="M81.413 76.258h-2.71v3.274h2.71v-3.274ZM84.167 76.258h-2.71v3.274h2.71v-3.274Z" fill="#fff" stroke="#263238" stroke-width=".128" stroke-linejoin="round"/><path d="M57.113 72.883h-2.71v3.274h2.71v-3.274Z" fill="#E8E8E8" stroke="#263238" stroke-width=".128" stroke-linejoin="round"/><path d="M59.863 72.883h-2.71v3.274h2.71v-3.274Z" fill="#CFCFCF" stroke="#263238" stroke-width=".128" stroke-linejoin="round"/><path d="M62.617 72.883h-2.71v3.274h2.71v-3.274Z" fill="#333" stroke="#263238" stroke-width=".128" stroke-linejoin="round"/><path d="M65.37 72.883h-2.71v3.274h2.71v-3.274Z" fill="#7D7D7D" stroke="#263238" stroke-width=".128" stroke-linejoin="round"/><path d="M68.12 72.883h-2.71v3.274h2.71v-3.274Z" fill="#D4D4D4" stroke="#263238" stroke-width=".128" stroke-linejoin="round"/><path d="M70.87 72.883h-2.71v3.274h2.71v-3.274Z" fill="#CFCFCF" stroke="#263238" stroke-width=".128" stroke-linejoin="round"/><path d="M73.624 72.883h-2.71v3.274h2.71v-3.274Z" fill="#E8E8E8" stroke="#263238" stroke-width=".128" stroke-linejoin="round"/><path d="M76.374 72.883h-2.71v3.274h2.71v-3.274ZM79.128 72.883h-2.71v3.274h2.71v-3.274Z" fill="#fff" stroke="#263238" stroke-width=".128" stroke-linejoin="round"/><path d="M81.878 72.883h-2.71v3.274h2.71v-3.274Z" fill="#263238"/><path d="M84.632 72.883h-2.71v3.274h2.71v-3.274ZM87.386 72.883h-2.71v3.274h2.71v-3.274Z" fill="#fff" stroke="#263238" stroke-width=".128" stroke-linejoin="round"/><path d="M53.34 69.512h-2.71v3.273h2.71v-3.273Z" fill="#E8E8E8" stroke="#263238" stroke-width=".128" stroke-linejoin="round"/><path d="M56.09 69.512h-2.71v3.273h2.71v-3.273Z" fill="#CFCFCF" stroke="#263238" stroke-width=".128" stroke-linejoin="round"/><path d="M58.84 69.512h-2.71v3.273h2.71v-3.273Z" fill="#333" stroke="#263238" stroke-width=".128" stroke-linejoin="round"/><path d="M61.593 69.512h-2.71v3.273h2.71v-3.273Z" fill="#7D7D7D" stroke="#263238" stroke-width=".128" stroke-linejoin="round"/><path d="M64.344 69.512h-2.71v3.273h2.71v-3.273Z" fill="#D4D4D4" stroke="#263238" stroke-width=".128" stroke-linejoin="round"/><path d="M67.097 69.512h-2.71v3.273h2.71v-3.273Z" fill="#CFCFCF" stroke="#263238" stroke-width=".128" stroke-linejoin="round"/><path d="M69.847 69.512h-2.71v3.273h2.71v-3.273Z" fill="#E8E8E8" stroke="#263238" stroke-width=".128" stroke-linejoin="round"/><path d="M72.601 69.512h-2.71v3.273h2.71v-3.273ZM75.355 69.512h-2.71v3.273h2.71v-3.273ZM78.105 69.512h-2.71v3.273h2.71v-3.273Z" fill="#fff" stroke="#263238" stroke-width=".128" stroke-linejoin="round"/><path d="M80.859 69.512h-2.71v3.273h2.71v-3.273Z" fill="#263238"/><path d="M83.609 69.512h-2.71v3.273h2.71v-3.273Z" fill="#fff" stroke="#263238" stroke-width=".128" stroke-linejoin="round"/><path d="M56.836 66.137h-2.71v3.273h2.71v-3.273Z" fill="#E8E8E8" stroke="#263238" stroke-width=".128" stroke-linejoin="round"/><path d="M59.582 66.137h-2.71v3.273h2.71v-3.273Z" fill="#CFCFCF" stroke="#263238" stroke-width=".128" stroke-linejoin="round"/><path d="M62.336 66.137h-2.71v3.273h2.71v-3.273Z" fill="#333" stroke="#263238" stroke-width=".128" stroke-linejoin="round"/><path d="M65.09 66.137h-2.71v3.273h2.71v-3.273Z" fill="#7D7D7D" stroke="#263238" stroke-width=".128" stroke-linejoin="round"/><path d="M67.84 66.137h-2.71v3.273h2.71v-3.273Z" fill="#D4D4D4" stroke="#263238" stroke-width=".128" stroke-linejoin="round"/><path d="M70.59 66.137h-2.711v3.273h2.71v-3.273Z" fill="#CFCFCF" stroke="#263238" stroke-width=".128" stroke-linejoin="round"/><path d="M73.343 66.137h-2.71v3.273h2.71v-3.273Z" fill="#E8E8E8" stroke="#263238" stroke-width=".128" stroke-linejoin="round"/><path d="M76.097 66.137h-2.71v3.273h2.71v-3.273ZM78.851 66.137h-2.71v3.273h2.71v-3.273Z" fill="#fff" stroke="#263238" stroke-width=".128" stroke-linejoin="round"/><path d="M81.601 66.137h-2.71v3.273h2.71v-3.273Z" fill="#263238"/><path d="M84.351 66.137h-2.71v3.273h2.71v-3.273ZM87.105 66.137h-2.71v3.273h2.71v-3.273Z" fill="#fff" stroke="#263238" stroke-width=".128" stroke-linejoin="round"/><path d="M57.113 62.762h-2.71v3.273h2.71v-3.273Z" fill="#E8E8E8" stroke="#263238" stroke-width=".128" stroke-linejoin="round"/><path d="M59.863 62.762h-2.71v3.273h2.71v-3.273Z" fill="#CFCFCF" stroke="#263238" stroke-width=".128" stroke-linejoin="round"/><path d="M62.617 62.762h-2.71v3.273h2.71v-3.273Z" fill="#333" stroke="#263238" stroke-width=".128" stroke-linejoin="round"/><path d="M65.37 62.762h-2.71v3.273h2.71v-3.273Z" fill="#7D7D7D" stroke="#263238" stroke-width=".128" stroke-linejoin="round"/><path d="M68.12 62.762h-2.71v3.273h2.71v-3.273Z" fill="#D4D4D4" stroke="#263238" stroke-width=".128" stroke-linejoin="round"/><path d="M70.87 62.762h-2.71v3.273h2.71v-3.273Z" fill="#CFCFCF" stroke="#263238" stroke-width=".128" stroke-linejoin="round"/><path d="M73.624 62.762h-2.71v3.273h2.71v-3.273Z" fill="#E8E8E8" stroke="#263238" stroke-width=".128" stroke-linejoin="round"/><path d="M76.374 62.762h-2.71v3.273h2.71v-3.273ZM79.128 62.762h-2.71v3.273h2.71v-3.273Z" fill="#fff" stroke="#263238" stroke-width=".128" stroke-linejoin="round"/><path d="M81.878 62.762h-2.71v3.273h2.71v-3.273Z" fill="#263238"/><path d="M84.632 62.762h-2.71v3.273h2.71v-3.273ZM87.386 62.762h-2.71v3.273h2.71v-3.273Z" fill="#fff" stroke="#263238" stroke-width=".128" stroke-linejoin="round"/><path d="M54.316 59.387h-2.71v3.273h2.71v-3.273Z" fill="#E8E8E8" stroke="#263238" stroke-width=".128" stroke-linejoin="round"/><path d="M57.07 59.387h-2.71v3.273h2.71v-3.273Z" fill="#CFCFCF" stroke="#263238" stroke-width=".128" stroke-linejoin="round"/><path d="M59.82 59.387h-2.71v3.273h2.71v-3.273Z" fill="#333" stroke="#263238" stroke-width=".128" stroke-linejoin="round"/><path d="M62.57 59.387h-2.71v3.273h2.71v-3.273Z" fill="#7D7D7D" stroke="#263238" stroke-width=".128" stroke-linejoin="round"/><path d="M65.324 59.387h-2.71v3.273h2.71v-3.273Z" fill="#D4D4D4" stroke="#263238" stroke-width=".128" stroke-linejoin="round"/><path d="M68.078 59.387h-2.71v3.273h2.71v-3.273Z" fill="#CFCFCF" stroke="#263238" stroke-width=".128" stroke-linejoin="round"/><path d="M70.828 59.387h-2.71v3.273h2.71v-3.273Z" fill="#E8E8E8" stroke="#263238" stroke-width=".128" stroke-linejoin="round"/><path d="M73.582 59.387h-2.71v3.273h2.71v-3.273ZM76.332 59.387h-2.71v3.273h2.71v-3.273Z" fill="#fff" stroke="#263238" stroke-width=".128" stroke-linejoin="round"/><path d="M79.085 59.387h-2.71v3.273h2.71v-3.273Z" fill="#263238"/><path d="M81.835 59.387h-2.71v3.273h2.71v-3.273ZM84.585 59.387h-2.71v3.273h2.71v-3.273Z" fill="#fff" stroke="#263238" stroke-width=".128" stroke-linejoin="round"/><path d="M57.39 56.012h-2.71v3.273h2.71v-3.273Z" fill="#E8E8E8" stroke="#263238" stroke-width=".128" stroke-linejoin="round"/><path d="M60.14 56.012h-2.71v3.273h2.71v-3.273Z" fill="#CFCFCF" stroke="#263238" stroke-width=".128" stroke-linejoin="round"/><path d="M62.894 56.012h-2.71v3.273h2.71v-3.273Z" fill="#333" stroke="#263238" stroke-width=".128" stroke-linejoin="round"/><path d="M65.648 56.012h-2.71v3.273h2.71v-3.273Z" fill="#7D7D7D" stroke="#263238" stroke-width=".128" stroke-linejoin="round"/><path d="M68.398 56.012h-2.71v3.273h2.71v-3.273Z" fill="#D4D4D4" stroke="#263238" stroke-width=".128" stroke-linejoin="round"/><path d="M71.152 56.012h-2.71v3.273h2.71v-3.273Z" fill="#CFCFCF" stroke="#263238" stroke-width=".128" stroke-linejoin="round"/><path d="M73.906 56.012h-2.71v3.273h2.71v-3.273Z" fill="#E8E8E8" stroke="#263238" stroke-width=".128" stroke-linejoin="round"/><path d="M76.656 56.012h-2.71v3.273h2.71v-3.273ZM79.406 56.012h-2.71v3.273h2.71v-3.273Z" fill="#fff" stroke="#263238" stroke-width=".128" stroke-linejoin="round"/><path d="M82.156 56.012h-2.71v3.274h2.71v-3.274Z" fill="#263238"/><path d="M84.91 56.012H82.2v3.274h2.71v-3.274ZM87.663 56.012h-2.71v3.273h2.71v-3.273Z" fill="#fff" stroke="#263238" stroke-width=".128" stroke-linejoin="round"/><path d="M56.742 52.64h-2.71v3.274h2.71v-3.273Z" fill="#E8E8E8" stroke="#263238" stroke-width=".128" stroke-linejoin="round"/><path d="M59.492 52.64h-2.71v3.274h2.71v-3.273Z" fill="#CFCFCF" stroke="#263238" stroke-width=".128" stroke-linejoin="round"/><path d="M62.246 52.64h-2.71v3.274h2.71v-3.273Z" fill="#333" stroke="#263238" stroke-width=".128" stroke-linejoin="round"/><path d="M64.996 52.64h-2.71v3.274h2.71v-3.273Z" fill="#7D7D7D" stroke="#263238" stroke-width=".128" stroke-linejoin="round"/><path d="M67.75 52.64h-2.71v3.274h2.71v-3.273Z" fill="#D4D4D4" stroke="#263238" stroke-width=".128" stroke-linejoin="round"/><path d="M70.5 52.64h-2.71v3.274h2.71v-3.273Z" fill="#CFCFCF" stroke="#263238" stroke-width=".128" stroke-linejoin="round"/><path d="M73.25 52.64h-2.71v3.274h2.71v-3.273Z" fill="#E8E8E8" stroke="#263238" stroke-width=".128" stroke-linejoin="round"/><path d="M76.003 52.64h-2.71v3.274h2.71v-3.273ZM78.753 52.64h-2.71v3.274h2.71v-3.273Z" fill="#fff" stroke="#263238" stroke-width=".128" stroke-linejoin="round"/><path d="M81.507 52.64h-2.71v3.274h2.71v-3.273Z" fill="#263238"/><path d="M84.261 52.64h-2.71v3.274h2.71v-3.273ZM87.011 52.64h-2.71v3.274h2.71v-3.273Z" fill="#fff" stroke="#263238" stroke-width=".128" stroke-linejoin="round"/><path d="M56.554 49.266h-2.71v3.273h2.71v-3.273Z" fill="#E8E8E8" stroke="#263238" stroke-width=".128" stroke-linejoin="round"/><path d="M59.304 49.266h-2.71v3.273h2.71v-3.273Z" fill="#CFCFCF" stroke="#263238" stroke-width=".128" stroke-linejoin="round"/><path d="M62.054 49.266h-2.71v3.273h2.71v-3.273Z" fill="#333" stroke="#263238" stroke-width=".128" stroke-linejoin="round"/><path d="M64.808 49.266h-2.71v3.273h2.71v-3.273Z" fill="#7D7D7D" stroke="#263238" stroke-width=".128" stroke-linejoin="round"/><path d="M67.562 49.266h-2.71v3.273h2.71v-3.273Z" fill="#D4D4D4" stroke="#263238" stroke-width=".128" stroke-linejoin="round"/><path d="M70.312 49.266h-2.71v3.273h2.71v-3.273Z" fill="#CFCFCF" stroke="#263238" stroke-width=".128" stroke-linejoin="round"/><path d="M73.066 49.266h-2.71v3.273h2.71v-3.273Z" fill="#E8E8E8" stroke="#263238" stroke-width=".128" stroke-linejoin="round"/><path d="M75.816 49.266h-2.71v3.273h2.71v-3.273ZM78.57 49.266h-2.71v3.273h2.71v-3.273Z" fill="#fff" stroke="#263238" stroke-width=".128" stroke-linejoin="round"/><path d="M81.32 49.266h-2.71v3.273h2.71v-3.273Z" fill="#263238"/><path d="M84.07 49.266h-2.71v3.273h2.71v-3.273ZM86.824 49.266h-2.71v3.273h2.71v-3.273Z" fill="#fff" stroke="#263238" stroke-width=".128" stroke-linejoin="round"/><path d="M56.941 45.895h-2.71v3.273h2.71v-3.273Z" fill="#E8E8E8" stroke="#263238" stroke-width=".128" stroke-linejoin="round"/><path d="M59.691 45.895h-2.71v3.273h2.71v-3.273Z" fill="#CFCFCF" stroke="#263238" stroke-width=".128" stroke-linejoin="round"/><path d="M62.445 45.895h-2.71v3.273h2.71v-3.273Z" fill="#333" stroke="#263238" stroke-width=".128" stroke-linejoin="round"/><path d="M65.199 45.895h-2.71v3.273h2.71v-3.273Z" fill="#7D7D7D" stroke="#263238" stroke-width=".128" stroke-linejoin="round"/><path d="M67.949 45.895h-2.71v3.273h2.71v-3.273Z" fill="#D4D4D4" stroke="#263238" stroke-width=".128" stroke-linejoin="round"/><path d="M70.703 45.895h-2.71v3.273h2.71v-3.273Z" fill="#CFCFCF" stroke="#263238" stroke-width=".128" stroke-linejoin="round"/><path d="M73.449 45.895h-2.71v3.273h2.71v-3.273Z" fill="#E8E8E8" stroke="#263238" stroke-width=".128" stroke-linejoin="round"/><path d="M76.203 45.895h-2.71v3.273h2.71v-3.273ZM78.957 45.895h-2.71v3.273h2.71v-3.273Z" fill="#fff" stroke="#263238" stroke-width=".128" stroke-linejoin="round"/><path d="M81.707 45.895h-2.71v3.273h2.71v-3.273Z" fill="#263238"/><path d="M84.457 45.895h-2.71v3.273h2.71v-3.273ZM87.21 45.895H84.5v3.273h2.71v-3.273Z" fill="#fff" stroke="#263238" stroke-width=".128" stroke-linejoin="round"/><path d="M56.554 42.52h-2.71v3.273h2.71V42.52Z" fill="#E8E8E8" stroke="#263238" stroke-width=".128" stroke-linejoin="round"/><path d="M59.304 42.52h-2.71v3.273h2.71V42.52Z" fill="#CFCFCF" stroke="#263238" stroke-width=".128" stroke-linejoin="round"/><path d="M62.054 42.52h-2.71v3.273h2.71V42.52Z" fill="#333" stroke="#263238" stroke-width=".128" stroke-linejoin="round"/><path d="M64.808 42.52h-2.71v3.273h2.71V42.52Z" fill="#7D7D7D" stroke="#263238" stroke-width=".128" stroke-linejoin="round"/><path d="M67.562 42.52h-2.71v3.273h2.71V42.52Z" fill="#D4D4D4" stroke="#263238" stroke-width=".128" stroke-linejoin="round"/><path d="M70.312 42.52h-2.71v3.273h2.71V42.52Z" fill="#CFCFCF" stroke="#263238" stroke-width=".128" stroke-linejoin="round"/><path d="M73.066 42.52h-2.71v3.273h2.71V42.52Z" fill="#E8E8E8" stroke="#263238" stroke-width=".128" stroke-linejoin="round"/><path d="M75.816 42.52h-2.71v3.273h2.71V42.52ZM78.57 42.52h-2.71v3.273h2.71V42.52Z" fill="#fff" stroke="#263238" stroke-width=".128" stroke-linejoin="round"/><path d="M81.32 42.52h-2.71v3.273h2.71V42.52Z" fill="#263238"/><path d="M84.07 42.52h-2.71v3.273h2.71V42.52ZM86.824 42.52h-2.71v3.273h2.71V42.52Z" fill="#fff" stroke="#263238" stroke-width=".128" stroke-linejoin="round"/><path d="M57.011 39.14h-2.71v3.274h2.71v-3.273Z" fill="#E8E8E8" stroke="#263238" stroke-width=".128" stroke-linejoin="round"/><path d="M59.765 39.14h-2.71v3.274h2.71v-3.273Z" fill="#CFCFCF" stroke="#263238" stroke-width=".128" stroke-linejoin="round"/><path d="M62.52 39.14h-2.711v3.274h2.71v-3.273Z" fill="#333" stroke="#263238" stroke-width=".128" stroke-linejoin="round"/><path d="M65.265 39.14h-2.71v3.274h2.71v-3.273Z" fill="#7D7D7D" stroke="#263238" stroke-width=".128" stroke-linejoin="round"/><path d="M68.02 39.14h-2.711v3.274h2.71v-3.273Z" fill="#D4D4D4" stroke="#263238" stroke-width=".128" stroke-linejoin="round"/><path d="M70.773 39.14h-2.71v3.274h2.71v-3.273Z" fill="#CFCFCF" stroke="#263238" stroke-width=".128" stroke-linejoin="round"/><path d="M73.523 39.14h-2.71v3.274h2.71v-3.273Z" fill="#E8E8E8" stroke="#263238" stroke-width=".128" stroke-linejoin="round"/><path d="M76.277 39.14h-2.71v3.274h2.71v-3.273ZM79.027 39.14h-2.71v3.274h2.71v-3.273Z" fill="#fff" stroke="#263238" stroke-width=".128" stroke-linejoin="round"/><path d="M81.78 39.14h-2.71v3.274h2.71v-3.273Z" fill="#263238"/><path d="M84.535 39.14h-2.71v3.274h2.71v-3.273ZM87.285 39.14h-2.71v3.274h2.71v-3.273Z" fill="#fff" stroke="#263238" stroke-width=".128" stroke-linejoin="round"/><path d="M55.433 35.77h-2.71v3.273h2.71V35.77Z" fill="#E8E8E8" stroke="#263238" stroke-width=".128" stroke-linejoin="round"/><path d="M58.187 35.77h-2.71v3.273h2.71V35.77Z" fill="#CFCFCF" stroke="#263238" stroke-width=".128" stroke-linejoin="round"/><path d="M60.937 35.77h-2.71v3.273h2.71V35.77Z" fill="#333" stroke="#263238" stroke-width=".128" stroke-linejoin="round"/><path d="M63.691 35.77h-2.71v3.273h2.71V35.77Z" fill="#7D7D7D" stroke="#263238" stroke-width=".128" stroke-linejoin="round"/><path d="M66.445 35.77h-2.71v3.273h2.71V35.77Z" fill="#D4D4D4" stroke="#263238" stroke-width=".128" stroke-linejoin="round"/><path d="M69.195 35.77h-2.71v3.273h2.71V35.77Z" fill="#CFCFCF" stroke="#263238" stroke-width=".128" stroke-linejoin="round"/><path d="M71.945 35.77h-2.71v3.273h2.71V35.77Z" fill="#E8E8E8" stroke="#263238" stroke-width=".128" stroke-linejoin="round"/><path d="M74.699 35.77h-2.71v3.273h2.71V35.77ZM77.449 35.77h-2.71v3.273h2.71V35.77Z" fill="#fff" stroke="#263238" stroke-width=".128" stroke-linejoin="round"/><path d="M80.203 35.77h-2.71v3.273h2.71V35.77Z" fill="#263238"/><path d="M82.953 35.77h-2.71v3.273h2.71V35.77ZM85.707 35.77h-2.71v3.273h2.71V35.77Z" fill="#fff" stroke="#263238" stroke-width=".128" stroke-linejoin="round"/><path d="M68.41 71.227v21.947h-1.085v3.244H52.086L68.41 71.227Z" fill="#263238" stroke="#263238" stroke-width=".128" stroke-miterlimit="10"/><path d="M65.75 82.918c-.05.11-.098.225-.148.333-.013.032-.027.061-.042.095a32.802 32.802 0 0 1-1.13 2.257c-.399.724-.82 1.419-1.26 2.085l-.06.085a27.116 27.116 0 0 1-1.505 2.073 24.338 24.338 0 0 1-1.66 1.88l-.075.078a20.889 20.889 0 0 1-1.943 1.74l-.084.068c-.74.584-1.523 1.1-2.343 1.545l-.109.058a11.05 11.05 0 0 1-3.183 1.124c-.057 0-.116.023-.173.03a6.944 6.944 0 0 1-4.41-.63c-1.374-.69-2.516-1.816-3.269-3.226-.034-.052-.06-.106-.09-.16a12.926 12.926 0 0 1-1.235-3.332c-.012-.043-.02-.086-.03-.128a18.54 18.54 0 0 1-.403-2.923 1.003 1.003 0 0 1 0-.113 23.324 23.324 0 0 1 0-2.71v-.11a27.177 27.177 0 0 1 .305-2.664c.13-.81.299-1.632.505-2.46l.025-.1a32.265 32.265 0 0 1 1.594-4.738c.012-.034.025-.063.038-.095l.145-.335c.28-.638.576-1.261.885-1.861l.046-.093a31.041 31.041 0 0 1 2.627-4.222l.06-.081a25.016 25.016 0 0 1 1.586-1.918 22.094 22.094 0 0 1 1.907-1.877c.03-.023.057-.048.084-.073a18.036 18.036 0 0 1 2.195-1.614l.1-.06c.886-.552 1.83-.992 2.81-1.311l.142-.04c2.005-.606 3.961-.536 5.677.33 1.716.865 3.032 2.428 3.884 4.46.019.048.04.095.056.142.402 1.01.692 2.066.865 3.148 0 .04.014.083.019.121.148.938.23 1.885.245 2.836v.117a24.971 24.971 0 0 1-.121 2.765c-.077.85-.194 1.697-.352 2.534 0 .036-.012.07-.019.104-.154.8-.344 1.608-.571 2.423a1.025 1.025 0 0 1-.026.102 33.525 33.525 0 0 1-.788 2.43 32.408 32.408 0 0 1-.772 1.911Z" fill="#fff" stroke="#263238" stroke-width=".128" stroke-miterlimit="10"/><path d="M65.75 82.918c-.05.11-.098.225-.148.333-.013.032-.027.061-.042.095a32.802 32.802 0 0 1-1.13 2.257c-.399.724-.82 1.419-1.26 2.085l-.06.085a27.116 27.116 0 0 1-1.505 2.073 24.338 24.338 0 0 1-1.66 1.88l-.075.078a20.889 20.889 0 0 1-1.943 1.74l-.084.068c-.74.584-1.523 1.1-2.343 1.545l-.109.058a11.05 11.05 0 0 1-3.183 1.124l-.173.03a6.944 6.944 0 0 1-4.41-.63c-1.374-.69-2.516-1.816-3.269-3.226-.034-.052-.06-.106-.09-.16a12.926 12.926 0 0 1-1.235-3.332c-.012-.043-.02-.086-.03-.128a18.54 18.54 0 0 1-.403-2.923 1.003 1.003 0 0 1 0-.113 23.324 23.324 0 0 1 0-2.71v-.11a27.177 27.177 0 0 1 .305-2.664c.13-.81.299-1.632.505-2.46l.025-.1a32.265 32.265 0 0 1 1.594-4.738c.012-.034.025-.063.038-.095l.145-.335c.28-.638.576-1.261.885-1.861l.046-.093a31.041 31.041 0 0 1 2.627-4.222l.06-.081a25.016 25.016 0 0 1 1.586-1.918 22.094 22.094 0 0 1 1.907-1.877c.03-.023.057-.048.084-.073a18.036 18.036 0 0 1 2.195-1.614l.1-.06c.886-.552 1.83-.992 2.81-1.311l.142-.04c2.005-.606 3.961-.536 5.677.33 1.716.865 3.032 2.428 3.884 4.46l.056.142c.402 1.01.692 2.066.865 3.148 0 .04.014.083.019.121.148.938.23 1.885.245 2.836v.117a24.971 24.971 0 0 1-.121 2.765c-.077.85-.194 1.697-.352 2.534 0 .036-.012.07-.019.104-.154.8-.344 1.608-.571 2.423a1.025 1.025 0 0 1-.026.102 33.525 33.525 0 0 1-.788 2.43 32.408 32.408 0 0 1-.772 1.911Z" fill="#fff" stroke="#263238" stroke-width=".128" stroke-linejoin="round"/><path d="m57.512 59.535.14-.04c2.007-.606 3.962-.536 5.678.33 1.716.865 3.032 2.428 3.884 4.46l-9.702-4.75Z" fill="#CFCFCF" stroke="#263238" stroke-width=".128" stroke-linejoin="round"/><path d="m68.164 67.703-13.562-6.79.099-.061c.886-.553 1.83-.994 2.811-1.315l.14-.04 9.625 4.941c.401 1.01.691 2.066.864 3.148.01.045.02.079.023.117Z" fill="#333" stroke="#263238" stroke-width=".128" stroke-linejoin="round"/><path d="m68.414 70.655-16.09-8.056c.03-.023.057-.048.085-.072a18.015 18.015 0 0 1 2.195-1.615l.099-.06 13.444 6.73c0 .04.015.082.02.12.147.938.23 1.886.245 2.836l.002.117Z" fill="#7D7D7D" stroke="#263238" stroke-width=".128" stroke-linejoin="round"/><path d="m68.287 73.418-17.873-8.95a22.126 22.126 0 0 1 1.991-1.95l16.004 8.013v.117a24.974 24.974 0 0 1-.122 2.77Z" fill="#D4D4D4" stroke="#263238" stroke-width=".128" stroke-linejoin="round"/><path d="m67.908 76.055-19.134-9.583.06-.08a24.998 24.998 0 0 1 1.586-1.919.813.813 0 0 1 .07-.079l17.818 8.92a.93.93 0 0 1-.013.108c-.082.85-.205 1.694-.368 2.53-.004.036-.019.07-.019.103Z" fill="#CFCFCF" stroke="#263238" stroke-width=".128" stroke-linejoin="round"/><path d="m67.308 78.58-19.976-10a29.052 29.052 0 0 1 1.43-2.109l.061-.08 19.101 9.56c0 .036-.013.07-.019.104-.154.8-.345 1.608-.572 2.423a1.025 1.025 0 0 1-.025.102Z" fill="#CFCFCF" stroke="#263238" stroke-width=".128" stroke-linejoin="round"/><path d="m66.524 81.006-20.426-10.23.046-.093a30.999 30.999 0 0 1 1.251-2.199l19.942 9.984a1.025 1.025 0 0 1-.025.1c-.218.777-.47 1.556-.753 2.337-.012.038-.025.07-.035.101Z" fill="#E8E8E8" stroke="#263238" stroke-width=".128" stroke-linejoin="round"/><path d="M65.75 82.92c-.049.11-.097.224-.147.332-.013.032-.028.061-.042.095l-20.533-10.28c.012-.034.025-.063.037-.094l.146-.335c.28-.64.576-1.262.885-1.862l.046-.092 20.415 10.221c-.012.032-.025.063-.035.094a31.072 31.072 0 0 1-.772 1.92Z" fill="#F7F7F7" stroke="#263238" stroke-width=".128" stroke-linejoin="round"/><path d="M65.596 83.264c-.012.032-.027.061-.042.095a32.755 32.755 0 0 1-1.129 2.257L44.121 75.451a33.91 33.91 0 0 1 .9-2.372l.038-.095 20.537 10.28Z" fill="#fff" stroke="#263238" stroke-width=".128" stroke-linejoin="round"/><path d="M64.48 85.524a29.874 29.874 0 0 1-1.308 2.172l-.059.085-19.71-9.869.025-.1a32.253 32.253 0 0 1 .725-2.46L64.48 85.524Z" fill="#fff" stroke="#263238" stroke-width=".128" stroke-linejoin="round"/><path d="m63.176 87.697-.059.085a27.095 27.095 0 0 1-1.505 2.073L42.883 80.48a.835.835 0 0 1 .019-.105c.13-.81.299-1.633.505-2.46l.025-.102 19.744 9.885Z" fill="#fff" stroke="#263238" stroke-width=".128" stroke-linejoin="round"/><path d="M61.678 89.773a24.322 24.322 0 0 1-1.724 1.963l-.075.08-17.289-8.657v-.11a27.172 27.172 0 0 1 .313-2.674l18.776 9.398Z" fill="#CFCFCF" stroke="#263238" stroke-width=".128" stroke-linejoin="round"/><path d="m59.953 91.737-.076.079a20.889 20.889 0 0 1-1.943 1.74l-.084.068-15.264-7.645a1.005 1.005 0 0 1 0-.113 23.324 23.324 0 0 1 0-2.709v-.11l17.367 8.69Z" fill="#D4D4D4" stroke="#263238" stroke-width=".128" stroke-linejoin="round"/><path d="m57.935 93.556-.084.067a16.36 16.36 0 0 1-2.35 1.536l-.11.058-12.37-6.194a18.528 18.528 0 0 1-.433-3.051 1.003 1.003 0 0 1 0-.113l15.347 7.697Z" fill="#7D7D7D" stroke="#263238" stroke-width=".128" stroke-linejoin="round"/><path d="m55.502 95.158-.11.059a11.05 11.05 0 0 1-3.183 1.124l-7.862-3.822c-.034-.052-.061-.106-.09-.16a12.926 12.926 0 0 1-1.265-3.46l12.51 6.26Z" fill="#333" stroke="#263238" stroke-width=".128" stroke-linejoin="round"/><path d="M52.035 96.365a6.944 6.944 0 0 1-4.408-.627c-1.375-.689-2.517-1.814-3.27-3.223-.034-.052-.062-.106-.091-.16l7.77 4.01Z" fill="#CFCFCF" stroke="#263238" stroke-width=".128" stroke-linejoin="round"/><path d="M63.983 82.047c4.341-9.915 3.263-20.255-2.41-23.094-5.671-2.84-13.789 2.895-18.13 12.81-4.341 9.914-3.263 20.254 2.41 23.094 5.671 2.84 13.788-2.896 18.13-12.81Z" fill="#fff" stroke="#263238" stroke-width=".128" stroke-miterlimit="10"/><path d="M57.304 89.07c-6.035.049-11.218.245-14.698 2.615a7.843 7.843 0 0 0 3.244 3.17c4.23 2.12 9.822-.535 14.194-6.136-.9.219-1.818.336-2.74.35Z" fill="#263238" stroke="#263238" stroke-width=".128" stroke-miterlimit="10"/><path d="M61.927 81.021c3.775-8.62 2.997-17.532-1.738-19.902-4.734-2.37-11.633 2.696-15.408 11.318-3.775 8.62-2.997 17.532 1.738 19.902 4.735 2.37 11.633-2.696 15.408-11.318Z" fill="#fff" stroke="#263238" stroke-width=".128" stroke-linejoin="round"/><path d="M61.76 65.198c.487-.33.943-.627 1.376-.9-.69-1.445-1.682-2.558-2.943-3.194-4.736-2.363-11.628 2.703-15.413 11.328a29.666 29.666 0 0 0-1.788 5.443 17.227 17.227 0 0 0 3.53-.434c5.796-1.29 8.004-7.325 15.237-12.243Z" fill="#263238" stroke="#263238" stroke-width=".128" stroke-miterlimit="10"/><path d="M45.607 72.844c3.663-8.362 10.272-13.39 14.986-11.51a6.463 6.463 0 0 0-.401-.224c-4.736-2.368-11.628 2.698-15.413 11.323s-2.997 17.538 1.739 19.9c.136.07.277.134.42.19-4.37-2.667-4.996-11.308-1.33-19.679Z" fill="#263238" stroke="#263238" stroke-width=".128" stroke-miterlimit="10"/><path d="M55.08 70.89c.549-1.253 1.003-1.606 1.434-1.39.43.216.469.814-.08 2.066l-.318.729 1.279.638.242-.55c1.051-2.38 1.209-4.131.42-5.01l.57-1.304-1.108-.553-.57 1.301c-1.133-.049-2.273 1.215-3.303 3.571-2.193 5.01.374 6.52-1.205 10.118-.549 1.252-1.016 1.574-1.447 1.35-.43-.226-.505-.804.044-2.056l.604-1.378-1.28-.641-.526 1.203c-1.052 2.379-1.22 4.155-.421 5.04l-.56 1.28 1.109.553.56-1.277c1.135.079 2.312-1.196 3.349-3.577 2.2-5.005-.37-6.505 1.207-10.114Z" fill="#263238" stroke="#263238" stroke-width=".128" stroke-miterlimit="10"/><path d="M54.767 70.733c.55-1.253 1.003-1.606 1.434-1.39.431.216.47.814-.08 2.066l-.317.718 1.278.64.242-.55c1.052-2.381 1.21-4.13.42-5.012l.57-1.302-1.108-.555-.57 1.304c-1.133-.05-2.27 1.214-3.303 3.57-2.193 5.01.375 6.51-1.205 10.118-.548 1.253-1.015 1.574-1.446 1.35-.431-.225-.505-.801.044-2.056l.603-1.376-1.278-.64-.528 1.202c-1.051 2.38-1.22 4.156-.42 5.041l-.56 1.278 1.108.555.56-1.277c1.135.079 2.313-1.196 3.35-3.578 2.197-5-.373-6.5 1.206-10.106ZM46.464 77.206v.344c-.011.74-.063 1.48-.156 2.213 0 .031 0 .06-.012.09a19.563 19.563 0 0 1-.41 2.212c0 .029-.009.06-.026.094a19.08 19.08 0 0 1-.685 2.21l-.036.095a19.727 19.727 0 0 1-1.055 2.305 19.25 19.25 0 0 1-1.39 2.212c-.021.032-.044.061-.068.09a18.236 18.236 0 0 1-1.909 2.213l-.094.092a17.98 17.98 0 0 1-2.746 2.212l-.146.093a17.066 17.066 0 0 1-5.488 2.304 16.896 16.896 0 0 1-7.452 0 17.066 17.066 0 0 1-5.488-2.304l-.145-.093a17.98 17.98 0 0 1-2.746-2.212l-.095-.092a18.595 18.595 0 0 1-1.907-2.213c-.023-.029-.046-.058-.067-.09a19.25 19.25 0 0 1-1.438-2.307c-.38-.712-.717-1.45-1.008-2.21l-.035-.094a19.494 19.494 0 0 1-.709-2.305 19.102 19.102 0 0 1-.42-2.212l-.015-.086a20.197 20.197 0 0 1-.154-2.304v-.252c0-.655.031-1.31.093-1.961 0-.031 0-.06.01-.092a19.61 19.61 0 0 1 .343-2.213c0-.031.01-.063.019-.092.163-.75.368-1.489.614-2.212.013-.03.021-.061.032-.09.267-.76.58-1.5.935-2.217.013-.032.03-.063.044-.095A19.143 19.143 0 0 1 14 65.935a18.691 18.691 0 0 1 1.756-2.213l.084-.092a18.353 18.353 0 0 1 2.481-2.213l.124-.09a17.55 17.55 0 0 1 4.078-2.212l.245-.092a16.957 16.957 0 0 1 11.515 0l.248.092a17.47 17.47 0 0 1 4.065 2.215c.042.03.084.058.124.09a18.353 18.353 0 0 1 2.48 2.212 18.719 18.719 0 0 1 1.842 2.305l.064.094a19.123 19.123 0 0 1 1.327 2.305c.351.716.659 1.455.92 2.213l.032.09c.246.723.451 1.462.614 2.212 0 .03.015.06.02.092.156.73.271 1.468.344 2.213v.092c.064.65.098 1.304.101 1.958Z" fill="#fff" stroke="#263238" stroke-width=".128" stroke-linejoin="round"/><path d="M34.52 59.115H22.513l.246-.092a16.957 16.957 0 0 1 11.514 0l.249.092Z" fill="#fff" stroke="#263238" stroke-width=".128" stroke-linejoin="round"/><path d="M38.718 61.414h-20.41l.125-.09a17.55 17.55 0 0 1 4.077-2.212l.246-.093h11.51l.248.093a17.467 17.467 0 0 1 4.08 2.214c.042.027.088.057.124.088Z" fill="#CFCFCF" stroke="#263238" stroke-width=".128" stroke-linejoin="round"/><path d="M41.282 63.723h-25.54l.084-.093a18.365 18.365 0 0 1 2.482-2.212l.124-.09h20.16c.043.03.085.059.125.09a18.353 18.353 0 0 1 2.565 2.305Z" fill="#333" stroke="#263238" stroke-width=".128" stroke-linejoin="round"/><path d="M43.095 66.028H13.922a18.682 18.682 0 0 1 1.819-2.307l.084-.092h25.378c.03.03.056.06.084.092a18.698 18.698 0 0 1 1.758 2.213l.05.094Z" fill="#7D7D7D" stroke="#263238" stroke-width=".128" stroke-linejoin="round"/><path d="M44.432 68.333H12.61c.012-.032.03-.063.044-.095a19.152 19.152 0 0 1 1.345-2.304h29.043l.063.094a19.108 19.108 0 0 1 1.327 2.305Z" fill="#D4D4D4" stroke="#263238" stroke-width=".128" stroke-linejoin="round"/><path d="M45.383 70.635H11.645c.012-.03.02-.06.031-.09.267-.758.578-1.497.932-2.212.012-.032.03-.063.044-.095h31.751a19.426 19.426 0 0 1 .967 2.307l.013.09Z" fill="#CFCFCF" stroke="#263238" stroke-width=".128" stroke-linejoin="round"/><path d="M46.016 72.942H11.012c0-.032.01-.063.019-.093.163-.75.368-1.489.614-2.212.013-.03.02-.06.031-.09h33.675l.032.09c.246.724.45 1.462.614 2.212.006.03.015.061.019.093Z" fill="#CFCFCF" stroke="#263238" stroke-width=".128" stroke-linejoin="round"/><path d="M46.367 75.245h-35.71c0-.032 0-.061.01-.093.072-.744.187-1.483.343-2.212 0-.032.01-.063.019-.092h34.966c0 .029.014.06.019.092.156.73.272 1.468.344 2.212.003.032.007.061.009.093Z" fill="#E8E8E8" stroke="#263238" stroke-width=".128" stroke-linejoin="round"/><path d="M46.46 77.205v.344H10.567a.675.675 0 0 1 0-.092v-.252c0-.655.031-1.309.093-1.96 0-.032 0-.061.01-.093H46.36v.093a20.8 20.8 0 0 1 .1 1.96Z" fill="#F7F7F7" stroke="#263238" stroke-width=".128" stroke-linejoin="round"/><path d="M46.464 77.457v.092c-.011.74-.063 1.48-.156 2.213 0 .031 0 .06-.012.09H10.739l-.021-.086a20.195 20.195 0 0 1-.154-2.305l35.9-.004Z" fill="#fff" stroke="#263238" stroke-width=".128" stroke-linejoin="round"/><path d="M46.303 79.766c0 .031 0 .06-.012.09a19.56 19.56 0 0 1-.41 2.212c0 .029-.008.06-.025.094H11.17a19.1 19.1 0 0 1-.444-2.307l-.012-.09h35.588Z" fill="#fff" stroke="#263238" stroke-width=".128" stroke-linejoin="round"/><path d="M45.881 82.066c0 .029-.008.06-.025.095-.184.751-.413 1.49-.685 2.21l-.036.095H11.893l-.036-.095a19.502 19.502 0 0 1-.708-2.305H45.88Z" fill="#fff" stroke="#263238" stroke-width=".128" stroke-linejoin="round"/><path d="m45.17 84.371-.035.095a19.71 19.71 0 0 1-1.056 2.304h-31.12a.964.964 0 0 1-.049-.094c-.38-.713-.717-1.451-1.007-2.21l-.036-.095H45.17Z" fill="#CFCFCF" stroke="#263238" stroke-width=".128" stroke-linejoin="round"/><path d="M44.13 86.676a19.249 19.249 0 0 1-1.506 2.397H14.408a19.249 19.249 0 0 1-1.505-2.397H44.13Z" fill="#D4D4D4" stroke="#263238" stroke-width=".128" stroke-linejoin="round"/><path d="M42.687 88.984c-.02.032-.044.061-.067.09a18.237 18.237 0 0 1-1.91 2.213l-.094.092h-24.21l-.095-.092a18.595 18.595 0 0 1-1.975-2.303h28.351Z" fill="#7D7D7D" stroke="#263238" stroke-width=".128" stroke-linejoin="round"/><path d="m40.713 91.285-.095.092a17.975 17.975 0 0 1-2.746 2.213l-.145.092H19.299l-.145-.092c-.98-.641-1.9-1.382-2.747-2.213l-.094-.092h24.4Z" fill="#333" stroke="#263238" stroke-width=".128" stroke-linejoin="round"/><path d="m37.871 93.59-.145.092a17.066 17.066 0 0 1-5.488 2.305h-7.452a17.066 17.066 0 0 1-5.488-2.305l-.145-.092H37.87Z" fill="#CFCFCF" stroke="#263238" stroke-width=".128" stroke-linejoin="round"/><path d="M27.094 96.401c9.912 0 17.948-8.593 17.948-19.193 0-10.6-8.036-19.192-17.948-19.192-9.913 0-17.95 8.593-17.95 19.192 0 10.6 8.037 19.193 17.95 19.193Z" fill="#fff" stroke="#263238" stroke-width=".128" stroke-linejoin="round"/><path d="M27.093 92.635c7.969 0 14.429-6.908 14.429-15.429 0-8.52-6.46-15.429-14.429-15.429s-14.429 6.908-14.429 15.43c0 8.52 6.46 15.428 14.43 15.428Z" fill="#fff" stroke="#263238" stroke-width=".128" stroke-linejoin="round"/><path d="M25.292 78.037c-2.672 5.718-7.36 7.364-10.143 7.827a14.942 14.942 0 0 0 4.097 4.307 13.9 13.9 0 0 0 5.344 2.256c1.905.362 3.858.31 5.744-.152a14.004 14.004 0 0 0 5.233-2.538 15.091 15.091 0 0 0 3.891-4.52c1.001-1.77 1.659-3.737 1.934-5.785a16.47 16.47 0 0 0-.33-6.134c-.494-2-1.36-3.873-2.544-5.509-5.545.553-10.393 4.191-13.226 10.248Z" fill="#263238"/><path d="M12.664 77.206c.001 4.018 1.468 7.877 4.089 10.757 2.62 2.88 6.189 4.551 9.945 4.66h.231c-3.718-.166-7.233-1.862-9.809-4.735-2.576-2.872-4.014-6.698-4.014-10.677 0-3.98 1.438-7.806 4.014-10.678 2.576-2.872 6.09-4.569 9.81-4.735l-.232-.02c-3.758.109-7.328 1.783-9.949 4.664-2.621 2.882-4.087 6.744-4.085 10.764Z" fill="#263238" stroke="#263238" stroke-width=".128" stroke-miterlimit="10"/><path d="M26.353 71.952c0-1.383.517-1.91 1.423-1.91.907 0 1.422.527 1.422 1.91v.802h2.691v-.609c0-2.628-1.034-4.288-3.053-4.722v-1.439h-2.328v1.44c-1.993.47-3 2.129-3 4.721 0 5.534 5.561 5.727 5.561 9.711 0 1.383-.57 1.88-1.471 1.88-.903 0-1.472-.497-1.472-1.88v-1.522H23.43v1.327c0 2.628 1.035 4.317 3.078 4.76v1.41h2.328v-1.41c2.019-.45 3.078-2.132 3.078-4.76 0-5.532-5.561-5.716-5.561-9.71Z" fill="#263238" stroke="#fff" stroke-width=".128" stroke-miterlimit="10"/><path d="M25.79 71.952c0-1.383.52-1.91 1.423-1.91.905 0 1.424.527 1.424 1.91v.802h2.685v-.609c0-2.628-1.034-4.288-3.05-4.722v-1.439h-2.326v1.44c-1.992.47-3.001 2.129-3.001 4.721 0 5.534 5.562 5.727 5.562 9.711 0 1.383-.568 1.88-1.472 1.88s-1.472-.497-1.472-1.88v-1.522H22.87v1.327c0 2.628 1.035 4.317 3.079 4.76v1.41h2.33v-1.41c2.016-.45 3.078-2.132 3.078-4.76-.004-5.532-5.568-5.716-5.568-9.71Z" fill="#fff" stroke="#263238" stroke-width=".128" stroke-linejoin="round"/><path d="m91.425 24.646-.902.675a1.143 1.143 0 0 0-.65-.464 1.077 1.077 0 0 0-.776.09c-.9.437-2.944 2.676-3.547 4.722-.603 2.046 1.396 4.387 1.018 5.257-.379.87-1.455 1.124-1.367 2.584.088 1.459 4.946 3.42 7.271 2.268 2.326-1.151.088-3.822.612-4.697s2.035-.62 2.035-3.202c0-2.58-.46-3.89-1.337-5.475-.757-1.353-1.514-2.068-2.357-1.758Z" fill="#263238" stroke="#263238" stroke-width=".128" stroke-linecap="round" stroke-linejoin="round"/><path d="M94.417 92.315a18.649 18.649 0 0 1-1.014 2.248c-.42.693-1.566.76-1.135 1.325.43.564 1.524.75 2.313.188.788-.562.89-1.587 1.501-1.976.612-.389.673-.956.458-1.63-.214-.675-.572-.857-.572-.857s-.347.808-1.551.702Z" fill="#fff" stroke="#263238" stroke-width=".128" stroke-linecap="round" stroke-linejoin="round"/><path d="M84.063 51.18s-.841 4.233-.54 7.505c.3 3.271.784 6.224 1.08 7.377.297 1.154 2.523 12.063 2.7 12.191.177.129 4.212 6.022 4.994 8.27.782 2.249 2.277 6.024 2.277 6.024s.818.42 1.359-.092c.54-.513.342-.655.342-.655s-1.77-8.416-2.733-11.624c-.963-3.209-2.46-6.802-2.46-6.802S93.96 61.442 93.3 56.756c-.66-4.686-1.5-5.261-1.5-5.261s-4.917 1.93-7.737-.315Z" fill="#263238" stroke="#263238" stroke-width=".128" stroke-linecap="round" stroke-linejoin="round"/><path d="M92.184 52.137c1.818 2.64 2.969 5.738 3.34 8.993.541 5.262-2.34 8.727-2.943 12.063-.603 3.337.246 4.51-.654 7.976-.9 3.465-1.117 4.207-1.716 6.131-.599 1.925-1.442 4.567-1.442 4.567s-.358.378-1.138.378c-.78 0-.877-.018-.877-.018s1.327-10.05 1.386-13.266c.059-3.215.42-6.674.42-6.674s-.42-11.87.48-14.115c.9-2.247 1.501-2.887 1.501-2.887" fill="#263238"/><path d="M92.184 52.137c1.818 2.64 2.969 5.738 3.34 8.993.541 5.262-2.34 8.727-2.943 12.063-.603 3.337.246 4.51-.654 7.976-.9 3.465-1.117 4.207-1.716 6.131-.599 1.925-1.442 4.567-1.442 4.567s-.358.378-1.138.378c-.78 0-.877-.018-.877-.018s1.327-10.05 1.386-13.266c.059-3.215.42-6.674.42-6.674s-.42-11.87.48-14.115c.9-2.247 1.501-2.887 1.501-2.887" stroke="#263238" stroke-width=".128" stroke-linecap="round" stroke-linejoin="round"/><path d="M88.141 76.714c0-1.887.021-4.592.095-6.615.122-3.445.37-11.659 2.102-13.912M88.145 78.961v-.938" stroke="#fff" stroke-width=".128" stroke-linecap="round" stroke-linejoin="round"/><path d="M85.383 56.719s1.294 3.586 3.388 4.456" stroke="#fff" stroke-width=".128" stroke-linecap="round" stroke-linejoin="round"/><path d="M84.605 36.998a1.902 1.902 0 0 0-1.253.265c-.38.232-.678.59-.85 1.019-.658 1.54-3.45 7.597-3.45 8.369 0 .77.784 2.869 2.079 1.704.759-.675 2.944-5.58 2.944-5.58" fill="#92E3A9"/><path d="M84.605 36.998a1.902 1.902 0 0 0-1.253.265c-.38.232-.678.59-.85 1.019-.658 1.54-3.45 7.597-3.45 8.369 0 .77.784 2.869 2.079 1.704.759-.675 2.944-5.58 2.944-5.58" stroke="#263238" stroke-width=".128" stroke-linecap="round" stroke-linejoin="round"/><path d="M94.564 38.737c-.551-1.835-3.926-1.93-4.19-1.99 0 0-.115.187-.115-.225 0-.411.21-1.93.21-1.93s-2.298 0-2.676-.87c0 0-.06 2.114-.32 2.924 0 0-.361.28-1.234.28s-2.313-.375-2.75.9c-.028.088-.05.177-.068.268-.21.845-.864 3.487-.94 4.63-.05.764.354 2.248.722 3.43.025.846.065 1.563.109 2.024.21 2.084.086 4.776.725 5.212.64.436 5.448 1.174 6.962.49 1.514-.684 1.42-2.592 1.42-3.494 0-.902 2.698-9.815 2.145-11.65Z" fill="#92E3A9" stroke="#263238" stroke-width=".128" stroke-linecap="round" stroke-linejoin="round"/><path d="M86.25 43.074s.37 1.723 2.353 2.651" stroke="#263238" stroke-width=".128" stroke-linecap="round" stroke-linejoin="round"/><path d="M92.372 37.08a13.107 13.107 0 0 0-1.997-.333s-.116.187-.116-.225c0-.411.21-1.93.21-1.93s-2.298 0-2.676-.87c0 0-.06 2.114-.32 2.924 0 0-.841.177-1.644.276.138.884.66 2.739 2.605 2.961 1.693.203 3.148-1.578 3.938-2.803ZM92.249 32.367s.469-.35.42.252c-.048.602-.328 1.153-.656 1.252a2.11 2.11 0 0 1-.563.101l.799-1.605ZM87.464 31.21s-.469-.553-.515.351c-.046.904.42 1.154.42 1.154l.095-1.505Z" fill="#fff" stroke="#263238" stroke-width=".128" stroke-linecap="round" stroke-linejoin="round"/><path d="M89.985 28.063s-.685.719-2.4.899c0 0-.699 2.768-.087 4.634.612 1.866 1.682 2.147 2.523 1.898 1.436-.423 2.561-3.546 2.88-4.722.005.002-2.424-.967-2.916-2.71Z" fill="#fff" stroke="#263238" stroke-width=".128" stroke-linecap="round" stroke-linejoin="round"/><path d="M88.984 30.88c-.05.225-.21.394-.34.36-.131-.034-.211-.25-.158-.483.052-.234.21-.392.34-.358.13.034.206.25.158.481ZM90.845 31.435c-.05.225-.21.393-.339.36-.128-.034-.21-.25-.157-.482.052-.231.21-.393.338-.36.129.034.208.241.158.482Z" fill="#263238"/><path d="M89.172 32.3c.066.08.15.14.243.176a.563.563 0 0 0 .291.032M88.442 32.668s.486 1.09 1.945.623M88.442 29.858s.389-.26.923.155M90.63 30.223c.219.024.431.096.624.212.192.116.36.274.492.462" stroke="#263238" stroke-width=".128" stroke-linecap="round" stroke-linejoin="round"/><path d="M86.76 91.875s-.719 1.837-2.102 2.788c-.66.45-1.74.639-1.397 1.212.343.573 2.454.573 3.451.135.997-.438 1.413-.526 1.728-1.167.316-.64.329-2.984.329-2.984a3.061 3.061 0 0 1-2.009.016ZM85.069 46.477s-1.506-1.843-1.603-2.023c-.096-.18-2.52-1-2.52-1a.804.804 0 0 0-.013.498c.094.176 1.644.614 1.644.614l.139.225-2.124-.317s-.379.07-.278.335c.101.265 2.364.61 2.364.61l-2.313.112c.03.12.093.23.18.312a.57.57 0 0 0 .314.15c.38.021 1.308-.042 1.308-.042s-1.09.164-.86.466c.23.3 1.394-.05 1.394-.05l.923.616.932.706.513-1.212Z" fill="#fff" stroke="#263238" stroke-width=".128" stroke-linecap="round" stroke-linejoin="round"/><path d="m92.733 40.8-1.554 6.88s-4.104-.515-4.992-.791a5.783 5.783 0 0 1-.998-.356l-.642 1.156s2.86 1.85 5.154 2.68c2.294.83 3.106 1.502 3.697.434.59-1.068 1.627-7.552 1.924-9.727.296-2.174-.038-2.887-.703-3.163-.493-.19-1-.336-1.516-.436" fill="#92E3A9"/><path d="m92.733 40.8-1.554 6.88s-4.104-.515-4.992-.791a5.783 5.783 0 0 1-.998-.356l-.642 1.156s2.86 1.85 5.154 2.68c2.294.83 3.106 1.502 3.697.434.59-1.068 1.627-7.552 1.924-9.727.296-2.174-.038-2.887-.703-3.163-.493-.19-1-.336-1.516-.436" stroke="#263238" stroke-width=".128" stroke-linecap="round" stroke-linejoin="round"/><path d="m80.104 45.73 8.71 1.277-.3 1.2s-3.557.9-6.495 1.046c-3.764.177-3.267-2.534-2.607-3.753" fill="#92E3A9"/><path d="m80.104 45.73 8.71 1.277-.3 1.2s-3.557.9-6.495 1.046c-3.764.177-3.267-2.534-2.607-3.753" stroke="#263238" stroke-width=".128" stroke-linecap="round" stroke-linejoin="round"/><path d="M88.806 47.003s2.252-.555 2.429-.631c.177-.077 2.559.865 2.559.865s-.103.326-.278.4c-.174.075-1.648-.6-1.648-.6l-.236.079 1.86 1.162s.256.306.022.45c-.233.144-2.212-1.077-2.212-1.077l1.764 1.617a.56.56 0 0 1-.656.04c-.31-.236-1.005-.9-1.005-.9s.763.848.408.936c-.355.088-1.068-.958-1.068-.958l-1.083-.123-1.146-.059.29-1.2Z" fill="#fff" stroke="#263238" stroke-width=".128" stroke-linecap="round" stroke-linejoin="round"/><path d="M3.985 96.406h95.463" stroke="#263238" stroke-width=".128" stroke-linejoin="round"/></svg>