<svg width="12" height="14" fill="none" xmlns="http://www.w3.org/2000/svg"><path d="m9.312 1.72.334-.638L8.185.307A2.411 2.411 0 0 0 7.43.056a2.95 2.95 0 0 0-1.028.026 4.175 4.175 0 0 0-.754.225 5.73 5.73 0 0 0-1.005.54 6.72 6.72 0 0 0-.376.27C2.454 2.52 1.034 5.019.666 7.42a7.603 7.603 0 0 0-.09 1.178 6.251 6.251 0 0 0 .079.98c.023.14.053.274.087.405.09.36.233.707.427 1.03.04.065.08.125.123.186.173.247.392.464.647.64.076.052.156.1.238.143l1.381.73.306-.584c.081-.016.162-.036.245-.058a4.69 4.69 0 0 0 .962-.39c.194-.105.383-.22.564-.343.243-.167.474-.348.692-.541C7.841 9.463 9.033 7.377 9.47 5.3c.065-.305.112-.612.143-.921a7.54 7.54 0 0 0 .037-.757c0-.36-.032-.719-.096-1.074a4.424 4.424 0 0 0-.242-.83Z" fill="#407BFF"/><path opacity=".25" d="M.999 6.002 3.963 7.57l.39-1.033-2.967-1.57c-.148.34-.277.685-.387 1.036ZM8.184.307a2.411 2.411 0 0 0-.755-.251 2.95 2.95 0 0 0-1.028.026l-.135.03 3.049 1.61v-.007l.334-.638-1.465-.77ZM7.868 4.268l.39-.43L3.814 1.5c-.14.128-.279.263-.414.404l4.468 2.365ZM2.456 3.053 6.31 5.088l.423-1.014-3.585-1.895c-.248.28-.479.572-.692.874Z" fill="#fff"/><path opacity=".4" d="M8.185.307A2.41 2.41 0 0 0 7.43.056a2.95 2.95 0 0 0-1.028.026 4.176 4.176 0 0 0-.754.225 5.732 5.732 0 0 0-1.005.54 6.723 6.723 0 0 0-.376.27C2.58 2.422 1.227 4.678.75 6.922l6.182 3.268c1.274-1.413 2.143-3.095 2.529-4.893a8.48 8.48 0 0 0 .143-.921c.024-.255.038-.508.037-.757 0-.36-.032-.718-.096-1.073a4.422 4.422 0 0 0-.239-.83l.335-.638L8.185.307Z" fill="#fff"/><path opacity=".1" d="m3.554 12.712.306-.583c.081-.017.162-.037.245-.059.336-.095.659-.226.961-.39a6.37 6.37 0 0 0 .565-.343 7.04 7.04 0 0 0 .692-.541c.216-.191.421-.392.614-.603L.755 6.925a8.85 8.85 0 0 0-.149.983 7.449 7.449 0 0 0-.03.69 6.251 6.251 0 0 0 .079.98c.023.14.053.274.087.406.09.36.233.706.427 1.03.04.064.08.124.123.186.173.246.392.463.647.64.076.051.156.099.238.142l1.377.73Z" fill="#000"/><path opacity=".1" d="M1.169 11.017c.04.064.08.124.123.186.173.246.392.463.647.64.076.051.156.099.238.142l1.381.73.306-.583h.012l.022-.24L.827 10.27c.084.26.199.51.342.748Z" fill="#000"/><path d="M11.111 3.376a4.155 4.155 0 0 0-.337-1.067 2.787 2.787 0 0 0-.897-1.084A2.382 2.382 0 0 0 8.86.818a2.95 2.95 0 0 0-1.028.026 4.321 4.321 0 0 0-.754.225 5.475 5.475 0 0 0-1.002.537 6.698 6.698 0 0 0-.375.271c-1.813 1.4-3.247 3.898-3.602 6.3a7.589 7.589 0 0 0-.058.489 6.988 6.988 0 0 0-.007 1.23 5.432 5.432 0 0 0 .142.845 3.704 3.704 0 0 0 .545 1.216 2.6 2.6 0 0 0 .648.64c.37.254.815.4 1.277.419.346.014.692-.028 1.021-.124.337-.095.66-.226.962-.39a6.08 6.08 0 0 0 .564-.343 7.04 7.04 0 0 0 .693-.541c1.514-1.333 2.706-3.42 3.142-5.496.065-.305.112-.612.143-.921a7.44 7.44 0 0 0 .037-.757 5.91 5.91 0 0 0-.097-1.068Z" fill="#407BFF"/><path opacity=".05" d="M2.19 7.676a9.777 9.777 0 0 0-.091.495 6.65 6.65 0 0 0-.058.488 6.988 6.988 0 0 0-.007 1.23 5.435 5.435 0 0 0 .142.845 3.704 3.704 0 0 0 .545 1.216c.173.247.393.464.648.64.37.255.815.4 1.277.42.346.014.692-.028 1.021-.125.337-.094.66-.225.962-.39.17-.09.337-.193.502-.302L2.19 7.676Z" fill="#000"/><path opacity=".05" d="M2.26 11.035a3.59 3.59 0 0 0 .46.929c.174.246.393.463.649.64a2.41 2.41 0 0 0 1.033.395l-2.141-1.964Z" fill="#000"/><path opacity=".1" d="M2.818 5.729c-.147.34-.27.685-.387 1.033l5.382 4.926.073-.064c.233-.206.453-.424.66-.652L2.818 5.729ZM4.577 2.939c-.247.28-.476.571-.687.874l5.922 5.423c.192-.331.368-.674.527-1.023L4.577 2.939ZM5.25 2.262a9.856 9.856 0 0 0-.419.406l5.663 5.184c.08-.193.153-.39.222-.587L5.249 2.262ZM11.195 4.074c0-.1-.015-.198-.026-.295 0-.03 0-.063-.01-.095l-.013-.098c-.01-.07-.021-.141-.035-.21a4.151 4.151 0 0 0-.337-1.067 2.787 2.787 0 0 0-.897-1.084A2.382 2.382 0 0 0 8.86.818a2.95 2.95 0 0 0-1.028.026l-.135.03 3.498 3.2Z" fill="#fff"/><path d="M10.036 5.094c0 2.215-1.411 4.775-3.197 5.862a3.86 3.86 0 0 1-.23.131c-1.894 1-3.428-.06-3.428-2.371S4.715 3.722 6.61 2.72c.077-.04.154-.078.23-.111 1.786-.8 3.197.267 3.197 2.484Z" fill="#407BFF"/><path opacity=".4" d="M10.036 5.094c0 2.215-1.411 4.775-3.197 5.862a3.86 3.86 0 0 1-.23.131c-1.894 1-3.428-.06-3.428-2.371S4.715 3.722 6.61 2.72c.077-.04.154-.078.23-.111 1.786-.8 3.197.267 3.197 2.484Z" fill="#000"/><path d="M9.884 5.174v.215c-.087 2.066-1.402 4.381-3.05 5.387l-.045.027c-.059.033-.117.067-.175.098-.316.174-.665.29-1.03.343-.768.095-1.41-.213-1.808-.843a3.077 3.077 0 0 1-.43-1.424 4.517 4.517 0 0 1-.002-.657c.015-.228.042-.455.083-.68.29-1.597 1.217-3.22 2.402-4.201a4.664 4.664 0 0 1 .78-.526 4.36 4.36 0 0 1 .219-.108l.06-.026c.418-.195.891-.264 1.353-.197.69.124 1.218.62 1.476 1.428.115.379.17.77.167 1.164Z" fill="#407BFF"/><path opacity=".5" d="M9.884 5.174v.215c-.087 2.066-1.402 4.381-3.05 5.387l-.045.027c-.059.033-.117.067-.175.098-.316.174-.665.29-1.03.343-.768.095-1.41-.213-1.808-.843a3.077 3.077 0 0 1-.43-1.424 4.517 4.517 0 0 1-.002-.657c.015-.228.042-.455.083-.68.29-1.597 1.217-3.22 2.402-4.201a4.664 4.664 0 0 1 .78-.526 4.36 4.36 0 0 1 .219-.108l.06-.026c.418-.195.891-.264 1.353-.197.69.124 1.218.62 1.476 1.428.115.379.17.77.167 1.164Z" fill="#000"/><path d="M9.335 5.1v-.217a3.893 3.893 0 0 0-.165-1.17 2.187 2.187 0 0 0-.695-1.081 1.675 1.675 0 0 0-.227-.056 2.397 2.397 0 0 0-1.353.197l-.06.026c-.073.033-.147.068-.22.107a4.664 4.664 0 0 0-.78.526c-1.183.978-2.112 2.601-2.402 4.201a5.914 5.914 0 0 0-.093 1c0 .106 0 .229.012.337.021.5.166.989.425 1.43.113.182.258.346.43.485.268.082.554.106.835.068a3.013 3.013 0 0 0 1.03-.342c.057-.03.117-.064.174-.099l.044-.027C7.934 9.481 9.25 7.165 9.335 5.1Z" fill="#407BFF"/><path opacity=".25" d="M9.335 5.1v-.217a3.893 3.893 0 0 0-.165-1.17 2.187 2.187 0 0 0-.695-1.081 1.675 1.675 0 0 0-.227-.056 2.397 2.397 0 0 0-1.353.197l-.06.026c-.073.033-.147.068-.22.107a4.664 4.664 0 0 0-.78.526c-1.183.978-2.112 2.601-2.402 4.201a5.914 5.914 0 0 0-.093 1c0 .106 0 .229.012.337.021.5.166.989.425 1.43.113.182.258.346.43.485.268.082.554.106.835.068a3.013 3.013 0 0 0 1.03-.342c.057-.03.117-.064.174-.099l.044-.027C7.934 9.481 9.25 7.165 9.335 5.1Z" fill="#000"/><path d="M8.863.82C6.884.616 5.274 2.117 4.2 3.465 2.65 5.56 1.665 8.21 2.202 10.745c.176.705.528 1.413 1.17 1.858-.656-.44-1.036-1.147-1.218-1.858-.496-2.075.127-4.256 1.164-6.112C4.426 2.8 6.311.57 8.863.82Z" fill="#F5F5F5"/><path opacity=".35" d="m7.364 5.724-.658-.348 1.272-.993.657.348-1.271.993ZM7.768 5.953c-.337-.218-.92-.054-1.416.089-.119.037-.225.069-.323.096a.524.524 0 0 0-.049.21c0 .351.325.248 1.031.043.238-.075.482-.134.73-.176.021.178.156.34.684.085l-.657-.347Z" fill="#000"/><path opacity=".45" d="m6.139 10.517-.658-.348v-.71l.658.347v.711Z" fill="#000"/><path opacity=".35" d="M7.256 7.823c0 .282-.231.535-.575.718-.541.291-.762.053-.812-.178L5.753 8.3c.095-.026.185-.062.27-.108a1.11 1.11 0 0 0 .535-.519c.403-.121.698-.168.698.149ZM4.808 9.56a.46.46 0 0 0-.24-.053.934.934 0 0 1-.034-.113l-.66-.348c.017.105.06.205.123.294a.783.783 0 0 0 .245.22l.656.348a.262.262 0 0 0 .022-.188.282.282 0 0 0-.112-.16Z" fill="#000"/><path d="M7.012 6.392c-.706.212-1.03.308-1.03-.042a.524.524 0 0 1 .048-.21c-.482.135-.706.153-.706-.138 0-.215.158-.478.594-.71.464-.248.723-.19.788.084l1.272-.99c0-.015-.01-.029-.018-.044a.85.85 0 0 0 .226-.079l-.525-.287-.05-.027h-.008a.96.96 0 0 0-.499-.076c-.228.023-.45.077-.66.162v-.017l.657-.35-.657-.344-.445.238-.604.32v.71c-.891.595-1.447 1.37-1.447 2.21 0 .381.112.598.295.708h.008c.016.01.032.017.049.025l.55.283a.343.343 0 0 0-.03-.221c.175-.02.348-.055.516-.103.668-.185 1.262-.476 1.262-.022a.502.502 0 0 1-.04.199c.405-.124.698-.168.698.149 0 .282-.232.534-.575.718-.542.29-.762.053-.812-.179l-.116-.061-.542-.287-1.337 1.037.657.348a.97.97 0 0 0 .1.255c.294-.01.583-.075.848-.192v.287l1.04-.13v-.71C7.418 8.3 8.04 7.48 8.04 6.626a1.053 1.053 0 0 0-.074-.429 3.994 3.994 0 0 0-.954.196Z" fill="#407BFF"/><path opacity=".15" d="M7.012 6.392c-.706.212-1.03.308-1.03-.042a.524.524 0 0 1 .048-.21c-.482.135-.706.153-.706-.138 0-.215.158-.478.594-.71.464-.248.723-.19.788.084l1.272-.99c0-.015-.01-.029-.018-.044a.85.85 0 0 0 .226-.079l-.525-.287-.05-.027h-.008a.96.96 0 0 0-.499-.076c-.228.023-.45.077-.66.162v-.017l.657-.35-.657-.344-.445.238-.604.32v.71c-.891.595-1.447 1.37-1.447 2.21 0 .381.112.598.295.708h.008c.016.01.032.017.049.025l.55.283a.343.343 0 0 0-.03-.221c.175-.02.348-.055.516-.103.668-.185 1.262-.476 1.262-.022a.502.502 0 0 1-.04.199c.405-.124.698-.168.698.149 0 .282-.232.534-.575.718-.542.29-.762.053-.812-.179l-.116-.061-.542-.287-1.337 1.037.657.348a.97.97 0 0 0 .1.255c.294-.01.583-.075.848-.192v.287l1.04-.13v-.71C7.418 8.3 8.04 7.48 8.04 6.626a1.053 1.053 0 0 0-.074-.429 3.994 3.994 0 0 0-.954.196Z" fill="#000"/><path d="M5.4 4.594c-.501.348-.908.797-1.188 1.312a2.097 2.097 0 0 0-.226.822 1.31 1.31 0 0 0 .024.424c.026.142.11.27.233.359a.589.589 0 0 1-.27-.35 1.366 1.366 0 0 1-.052-.435c.012-.294.088-.583.224-.85a2.91 2.91 0 0 1 .541-.722c.213-.212.452-.4.713-.56Z" fill="#000" opacity=".2"/><path d="M7.968 6.199a3.994 3.994 0 0 0-.956.195c-.706.212-1.03.309-1.03-.042a.524.524 0 0 1 .048-.21c.118-.214.308-.387.541-.496.464-.247.724-.188.789.086l1.271-.99a.68.68 0 0 0-.269-.378.792.792 0 0 0-.468-.142 2.15 2.15 0 0 0-.794.17v-.717l-.656.346-.391.208v.71c-.892.594-1.448 1.37-1.448 2.207-.005.158.022.316.08.466.198.45.736.387 1.304.235.2-.055.393-.124.564-.171.406-.124.699-.168.699.149 0 .282-.232.535-.575.718-.542.29-.762.053-.812-.178L4.528 9.4a.97.97 0 0 0 .1.255c.175.299.486.381.849.337.227-.032.448-.093.657-.18v.71l1.039-.55V9.26c.901-.607 1.522-1.426 1.522-2.281.005-.618-.314-.788-.727-.78Z" fill="#407BFF"/><path d="M7.969 6.198a3.994 3.994 0 0 0-.956.196c-.707.212-1.031.308-1.031-.042a.524.524 0 0 1 .048-.21c.119-.214.308-.388.542-.496.464-.247.723-.188.788.086l1.272-.991a.68.68 0 0 0-.27-.378.792.792 0 0 0-.467-.14 2.15 2.15 0 0 0-.795.169v-.717l-.656.345-.39.208v.71c-.892.594-1.448 1.37-1.448 2.208-.006.158.021.316.08.465.197.45.736.388 1.304.236.199-.055.392-.124.564-.171.406-.124.698-.169.698.148 0 .283-.231.535-.575.719-.541.29-.762.053-.812-.179L4.53 9.401a.97.97 0 0 0 .1.255c.174.298.486.381.848.337.227-.032.449-.093.658-.181v.71l1.039-.55v-.714c.9-.606 1.521-1.425 1.521-2.28.006-.619-.313-.788-.726-.78Z" fill="#fff" opacity=".1"/><path opacity=".1" d="m5.777 8.434-.82.635.91.836c.09-.027.18-.058.271-.095v.343l.255.232.784-.414v-.248l-1.4-1.29ZM7.968 6.198a3.994 3.994 0 0 0-.957.196l-.228.068 1.643 1.503c.174-.306.267-.646.27-.99a1.299 1.299 0 0 0-.029-.29l-.52-.477a1.072 1.072 0 0 0-.18-.01ZM6.191 5.92a1.58 1.58 0 0 1 .388-.277c.464-.247.724-.188.789.086l.135-.11-1.447-1.326v.652c-.179.119-.348.25-.506.39l.641.586ZM7.453 4.272a3.37 3.37 0 0 0-.349.11v-.43l-.193-.181-.467.247-.08.042 1.44 1.32.465-.363-.816-.745ZM5.254 7.95l-.629-.574c.01.079.03.157.06.231a.547.547 0 0 0 .225.255.625.625 0 0 0 .344.088Z" fill="#fff"/><path d="m6.056 4.942-.658-.348v-.71l.658.348v.71Z" fill="#407BFF"/><path opacity=".35" d="m6.056 4.942-.658-.348v-.71l.658.348v.71Z" fill="#000"/><path d="M7.178 9.256s.038-.026.102-.075c.04-.027.078-.056.115-.086.043-.035.094-.072.146-.117.051-.044.108-.091.165-.145l.086-.081.088-.088c.03-.03.06-.06.088-.093.029-.032.06-.065.088-.098.056-.068.114-.136.164-.21.05-.072.1-.145.147-.218.044-.073.084-.148.12-.225.037-.073.063-.147.093-.216.01-.036.021-.07.032-.104l.016-.05c0-.016.009-.032.011-.048.015-.063.03-.124.037-.173.007-.05.016-.098.017-.135 0-.076.007-.124.007-.124v.124a1.121 1.121 0 0 1-.012.136c-.006.059-.016.118-.03.176 0 .016 0 .032-.01.048-.011.016-.01.033-.016.05l-.03.106a2.44 2.44 0 0 1-.356.667c-.056.071-.11.143-.167.21-.028.034-.06.067-.088.099l-.089.093-.09.088-.09.08c-.057.052-.116.098-.17.141-.052.044-.103.08-.148.114s-.085.06-.118.083l-.108.07Z" fill="#fff"/><path d="m6.056 4.234 1.049-.559v.71l-.07-.595-.979.444ZM6.14 9.809l.055.617.983-.456-1.039.55v-.711Z" fill="#FAFAFA"/><path d="M9.341 1.454 9.43.397l.088 1.057 1.154.08-1.154.08-.088 1.057-.088-1.056-1.153-.08 1.153-.081ZM10.309 2.35l.042-.513.043.513.559.038-.56.04-.043.511-.041-.511-.56-.04.56-.038Z" fill="#fff"/></svg>