<svg width="181" height="180" fill="none" xmlns="http://www.w3.org/2000/svg"><path d="m11.296 46.185 9.39 96.24M18.839 123.612l-3.921-4.411" stroke="#263238" stroke-width=".23" stroke-linecap="round" stroke-linejoin="round"/><path d="M16.21 120.641a5.438 5.438 0 0 0-.455-2.126 5.117 5.117 0 0 0-1.238-1.735c-1.094-1.044-6.847-3.642-7.392-1.465-.609 2.368 5.295 6.986 9.084 5.326Z" fill="#92E3A9" stroke="#263238" stroke-width=".23" stroke-miterlimit="10"/><path d="m16.21 120.637-5.476-3.647M19.814 133.55l-3.826-3.404" stroke="#263238" stroke-width=".23" stroke-linecap="round" stroke-linejoin="round"/><path d="M17.28 131.591a5.45 5.45 0 0 0-.45-2.125 5.128 5.128 0 0 0-1.23-1.736c-1.094-1.045-6.847-3.643-7.393-1.466-.609 2.348 5.28 6.982 9.073 5.327Z" fill="#92E3A9" stroke="#263238" stroke-width=".23" stroke-miterlimit="10"/><path d="m17.281 131.586-5.477-3.651M16.173 96.213l-3.865-3.72" stroke="#263238" stroke-width=".23" stroke-linecap="round" stroke-linejoin="round"/><path d="M13.605 93.93a5.454 5.454 0 0 0-.457-2.127 5.132 5.132 0 0 0-1.238-1.734c-1.094-1.044-6.847-3.642-7.392-1.465-.594 2.364 5.295 6.982 9.087 5.326Z" fill="#92E3A9" stroke="#263238" stroke-width=".23" stroke-miterlimit="10"/><path d="M13.605 93.933 8.13 90.287M17.254 107.851l-3.876-4.412" stroke="#263238" stroke-width=".23" stroke-linecap="round" stroke-linejoin="round"/><path d="M14.674 104.884a5.462 5.462 0 0 0-.457-2.129 5.128 5.128 0 0 0-1.238-1.736c-1.094-1.045-6.843-3.643-7.392-1.466-.583 2.348 5.295 6.986 9.087 5.331Z" fill="#92E3A9" stroke="#263238" stroke-width=".23" stroke-miterlimit="10"/><path d="m14.672 104.883-5.477-3.651M14.453 78.942l-3.88-4.23" stroke="#263238" stroke-width=".23" stroke-linecap="round" stroke-linejoin="round"/><path d="M11.867 76.157a5.452 5.452 0 0 0-.457-2.127 5.134 5.134 0 0 0-1.238-1.734c-1.09-1.044-6.843-3.643-7.388-1.465-.595 2.355 5.29 6.981 9.083 5.326Z" fill="#92E3A9" stroke="#263238" stroke-width=".23" stroke-miterlimit="10"/><path d="M11.87 76.156 6.395 72.51M12.586 59.929l-3.754-3.072" stroke="#263238" stroke-width=".23" stroke-linecap="round" stroke-linejoin="round"/><path d="M10.127 58.298a5.45 5.45 0 0 0-.457-2.127 5.13 5.13 0 0 0-1.239-1.734c-1.094-1.045-6.847-3.643-7.392-1.466-.579 2.356 5.296 6.982 9.088 5.327Z" fill="#92E3A9" stroke="#263238" stroke-width=".23" stroke-miterlimit="10"/><path d="m10.125 58.297-5.477-3.65M18.457 117.538l3.24-5.646" stroke="#263238" stroke-width=".23" stroke-linecap="round" stroke-linejoin="round"/><path d="M20.709 113.589a5.515 5.515 0 0 1 .035-2.184 5.33 5.33 0 0 1 .877-1.972c.867-1.263 5.995-5.063 6.95-3.064 1.032 2.173-3.831 8.001-7.862 7.22Z" fill="#92E3A9" stroke="#263238" stroke-width=".23" stroke-miterlimit="10"/><path d="m20.707 113.586 3.853-3.869M15.648 88.734l3.236-5.646" stroke="#263238" stroke-width=".23" stroke-linecap="round" stroke-linejoin="round"/><path d="M17.896 84.78a5.506 5.506 0 0 1 .036-2.183 5.319 5.319 0 0 1 .877-1.97c.87-1.263 4.882-4.428 5.832-2.429 1.037 2.178-2.714 7.366-6.745 6.581Z" fill="#92E3A9" stroke="#263238" stroke-width=".23" stroke-miterlimit="10"/><path d="m17.894 84.783 4.932-5.04M14.41 76.077l3.24-5.646" stroke="#263238" stroke-width=".23" stroke-linecap="round" stroke-linejoin="round"/><path d="M16.662 72.128a5.512 5.512 0 0 1 .036-2.183c.157-.717.456-1.39.876-1.973.867-1.263 5.995-5.063 6.95-3.064 1.036 2.186-3.831 8.001-7.862 7.22Z" fill="#92E3A9" stroke="#263238" stroke-width=".23" stroke-miterlimit="10"/><path d="m16.664 72.127 4.931-5.043M12.601 57.523l3.236-5.646" stroke="#263238" stroke-width=".23" stroke-linecap="round" stroke-linejoin="round"/><path d="M14.846 53.57a5.512 5.512 0 0 1 .035-2.184c.158-.717.457-1.39.877-1.973.87-1.263 5.999-5.063 6.949-3.064 1.045 2.174-3.823 8.002-7.861 7.22Z" fill="#92E3A9" stroke="#263238" stroke-width=".23" stroke-miterlimit="10"/><path d="m14.851 53.572 4.932-5.043" stroke="#263238" stroke-width=".23" stroke-linecap="round" stroke-linejoin="round"/><path d="M11.217 45.64a5.507 5.507 0 0 1 .035-2.182 5.318 5.318 0 0 1 .877-1.97c.867-1.263 5.995-5.064 6.949-3.064 1.037 2.185-3.83 8.025-7.861 7.216Z" fill="#92E3A9" stroke="#263238" stroke-width=".23" stroke-miterlimit="10"/><path d="m11.214 45.654 4.932-5.039" stroke="#263238" stroke-width=".23" stroke-linecap="round" stroke-linejoin="round"/><path d="M11.5 45.873a4.53 4.53 0 0 1-2.035-.262 4.778 4.778 0 0 1-1.75-1.142c-1.063-1.056-4.06-6.92-2.1-7.73 2.13-.854 7.04 4.93 5.885 9.134Z" fill="#92E3A9" stroke="#263238" stroke-width=".23" stroke-miterlimit="10"/><path d="m11.503 45.875-4.167-5.772M25.367 20.252V141.96M36.068 59.44l-9.338 96.247M28.704 136.023l-2.161-2.642" stroke="#263238" stroke-width=".23" stroke-linecap="round" stroke-linejoin="round"/><path d="M26.54 133.384a5.494 5.494 0 0 0-.036-2.182 5.311 5.311 0 0 0-.88-1.97c-.866-1.259-5.999-5.071-6.949-3.048-1.033 2.162 3.834 7.99 7.865 7.2Z" fill="#92E3A9" stroke="#263238" stroke-width=".23" stroke-miterlimit="10"/><path d="m26.542 133.379-4.656-4.776M31.342 108.547l-3.206-2.866" stroke="#263238" stroke-width=".23" stroke-linecap="round" stroke-linejoin="round"/><path d="M29.133 106.674a5.499 5.499 0 0 0-.037-2.183 5.311 5.311 0 0 0-.879-1.97c-.866-1.263-5.999-5.075-6.941-3.052-1.045 2.166 3.826 7.99 7.857 7.205Z" fill="#92E3A9" stroke="#263238" stroke-width=".23" stroke-miterlimit="10"/><path d="M29.136 106.676 24.48 101.9M30.322 121.569l-3.24-5.642" stroke="#263238" stroke-width=".23" stroke-linecap="round" stroke-linejoin="round"/><path d="M28.088 117.616a5.507 5.507 0 0 0-.036-2.182 5.313 5.313 0 0 0-.876-1.97c-.87-1.259-6-5.059-6.953-3.06-1.052 2.174 3.819 8.002 7.865 7.212Z" fill="#92E3A9" stroke="#263238" stroke-width=".23" stroke-miterlimit="10"/><path d="m28.07 117.617-4.656-4.775M32.967 91.013l-3.092-3.812" stroke="#263238" stroke-width=".23" stroke-linecap="round" stroke-linejoin="round"/><path d="M30.862 88.894a5.508 5.508 0 0 0-.037-2.185 5.318 5.318 0 0 0-.88-1.972c-.866-1.258-5.998-5.059-6.948-3.06-1.038 2.178 3.834 8.002 7.865 7.217Z" fill="#92E3A9" stroke="#263238" stroke-width=".23" stroke-miterlimit="10"/><path d="m30.858 88.895-4.655-4.78M34.587 74.296l-2.986-4.958" stroke="#263238" stroke-width=".23" stroke-linecap="round" stroke-linejoin="round"/><path d="M32.596 71.03a5.518 5.518 0 0 0-.039-2.181 5.33 5.33 0 0 0-.877-1.97c-.87-1.263-5.999-5.06-6.95-3.06-1.036 2.173 3.835 7.997 7.866 7.212Z" fill="#92E3A9" stroke="#263238" stroke-width=".23" stroke-miterlimit="10"/><path d="m32.592 71.035-4.659-4.775M29.343 130.837l4.255-4.812" stroke="#263238" stroke-width=".23" stroke-linecap="round" stroke-linejoin="round"/><path d="M32.304 127.471a5.468 5.468 0 0 1 .457-2.129A5.15 5.15 0 0 1 34 123.606c1.09-1.044 6.843-3.642 7.388-1.469.594 2.355-5.291 6.985-9.084 5.334Z" fill="#92E3A9" stroke="#263238" stroke-width=".23" stroke-miterlimit="10"/><path d="m32.304 127.468 5.799-3.849M32.136 102.033l4.255-4.813" stroke="#263238" stroke-width=".23" stroke-linecap="round" stroke-linejoin="round"/><path d="M35.101 98.662a5.45 5.45 0 0 1 .454-2.128 5.13 5.13 0 0 1 1.238-1.737c1.094-1.044 6.843-3.642 7.392-1.469.594 2.36-5.291 6.99-9.084 5.334Z" fill="#92E3A9" stroke="#263238" stroke-width=".23" stroke-miterlimit="10"/><path d="m35.101 98.663 5.795-3.849M33.367 89.376l4.254-4.812" stroke="#263238" stroke-width=".23" stroke-linecap="round" stroke-linejoin="round"/><path d="M36.324 86.006a5.462 5.462 0 0 1 .457-2.128 5.14 5.14 0 0 1 1.239-1.737c1.09-1.044 6.843-3.642 7.388-1.469.594 2.356-5.292 6.99-9.084 5.334Z" fill="#92E3A9" stroke="#263238" stroke-width=".23" stroke-miterlimit="10"/><path d="m36.324 86.003 5.798-3.845M35.117 69.867l4.303-3.861" stroke="#263238" stroke-width=".23" stroke-linecap="round" stroke-linejoin="round"/><path d="M38.129 67.448a5.468 5.468 0 0 1 .455-2.128 5.146 5.146 0 0 1 1.236-1.737c1.094-1.045 6.843-3.643 7.392-1.47.594 2.356-5.291 7.002-9.084 5.335Z" fill="#92E3A9" stroke="#263238" stroke-width=".23" stroke-miterlimit="10"/><path d="m38.129 67.448 5.794-3.849" stroke="#263238" stroke-width=".23" stroke-miterlimit="10"/><path d="M36.097 58.9a5.45 5.45 0 0 1 .454-2.128 5.13 5.13 0 0 1 1.238-1.736c1.094-1.044 6.843-3.643 7.392-1.47.594 2.356-5.291 6.986-9.084 5.335Z" fill="#92E3A9" stroke="#263238" stroke-width=".23" stroke-miterlimit="10"/><path d="m36.097 58.901 5.795-3.849" stroke="#263238" stroke-width=".23" stroke-linecap="round" stroke-linejoin="round"/><path d="M36.336 59.182a4.63 4.63 0 0 1-1.926-.71 4.987 4.987 0 0 1-1.48-1.496c-.856-1.27-2.65-7.657-.591-8.013 2.24-.385 5.93 6.358 3.997 10.22Z" fill="#92E3A9" stroke="#263238" stroke-width=".23" stroke-miterlimit="10"/><path d="m36.334 59.18-2.971-6.569M25.207 123.435l-3.52-5.035" stroke="#263238" stroke-width=".23" stroke-linecap="round" stroke-linejoin="round"/><path d="M22.837 119.982a5.503 5.503 0 0 0-.246-2.176 5.243 5.243 0 0 0-1.068-1.871c-.983-1.158-6.453-4.371-7.19-2.275-.837 2.291 4.571 7.549 8.504 6.322Z" fill="#92E3A9" stroke="#263238" stroke-width=".23" stroke-miterlimit="10"/><path d="m22.836 119.981-5.094-4.237M25.332 99.163l-3.645-3.63" stroke="#263238" stroke-width=".23" stroke-linecap="round" stroke-linejoin="round"/><path d="M22.837 97.109a5.498 5.498 0 0 0-.246-2.176 5.239 5.239 0 0 0-1.068-1.871c-.983-1.158-6.453-4.371-7.19-2.279-.837 2.295 4.571 7.552 8.504 6.326Z" fill="#92E3A9" stroke="#263238" stroke-width=".23" stroke-miterlimit="10"/><path d="m22.836 97.11-5.094-4.237M25.453 73.939l-3.766-5.258" stroke="#263238" stroke-width=".23" stroke-linecap="round" stroke-linejoin="round"/><path d="M22.837 70.254a5.499 5.499 0 0 0-.246-2.177 5.24 5.24 0 0 0-1.068-1.87c-.983-1.158-6.453-4.372-7.19-2.28-.837 2.295 4.571 7.553 8.504 6.327Z" fill="#92E3A9" stroke="#263238" stroke-width=".23" stroke-miterlimit="10"/><path d="m22.836 70.259-5.094-4.238M25.207 54.198l-3.52-3.395" stroke="#263238" stroke-width=".23" stroke-linecap="round" stroke-linejoin="round"/><path d="M22.837 52.383a5.498 5.498 0 0 0-.246-2.177 5.24 5.24 0 0 0-1.068-1.87c-.983-1.158-6.453-4.372-7.19-2.28-.837 2.295 4.571 7.553 8.504 6.327Z" fill="#92E3A9" stroke="#263238" stroke-width=".23" stroke-miterlimit="10"/><path d="m22.836 52.38-5.094-4.238M25.414 36.313l-3.653-2.866" stroke="#263238" stroke-width=".23" stroke-linecap="round" stroke-linejoin="round"/><path d="M22.837 34.43a5.499 5.499 0 0 0-.246-2.176 5.24 5.24 0 0 0-1.068-1.871c-.983-1.162-6.453-4.371-7.19-2.279-.837 2.295 4.571 7.552 8.504 6.326Z" fill="#92E3A9" stroke="#263238" stroke-width=".23" stroke-miterlimit="10"/><path d="m22.836 34.427-5.094-4.238M26.105 129.513l3.04-4.125" stroke="#263238" stroke-width=".23" stroke-linecap="round" stroke-linejoin="round"/><path d="M27.994 126.964a5.489 5.489 0 0 1 .243-2.176 5.232 5.232 0 0 1 1.067-1.871c.988-1.157 6.457-4.371 7.21-2.278.818 2.303-4.587 7.564-8.52 6.325Z" fill="#92E3A9" stroke="#263238" stroke-width=".23" stroke-miterlimit="10"/><path d="m27.996 126.966 5.393-4.468M25.375 94.267l3.77-5.257" stroke="#263238" stroke-width=".23" stroke-linecap="round" stroke-linejoin="round"/><path d="M27.994 90.59a5.486 5.486 0 0 1 .243-2.176 5.228 5.228 0 0 1 1.067-1.871c.988-1.162 6.457-4.371 7.21-2.279.818 2.295-4.587 7.552-8.52 6.326Z" fill="#92E3A9" stroke="#263238" stroke-width=".23" stroke-miterlimit="10"/><path d="m27.996 90.59 5.393-4.467M25.375 76.31l3.77-5.254" stroke="#263238" stroke-width=".23" stroke-linecap="round" stroke-linejoin="round"/><path d="M27.997 72.628c-.064-.732.02-1.47.246-2.165a5.218 5.218 0 0 1 1.063-1.862c.988-1.161 6.457-4.37 7.21-2.278.818 2.278-4.587 7.532-8.52 6.305Z" fill="#92E3A9" stroke="#263238" stroke-width=".23" stroke-miterlimit="10"/><path d="m27.996 72.63 5.393-4.464M25.375 52.583l3.77-5.257" stroke="#263238" stroke-width=".23" stroke-linecap="round" stroke-linejoin="round"/><path d="M27.994 48.908a5.486 5.486 0 0 1 .243-2.176 5.228 5.228 0 0 1 1.067-1.871c.988-1.158 6.457-4.371 7.21-2.275.818 2.291-4.587 7.548-8.52 6.322Z" fill="#92E3A9" stroke="#263238" stroke-width=".23" stroke-miterlimit="10"/><path d="m27.996 48.903 5.393-4.464M25.535 32.101l3.694-3.084" stroke="#263238" stroke-width=".23" stroke-linecap="round" stroke-linejoin="round"/><path d="M27.994 30.264a5.478 5.478 0 0 1 .243-2.177 5.22 5.22 0 0 1 1.067-1.87c.988-1.162 6.457-4.376 7.21-2.28.818 2.28-4.587 7.54-8.52 6.327Z" fill="#92E3A9" stroke="#263238" stroke-width=".23" stroke-miterlimit="10"/><path d="m27.996 30.247 5.393-4.464" stroke="#263238" stroke-width=".23" stroke-linecap="round" stroke-linejoin="round"/><path d="M25.15 21.972a5.486 5.486 0 0 1 .243-2.176 5.225 5.225 0 0 1 1.067-1.87c.984-1.158 6.457-4.372 7.191-2.28.837 2.295-4.568 7.553-8.5 6.326Z" fill="#92E3A9" stroke="#263238" stroke-width=".23" stroke-miterlimit="10"/><path d="m25.148 21.974 5.394-4.468" stroke="#263238" stroke-width=".23" stroke-linecap="round" stroke-linejoin="round"/><path d="M25.41 22.22a4.58 4.58 0 0 1-1.99-.491 4.888 4.888 0 0 1-1.621-1.326c-.973-1.17-3.387-7.321-1.359-7.904 2.203-.632 6.514 5.666 4.97 9.721Z" fill="#92E3A9" stroke="#263238" stroke-width=".23" stroke-miterlimit="10"/><path d="m25.412 22.222-3.584-6.205" stroke="#263238" stroke-width=".23" stroke-linecap="round" stroke-linejoin="round"/><path d="M30.05 173.522H17.993l-1.506-32.552h15.068l-1.507 32.552Z" fill="#263238" stroke="#263238" stroke-width=".23" stroke-linecap="round" stroke-linejoin="round"/><path d="M55.898 167.631h-4.879v5.892h4.879v-5.892Z" fill="#E8E8E8" stroke="#263238" stroke-width=".23" stroke-linejoin="round"/><path d="M60.847 167.631h-4.879v5.892h4.88v-5.892Z" fill="#CFCFCF" stroke="#263238" stroke-width=".23" stroke-linejoin="round"/><path d="M65.8 167.631h-4.878v5.892H65.8v-5.892Z" fill="#333" stroke="#263238" stroke-width=".23" stroke-linejoin="round"/><path d="M70.757 167.631h-4.879v5.892h4.88v-5.892Z" fill="#7D7D7D" stroke="#263238" stroke-width=".23" stroke-linejoin="round"/><path d="M75.71 167.631h-4.878v5.892h4.878v-5.892Z" fill="#D4D4D4" stroke="#263238" stroke-width=".23" stroke-linejoin="round"/><path d="M80.663 167.631h-4.878v5.892h4.879v-5.892Z" fill="#CFCFCF" stroke="#263238" stroke-width=".23" stroke-linejoin="round"/><path d="M85.613 167.631h-4.879v5.892h4.879v-5.892Z" fill="#E8E8E8" stroke="#263238" stroke-width=".23" stroke-linejoin="round"/><path d="M90.57 167.631H85.69v5.892h4.879v-5.892ZM95.527 167.631h-4.879v5.892h4.879v-5.892Z" fill="#fff" stroke="#263238" stroke-width=".23" stroke-linejoin="round"/><path d="M100.48 167.631h-4.879v5.892h4.879v-5.892Z" fill="#263238"/><path d="M105.429 167.631h-4.879v5.892h4.879v-5.892ZM110.382 167.631h-4.878v5.892h4.878v-5.892Z" fill="#fff" stroke="#263238" stroke-width=".23" stroke-linejoin="round"/><path d="M59.417 161.56H54.54v5.893h4.878v-5.893Z" fill="#E8E8E8" stroke="#263238" stroke-width=".23" stroke-linejoin="round"/><path d="M64.37 161.56h-4.878v5.893h4.879v-5.893Z" fill="#CFCFCF" stroke="#263238" stroke-width=".23" stroke-linejoin="round"/><path d="M69.328 161.56h-4.88v5.893h4.88v-5.893Z" fill="#333" stroke="#263238" stroke-width=".23" stroke-linejoin="round"/><path d="M74.28 161.56h-4.878v5.893h4.879v-5.893Z" fill="#7D7D7D" stroke="#263238" stroke-width=".23" stroke-linejoin="round"/><path d="M79.23 161.56H74.35v5.893h4.879v-5.893Z" fill="#D4D4D4" stroke="#263238" stroke-width=".23" stroke-linejoin="round"/><path d="M84.183 161.56h-4.879v5.893h4.88v-5.893Z" fill="#CFCFCF" stroke="#263238" stroke-width=".23" stroke-linejoin="round"/><path d="M89.136 161.56h-4.879v5.893h4.88v-5.893Z" fill="#E8E8E8" stroke="#263238" stroke-width=".23" stroke-linejoin="round"/><path d="M94.093 161.56h-4.879v5.893h4.88v-5.893ZM99.042 161.56h-4.878v5.893h4.878v-5.893Z" fill="#fff" stroke="#263238" stroke-width=".23" stroke-linejoin="round"/><path d="M103.999 161.56h-4.878v5.893h4.878v-5.893Z" fill="#263238"/><path d="M108.953 161.56h-4.879v5.893h4.879v-5.893ZM113.91 161.56h-4.879v5.893h4.879v-5.893Z" fill="#fff" stroke="#263238" stroke-width=".23" stroke-linejoin="round"/><path d="M59.167 155.486H54.29v5.893h4.878v-5.893Z" fill="#E8E8E8" stroke="#263238" stroke-width=".23" stroke-linejoin="round"/><path d="M64.12 155.486h-4.878v5.893h4.879v-5.893Z" fill="#CFCFCF" stroke="#263238" stroke-width=".23" stroke-linejoin="round"/><path d="M69.07 155.486H64.19v5.893h4.879v-5.893Z" fill="#333" stroke="#263238" stroke-width=".23" stroke-linejoin="round"/><path d="M74.023 155.486h-4.879v5.893h4.879v-5.893Z" fill="#7D7D7D" stroke="#263238" stroke-width=".23" stroke-linejoin="round"/><path d="M78.98 155.486H74.1v5.893h4.879v-5.893Z" fill="#D4D4D4" stroke="#263238" stroke-width=".23" stroke-linejoin="round"/><path d="M83.933 155.486h-4.879v5.893h4.88v-5.893Z" fill="#CFCFCF" stroke="#263238" stroke-width=".23" stroke-linejoin="round"/><path d="M88.882 155.486h-4.879v5.893h4.88v-5.893Z" fill="#E8E8E8" stroke="#263238" stroke-width=".23" stroke-linejoin="round"/><path d="M93.84 155.486h-4.88v5.893h4.88v-5.893ZM98.796 155.486h-4.878v5.893h4.878v-5.893Z" fill="#fff" stroke="#263238" stroke-width=".23" stroke-linejoin="round"/><path d="M103.749 155.486h-4.878v5.893h4.878v-5.893Z" fill="#263238"/><path d="M108.703 155.486h-4.879v5.893h4.879v-5.893ZM113.656 155.486h-4.879v5.893h4.879v-5.893Z" fill="#fff" stroke="#263238" stroke-width=".23" stroke-linejoin="round"/><path d="M58.913 149.42h-4.878v5.892h4.879v-5.892Z" fill="#E8E8E8" stroke="#263238" stroke-width=".23" stroke-linejoin="round"/><path d="M63.867 149.42h-4.88v5.892h4.88v-5.892Z" fill="#CFCFCF" stroke="#263238" stroke-width=".23" stroke-linejoin="round"/><path d="M68.82 149.42H63.94v5.892h4.879v-5.892Z" fill="#333" stroke="#263238" stroke-width=".23" stroke-linejoin="round"/><path d="M73.777 149.42h-4.879v5.892h4.879v-5.892Z" fill="#7D7D7D" stroke="#263238" stroke-width=".23" stroke-linejoin="round"/><path d="M78.726 149.42h-4.879v5.892h4.879v-5.892Z" fill="#D4D4D4" stroke="#263238" stroke-width=".23" stroke-linejoin="round"/><path d="M83.68 149.42H78.8v5.892h4.88v-5.892Z" fill="#CFCFCF" stroke="#263238" stroke-width=".23" stroke-linejoin="round"/><path d="M88.636 149.42h-4.879v5.892h4.88v-5.892Z" fill="#E8E8E8" stroke="#263238" stroke-width=".23" stroke-linejoin="round"/><path d="M93.59 149.42h-4.88v5.892h4.88v-5.892ZM98.546 149.42h-4.878v5.892h4.878v-5.892Z" fill="#fff" stroke="#263238" stroke-width=".23" stroke-linejoin="round"/><path d="M103.496 149.42h-4.88v5.892h4.88v-5.892Z" fill="#263238"/><path d="M108.449 149.42h-4.879v5.892h4.879v-5.892ZM113.402 149.42h-4.879v5.892h4.879v-5.892Z" fill="#fff" stroke="#263238" stroke-width=".23" stroke-linejoin="round"/><path d="M54.636 143.342h-4.879v5.892h4.88v-5.892Z" fill="#E8E8E8" stroke="#263238" stroke-width=".23" stroke-linejoin="round"/><path d="M59.593 143.342h-4.879v5.892h4.88v-5.892Z" fill="#CFCFCF" stroke="#263238" stroke-width=".23" stroke-linejoin="round"/><path d="M64.546 143.342h-4.878v5.892h4.878v-5.892Z" fill="#333" stroke="#263238" stroke-width=".23" stroke-linejoin="round"/><path d="M69.5 143.342h-4.88v5.892h4.88v-5.892Z" fill="#7D7D7D" stroke="#263238" stroke-width=".23" stroke-linejoin="round"/><path d="M74.449 143.342h-4.88v5.892h4.88v-5.892Z" fill="#D4D4D4" stroke="#263238" stroke-width=".23" stroke-linejoin="round"/><path d="M79.402 143.342h-4.879v5.892h4.879v-5.892Z" fill="#CFCFCF" stroke="#263238" stroke-width=".23" stroke-linejoin="round"/><path d="M84.359 143.342H79.48v5.892h4.879v-5.892Z" fill="#E8E8E8" stroke="#263238" stroke-width=".23" stroke-linejoin="round"/><path d="M89.312 143.342h-4.879v5.892h4.879v-5.892ZM94.261 143.342h-4.879v5.892h4.88v-5.892Z" fill="#fff" stroke="#263238" stroke-width=".23" stroke-linejoin="round"/><path d="M99.218 143.342H94.34v5.892h4.88v-5.892Z" fill="#263238"/><path d="M104.175 143.342h-4.879v5.892h4.879v-5.892ZM109.128 143.342h-4.878v5.892h4.878v-5.892Z" fill="#fff" stroke="#263238" stroke-width=".23" stroke-linejoin="round"/><path d="M55.136 137.267h-4.879v5.893h4.88v-5.893Z" fill="#E8E8E8" stroke="#263238" stroke-width=".23" stroke-linejoin="round"/><path d="M60.093 137.267h-4.879v5.893h4.88v-5.893Z" fill="#CFCFCF" stroke="#263238" stroke-width=".23" stroke-linejoin="round"/><path d="M65.046 137.267h-4.878v5.893h4.878v-5.893Z" fill="#333" stroke="#263238" stroke-width=".23" stroke-linejoin="round"/><path d="M70.003 137.267h-4.878v5.893h4.878v-5.893Z" fill="#7D7D7D" stroke="#263238" stroke-width=".23" stroke-linejoin="round"/><path d="M74.953 137.267h-4.88v5.893h4.88v-5.893Z" fill="#D4D4D4" stroke="#263238" stroke-width=".23" stroke-linejoin="round"/><path d="M79.91 137.267h-4.88v5.893h4.88v-5.893Z" fill="#CFCFCF" stroke="#263238" stroke-width=".23" stroke-linejoin="round"/><path d="M84.863 137.267h-4.879v5.893h4.879v-5.893Z" fill="#E8E8E8" stroke="#263238" stroke-width=".23" stroke-linejoin="round"/><path d="M89.816 137.267h-4.879v5.893h4.879v-5.893ZM94.765 137.267h-4.879v5.893h4.88v-5.893Z" fill="#fff" stroke="#263238" stroke-width=".23" stroke-linejoin="round"/><path d="M99.722 137.267h-4.879v5.893h4.88v-5.893Z" fill="#263238"/><path d="M104.675 137.267h-4.879v5.893h4.879v-5.893ZM109.628 137.267h-4.878v5.893h4.878v-5.893Z" fill="#fff" stroke="#263238" stroke-width=".23" stroke-linejoin="round"/><path d="M60.93 131.197h-4.88v5.893h4.88v-5.893Z" fill="#E8E8E8" stroke="#263238" stroke-width=".23" stroke-linejoin="round"/><path d="M65.882 131.197h-4.879v5.893h4.88v-5.893Z" fill="#CFCFCF" stroke="#263238" stroke-width=".23" stroke-linejoin="round"/><path d="M70.835 131.197h-4.878v5.893h4.878v-5.893Z" fill="#333" stroke="#263238" stroke-width=".23" stroke-linejoin="round"/><path d="M75.788 131.197H70.91v5.893h4.879v-5.893Z" fill="#7D7D7D" stroke="#263238" stroke-width=".23" stroke-linejoin="round"/><path d="M80.742 131.197h-4.88v5.893h4.88v-5.893Z" fill="#D4D4D4" stroke="#263238" stroke-width=".23" stroke-linejoin="round"/><path d="M85.695 131.197h-4.879v5.893h4.879v-5.893Z" fill="#CFCFCF" stroke="#263238" stroke-width=".23" stroke-linejoin="round"/><path d="M90.648 131.197h-4.879v5.893h4.879v-5.893Z" fill="#E8E8E8" stroke="#263238" stroke-width=".23" stroke-linejoin="round"/><path d="M95.601 131.197h-4.879v5.893h4.879v-5.893ZM100.554 131.197h-4.879v5.893h4.879v-5.893Z" fill="#fff" stroke="#263238" stroke-width=".23" stroke-linejoin="round"/><path d="M105.511 131.197h-4.879v5.893h4.879v-5.893Z" fill="#263238"/><path d="M110.464 131.197h-4.878v5.893h4.878v-5.893ZM115.417 131.197h-4.878v5.893h4.878v-5.893Z" fill="#fff" stroke="#263238" stroke-width=".23" stroke-linejoin="round"/><path d="M54.132 125.123h-4.878v5.893h4.878v-5.893Z" fill="#E8E8E8" stroke="#263238" stroke-width=".23" stroke-linejoin="round"/><path d="M59.085 125.123h-4.878v5.893h4.878v-5.893Z" fill="#CFCFCF" stroke="#263238" stroke-width=".23" stroke-linejoin="round"/><path d="M64.038 125.123H59.16v5.893h4.879v-5.893Z" fill="#333" stroke="#263238" stroke-width=".23" stroke-linejoin="round"/><path d="M68.996 125.123h-4.88v5.893h4.88v-5.893Z" fill="#7D7D7D" stroke="#263238" stroke-width=".23" stroke-linejoin="round"/><path d="M73.945 125.123h-4.879v5.893h4.879v-5.893Z" fill="#D4D4D4" stroke="#263238" stroke-width=".23" stroke-linejoin="round"/><path d="M78.898 125.123h-4.879v5.893h4.879v-5.893Z" fill="#CFCFCF" stroke="#263238" stroke-width=".23" stroke-linejoin="round"/><path d="M83.855 125.123h-4.879v5.893h4.879v-5.893Z" fill="#E8E8E8" stroke="#263238" stroke-width=".23" stroke-linejoin="round"/><path d="M88.812 125.123h-4.879v5.893h4.879v-5.893ZM93.761 125.123h-4.879v5.893h4.88v-5.893ZM98.714 125.123h-4.878v5.893h4.878v-5.893Z" fill="#fff" stroke="#263238" stroke-width=".23" stroke-linejoin="round"/><path d="M103.671 125.123h-4.878v5.893h4.878v-5.893Z" fill="#263238"/><path d="M108.624 125.123h-4.878v5.893h4.878v-5.893Z" fill="#fff" stroke="#263238" stroke-width=".23" stroke-linejoin="round"/><path d="M60.421 119.049h-4.878v5.892h4.878v-5.892Z" fill="#E8E8E8" stroke="#263238" stroke-width=".23" stroke-linejoin="round"/><path d="M65.378 119.049H60.5v5.892h4.878v-5.892Z" fill="#CFCFCF" stroke="#263238" stroke-width=".23" stroke-linejoin="round"/><path d="M70.332 119.049h-4.88v5.892h4.88v-5.892Z" fill="#333" stroke="#263238" stroke-width=".23" stroke-linejoin="round"/><path d="M75.285 119.049h-4.88v5.892h4.88v-5.892Z" fill="#7D7D7D" stroke="#263238" stroke-width=".23" stroke-linejoin="round"/><path d="M80.234 119.049h-4.879v5.892h4.879v-5.892Z" fill="#D4D4D4" stroke="#263238" stroke-width=".23" stroke-linejoin="round"/><path d="M85.19 119.049h-4.878v5.892h4.879v-5.892Z" fill="#CFCFCF" stroke="#263238" stroke-width=".23" stroke-linejoin="round"/><path d="M90.148 119.049h-4.879v5.892h4.879v-5.892Z" fill="#E8E8E8" stroke="#263238" stroke-width=".23" stroke-linejoin="round"/><path d="M95.101 119.049h-4.879v5.892h4.879v-5.892ZM100.05 119.049h-4.879v5.892h4.879v-5.892Z" fill="#fff" stroke="#263238" stroke-width=".23" stroke-linejoin="round"/><path d="M105.007 119.049h-4.878v5.892h4.878v-5.892Z" fill="#263238"/><path d="M109.96 119.049h-4.878v5.892h4.878v-5.892ZM114.914 119.049h-4.879v5.892h4.879v-5.892Z" fill="#fff" stroke="#263238" stroke-width=".23" stroke-linejoin="round"/><path d="M60.93 112.974h-4.88v5.893h4.88v-5.893Z" fill="#E8E8E8" stroke="#263238" stroke-width=".23" stroke-linejoin="round"/><path d="M65.882 112.974h-4.879v5.893h4.88v-5.893Z" fill="#CFCFCF" stroke="#263238" stroke-width=".23" stroke-linejoin="round"/><path d="M70.835 112.974h-4.878v5.893h4.878v-5.893Z" fill="#333" stroke="#263238" stroke-width=".23" stroke-linejoin="round"/><path d="M75.788 112.974H70.91v5.893h4.879v-5.893Z" fill="#7D7D7D" stroke="#263238" stroke-width=".23" stroke-linejoin="round"/><path d="M80.742 112.974h-4.88v5.893h4.88v-5.893Z" fill="#D4D4D4" stroke="#263238" stroke-width=".23" stroke-linejoin="round"/><path d="M85.695 112.974h-4.879v5.893h4.879v-5.893Z" fill="#CFCFCF" stroke="#263238" stroke-width=".23" stroke-linejoin="round"/><path d="M90.648 112.974h-4.879v5.893h4.879v-5.893Z" fill="#E8E8E8" stroke="#263238" stroke-width=".23" stroke-linejoin="round"/><path d="M95.601 112.974h-4.879v5.893h4.879v-5.893ZM100.554 112.974h-4.879v5.893h4.879v-5.893Z" fill="#fff" stroke="#263238" stroke-width=".23" stroke-linejoin="round"/><path d="M105.511 112.974h-4.879v5.893h4.879v-5.893Z" fill="#263238"/><path d="M110.464 112.974h-4.878v5.893h4.878v-5.893ZM115.417 112.974h-4.878v5.893h4.878v-5.893Z" fill="#fff" stroke="#263238" stroke-width=".23" stroke-linejoin="round"/><path d="M55.898 106.9h-4.879v5.893h4.879V106.9Z" fill="#E8E8E8" stroke="#263238" stroke-width=".23" stroke-linejoin="round"/><path d="M60.847 106.9h-4.879v5.893h4.88V106.9Z" fill="#CFCFCF" stroke="#263238" stroke-width=".23" stroke-linejoin="round"/><path d="M65.8 106.9h-4.878v5.893H65.8V106.9Z" fill="#333" stroke="#263238" stroke-width=".23" stroke-linejoin="round"/><path d="M70.757 106.9h-4.879v5.893h4.88V106.9Z" fill="#7D7D7D" stroke="#263238" stroke-width=".23" stroke-linejoin="round"/><path d="M75.71 106.9h-4.878v5.893h4.878V106.9Z" fill="#D4D4D4" stroke="#263238" stroke-width=".23" stroke-linejoin="round"/><path d="M80.663 106.9h-4.878v5.893h4.879V106.9Z" fill="#CFCFCF" stroke="#263238" stroke-width=".23" stroke-linejoin="round"/><path d="M85.613 106.9h-4.879v5.893h4.879V106.9Z" fill="#E8E8E8" stroke="#263238" stroke-width=".23" stroke-linejoin="round"/><path d="M90.57 106.9H85.69v5.893h4.879V106.9ZM95.527 106.9h-4.879v5.893h4.879V106.9Z" fill="#fff" stroke="#263238" stroke-width=".23" stroke-linejoin="round"/><path d="M100.48 106.9h-4.879v5.893h4.879V106.9Z" fill="#263238"/><path d="M105.429 106.9h-4.879v5.893h4.879V106.9ZM110.382 106.9h-4.878v5.893h4.878V106.9Z" fill="#fff" stroke="#263238" stroke-width=".23" stroke-linejoin="round"/><path d="M61.43 100.826h-4.88v5.893h4.88v-5.893Z" fill="#E8E8E8" stroke="#263238" stroke-width=".23" stroke-linejoin="round"/><path d="M66.382 100.826h-4.879v5.893h4.88v-5.893Z" fill="#CFCFCF" stroke="#263238" stroke-width=".23" stroke-linejoin="round"/><path d="M71.34 100.826h-4.88v5.893h4.88v-5.893Z" fill="#333" stroke="#263238" stroke-width=".23" stroke-linejoin="round"/><path d="M76.292 100.826h-4.878v5.893h4.878v-5.893Z" fill="#7D7D7D" stroke="#263238" stroke-width=".23" stroke-linejoin="round"/><path d="M81.246 100.826h-4.88v5.893h4.88v-5.893Z" fill="#D4D4D4" stroke="#263238" stroke-width=".23" stroke-linejoin="round"/><path d="M86.199 100.826h-4.88v5.893h4.88v-5.893Z" fill="#CFCFCF" stroke="#263238" stroke-width=".23" stroke-linejoin="round"/><path d="M91.152 100.826h-4.879v5.893h4.879v-5.893Z" fill="#E8E8E8" stroke="#263238" stroke-width=".23" stroke-linejoin="round"/><path d="M96.109 100.826H91.23v5.893h4.879v-5.893ZM101.058 100.826h-4.879v5.893h4.879v-5.893Z" fill="#fff" stroke="#263238" stroke-width=".23" stroke-linejoin="round"/><path d="M106.011 100.826h-4.879v5.893h4.879v-5.893Z" fill="#263238"/><path d="M110.964 100.826h-4.878v5.893h4.878v-5.893ZM115.917 100.826h-4.878v5.893h4.878v-5.893Z" fill="#fff" stroke="#263238" stroke-width=".23" stroke-linejoin="round"/><path d="M60.257 94.756H55.38v5.892h4.878v-5.892Z" fill="#E8E8E8" stroke="#263238" stroke-width=".23" stroke-linejoin="round"/><path d="M65.21 94.756h-4.878v5.892h4.878v-5.892Z" fill="#CFCFCF" stroke="#263238" stroke-width=".23" stroke-linejoin="round"/><path d="M70.167 94.756H65.29v5.892h4.878v-5.892Z" fill="#333" stroke="#263238" stroke-width=".23" stroke-linejoin="round"/><path d="M75.12 94.756h-4.878v5.892h4.879v-5.892Z" fill="#7D7D7D" stroke="#263238" stroke-width=".23" stroke-linejoin="round"/><path d="M80.07 94.756H75.19v5.892h4.879v-5.892Z" fill="#D4D4D4" stroke="#263238" stroke-width=".23" stroke-linejoin="round"/><path d="M85.023 94.756h-4.879v5.892h4.879v-5.892Z" fill="#CFCFCF" stroke="#263238" stroke-width=".23" stroke-linejoin="round"/><path d="M89.976 94.756h-4.879v5.892h4.879v-5.892Z" fill="#E8E8E8" stroke="#263238" stroke-width=".23" stroke-linejoin="round"/><path d="M94.933 94.756h-4.879v5.892h4.88v-5.892ZM99.886 94.756h-4.879v5.892h4.88v-5.892Z" fill="#fff" stroke="#263238" stroke-width=".23" stroke-linejoin="round"/><path d="M104.839 94.756h-4.878v5.892h4.878v-5.892Z" fill="#263238"/><path d="M109.792 94.756h-4.878v5.892h4.878v-5.892ZM114.749 94.756h-4.878v5.892h4.878v-5.892Z" fill="#fff" stroke="#263238" stroke-width=".23" stroke-linejoin="round"/><path d="M59.917 88.681H55.04v5.893h4.878v-5.893Z" fill="#E8E8E8" stroke="#263238" stroke-width=".23" stroke-linejoin="round"/><path d="M64.87 88.681h-4.878v5.893h4.879v-5.893Z" fill="#CFCFCF" stroke="#263238" stroke-width=".23" stroke-linejoin="round"/><path d="M69.828 88.681h-4.88v5.893h4.88v-5.893Z" fill="#333" stroke="#263238" stroke-width=".23" stroke-linejoin="round"/><path d="M74.785 88.681h-4.88v5.893h4.88v-5.893Z" fill="#7D7D7D" stroke="#263238" stroke-width=".23" stroke-linejoin="round"/><path d="M79.734 88.681h-4.879v5.893h4.879v-5.893Z" fill="#D4D4D4" stroke="#263238" stroke-width=".23" stroke-linejoin="round"/><path d="M84.687 88.681h-4.879v5.893h4.879v-5.893Z" fill="#CFCFCF" stroke="#263238" stroke-width=".23" stroke-linejoin="round"/><path d="M89.644 88.681h-4.879v5.893h4.879v-5.893Z" fill="#E8E8E8" stroke="#263238" stroke-width=".23" stroke-linejoin="round"/><path d="M94.597 88.681h-4.879v5.893h4.88v-5.893ZM99.546 88.681h-4.878v5.893h4.878v-5.893Z" fill="#fff" stroke="#263238" stroke-width=".23" stroke-linejoin="round"/><path d="M104.499 88.681h-4.878v5.893h4.878v-5.893Z" fill="#263238"/><path d="M109.457 88.681h-4.879v5.893h4.879v-5.893ZM114.41 88.681h-4.879v5.893h4.879v-5.893Z" fill="#fff" stroke="#263238" stroke-width=".23" stroke-linejoin="round"/><path d="M60.617 82.611h-4.88v5.893h4.88V82.61Z" fill="#E8E8E8" stroke="#263238" stroke-width=".23" stroke-linejoin="round"/><path d="M65.57 82.611H60.69v5.893h4.879V82.61Z" fill="#CFCFCF" stroke="#263238" stroke-width=".23" stroke-linejoin="round"/><path d="M70.527 82.611h-4.879v5.893h4.879V82.61Z" fill="#333" stroke="#263238" stroke-width=".23" stroke-linejoin="round"/><path d="M75.48 82.611H70.6v5.893h4.879V82.61Z" fill="#7D7D7D" stroke="#263238" stroke-width=".23" stroke-linejoin="round"/><path d="M80.433 82.611h-4.879v5.893h4.88V82.61Z" fill="#D4D4D4" stroke="#263238" stroke-width=".23" stroke-linejoin="round"/><path d="M85.386 82.611h-4.879v5.893h4.88V82.61Z" fill="#CFCFCF" stroke="#263238" stroke-width=".23" stroke-linejoin="round"/><path d="M90.34 82.611h-4.88v5.893h4.88V82.61Z" fill="#E8E8E8" stroke="#263238" stroke-width=".23" stroke-linejoin="round"/><path d="M95.292 82.611h-4.878v5.893h4.878V82.61ZM100.246 82.611h-4.88v5.893h4.88V82.61Z" fill="#fff" stroke="#263238" stroke-width=".23" stroke-linejoin="round"/><path d="M105.195 82.611h-4.879v5.893h4.879V82.61Z" fill="#263238"/><path d="M110.152 82.611h-4.879v5.893h4.879V82.61ZM115.109 82.611h-4.879v5.893h4.879V82.61Z" fill="#fff" stroke="#263238" stroke-width=".23" stroke-linejoin="round"/><path d="M59.917 76.537H55.04v5.893h4.878v-5.893Z" fill="#E8E8E8" stroke="#263238" stroke-width=".23" stroke-linejoin="round"/><path d="M64.87 76.537h-4.878v5.893h4.879v-5.893Z" fill="#CFCFCF" stroke="#263238" stroke-width=".23" stroke-linejoin="round"/><path d="M69.828 76.537h-4.88v5.893h4.88v-5.893Z" fill="#333" stroke="#263238" stroke-width=".23" stroke-linejoin="round"/><path d="M74.785 76.537h-4.88v5.893h4.88v-5.893Z" fill="#7D7D7D" stroke="#263238" stroke-width=".23" stroke-linejoin="round"/><path d="M79.734 76.537h-4.879v5.893h4.879v-5.893Z" fill="#D4D4D4" stroke="#263238" stroke-width=".23" stroke-linejoin="round"/><path d="M84.687 76.537h-4.879v5.893h4.879v-5.893Z" fill="#CFCFCF" stroke="#263238" stroke-width=".23" stroke-linejoin="round"/><path d="M89.644 76.537h-4.879v5.893h4.879v-5.893Z" fill="#E8E8E8" stroke="#263238" stroke-width=".23" stroke-linejoin="round"/><path d="M94.597 76.537h-4.879v5.893h4.88v-5.893ZM99.546 76.537h-4.878v5.893h4.878v-5.893Z" fill="#fff" stroke="#263238" stroke-width=".23" stroke-linejoin="round"/><path d="M104.499 76.537h-4.878v5.893h4.878v-5.893Z" fill="#263238"/><path d="M109.457 76.537h-4.879v5.893h4.879v-5.893ZM114.41 76.537h-4.879v5.893h4.879v-5.893Z" fill="#fff" stroke="#263238" stroke-width=".23" stroke-linejoin="round"/><path d="M60.75 70.459h-4.88v5.892h4.88V70.46Z" fill="#E8E8E8" stroke="#263238" stroke-width=".23" stroke-linejoin="round"/><path d="M65.703 70.459h-4.88v5.892h4.88V70.46Z" fill="#CFCFCF" stroke="#263238" stroke-width=".23" stroke-linejoin="round"/><path d="M70.656 70.459h-4.879v5.892h4.879V70.46Z" fill="#333" stroke="#263238" stroke-width=".23" stroke-linejoin="round"/><path d="M75.609 70.459H70.73v5.892h4.879V70.46Z" fill="#7D7D7D" stroke="#263238" stroke-width=".23" stroke-linejoin="round"/><path d="M80.562 70.459h-4.879v5.892h4.879V70.46Z" fill="#D4D4D4" stroke="#263238" stroke-width=".23" stroke-linejoin="round"/><path d="M85.515 70.459h-4.879v5.892h4.88V70.46Z" fill="#CFCFCF" stroke="#263238" stroke-width=".23" stroke-linejoin="round"/><path d="M90.468 70.459H85.59v5.892h4.88V70.46Z" fill="#E8E8E8" stroke="#263238" stroke-width=".23" stroke-linejoin="round"/><path d="M95.421 70.459h-4.878v5.892h4.878V70.46ZM100.378 70.459H95.5v5.892h4.878V70.46Z" fill="#fff" stroke="#263238" stroke-width=".23" stroke-linejoin="round"/><path d="M105.331 70.459h-4.878v5.892h4.878V70.46Z" fill="#263238"/><path d="M110.285 70.459h-4.879v5.892h4.879V70.46ZM115.238 70.459h-4.879v5.892h4.879V70.46Z" fill="#fff" stroke="#263238" stroke-width=".23" stroke-linejoin="round"/><path d="M57.91 64.388h-4.88v5.893h4.88v-5.893Z" fill="#E8E8E8" stroke="#263238" stroke-width=".23" stroke-linejoin="round"/><path d="M62.863 64.388h-4.879v5.893h4.879v-5.893Z" fill="#CFCFCF" stroke="#263238" stroke-width=".23" stroke-linejoin="round"/><path d="M67.816 64.388h-4.879v5.893h4.879v-5.893Z" fill="#333" stroke="#263238" stroke-width=".23" stroke-linejoin="round"/><path d="M72.769 64.388H67.89v5.893h4.879v-5.893Z" fill="#7D7D7D" stroke="#263238" stroke-width=".23" stroke-linejoin="round"/><path d="M77.722 64.388h-4.879v5.893h4.88v-5.893Z" fill="#D4D4D4" stroke="#263238" stroke-width=".23" stroke-linejoin="round"/><path d="M82.675 64.388h-4.879v5.893h4.88v-5.893Z" fill="#CFCFCF" stroke="#263238" stroke-width=".23" stroke-linejoin="round"/><path d="M87.628 64.388H82.75v5.893h4.878v-5.893Z" fill="#E8E8E8" stroke="#263238" stroke-width=".23" stroke-linejoin="round"/><path d="M92.582 64.388h-4.88v5.893h4.88v-5.893ZM97.535 64.388h-4.88v5.893h4.88v-5.893Z" fill="#fff" stroke="#263238" stroke-width=".23" stroke-linejoin="round"/><path d="M102.488 64.388h-4.879v5.893h4.879v-5.893Z" fill="#263238"/><path d="M107.445 64.388h-4.879v5.893h4.879v-5.893ZM112.398 64.388h-4.879v5.893h4.879v-5.893Z" fill="#fff" stroke="#263238" stroke-width=".23" stroke-linejoin="round"/><path d="M60.257 58.2H55.38v5.894h4.878V58.2Z" fill="#E8E8E8" stroke="#263238" stroke-width=".23" stroke-linejoin="round"/><path d="M65.21 58.2h-4.878v5.894h4.878V58.2Z" fill="#CFCFCF" stroke="#263238" stroke-width=".23" stroke-linejoin="round"/><path d="M70.167 58.2H65.29v5.894h4.878V58.2Z" fill="#333" stroke="#263238" stroke-width=".23" stroke-linejoin="round"/><path d="M75.12 58.2h-4.878v5.894h4.879V58.2Z" fill="#7D7D7D" stroke="#263238" stroke-width=".23" stroke-linejoin="round"/><path d="M80.07 58.2H75.19v5.894h4.879V58.2Z" fill="#D4D4D4" stroke="#263238" stroke-width=".23" stroke-linejoin="round"/><path d="M85.023 58.2h-4.879v5.894h4.879V58.2Z" fill="#CFCFCF" stroke="#263238" stroke-width=".23" stroke-linejoin="round"/><path d="M89.976 58.2h-4.879v5.894h4.879V58.2Z" fill="#E8E8E8" stroke="#263238" stroke-width=".23" stroke-linejoin="round"/><path d="M94.933 58.2h-4.879v5.894h4.88V58.2ZM99.886 58.2h-4.879v5.894h4.88V58.2Z" fill="#fff" stroke="#263238" stroke-width=".23" stroke-linejoin="round"/><path d="M104.839 58.2h-4.878v5.894h4.878V58.2Z" fill="#263238"/><path d="M109.792 58.2h-4.878v5.894h4.878V58.2ZM114.749 58.2h-4.878v5.894h4.878V58.2Z" fill="#fff" stroke="#263238" stroke-width=".23" stroke-linejoin="round"/><path d="M59.917 52.13H55.04v5.893h4.878v-5.892Z" fill="#E8E8E8" stroke="#263238" stroke-width=".23" stroke-linejoin="round"/><path d="M64.87 52.13h-4.878v5.893h4.879v-5.892Z" fill="#CFCFCF" stroke="#263238" stroke-width=".23" stroke-linejoin="round"/><path d="M69.828 52.13h-4.88v5.893h4.88v-5.892Z" fill="#333" stroke="#263238" stroke-width=".23" stroke-linejoin="round"/><path d="M74.785 52.13h-4.88v5.893h4.88v-5.892Z" fill="#7D7D7D" stroke="#263238" stroke-width=".23" stroke-linejoin="round"/><path d="M79.734 52.13h-4.879v5.893h4.879v-5.892Z" fill="#D4D4D4" stroke="#263238" stroke-width=".23" stroke-linejoin="round"/><path d="M84.687 52.13h-4.879v5.893h4.879v-5.892Z" fill="#CFCFCF" stroke="#263238" stroke-width=".23" stroke-linejoin="round"/><path d="M89.644 52.13h-4.879v5.893h4.879v-5.892Z" fill="#E8E8E8" stroke="#263238" stroke-width=".23" stroke-linejoin="round"/><path d="M94.597 52.13h-4.879v5.893h4.88v-5.892ZM99.546 52.13h-4.878v5.893h4.878v-5.892Z" fill="#fff" stroke="#263238" stroke-width=".23" stroke-linejoin="round"/><path d="M104.499 52.13h-4.878v5.893h4.878v-5.892Z" fill="#263238"/><path d="M109.457 52.13h-4.879v5.893h4.879v-5.892ZM114.41 52.13h-4.879v5.893h4.879v-5.892Z" fill="#fff" stroke="#263238" stroke-width=".23" stroke-linejoin="round"/><path d="M60.617 46.056h-4.88v5.893h4.88v-5.893Z" fill="#E8E8E8" stroke="#263238" stroke-width=".23" stroke-linejoin="round"/><path d="M65.57 46.056H60.69v5.893h4.879v-5.893Z" fill="#CFCFCF" stroke="#263238" stroke-width=".23" stroke-linejoin="round"/><path d="M70.527 46.056h-4.879v5.893h4.879v-5.893Z" fill="#333" stroke="#263238" stroke-width=".23" stroke-linejoin="round"/><path d="M75.48 46.056H70.6v5.893h4.879v-5.893Z" fill="#7D7D7D" stroke="#263238" stroke-width=".23" stroke-linejoin="round"/><path d="M80.433 46.056h-4.879v5.893h4.88v-5.893Z" fill="#D4D4D4" stroke="#263238" stroke-width=".23" stroke-linejoin="round"/><path d="M85.386 46.056h-4.879v5.893h4.88v-5.893Z" fill="#CFCFCF" stroke="#263238" stroke-width=".23" stroke-linejoin="round"/><path d="M90.34 46.056h-4.88v5.893h4.88v-5.893Z" fill="#E8E8E8" stroke="#263238" stroke-width=".23" stroke-linejoin="round"/><path d="M95.292 46.056h-4.878v5.893h4.878v-5.893ZM100.246 46.056h-4.88v5.893h4.88v-5.893Z" fill="#fff" stroke="#263238" stroke-width=".23" stroke-linejoin="round"/><path d="M105.195 46.056h-4.879v5.893h4.879v-5.893Z" fill="#263238"/><path d="M110.152 46.056h-4.879v5.893h4.879v-5.893ZM115.109 46.056h-4.879v5.893h4.879v-5.893Z" fill="#fff" stroke="#263238" stroke-width=".23" stroke-linejoin="round"/><path d="M59.917 39.978H55.04v5.893h4.878v-5.893Z" fill="#E8E8E8" stroke="#263238" stroke-width=".23" stroke-linejoin="round"/><path d="M64.87 39.978h-4.878v5.893h4.879v-5.893Z" fill="#CFCFCF" stroke="#263238" stroke-width=".23" stroke-linejoin="round"/><path d="M69.828 39.978h-4.88v5.893h4.88v-5.893Z" fill="#333" stroke="#263238" stroke-width=".23" stroke-linejoin="round"/><path d="M74.785 39.978h-4.88v5.893h4.88v-5.893Z" fill="#7D7D7D" stroke="#263238" stroke-width=".23" stroke-linejoin="round"/><path d="M79.734 39.978h-4.879v5.893h4.879v-5.893Z" fill="#D4D4D4" stroke="#263238" stroke-width=".23" stroke-linejoin="round"/><path d="M84.687 39.978h-4.879v5.893h4.879v-5.893Z" fill="#CFCFCF" stroke="#263238" stroke-width=".23" stroke-linejoin="round"/><path d="M89.644 39.978h-4.879v5.893h4.879v-5.893Z" fill="#E8E8E8" stroke="#263238" stroke-width=".23" stroke-linejoin="round"/><path d="M94.597 39.978h-4.879v5.893h4.88v-5.893ZM99.546 39.978h-4.878v5.893h4.878v-5.893Z" fill="#fff" stroke="#263238" stroke-width=".23" stroke-linejoin="round"/><path d="M104.499 39.978h-4.878v5.893h4.878v-5.893Z" fill="#263238"/><path d="M109.457 39.978h-4.879v5.893h4.879v-5.893ZM114.41 39.978h-4.879v5.893h4.879v-5.893Z" fill="#fff" stroke="#263238" stroke-width=".23" stroke-linejoin="round"/><path d="M60.75 33.908h-4.88v5.893h4.88v-5.893Z" fill="#E8E8E8" stroke="#263238" stroke-width=".23" stroke-linejoin="round"/><path d="M65.703 33.908h-4.88v5.893h4.88v-5.893Z" fill="#CFCFCF" stroke="#263238" stroke-width=".23" stroke-linejoin="round"/><path d="M70.656 33.908h-4.879v5.893h4.879v-5.893Z" fill="#333" stroke="#263238" stroke-width=".23" stroke-linejoin="round"/><path d="M75.609 33.908H70.73v5.893h4.879v-5.893Z" fill="#7D7D7D" stroke="#263238" stroke-width=".23" stroke-linejoin="round"/><path d="M80.562 33.908h-4.879v5.893h4.879v-5.893Z" fill="#D4D4D4" stroke="#263238" stroke-width=".23" stroke-linejoin="round"/><path d="M85.515 33.908h-4.879v5.893h4.88v-5.893Z" fill="#CFCFCF" stroke="#263238" stroke-width=".23" stroke-linejoin="round"/><path d="M90.468 33.908H85.59v5.893h4.88v-5.893Z" fill="#E8E8E8" stroke="#263238" stroke-width=".23" stroke-linejoin="round"/><path d="M95.421 33.908h-4.878v5.893h4.878v-5.893ZM100.378 33.908H95.5v5.893h4.878v-5.893Z" fill="#fff" stroke="#263238" stroke-width=".23" stroke-linejoin="round"/><path d="M105.331 33.908h-4.878v5.893h4.878v-5.893Z" fill="#263238"/><path d="M110.285 33.908h-4.879v5.893h4.879v-5.893ZM115.238 33.908h-4.879v5.893h4.879v-5.893Z" fill="#fff" stroke="#263238" stroke-width=".23" stroke-linejoin="round"/><path d="M57.91 27.834h-4.88v5.893h4.88v-5.893Z" fill="#E8E8E8" stroke="#263238" stroke-width=".23" stroke-linejoin="round"/><path d="M62.863 27.834h-4.879v5.893h4.879v-5.893Z" fill="#CFCFCF" stroke="#263238" stroke-width=".23" stroke-linejoin="round"/><path d="M67.816 27.834h-4.879v5.893h4.879v-5.893Z" fill="#333" stroke="#263238" stroke-width=".23" stroke-linejoin="round"/><path d="M72.769 27.834H67.89v5.893h4.879v-5.893Z" fill="#7D7D7D" stroke="#263238" stroke-width=".23" stroke-linejoin="round"/><path d="M77.722 27.834h-4.879v5.893h4.88v-5.893Z" fill="#D4D4D4" stroke="#263238" stroke-width=".23" stroke-linejoin="round"/><path d="M82.675 27.834h-4.879v5.892h4.88v-5.892Z" fill="#CFCFCF" stroke="#263238" stroke-width=".23" stroke-linejoin="round"/><path d="M87.628 27.834H82.75v5.893h4.878v-5.893Z" fill="#E8E8E8" stroke="#263238" stroke-width=".23" stroke-linejoin="round"/><path d="M92.582 27.834h-4.88v5.893h4.88v-5.893ZM97.535 27.834h-4.88v5.893h4.88v-5.893Z" fill="#fff" stroke="#263238" stroke-width=".23" stroke-linejoin="round"/><path d="M102.488 27.834h-4.879v5.893h4.879v-5.893Z" fill="#263238"/><path d="M107.445 27.834h-4.879v5.893h4.879v-5.893ZM112.398 27.834h-4.879v5.893h4.879v-5.893Z" fill="#fff" stroke="#263238" stroke-width=".23" stroke-linejoin="round"/><path d="M97.874 167.631h-4.878v5.892h4.879v-5.892Z" fill="#E8E8E8" stroke="#263238" stroke-width=".23" stroke-linejoin="round"/><path d="M102.828 167.631h-4.88v5.892h4.88v-5.892Z" fill="#CFCFCF" stroke="#263238" stroke-width=".23" stroke-linejoin="round"/><path d="M107.781 167.631h-4.879v5.892h4.879v-5.892Z" fill="#333" stroke="#263238" stroke-width=".23" stroke-linejoin="round"/><path d="M112.734 167.631h-4.879v5.892h4.879v-5.892Z" fill="#7D7D7D" stroke="#263238" stroke-width=".23" stroke-linejoin="round"/><path d="M117.687 167.631h-4.879v5.892h4.879v-5.892Z" fill="#D4D4D4" stroke="#263238" stroke-width=".23" stroke-linejoin="round"/><path d="M122.644 167.631h-4.879v5.892h4.879v-5.892Z" fill="#CFCFCF" stroke="#263238" stroke-width=".23" stroke-linejoin="round"/><path d="M127.593 167.631h-4.879v5.892h4.879v-5.892Z" fill="#E8E8E8" stroke="#263238" stroke-width=".23" stroke-linejoin="round"/><path d="M132.55 167.631h-4.878v5.892h4.878v-5.892ZM137.503 167.631h-4.878v5.892h4.878v-5.892Z" fill="#fff" stroke="#263238" stroke-width=".23" stroke-linejoin="round"/><path d="M142.457 167.631h-4.879v5.892h4.879v-5.892Z" fill="#263238"/><path d="M147.41 167.631h-4.879v5.892h4.879v-5.892ZM152.363 167.631h-4.879v5.892h4.879v-5.892Z" fill="#fff" stroke="#263238" stroke-width=".23" stroke-linejoin="round"/><path d="M101.398 161.56h-4.879v5.893h4.879v-5.893Z" fill="#E8E8E8" stroke="#263238" stroke-width=".23" stroke-linejoin="round"/><path d="M106.351 161.56h-4.879v5.893h4.879v-5.893Z" fill="#CFCFCF" stroke="#263238" stroke-width=".23" stroke-linejoin="round"/><path d="M111.304 161.56h-4.879v5.893h4.879v-5.893Z" fill="#333" stroke="#263238" stroke-width=".23" stroke-linejoin="round"/><path d="M116.257 161.56h-4.878v5.893h4.878v-5.893Z" fill="#7D7D7D" stroke="#263238" stroke-width=".23" stroke-linejoin="round"/><path d="M121.214 161.56h-4.878v5.893h4.878v-5.893Z" fill="#D4D4D4" stroke="#263238" stroke-width=".23" stroke-linejoin="round"/><path d="M126.164 161.56h-4.879v5.893h4.879v-5.893Z" fill="#CFCFCF" stroke="#263238" stroke-width=".23" stroke-linejoin="round"/><path d="M131.117 161.56h-4.879v5.893h4.879v-5.893Z" fill="#E8E8E8" stroke="#263238" stroke-width=".23" stroke-linejoin="round"/><path d="M136.07 161.56h-4.879v5.893h4.879v-5.893ZM141.023 161.56h-4.879v5.893h4.879v-5.893Z" fill="#fff" stroke="#263238" stroke-width=".23" stroke-linejoin="round"/><path d="M145.976 161.56h-4.879v5.893h4.879v-5.893Z" fill="#263238"/><path d="M150.933 161.56h-4.879v5.893h4.879v-5.893ZM155.886 161.56h-4.879v5.893h4.879v-5.893Z" fill="#fff" stroke="#263238" stroke-width=".23" stroke-linejoin="round"/><path d="M101.144 155.486h-4.879v5.893h4.879v-5.893Z" fill="#E8E8E8" stroke="#263238" stroke-width=".23" stroke-linejoin="round"/><path d="M106.101 155.486h-4.879v5.893h4.879v-5.893Z" fill="#CFCFCF" stroke="#263238" stroke-width=".23" stroke-linejoin="round"/><path d="M111.054 155.486h-4.879v5.893h4.879v-5.893Z" fill="#333" stroke="#263238" stroke-width=".23" stroke-linejoin="round"/><path d="M116.003 155.486h-4.878v5.893h4.878v-5.893Z" fill="#7D7D7D" stroke="#263238" stroke-width=".23" stroke-linejoin="round"/><path d="M120.956 155.486h-4.878v5.893h4.878v-5.893Z" fill="#D4D4D4" stroke="#263238" stroke-width=".23" stroke-linejoin="round"/><path d="M125.914 155.486h-4.879v5.893h4.879v-5.893Z" fill="#CFCFCF" stroke="#263238" stroke-width=".23" stroke-linejoin="round"/><path d="M130.867 155.486h-4.879v5.893h4.879v-5.893Z" fill="#E8E8E8" stroke="#263238" stroke-width=".23" stroke-linejoin="round"/><path d="M135.816 155.486h-4.879v5.893h4.879v-5.893ZM140.773 155.486h-4.879v5.893h4.879v-5.893Z" fill="#fff" stroke="#263238" stroke-width=".23" stroke-linejoin="round"/><path d="M145.73 155.486h-4.879v5.893h4.879v-5.893Z" fill="#263238"/><path d="M150.683 155.486h-4.879v5.893h4.879v-5.893ZM155.632 155.486h-4.878v5.893h4.878v-5.893Z" fill="#fff" stroke="#263238" stroke-width=".23" stroke-linejoin="round"/><path d="M100.894 149.42h-4.879v5.892h4.879v-5.892Z" fill="#E8E8E8" stroke="#263238" stroke-width=".23" stroke-linejoin="round"/><path d="M105.847 149.42h-4.879v5.892h4.879v-5.892Z" fill="#CFCFCF" stroke="#263238" stroke-width=".23" stroke-linejoin="round"/><path d="M110.8 149.42h-4.878v5.892h4.878v-5.892Z" fill="#333" stroke="#263238" stroke-width=".23" stroke-linejoin="round"/><path d="M115.753 149.42h-4.878v5.892h4.878v-5.892Z" fill="#7D7D7D" stroke="#263238" stroke-width=".23" stroke-linejoin="round"/><path d="M120.706 149.42h-4.878v5.892h4.878v-5.892Z" fill="#D4D4D4" stroke="#263238" stroke-width=".23" stroke-linejoin="round"/><path d="M125.66 149.42h-4.879v5.892h4.879v-5.892Z" fill="#CFCFCF" stroke="#263238" stroke-width=".23" stroke-linejoin="round"/><path d="M130.613 149.42h-4.879v5.892h4.879v-5.892Z" fill="#E8E8E8" stroke="#263238" stroke-width=".23" stroke-linejoin="round"/><path d="M135.57 149.42h-4.879v5.892h4.879v-5.892ZM140.523 149.42h-4.879v5.892h4.879v-5.892Z" fill="#fff" stroke="#263238" stroke-width=".23" stroke-linejoin="round"/><path d="M145.472 149.42h-4.879v5.892h4.879v-5.892Z" fill="#263238"/><path d="M150.429 149.42h-4.879v5.892h4.879v-5.892ZM155.382 149.42h-4.878v5.892h4.878v-5.892Z" fill="#fff" stroke="#263238" stroke-width=".23" stroke-linejoin="round"/><path d="M96.617 143.342h-4.88v5.892h4.88v-5.892Z" fill="#E8E8E8" stroke="#263238" stroke-width=".23" stroke-linejoin="round"/><path d="M101.57 143.342h-4.879v5.892h4.879v-5.892Z" fill="#CFCFCF" stroke="#263238" stroke-width=".23" stroke-linejoin="round"/><path d="M106.523 143.342h-4.879v5.892h4.879v-5.892Z" fill="#333" stroke="#263238" stroke-width=".23" stroke-linejoin="round"/><path d="M111.48 143.342h-4.879v5.892h4.879v-5.892Z" fill="#7D7D7D" stroke="#263238" stroke-width=".23" stroke-linejoin="round"/><path d="M116.433 143.342h-4.879v5.892h4.879v-5.892Z" fill="#D4D4D4" stroke="#263238" stroke-width=".23" stroke-linejoin="round"/><path d="M121.382 143.342h-4.878v5.892h4.878v-5.892Z" fill="#CFCFCF" stroke="#263238" stroke-width=".23" stroke-linejoin="round"/><path d="M126.335 143.342h-4.878v5.892h4.878v-5.892Z" fill="#E8E8E8" stroke="#263238" stroke-width=".23" stroke-linejoin="round"/><path d="M131.289 143.342h-4.879v5.892h4.879v-5.892ZM136.246 143.342h-4.879v5.892h4.879v-5.892Z" fill="#fff" stroke="#263238" stroke-width=".23" stroke-linejoin="round"/><path d="M141.195 143.342h-4.879v5.892h4.879v-5.892Z" fill="#263238"/><path d="M146.152 143.342h-4.879v5.892h4.879v-5.892ZM151.105 143.342h-4.879v5.892h4.879v-5.892Z" fill="#fff" stroke="#263238" stroke-width=".23" stroke-linejoin="round"/><path d="M97.117 137.267h-4.88v5.893h4.88v-5.893Z" fill="#E8E8E8" stroke="#263238" stroke-width=".23" stroke-linejoin="round"/><path d="M102.07 137.267h-4.879v5.893h4.879v-5.893Z" fill="#CFCFCF" stroke="#263238" stroke-width=".23" stroke-linejoin="round"/><path d="M107.023 137.267h-4.879v5.893h4.879v-5.893Z" fill="#333" stroke="#263238" stroke-width=".23" stroke-linejoin="round"/><path d="M111.98 137.267h-4.879v5.893h4.879v-5.893Z" fill="#7D7D7D" stroke="#263238" stroke-width=".23" stroke-linejoin="round"/><path d="M116.933 137.267h-4.879v5.893h4.879v-5.893Z" fill="#D4D4D4" stroke="#263238" stroke-width=".23" stroke-linejoin="round"/><path d="M121.886 137.267h-4.879v5.893h4.879v-5.893Z" fill="#CFCFCF" stroke="#263238" stroke-width=".23" stroke-linejoin="round"/><path d="M126.843 137.267h-4.879v5.893h4.879v-5.893Z" fill="#E8E8E8" stroke="#263238" stroke-width=".23" stroke-linejoin="round"/><path d="M131.796 137.267h-4.878v5.893h4.878v-5.893ZM136.749 137.267h-4.878v5.893h4.878v-5.893Z" fill="#fff" stroke="#263238" stroke-width=".23" stroke-linejoin="round"/><path d="M141.699 137.267h-4.879v5.893h4.879v-5.893Z" fill="#263238"/><path d="M146.652 137.267h-4.879v5.893h4.879v-5.893ZM151.609 137.267h-4.879v5.893h4.879v-5.893Z" fill="#fff" stroke="#263238" stroke-width=".23" stroke-linejoin="round"/><path d="M102.906 131.197h-4.879v5.893h4.879v-5.893Z" fill="#E8E8E8" stroke="#263238" stroke-width=".23" stroke-linejoin="round"/><path d="M107.859 131.197h-4.879v5.893h4.879v-5.893Z" fill="#CFCFCF" stroke="#263238" stroke-width=".23" stroke-linejoin="round"/><path d="M112.816 131.197h-4.879v5.893h4.879v-5.893Z" fill="#333" stroke="#263238" stroke-width=".23" stroke-linejoin="round"/><path d="M117.769 131.197h-4.879v5.893h4.879v-5.893Z" fill="#7D7D7D" stroke="#263238" stroke-width=".23" stroke-linejoin="round"/><path d="M122.722 131.197h-4.879v5.893h4.879v-5.893Z" fill="#D4D4D4" stroke="#263238" stroke-width=".23" stroke-linejoin="round"/><path d="M127.671 131.197h-4.878v5.893h4.878v-5.893Z" fill="#CFCFCF" stroke="#263238" stroke-width=".23" stroke-linejoin="round"/><path d="M132.628 131.197h-4.878v5.893h4.878v-5.893Z" fill="#E8E8E8" stroke="#263238" stroke-width=".23" stroke-linejoin="round"/><path d="M137.582 131.197h-4.879v5.893h4.879v-5.893ZM142.535 131.197h-4.879v5.893h4.879v-5.893Z" fill="#fff" stroke="#263238" stroke-width=".23" stroke-linejoin="round"/><path d="M147.488 131.197h-4.879v5.893h4.879v-5.893Z" fill="#263238"/><path d="M152.441 131.197h-4.879v5.893h4.879v-5.893ZM157.398 131.197h-4.879v5.893h4.879v-5.893Z" fill="#fff" stroke="#263238" stroke-width=".23" stroke-linejoin="round"/><path d="M96.117 125.123h-4.88v5.893h4.88v-5.893Z" fill="#E8E8E8" stroke="#263238" stroke-width=".23" stroke-linejoin="round"/><path d="M101.066 125.123h-4.879v5.893h4.879v-5.893Z" fill="#CFCFCF" stroke="#263238" stroke-width=".23" stroke-linejoin="round"/><path d="M106.019 125.123h-4.879v5.893h4.879v-5.893Z" fill="#333" stroke="#263238" stroke-width=".23" stroke-linejoin="round"/><path d="M110.972 125.123h-4.879v5.893h4.879v-5.893Z" fill="#7D7D7D" stroke="#263238" stroke-width=".23" stroke-linejoin="round"/><path d="M115.925 125.123h-4.878v5.893h4.878v-5.893Z" fill="#D4D4D4" stroke="#263238" stroke-width=".23" stroke-linejoin="round"/><path d="M120.878 125.123H116v5.893h4.878v-5.893Z" fill="#CFCFCF" stroke="#263238" stroke-width=".23" stroke-linejoin="round"/><path d="M125.832 125.123h-4.879v5.893h4.879v-5.893Z" fill="#E8E8E8" stroke="#263238" stroke-width=".23" stroke-linejoin="round"/><path d="M130.789 125.123h-4.879v5.893h4.879v-5.893ZM135.746 125.123h-4.879v5.893h4.879v-5.893ZM140.695 125.123h-4.879v5.893h4.879v-5.893Z" fill="#fff" stroke="#263238" stroke-width=".23" stroke-linejoin="round"/><path d="M145.648 125.123h-4.879v5.893h4.879v-5.893Z" fill="#263238"/><path d="M150.601 125.123h-4.879v5.893h4.879v-5.893Z" fill="#fff" stroke="#263238" stroke-width=".23" stroke-linejoin="round"/><path d="M102.406 119.049h-4.879v5.892h4.879v-5.892Z" fill="#E8E8E8" stroke="#263238" stroke-width=".23" stroke-linejoin="round"/><path d="M107.355 119.049h-4.879v5.892h4.879v-5.892Z" fill="#CFCFCF" stroke="#263238" stroke-width=".23" stroke-linejoin="round"/><path d="M112.308 119.049h-4.879v5.892h4.879v-5.892Z" fill="#333" stroke="#263238" stroke-width=".23" stroke-linejoin="round"/><path d="M117.265 119.049h-4.879v5.892h4.879v-5.892Z" fill="#7D7D7D" stroke="#263238" stroke-width=".23" stroke-linejoin="round"/><path d="M122.218 119.049h-4.879v5.892h4.879v-5.892Z" fill="#D4D4D4" stroke="#263238" stroke-width=".23" stroke-linejoin="round"/><path d="M127.167 119.049h-4.878v5.892h4.878v-5.892Z" fill="#CFCFCF" stroke="#263238" stroke-width=".23" stroke-linejoin="round"/><path d="M132.124 119.049h-4.878v5.892h4.878v-5.892Z" fill="#E8E8E8" stroke="#263238" stroke-width=".23" stroke-linejoin="round"/><path d="M137.078 119.049h-4.879v5.892h4.879v-5.892ZM142.035 119.049h-4.879v5.892h4.879v-5.892Z" fill="#fff" stroke="#263238" stroke-width=".23" stroke-linejoin="round"/><path d="M146.984 119.049h-4.879v5.892h4.879v-5.892Z" fill="#263238"/><path d="M151.937 119.049h-4.879v5.892h4.879v-5.892ZM156.894 119.049h-4.879v5.892h4.879v-5.892Z" fill="#fff" stroke="#263238" stroke-width=".23" stroke-linejoin="round"/><path d="M102.906 112.974h-4.879v5.893h4.879v-5.893Z" fill="#E8E8E8" stroke="#263238" stroke-width=".23" stroke-linejoin="round"/><path d="M107.859 112.974h-4.879v5.893h4.879v-5.893Z" fill="#CFCFCF" stroke="#263238" stroke-width=".23" stroke-linejoin="round"/><path d="M112.816 112.974h-4.879v5.893h4.879v-5.893Z" fill="#333" stroke="#263238" stroke-width=".23" stroke-linejoin="round"/><path d="M117.769 112.974h-4.879v5.893h4.879v-5.893Z" fill="#7D7D7D" stroke="#263238" stroke-width=".23" stroke-linejoin="round"/><path d="M122.722 112.974h-4.879v5.893h4.879v-5.893Z" fill="#D4D4D4" stroke="#263238" stroke-width=".23" stroke-linejoin="round"/><path d="M127.671 112.974h-4.878v5.893h4.878v-5.893Z" fill="#CFCFCF" stroke="#263238" stroke-width=".23" stroke-linejoin="round"/><path d="M132.628 112.974h-4.878v5.893h4.878v-5.893Z" fill="#E8E8E8" stroke="#263238" stroke-width=".23" stroke-linejoin="round"/><path d="M137.582 112.974h-4.879v5.893h4.879v-5.893ZM142.535 112.974h-4.879v5.893h4.879v-5.893Z" fill="#fff" stroke="#263238" stroke-width=".23" stroke-linejoin="round"/><path d="M147.488 112.974h-4.879v5.893h4.879v-5.893Z" fill="#263238"/><path d="M152.441 112.974h-4.879v5.893h4.879v-5.893ZM157.398 112.974h-4.879v5.893h4.879v-5.893Z" fill="#fff" stroke="#263238" stroke-width=".23" stroke-linejoin="round"/><path d="M97.874 106.9h-4.878v5.893h4.879V106.9Z" fill="#E8E8E8" stroke="#263238" stroke-width=".23" stroke-linejoin="round"/><path d="M102.828 106.9h-4.88v5.893h4.88V106.9Z" fill="#CFCFCF" stroke="#263238" stroke-width=".23" stroke-linejoin="round"/><path d="M107.781 106.9h-4.879v5.893h4.879V106.9Z" fill="#333" stroke="#263238" stroke-width=".23" stroke-linejoin="round"/><path d="M112.734 106.9h-4.879v5.893h4.879V106.9Z" fill="#7D7D7D" stroke="#263238" stroke-width=".23" stroke-linejoin="round"/><path d="M117.687 106.9h-4.879v5.893h4.879V106.9Z" fill="#D4D4D4" stroke="#263238" stroke-width=".23" stroke-linejoin="round"/><path d="M122.644 106.9h-4.879v5.893h4.879V106.9Z" fill="#CFCFCF" stroke="#263238" stroke-width=".23" stroke-linejoin="round"/><path d="M127.593 106.9h-4.879v5.893h4.879V106.9Z" fill="#E8E8E8" stroke="#263238" stroke-width=".23" stroke-linejoin="round"/><path d="M132.55 106.9h-4.878v5.893h4.878V106.9ZM137.503 106.9h-4.878v5.893h4.878V106.9Z" fill="#fff" stroke="#263238" stroke-width=".23" stroke-linejoin="round"/><path d="M142.457 106.9h-4.879v5.893h4.879V106.9Z" fill="#263238"/><path d="M147.41 106.9h-4.879v5.893h4.879V106.9ZM152.363 106.9h-4.879v5.893h4.879V106.9Z" fill="#fff" stroke="#263238" stroke-width=".23" stroke-linejoin="round"/><path d="M103.406 100.826h-4.879v5.893h4.879v-5.893Z" fill="#E8E8E8" stroke="#263238" stroke-width=".23" stroke-linejoin="round"/><path d="M108.359 100.826h-4.879v5.893h4.879v-5.893Z" fill="#CFCFCF" stroke="#263238" stroke-width=".23" stroke-linejoin="round"/><path d="M113.316 100.826h-4.879v5.893h4.879v-5.893Z" fill="#333" stroke="#263238" stroke-width=".23" stroke-linejoin="round"/><path d="M118.273 100.826h-4.879v5.893h4.879v-5.893Z" fill="#7D7D7D" stroke="#263238" stroke-width=".23" stroke-linejoin="round"/><path d="M123.222 100.826h-4.879v5.893h4.879v-5.893Z" fill="#D4D4D4" stroke="#263238" stroke-width=".23" stroke-linejoin="round"/><path d="M128.175 100.826h-4.878v5.893h4.878v-5.893Z" fill="#CFCFCF" stroke="#263238" stroke-width=".23" stroke-linejoin="round"/><path d="M133.132 100.826h-4.878v5.893h4.878v-5.893Z" fill="#E8E8E8" stroke="#263238" stroke-width=".23" stroke-linejoin="round"/><path d="M138.085 100.826h-4.878v5.893h4.878v-5.893ZM143.039 100.826h-4.879v5.893h4.879v-5.893Z" fill="#fff" stroke="#263238" stroke-width=".23" stroke-linejoin="round"/><path d="M147.988 100.826h-4.879v5.893h4.879v-5.893Z" fill="#263238"/><path d="M152.945 100.826h-4.879v5.893h4.879v-5.893ZM157.898 100.826h-4.879v5.893h4.879v-5.893Z" fill="#fff" stroke="#263238" stroke-width=".23" stroke-linejoin="round"/><path d="M102.242 94.756h-4.88v5.892h4.88v-5.892Z" fill="#E8E8E8" stroke="#263238" stroke-width=".23" stroke-linejoin="round"/><path d="M107.191 94.756h-4.879v5.892h4.879v-5.892Z" fill="#CFCFCF" stroke="#263238" stroke-width=".23" stroke-linejoin="round"/><path d="M112.144 94.756h-4.879v5.892h4.879v-5.892Z" fill="#333" stroke="#263238" stroke-width=".23" stroke-linejoin="round"/><path d="M117.097 94.756h-4.879v5.892h4.879v-5.892Z" fill="#7D7D7D" stroke="#263238" stroke-width=".23" stroke-linejoin="round"/><path d="M122.054 94.756h-4.879v5.892h4.879v-5.892Z" fill="#D4D4D4" stroke="#263238" stroke-width=".23" stroke-linejoin="round"/><path d="M127.003 94.756h-4.878v5.892h4.878v-5.892Z" fill="#CFCFCF" stroke="#263238" stroke-width=".23" stroke-linejoin="round"/><path d="M131.956 94.756h-4.878v5.892h4.878v-5.892Z" fill="#E8E8E8" stroke="#263238" stroke-width=".23" stroke-linejoin="round"/><path d="M136.91 94.756h-4.879v5.892h4.879v-5.892ZM141.863 94.756h-4.879v5.892h4.879v-5.892Z" fill="#fff" stroke="#263238" stroke-width=".23" stroke-linejoin="round"/><path d="M146.82 94.756h-4.879v5.892h4.879v-5.892Z" fill="#263238"/><path d="M151.773 94.756h-4.879v5.892h4.879v-5.892ZM156.726 94.756h-4.879v5.892h4.879v-5.892Z" fill="#fff" stroke="#263238" stroke-width=".23" stroke-linejoin="round"/><path d="M101.902 88.681h-4.879v5.893h4.879v-5.893Z" fill="#E8E8E8" stroke="#263238" stroke-width=".23" stroke-linejoin="round"/><path d="M106.851 88.681h-4.879v5.893h4.879v-5.893Z" fill="#CFCFCF" stroke="#263238" stroke-width=".23" stroke-linejoin="round"/><path d="M111.804 88.681h-4.879v5.893h4.879v-5.893Z" fill="#333" stroke="#263238" stroke-width=".23" stroke-linejoin="round"/><path d="M116.761 88.681h-4.879v5.893h4.879v-5.893Z" fill="#7D7D7D" stroke="#263238" stroke-width=".23" stroke-linejoin="round"/><path d="M121.718 88.681h-4.879v5.893h4.879v-5.893Z" fill="#D4D4D4" stroke="#263238" stroke-width=".23" stroke-linejoin="round"/><path d="M126.667 88.681h-4.878v5.893h4.878v-5.893Z" fill="#CFCFCF" stroke="#263238" stroke-width=".23" stroke-linejoin="round"/><path d="M131.621 88.681h-4.879v5.893h4.879v-5.893Z" fill="#E8E8E8" stroke="#263238" stroke-width=".23" stroke-linejoin="round"/><path d="M136.574 88.681h-4.879v5.893h4.879v-5.893ZM141.531 88.681h-4.879v5.893h4.879v-5.893Z" fill="#fff" stroke="#263238" stroke-width=".23" stroke-linejoin="round"/><path d="M146.48 88.681h-4.879v5.893h4.879v-5.893Z" fill="#263238"/><path d="M151.433 88.681h-4.879v5.893h4.879v-5.893ZM156.386 88.681h-4.879v5.893h4.879v-5.893Z" fill="#fff" stroke="#263238" stroke-width=".23" stroke-linejoin="round"/><path d="M102.597 82.611h-4.879v5.893h4.879V82.61Z" fill="#E8E8E8" stroke="#263238" stroke-width=".23" stroke-linejoin="round"/><path d="M107.55 82.611h-4.878v5.893h4.878V82.61Z" fill="#CFCFCF" stroke="#263238" stroke-width=".23" stroke-linejoin="round"/><path d="M112.503 82.611h-4.878v5.893h4.878V82.61Z" fill="#333" stroke="#263238" stroke-width=".23" stroke-linejoin="round"/><path d="M117.46 82.611h-4.878v5.893h4.878V82.61Z" fill="#7D7D7D" stroke="#263238" stroke-width=".23" stroke-linejoin="round"/><path d="M122.414 82.611h-4.879v5.893h4.879V82.61Z" fill="#D4D4D4" stroke="#263238" stroke-width=".23" stroke-linejoin="round"/><path d="M127.367 82.611h-4.879v5.893h4.879V82.61Z" fill="#CFCFCF" stroke="#263238" stroke-width=".23" stroke-linejoin="round"/><path d="M132.316 82.611h-4.879v5.893h4.879V82.61Z" fill="#E8E8E8" stroke="#263238" stroke-width=".23" stroke-linejoin="round"/><path d="M137.273 82.611h-4.879v5.893h4.879V82.61ZM142.226 82.611h-4.879v5.893h4.879V82.61Z" fill="#fff" stroke="#263238" stroke-width=".23" stroke-linejoin="round"/><path d="M147.179 82.611H142.3v5.893h4.879V82.61Z" fill="#263238"/><path d="M152.128 82.611h-4.878v5.893h4.878V82.61ZM157.085 82.611h-4.878v5.893h4.878V82.61Z" fill="#fff" stroke="#263238" stroke-width=".23" stroke-linejoin="round"/><path d="M101.902 76.537h-4.879v5.893h4.879v-5.893Z" fill="#E8E8E8" stroke="#263238" stroke-width=".23" stroke-linejoin="round"/><path d="M106.851 76.537h-4.879v5.893h4.879v-5.893Z" fill="#CFCFCF" stroke="#263238" stroke-width=".23" stroke-linejoin="round"/><path d="M111.804 76.537h-4.879v5.893h4.879v-5.893Z" fill="#333" stroke="#263238" stroke-width=".23" stroke-linejoin="round"/><path d="M116.761 76.537h-4.879v5.893h4.879v-5.893Z" fill="#7D7D7D" stroke="#263238" stroke-width=".23" stroke-linejoin="round"/><path d="M121.718 76.537h-4.879v5.893h4.879v-5.893Z" fill="#D4D4D4" stroke="#263238" stroke-width=".23" stroke-linejoin="round"/><path d="M126.667 76.537h-4.878v5.893h4.878v-5.893Z" fill="#CFCFCF" stroke="#263238" stroke-width=".23" stroke-linejoin="round"/><path d="M131.621 76.537h-4.879v5.893h4.879v-5.893Z" fill="#E8E8E8" stroke="#263238" stroke-width=".23" stroke-linejoin="round"/><path d="M136.574 76.537h-4.879v5.893h4.879v-5.893ZM141.531 76.537h-4.879v5.893h4.879v-5.893Z" fill="#fff" stroke="#263238" stroke-width=".23" stroke-linejoin="round"/><path d="M146.48 76.537h-4.879v5.893h4.879v-5.893Z" fill="#263238"/><path d="M151.433 76.537h-4.879v5.893h4.879v-5.893ZM156.386 76.537h-4.879v5.893h4.879v-5.893Z" fill="#fff" stroke="#263238" stroke-width=".23" stroke-linejoin="round"/><path d="M102.726 70.459h-4.879v5.892h4.879V70.46Z" fill="#E8E8E8" stroke="#263238" stroke-width=".23" stroke-linejoin="round"/><path d="M107.683 70.459h-4.879v5.892h4.879V70.46Z" fill="#CFCFCF" stroke="#263238" stroke-width=".23" stroke-linejoin="round"/><path d="M112.636 70.459h-4.879v5.892h4.879V70.46Z" fill="#333" stroke="#263238" stroke-width=".23" stroke-linejoin="round"/><path d="M117.585 70.459h-4.878v5.892h4.878V70.46Z" fill="#7D7D7D" stroke="#263238" stroke-width=".23" stroke-linejoin="round"/><path d="M122.539 70.459h-4.879v5.892h4.879V70.46Z" fill="#D4D4D4" stroke="#263238" stroke-width=".23" stroke-linejoin="round"/><path d="M127.496 70.459h-4.879v5.892h4.879V70.46Z" fill="#CFCFCF" stroke="#263238" stroke-width=".23" stroke-linejoin="round"/><path d="M132.449 70.459h-4.879v5.892h4.879V70.46Z" fill="#E8E8E8" stroke="#263238" stroke-width=".23" stroke-linejoin="round"/><path d="M137.402 70.459h-4.879v5.892h4.879V70.46ZM142.355 70.459h-4.879v5.892h4.879V70.46Z" fill="#fff" stroke="#263238" stroke-width=".23" stroke-linejoin="round"/><path d="M147.312 70.459h-4.879v5.892h4.879V70.46Z" fill="#263238"/><path d="M152.265 70.459h-4.879v5.892h4.879V70.46ZM157.218 70.459h-4.879v5.892h4.879V70.46Z" fill="#fff" stroke="#263238" stroke-width=".23" stroke-linejoin="round"/><path d="M99.886 64.388h-4.879v5.893h4.88v-5.893Z" fill="#E8E8E8" stroke="#263238" stroke-width=".23" stroke-linejoin="round"/><path d="M104.839 64.388h-4.878v5.893h4.878v-5.893Z" fill="#CFCFCF" stroke="#263238" stroke-width=".23" stroke-linejoin="round"/><path d="M109.792 64.388h-4.878v5.893h4.878v-5.893Z" fill="#333" stroke="#263238" stroke-width=".23" stroke-linejoin="round"/><path d="M114.749 64.388h-4.878v5.893h4.878v-5.893Z" fill="#7D7D7D" stroke="#263238" stroke-width=".23" stroke-linejoin="round"/><path d="M119.703 64.388h-4.879v5.893h4.879v-5.893Z" fill="#D4D4D4" stroke="#263238" stroke-width=".23" stroke-linejoin="round"/><path d="M124.656 64.388h-4.879v5.893h4.879v-5.893Z" fill="#CFCFCF" stroke="#263238" stroke-width=".23" stroke-linejoin="round"/><path d="M129.605 64.388h-4.879v5.893h4.879v-5.893Z" fill="#E8E8E8" stroke="#263238" stroke-width=".23" stroke-linejoin="round"/><path d="M134.562 64.388h-4.879v5.893h4.879v-5.893ZM139.515 64.388h-4.879v5.893h4.879v-5.893Z" fill="#fff" stroke="#263238" stroke-width=".23" stroke-linejoin="round"/><path d="M144.468 64.388h-4.879v5.893h4.879v-5.893Z" fill="#263238"/><path d="M149.421 64.388h-4.878v5.893h4.878v-5.893ZM154.378 64.388H149.5v5.893h4.878v-5.893Z" fill="#fff" stroke="#263238" stroke-width=".23" stroke-linejoin="round"/><path d="M123.241 128.209v39.505h-1.953v5.84H93.859l29.382-45.345Z" fill="#263238" stroke="#263238" stroke-width=".23" stroke-miterlimit="10"/><path d="M118.453 149.254c-.087.199-.174.405-.265.599-.022.057-.049.11-.075.17a59.225 59.225 0 0 1-1.95 3.906c-.03.053-.056.101-.083.158a53.723 53.723 0 0 1-2.271 3.752l-.106.153a48.777 48.777 0 0 1-2.592 3.582 1.443 1.443 0 0 1-.118.15 43.767 43.767 0 0 1-2.986 3.383l-.136.142a37.646 37.646 0 0 1-3.498 3.133l-.151.121a29.403 29.403 0 0 1-4.216 2.78l-.197.106a19.898 19.898 0 0 1-5.73 2.023c-.103 0-.209.041-.31.053-2.693.505-5.465.11-7.939-1.132-2.474-1.243-4.529-3.271-5.884-5.809-.06-.093-.11-.19-.163-.287a23.278 23.278 0 0 1-2.222-5.998c-.023-.077-.038-.154-.053-.231a33.36 33.36 0 0 1-.727-5.262 1.791 1.791 0 0 1 0-.202 41.94 41.94 0 0 1 0-4.877v-.198c.1-1.544.271-3.081.515-4.606.007-.064.019-.128.034-.19.235-1.457.538-2.938.909-4.428l.045-.182a57.998 57.998 0 0 1 1.25-4.258c.022-.055.04-.111.056-.17a61.068 61.068 0 0 1 1.563-4.099c.023-.061.045-.114.068-.17l.261-.603a59.265 59.265 0 0 1 1.594-3.352l.083-.165a55.74 55.74 0 0 1 4.727-7.601l.11-.146a45.017 45.017 0 0 1 2.854-3.452c.039-.05.08-.098.125-.142a39.771 39.771 0 0 1 3.308-3.238c.053-.04.102-.085.151-.129a32.407 32.407 0 0 1 3.952-2.906l.178-.109a23.245 23.245 0 0 1 5.06-2.36l.254-.073c3.61-1.088 7.13-.963 10.219.595 3.088 1.558 5.458 4.371 6.991 8.03.034.085.071.17.102.255a26.811 26.811 0 0 1 1.555 5.666c0 .073.027.15.034.219a36.47 36.47 0 0 1 .443 5.103v.211a44.654 44.654 0 0 1-.197 4.783 1.572 1.572 0 0 1-.022.195 48.176 48.176 0 0 1-.632 4.561c0 .065-.023.125-.034.186a55.247 55.247 0 0 1-1.03 4.363 1.86 1.86 0 0 1-.045.182 60.645 60.645 0 0 1-1.355 4.205 3.268 3.268 0 0 0-.065.17 58.313 58.313 0 0 1-1.389 3.44Z" fill="#fff" stroke="#263238" stroke-width=".23" stroke-miterlimit="10"/><path d="M118.453 149.254c-.087.199-.174.405-.265.599-.022.057-.049.11-.075.17a59.225 59.225 0 0 1-1.95 3.906c-.03.053-.056.101-.083.158a53.723 53.723 0 0 1-2.271 3.752l-.106.153a48.777 48.777 0 0 1-2.592 3.582 1.443 1.443 0 0 1-.118.15 43.767 43.767 0 0 1-2.986 3.383l-.136.142a37.646 37.646 0 0 1-3.498 3.133l-.151.121a29.403 29.403 0 0 1-4.216 2.78l-.197.106a19.898 19.898 0 0 1-5.73 2.023l-.31.053c-2.693.505-5.465.11-7.939-1.132-2.474-1.243-4.529-3.271-5.884-5.809-.06-.093-.11-.19-.163-.287a23.278 23.278 0 0 1-2.222-5.998c-.023-.077-.038-.154-.053-.231a33.36 33.36 0 0 1-.727-5.262 1.791 1.791 0 0 1 0-.202 41.94 41.94 0 0 1 0-4.877v-.198c.1-1.544.271-3.081.515-4.606.007-.064.019-.128.034-.19.235-1.457.538-2.938.909-4.428l.045-.182a57.998 57.998 0 0 1 1.25-4.258c.022-.055.04-.111.056-.17a61.068 61.068 0 0 1 1.563-4.099c.023-.061.045-.114.068-.17l.261-.603a59.265 59.265 0 0 1 1.594-3.352l.083-.165a55.74 55.74 0 0 1 4.727-7.601l.11-.146a45.017 45.017 0 0 1 2.854-3.452c.039-.05.08-.098.125-.142a39.771 39.771 0 0 1 3.308-3.238c.053-.04.102-.085.151-.129a32.407 32.407 0 0 1 3.952-2.906l.178-.109a23.245 23.245 0 0 1 5.06-2.36l.254-.073c3.61-1.088 7.13-.963 10.219.595 3.088 1.558 5.458 4.371 6.991 8.03l.102.255a26.811 26.811 0 0 1 1.555 5.666c0 .073.027.15.034.219a36.47 36.47 0 0 1 .443 5.103v.211a44.654 44.654 0 0 1-.197 4.783 1.572 1.572 0 0 1-.022.195 48.176 48.176 0 0 1-.632 4.561c0 .065-.023.125-.034.186a55.247 55.247 0 0 1-1.03 4.363 1.86 1.86 0 0 1-.045.182 60.645 60.645 0 0 1-1.355 4.205 3.268 3.268 0 0 0-.065.17 58.313 58.313 0 0 1-1.389 3.44Z" fill="#fff" stroke="#263238" stroke-width=".23" stroke-linejoin="round"/><path d="m103.625 107.163.253-.073c3.611-1.088 7.131-.963 10.219.595 3.089 1.558 5.458 4.371 6.991 8.03l-17.463-8.552Z" fill="#CFCFCF" stroke="#263238" stroke-width=".23" stroke-linejoin="round"/><path d="m122.799 121.864-24.413-12.223.178-.109a23.243 23.243 0 0 1 5.061-2.368l.253-.072 17.324 8.895a26.828 26.828 0 0 1 1.555 5.666c.019.081.034.142.042.211Z" fill="#333" stroke="#263238" stroke-width=".23" stroke-linejoin="round"/><path d="m123.247 127.179-28.962-14.501a32.512 32.512 0 0 1 4.103-3.036l.177-.109 24.201 12.113c0 .073.027.15.034.219a36.47 36.47 0 0 1 .443 5.103c0 .069.004.142.004.211Z" fill="#7D7D7D" stroke="#263238" stroke-width=".23" stroke-linejoin="round"/><path d="m123.023 132.154-32.172-16.108c.039-.05.08-.098.125-.142a39.755 39.755 0 0 1 3.308-3.238c.053-.04.102-.085.151-.129l28.807 14.42v.211a44.915 44.915 0 0 1-.196 4.783 1.97 1.97 0 0 1-.023.203Z" fill="#D4D4D4" stroke="#263238" stroke-width=".23" stroke-linejoin="round"/><path d="m122.337 136.897-34.443-17.249.11-.146a44.825 44.825 0 0 1 2.854-3.452c.038-.05.08-.098.125-.142l32.073 16.055a1.82 1.82 0 0 1-.023.195 48.093 48.093 0 0 1-.662 4.553c-.008.065-.034.125-.034.186Z" fill="#CFCFCF" stroke="#263238" stroke-width=".23" stroke-linejoin="round"/><path d="m121.261 141.442-35.957-17.998c.03-.054.063-.105.099-.154a52.402 52.402 0 0 1 2.475-3.643l.11-.145 34.382 17.209c0 .064-.023.125-.034.186a55.247 55.247 0 0 1-1.03 4.363 1.933 1.933 0 0 1-.045.182Z" fill="#CFCFCF" stroke="#263238" stroke-width=".23" stroke-linejoin="round"/><path d="m119.844 145.814-36.766-18.415.083-.166a55.956 55.956 0 0 1 2.252-3.958l35.896 17.97a1.933 1.933 0 0 1-.045.182 60.819 60.819 0 0 1-1.355 4.205c-.023.069-.046.126-.065.182Z" fill="#E8E8E8" stroke="#263238" stroke-width=".23" stroke-linejoin="round"/><path d="M118.452 149.253c-.087.199-.174.405-.265.599-.022.057-.049.11-.075.17l-36.96-18.504.068-.17.261-.603a59.563 59.563 0 0 1 1.594-3.351l.083-.166 36.748 18.399c-.023.057-.046.113-.065.17a55.856 55.856 0 0 1-1.389 3.456Z" fill="#F7F7F7" stroke="#263238" stroke-width=".23" stroke-linejoin="round"/><path d="M118.174 149.873c-.022.057-.049.109-.075.17a58.467 58.467 0 0 1-1.95 3.905c-.03.053-.056.102-.083.158l-36.547-18.297a1.27 1.27 0 0 0 .057-.17 60.941 60.941 0 0 1 1.563-4.1c.023-.061.046-.113.068-.17l36.967 18.504Z" fill="#fff" stroke="#263238" stroke-width=".23" stroke-linejoin="round"/><path d="M116.166 153.944c-.03.053-.057.101-.083.158a53.723 53.723 0 0 1-2.271 3.752l-.106.154-35.48-17.764.046-.182a58.047 58.047 0 0 1 1.249-4.258c.022-.055.041-.111.056-.169l36.589 18.309Z" fill="#fff" stroke="#263238" stroke-width=".23" stroke-linejoin="round"/><path d="m113.825 157.856-.106.154a48.98 48.98 0 0 1-2.593 3.581 1.434 1.434 0 0 1-.117.15l-33.713-16.877c.008-.064.02-.127.035-.19.234-1.457.537-2.938.908-4.428l.045-.182 35.541 17.792Z" fill="#fff" stroke="#263238" stroke-width=".23" stroke-linejoin="round"/><path d="M111.125 161.591a1.32 1.32 0 0 1-.118.15 43.954 43.954 0 0 1-2.986 3.383l-.136.142-31.12-15.582v-.198c.104-1.549.28-3.092.53-4.622a1.53 1.53 0 0 1 .034-.19l33.796 16.917Z" fill="#CFCFCF" stroke="#263238" stroke-width=".23" stroke-linejoin="round"/><path d="m108.021 165.125-.136.141a37.492 37.492 0 0 1-3.497 3.133l-.151.121-27.475-13.76a1.858 1.858 0 0 1 0-.203 41.985 41.985 0 0 1 0-4.877v-.198l31.259 15.643Z" fill="#D4D4D4" stroke="#263238" stroke-width=".23" stroke-linejoin="round"/><path d="m104.386 168.398-.151.122a29.449 29.449 0 0 1-4.232 2.764l-.196.105-22.267-11.15a33.33 33.33 0 0 1-.78-5.492 1.791 1.791 0 0 1 0-.202l27.626 13.853Z" fill="#7D7D7D" stroke="#263238" stroke-width=".23" stroke-linejoin="round"/><path d="m100.008 171.285-.197.105a19.902 19.902 0 0 1-5.73 2.024l-14.152-6.881c-.06-.093-.11-.19-.162-.287a23.268 23.268 0 0 1-2.222-5.998c-.023-.077-.038-.154-.053-.231l22.516 11.268Z" fill="#333" stroke="#263238" stroke-width=".23" stroke-linejoin="round"/><path d="M93.766 173.456c-2.69.507-5.462.113-7.936-1.127s-4.53-3.266-5.886-5.802c-.06-.093-.11-.19-.163-.287l13.985 7.216Z" fill="#CFCFCF" stroke="#263238" stroke-width=".23" stroke-linejoin="round"/><path d="M115.273 147.687c7.815-17.846 5.873-36.457-4.336-41.569-10.21-5.112-24.821 5.212-32.636 23.058-7.814 17.847-5.873 36.458 4.337 41.569 10.21 5.112 24.821-5.211 32.635-23.058Z" fill="#fff" stroke="#263238" stroke-width=".23" stroke-miterlimit="10"/><path d="M103.253 160.328c-10.863.089-20.192.442-26.457 4.707 1.381 2.474 3.412 4.459 5.84 5.707 7.616 3.816 17.68-.963 25.549-11.045a22.328 22.328 0 0 1-4.932.631Z" fill="#263238" stroke="#263238" stroke-width=".23" stroke-miterlimit="10"/><path d="M111.573 145.84c6.795-15.518 5.395-31.558-3.128-35.825-8.523-4.267-20.94 4.854-27.735 20.373-6.796 15.518-5.395 31.557 3.128 35.824 8.523 4.268 20.94-4.853 27.735-20.372Z" fill="#fff" stroke="#263238" stroke-width=".23" stroke-linejoin="round"/><path d="M111.268 117.358c.878-.595 1.7-1.129 2.479-1.619-1.241-2.602-3.028-4.606-5.299-5.751-8.523-4.254-20.93 4.865-27.743 20.39a53.395 53.395 0 0 0-3.217 9.798 30.966 30.966 0 0 0 6.355-.781c10.431-2.323 14.405-13.186 27.425-22.037Z" fill="#263238" stroke="#263238" stroke-width=".23" stroke-miterlimit="10"/><path d="M82.194 131.118c6.593-15.052 18.489-24.102 26.975-20.718a11.843 11.843 0 0 0-.723-.405c-8.524-4.262-20.93 4.857-27.744 20.382-6.812 15.525-5.393 31.568 3.13 35.822.247.126.5.239.758.34-7.865-4.8-8.993-20.353-2.396-35.421Z" fill="#263238" stroke="#263238" stroke-width=".23" stroke-miterlimit="10"/><path d="M99.25 127.604c.988-2.254 1.805-2.889 2.581-2.501.776.389.844 1.465-.144 3.72l-.571 1.311 2.301 1.149.435-.991c1.893-4.282 2.177-7.435.757-9.018l1.026-2.347-1.995-.996-1.025 2.344c-2.04-.089-4.092 2.185-5.947 6.427-3.947 9.017.674 11.737-2.168 18.212-.988 2.255-1.828 2.833-2.604 2.429-.776-.405-.909-1.445.08-3.7l1.085-2.48-2.305-1.154-.946 2.165c-1.892 4.282-2.195 7.48-.757 9.074l-1.007 2.303 1.995.996 1.007-2.299c2.044.142 4.163-2.153 6.03-6.439 3.958-9.009-.667-11.709 2.172-18.205Z" fill="#263238" stroke="#263238" stroke-width=".23" stroke-miterlimit="10"/><path d="M98.683 127.316c.988-2.254 1.806-2.89 2.582-2.501.776.388.844 1.465-.144 3.719l-.572 1.291 2.302 1.154.435-.992c1.892-4.286 2.176-7.435.757-9.021l1.026-2.344-1.995-.999-1.026 2.347c-2.04-.089-4.088 2.186-5.946 6.427-3.948 9.017.674 11.717-2.169 18.213-.988 2.254-1.828 2.833-2.604 2.428-.776-.405-.908-1.441.08-3.699l1.086-2.477-2.301-1.153-.95 2.165c-1.893 4.282-2.195 7.479-.757 9.074l-1.007 2.299 1.995.999 1.007-2.299c2.043.142 4.163-2.153 6.029-6.439 3.955-9.001-.67-11.7 2.172-18.192ZM83.731 138.978v.62a36.338 36.338 0 0 1-.28 3.982c0 .057 0 .109-.022.162a35.25 35.25 0 0 1-.738 3.983.39.39 0 0 1-.046.169 34.354 34.354 0 0 1-1.234 3.979l-.064.17a35.458 35.458 0 0 1-1.813 3.978 1.578 1.578 0 0 1-.087.17 34.71 34.71 0 0 1-2.623 4.145 32.836 32.836 0 0 1-3.437 3.982l-.17.166a32.355 32.355 0 0 1-4.943 3.983l-.261.166a30.73 30.73 0 0 1-9.879 4.148 30.422 30.422 0 0 1-13.413 0 30.73 30.73 0 0 1-9.88-4.148l-.26-.166a32.359 32.359 0 0 1-4.943-3.983l-.17-.166a33.467 33.467 0 0 1-3.434-3.982c-.041-.053-.083-.106-.12-.162a34.695 34.695 0 0 1-2.503-3.983 1.58 1.58 0 0 1-.087-.17 34.788 34.788 0 0 1-1.813-3.978l-.064-.17a35.048 35.048 0 0 1-1.234-3.979 1.133 1.133 0 0 1-.041-.169 34.42 34.42 0 0 1-.757-3.983l-.027-.154a36.334 36.334 0 0 1-.276-4.148v-.453c0-1.179.055-2.357.166-3.53 0-.056 0-.109.02-.166a35.38 35.38 0 0 1 .616-3.982c0-.057.02-.113.034-.166.294-1.35.663-2.68 1.105-3.983.023-.052.038-.109.057-.161a35.677 35.677 0 0 1 1.685-3.991c.022-.057.052-.113.079-.17a34.417 34.417 0 0 1 2.309-3.978 33.62 33.62 0 0 1 3.274-4.153l.151-.166a32.967 32.967 0 0 1 4.466-3.982l.224-.162a31.609 31.609 0 0 1 7.339-3.983l.442-.166a30.528 30.528 0 0 1 20.727 0l.446.166a31.456 31.456 0 0 1 7.316 3.987c.076.053.152.105.224.162a33.04 33.04 0 0 1 4.466 3.982c.053.053.102.11.151.166a33.67 33.67 0 0 1 3.164 3.983l.114.17a34.445 34.445 0 0 1 2.388 4.148 34.952 34.952 0 0 1 1.658 3.983l.057.161a36.55 36.55 0 0 1 1.105 3.983c0 .053.026.109.034.166.282 1.313.49 2.643.62 3.982v.166c.117 1.171.177 2.348.182 3.525Z" fill="#fff" stroke="#263238" stroke-width=".23" stroke-linejoin="round"/><path d="M62.232 106.414H40.617l.443-.166a30.528 30.528 0 0 1 20.726 0l.446.166Z" fill="#fff" stroke="#263238" stroke-width=".23" stroke-linejoin="round"/><path d="M69.79 110.554H33.055l.224-.162a31.608 31.608 0 0 1 7.339-3.982l.442-.166h20.719l.447.166a31.458 31.458 0 0 1 7.342 3.986c.076.049.16.102.224.158Z" fill="#CFCFCF" stroke="#263238" stroke-width=".23" stroke-linejoin="round"/><path d="M74.405 114.707H28.433l.152-.166a33.048 33.048 0 0 1 4.466-3.983l.223-.162h36.29c.076.053.151.105.223.162a33.048 33.048 0 0 1 4.618 4.149Z" fill="#333" stroke="#263238" stroke-width=".23" stroke-linejoin="round"/><path d="M77.671 118.859H25.16a33.63 33.63 0 0 1 3.274-4.152l.151-.166h45.68c.053.052.102.109.151.166a33.66 33.66 0 0 1 3.165 3.982l.09.17Z" fill="#7D7D7D" stroke="#263238" stroke-width=".23" stroke-linejoin="round"/><path d="M80.073 123.008h-57.28c.022-.057.053-.114.08-.17a34.43 34.43 0 0 1 2.308-3.979c.035-.059.073-.115.113-.17h52.278l.113.17a34.388 34.388 0 0 1 2.305 3.979c.03.055.059.111.083.17Z" fill="#D4D4D4" stroke="#263238" stroke-width=".23" stroke-linejoin="round"/><path d="M81.787 127.152H21.058c.023-.053.038-.109.057-.162a35.643 35.643 0 0 1 1.677-3.982c.022-.057.053-.114.08-.17h57.151a35.013 35.013 0 0 1 1.741 4.152l.023.162Z" fill="#CFCFCF" stroke="#263238" stroke-width=".23" stroke-linejoin="round"/><path d="M82.925 131.3H19.918c0-.056.018-.113.034-.166.293-1.35.662-2.679 1.105-3.982.023-.053.038-.109.057-.162h60.615l.057.162a36.555 36.555 0 0 1 1.105 3.982c.011.053.026.11.034.166Z" fill="#CFCFCF" stroke="#263238" stroke-width=".23" stroke-linejoin="round"/><path d="M83.56 135.449H19.28c0-.057 0-.109.02-.166.13-1.34.336-2.67.617-3.983 0-.056.019-.113.034-.165H82.89c0 .052.026.109.034.165.282 1.313.49 2.643.62 3.983.005.057.012.109.016.166Z" fill="#E8E8E8" stroke="#263238" stroke-width=".23" stroke-linejoin="round"/><path d="M83.728 138.978v.619H19.124a1.21 1.21 0 0 1 0-.166v-.453c0-1.179.055-2.356.166-3.529 0-.057 0-.109.019-.166h64.237v.166c.116 1.172.177 2.35.182 3.529Z" fill="#F7F7F7" stroke="#263238" stroke-width=".23" stroke-linejoin="round"/><path d="M83.731 139.431v.166a36.356 36.356 0 0 1-.28 3.983c0 .056 0 .109-.022.162H19.426l-.038-.154a36.352 36.352 0 0 1-.276-4.149l64.62-.008Z" fill="#fff" stroke="#263238" stroke-width=".23" stroke-linejoin="round"/><path d="M83.446 143.588c0 .056 0 .109-.023.162a35.213 35.213 0 0 1-.738 3.982.393.393 0 0 1-.045.17H20.208a1.104 1.104 0 0 1-.042-.17 34.363 34.363 0 0 1-.757-3.982l-.023-.162h64.06Z" fill="#fff" stroke="#263238" stroke-width=".23" stroke-linejoin="round"/><path d="M82.683 147.724a.39.39 0 0 1-.046.17 34.354 34.354 0 0 1-1.234 3.979l-.064.17H21.504l-.065-.17a35.048 35.048 0 0 1-1.234-3.979 1.116 1.116 0 0 1-.041-.17h62.519Z" fill="#fff" stroke="#263238" stroke-width=".23" stroke-linejoin="round"/><path d="m81.406 151.877-.065.17a35.458 35.458 0 0 1-1.813 3.978 1.678 1.678 0 0 1-.087.17H23.426a1.678 1.678 0 0 1-.087-.17 34.771 34.771 0 0 1-1.813-3.978l-.064-.17h59.945Z" fill="#CFCFCF" stroke="#263238" stroke-width=".23" stroke-linejoin="round"/><path d="M79.53 156.021a1.678 1.678 0 0 1-.088.17 34.71 34.71 0 0 1-2.501 3.983c-.038.056-.08.109-.121.162H26.03a34.71 34.71 0 0 1-2.623-4.145 1.699 1.699 0 0 1-.087-.17h56.21Z" fill="#D4D4D4" stroke="#263238" stroke-width=".23" stroke-linejoin="round"/><path d="M76.938 160.181a2.26 2.26 0 0 1-.121.162 32.838 32.838 0 0 1-3.437 3.983l-.17.166H29.63l-.17-.166a33.477 33.477 0 0 1-3.433-3.983 2.26 2.26 0 0 1-.121-.162h51.032Z" fill="#7D7D7D" stroke="#263238" stroke-width=".23" stroke-linejoin="round"/><path d="m73.38 164.318-.17.166a32.415 32.415 0 0 1-4.943 3.983l-.261.165h-33.17l-.262-.165a32.415 32.415 0 0 1-4.943-3.983l-.17-.166h43.92Z" fill="#333" stroke="#263238" stroke-width=".23" stroke-linejoin="round"/><path d="m68.267 168.47-.261.166a30.732 30.732 0 0 1-9.879 4.149H44.714a30.732 30.732 0 0 1-9.879-4.149l-.261-.166h33.693Z" fill="#CFCFCF" stroke="#263238" stroke-width=".23" stroke-linejoin="round"/><path d="M48.866 173.53c17.843 0 32.308-15.468 32.308-34.547 0-19.08-14.465-34.548-32.308-34.548s-32.308 15.468-32.308 34.548c0 19.079 14.465 34.547 32.308 34.547Z" fill="#fff" stroke="#263238" stroke-width=".23" stroke-linejoin="round"/><path d="M48.866 166.753c14.344 0 25.972-12.434 25.972-27.772s-11.628-27.772-25.972-27.772c-14.344 0-25.972 12.434-25.972 27.772s11.628 27.772 25.972 27.772Z" fill="#fff" stroke="#263238" stroke-width=".23" stroke-linejoin="round"/><path d="M45.625 140.476c-4.81 10.292-13.247 13.255-18.258 14.089 1.947 3.087 4.455 5.723 7.375 7.753a25.04 25.04 0 0 0 9.62 4.061c3.428.65 6.944.556 10.338-.276a25.212 25.212 0 0 0 9.42-4.567c2.82-2.183 5.203-4.949 7.004-8.136a29.037 29.037 0 0 0 3.481-10.414c.496-3.685.293-7.44-.595-11.04a28.587 28.587 0 0 0-4.578-9.917c-9.98.996-18.709 7.544-23.807 18.447Z" fill="#263238"/><path d="M22.89 138.981c.002 7.232 2.642 14.179 7.36 19.362 4.717 5.183 11.14 8.193 17.9 8.39h.417c-6.693-.3-13.02-3.354-17.656-8.524-4.637-5.17-7.226-12.056-7.226-19.22s2.589-14.05 7.226-19.22c4.636-5.17 10.963-8.224 17.656-8.524l-.416-.036c-6.765.197-13.19 3.21-17.908 8.397-4.718 5.187-7.356 12.139-7.353 19.375Z" fill="#263238" stroke="#263238" stroke-width=".23" stroke-miterlimit="10"/><path d="M47.534 129.52c0-2.489.931-3.436 2.563-3.436 1.63 0 2.558.947 2.558 3.436v1.445H57.5v-1.097c0-4.731-1.862-7.718-5.496-8.499v-2.59h-4.19v2.59c-3.588.846-5.4 3.833-5.4 8.499 0 9.961 10.01 10.309 10.01 17.48 0 2.49-1.026 3.384-2.65 3.384-1.623 0-2.649-.894-2.649-3.384v-2.739h-4.852v2.387c0 4.732 1.862 7.771 5.541 8.568v2.538h4.19v-2.538c3.634-.809 5.541-3.836 5.541-8.568 0-9.956-10.01-10.288-10.01-17.476Z" fill="#263238" stroke="#fff" stroke-width=".23" stroke-miterlimit="10"/><path d="M46.519 129.52c0-2.489.935-3.436 2.562-3.436 1.628 0 2.563.947 2.563 3.436v1.445h4.833v-1.097c0-4.731-1.862-7.718-5.492-8.499v-2.59h-4.186v2.59c-3.584.846-5.401 3.833-5.401 8.499 0 9.961 10.01 10.309 10.01 17.48 0 2.49-1.021 3.384-2.649 3.384-1.627 0-2.65-.894-2.65-3.384v-2.739h-4.844v2.387c0 4.732 1.862 7.771 5.541 8.568v2.538H51v-2.538c3.63-.809 5.541-3.836 5.541-8.568-.007-9.956-10.022-10.288-10.022-17.476Z" fill="#fff" stroke="#263238" stroke-width=".23" stroke-linejoin="round"/><path d="m164.665 44.361-1.623 1.215a2.06 2.06 0 0 0-1.169-.834 1.94 1.94 0 0 0-1.398.162c-1.62.785-5.298 4.816-6.385 8.499-1.086 3.683 2.513 7.896 1.832 9.462-.681 1.567-2.619 2.024-2.46 4.65.159 2.627 8.902 6.157 13.088 4.084 4.186-2.072.159-6.88 1.102-8.454.942-1.575 3.663-1.117 3.663-5.764 0-4.646-.829-7.001-2.407-9.855-1.362-2.436-2.725-3.723-4.243-3.165Z" fill="#263238" stroke="#263238" stroke-width=".23" stroke-linecap="round" stroke-linejoin="round"/><path d="M170.051 166.167a33.615 33.615 0 0 1-1.824 4.047c-.757 1.247-2.82 1.368-2.044 2.384.776 1.016 2.744 1.352 4.163.34 1.42-1.012 1.601-2.858 2.703-3.558 1.101-.7 1.211-1.72.825-2.934-.386-1.214-1.03-1.542-1.03-1.542s-.624 1.453-2.793 1.263Z" fill="#fff" stroke="#263238" stroke-width=".23" stroke-linecap="round" stroke-linejoin="round"/><path d="M151.417 92.119s-1.514 7.62-.972 13.51c.541 5.888 1.411 11.202 1.945 13.279.534 2.076 4.542 21.713 4.86 21.944.318.23 7.581 10.838 8.989 14.885 1.408 4.048 4.099 10.843 4.099 10.843s1.472.757 2.445-.166c.973-.923.617-1.178.617-1.178s-3.187-15.149-4.92-20.924c-1.734-5.775-4.429-12.243-4.429-12.243s5.182-21.479 3.993-29.913c-1.188-8.434-2.698-9.47-2.698-9.47s-8.853 3.476-13.929-.567Z" fill="#263238" stroke="#263238" stroke-width=".23" stroke-linecap="round" stroke-linejoin="round"/><path d="M166.034 93.842c3.273 4.753 5.345 10.329 6.014 16.188.973 9.471-4.212 15.708-5.299 21.714-1.086 6.006.443 8.119-1.177 14.355-1.62 6.237-2.01 7.573-3.088 11.037-1.079 3.465-2.597 8.22-2.597 8.22s-.643.68-2.047.68c-1.405 0-1.579-.032-1.579-.032s2.389-18.091 2.495-23.879c.106-5.787.757-12.012.757-12.012s-.757-21.365.863-25.409c1.619-4.043 2.702-5.196 2.702-5.196" fill="#263238"/><path d="M166.034 93.842c3.273 4.753 5.345 10.329 6.014 16.188.973 9.471-4.212 15.708-5.299 21.714-1.086 6.006.443 8.119-1.177 14.355-1.62 6.237-2.01 7.573-3.088 11.037-1.079 3.465-2.597 8.22-2.597 8.22s-.643.68-2.047.68c-1.405 0-1.579-.032-1.579-.032s2.389-18.091 2.495-23.879c.106-5.787.757-12.012.757-12.012s-.757-21.365.863-25.409c1.619-4.043 2.702-5.196 2.702-5.196" stroke="#263238" stroke-width=".23" stroke-linecap="round" stroke-linejoin="round"/><path d="M158.757 138.086c0-3.396.038-8.265.171-11.907.219-6.201.666-20.985 3.785-25.041M158.761 142.127v-1.688" stroke="#fff" stroke-width=".23" stroke-linecap="round" stroke-linejoin="round"/><path d="M153.793 102.092s2.327 6.455 6.097 8.021" stroke="#fff" stroke-width=".23" stroke-linecap="round" stroke-linejoin="round"/><path d="M152.39 66.596a3.422 3.422 0 0 0-2.254.477 3.799 3.799 0 0 0-1.531 1.834c-1.184 2.772-6.211 13.675-6.211 15.063 0 1.389 1.412 5.165 3.743 3.068 1.367-1.214 5.299-10.045 5.299-10.045" fill="#92E3A9"/><path d="M152.39 66.596a3.422 3.422 0 0 0-2.254.477 3.799 3.799 0 0 0-1.531 1.834c-1.184 2.772-6.211 13.675-6.211 15.063 0 1.389 1.412 5.165 3.743 3.068 1.367-1.214 5.299-10.045 5.299-10.045" stroke="#263238" stroke-width=".23" stroke-linecap="round" stroke-linejoin="round"/><path d="M170.318 69.726c-.992-3.302-7.066-3.472-7.54-3.582 0 0-.208.336-.208-.404s.379-3.473.379-3.473-4.137 0-4.818-1.566c0 0-.106 3.804-.576 5.261 0 0-.651.506-2.222.506-1.57 0-4.163-.676-4.95 1.62a4.654 4.654 0 0 0-.121.48c-.379 1.523-1.556 6.278-1.692 8.334-.091 1.376.636 4.047 1.298 6.176.045 1.522.117 2.813.197 3.643.378 3.751.155 8.596 1.306 9.381 1.15.785 9.806 2.113 12.532.882 2.725-1.23 2.554-4.666 2.554-6.289 0-1.623 4.856-17.666 3.861-20.969Z" fill="#92E3A9" stroke="#263238" stroke-width=".23" stroke-linecap="round" stroke-linejoin="round"/><path d="M155.355 77.53s.666 3.1 4.235 4.77" stroke="#263238" stroke-width=".23" stroke-linecap="round" stroke-linejoin="round"/><path d="M166.372 66.743a23.565 23.565 0 0 0-3.596-.599s-.208.336-.208-.404.379-3.473.379-3.473-4.137 0-4.819-1.566c0 0-.106 3.804-.575 5.261 0 0-1.514.32-2.96.498.25 1.59 1.189 4.93 4.69 5.33 3.047.365 5.666-2.84 7.089-5.047ZM166.153 58.263s.844-.632.757.453c-.087 1.084-.591 2.076-1.181 2.254a3.82 3.82 0 0 1-1.015.182l1.439-2.89ZM157.538 56.178s-.844-.995-.927.632c-.083 1.627.757 2.076.757 2.076l.17-2.708Z" fill="#fff" stroke="#263238" stroke-width=".23" stroke-linecap="round" stroke-linejoin="round"/><path d="M162.078 50.51s-1.234 1.295-4.322 1.618c0 0-1.257 4.983-.156 8.342 1.102 3.359 3.028 3.865 4.542 3.416 2.585-.761 4.61-6.383 5.186-8.5.007.005-4.364-1.74-5.25-4.877Z" fill="#fff" stroke="#263238" stroke-width=".23" stroke-linecap="round" stroke-linejoin="round"/><path d="M160.274 55.583c-.091.405-.379.708-.613.648-.235-.061-.379-.45-.284-.87.094-.421.378-.705.613-.644.235.06.371.45.284.866ZM163.625 56.583c-.091.405-.378.708-.609.647-.231-.06-.379-.449-.284-.866.094-.417.378-.708.609-.647.231.06.375.433.284.866Z" fill="#263238"/><path d="M160.613 58.138c.119.143.269.251.437.316.167.065.348.085.524.057M159.3 58.803s.875 1.962 3.501 1.12M159.3 53.745s.701-.47 1.662.279M163.238 54.396c.395.044.778.174 1.124.383.345.209.647.492.886.831" stroke="#263238" stroke-width=".23" stroke-linecap="round" stroke-linejoin="round"/><path d="M156.271 165.374s-1.294 3.306-3.785 5.018c-1.188.81-3.13 1.15-2.513 2.182s4.417 1.032 6.211.243c1.794-.79 2.544-.947 3.112-2.101.567-1.153.59-5.371.59-5.371a5.51 5.51 0 0 1-3.615.029ZM153.225 83.66s-2.71-3.319-2.884-3.642c-.174-.324-4.538-1.801-4.538-1.801a1.445 1.445 0 0 0-.023.898c.17.316 2.96 1.105 2.96 1.105l.25.405-3.823-.571s-.682.126-.5.603c.182.478 4.254 1.097 4.254 1.097l-4.163.202c.053.218.167.414.325.563.159.148.355.243.564.27.686.037 2.355-.076 2.355-.076s-1.961.296-1.548.838c.412.542 2.509-.09 2.509-.09l1.662 1.11 1.676 1.27.924-2.18Z" fill="#fff" stroke="#263238" stroke-width=".23" stroke-linecap="round" stroke-linejoin="round"/><path d="m167.023 73.44-2.797 12.385s-7.388-.927-8.985-1.425a10.417 10.417 0 0 1-1.798-.639l-1.154 2.08s5.147 3.331 9.276 4.825c4.13 1.493 5.591 2.703 6.654.78 1.064-1.922 2.93-13.594 3.464-17.508.533-3.913-.069-5.196-1.265-5.694a16.21 16.21 0 0 0-2.729-.785" fill="#92E3A9"/><path d="m167.023 73.44-2.797 12.385s-7.388-.927-8.985-1.425a10.417 10.417 0 0 1-1.798-.639l-1.154 2.08s5.147 3.331 9.276 4.825c4.13 1.493 5.591 2.703 6.654.78 1.064-1.922 2.93-13.594 3.464-17.508.533-3.913-.069-5.196-1.265-5.694a16.21 16.21 0 0 0-2.729-.785" stroke="#263238" stroke-width=".23" stroke-linecap="round" stroke-linejoin="round"/><path d="m144.288 82.313 15.678 2.299-.538 2.161s-6.404 1.619-11.691 1.882c-6.775.32-5.882-4.561-4.694-6.755" fill="#92E3A9"/><path d="m144.288 82.313 15.678 2.299-.538 2.161s-6.404 1.619-11.691 1.882c-6.775.32-5.882-4.561-4.694-6.755" stroke="#263238" stroke-width=".23" stroke-linecap="round" stroke-linejoin="round"/><path d="M159.952 84.608s4.053-1 4.371-1.137c.318-.138 4.606 1.558 4.606 1.558s-.185.587-.499.72c-.314.134-2.968-1.08-2.968-1.08l-.423.141 3.345 2.093s.462.55.042.81c-.42.258-3.982-1.94-3.982-1.94l3.176 2.91a1.005 1.005 0 0 1-1.181.073c-.56-.425-1.809-1.619-1.809-1.619s1.374 1.526.734 1.684c-.64.158-1.923-1.724-1.923-1.724l-1.949-.223-2.063-.105.523-2.161Z" fill="#fff" stroke="#263238" stroke-width=".23" stroke-linecap="round" stroke-linejoin="round"/><path d="M7.273 173.537h171.835" stroke="#263238" stroke-width=".23" stroke-linejoin="round"/></svg>