<svg width="80" height="48" fill="none" xmlns="http://www.w3.org/2000/svg"><path d="m45.67 47.12-.002.88 34.327-19.799v-.88L45.67 47.118Z" fill="#F0F0F0"/><path d="M79.994 27.32 34.336.985l-34.34 19.81 45.672 26.324L79.994 27.32Z" fill="#FAFAFA"/><path d="m34.336 1.197 45.293 26.124-33.96 19.588L.362 20.794 34.336 1.197Zm0-.21L-.004 20.793 45.668 47.12l34.326-19.798L34.336.98v.005Z" fill="#EBEBEB"/><path d="M45.668 47.12-.004 20.795v.856l45.67 26.35.002-.864v-.017ZM14.308 16.265l-8.193 4.726c-.202.117-.211.3-.022.41a.789.789 0 0 0 .709-.014l8.192-4.726c.203-.117.213-.3.023-.408a.781.781 0 0 0-.709.012ZM17.051 17.848l-8.193 4.725c-.202.117-.213.3-.023.41a.787.787 0 0 0 .71-.014l8.192-4.725c.203-.117.213-.3.023-.409a.782.782 0 0 0-.709.013ZM12.612 18.82l-5.126 2.965c-.201.116-.212.3-.023.407a.782.782 0 0 0 .709-.012l5.127-2.956c.202-.116.213-.3.022-.408a.783.783 0 0 0-.709.004ZM41.042 9.32 14.267 24.763c-.2.117-.211.3-.023.41a.788.788 0 0 0 .71-.014L41.728 9.716c.202-.117.213-.3.022-.408a.78.78 0 0 0-.709.012ZM42.413 10.113 15.639 25.556c-.202.117-.213.3-.022.408a.783.783 0 0 0 .709-.012L43.099 10.51c.203-.117.213-.3.023-.408a.783.783 0 0 0-.709.012ZM43.786 10.902 17.01 26.346c-.202.117-.213.3-.022.408a.78.78 0 0 0 .709-.012l26.775-15.444c.2-.116.211-.3.023-.408a.782.782 0 0 0-.71.012ZM45.163 11.698 18.396 27.141c-.2.117-.211.3-.023.41a.788.788 0 0 0 .71-.014l26.775-15.443c.202-.117.213-.3.022-.408a.782.782 0 0 0-.718.012ZM47.937 13.296 21.163 28.737c-.203.117-.213.3-.023.41a.783.783 0 0 0 .71-.014l26.773-15.441c.202-.117.213-.3.022-.41a.782.782 0 0 0-.709.014ZM49.304 14.092l-26.77 15.441c-.203.117-.213.3-.023.41a.784.784 0 0 0 .71-.014l26.781-15.441c.203-.117.212-.3.023-.41a.781.781 0 0 0-.72.014ZM50.68 14.88 23.903 30.33c-.201.117-.212.3-.023.41a.788.788 0 0 0 .71-.014l26.774-15.45c.206-.122.206-.296.032-.41a.784.784 0 0 0-.718.014ZM52.058 15.678 25.284 31.114c-.203.117-.213.3-.023.41a.784.784 0 0 0 .71-.014L52.743 16.07c.202-.117.213-.3.023-.41a.781.781 0 0 0-.71.019ZM54.828 17.268 28.053 32.711c-.203.117-.212.3-.023.409a.78.78 0 0 0 .709-.013l26.775-15.443c.203-.117.212-.3.023-.408a.782.782 0 0 0-.709.012ZM56.203 18.061 29.427 33.504c-.2.117-.211.3-.023.408a.787.787 0 0 0 .711-.012L56.89 18.457c.202-.117.213-.3.022-.408a.783.783 0 0 0-.709.012ZM45.169 26.004l-14.355 8.274c-.2.117-.211.3-.023.41a.791.791 0 0 0 .71-.014L45.856 26.4c.203-.115.213-.298.023-.408a.788.788 0 0 0-.71.012ZM42.994 41.014l12.181-7.02c.13-.074.136-.191.014-.263a.507.507 0 0 0-.456.01l-12.18 7.024c-.132.075-.139.193-.017.263a.503.503 0 0 0 .458-.014ZM42.111 40.5l9.239-5.325c.13-.075.136-.193.014-.263a.499.499 0 0 0-.456.009l-9.239 5.324c-.13.075-.137.193-.015.263a.51.51 0 0 0 .457-.009ZM58.11 32.3l12.18-7.03c.132-.075.137-.192.016-.264a.51.51 0 0 0-.457.009l-12.181 7.024c-.13.076-.136.194-.014.264a.5.5 0 0 0 .456-.003ZM57.227 31.786l9.239-5.324c.13-.075.136-.194.015-.263a.503.503 0 0 0-.457.008l-9.239 5.324c-.13.075-.136.194-.014.264a.506.506 0 0 0 .456-.009Z" fill="#E0E0E0"/><path d="M53.533 32.993a9.002 9.002 0 0 0-2.808.872 5.506 5.506 0 0 1-1.278-1.399l-.033-.164-.199-1.023a1.173 1.173 0 0 0-.124-.484.398.398 0 0 0-.405-.145c-.035 0-.089.027-.087.051.067.648.288 1.27.644 1.816v.028l.101.5a.79.79 0 0 1 .03.44.536.536 0 0 1-.498.251.548.548 0 0 1-.532-.261c-.021-.054-.208-.047-.19 0 .04.1.07.2.1.301l-.561-.307c-.058-.031-.207-.012-.175.044a1.35 1.35 0 0 1 .185 1.017 6.66 6.66 0 0 1-1.116-1.247c-.038-.058-.223-.04-.208.026.117.523.241 1.06.362 1.59.06.264.12.524.174.788.04.12.068.243.084.368l-.246.164a7.202 7.202 0 0 1-.454-.393c.03-.195.03-.393 0-.588a3.61 3.61 0 0 0-.478-1.694 3.108 3.108 0 0 0-.27-.375 1.987 1.987 0 0 0-.364-.36.469.469 0 0 0-.437-.034.287.287 0 0 0-.174.272c.018.289.08.573.185.843.103.292.237.573.4.837.257.415.567.795.922 1.13a.426.426 0 0 1-.39.35l-.229-.123c-.054-.026-.174-.015-.174.03a.747.747 0 0 0-.03.316l-.578-.105c-.05-.009-.138.01-.143.045l-.066.51c0 .042.012.242-.075.258-.088.016-.231-.084-.28-.112-.049-.028-.09-.057-.133-.087a1.123 1.123 0 0 0-.426-.73c-.052-.045-.21-.013-.21.041 0 .195.069.383.195.532.053.063.111.121.174.175a.975.975 0 0 1-.349.828.809.809 0 0 1-.575.26.584.584 0 0 1-.148-.026c.423-.548.484-1.192.119-1.745a1.865 1.865 0 0 0-.248-.3.175.175 0 0 0-.175-.017c-.475.216-.707.555-.716.898.018.385.184.748.465 1.012.081.082.176.15.28.202-.072.085-.15.164-.233.238-.21.182-.445.333-.698.448-.29.155-.616.23-.945.22-.417-.037-.637-.34-.782-.541a1.863 1.863 0 0 1-.233-.438c1.081-.401 1.895-1.032 2.27-1.744.227-.422.358-.928.156-1.363a.894.894 0 0 0-.75-.485 1.573 1.573 0 0 0-.934.19c-.249.138-.46.335-.614.575a2.425 2.425 0 0 0-.339.783 4.42 4.42 0 0 0-.152 1.56c.018.16.054.32.107.474l-.145.052c-.15.05-.306.096-.467.138-.085.023.03.07.093.054.189-.047.372-.1.55-.159.021.056.045.11.072.162.13.272.328.506.574.68.573.395 1.463.058 1.947-.22.261-.146.497-.334.699-.555h.024c.237.049.484.015.699-.096a1.265 1.265 0 0 0 .677-.83.974.974 0 0 0 .014-.097c.056.03.115.055.175.075.218.077.462.032.499-.122.042-.21.07-.421.082-.635l.589.105c.06.01.15-.014.14-.056a.699.699 0 0 1 0-.255c.045.025.091.045.139.06a.524.524 0 0 0 .25-.013.62.62 0 0 0 .364-.228.529.529 0 0 0 .032-.054c.12.11.248.216.38.32a38.03 38.03 0 0 0-3.623 2.792 31.529 31.529 0 0 0-2.312 2.259c-.057.06.144.078.19.028a33.778 33.778 0 0 1 4.25-3.777 38.663 38.663 0 0 1 1.637-1.184h.012a.189.189 0 0 0 .175.008.372.372 0 0 0 .276-.324 40.972 40.972 0 0 1 2.994-1.825c.163-.09.332-.174.502-.265.123.06.256.097.392.112.277.016.554-.027.812-.126a4.912 4.912 0 0 0 1.73-.95c.038-.032-.038-.077-.113-.067ZM39.42 37.778a3.43 3.43 0 0 1 .009-1.373c.08-.499.199-1.015.62-1.46.19-.209.442-.353.72-.412a.849.849 0 0 1 .872.292.967.967 0 0 1 .147.65 1.802 1.802 0 0 1-.154.621c-.323.728-1.103 1.38-2.168 1.811a.517.517 0 0 1-.046-.129Zm2.904.04a1.526 1.526 0 0 1-.444-.842.85.85 0 0 1 .493-.873 1.395 1.395 0 0 1 .105 1.837 1.076 1.076 0 0 1-.156-.122h.002Zm2.62-4.082a3.522 3.522 0 0 1-.091-.368 1.13 1.13 0 0 1-.042-.349.183.183 0 0 1 .087-.148c.092-.044.19.075.234.115.1.096.194.199.281.307.324.413.537.902.62 1.42.05.283.078.57.084.857v.08a4.75 4.75 0 0 1-1.175-1.914h.001Zm3.883-2.965c.103.064.122.261.13.305l.1.502.044.226a3.814 3.814 0 0 1-.28-1.03l.006-.003Zm-.917 4.71c-.24.15-.473.301-.707.455 0-.024-.009-.047-.014-.07l-.196-.855a178.41 178.41 0 0 0-.298-1.297c.302.358.633.69.991.992.035.03.16.021.175-.017.118-.331.101-.695-.047-1.014l.524.283c.045.024.19.02.174-.03-.015-.05-.045-.129-.066-.192.179.074.374.1.566.077.452-.054.62-.288.593-.532a3.647 3.647 0 0 0-.05-.333c.26.345.563.655.903.92.036.03.074.056.113.08l-.049.022c-.934.475-1.788.993-2.612 1.516v-.005Zm4.12-1.637c-.257.121-.537.186-.822.19a.94.94 0 0 1-.333-.088 8.722 8.722 0 0 1 2.429-.806 4.655 4.655 0 0 1-1.278.71l.005-.006ZM61.9 23.584c-.03.012-.053.035-.052.056.1.832.336 1.642.699 2.397-.208.052-.477.044-.604-.077-.037-.035-.175-.038-.189.012-.014.051-.021.102-.033.154l-.35-.213c-.045-.026-.186-.02-.174.03l.089.425a1.92 1.92 0 0 1-.384-.277c-.046-.045-.208-.03-.175.03a.71.71 0 0 1 .06.469c-.206-.153-.4-.32-.582-.5-.035-.037-.2-.037-.183.018.047.16.078.323.092.489v.216c0 .074.018.175-.055.24-.112.1-.243-.076-.287-.126a1.097 1.097 0 0 1-.098-.13 3.934 3.934 0 0 0-.206-.509v-.01c-.022-.05-.192-.028-.187.02.027.19.1.37.212.524.07.216.117.439.143.665-.187.129-.379.26-.571.389a3.717 3.717 0 0 1-.154-.345c.064-.163.102-.334.114-.508a1.764 1.764 0 0 0-.28-1.024c.042-.136.07-.276.084-.417a1.48 1.48 0 0 0-.206-.89 1.329 1.329 0 0 0-1.013-.673c-1.032-.147-1.875.418-2.015.957-.174.65.376 1.303.78 1.89.22.32.448.64.657.962a7.478 7.478 0 0 1-1.802.946c-.066.023.055.061.107.043a8.207 8.207 0 0 0 1.77-.872c.204.313.385.639.542.977-.592.513-1.029 1.068-1.081 1.713-.026.292.046.585.204.832.086.135.395.607.772.435.074-.04.134-.101.175-.175.054-.071.104-.146.15-.223a2.378 2.378 0 0 0 .328-1.343 3.453 3.453 0 0 0-.33-1.23c.353-.29.72-.562 1.102-.815a.797.797 0 0 0 .25.313.48.48 0 0 0 .497.012.265.265 0 0 0 .102-.208 3.182 3.182 0 0 0 .005-.708c.11-.077.221-.154.328-.234.079-.06-.1-.096-.164-.049l-.184.13a4.061 4.061 0 0 0-.043-.247c.088.052.191.071.291.055.285-.046.25-.287.25-.416-.003-.14-.02-.28-.047-.418.16.144.326.28.5.406.038.028.155.023.174-.017a.75.75 0 0 0 .042-.409 2.6 2.6 0 0 0 .374.208c.047.021.174 0 .158-.038l-.083-.401.297.174c.04.024.164.024.174-.017.01-.042.025-.1.035-.149.212.072.439.085.657.037.135.275.284.543.447.802.198.313.413.615.644.904.054.068.28.016.225-.052a9.275 9.275 0 0 1-1.1-1.72.688.688 0 0 0 .435-.608 2.115 2.115 0 0 0-.5-1.542c-.13-.163-.425-.493-.832-.34Zm-3.998 7.23a2.307 2.307 0 0 1-.416.898c-.019.024-.041.08-.076.097-.035.018-.03.016-.079 0a.245.245 0 0 1-.06-.035 1.035 1.035 0 0 1-.19-.19 1.376 1.376 0 0 1-.237-.408c-.213-.576.026-1.188.463-1.71a4.3 4.3 0 0 1 .385-.394 2.93 2.93 0 0 1 .21 1.743Zm.917-3.872c0 .1-.008.198-.027.295a3.05 3.05 0 0 1-.12-.947c.092.205.142.427.147.652Zm-2.65-.72c-.362-.574-.682-1.284.065-1.807.4-.263.885-.36 1.354-.27a1.222 1.222 0 0 1 .906.823c.114.308.125.646.03.96-.013 0-.021.015-.023.023-.002.01 0 .046 0 .067a2.853 2.853 0 0 1-.41.787c-.261.345-.572.65-.922.905-.323-.496-.685-.99-1-1.488Zm1.085 1.612c.49-.334.906-.765 1.223-1.267.02.344.096.682.225 1.002a.448.448 0 0 1-.369.333c-.106.019 0 .078.082.066a.54.54 0 0 0 .365-.211c.035.075.074.15.114.225a15.52 15.52 0 0 0-1.1.802 8.415 8.415 0 0 0-.54-.95Zm2.371.302c0 .062.013.174-.059.233-.122.09-.229-.024-.278-.089a1.88 1.88 0 0 1-.174-.275c.148-.1.297-.2.442-.3l.076-.054c.01.161.007.323-.007.485Zm2.782-4.264a2.058 2.058 0 0 1 .56 1.075c.067.25.062.514-.015.762-.04.1-.111.186-.203.244a7.527 7.527 0 0 1-.492-1.374 6.53 6.53 0 0 1-.157-.91c.12.004.265.16.307.203ZM65.457 25.612c-.149.175-.196.386-.507.496a.816.816 0 0 1-.386.042.531.531 0 0 0-.205-.39.318.318 0 0 0-.36 0c-.096.084.012.21.087.287.08.078.178.133.286.162a.465.465 0 0 1-.043.21c-.009.02-.128.217-.175.2-.047-.018-.138.014-.073.041.278.12.449-.256.475-.348a.402.402 0 0 0 .012-.067c.137.012.275.001.409-.033.377-.094.626-.36.661-.59-.005-.044-.151-.043-.181-.01Zm-1.24.318c-.009-.014-.07-.131-.038-.128 0 0 .041.055.045.058.004.003.033.04.049.06.03.042.054.09.07.139a.547.547 0 0 1-.126-.13ZM64.8 24.958c-.056.032.061.07.106.044.046-.026-.055-.077-.106-.044Z" fill="#E0E0E0"/><path opacity=".2" d="m53.087 34.505-.748.349c1.746 1.194 4.952 1.313 7.16.263l-.59-.398c-1.796.853-4.406.757-5.822-.214Zm.97-3.112c-1.589.757-1.858 2.074-.602 2.935 1.256.862 3.57.948 5.158.19 1.59-.756 1.858-2.073.6-2.935-1.257-.862-3.568-.947-5.156-.19Zm4.26 2.923c-1.382.66-3.395.585-4.488-.174a2.023 2.023 0 0 1-.21-.164l4.97.19c-.089.054-.18.104-.273.148Zm.638-.403-5.587-.207c-.395-.553-.257-1.204.365-1.72l5.566.206c.398.553.271 1.203-.344 1.721ZM54.1 31.726c.08-.047.165-.09.254-.134 1.38-.66 3.394-.585 4.487.165.068.047.133.097.196.15l-4.937-.181Zm-2.502 3.489c2.066 1.418 5.872 1.557 8.485.312 2.612-1.246 3.055-3.412.99-4.83-2.066-1.418-5.873-1.558-8.485-.313-2.612 1.246-3.056 3.413-.99 4.83Zm9.101-4.34c1.903 1.306 1.495 3.302-.912 4.45-2.406 1.147-5.912 1.018-7.815-.288-1.903-1.307-1.495-3.302.911-4.45 2.406-1.148 5.913-1.017 7.816.288Zm-6.932.317c1.791-.853 4.4-.757 5.818.215l.746-.35c-1.747-1.194-4.953-1.313-7.16-.263l.596.398Z" fill="#BA68C8"/><path d="m22.646 15.635-.505-1.08a.525.525 0 0 1-.008-.06c0-.03.017-.058.066-.086l.244-.141a.207.207 0 0 1 .098-.023.2.2 0 0 1 .096.023l2.328 1.343a.063.063 0 0 1 .038.056.064.064 0 0 1-.038.055l-.292.175a.208.208 0 0 1-.195 0l-1.408-.811.35.737a.142.142 0 0 1 0 .063c0 .025-.02.046-.053.065l-.187.108a.252.252 0 0 1-.113.031 1.01 1.01 0 0 1-.11 0l-1.279-.197 1.408.811a.068.068 0 0 1 .04.056.064.064 0 0 1-.04.056l-.292.174a.188.188 0 0 1-.098.023.175.175 0 0 1-.096-.023l-2.327-1.34a.06.06 0 0 1-.028-.092.06.06 0 0 1 .028-.022l.246-.141a.278.278 0 0 1 .145-.039h.106l1.876.28ZM26.854 14.117a.2.2 0 0 1 .096-.023c.034 0 .068.007.098.023l.255.148a.063.063 0 0 1 .04.056.066.066 0 0 1-.04.056l-1.572.912a.189.189 0 0 1-.098.022.175.175 0 0 1-.095-.022l-2.328-1.341a.06.06 0 0 1-.042-.057.059.059 0 0 1 .042-.057l1.552-.894a.189.189 0 0 1 .098-.023.175.175 0 0 1 .096.023l.257.148a.065.065 0 0 1 .04.056.069.069 0 0 1-.04.056l-1.163.67.572.33 1.083-.625a.213.213 0 0 1 .098-.023c.034 0 .067.007.098.023l.255.148a.066.066 0 0 1 .04.055.064.064 0 0 1-.04.056l-1.093.621.599.349 1.192-.687ZM26.352 12.016c.27-.164.577-.258.892-.274.285-.012.568.058.816.2a.68.68 0 0 1 .326.328.365.365 0 0 1-.078.363l1.386.227a.156.156 0 0 1 .05.015c.01.004.017.01.023.019a.05.05 0 0 1-.022.074l-.308.174a.275.275 0 0 1-.14.042.644.644 0 0 1-.111-.009l-1.311-.21-.479.275.84.483a.066.066 0 0 1 .038.057.064.064 0 0 1-.04.056l-.291.175a.176.176 0 0 1-.096.022.19.19 0 0 1-.098-.022l-2.326-1.341a.067.067 0 0 1-.04-.056.065.065 0 0 1 .04-.056l.929-.542Zm.594.966.523-.302a.594.594 0 0 0 .257-.23c.033-.075-.017-.15-.152-.229a.6.6 0 0 0-.393-.085 1.2 1.2 0 0 0-.396.15l-.524.302.685.394ZM28.582 11.807a1.086 1.086 0 0 1-.316-.273.455.455 0 0 1-.098-.297.543.543 0 0 1 .14-.309c.113-.125.246-.23.395-.31a2.31 2.31 0 0 1 1.12-.326 1.509 1.509 0 0 1 .664.122c.031.016.045.035.042.056a.076.076 0 0 1-.042.057l-.291.175a.186.186 0 0 1-.084.024.337.337 0 0 1-.075 0l-.102-.014a1.032 1.032 0 0 0-.197 0c-.09.01-.18.025-.269.047a1.23 1.23 0 0 0-.31.133c-.175.103-.277.214-.287.333-.01.119.061.227.216.324.088.056.184.114.287.175.103.06.204.115.302.164.184.106.394.158.606.151.2-.011.395-.071.567-.174.079-.043.151-.096.217-.157a.319.319 0 0 0 .098-.166.213.213 0 0 0-.044-.174.696.696 0 0 0-.217-.174l-.03-.018-.438.255a.206.206 0 0 1-.097.022.213.213 0 0 1-.098-.022l-.255-.148a.066.066 0 0 1-.04-.056.064.064 0 0 1 .04-.056l.828-.478a.221.221 0 0 1 .195 0l.396.229c.126.067.238.158.329.268.073.083.113.19.112.3a.537.537 0 0 1-.137.316 1.476 1.476 0 0 1-.405.317 2.154 2.154 0 0 1-1.084.31 1.965 1.965 0 0 1-.524-.062 2.115 2.115 0 0 1-.475-.185l-.157-.084-.175-.098-.174-.097-.133-.1ZM34.038 9.973a.192.192 0 0 1 .098-.023.189.189 0 0 1 .098.023l.255.146a.068.068 0 0 1 .04.056.065.065 0 0 1-.04.056l-1.572.912a.221.221 0 0 1-.196 0l-2.325-1.341a.067.067 0 0 1-.04-.056.064.064 0 0 1 .04-.056l1.552-.896a.208.208 0 0 1 .098-.023c.033 0 .066.007.096.023l.256.148a.065.065 0 0 1 .039.056.063.063 0 0 1-.038.056l-1.165.671.572.33 1.085-.625a.222.222 0 0 1 .195 0l.255.147a.06.06 0 0 1 .042.056.06.06 0 0 1-.042.057l-1.084.625.599.348 1.182-.69ZM33.54 7.876c.27-.165.576-.26.892-.276.285-.012.567.058.813.2.144.07.26.185.329.329a.363.363 0 0 1-.079.362l1.387.227c.017.003.033.01.048.017a.052.052 0 0 1 .034.046.055.055 0 0 1-.032.045l-.307.175a.275.275 0 0 1-.14.041.499.499 0 0 1-.112-.008l-1.31-.211-.48.275.839.485a.061.061 0 0 1 .04.056.066.066 0 0 1-.04.056l-.292.174a.201.201 0 0 1-.096.023.208.208 0 0 1-.098-.023L32.61 8.526a.063.063 0 0 1-.039-.056.064.064 0 0 1 .039-.055l.93-.54Zm.593.964.524-.3a.599.599 0 0 0 .255-.23c.035-.075-.016-.152-.15-.229a.58.58 0 0 0-.393-.085c-.14.025-.275.076-.397.15l-.523.3.684.394ZM19.619 15.07a.138.138 0 0 1-.079.02.148.148 0 0 1-.08-.02l-1.903-1.097a.054.054 0 0 1-.034-.04.057.057 0 0 1 .032-.047l.873-.5c.115-.07.24-.12.372-.149.114-.026.232-.037.35-.035.098 0 .197.011.294.033.078.021.153.052.224.091.05.027.096.062.134.105a.283.283 0 0 1 .073.186c0 .02-.004.038-.01.056a1.63 1.63 0 0 1 .35 0 .93.93 0 0 1 .362.12.63.63 0 0 1 .175.154c.043.052.07.116.077.183a.298.298 0 0 1-.056.197.627.627 0 0 1-.22.192l-.934.551Zm-.332-1.5a.417.417 0 0 0-.24-.056.62.62 0 0 0-.282.096l-.524.3.454.262.524-.3c.101-.06.157-.113.175-.162.017-.05-.04-.096-.114-.14h.007Zm.283 1.104.545-.314c.108-.063.164-.12.174-.174.01-.054-.031-.105-.106-.148a.488.488 0 0 0-.26-.061.65.65 0 0 0-.306.095l-.545.314.498.288ZM21.087 11.836a.16.16 0 0 1 .08-.017.153.153 0 0 1 .08.017l1.208.698c.105.056.199.13.277.22a.348.348 0 0 1 0 .486c-.088.1-.193.182-.31.244a1.745 1.745 0 0 1-.854.232 1.542 1.542 0 0 1-.793-.216l-1.208-.697a.056.056 0 0 1-.032-.048.053.053 0 0 1 .032-.045l.239-.138a.156.156 0 0 1 .08-.019c.028 0 .055.006.079.02l1.192.697c.076.043.156.076.24.1a.82.82 0 0 0 .452-.008c.07-.022.14-.052.204-.089a.741.741 0 0 0 .157-.12.214.214 0 0 0 .063-.127.195.195 0 0 0-.047-.134.574.574 0 0 0-.175-.138l-1.192-.69a.048.048 0 0 1-.024-.017.048.048 0 0 1 0-.057.049.049 0 0 1 .024-.018l.228-.136ZM22.29 11.116a1.75 1.75 0 0 1 1.112-.229.85.85 0 0 1 .235.08c.027.012.039.028.035.046a.056.056 0 0 1-.035.045l-.206.12a.215.215 0 0 1-.094.032.47.47 0 0 1-.098 0 .95.95 0 0 0-.262 0 .926.926 0 0 0-.45.216.313.313 0 0 0-.073.096.128.128 0 0 0 0 .09c.014.033.04.06.071.075.042.026.09.042.138.048a.538.538 0 0 0 .175-.013c.079-.016.156-.039.232-.068l.332-.12c.13-.048.26-.09.394-.124.11-.027.221-.044.334-.049.097-.004.194.005.288.027.09.02.176.054.255.1.077.041.141.101.187.175a.27.27 0 0 1 .026.208.552.552 0 0 1-.14.23c-.091.091-.195.17-.309.232a1.934 1.934 0 0 1-.73.246 1.534 1.534 0 0 1-.368 0 .97.97 0 0 1-.316-.09c-.025-.013-.037-.027-.035-.046a.062.062 0 0 1 .035-.046l.206-.118a.275.275 0 0 1 .192-.035c.04 0 .082.012.127.016a.61.61 0 0 0 .147 0 .989.989 0 0 0 .38-.142c.056-.031.108-.067.158-.106a.372.372 0 0 0 .1-.108.15.15 0 0 0 .024-.101.132.132 0 0 0-.075-.09.297.297 0 0 0-.149-.036.759.759 0 0 0-.195.032c-.075.02-.163.05-.264.087-.101.036-.218.08-.35.125-.113.04-.23.075-.348.101-.1.022-.2.034-.302.037a1.019 1.019 0 0 1-.538-.146.461.461 0 0 1-.185-.175.29.29 0 0 1-.03-.204.498.498 0 0 1 .12-.214c.072-.08.156-.15.248-.204ZM25.664 11.581a.138.138 0 0 1-.079.02.149.149 0 0 1-.08-.02l-1.903-1.097a.054.054 0 0 1-.032-.045.057.057 0 0 1 .032-.047l.239-.136a.138.138 0 0 1 .078-.02.145.145 0 0 1 .08.02l1.904 1.097c.021.012.033.028.032.045a.053.053 0 0 1-.032.045l-.24.138ZM27.782 10.36a.202.202 0 0 1-.103.028h-.08l-2.05-.232 1.213.697c.021.014.034.029.034.048a.056.056 0 0 1-.033.045l-.24.138a.174.174 0 0 1-.159 0l-1.903-1.097a.056.056 0 0 1-.031-.047.054.054 0 0 1 .031-.046l.206-.118a.206.206 0 0 1 .103-.03h.08l2.05.232-1.213-.697a.053.053 0 0 1-.031-.045.054.054 0 0 1 .03-.046l.24-.138a.154.154 0 0 1 .079-.02.16.16 0 0 1 .08.02l1.903 1.097a.05.05 0 0 1 0 .092l-.206.119ZM29.533 8.928a.161.161 0 0 1 .08-.019c.028 0 .055.006.08.02l.209.12c.02.012.033.028.031.045a.053.053 0 0 1-.031.045l-1.294.747a.154.154 0 0 1-.079.02.16.16 0 0 1-.08-.02l-1.903-1.097a.05.05 0 0 1-.03-.046.05.05 0 0 1 .03-.046l1.27-.733a.195.195 0 0 1 .16 0l.208.122a.047.047 0 0 1 0 .09l-.952.55.468.27.887-.51a.175.175 0 0 1 .16 0l.208.12a.047.047 0 0 1 0 .09l-.887.511.49.283.975-.562ZM28.961 7.267a1.807 1.807 0 0 1 .782-.242c.11-.009.22-.005.329.012a.895.895 0 0 1 .237.072c.027.012.039.028.037.047a.062.062 0 0 1-.035.045l-.208.119a.245.245 0 0 1-.094.033.615.615 0 0 1-.096 0 .897.897 0 0 0-.264 0 .874.874 0 0 0-.32.122.815.815 0 0 0-.13.092.318.318 0 0 0-.074.098.113.113 0 0 0 0 .089c.013.033.038.06.07.075a.394.394 0 0 0 .314.037c.079-.019.157-.041.233-.068l.333-.12c.129-.05.26-.091.395-.125.108-.028.22-.045.332-.05a.974.974 0 0 1 .543.127c.076.04.14.1.186.175a.274.274 0 0 1 .027.209.522.522 0 0 1-.14.228c-.092.092-.196.171-.31.234a2.097 2.097 0 0 1-.348.159c-.125.041-.253.07-.383.087a1.631 1.631 0 0 1-.368 0 .93.93 0 0 1-.315-.09c-.026-.013-.038-.029-.036-.046a.07.07 0 0 1 .036-.047l.207-.119a.245.245 0 0 1 .094-.033.305.305 0 0 1 .096 0c.04 0 .082.012.127.016a.86.86 0 0 0 .147 0 .959.959 0 0 0 .175-.046 1.243 1.243 0 0 0 .363-.202.408.408 0 0 0 .101-.108.153.153 0 0 0 .023-.103.134.134 0 0 0-.075-.087.278.278 0 0 0-.147-.037.666.666 0 0 0-.196.03c-.076.023-.164.05-.263.089l-.35.125c-.114.04-.23.074-.349.1-.099.023-.2.036-.302.036a1.078 1.078 0 0 1-.291-.026 1.136 1.136 0 0 1-.264-.111.467.467 0 0 1-.187-.175.289.289 0 0 1-.03-.204c.026-.079.07-.15.131-.207.074-.083.161-.154.257-.21ZM30.87 6.169c.125-.075.26-.134.4-.175a2.01 2.01 0 0 1 .383-.068c.11-.008.219-.003.327.014a.93.93 0 0 1 .239.072c.024.012.037.028.035.045a.061.061 0 0 1-.035.047l-.206.119a.215.215 0 0 1-.094.031.376.376 0 0 1-.098 0 1.021 1.021 0 0 0-.262 0 .964.964 0 0 0-.45.217.276.276 0 0 0-.074.097.123.123 0 0 0 0 .09.14.14 0 0 0 .072.074.35.35 0 0 0 .138.047.524.524 0 0 0 .174-.01c.08-.018.158-.041.234-.068l.332-.122c.13-.048.261-.09.395-.124.109-.028.22-.044.333-.049.096-.004.193.005.286.026.09.021.176.055.255.101.078.04.143.1.189.175a.291.291 0 0 1 .026.209.553.553 0 0 1-.141.228c-.091.093-.195.171-.31.232a1.873 1.873 0 0 1-.73.246 1.452 1.452 0 0 1-.368 0 .928.928 0 0 1-.316-.089c-.026-.012-.036-.028-.035-.047a.062.062 0 0 1 .035-.045l.206-.119a.22.22 0 0 1 .095-.033.376.376 0 0 1 .097 0 1.236 1.236 0 0 0 .275.016 1.081 1.081 0 0 0 .38-.141c.056-.031.109-.066.16-.105a.43.43 0 0 0 .078-.105.16.16 0 0 0 .024-.1.13.13 0 0 0-.075-.088.282.282 0 0 0-.148-.038.751.751 0 0 0-.196.031c-.075.021-.164.05-.264.087-.1.037-.218.08-.349.126-.111.04-.225.074-.34.101-.1.023-.2.036-.302.037a1.06 1.06 0 0 1-.538-.145.464.464 0 0 1-.185-.175.279.279 0 0 1-.03-.204.482.482 0 0 1 .12-.212c.074-.082.161-.152.257-.206Z" fill="#BA68C8"/></svg>