<svg width="80" height="44" fill="none" xmlns="http://www.w3.org/2000/svg"><path d="M11.716 6.88c-15.622 8.49-15.62 22.259 0 30.75 15.62 8.49 40.947 8.49 56.569 0 15.621-8.491 15.62-22.26 0-30.75-15.62-8.49-40.948-8.49-56.57 0Z" fill="#F5F5F5"/><path d="m18.374 34.572 1.025-.557-5.995-.524.966 3.258 1.025-.556 12.587 6.798a70.27 70.27 0 0 0 7.586.866l-17.194-9.285ZM35.738 10.956 75.41 32.38c.676-.7 1.298-1.445 1.86-2.229L38.718 9.345l1.024-.558-5.996-.531.966 3.257 1.026-.557ZM11.989 22.69l-5.993-.525.964 3.262 1.025-.558L43.278 43.92a71.27 71.27 0 0 0 5.205-.417L10.964 23.247l1.025-.557ZM73.652 19.583l1.015-.555-5.993-.526.97 3.264 1.023-.557 8.76 4.73c.302-.954.486-1.939.548-2.933l-6.323-3.423ZM72.778 34.716l-12.072-6.519 1.023-.557-5.993-.524.966 3.257 1.023-.555 12.434 6.713a30.827 30.827 0 0 0 2.62-1.815Z" fill="#EBEBEB"/></svg>