<svg width="64" height="34" fill="none" xmlns="http://www.w3.org/2000/svg"><path d="M9.372 5.13c-12.497 6.604-12.495 17.313 0 23.917 12.496 6.604 32.758 6.604 45.256 0 12.497-6.604 12.496-17.313 0-23.917-12.496-6.604-32.758-6.604-45.256 0Z" fill="#F5F5F5"/><path d="m14.7 26.67.82-.434-4.796-.408.772 2.534.82-.432 10.07 5.287c2.007.331 4.033.556 6.069.674L14.7 26.669ZM28.59 8.3l31.737 16.664a15.527 15.527 0 0 0 1.488-1.733L30.975 7.046l.819-.433-4.797-.414.772 2.534.821-.434ZM9.591 17.427l-4.794-.408.771 2.537.82-.434L34.622 33.94a58.583 58.583 0 0 0 4.164-.324L8.771 17.86l.82-.434ZM58.922 15.01l.811-.431-4.794-.41.776 2.54.819-.434 7.007 3.68a9.298 9.298 0 0 0 .439-2.282l-5.058-2.662ZM58.222 26.781l-9.657-5.07.818-.434-4.794-.407.772 2.533.819-.432 9.947 5.222a24.685 24.685 0 0 0 2.095-1.412Z" fill="#EBEBEB"/></svg>