<svg width="15" height="14" fill="none" xmlns="http://www.w3.org/2000/svg"><path d="m14.359 6.468-.685-.49a.306.306 0 0 1-.103-.291c.031-.15.051-.302.06-.455 0-.1.126-.224.276-.28l.586-.22c.152-.055.254-.174.23-.263l-.252-.91c-.025-.09-.175-.145-.315-.122l-.661.096a.4.4 0 0 1-.36-.103 2.992 2.992 0 0 0-.31-.393.308.308 0 0 1-.034-.316l.312-.697a.223.223 0 0 0-.08-.286l-.807-.454a.257.257 0 0 0-.31.096l-.43.567a.393.393 0 0 1-.35.141 2.876 2.876 0 0 0-.382-.052.38.38 0 0 1-.309-.164l-.33-.788C10.072.998 9.92.96 9.768 1l-.72.183c-.151.038-.263.146-.247.239l.134.832c.014.092-.089.229-.218.316-.08.054-.157.111-.232.174a.416.416 0 0 1-.383.1l-.745-.321a.248.248 0 0 0-.299.111l-.426.719a.228.228 0 0 0 .035.298l.685.489a.307.307 0 0 1 .103.293 2.9 2.9 0 0 0-.058.455c0 .1-.126.223-.278.28l-.59.214c-.15.056-.253.174-.229.263l.255.91c.025.09.175.145.315.123l.663-.096a.398.398 0 0 1 .35.103c.091.139.195.27.309.392a.307.307 0 0 1 .034.314l-.312.698a.221.221 0 0 0 .08.284l.807.456a.257.257 0 0 0 .31-.096l.439-.56a.388.388 0 0 1 .36-.142c.125.026.253.043.38.053a.377.377 0 0 1 .311.162l.32.794c.033.085.185.124.337.083l.72-.174c.151-.04.263-.147.247-.239l-.134-.832c-.014-.093.089-.229.218-.318.08-.054.158-.112.232-.174a.417.417 0 0 1 .383-.1l.745.322a.25.25 0 0 0 .299-.114l.426-.717a.228.228 0 0 0-.035-.309Zm-2.27-.523a1.849 1.849 0 0 1-2.494.639 1.746 1.746 0 0 1-.668-2.423 1.847 1.847 0 0 1 2.493-.639 1.746 1.746 0 0 1 .676 2.43l-.007-.007ZM6.763 8.433l-.559.227a.226.226 0 0 1-.218-.05 2.254 2.254 0 0 0-.244-.212.291.291 0 0 1-.063-.273l.092-.44c.025-.113-.008-.22-.071-.24l-.657-.194c-.063-.02-.15.045-.195.143l-.2.434a.283.283 0 0 1-.199.174 2.057 2.057 0 0 0-.349.037.224.224 0 0 1-.206-.1l-.3-.456a.162.162 0 0 0-.204-.061l-.587.315a.185.185 0 0 0-.061.225l.174.477a.282.282 0 0 1-.052.272c-.062.067-.12.137-.175.21a.276.276 0 0 1-.218.126l-.604-.111c-.065-.013-.145.066-.175.174l-.164.506c-.035.106-.012.215.05.242l.546.238c.06.026.104.141.108.253.002.069.007.138.016.207a.293.293 0 0 1-.088.269l-.48.33a.175.175 0 0 0-.047.223l.267.539a.175.175 0 0 0 .194.094l.56-.227a.219.219 0 0 1 .217.05c.078.076.162.146.251.21a.286.286 0 0 1 .065.274l-.093.44c-.024.113 0 .22.072.239l.655.197c.063.019.15-.046.194-.145l.195-.438a.289.289 0 0 1 .201-.174c.117-.003.234-.015.35-.037a.226.226 0 0 1 .205.1l.3.457a.162.162 0 0 0 .205.06l.587-.313a.187.187 0 0 0 .059-.227L5.942 12a.277.277 0 0 1 .055-.273c.062-.066.12-.137.174-.21a.279.279 0 0 1 .218-.126l.605.111c.064.013.146-.064.174-.174l.164-.506c.035-.106.013-.215-.049-.242l-.557-.238c-.062-.026-.104-.14-.108-.252a2.073 2.073 0 0 0-.016-.208.293.293 0 0 1 .088-.269l.48-.328a.174.174 0 0 0 .045-.225l-.251-.535a.164.164 0 0 0-.2-.093Zm-1.18 1.17a1.326 1.326 0 0 1-.571 1.757 1.263 1.263 0 0 1-1.73-.523 1.326 1.326 0 0 1 .57-1.757 1.262 1.262 0 0 1 1.73.524ZM5.393 2.478l-.49.198a.192.192 0 0 1-.191-.043 1.858 1.858 0 0 0-.222-.185.251.251 0 0 1-.056-.239l.086-.386c.02-.099 0-.193-.063-.209l-.57-.174c-.055-.016-.132.04-.174.127l-.175.384a.251.251 0 0 1-.174.155 1.877 1.877 0 0 0-.311.031.196.196 0 0 1-.175-.087l-.28-.397a.141.141 0 0 0-.174-.055l-.513.276a.16.16 0 0 0-.054.197l.157.419a.242.242 0 0 1-.045.237c-.056.058-.108.12-.156.185a.24.24 0 0 1-.192.11l-.524-.098c-.056-.01-.127.058-.157.152l-.145.443c-.03.094-.01.188.044.211l.487.21c.054.022.093.123.094.221 0 .061 0 .12.014.174a.258.258 0 0 1-.075.236l-.424.288a.16.16 0 0 0-.04.197l.239.467a.145.145 0 0 0 .175.082l.49-.199a.189.189 0 0 1 .19.044c.07.064.144.122.222.175a.255.255 0 0 1 .056.24l-.082.386c-.02.1 0 .192.065.21l.569.174c.056.017.133-.039.175-.126l.174-.384a.251.251 0 0 1 .175-.155 1.88 1.88 0 0 0 .312-.031.192.192 0 0 1 .175.087l.264.4a.14.14 0 0 0 .174.052l.514-.276a.162.162 0 0 0 .054-.197l-.157-.417a.24.24 0 0 1 .045-.237c.056-.06.108-.122.155-.187a.241.241 0 0 1 .192-.108l.524.096c.056.01.128-.058.157-.15l.145-.443c.03-.094.01-.189-.043-.213l-.487-.208a.267.267 0 0 1-.096-.223c0-.06 0-.12-.013-.174a.263.263 0 0 1 .075-.238l.421-.286a.159.159 0 0 0 .042-.197l-.229-.46a.141.141 0 0 0-.174-.082ZM4.357 3.503a1.16 1.16 0 0 1-.5 1.539 1.103 1.103 0 0 1-1.515-.457 1.159 1.159 0 0 1 .5-1.537 1.104 1.104 0 0 1 1.512.455h.003Z" fill="#F0F0F0"/></svg>