<svg width="14" height="12" fill="none" xmlns="http://www.w3.org/2000/svg"><path d="m.535 4.542.05.774a.222.222 0 0 0 .064.146c.038.04.09.066.148.074l.798.05a.42.42 0 0 1 .178.087c.05.042.09.096.113.156.037.082.08.162.125.24a.38.38 0 0 1 .05.355l-.493.637c-.054.07 0 .205.112.3l.548.458c.115.095.265.129.338.073l.637-.52a.395.395 0 0 1 .339 0c.116.046.235.086.356.119.063.02.12.055.164.102a.354.354 0 0 1 .088.165l.122.651a.232.232 0 0 0 .074.144.26.26 0 0 0 .154.066l.913-.035a.227.227 0 0 0 .14-.065.202.202 0 0 0 .06-.135l.037-.707a.277.277 0 0 1 .049-.145.3.3 0 0 1 .12-.102c.155-.052.304-.117.447-.192a.414.414 0 0 1 .362.066l.536.359c.121.08.27.095.338.033l.632-.646c.063-.064.026-.204-.08-.319l-.417-.43a.372.372 0 0 1-.106-.159.353.353 0 0 1-.01-.188c.06-.13.112-.264.152-.4a.28.28 0 0 1 .082-.128.306.306 0 0 1 .14-.07l.82-.115a.229.229 0 0 0 .13-.086.205.205 0 0 0 .038-.146l-.052-.774a.224.224 0 0 0-.063-.146.25.25 0 0 0-.148-.074l-.797-.05a.422.422 0 0 1-.179-.086.389.389 0 0 1-.113-.157 3.264 3.264 0 0 0-.126-.24.377.377 0 0 1-.049-.354l.493-.636c.054-.072 0-.206-.112-.303l-.546-.455c-.117-.097-.266-.13-.338-.073l-.638.519a.39.39 0 0 1-.338 0 3.32 3.32 0 0 0-.357-.12.385.385 0 0 1-.164-.102.352.352 0 0 1-.088-.165l-.122-.65A.234.234 0 0 0 5.072 1a.26.26 0 0 0-.154-.068l-.913.035a.225.225 0 0 0-.14.066.2.2 0 0 0-.058.137l-.037.706a.278.278 0 0 1-.05.145.302.302 0 0 1-.12.1 3.239 3.239 0 0 0-.446.193.414.414 0 0 1-.36-.065l-.538-.36c-.121-.081-.27-.095-.338-.032l-.632.645c-.063.064-.026.204.08.319l.417.43c.05.043.086.098.107.159.02.06.024.125.011.188-.062.13-.114.263-.154.4a.284.284 0 0 1-.082.128.31.31 0 0 1-.14.072l-.82.114a.224.224 0 0 0-.132.085.2.2 0 0 0-.038.146Zm4.058-1.42c.473-.02.936.134 1.29.43.355.295.574.708.611 1.153a1.54 1.54 0 0 1-.099.64c-.078.205-.199.394-.356.554-.157.16-.346.289-.557.379-.211.09-.44.139-.67.144a1.893 1.893 0 0 1-1.291-.428 1.682 1.682 0 0 1-.61-1.154 1.542 1.542 0 0 1 .1-.64c.08-.204.201-.392.358-.552a1.73 1.73 0 0 1 .558-.378c.21-.09.439-.138.67-.143l-.004-.005ZM9.372 6.724l-.478.318a.16.16 0 0 0-.072.091.15.15 0 0 0 .01.113l.275.477a.263.263 0 0 1-.044.26 3.176 3.176 0 0 0-.107.16c-.054.092-.143.168-.21.158l-.595-.038c-.066 0-.133.077-.15.18l-.085.487c-.017.104.019.2.081.218l.58.16c.038.02.07.048.093.082a.247.247 0 0 1 .043.113c.014.085.034.169.06.25.011.044.01.09-.003.133a.26.26 0 0 1-.072.114l-.372.319a.168.168 0 0 0-.065.097.16.16 0 0 0 .017.114l.372.507a.165.165 0 0 0 .206.037l.469-.25a.229.229 0 0 1 .225 0c.093.066.192.127.296.18a.27.27 0 0 1 .078.104c.017.04.023.084.018.128l-.025.444c0 .1.042.19.106.2l.658.113c.064.011.142-.063.17-.167l.116-.401a.267.267 0 0 1 .066-.108.29.29 0 0 1 .111-.069c.108-.014.213-.036.317-.067a.23.23 0 0 1 .213.051l.389.424a.176.176 0 0 0 .213 0l.478-.327a.16.16 0 0 0 .07-.09.15.15 0 0 0-.01-.113l-.274-.478a.263.263 0 0 1 .044-.26c.038-.053.074-.108.106-.159.054-.092.144-.168.21-.159l.595.038c.066 0 .134-.076.152-.18l.083-.487c.017-.102-.019-.2-.081-.218l-.58-.159a.258.258 0 0 1-.093-.082.239.239 0 0 1-.04-.114 2.25 2.25 0 0 0-.062-.25.24.24 0 0 1 .003-.132.252.252 0 0 1 .072-.113l.372-.318a.168.168 0 0 0 .065-.097.16.16 0 0 0-.016-.114l-.365-.515a.159.159 0 0 0-.096-.056.166.166 0 0 0-.11.019l-.47.25a.232.232 0 0 1-.226 0 2.233 2.233 0 0 0-.296-.181.267.267 0 0 1-.078-.105.251.251 0 0 1-.018-.126l.025-.446c0-.1-.042-.19-.106-.2l-.658-.114c-.064-.01-.14.064-.17.167l-.116.403a.265.265 0 0 1-.062.121.288.288 0 0 1-.117.078 2.19 2.19 0 0 0-.316.067.231.231 0 0 1-.213-.05l-.39-.424a.176.176 0 0 0-.216-.008Zm2.473 1.773c.195.262.274.585.22.9a1.22 1.22 0 0 1-.958.981 1.315 1.315 0 0 1-.951-.163 1.207 1.207 0 0 1-.35-.326 1.175 1.175 0 0 1-.22-.902 1.221 1.221 0 0 1 .958-.98 1.313 1.313 0 0 1 .95.163c.14.086.258.197.35.327Z" fill="#F0F0F0"/></svg>