<svg width="11" height="10" fill="none" xmlns="http://www.w3.org/2000/svg"><path d="m.028 3.534.04.601a.17.17 0 0 0 .05.114.201.201 0 0 0 .12.057l.638.04a.34.34 0 0 1 .142.067c.041.033.072.075.09.121.03.064.064.126.101.187a.282.282 0 0 1 .04.276l-.394.496c-.044.054 0 .16.089.234l.438.355c.092.074.213.1.27.057l.51-.405a.323.323 0 0 1 .271 0c.093.036.189.067.286.093a.31.31 0 0 1 .13.08c.036.036.06.08.071.128l.098.506a.179.179 0 0 0 .06.112.21.21 0 0 0 .122.052l.73-.027a.184.184 0 0 0 .113-.05.155.155 0 0 0 .047-.106l.03-.55a.211.211 0 0 1 .04-.113.239.239 0 0 1 .096-.08c.123-.04.242-.09.357-.149a.34.34 0 0 1 .29.052l.428.279c.097.063.216.074.27.026l.506-.503c.05-.05.02-.159-.064-.248l-.333-.334a.289.289 0 0 1-.085-.124.267.267 0 0 1-.009-.146 2.1 2.1 0 0 0 .122-.312.217.217 0 0 1 .066-.1.247.247 0 0 1 .111-.054l.657-.089a.183.183 0 0 0 .104-.067.156.156 0 0 0 .03-.114l-.041-.601a.172.172 0 0 0-.05-.114.202.202 0 0 0-.12-.057l-.636-.039a.342.342 0 0 1-.143-.067.303.303 0 0 1-.091-.122 2.513 2.513 0 0 0-.1-.187.28.28 0 0 1-.04-.275l.394-.495c.043-.056 0-.16-.09-.236l-.436-.354c-.094-.075-.213-.101-.27-.057l-.51.404a.319.319 0 0 1-.272 0 2.709 2.709 0 0 0-.285-.093.31.31 0 0 1-.13-.08.272.272 0 0 1-.072-.128L3.717.89a.18.18 0 0 0-.06-.112.211.211 0 0 0-.123-.053l-.73.027a.182.182 0 0 0-.112.051.154.154 0 0 0-.046.107l-.03.55a.213.213 0 0 1-.04.112.24.24 0 0 1-.095.078 2.631 2.631 0 0 0-.358.15.34.34 0 0 1-.288-.05l-.43-.28c-.097-.064-.216-.075-.27-.025l-.506.501c-.05.05-.02.159.065.248l.332.334a.29.29 0 0 1 .086.124c.016.047.02.097.01.146-.051.1-.092.205-.124.312a.22.22 0 0 1-.066.1.25.25 0 0 1-.111.055l-.656.089a.18.18 0 0 0-.106.066.153.153 0 0 0-.031.114Zm3.247-1.105c.378-.015.748.104 1.032.334a1.3 1.3 0 0 1 .488.897c.01.17-.016.339-.079.498a1.25 1.25 0 0 1-.285.43 1.385 1.385 0 0 1-.446.296 1.49 1.49 0 0 1-.536.112 1.543 1.543 0 0 1-1.032-.333 1.298 1.298 0 0 1-.488-.898c-.01-.169.018-.338.08-.497.064-.16.16-.306.287-.43.125-.124.277-.224.446-.294.168-.07.35-.107.535-.111l-.002-.004ZM7.098 5.23l-.383.248a.125.125 0 0 0-.057.07.114.114 0 0 0 .009.089l.219.371a.2.2 0 0 1-.036.202c-.03.042-.059.084-.085.124-.043.072-.115.131-.167.124l-.477-.03c-.052 0-.107.06-.12.14l-.068.379c-.013.08.015.156.065.17l.464.123c.03.016.056.038.074.064.02.027.03.057.034.088.012.066.028.131.05.195a.188.188 0 0 1-.004.103.202.202 0 0 1-.058.089l-.297.247a.13.13 0 0 0-.052.077.121.121 0 0 0 .014.088l.297.394a.128.128 0 0 0 .077.043c.03.005.062 0 .088-.015l.375-.194a.187.187 0 0 1 .18 0c.075.052.154.1.237.14a.21.21 0 0 1 .063.082.193.193 0 0 1 .014.099l-.02.345c0 .078.033.148.085.156l.526.088c.052.009.114-.05.135-.13l.094-.312a.207.207 0 0 1 .053-.084.233.233 0 0 1 .089-.053 1.75 1.75 0 0 0 .253-.052.189.189 0 0 1 .09-.002c.03.007.058.021.08.041l.311.33a.143.143 0 0 0 .17 0l.384-.254a.125.125 0 0 0 .056-.071.114.114 0 0 0-.009-.088l-.22-.371a.2.2 0 0 1 .036-.202c.031-.042.06-.084.085-.124.044-.072.115-.131.168-.124l.476.03c.053 0 .107-.06.122-.14l.066-.379c.014-.08-.015-.156-.065-.17l-.464-.123a.204.204 0 0 1-.074-.064.183.183 0 0 1-.033-.089 1.702 1.702 0 0 0-.048-.194.182.182 0 0 1 .002-.103.196.196 0 0 1 .057-.088l.298-.247a.13.13 0 0 0 .052-.076.122.122 0 0 0-.013-.088l-.292-.401a.128.128 0 0 0-.077-.043.136.136 0 0 0-.088.014l-.376.195a.19.19 0 0 1-.18 0 1.797 1.797 0 0 0-.237-.141.208.208 0 0 1-.063-.081.19.19 0 0 1-.014-.099l.02-.347c0-.078-.034-.147-.085-.156l-.526-.088c-.052-.008-.112.05-.135.13l-.094.314a.204.204 0 0 1-.05.094.23.23 0 0 1-.093.06c-.086.012-.17.03-.253.053a.19.19 0 0 1-.091 0 .18.18 0 0 1-.08-.04l-.31-.33a.144.144 0 0 0-.173-.006Zm1.978 1.38c.156.203.22.455.176.7a.947.947 0 0 1-.406.615 1.081 1.081 0 0 1-1.121.021.955.955 0 0 1-.28-.254.894.894 0 0 1-.176-.701.948.948 0 0 1 .407-.615c.108-.071.23-.121.36-.148a1.08 1.08 0 0 1 .76.127.954.954 0 0 1 .28.255Z" fill="#F0F0F0"/></svg>