<svg width="12" height="15" fill="none" xmlns="http://www.w3.org/2000/svg"><path d="m11.236 4.315-.818-.114a.311.311 0 0 1-.14-.071.284.284 0 0 1-.084-.128 2.569 2.569 0 0 0-.152-.402.352.352 0 0 1 .01-.187.371.371 0 0 1 .107-.16l.416-.43c.107-.11.144-.25.083-.318l-.633-.645c-.062-.063-.211-.05-.338.032l-.538.36a.406.406 0 0 1-.361.065 3.152 3.152 0 0 0-.447-.192.3.3 0 0 1-.12-.101.277.277 0 0 1-.049-.145l-.037-.706a.202.202 0 0 0-.059-.137.227.227 0 0 0-.139-.066L7.024.935a.263.263 0 0 0-.155.068.235.235 0 0 0-.075.144l-.12.65a.352.352 0 0 1-.088.165.384.384 0 0 1-.164.102 3.348 3.348 0 0 0-.359.12.389.389 0 0 1-.338 0l-.637-.52c-.068-.057-.218-.023-.339.074l-.547.455c-.115.097-.17.23-.11.303l.49.636a.363.363 0 0 1-.047.354 2.75 2.75 0 0 0-.127.24.39.39 0 0 1-.113.156.423.423 0 0 1-.178.088l-.798.05a.254.254 0 0 0-.147.073.227.227 0 0 0-.065.146l-.05.774a.202.202 0 0 0 .037.146.225.225 0 0 0 .132.086l.82.115a.308.308 0 0 1 .14.07c.04.034.068.078.083.127.04.137.09.272.152.401a.353.353 0 0 1-.01.188.372.372 0 0 1-.106.16l-.416.43c-.108.109-.144.25-.083.318l.632.646c.063.062.21.048.339-.033l.537-.359a.398.398 0 0 1 .36-.067c.144.076.294.14.449.193a.3.3 0 0 1 .12.102c.03.043.047.093.049.145l.037.707a.2.2 0 0 0 .059.135c.036.037.085.06.139.065l.913.035a.257.257 0 0 0 .154-.066.23.23 0 0 0 .074-.144l.122-.651a.354.354 0 0 1 .088-.165.386.386 0 0 1 .164-.102 3.48 3.48 0 0 0 .358-.12.395.395 0 0 1 .339 0l.635.51c.07.055.218.022.339-.074l.547-.457c.115-.095.17-.23.11-.3l-.49-.637a.366.366 0 0 1 .047-.355c.046-.078.088-.16.127-.24a.384.384 0 0 1 .113-.156.417.417 0 0 1 .178-.087l.798-.05a.252.252 0 0 0 .148-.075.226.226 0 0 0 .063-.145l.051-.774a.203.203 0 0 0-.042-.139.226.226 0 0 0-.127-.08Zm-2.215.529a1.682 1.682 0 0 1-.61 1.153c-.355.296-.818.45-1.29.43a1.818 1.818 0 0 1-.67-.146c-.211-.09-.4-.219-.557-.379a1.612 1.612 0 0 1-.356-.553 1.54 1.54 0 0 1-.099-.64c.037-.445.256-.859.61-1.154.355-.296.818-.45 1.291-.429.231.006.46.055.67.145.21.09.4.219.556.38.157.16.278.348.356.553.078.205.112.422.099.64ZM4.418 8.948l-.387.424a.231.231 0 0 1-.213.05 2.212 2.212 0 0 0-.318-.066.285.285 0 0 1-.111-.08.262.262 0 0 1-.058-.12l-.117-.402c-.03-.103-.106-.178-.169-.16l-.66.114c-.063.011-.11.1-.106.2l.026.445a.25.25 0 0 1-.017.127.265.265 0 0 1-.078.105 1.979 1.979 0 0 0-.296.18.228.228 0 0 1-.225 0l-.47-.25a.166.166 0 0 0-.206.037l-.384.503a.163.163 0 0 0-.016.114.17.17 0 0 0 .063.097l.372.319c.035.031.06.07.073.114.013.043.015.089.003.133a2.242 2.242 0 0 0-.06.25.242.242 0 0 1-.043.113.261.261 0 0 1-.093.082l-.578.16c-.063.017-.1.114-.081.218l.083.487c.016.103.086.185.152.18l.595-.038c.066 0 .156.071.208.159.034.057.07.111.107.159a.27.27 0 0 1 .045.261l-.274.478a.15.15 0 0 0-.011.112.16.16 0 0 0 .07.091l.479.327a.176.176 0 0 0 .213 0l.384-.412a.231.231 0 0 1 .213-.05c.104.029.21.05.318.065a.283.283 0 0 1 .111.08.26.26 0 0 1 .058.12l.117.402c.03.104.106.178.169.16l.66-.114c.063-.01.11-.1.106-.2l-.026-.446a.249.249 0 0 1 .018-.127.263.263 0 0 1 .079-.104c.103-.053.201-.113.294-.181a.232.232 0 0 1 .225 0l.47.25c.033.018.073.025.11.018a.159.159 0 0 0 .096-.055l.372-.508a.165.165 0 0 0 .016-.114.172.172 0 0 0-.063-.098l-.372-.318a.256.256 0 0 1-.073-.114.244.244 0 0 1-.003-.133 2.13 2.13 0 0 0 .06-.248.24.24 0 0 1 .043-.114.26.26 0 0 1 .093-.082l.58-.16c.06-.017.098-.115.08-.217l-.083-.487c-.017-.104-.085-.185-.153-.18l-.593.038c-.068 0-.157-.072-.21-.16a1.326 1.326 0 0 0-.106-.159.265.265 0 0 1-.046-.26l.276-.477a.15.15 0 0 0 .01-.112.16.16 0 0 0-.071-.091l-.479-.327a.176.176 0 0 0-.198-.008Zm-.507 1.468c.272.191.454.475.508.79.054.316-.024.639-.219.9-.092.13-.211.242-.35.328a1.316 1.316 0 0 1-1.402-.026 1.224 1.224 0 0 1-.513-.79c-.055-.316.022-.64.216-.903.092-.13.212-.242.351-.329a1.315 1.315 0 0 1 1.407.03h.002Z" fill="#F0F0F0"/></svg>