<svg width="10" height="12" fill="none" xmlns="http://www.w3.org/2000/svg"><path d="m9.589 3.357-.655-.089a.251.251 0 0 1-.112-.055.22.22 0 0 1-.067-.1 1.963 1.963 0 0 0-.121-.312.267.267 0 0 1 .008-.146.289.289 0 0 1 .085-.124l.333-.334c.085-.086.115-.195.066-.248l-.506-.501c-.05-.05-.169-.039-.27.024l-.43.28a.343.343 0 0 1-.29.05 2.561 2.561 0 0 0-.357-.149.239.239 0 0 1-.096-.078.211.211 0 0 1-.04-.112l-.03-.55a.155.155 0 0 0-.046-.106.183.183 0 0 0-.112-.051L6.22.728a.213.213 0 0 0-.124.053.181.181 0 0 0-.06.112l-.096.505a.272.272 0 0 1-.07.129.31.31 0 0 1-.132.08 2.73 2.73 0 0 0-.287.092.319.319 0 0 1-.27 0l-.51-.404c-.054-.044-.175-.018-.27.057l-.439.355c-.092.075-.135.18-.088.235l.392.495a.275.275 0 0 1-.037.275c-.038.06-.07.124-.102.187a.304.304 0 0 1-.09.121.343.343 0 0 1-.143.068l-.638.039a.205.205 0 0 0-.118.058.174.174 0 0 0-.051.113l-.04.602c-.006.04.004.08.03.114a.18.18 0 0 0 .104.066l.657.09c.042.008.08.027.112.054a.218.218 0 0 1 .066.1c.032.106.072.21.122.311a.267.267 0 0 1-.009.146.289.289 0 0 1-.084.124l-.333.334c-.087.086-.115.195-.067.248l.506.503c.05.048.168.037.271-.026l.43-.279a.337.337 0 0 1 .288-.052c.115.06.235.11.359.15.04.018.072.045.096.08a.211.211 0 0 1 .04.112l.029.55c0 .039.018.076.047.105.029.029.068.047.111.05l.73.028a.209.209 0 0 0 .124-.052.178.178 0 0 0 .06-.111l.097-.507a.273.273 0 0 1 .07-.128.31.31 0 0 1 .131-.08 2.84 2.84 0 0 0 .287-.093.323.323 0 0 1 .27 0l.51.397c.055.043.174.017.27-.057l.438-.356c.092-.074.135-.18.088-.234l-.392-.495a.277.277 0 0 1 .038-.276c.036-.061.07-.124.101-.187a.299.299 0 0 1 .09-.121.338.338 0 0 1 .143-.068l.638-.04a.204.204 0 0 0 .118-.057.173.173 0 0 0 .051-.113l.04-.602a.155.155 0 0 0-.033-.108.181.181 0 0 0-.101-.063Zm-1.773.411c-.029.346-.204.668-.487.898-.284.23-.655.349-1.033.333a1.49 1.49 0 0 1-.536-.113c-.168-.07-.32-.17-.445-.294a1.25 1.25 0 0 1-.285-.43 1.168 1.168 0 0 1-.079-.499c.03-.346.204-.668.488-.897.284-.23.654-.35 1.033-.334.185.005.367.043.536.113.168.07.32.17.445.295.125.124.222.27.285.43.062.16.089.33.078.498ZM4.135 6.96l-.31.33a.19.19 0 0 1-.17.04 1.813 1.813 0 0 0-.255-.052.228.228 0 0 1-.09-.063.201.201 0 0 1-.045-.093L3.17 6.81c-.024-.08-.085-.139-.135-.124l-.527.088c-.052.009-.09.078-.086.156l.02.345a.19.19 0 0 1-.013.1.207.207 0 0 1-.062.081c-.083.04-.163.087-.237.14a.187.187 0 0 1-.18 0l-.376-.194a.136.136 0 0 0-.088-.015.128.128 0 0 0-.077.043l-.307.391a.124.124 0 0 0-.013.089c.007.03.025.057.05.076l.299.248a.2.2 0 0 1 .058.088c.01.034.011.07.002.104-.02.064-.036.129-.048.194a.185.185 0 0 1-.034.089.207.207 0 0 1-.075.063l-.462.124c-.05.014-.08.09-.065.17l.066.379c.014.08.07.144.122.14l.476-.03c.053 0 .125.056.166.124.028.045.056.087.086.124a.2.2 0 0 1 .037.203l-.22.371a.114.114 0 0 0-.01.088c.01.029.03.054.057.07l.383.255a.143.143 0 0 0 .17 0l.308-.321a.19.19 0 0 1 .17-.04c.083.024.168.041.255.052a.225.225 0 0 1 .089.062.2.2 0 0 1 .046.093l.093.313c.025.08.085.14.136.124l.527-.088c.052-.008.09-.078.085-.156l-.02-.346a.188.188 0 0 1 .014-.099.206.206 0 0 1 .063-.081c.083-.041.161-.088.236-.141a.19.19 0 0 1 .18 0l.376.194a.135.135 0 0 0 .165-.028l.297-.395a.125.125 0 0 0 .013-.089.134.134 0 0 0-.05-.076l-.298-.248a.198.198 0 0 1-.059-.088.184.184 0 0 1-.002-.104 1.62 1.62 0 0 0 .049-.193.184.184 0 0 1 .033-.088.206.206 0 0 1 .075-.064l.464-.124c.048-.013.078-.09.063-.17l-.066-.378c-.013-.08-.068-.144-.122-.14l-.475.03c-.054 0-.125-.056-.167-.124a1.04 1.04 0 0 0-.086-.124.2.2 0 0 1-.037-.202l.221-.372a.114.114 0 0 0 .01-.087.125.125 0 0 0-.058-.071l-.383-.254a.145.145 0 0 0-.158-.006Zm-.406 1.143c.217.148.363.369.406.614a.894.894 0 0 1-.175.7.955.955 0 0 1-.28.255 1.081 1.081 0 0 1-1.121-.02.95.95 0 0 1-.41-.614.895.895 0 0 1 .172-.703.955.955 0 0 1 .28-.256 1.081 1.081 0 0 1 1.126.023h.002Z" fill="#F0F0F0"/></svg>