<svg width="18" height="15" fill="none" xmlns="http://www.w3.org/2000/svg"><path d="m1.213 8.459.546.745a.278.278 0 0 0 .35.092l.787-.432a.461.461 0 0 1 .431.066c.09.06.175.115.274.166.152.082.281.221.274.326l-.057.931c0 .103.127.21.298.236l.812.125c.175.027.336-.031.364-.129l.267-.909a.424.424 0 0 1 .324-.212c.14-.024.278-.057.414-.098a.432.432 0 0 1 .412.117l.533.579a.286.286 0 0 0 .35.073l.84-.59a.246.246 0 0 0 .058-.322l-.42-.73a.349.349 0 0 1 0-.35c.112-.146.212-.301.298-.464a.438.438 0 0 1 .384-.152l.74.035c.175 0 .317-.068.336-.174l.175-1.031c.017-.101-.109-.22-.28-.267l-.67-.174a.447.447 0 0 1-.336-.28 3.256 3.256 0 0 0-.113-.493.349.349 0 0 1 .082-.335l.698-.61a.255.255 0 0 0 0-.334l-.523-.748a.274.274 0 0 0-.35-.093l-.787.435a.461.461 0 0 1-.431-.068 2.645 2.645 0 0 0-.275-.164c-.151-.084-.28-.224-.274-.326l.058-.932c0-.105-.128-.21-.299-.236l-.812-.125c-.174-.028-.335.03-.363.127l-.267.91a.419.419 0 0 1-.325.212c-.14.025-.279.057-.415.098a.433.433 0 0 1-.41-.116l-.533-.579a.285.285 0 0 0-.35-.073l-.841.588a.246.246 0 0 0-.058.323l.421.732a.349.349 0 0 1 0 .35c-.111.146-.21.302-.297.465a.445.445 0 0 1-.386.152L1.13 4.76c-.175 0-.318.068-.336.174L.62 5.968c-.018.101.106.22.28.265l.67.175a.445.445 0 0 1 .335.277c.025.168.063.333.113.495a.349.349 0 0 1-.082.333l-.698.613a.255.255 0 0 0-.024.333ZM4.146 4.57a2.048 2.048 0 0 1 2.818.436 1.939 1.939 0 0 1-.483 2.744 2.052 2.052 0 0 1-2.819-.436 1.939 1.939 0 0 1 .484-2.744ZM9.362 10.438l-.082.657a.197.197 0 0 0 .132.217l.624.162a.328.328 0 0 1 .192.248c.017.075.038.148.063.221a.326.326 0 0 1-.02.304l-.489.457c-.054.05-.036.174.04.27l.362.466c.077.097.189.148.253.111l.587-.348a.306.306 0 0 1 .274.047c.085.056.174.108.265.153a.313.313 0 0 1 .156.263v.566a.202.202 0 0 0 .148.21l.728.107a.175.175 0 0 0 .19-.14l.142-.587a.244.244 0 0 1 .175-.175c.13-.02.259-.053.384-.096a.32.32 0 0 1 .265.107l.369.384c.084.085.199.12.257.075l.604-.449c.06-.043.052-.174-.014-.275l-.262-.424a.322.322 0 0 1-.039-.309c.07-.1.133-.204.185-.314a.244.244 0 0 1 .208-.134l.669.026a.175.175 0 0 0 .175-.175l.082-.659a.199.199 0 0 0-.133-.216l-.625-.16a.33.33 0 0 1-.192-.248 1.979 1.979 0 0 0-.061-.222.337.337 0 0 1 .017-.305l.49-.456c.055-.052.037-.174-.04-.272l-.36-.464c-.078-.1-.191-.148-.254-.111l-.587.349a.3.3 0 0 1-.274-.05 2.856 2.856 0 0 0-.265-.153.308.308 0 0 1-.157-.261v-.566a.202.202 0 0 0-.147-.21l-.73-.109a.175.175 0 0 0-.188.141l-.142.588a.25.25 0 0 1-.175.175c-.13.02-.26.052-.386.094a.307.307 0 0 1-.274-.11l-.37-.373c-.082-.086-.197-.12-.256-.077l-.605.448c-.057.044-.052.175.016.278l.262.422a.323.323 0 0 1 .037.31c-.07.1-.131.205-.185.314a.24.24 0 0 1-.208.133l-.667-.026a.175.175 0 0 0-.164.17Zm3.445-.586a1.469 1.469 0 0 1 1.253 1.613 1.395 1.395 0 0 1-1.604 1.193 1.47 1.47 0 0 1-1.256-1.613 1.396 1.396 0 0 1 1.607-1.193ZM10.423 2.13l-.262.668a.213.213 0 0 0 .082.262l.611.337a.361.361 0 0 1 .137.312 1.932 1.932 0 0 0 0 .248.36.36 0 0 1-.102.315l-.635.35c-.072.04-.086.174-.032.294l.255.584c.054.124.16.208.236.185l.709-.202a.329.329 0 0 1 .274.124c.074.082.153.16.237.232a.336.336 0 0 1 .095.317l-.16.592a.221.221 0 0 0 .099.261l.736.307a.194.194 0 0 0 .236-.096l.307-.58a.264.264 0 0 1 .233-.144c.143.013.286.013.43 0a.338.338 0 0 1 .26.189l.284.499c.063.113.175.174.25.15l.752-.31c.074-.03.1-.161.058-.294l-.16-.513a.35.35 0 0 1 .043-.336c.1-.086.193-.18.278-.28a.265.265 0 0 1 .255-.085l.698.206a.198.198 0 0 0 .222-.134l.262-.669a.213.213 0 0 0-.082-.261l-.611-.337a.348.348 0 0 1-.137-.31 1.996 1.996 0 0 0 0-.25c-.008-.134.03-.275.102-.314l.635-.349c.072-.04.084-.174.03-.295l-.253-.584c-.055-.124-.161-.208-.236-.185l-.71.204a.329.329 0 0 1-.275-.124 2.724 2.724 0 0 0-.237-.232.336.336 0 0 1-.095-.317l.16-.591a.221.221 0 0 0-.099-.262l-.74-.31a.192.192 0 0 0-.236.097l-.307.58a.263.263 0 0 1-.232.142 2.526 2.526 0 0 0-.43 0 .35.35 0 0 1-.26-.19l-.285-.499c-.064-.113-.174-.174-.25-.15l-.752.31c-.073.03-.1.161-.06.294l.163.514a.348.348 0 0 1-.043.335c-.1.086-.193.18-.278.28a.265.265 0 0 1-.255.085l-.698-.206a.197.197 0 0 0-.217.136Zm3.772.304a1.592 1.592 0 0 1 .885 2.028 1.506 1.506 0 0 1-2.005.824 1.592 1.592 0 0 1-.883-2.029 1.506 1.506 0 0 1 2.003-.823Z" fill="#F0F0F0"/></svg>