<svg width="44" height="38" fill="none" xmlns="http://www.w3.org/2000/svg"><path d="m2.175 21.598 1.42 1.936a.722.722 0 0 0 .909.24l2.048-1.124a1.201 1.201 0 0 1 1.12.172c.232.154.455.3.714.43.395.214.73.577.713.849l-.15 2.421c0 .268.331.544.776.612l2.111.327c.454.068.872-.082.944-.336l.695-2.362a1.102 1.102 0 0 1 .845-.553 9.015 9.015 0 0 0 1.076-.254 1.123 1.123 0 0 1 1.071.303l1.385 1.506a.744.744 0 0 0 .908.19l2.188-1.532a.64.64 0 0 0 .15-.84l-1.094-1.899a.906.906 0 0 1 0-.907c.291-.38.55-.783.776-1.206a1.14 1.14 0 0 1 .999-.394l1.925.09c.454 0 .822-.177.872-.453l.454-2.68c.045-.263-.282-.571-.727-.694l-1.743-.453a1.163 1.163 0 0 1-.872-.725 8.472 8.472 0 0 0-.295-1.284.906.906 0 0 1 .213-.87l1.816-1.587a.661.661 0 0 0 0-.866L22.061 7.71a.713.713 0 0 0-.909-.24l-2.047 1.128a1.2 1.2 0 0 1-1.122-.176 6.888 6.888 0 0 0-.712-.427c-.395-.217-.731-.58-.713-.848l.15-2.42c0-.273-.332-.545-.777-.613l-2.11-.326c-.455-.073-.873.077-.945.33l-.695 2.363a1.088 1.088 0 0 1-.844.553c-.365.065-.726.15-1.08.254a1.127 1.127 0 0 1-1.068-.3L7.805 5.484a.74.74 0 0 0-.908-.19L4.708 6.821a.64.64 0 0 0-.15.839l1.095 1.904a.906.906 0 0 1 0 .907c-.29.382-.548.787-.772 1.21a1.158 1.158 0 0 1-1.004.395l-1.92-.09c-.454 0-.826.176-.872.453l-.454 2.684c-.045.263.277.571.727.69l1.743.453a1.158 1.158 0 0 1 .872.72c.065.437.163.867.295 1.288a.906.906 0 0 1-.214.866l-1.816 1.592a.662.662 0 0 0-.063.866Zm7.627-10.107a5.327 5.327 0 0 1 7.328 1.134 5.037 5.037 0 0 1-1.258 7.132 5.335 5.335 0 0 1-7.327-1.134 5.04 5.04 0 0 1 1.257-7.132ZM23.36 26.753l-.214 1.71a.512.512 0 0 0 .345.562l1.621.421a.854.854 0 0 1 .5.644c.045.195.1.386.163.576a.847.847 0 0 1-.05.79l-1.271 1.187c-.14.132-.096.453.104.703l.94 1.21c.2.254.49.386.658.29l1.526-.906a.795.795 0 0 1 .713.122c.22.148.451.282.69.4a.813.813 0 0 1 .404.684v1.469a.526.526 0 0 0 .386.549l1.893.276a.454.454 0 0 0 .495-.362l.368-1.529a.636.636 0 0 1 .454-.453c.339-.055.673-.139.998-.25a.837.837 0 0 1 .69.277l.958.998c.218.222.518.313.668.195l1.57-1.166c.155-.113.137-.453-.036-.716l-.68-1.102a.834.834 0 0 1-.1-.802c.183-.258.343-.532.48-.817a.635.635 0 0 1 .541-.349l1.739.068a.454.454 0 0 0 .454-.453l.213-1.714a.517.517 0 0 0-.345-.562l-1.625-.417a.858.858 0 0 1-.5-.644 5.172 5.172 0 0 0-.158-.576.873.873 0 0 1 .045-.793l1.276-1.184c.14-.136.095-.453-.105-.707l-.94-1.206c-.2-.259-.494-.386-.658-.29l-1.525.906a.782.782 0 0 1-.713-.127 7.379 7.379 0 0 0-.69-.399.804.804 0 0 1-.409-.68v-1.469a.525.525 0 0 0-.381-.549l-1.898-.28a.455.455 0 0 0-.49.367l-.368 1.528a.653.653 0 0 1-.454.453c-.34.054-.676.136-1.003.245a.8.8 0 0 1-.713-.286l-.963-.97c-.213-.222-.513-.313-.667-.2l-1.57 1.166c-.15.113-.137.453.04.72l.681 1.098a.84.84 0 0 1 .095.807c-.18.26-.34.533-.48.816a.627.627 0 0 1-.541.345l-1.735-.068a.454.454 0 0 0-.426.444Zm8.957-1.523a3.82 3.82 0 0 1 2.481 1.437 3.81 3.81 0 0 1 .78 2.757 3.625 3.625 0 0 1-2.735 3.042c-.47.115-.96.135-1.438.06a3.815 3.815 0 0 1-3.264-4.194 3.625 3.625 0 0 1 2.736-3.044c.472-.116.961-.135 1.44-.058ZM26.115 5.159l-.681 1.736a.552.552 0 0 0 .213.68l1.589.876a.94.94 0 0 1 .354.811c-.014.215-.014.43 0 .644a.937.937 0 0 1-.263.82l-1.653.907c-.186.105-.222.454-.081.767l.662 1.519c.141.322.418.54.613.48l1.844-.526a.855.855 0 0 1 .712.322c.192.215.399.416.618.603a.872.872 0 0 1 .245.826l-.413 1.537a.575.575 0 0 0 .254.68l1.916.798a.505.505 0 0 0 .613-.25l.799-1.51a.685.685 0 0 1 .604-.371 6.57 6.57 0 0 0 1.117 0 .876.876 0 0 1 .676.49l.74 1.296c.164.295.454.454.65.39l1.956-.802c.19-.082.259-.422.15-.767l-.418-1.333a.905.905 0 0 1 .114-.875c.26-.222.5-.465.722-.725a.69.69 0 0 1 .662-.222l1.816.535a.514.514 0 0 0 .577-.35l.681-1.736a.553.553 0 0 0-.213-.68l-1.59-.875a.908.908 0 0 1-.353-.807 5.12 5.12 0 0 0 0-.649c-.023-.349.077-.716.263-.816l1.653-.907c.186-.104.218-.453.077-.766l-.659-1.52c-.14-.321-.417-.539-.612-.48l-1.848.53a.855.855 0 0 1-.713-.321 7.045 7.045 0 0 0-.618-.603.87.87 0 0 1-.245-.825l.413-1.537a.575.575 0 0 0-.254-.68L36.88.664a.5.5 0 0 0-.613.254l-.799 1.506a.686.686 0 0 1-.604.371 6.564 6.564 0 0 0-1.117 0 .91.91 0 0 1-.676-.494l-.74-1.297c-.168-.294-.454-.453-.65-.39l-1.956.808c-.19.077-.259.417-.154.761l.422 1.338a.906.906 0 0 1-.114.87c-.26.223-.5.465-.722.726a.69.69 0 0 1-.662.222l-1.816-.535a.514.514 0 0 0-.563.354Zm9.806.789a4.13 4.13 0 0 1 2.302 5.273 3.916 3.916 0 0 1-2.152 2.172 3.93 3.93 0 0 1-3.06-.032 4.13 4.13 0 0 1-2.297-5.273 3.912 3.912 0 0 1 3.681-2.467 3.923 3.923 0 0 1 1.526.327Z" fill="#F0F0F0"/></svg>