<svg width="120" height="100" fill="none" xmlns="http://www.w3.org/2000/svg"><ellipse cx="42.191" cy="49.253" rx="42.191" ry="49.252" fill="#F7F2FF"/><path d="M88.398 74.823v7.255h-1.464v.984h1.464v4.982h27.387V83.51h-2.03v-.985h2.03v-1.48h.901v-.668h-1.07v-5.555H88.398Z" fill="#F5F5F5"/><path d="M108.512 74.844v13.11h7.273V83.43h-2.028v-.905l2.028.032v-1.478h.918l-.017-.764-1.07-.024v-5.468l-7.104.022Z" fill="#EBEBEB"/><path d="M109.115 83.121c0 .064-4.95.114-11.067.114-6.116 0-11.067-.05-11.067-.114 0-.063 4.95-.113 11.067-.113 6.118 0 11.067.052 11.067.113ZM109.115 82.08c0 .065-4.95.115-11.067.115-6.116 0-11.067-.05-11.067-.114s4.95-.114 11.067-.114c6.118 0 11.067.052 11.067.114ZM110.456 77.195c0 .063-4.95.113-11.068.113-6.118 0-11.068-.05-11.068-.113 0-.064 4.95-.114 11.068-.114 6.118 0 11.068.056 11.068.114ZM110.589 84.826c0 .062-4.95.114-11.068.114-6.118 0-11.068-.052-11.068-.114 0-.062 4.95-.114 11.068-.114 6.118 0 11.068.05 11.068.114ZM38.61 15.71H17.778v25.354h20.834V15.71Z" fill="#E0E0E0"/><path d="M37.2 15.71H16.368v25.354h20.834V15.71Z" fill="#FAFAFA"/><path d="M37.207 41.067H16.359V15.7h20.848v25.367Zm-20.825-.014h20.825V15.716H16.382v25.337Z" fill="#E0E0E0"/><path d="M34.4 19.116H19.169v18.536h15.233V19.116Z" fill="#fff"/><path d="M19.167 37.774a2.836 2.836 0 0 1-.377.51c-.242.3-.584.706-.968 1.146-.384.44-.735.833-.995 1.112-.131.163-.28.307-.44.428.107-.185.233-.356.373-.508A52.435 52.435 0 0 1 18.73 38.2c.13-.162.278-.305.438-.426ZM34.398 37.739c.16.125.307.272.437.438.258.285.605.683.982 1.132.377.448.715.859.952 1.162.14.153.263.326.367.514a2.727 2.727 0 0 1-.435-.437 52.6 52.6 0 0 1-1.937-2.297 2.748 2.748 0 0 1-.366-.512ZM34.36 19.166c.108-.186.233-.357.375-.51.244-.3.585-.705.968-1.145.382-.44.735-.833.995-1.112.132-.163.28-.307.44-.429a2.624 2.624 0 0 1-.373.508c-.243.3-.586.706-.97 1.148a45.55 45.55 0 0 1-.997 1.114 2.606 2.606 0 0 1-.439.427ZM19.125 19.202a2.758 2.758 0 0 1-.437-.438 47.605 47.605 0 0 1-.982-1.132 50.955 50.955 0 0 1-.952-1.162 2.823 2.823 0 0 1-.367-.514c.159.125.305.272.435.436.258.285.606.686.983 1.134.377.449.717.861.954 1.164.14.152.262.325.366.512Z" fill="#E0E0E0"/><path d="M34.36 37.652a.893.893 0 0 1 0-.09v-1.255c0-.88 0-2.157-.016-3.787 0-3.246-.017-7.87-.03-13.408l.06.07H19.18l.067-.08v18.532l-.058-.068 10.998.036 3.09.016H34.38a.232.232 0 0 1-.066 0H33.3l-3.072.018-11.036.034h-.058v-.068c0-5.368 0-11.733-.01-18.532v-.078h15.32v.068l-.029 13.453c0 1.616-.012 2.887-.015 3.762V37.522a.636.636 0 0 1-.041.13Z" fill="#E0E0E0"/><path d="M29.326 25.416h-5.084v5.934h5.084v-5.934Z" fill="#EBEBEB"/><path d="m73.129 93.124 13.299 6.77 28.827-1.955-12.531-6.291-29.595 1.476Z" fill="#fff"/><path d="m73.129 93.135 29.594-1.526h.008l12.534 6.288.171.088-.188.012h-.059l-28.77 1.94h-.008l-13.282-6.802 13.314 6.735h-.015l28.767-1.965h.06l-.015.1-12.531-6.295h.019l-29.6 1.425Z" fill="#E0E0E0"/><path d="m83.23 96.918 1.95-.111 5.085-.287 3.84 1.723.194.086-.207.014h-.022l-7.313.47-3.526-1.895 3.538 1.832h-.015l7.316-.497h.037l-.012.102-3.839-1.732h.017l-5.045.216-1.997.08ZM91.277 96.466l7.465-.532h.01l4.196 1.88.198.09-.212.01-7.81.4-3.828-1.846 3.854 1.773h-.013l7.807-.424-.013.102-4.18-1.885h.016l-7.49.432ZM100.184 95.922l7.464-.532h.009l4.183 1.88.198.09-.211.01-7.81.398h-.008l-3.825-1.846 3.854 1.774h-.014l7.801-.436-.014.101-4.18-1.885h.017l-7.464.446ZM78.227 94.148l1.947-.112 5.085-.283h.017l3.841 1.724.193.088-.207.012h-.037l-7.313.468h-.008l-3.51-1.903 3.539 1.831h-.017l7.312-.494h.038l-.014.102-3.839-1.732h.017l-5.046.215-1.998.084ZM86.267 93.689l7.462-.532h.008l4.182 1.879.2.09-.214.011-7.809.399-3.83-1.845 3.854 1.773h-.014l7.81-.422-.014.1-4.174-1.894h.018l-7.479.44ZM95.176 93.131l7.466-.532h.017l4.182 1.88.2.09-.213.011-7.81.399-3.842-1.848 3.854 1.774h-.014l7.81-.423-.014.1-4.182-1.885h.017l-7.471.434ZM12.965 57.197c0-.214.054-.423.156-.6a.974.974 0 0 1 .416-.4.804.804 0 0 1 .536-.06c.18.041.345.144.474.295.13.152.218.344.254.554.036.21.017.428-.053.626-.07.197-.189.366-.341.485a.836.836 0 0 1-.515.182.865.865 0 0 1-.656-.316 1.18 1.18 0 0 1-.271-.766ZM15.77 51.437c0-.133.033-.263.097-.374a.607.607 0 0 1 .259-.248.5.5 0 0 1 .333-.038c.112.026.215.09.296.184.08.094.135.214.157.345a.78.78 0 0 1-.032.39.662.662 0 0 1-.213.302.52.52 0 0 1-.32.113.54.54 0 0 1-.408-.198.737.737 0 0 1-.17-.476ZM13.298 46.669a.717.717 0 0 1-.01-.358.64.64 0 0 1 .162-.305.498.498 0 0 1 .28-.148.463.463 0 0 1 .303.059c.094.054.172.14.224.245a.702.702 0 0 1-.039.685.54.54 0 0 1-.25.209.46.46 0 0 1-.403-.032.598.598 0 0 1-.267-.355ZM10.108 69.21c.476 0 .862-.45.862-1.005 0-.556-.386-1.007-.862-1.007s-.862.45-.862 1.007c0 .555.386 1.006.862 1.006ZM10.313 76.79c.341 0 .618-.322.618-.72 0-.399-.276-.722-.618-.722-.341 0-.618.323-.618.722 0 .398.277.72.618.72ZM10.073 84.351c0 .101-.026.2-.074.284a.46.46 0 0 1-.197.19.38.38 0 0 1-.254.028.424.424 0 0 1-.224-.14.544.544 0 0 1-.12-.262.592.592 0 0 1 .025-.296.503.503 0 0 1 .161-.23.395.395 0 0 1 .244-.086.41.41 0 0 1 .31.15.558.558 0 0 1 .129.362ZM12.67 69.21c.477 0 .863-.45.863-1.005 0-.556-.386-1.007-.862-1.007s-.862.45-.862 1.007c0 .555.386 1.006.862 1.006ZM16.377 75.347a.81.81 0 0 1-.105.4.648.648 0 0 1-.278.265.536.536 0 0 1-.357.04.597.597 0 0 1-.316-.198.766.766 0 0 1-.169-.369.834.834 0 0 1 .036-.416.709.709 0 0 1 .227-.324.542.542 0 0 1 .58-.066c.075.036.144.09.201.157a.738.738 0 0 1 .134.234.827.827 0 0 1 .047.277ZM13.948 83.368a.538.538 0 0 1-.126.258.42.42 0 0 1-.228.133.383.383 0 0 1-.253-.038.468.468 0 0 1-.192-.196.579.579 0 0 1 .014-.568.455.455 0 0 1 .202-.182.38.38 0 0 1 .254-.02c.056.014.11.042.156.081a.487.487 0 0 1 .117.146.567.567 0 0 1 .056.386ZM12.495 62.218c0 .33-.083.65-.24.924-.157.274-.38.487-.64.613s-.547.16-.823.095a1.376 1.376 0 0 1-.73-.455c-.2-.233-.335-.53-.39-.852a1.924 1.924 0 0 1 .081-.962c.108-.304.29-.564.525-.746.234-.183.51-.28.792-.28.378 0 .74.175 1.008.486.267.313.417.736.417 1.177ZM12.006 55.123c0 .215-.054.425-.156.603a.977.977 0 0 1-.416.4.806.806 0 0 1-.537.063.896.896 0 0 1-.476-.296 1.15 1.15 0 0 1-.255-.555 1.252 1.252 0 0 1 .053-.627c.07-.198.19-.367.342-.487a.837.837 0 0 1 .516-.182c.246 0 .482.113.656.316.174.203.272.478.273.766ZM8.892 57.197c0 .215-.053.425-.155.603a.977.977 0 0 1-.417.4.806.806 0 0 1-.536.063.896.896 0 0 1-.476-.296 1.15 1.15 0 0 1-.255-.555 1.254 1.254 0 0 1 .053-.627c.07-.198.189-.367.342-.487a.837.837 0 0 1 .516-.183c.246 0 .482.114.656.317.174.203.272.478.272.765ZM6.088 62.964a.756.756 0 0 1-.098.375.606.606 0 0 1-.259.248.501.501 0 0 1-.333.038.558.558 0 0 1-.295-.184.715.715 0 0 1-.158-.345.779.779 0 0 1 .033-.39.662.662 0 0 1 .212-.302.52.52 0 0 1 .32-.113c.154 0 .3.07.409.197a.735.735 0 0 1 .169.476ZM8.562 67.734c.033.115.037.24.01.358a.639.639 0 0 1-.164.304.497.497 0 0 1-.28.147.463.463 0 0 1-.303-.06.574.574 0 0 1-.223-.245.703.703 0 0 1 .04-.685.54.54 0 0 1 .25-.208.458.458 0 0 1 .404.031.547.547 0 0 1 .164.148c.045.061.08.132.102.21Z" fill="#E0E0E0"/><path d="M16.901 52.177s-1.478 3.89-2.077 4.719a3.251 3.251 0 0 1-1.086-.757s1.769-3.948 2.072-4.615l1.091.653ZM16.785 50.623c-.023-.081-2.339-4.184-2.339-4.184l-1.024.817 2.219 4.262 1.144-.895ZM14.317 46.188s1.498-1.968.45-2.64c-1.048-.672-1.33 1.646-1.234 2.313l.823.365" fill="#EBEBEB"/><path d="M15.144 87.953H7.852c0-.714.243-1.4.676-1.905.432-.505 1.02-.789 1.631-.789h2.675c.303 0 .604.07.884.205.28.135.535.334.75.584.214.25.384.547.5.874.116.327.176.677.176 1.031Z" fill="#E0E0E0"/><path d="M11.193 63.477c.023 0 .041 4.894.041 10.928 0 6.034-.018 10.93-.04 10.93-.023 0-.042-4.892-.042-10.93 0-6.038.02-10.928.041-10.928Z" fill="#E0E0E0"/><path d="M9.586 62.789s-.854 1.616-.62 4.814h4.48s.276-3.802-.784-4.904l-3.076.09ZM9.11 69.045h2.053l-.193 6.765H9.563l-.454-6.765ZM9.534 76.272l-.425 7.763 1.026.227.92-7.763-1.52-.227ZM8.66 85.255s.014-.954.84-.996c.826-.042.918.996.918.996H8.66ZM12.105 69.308l1.868-.998 2.236 6.243-1.28.683-2.824-5.928ZM14.965 75.348l-1.895 7.457.96.49 2.376-7.331-1.441-.616ZM12.617 83.946c.053.104 2.526 1.186 2.526 1.186s.588-.61-1.263-1.594l-.396-.213a.518.518 0 0 0-.473-.006.596.596 0 0 0-.199.162.714.714 0 0 0-.125.242l-.07.223ZM8.825 55.722c-.069.02.058 4.278.853 5.858 0 0 2.876-.11 2.946 0 .07.11 1-3.706.917-5.757.005 0-2.016-.845-4.716-.101ZM10.724 49.11s-1.832.049-1.49 2.775c.341 2.726.717 2.728.729 2.79.012.061 2.306-.188 2.306-.188s1.25-5.492-1.545-5.376ZM5.035 62.215s1.478-3.885 2.078-4.718c.4.169.767.426 1.083.757 0 0-1.768 3.948-2.072 4.615l-1.089-.654ZM5.152 63.775c.023.081 2.337 4.185 2.337 4.185l1.024-.817-2.219-4.263-1.142.895ZM7.491 68.348s-1.5 1.968-.45 2.64c1.05.671 1.33-1.646 1.234-2.314l-.828-.364" fill="#EBEBEB"/><path d="m65.305 91.753 13.299 6.77 28.827-1.955-12.53-6.291-29.596 1.476Z" fill="#fff"/><path d="m65.305 91.753 29.593-1.526h.01l12.542 6.295.17.088-.187.012h-.058L78.604 98.56h-.009L65.31 91.755l13.314 6.736h-.015l28.762-1.97h.058l-.015.1-12.531-6.294h.019l-29.597 1.426Z" fill="#E0E0E0"/><path d="m75.406 95.554 1.95-.111 5.085-.283h.008l3.84 1.723.194.086-.207.014h-.036l-7.314.47h-.008l-3.512-1.9 3.539 1.83h-.016l7.313-.496h.038l-.014.102-3.839-1.732h.017l-5.046.215-1.992.082ZM83.453 95.092l7.465-.532h.01l4.182 1.879.2.09-.214.01-7.809.398-3.829-1.845 3.855 1.773h-.014l7.797-.428-.015.101-4.18-1.885h.017l-7.465.439ZM92.363 94.545l7.465-.532h.01l4.184 1.879.198.09-.212.01-7.81.398h-.008l-3.827-1.845 3.855 1.773h-.014l7.809-.424-.015.101-4.18-1.885h.017l-7.472.435ZM70.402 92.777l1.948-.111 5.085-.283h.017l3.84 1.724.194.087-.207.012h-.037l-7.311.476h-.009l-3.511-1.903 3.538 1.832h-.015l7.311-.495h.038l-.014.102-3.84-1.732h.018l-5.053.21-1.992.081ZM78.445 92.314l7.467-.531h.017l4.183 1.879.198.09-.213.011-7.81.399-3.83-1.846 3.838 1.772h-.016l7.81-.422-.014.1c-1.482-.668-2.902-1.304-4.18-1.886h.017l-7.467.434ZM87.348 91.764l7.466-.532h.017l4.182 1.88.2.089-.214.012-7.809.398-3.83-1.845 3.856 1.774H91.2l7.81-.423-.014.1-4.18-1.885h.017l-7.485.432Z" fill="#E0E0E0"/><path d="M119.997 87.778c0 .028-25.213.052-56.307.052-31.095 0-56.315-.024-56.315-.052 0-.028 25.209-.051 56.315-.051 31.106 0 56.307.025 56.307.051Z" fill="#263238"/><path d="m80.676 89.641-.89.075-.9-14.554a.527.527 0 0 1 .097-.345.39.39 0 0 1 .278-.162l.077-.007a.37.37 0 0 1 .295.115.506.506 0 0 1 .14.324l.9 14.555h.003Z" fill="#E0E0E0"/><path d="m79.336 85.14 1.27-.108.299 4.852a.857.857 0 0 1-.03.288.784.784 0 0 1-.123.253.661.661 0 0 1-.196.179.567.567 0 0 1-.24.077.582.582 0 0 1-.463-.179.795.795 0 0 1-.22-.508l-.297-4.854ZM79.335 89.222l.247-.021-.39-6.296-.246.02.39 6.297Z" fill="#455A64"/><path d="M80.605 85.03c0 .032-.521.118-1.28.216l.056-.078c.024.339.047.705.075 1.092.044.717.077 1.367.092 1.84.023.253.023.509 0 .762a4.318 4.318 0 0 1-.096-.755 76.648 76.648 0 0 1-.133-1.835 566.13 566.13 0 0 1-.061-1.094v-.072h.06c.758-.078 1.283-.107 1.287-.076Z" fill="#263238"/><path d="M81.592 75.025h-.893v11.763h.893V75.025Z" fill="#E0E0E0"/><path d="M81.764 79.622h-1.272v-4.866a.81.81 0 0 1 .186-.525.595.595 0 0 1 .45-.218c.168 0 .33.078.45.218.119.139.186.328.186.525v4.866ZM82.013 75.55h-.247v6.313h.247V75.55Z" fill="#455A64"/><path d="M80.492 79.622c0-.032.526-.073 1.289-.107l-.062.073V78.49c0-.717.009-1.369.021-1.84-.008-.256.009-.511.05-.762.038.251.054.506.047.761.012.472.02 1.124.02 1.841V79.66h-.074c-.763.008-1.29-.006-1.29-.038Z" fill="#263238"/><path d="M83.393 77.788H82.5V89.55h.893V77.788Z" fill="#E0E0E0"/><path d="M83.565 82.375h-1.268v-4.858a.81.81 0 0 1 .186-.524.595.595 0 0 1 .449-.217c.168 0 .33.078.45.217.119.139.186.327.187.524l-.004 4.858Z" fill="#455A64"/><path d="M83.81 78.313h-.248v6.313h.248v-6.313Z" fill="#455A64"/><path d="M82.297 82.378c0-.032.526-.074 1.289-.108l-.062.074v-1.096c0-.72.009-1.371.02-1.841a3.933 3.933 0 0 1 .05-.763c.039.251.055.507.048.763.012.47.02 1.122.02 1.841V82.416h-.061c-.78.016-1.304.002-1.304-.038Z" fill="#263238"/><path d="M85.088 74.599h-.893v11.763h.893V74.599Z" fill="#E0E0E0"/><path d="M85.262 79.187h-1.274v-4.86a.81.81 0 0 1 .187-.526.594.594 0 0 1 .45-.218c.084 0 .166.02.244.057a.64.64 0 0 1 .206.161c.06.069.106.15.138.241.032.09.049.187.049.284v4.86Z" fill="#455A64"/><path d="M85.51 75.124h-.248v6.313h.247v-6.313Z" fill="#455A64"/><path d="M83.988 79.187c0-.032.526-.074 1.289-.106l-.06.072v-1.096c0-.72 0-1.369.02-1.841-.006-.255.01-.51.049-.761.04.25.056.506.05.76.011.473.02 1.123.02 1.842V79.227h-.062c-.778.012-1.304-.002-1.306-.04Z" fill="#263238"/><path d="M85.394 92.403c-1.893 1.042-3.801 1.026-5.723 0l-.753-9.765c2.303.797 4.747.714 7.295 0l-.819 9.765Z" fill="#7E57C2"/><path d="M116.047 19.29H55.031v51.066h61.016V19.29Z" fill="#fff"/><path d="m116.047 70.356-.036-51.067.036.042h-61.01l.044-.052v51.067l-.04-.048 61.015.048-61.023.067h-.04V19.247H116.09v.042c-.029 30.998-.044 50.726-.044 51.067Z" fill="#263238"/><path d="M114.656 17.827H53.641v51.066h61.015V17.827Z" fill="#fff"/><path d="m114.654 68.892-.036-51.066.036.041-61.009.01.045-.051v51.066l-.04-.048 61.014.048-61.014.048h-.04V17.774h.049l61.009.01h.035v.042c-.034 30.994-.049 50.72-.049 51.066Z" fill="#263238"/><path d="m57.254 49.094.133 12.754h1.811s.777-1.563 1.4-1.901c.623-.34.49-.47.49-.47s-.188-.766.012-1.063c.2-.297.78-.303.78-.303s.273-.418.58-.454c.307-.036.741-.028.741-.028s.341-.58.683-.482c.341.098.264-.28.892-.417.629-.137 1.745.519 1.745.519h1.49l-.935-2.155-.22-1.763s-.867-.979-.867-1.794c0-.815.585-1.879.585-1.879l.32-.564h-9.64ZM76.305 48.997l-.17.18.402.398s-.153.061-.319.89c-.165.83-.579 2.938-1.128 3.274 0 0 1.603-.267 2.535.245.932.513 2.343 2.444 2.343 2.444s1.332.866 1.41 1.349c.079.482 0-8.782 0-8.782l-5.073.002Z" fill="#EBEBEB"/><path d="M67.017 52.908a2.827 2.827 0 0 0-.106-.809 2.155 2.155 0 0 1-.07-.813.749.749 0 0 1 .147-.366.586.586 0 0 1 .297-.208c.244-.046.48.152.725.128.246-.024.4-.215.582-.367.281-.234.608-.382.95-.431.342-.05.69.002 1.01.15.321.148.605.387.827.696.221.308.373.677.441 1.072.025.212.06.422.103.63a.86.86 0 0 0 .117.287.73.73 0 0 0 .205.21c.289.162.512-.223.494-.597 0-.19.022-.38.064-.562.055-.223.364-.267.513-.118.087.1.156.221.202.354.046.132.07.274.067.417-.024.231-.027.708-.06.937-.032.23-.138.317 0 .484a.533.533 0 0 0 .245.152.477.477 0 0 0 .276-.004c.18-.06.348-.168.488-.313.417-.396.756-.892.994-1.454.238-.562.37-1.177.386-1.804 0-.351 0-.752.215-.997l-.425-.283c.095.088.222-.115.158-.237-.063-.121-.196-.31-.319-.309-2.56.054-5.109.054-7.53.096a.945.945 0 0 0-.49.128c-.141.105-.265.24-.364.398-.332.453-.707.913-.792 1.499-.113.767.298 1.492.69 2.122M65.842 55.635c-.027-.387-.055-.775-.08-1.162a9.805 9.805 0 0 0-5.106 1.042c-.06-.227-.12-.448-.17-.651-.524.69-1 1.22-1.51 1.875.753.187 1.407.3 2.136.398-.077-.243-.15-.502-.222-.763a9.959 9.959 0 0 1 4.952-.74Z" fill="#E0E0E0"/><path d="M65.84 55.636h-.09l-.279-.016a10.078 10.078 0 0 0-1.024 0c-1.21.054-2.407.326-3.546.807l.026-.058.222.761.022.074h-.066a19.49 19.49 0 0 1-2.14-.398l-.074-.02.05-.066c.122-.155.252-.319.385-.482.39-.475.775-.93 1.125-1.395l.051-.068.022.086.17.653-.057-.032a9.942 9.942 0 0 1 2.968-.944 9.297 9.297 0 0 1 2.155-.076h.018v.012l.048.873c0 .092.009.163.01.22a.573.573 0 0 1 0 .07.575.575 0 0 1-.01-.079l-.02-.225-.07-.855.018.022a9.866 9.866 0 0 0-2.142.108 10.13 10.13 0 0 0-2.944.956l-.045.022-.014-.052c-.058-.215-.117-.432-.17-.651l.073.018c-.351.464-.737.922-1.125 1.394-.133.164-.263.325-.382.48l-.024-.085c.74.185 1.461.31 2.13.399l-.044.065c-.077-.265-.152-.526-.22-.767l-.014-.044.038-.016a9.953 9.953 0 0 1 3.57-.773c.346-.01.69 0 1.035.03.12 0 .207.024.27.032l.094.02Z" fill="#263238"/><path d="M81.684 61.998v-3.565c0-2.285-.01-5.59-.017-9.668l.033.036-24.615.015.045-.051v13.233l-.043-.05 17.669.024 5.107.014h1.842-1.814L74.793 62l-17.725.046h-.04V48.71h.045l24.615.016h.03v.038c0 4.089-.011 7.4-.016 9.692v3.31a3.331 3.331 0 0 0-.017.231Z" fill="#263238"/><path d="M62.46 61.123s-.044.05-.146.048a.44.44 0 0 1-.203-.075.525.525 0 0 1-.155-.168 4.922 4.922 0 0 1-.567-1.433 5.381 5.381 0 0 1-.13-.859.423.423 0 0 1 .04-.213.252.252 0 0 1 .151-.117 1.72 1.72 0 0 1 .696 0c.051.005.1.02.146.047 0 .018-.214-.035-.552 0a1.511 1.511 0 0 0-.271.044.16.16 0 0 0-.062.032.192.192 0 0 0-.046.058.223.223 0 0 0-.02.153c.07.8.297 1.57.664 2.252a.53.53 0 0 0 .134.16.448.448 0 0 0 .177.087.52.52 0 0 0 .145-.016Z" fill="#263238"/><path d="M62.955 60.53s-.041-.031-.103-.105a2.78 2.78 0 0 1-.233-.34 3.842 3.842 0 0 1-.513-1.724.715.715 0 0 1 .052-.399c.07-.098.17-.16.28-.171a1.62 1.62 0 0 1 .631-.014.332.332 0 0 1 .133.042c0 .018-.194-.026-.502.01-.083.01-.166.024-.247.046a.338.338 0 0 0-.227.141.621.621 0 0 0-.033.337c0 .13.024.263.043.398.076.462.223.904.435 1.304.163.299.296.464.284.476ZM66.147 57.315a.961.961 0 0 1-.149-.126 2.142 2.142 0 0 0-.423-.304.914.914 0 0 0-.714-.078.676.676 0 0 0-.341.275.699.699 0 0 0-.103.234.757.757 0 0 0-.015.262l.017.115-.085-.063a2.704 2.704 0 0 0-.295-.2.548.548 0 0 0-.5-.052.396.396 0 0 0-.183.166.53.53 0 0 0-.055.253c.01.177.035.353.074.524a6.925 6.925 0 0 0 .312 1.09c.032.075.059.153.079.233a1.15 1.15 0 0 1-.111-.215 6.107 6.107 0 0 1-.352-1.086 3.282 3.282 0 0 1-.084-.544.63.63 0 0 1 .065-.307.48.48 0 0 1 .224-.199.616.616 0 0 1 .568.054c.107.06.21.13.307.209l-.068.052a.878.878 0 0 1 .018-.303.809.809 0 0 1 .119-.271.748.748 0 0 1 .392-.303.948.948 0 0 1 .76.104c.152.089.293.203.418.338.047.04.089.088.125.142Z" fill="#263238"/><path d="M63.254 61.054c.034.024.067.05.098.08.088.078.186.14.291.183a.48.48 0 0 0 .483-.062.381.381 0 0 0 .1-.127.445.445 0 0 0 .02-.347.329.329 0 0 0-.104-.14l.04-.073c.224.205.495.328.78.354a.487.487 0 0 0 .218-.045.558.558 0 0 0 .186-.142.498.498 0 0 0 .109-.23.547.547 0 0 0-.014-.262l.084-.028a.426.426 0 0 0 .226.314c.053.026.11.037.168.033a.315.315 0 0 0 .153-.067.385.385 0 0 0 .108-.143.467.467 0 0 0 .028-.362.721.721 0 0 0-.209-.285 2.474 2.474 0 0 1-.256-.25c-.21-.25-.337-.58-.358-.93a1.63 1.63 0 0 1 .22-.909 1.22 1.22 0 0 1 .145-.199.276.276 0 0 1 .06-.056s-.075.088-.17.273a1.63 1.63 0 0 0-.187.881 1.544 1.544 0 0 0 .606 1.114c.101.082.182.192.236.32a.597.597 0 0 1-.03.45.486.486 0 0 1-.137.18.395.395 0 0 1-.193.084.411.411 0 0 1-.209-.04.53.53 0 0 1-.28-.403l-.056-.418.142.399a.669.669 0 0 1 .017.318.61.61 0 0 1-.13.28.647.647 0 0 1-.216.163.566.566 0 0 1-.253.052c-.3-.028-.586-.16-.821-.379l.037-.073a.399.399 0 0 1 .13.172.514.514 0 0 1-.025.42.436.436 0 0 1-.124.147.517.517 0 0 1-.53.052.974.974 0 0 1-.29-.21.357.357 0 0 1-.093-.09Z" fill="#263238"/><path d="M65.693 59.276c1.35-.87 3.023-.869 4.498-.337 1.474.533 3.804 1.75 4.258 3.037l2.088.02c-1.084-2.002-3.53-3.447-5.12-4.075a7.536 7.536 0 0 0-2.746-.597c-.937-.046-1.888-.034-2.774.324a.293.293 0 0 0-.143.003.322.322 0 0 0-.129.071.39.39 0 0 0-.093.127.449.449 0 0 0-.04.16c-.054.436.037 1.134.262 1.365M59.941 61.403c.286-.636.75-1.138 1.316-1.421.014.026-.34.261-.701.656-.36.394-.592.783-.615.765ZM76.373 58.005a1.38 1.38 0 0 1-.25-.095c-.16-.068-.39-.16-.683-.261-.294-.102-.637-.2-1.025-.301a9.443 9.443 0 0 0-3.629-.148c-.298.048-.539.09-.704.128-.086.025-.174.04-.262.046.083-.036.168-.064.255-.084.17-.052.404-.108.703-.163a8.67 8.67 0 0 1 1.06-.124 8.73 8.73 0 0 1 2.603.261 8.634 8.634 0 0 1 1.695.618c.082.033.162.074.237.123Z" fill="#263238"/><path d="M77.216 54.09a1.178 1.178 0 0 1-.255-.033c-.162-.03-.396-.074-.683-.114a3.795 3.795 0 0 0-1.024-.02c-.413.056-.813.21-1.172.455a5.602 5.602 0 0 0-1.685 1.75c-.136.217-.26.444-.372.679a1.87 1.87 0 0 1-.127.257c.025-.096.057-.188.096-.277.102-.245.22-.48.352-.703a5.432 5.432 0 0 1 1.693-1.794c.37-.25.781-.406 1.207-.458a3.75 3.75 0 0 1 1.036.042c.29.05.524.105.683.147.085.015.169.038.25.07ZM79.871 56.621a3.677 3.677 0 0 1-.357-.42c-.216-.264-.512-.624-.877-.985a6.963 6.963 0 0 0-.982-.833c-.27-.183-.447-.273-.44-.289.046.008.09.023.132.046.116.052.23.111.34.18.363.227.702.5 1.011.816.31.314.599.653.866 1.015.116.144.219.301.307.47ZM80.348 61.223a3.84 3.84 0 0 0 .476-.703c.139-.28.235-.585.285-.903a3.124 3.124 0 0 0-.029-1.17 2.898 2.898 0 0 0-.471-1.032 2.588 2.588 0 0 0-.633-.617 3.218 3.218 0 0 0-.71-.335c.07 0 .14.01.206.034.187.05.367.13.534.237.252.158.477.368.665.62.234.306.402.672.491 1.07.09.396.096.813.02 1.213a3.018 3.018 0 0 1-.312.92c-.1.192-.221.365-.362.517a.775.775 0 0 1-.16.15ZM79.22 58.227c-.01.016-.205-.151-.548-.365a4.759 4.759 0 0 0-1.423-.598 4.545 4.545 0 0 0-1.298-.113c-.25.017-.5.05-.747.098v-.026c.029.008.056.022.082.041a.221.221 0 0 1-.09-.015l-.044-.012.046-.014a3.31 3.31 0 0 1 .748-.154c.442-.04.887-.009 1.321.094a4.271 4.271 0 0 1 1.823.927.669.669 0 0 1 .13.137Z" fill="#263238"/><path d="M74.67 54.982c.013.03-.5.331-1.025.867-.31.336-.607.69-.887 1.06.05-.135.12-.26.203-.37.186-.28.396-.538.626-.77.23-.231.48-.435.745-.608.104-.078.218-.139.338-.179ZM76.309 55.962c-.13.057-.265.101-.401.132-.25.073-.593.181-.965.319-.372.137-.706.28-.947.388a2.01 2.01 0 0 1-.394.16c.115-.093.24-.17.37-.228a7.867 7.867 0 0 1 1.922-.711c.135-.04.275-.06.415-.06ZM73.323 53.99c.072-.167.134-.34.186-.516.054-.193.07-.397.048-.598-.024-.24.017-.49-.065-.731a.78.78 0 0 0-.186-.287.42.42 0 0 0-.12-.09.405.405 0 0 0-.134-.032.18.18 0 0 0-.114.035.227.227 0 0 0-.077.103.828.828 0 0 0-.064.259c-.013.17-.01.313-.023.412a.355.355 0 0 1-.036.148.87.87 0 0 1 0-.152v-.414a.822.822 0 0 1 .06-.293.331.331 0 0 1 .097-.138.242.242 0 0 1 .16-.055.497.497 0 0 1 .17.033.577.577 0 0 1 .148.106.859.859 0 0 1 .211.33c.04.129.06.264.058.4v.358c.02.21-.003.423-.066.622-.044.133-.101.26-.17.376-.045.088-.078.128-.083.124Z" fill="#263238"/><path d="M73.714 50.842c-.17.15-.33.316-.478.494-.126.2-.24.41-.342.627a1.54 1.54 0 0 1 .277-.694c.144-.198.333-.346.545-.427h-.002ZM65.84 55.636h-.09l-.279-.016a10.078 10.078 0 0 0-1.024 0c-1.21.054-2.407.326-3.546.807l.026-.058.222.761.022.074h-.066a19.49 19.49 0 0 1-2.14-.398l-.074-.02.05-.066c.122-.155.252-.319.385-.482.39-.475.775-.93 1.125-1.395l.051-.068.022.086.17.653-.057-.032a9.942 9.942 0 0 1 2.968-.944 9.297 9.297 0 0 1 2.155-.076h.018v.012l.048.873c0 .092.009.163.01.22a.573.573 0 0 1 0 .07.575.575 0 0 1-.01-.079l-.02-.225-.07-.855.018.022a9.866 9.866 0 0 0-2.142.108 10.13 10.13 0 0 0-2.944.956l-.045.022-.014-.052c-.058-.215-.117-.432-.17-.651l.073.018c-.351.464-.737.922-1.125 1.394-.133.164-.263.325-.382.48l-.024-.085c.74.185 1.461.31 2.13.399l-.044.065c-.077-.265-.152-.526-.22-.767l-.014-.044.038-.016a9.953 9.953 0 0 1 3.57-.773c.346-.01.69 0 1.035.03.12 0 .207.024.27.032l.094.02ZM71.439 53.384a1.202 1.202 0 0 1-.273-.172 1.165 1.165 0 0 0-.683-.243.58.58 0 0 0-.362.138.902.902 0 0 0-.208.28c-.043.11-.09.215-.144.318a.898.898 0 0 1 .09-.351.896.896 0 0 1 .213-.323.624.624 0 0 1 .408-.165 1.1 1.1 0 0 1 .718.285c.091.06.173.14.24.233ZM68.39 57.282a.426.426 0 0 1-.17-.158 4.043 4.043 0 0 1-.341-.562l-.212-.408c-.037-.076-.077-.144-.118-.23a1.554 1.554 0 0 1-.109-.256 14.152 14.152 0 0 1-.206-1.234c-.12-.878-.21-1.675-.282-2.25l-.082-.683a1.227 1.227 0 0 1-.022-.251c.026.08.044.161.056.245.03.16.068.399.111.678.087.573.188 1.369.306 2.245.064.435.114.86.198 1.222.021.087.05.172.085.253l.113.227c.071.148.14.285.201.415.095.198.202.39.32.572.091.119.156.167.153.175ZM69.455 51.644c-.152.13-.285.29-.394.472a2.37 2.37 0 0 0-.17.627c-.011 0-.033-.073-.032-.199.007-.169.05-.333.123-.478a.937.937 0 0 1 .304-.353c.097-.068.166-.08.17-.07Z" fill="#263238"/><path d="M68.565 53.739c-.012.028-.32-.15-.728-.25-.409-.099-.753-.087-.755-.119a1.38 1.38 0 0 1 .772.018c.258.047.502.167.711.35ZM68.392 54.095a1.645 1.645 0 0 0-.412-.165 1.44 1.44 0 0 0-.433.05c0-.01.03-.056.11-.1a.577.577 0 0 1 .334-.054c.112.016.22.065.312.144.068.062.096.117.089.125ZM70.686 56.296a1.78 1.78 0 0 0-1.35.398c.164-.217.381-.372.622-.443.241-.071.495-.055.728.045ZM70.382 53.236a.152.152 0 0 0-.102.03.196.196 0 0 0-.068.095.38.38 0 0 0 .02.251c.018.05.046.094.081.128a.279.279 0 0 0 .122.072.208.208 0 0 0 .145-.04.268.268 0 0 0 .096-.132.357.357 0 0 0 .007-.175.293.293 0 0 0-.21-.231.264.264 0 0 0-.152.004M69.624 55.717a2.48 2.48 0 0 1-.341.356.781.781 0 0 1-.092.084.105.105 0 0 1-.08.021.114.114 0 0 1-.072-.045.321.321 0 0 1-.043-.165l-.01-.158-.038-.699a51.76 51.76 0 0 1-.05-1.271 2.932 2.932 0 0 1 0-.53 3.2 3.2 0 0 1 .057.524c.026.324.053.775.077 1.271.01.247.022.48.03.7a.98.98 0 0 0 .028.274c.025.048.094-.012.148-.061.12-.116.25-.217.386-.301ZM70.607 51.8c.012.026-.297.23-.624.56-.328.331-.547.658-.569.64.124-.28.299-.525.512-.718.193-.218.426-.382.681-.482ZM75.313 49.65a5.109 5.109 0 0 1-1.316 1.593c-.017-.024.302-.35.664-.797.362-.446.633-.815.652-.797ZM75.984 50.469a3.933 3.933 0 0 1-.11.598c-.106.476-.253.94-.44 1.38a3.55 3.55 0 0 1-.788 1.154 2.103 2.103 0 0 1-.323.243.34.34 0 0 1-.131.06c-.009-.016.17-.117.413-.36.31-.323.563-.711.75-1.144a9.53 9.53 0 0 0 .457-1.355c.045-.197.103-.39.172-.576ZM67.379 49.173c-.152.117-.293.25-.424.398a2.459 2.459 0 0 0-.496 1.371c-.018.512.07 1.021.256 1.485.14.358.261.562.247.572-.013.01-.039-.044-.095-.134a3.396 3.396 0 0 1-.497-1.92c.027-.534.22-1.038.541-1.418.097-.113.208-.209.33-.283a.443.443 0 0 1 .138-.071ZM73.626 48.537c-.03.14-.078.275-.144.398a4.796 4.796 0 0 1-1.17 1.606 1.293 1.293 0 0 1-.32.232c.321-.321.625-.664.912-1.027.262-.384.503-.788.722-1.21ZM73.98 48.59a1.359 1.359 0 0 1-.123.383 4.521 4.521 0 0 1-.45.83c-.177.257-.378.49-.598.696a1.109 1.109 0 0 1-.293.223c.29-.308.563-.636.82-.982.234-.369.449-.753.644-1.15ZM59.56 61.998c.485-.908.915-1.697 1.944-2.162.121.379.282.738.478 1.07-.442.28-.72.566-.891 1.118-.577-.055-.934 0-1.536-.026M64.925 59.912a.915.915 0 0 1-.222-.275 3.162 3.162 0 0 1-.471-1.711 1.13 1.13 0 0 1 .044-.373c.008.42.061.837.157 1.241.123.396.288.771.492 1.118ZM67.742 58.615c.11.126.204.269.28.424.093.165.165.343.217.53.064.235.07.485.02.724a1.025 1.025 0 0 1-.372.583c-.142.108-.3.184-.466.224a2.062 2.062 0 0 1-.341.051.314.314 0 0 1-.123 0c0-.018.17-.037.442-.12.156-.046.303-.124.435-.23a.946.946 0 0 0 .332-.532c.046-.22.042-.452-.012-.67a2.6 2.6 0 0 0-.193-.518 4.55 4.55 0 0 1-.219-.466ZM68.977 60.967c.076-.07.144-.153.201-.245a.915.915 0 0 0 .098-.34 1.15 1.15 0 0 0-.055-.434 2.04 2.04 0 0 0-.403-.67 1.481 1.481 0 0 1-.205-.258c.092.05.176.117.248.199.194.183.346.419.442.688.052.153.07.318.053.482a.876.876 0 0 1-.126.368c-.118.192-.253.222-.253.21ZM68.517 48.822c-.32.389-.496.907-.492 1.445-.01 0-.035-.088-.044-.239a1.663 1.663 0 0 1 .087-.578c.063-.184.157-.35.277-.49.094-.104.165-.148.172-.138Z" fill="#263238"/><path d="M67.545 48.814c.022.02-.17.315-.294.735-.123.42-.148.785-.17.783-.021-.277.01-.557.09-.82.081-.261.21-.5.377-.698h-.003ZM72.752 52.367a.7.7 0 0 1 0 .199.832.832 0 0 1-.193.498.38.38 0 0 1-.149.102.335.335 0 0 1-.171.016.405.405 0 0 1-.174-.114.5.5 0 0 1-.108-.193 5.776 5.776 0 0 1-.205-.955 2.442 2.442 0 0 0-.29-.885 1.23 1.23 0 0 0-.524-.454 3.372 3.372 0 0 0-.434-.165.697.697 0 0 1-.16-.06.49.49 0 0 1 .17.02c.153.03.303.076.45.137.223.088.42.25.566.467.16.275.267.589.31.918.042.318.106.631.192.937a.416.416 0 0 0 .084.162c.04.046.087.08.14.099a.284.284 0 0 0 .141-.01.318.318 0 0 0 .125-.078.85.85 0 0 0 .198-.448c.005-.066.015-.13.032-.194ZM75.845 48.693s.022 0 .053.046a.497.497 0 0 1 .03.548.41.41 0 0 1-.165.149.345.345 0 0 1-.206.03l.013-.075.657.187.193.054-.196.038a.992.992 0 0 0-.498.274 2.09 2.09 0 0 0-.395.552c-.194.385-.317.798-.48 1.15a2.836 2.836 0 0 1-.267.474 1.67 1.67 0 0 1-.32.331.943.943 0 0 1-.582.215.59.59 0 0 1-.17-.027l-.055-.024c0-.012.08.018.22.01a.952.952 0 0 0 .548-.236c.111-.092.21-.201.297-.324.1-.143.186-.298.258-.463.155-.344.275-.759.478-1.157.11-.219.25-.414.415-.578.155-.151.342-.25.54-.29v.093l-.651-.2.013-.075c.06.01.12.003.175-.022a.35.35 0 0 0 .143-.12.446.446 0 0 0 .067-.303.592.592 0 0 0-.115-.257ZM64.692 53.02a7.078 7.078 0 0 1-1.225.177c-.409.06-.82.085-1.233.074a7.57 7.57 0 0 1 1.226-.177c.409-.058.82-.083 1.232-.074ZM63.943 52.436c-.395.122-.798.21-1.205.261-.402.086-.81.138-1.218.157.395-.121.798-.209 1.205-.26a7.31 7.31 0 0 1 1.218-.158ZM77.836 52.6a8.52 8.52 0 0 1 .551-1.116c.185-.371.394-.725.627-1.058a8.176 8.176 0 0 1-.552 1.114 8.295 8.295 0 0 1-.626 1.06ZM78.031 52.762a2.06 2.06 0 0 1 .202-.388c.15-.267.324-.57.512-.907.188-.337.363-.644.512-.91.065-.132.141-.254.229-.365-.044.14-.101.273-.171.398-.118.243-.292.572-.493.927-.202.354-.395.67-.54.892-.07.13-.155.248-.25.353ZM78.281 52.907c.222-.433.469-.846.74-1.238.246-.414.517-.807.812-1.176-.224.431-.471.845-.74 1.238a10.86 10.86 0 0 1-.812 1.175ZM78.766 53.137c.207-.425.44-.832.698-1.218.234-.405.49-.791.77-1.156-.208.425-.441.832-.698 1.218-.233.406-.49.792-.77 1.156ZM79 53.818c.223-.438.472-.857.744-1.255.249-.42.522-.82.818-1.196-.224.437-.474.856-.746 1.253-.25.42-.522.82-.816 1.198ZM72.942 52.471a.754.754 0 0 1-.073.535l-.06-.068a.212.212 0 0 1 .137-.038.23.23 0 0 1 .126.05c.038.029.068.07.087.117a.313.313 0 0 1-.015.243c-.065.122-.154.122-.15.11.003-.012.06-.042.094-.142a.24.24 0 0 0 0-.169.192.192 0 0 0-.06-.075.154.154 0 0 0-.173-.009l-.136.084.077-.153c.063-.155.112-.318.146-.485ZM72.24 55.677a6.817 6.817 0 0 1-.113-1.554c.062.252.095.511.1.773.034.259.038.521.013.781ZM81.058 63.627c0 .03-5.346.052-11.938.052-6.592 0-11.94-.022-11.94-.052s5.344-.051 11.94-.051c6.596 0 11.938.024 11.938.051ZM68.852 64.888c0 .028-2.629.052-5.869.052-3.24 0-5.87-.024-5.87-.052 0-.028 2.627-.052 5.87-.052 3.244 0 5.87.022 5.87.052ZM81.06 64.888c0 .028-2.39.052-5.345.052-2.955 0-5.348-.024-5.348-.052 0-.028 2.39-.052 5.348-.052 2.958 0 5.345.022 5.345.052ZM68.517 66.245c0 .03-2.56.051-5.7.051-3.142 0-5.704-.021-5.704-.051 0-.03 2.552-.052 5.703-.052 3.151 0 5.701.024 5.701.052ZM110.715 63.627c0 .03-5.344.052-11.938.052s-11.949-.022-11.949-.052 5.345-.051 11.949-.051 11.938.024 11.938.051ZM98.508 64.888c0 .028-2.627.052-5.868.052-3.242 0-5.87-.024-5.87-.052 0-.028 2.627-.052 5.87-.052 3.243 0 5.868.022 5.868.052ZM110.714 64.888c0 .028-2.39.052-5.344.052-2.955 0-5.347-.024-5.347-.052 0-.028 2.39-.052 5.347-.052 2.956 0 5.344.022 5.344.052ZM98.174 66.245c0 .03-2.56.051-5.702.051-3.14 0-5.703-.021-5.703-.051 0-.03 2.561-.052 5.703-.052 3.143 0 5.702.024 5.702.052ZM111.037 39.407V35.91c0-2.249-.01-5.497-.017-9.51l.03.038-24.2.014.044-.052v13.012l-.043-.048 17.373.024 5.022.012h1.804-1.79l-5.012.012-17.402.024h-.041V26.321h.046l24.201.014h.033v.038c0 4.023-.012 7.28-.017 9.533v3.26c-.029.164-.031.241-.031.241Z" fill="#263238"/><path d="M99.154 32.682a.491.491 0 0 0-.346-.17.48.48 0 0 0-.355.145l.271-.275a.555.555 0 0 0-.462.127.751.751 0 0 0-.251.47.898.898 0 0 0 .126.54.687.687 0 0 0 .4.31c.127.032.26.02.381-.036a.689.689 0 0 0 .301-.278.773.773 0 0 0-.065-.833Z" fill="#263238"/><path d="m98.406 32.528.808.584c.551-1.619 1.087-3.749 1.556-5.48-.786 1.632-1.574 3.264-2.364 4.896ZM94.924 29.221c-.01.024-.183-.065-.342-.253-.159-.187-.244-.384-.223-.398.02-.014.13.147.285.325.155.177.28.3.28.326ZM96.887 27.362c-.018.018-.112-.07-.21-.2-.097-.129-.16-.246-.143-.266.017-.02.113.07.21.199.097.13.16.247.143.267Z" fill="#263238"/><path d="M103.248 35.178c-.309 1.035-.881 1.935-1.64 2.58-.759.644-1.669 1.003-2.607 1.029-.938.025-1.861-.285-2.644-.889-.784-.604-1.39-1.472-1.74-2.49l8.631-.23Z" fill="#E0E0E0"/><path d="M103.247 35.178a.132.132 0 0 1-.046 0h-.131l-.499.018-1.83.063-6.124.19.04-.07c.158.457.368.887.627 1.275a4.906 4.906 0 0 0 1.502 1.479 4.009 4.009 0 0 0 1.759.598 4.058 4.058 0 0 0 1.652-.2 4.18 4.18 0 0 0 1.307-.729 5.274 5.274 0 0 0 1.41-1.81 6.182 6.182 0 0 0 .311-.755l.022-.06a.244.244 0 0 1-.013.054l-.048.17a5.408 5.408 0 0 1-.241.616 5.24 5.24 0 0 1-1.405 1.849 4.223 4.223 0 0 1-1.323.751 4.07 4.07 0 0 1-1.677.211 4.082 4.082 0 0 1-1.794-.598 5.022 5.022 0 0 1-1.537-1.506 5.667 5.667 0 0 1-.638-1.301l-.024-.07h.063l6.164-.14 1.818-.033h.657l-.002-.002Z" fill="#263238"/><path d="M95.563 33.438c-.235-1.498.386-3.076 1.58-3.694.092.374.155.756.189 1.142.239-.847.78-1.435 1.263-2.126-.947-.128-1.901-.162-2.853-.102 0 0 .646.556 1.035.65-.66.282-1.239.772-1.675 1.416a4.868 4.868 0 0 0-.793 2.228l1.254.486Z" fill="#E0E0E0"/><path d="m95.561 33.439-.08-.028-.24-.088-.941-.347h-.019v-.024a4.835 4.835 0 0 1 .616-1.97c.448-.789 1.1-1.39 1.86-1.716v.094a1.916 1.916 0 0 1-.544-.271 7.156 7.156 0 0 1-.512-.385l-.1-.084h.124a14.307 14.307 0 0 1 2.86.1l.08.012-.052.072c-.25.358-.512.685-.739 1.028-.225.323-.4.69-.52 1.082l-.063.225-.016-.237a7.028 7.028 0 0 0-.182-1.134l.05.028c-.47.25-.87.653-1.148 1.162-.216.39-.362.827-.43 1.285a4.414 4.414 0 0 0-.04.89c0 .104.016.188.02.24a.458.458 0 0 1 0 .078s0-.032-.014-.086a1.68 1.68 0 0 1-.034-.23c-.026-.3-.02-.602.02-.9.062-.468.205-.915.422-1.315a2.913 2.913 0 0 1 1.169-1.196l.04-.022.011.05c.095.376.16.762.191 1.152l-.078-.012c.127-.41.314-.792.553-1.128.229-.349.492-.675.739-1.03l.03.084a14.673 14.673 0 0 0-2.846-.102l.023-.092c.162.136.329.263.5.379.16.115.332.203.513.263l.138.04-.133.056c-.746.316-1.386.9-1.83 1.668a4.779 4.779 0 0 0-.627 1.93l-.015-.03.913.373.246.102.085.034ZM100.394 33.417c-.025-.011.087-.368.113-.83.026-.463-.043-.835-.017-.843.086.27.122.56.106.849-.017.288-.085.57-.202.824ZM100.617 33.687c.163-.274.283-.579.357-.9a3.36 3.36 0 0 0-.01-.997.66.66 0 0 1 .097.28c.044.241.044.49-.001.73-.044.24-.132.468-.257.666-.097.16-.179.229-.186.22ZM97.296 32.75c-.01 0-.043-.055-.067-.165a1.103 1.103 0 0 1 0-.44c.029-.147.087-.284.17-.399.067-.083.12-.117.127-.107a2.82 2.82 0 0 0-.216.522 2.988 2.988 0 0 0-.014.59ZM96.96 32.504a.852.852 0 0 1 .036-.598c.112-.321.324-.476.341-.45-.093.157-.177.32-.252.49a4.78 4.78 0 0 0-.125.558ZM102.945 38.914a.959.959 0 0 1 .092-.092l.274-.25a9.09 9.09 0 0 0 .915-1.039 8.797 8.797 0 0 0 1.048-1.827c.164-.386.305-.786.42-1.196.351-1.308.431-2.695.235-4.047a9.46 9.46 0 0 0-1.185-3.392l-.201-.328a.993.993 0 0 1-.067-.12.69.69 0 0 1 .081.106l.216.319c.252.404.471.835.654 1.287.277.67.476 1.38.591 2.112.137.898.15 1.816.037 2.718a9.097 9.097 0 0 1-.701 2.59 8.488 8.488 0 0 1-1.072 1.832c-.289.37-.604.71-.942 1.016-.122.108-.219.183-.285.235a.461.461 0 0 1-.11.076Z" fill="#263238"/><path d="M93.559 26.907s-.097.162-.261.457a9.566 9.566 0 0 0-.61 1.305 9.837 9.837 0 0 0 .201 7.345 8.7 8.7 0 0 0 1.074 1.805c.288.366.599.706.93 1.016l.277.245a.721.721 0 0 1 .094.09.502.502 0 0 1-.104-.074c-.065-.051-.17-.125-.287-.229a7.957 7.957 0 0 1-.956-.996c-.97-1.218-1.608-2.743-1.835-4.384-.309-2.15.12-4.357 1.195-6.141.087-.146.16-.253.21-.325a.684.684 0 0 1 .072-.114Z" fill="#263238"/><path d="M92.346 26.502a1.068 1.068 0 0 1-.072.13 10.505 10.505 0 0 0-.869 1.756 10.641 10.641 0 0 0-.561 5.18c.244 1.75.916 3.38 1.935 4.695.31.394.646.76 1.004 1.094l.299.263c.036.028.07.06.1.096a.613.613 0 0 1-.11-.08l-.31-.247a8.716 8.716 0 0 1-1.023-1.076c-1.044-1.315-1.732-2.96-1.977-4.729a10.472 10.472 0 0 1 .579-5.215c.19-.488.42-.954.682-1.395.092-.155.171-.273.226-.35a.686.686 0 0 1 .097-.122ZM104.789 39.104a.782.782 0 0 1 .075-.103c.051-.068.132-.158.225-.287.273-.354.523-.728.752-1.122.336-.585.618-1.21.843-1.863.775-2.28.8-4.814.068-7.114a11.709 11.709 0 0 0-.503-1.295 4.086 4.086 0 0 0-.171-.341.635.635 0 0 1-.051-.122.723.723 0 0 1 .066.112c.041.076.106.181.171.33.207.413.385.844.532 1.29.492 1.48.666 3.08.506 4.656a10.735 10.735 0 0 1-1.424 4.389 8.849 8.849 0 0 1-.777 1.108c-.099.125-.182.211-.237.273a.726.726 0 0 1-.075.09Z" fill="#263238"/><path d="M93.454 32.155c0 .028-.15 0-.306-.093-.155-.094-.249-.225-.232-.247.017-.022.13.065.275.157.145.092.27.146.263.183ZM93.73 31.672c0 .026-.152.05-.326-.03-.174-.08-.275-.213-.258-.233.017-.02.133.068.29.138.158.07.294.095.294.125ZM93.57 35.064c0 .03-.065.063-.152.075-.087.012-.16 0-.171-.026-.01-.025.065-.061.152-.075.087-.014.167-.002.17.026ZM99.337 26.403c.024 0 .024.14 0 .299-.024.16-.065.283-.089.279-.023-.004-.023-.14 0-.3.024-.159.065-.282.09-.278ZM102.032 26.533c.02.018-.019.12-.087.227-.068.108-.14.183-.159.165-.019-.017.019-.117.087-.227.068-.11.14-.181.159-.165ZM103.941 28.189c0 .028-.133.11-.305.217-.172.108-.311.2-.326.17-.015-.03.106-.154.285-.264a.55.55 0 0 1 .346-.123ZM103.989 28.689c.012.024-.089.116-.224.2-.135.083-.256.139-.268.113-.012-.026.089-.116.224-.2.135-.083.249-.139.268-.113ZM104.952 31.253c-.275.059-.558.05-.831-.026.276-.062.559-.053.831.026ZM105.245 31.935a.85.85 0 0 1-.42 0 .92.92 0 0 1-.411-.104c.28-.034.563 0 .831.102v.002ZM104.323 34.583a.476.476 0 0 1-.378-.142c-.187-.147-.271-.344-.251-.356.021-.012.13.137.301.27.171.134.334.19.328.228ZM104.752 34.454c-.016.022-.149-.072-.297-.21-.149-.137-.257-.267-.243-.288.014-.022.149.071.299.209.15.137.256.267.241.289ZM101.3 36.632c0 .028-.983.052-2.195.052-1.212 0-2.195-.024-2.195-.052 0-.028.983-.052 2.195-.052 1.212 0 2.195.024 2.195.052Z" fill="#263238"/><path d="M91.54 26.701a4.595 4.595 0 0 0-.105.158c-1.19 1.792-1.743 4.05-1.545 6.305.197 2.255 1.13 4.335 2.605 5.81-1.443-.285-3.735 0-5.198 0V26.926l4.243-.225ZM105.317 38.916c.038-.052-.088.056 0 0 1.274-.797 2.22-2.887 2.501-5.07.282-2.211.152-4.951-1.48-7.223l4.365.08v12.273l-5.386-.06Z" fill="#EBEBEB"/><path d="M89.917 38.301a1.532 1.532 0 0 1-.31-.259 10.597 10.597 0 0 1-1.311-1.514 1.699 1.699 0 0 1-.226-.359c.02-.02.405.488.915 1.074.51.586.95 1.034.932 1.058ZM90.023 37.37a2.337 2.337 0 0 1-.382-.33 16.56 16.56 0 0 1-.854-.89c-.322-.361-.602-.706-.797-.961a2.785 2.785 0 0 1-.299-.43c.123.115.237.242.342.38.206.241.491.574.812.935.321.36.62.68.835.91.123.118.238.247.343.387ZM89.776 35.76a1.551 1.551 0 0 1-.358-.256 6.949 6.949 0 0 1-1.436-1.666 1.834 1.834 0 0 1-.22-.418c.097.117.188.242.27.374.21.304.435.595.672.871.28.323.55.598.751.782.114.094.221.198.32.312ZM89.22 33.656a3.484 3.484 0 0 1-.591-.582 3.655 3.655 0 0 1-.527-.66c.214.17.411.365.588.585.197.196.374.416.53.657ZM89.22 32.286c-.254-.25-.478-.54-.665-.863a4.439 4.439 0 0 1-.512-.996c.024-.016.258.422.584.934.326.512.613.903.594.925ZM89.29 30.784a3.647 3.647 0 0 1-.775-.779c-.246-.28-.453-.6-.617-.952.02-.018.297.398.683.88.386.483.727.823.709.851ZM89.53 29.821a2.545 2.545 0 0 1-.45-.53 2.616 2.616 0 0 1-.385-.598c.17.153.321.331.45.53.152.178.281.38.385.598ZM89.803 29.09a2.31 2.31 0 0 1-.526-.565 2.546 2.546 0 0 1-.41-.688c.172.192.332.4.476.62.167.197.32.41.46.634ZM110.163 27.571a9.12 9.12 0 0 1-1.063.783c-.355.26-.725.492-1.108.694a8.493 8.493 0 0 1 1.064-.783 8.22 8.22 0 0 1 1.107-.694ZM110.379 28.967c.009.028-.41.225-.905.516-.495.29-.882.562-.896.536a4.898 4.898 0 0 1 1.801-1.052ZM110.208 30.547c.008.028-.415.23-.92.52-.506.291-.903.554-.917.53.267-.253.562-.463.877-.623.302-.192.625-.335.96-.427ZM110.064 31.555a4.869 4.869 0 0 1-.879.612 4.591 4.591 0 0 1-.939.478c.288-.213.588-.404.898-.572a7.23 7.23 0 0 1 .92-.518ZM109.996 32.522a7.12 7.12 0 0 1-.854.797 6.607 6.607 0 0 1-.908.707c.266-.292.551-.559.854-.797.286-.264.589-.501.908-.707ZM110.069 33.903c.01.028-.455.265-.98.655-.526.391-.91.778-.929.754.066-.106.145-.2.234-.28.203-.205.419-.393.647-.561.227-.169.465-.317.712-.443.099-.06.206-.102.316-.125ZM110.002 35.685c-.128.08-.262.147-.4.2-.247.12-.587.287-.956.492-.368.205-.694.398-.928.56-.123.09-.252.167-.386.233.107-.116.225-.215.353-.297a8.9 8.9 0 0 1 1.895-1.056c.136-.063.277-.107.422-.132ZM110.241 37.419c-.385.193-.78.356-1.183.488-.395.166-.799.3-1.21.398a15.54 15.54 0 0 1 2.389-.879l.004-.008ZM110.969 62.081v-3.565c0-2.285-.01-5.59-.017-9.668l.033.036-24.634.01.045-.052v13.233l-.043-.05 17.669.024 5.105.014h1.84H109.144l-5.097.014-17.696.022h-.042V48.764h.046l24.612.016H111v.038c0 4.089-.014 7.4-.017 9.692V61.822c0 .158-.014.26-.014.26Z" fill="#263238"/><path d="M103.875 53.13a.845.845 0 0 1 .365 0c.297.04.585.139.854.291.267.152.511.354.722.598.092.096.169.21.229.335a4.518 4.518 0 0 0-.989-.837 3.835 3.835 0 0 0-1.181-.387Z" fill="#263238"/><path d="M96.578 53.687s.019-.03.06-.08c.04-.05.106-.12.191-.2.24-.245.506-.457.789-.631.197-.12.406-.214.621-.279.247-.065.497-.11.75-.138.528-.073 1.114-.141 1.729-.16.3-.01.601 0 .901.033.279.034.556.089.829.163a5.11 5.11 0 0 1 1.327.598c.281.176.549.381.799.614.088.078.153.15.198.2a.42.42 0 0 1 .064.073 3.53 3.53 0 0 1-.285-.237 5.84 5.84 0 0 0-.807-.582 5.371 5.371 0 0 0-1.309-.582 6.053 6.053 0 0 0-.82-.153 6.53 6.53 0 0 0-.889-.032c-.613.02-1.195.083-1.722.153-.25.024-.498.066-.743.124-.21.061-.415.15-.61.263a4.505 4.505 0 0 0-.795.598c-.18.163-.274.26-.278.255ZM93.032 54.978s-.016 0-.038-.03a.365.365 0 0 1-.072-.125.693.693 0 0 1 .065-.538.9.9 0 0 1 .272-.265.765.765 0 0 1 .34-.114c.259-.041.537-.056.834-.085.59-.052 1.127-.094 1.514-.118l.46-.024a.485.485 0 0 1 .17 0 .657.657 0 0 1-.17.034c-.108.016-.265.036-.458.058-.388.042-.922.096-1.512.147-.296.03-.58.042-.83.078a.708.708 0 0 0-.314.093.826.826 0 0 0-.256.232.624.624 0 0 0-.09.23.67.67 0 0 0 .004.252c.035.124.094.167.08.175ZM92.79 56.512c-.012 0-.043-.083-.079-.229a2.989 2.989 0 0 1-.09-.598 1.156 1.156 0 0 1 .11-.597c.074-.134.144-.188.151-.18.007.008-.04.084-.094.215a1.328 1.328 0 0 0-.078.55c.012.194.033.386.063.576.02.166.029.26.017.263ZM92.875 56.52c.103.03.2.082.287.155.209.162.425.312.647.449.227.12.465.211.71.27.105.017.207.049.305.094a.828.828 0 0 1-.317-.022 2.327 2.327 0 0 1-.736-.247 4.371 4.371 0 0 1-.643-.482 1.663 1.663 0 0 1-.253-.217ZM95.553 55.547a.782.782 0 0 0-.237.155 1.465 1.465 0 0 0-.363.745 1.699 1.699 0 0 0-.026.598c.03.225.106.44.222.624.127.214.314.37.528.443a.844.844 0 0 0 .65-.045c.212-.103.391-.281.512-.51.106-.22.167-.465.18-.717a1.698 1.698 0 0 0-.109-.622 1.493 1.493 0 0 0-.322-.512.885.885 0 0 0-.316-.223.778.778 0 0 0-.367-.056c-.092.01-.183.026-.273.05a.24.24 0 0 1 .066-.038.736.736 0 0 1 .205-.054.901.901 0 0 1 .331.026c.148.037.283.12.393.241.14.139.256.305.345.492.1.215.148.458.14.702-.012.268-.077.53-.188.765-.13.25-.326.444-.558.554a.957.957 0 0 1-.732.036 1.121 1.121 0 0 1-.545-.48 1.674 1.674 0 0 1-.23-.668c-.023-.209-.01-.42.037-.624.06-.297.201-.564.403-.759a.544.544 0 0 1 .188-.112c.044-.011.066-.016.066-.011Z" fill="#263238"/><path d="M95.855 55.884s-.053.044-.139.133a1.41 1.41 0 0 0-.28.449 1.084 1.084 0 0 0-.08.364.844.844 0 0 0 .092.409.73.73 0 0 0 .29.348c.127.076.271.103.412.076a.636.636 0 0 0 .368-.225.83.83 0 0 0 .18-.438c.015-.135.004-.271-.033-.4a.946.946 0 0 0-.177-.343.885.885 0 0 0-.382-.323 1.047 1.047 0 0 0-.171-.036s.015 0 .046-.014a.295.295 0 0 1 .137.012c.163.051.31.16.42.31.08.101.144.216.192.341a.987.987 0 0 1-.157.955.768.768 0 0 1-.406.265.61.61 0 0 1-.473-.108.954.954 0 0 1-.314-.372.939.939 0 0 1-.094-.46 1.16 1.16 0 0 1 .098-.4 1.28 1.28 0 0 1 .32-.444.426.426 0 0 1 .15-.1ZM96.996 57.626c0-.03 1.422-.232 3.182-.45 1.76-.22 3.19-.376 3.192-.348.002.028-1.422.232-3.182.45-1.76.22-3.189.385-3.192.348ZM104.323 57.755a.224.224 0 0 1-.14.062.518.518 0 0 1-.396-.114.825.825 0 0 1-.212-.26.954.954 0 0 1-.105-.338 2.016 2.016 0 0 1 .087-.856c.08-.278.22-.526.406-.722a.901.901 0 0 1 .557-.275.679.679 0 0 1 .401.082c.087.052.125.098.121.101a.921.921 0 0 1-.133-.063.704.704 0 0 0-.382-.046.868.868 0 0 0-.512.273 1.702 1.702 0 0 0-.378.683 1.998 1.998 0 0 0-.089.808c.011.109.04.214.087.31a.752.752 0 0 0 .185.243c.102.091.228.139.357.136.095-.008.143-.034.146-.024Z" fill="#263238"/><path d="M104.297 57.736c.119-.037.235-.082.35-.135.134-.068.255-.166.356-.29.101-.122.18-.267.233-.426a1.495 1.495 0 0 0-.021-.992 4.4 4.4 0 0 0-.17-.375.78.78 0 0 1 .237.345 1.5 1.5 0 0 1 .038 1.058c-.058.17-.145.323-.257.45a1.111 1.111 0 0 1-.392.29.576.576 0 0 1-.374.075ZM98.367 56.224c.06-.02.12-.03.181-.03l.492-.042 1.62-.128 1.621-.141.492-.042a.61.61 0 0 1 .181 0 .694.694 0 0 1-.171.042c-.116.02-.283.044-.49.072a34.337 34.337 0 0 1-3.245.27c-.208 0-.375.01-.491.01a.753.753 0 0 1-.19-.011ZM102.871 54.378a1.14 1.14 0 0 1 .434-.349c.153-.106.325-.17.503-.183-.146.11-.302.202-.464.275-.15.103-.308.19-.473.257ZM98.402 54.944c0-.03 1.322-.181 2.953-.339 1.632-.157 2.955-.26 2.955-.233 0 .028-1.319.18-2.953.337-1.633.157-2.951.263-2.955.235ZM99.241 54.673c0-.014.084-.062.23-.08a.53.53 0 0 0 .23-.077c.076-.052.136-.152.098-.243a.284.284 0 0 0-.1-.102.235.235 0 0 0-.129-.034 1.32 1.32 0 0 0-.245.04c-.15.036-.248 0-.243-.018.005-.018.09 0 .229-.054a.97.97 0 0 1 .261-.063.301.301 0 0 1 .176.044c.054.033.1.083.131.143a.288.288 0 0 1-.01.229.347.347 0 0 1-.124.14.476.476 0 0 1-.267.067c-.148-.01-.232.008-.237.008ZM95.504 55.15a9.03 9.03 0 0 1 1.38-.188c.461-.062.925-.09 1.389-.082a9.503 9.503 0 0 1-1.381.186 9.65 9.65 0 0 1-1.388.084ZM93.826 55.369s-.029.016-.046.068a.191.191 0 0 0 .006.108.16.16 0 0 0 .062.08.881.881 0 0 0 .656.222.763.763 0 0 0 .14-.026l-.026.078a1.09 1.09 0 0 0-.46-.44c-.142-.072-.238-.084-.236-.1a.395.395 0 0 1 .256.036c.209.078.389.236.512.448l.036.062-.062.016a.839.839 0 0 1-.53-.023.94.94 0 0 1-.33-.216.29.29 0 0 1-.073-.14.187.187 0 0 1 .017-.123c.037-.064.08-.056.078-.05ZM92.617 55.724c.306.06.606.156.896.285.3.096.59.224.87.385a9.015 9.015 0 0 1-1.766-.67ZM92.954 55c.014-.023.152.056.308.178.155.122.27.239.257.263-.013.024-.15-.056-.307-.177-.157-.122-.271-.242-.258-.263ZM92.727 56.117c.013-.026.341.2.745.399.405.199.762.352.755.382a2.195 2.195 0 0 1-.792-.289 2.329 2.329 0 0 1-.708-.492ZM104.824 54.276c0-.028.227.032.502.04.167-.01.335-.01.502 0a1.066 1.066 0 0 1-1.004-.04Z" fill="#263238"/><path d="M99.824 53.359c.05-.026.1-.044.154-.056.142-.041.285-.074.43-.097a5.126 5.126 0 0 1 2.856.342c.138.058.273.124.404.2.05.023.097.054.14.091 0 .016-.215-.09-.565-.219a5.902 5.902 0 0 0-2.826-.339c-.373.042-.59.096-.593.078ZM99.173 54.06c-.015-.025.118-.157.256-.342.138-.185.236-.35.26-.337a.78.78 0 0 1-.193.399c-.147.203-.306.297-.323.28ZM98.57 54.116c.084-.196.193-.376.325-.532.108-.179.24-.336.39-.466a2.133 2.133 0 0 1-.322.532 1.96 1.96 0 0 1-.393.466ZM98.297 52.653c.292.086.566.238.807.448a1.061 1.061 0 0 1-.423-.177 1.13 1.13 0 0 1-.384-.271ZM96.648 53.698c.02-.022.246.253.596.468.35.215.67.283.664.315a1.166 1.166 0 0 1-.707-.223 1.427 1.427 0 0 1-.553-.56ZM98.168 53.999a1.247 1.247 0 0 1-.107-.467 1.345 1.345 0 0 1-.02-.482c.1.302.143.626.127.949ZM97.911 53.876a2.057 2.057 0 0 1-.088-.833c.025 0 .064.18.088.41.024.232.026.423 0 .423Z" fill="#263238"/><path d="M97.345 58.523c-2.157.136-4.906-.797-6.435-2.576l.765-1.36-2.303 1.368c-.099.06-.208.131-.236.257-.01.086.001.174.031.253.304 1.055.61 2.11.915 3.164l.157-1.269c1.723 1.734 4.097 2.405 6.779 2.328" fill="#E0E0E0"/><path d="M97.017 60.69h-.137l-.396.01c-.498.001-.995-.028-1.49-.088a9.368 9.368 0 0 1-2.236-.562 7.491 7.491 0 0 1-2.547-1.662l.068-.03c-.05.399-.102.83-.155 1.27l-.026.199-.058-.2-.47-1.626c-.083-.279-.171-.562-.247-.849l-.124-.43-.063-.217a1.022 1.022 0 0 1-.05-.237.359.359 0 0 1 .02-.13.317.317 0 0 1 .065-.11.72.72 0 0 1 .171-.133l.341-.2.671-.398 1.301-.77.144-.085-.09.158-.766 1.357v-.06c.35.4.74.75 1.161 1.042.381.271.78.504 1.195.698.68.322 1.388.557 2.111.701.472.096.949.15 1.427.163.171.01.296 0 .383 0h.131-.132c-.086 0-.214.018-.382.014-.48 0-.96-.047-1.433-.14a8.758 8.758 0 0 1-2.13-.683 7.729 7.729 0 0 1-1.21-.695 6.511 6.511 0 0 1-1.177-1.05l-.024-.028.019-.032.763-1.36.055.07-1.3.774-.67.398-.342.2c-.11.063-.217.15-.208.275a.836.836 0 0 0 .046.199l.061.215.125.433c.084.285.17.568.246.846.16.56.317 1.105.47 1.629h-.084l.159-1.27.01-.087.058.057a7.532 7.532 0 0 0 2.514 1.66c.72.283 1.464.477 2.22.578.632.088 1.138.104 1.483.116h.498c.019.065.03.067.03.07ZM106.124 54.329c.106.1.177.241.2.398.034.162.054.328.058.494 0 .094 0 .2.013.29.002.108-.011.217-.037.322a1.29 1.29 0 0 1-.263.536.655.655 0 0 1-.388.227c-.094.02-.19.027-.286.022a.247.247 0 0 1-.105-.016c0-.02.151-.018.378-.077a.63.63 0 0 0 .341-.224c.113-.14.194-.312.236-.498.024-.094.036-.192.035-.29 0-.098 0-.2-.008-.288 0-.16-.013-.321-.038-.48a1.739 1.739 0 0 0-.136-.416ZM109.453 55.027s-.017.014-.053.032a.587.587 0 0 1-.171.044.758.758 0 0 1-.602-.212.853.853 0 0 1-.149-.183c-.043-.07-.082-.145-.128-.213a.315.315 0 0 0-.171-.14.301.301 0 0 0-.22.052c-.153.102-.28.248-.37.425-.1.192-.177.4-.229.615-.046.2-.092.373-.137.554a.203.203 0 0 1-.034.084.173.173 0 0 1-.063.056.124.124 0 0 1-.082 0l-.053-.012a.333.333 0 0 0-.199.036.67.67 0 0 0-.284.325c-.056.132-.102.27-.138.412l-.014.052-.039-.03a.738.738 0 0 0-.213-.124.216.216 0 0 0-.195.03 1.35 1.35 0 0 0-.251.285.466.466 0 0 1-.189.162.12.12 0 0 1-.082 0 .44.44 0 0 0 .242-.2c.069-.119.155-.225.253-.312a.284.284 0 0 1 .115-.05.267.267 0 0 1 .122.006c.084.027.163.07.236.125l-.052.024c.034-.149.08-.294.137-.432a.753.753 0 0 1 .317-.37.4.4 0 0 1 .246-.047c.045 0 .087.026.096.018a.13.13 0 0 0 .041-.075l.135-.552c.114-.45.312-.893.648-1.096a.358.358 0 0 1 .273-.054.37.37 0 0 1 .214.175c.07.146.157.28.258.399.156.156.355.24.561.235.075-.009.15-.024.224-.044ZM107.923 57.177a1.087 1.087 0 0 1-.342.141 4.742 4.742 0 0 1-1.766.183c-.124 0-.248-.023-.366-.067 0-.032.562.03 1.246-.044.685-.074 1.219-.243 1.228-.213ZM109.262 56.32a2.77 2.77 0 0 1-.896.423c-.309.113-.632.17-.956.165 0-.032.422-.104.932-.267.511-.163.907-.349.92-.32ZM104.617 55.77s.057-.025.145.027c.059.042.108.1.142.17.034.07.051.149.051.229.004.235-.056.466-.17.66a.87.87 0 0 1-.265.302.703.703 0 0 1-.355.126.233.233 0 0 1-.107-.034.277.277 0 0 1-.086-.082.546.546 0 0 1-.067-.219 1.992 1.992 0 0 1 0-.408 1.21 1.21 0 0 1 .239-.628.673.673 0 0 1 .342-.233.221.221 0 0 1 .145 0s-.051 0-.137.044a.71.71 0 0 0-.305.243c-.118.167-.19.372-.205.587a1.901 1.901 0 0 0 0 .385c.012.13.068.243.179.245a.517.517 0 0 0 .316-.117.888.888 0 0 0 .23-.261c.107-.175.166-.384.171-.598a.481.481 0 0 0-.034-.207.42.42 0 0 0-.114-.162.583.583 0 0 0-.115-.07ZM100.445 54.3c.125-.16.271-.294.432-.4.146-.132.309-.237.483-.31-.271.291-.579.53-.915.707v.003ZM100.204 54.233c-.014-.024.123-.17.306-.33.182-.158.341-.266.358-.242.017.024-.121.17-.305.327-.104.109-.226.192-.359.245ZM101.122 54.278c-.014-.024.113-.14.278-.257.166-.117.314-.199.326-.17.012.03-.112.14-.28.258-.167.117-.312.197-.324.17ZM107.604 49.467a.75.75 0 0 1 .236.062c.211.078.409.194.589.345.272.226.469.557.555.934.05.226.047.462-.009.686a1.605 1.605 0 0 1-.329.626 3.78 3.78 0 0 1-.994.777 4.924 4.924 0 0 1-.908.398 4.357 4.357 0 0 1-.642.158.899.899 0 0 1-.239.024c.076-.029.154-.05.232-.064a5.481 5.481 0 0 0 1.521-.61c.354-.195.68-.453.966-.763a1.51 1.51 0 0 0 .309-.584c.053-.206.057-.425.012-.634a1.667 1.667 0 0 0-.512-.898 2.183 2.183 0 0 0-.563-.363 2.058 2.058 0 0 1-.224-.094Z" fill="#263238"/><path d="M108.46 51.695s-.02.03-.065.074a1.768 1.768 0 0 1-.206.173.815.815 0 0 1-.372.155.472.472 0 0 1-.263-.035.55.55 0 0 1-.217-.176l.072-.018c-.024.163-.074.32-.146.463a.451.451 0 0 1-.181.19.372.372 0 0 1-.242.04.346.346 0 0 1-.196-.157 1.361 1.361 0 0 1-.108-.215.495.495 0 0 0-.093-.171.412.412 0 0 0-.146-.112.12.12 0 0 0-.07.003.142.142 0 0 0-.061.043.44.44 0 0 0-.074.155c-.03.118-.052.237-.071.343-.072.427-.074.7-.089.7a.74.74 0 0 1-.012-.2c.002-.175.015-.35.039-.522.014-.116.034-.232.058-.346a.529.529 0 0 1 .089-.2.22.22 0 0 1 .093-.067.192.192 0 0 1 .109-.008c.068.025.13.068.182.125a.575.575 0 0 1 .118.205c.06.138.126.287.246.317a.3.3 0 0 0 .195-.034.37.37 0 0 0 .146-.153 1.51 1.51 0 0 0 .138-.427l.021-.095.051.077c.049.07.112.124.184.16a.415.415 0 0 0 .226.04.765.765 0 0 0 .353-.126c.184-.123.285-.213.292-.201ZM110.628 52.407c.028.13.036.266.022.399-.038.665-.296 1.286-.719 1.734a.858.858 0 0 1-.286.229c.298-.29.539-.65.709-1.057.17-.407.263-.852.274-1.305Z" fill="#263238"/><path d="M86.953 61.54V49.29h8.863l-.028 3.586h-3.125l-.652.81-3.626 1.98 1.523 5.34.645-1.614 4.756 1.616 2.432.598-10.788-.066Z" fill="#EBEBEB"/><path d="M95.753 49.236a18.3 18.3 0 0 1 .044 1.824c.016.608 0 1.217-.044 1.823a18.955 18.955 0 0 1-.044-1.823c-.015-.609 0-1.217.044-1.824ZM95.91 52.976c0 .028-1.635.052-3.651.052s-3.65-.024-3.65-.052c0-.028 1.634-.054 3.65-.054s3.651.024 3.651.054ZM100.82 51.931c-.045-.344-.06-.693-.045-1.042-.015-.348 0-.697.045-1.042.044.345.058.694.044 1.042.014.349 0 .698-.044 1.042ZM98.405 50.61a2.754 2.754 0 0 1-.014-.257c0-.159-.012-.386-.017-.663l.03.036c-.501.01-1.211.016-1.995.016l.051-.056v.917l-.042-.05c.568 0 1.061.014 1.416.024l.42.014c.053-.001.106.003.16.011a.559.559 0 0 1-.14.012l-.41.014c-.354 0-.854.02-1.446.024h-.043v-.966l.044-.052c.784 0 1.494 0 1.996.016h.032v.036c0 .295-.01.528-.015.685-.003.08-.012.16-.027.24ZM98.404 51.93a2.616 2.616 0 0 1-.014-.256c0-.161-.012-.386-.017-.663l.03.035c-.501.01-1.211.016-1.995.016l.044-.051V51.926l-.042-.05c.568 0 1.062.014 1.417.024l.42.014a.92.92 0 0 1 .158.012.4.4 0 0 1-.138.014l-.411.014c-.354.01-.854.02-1.446.022h-.043v-.966l.045-.052c.783 0 1.493 0 1.995.016h.032v.035c0 .294-.01.529-.015.686 0 .078-.007.156-.02.233ZM103.575 50.61a2.754 2.754 0 0 1-.013-.257c0-.159-.014-.386-.017-.663l.03.036c-.512.01-1.211.016-1.995.016l.044-.052v.917l-.042-.05c.568 0 1.061.014 1.417.024l.419.013a.93.93 0 0 1 .159.012.587.587 0 0 1-.14.012l-.409.014c-.354 0-.854.02-1.446.024h-.043v-.97l.044-.052c.784 0 1.492 0 1.996.016h.031v.036c0 .295-.011.528-.017.685 0 .08-.005.16-.018.24ZM103.579 51.934a2.714 2.714 0 0 1-.014-.255c0-.161-.013-.386-.017-.663l.031.035c-.512.01-1.212.016-1.996.016a.44.44 0 0 1 .045-.051V51.93l-.046-.046c.568 0 1.061.014 1.417.024l.419.014a.93.93 0 0 1 .159.012.42.42 0 0 1-.14.014l-.409.014c-.354.01-.854.02-1.446.022h-.043v-.966l.044-.052c.784 0 1.492 0 1.996.016h.031v.036c0 .293-.011.528-.017.685.001.078-.003.155-.014.231ZM104.172 59.426c0 .028-1.146.06-2.561.07-1.415.01-2.56 0-2.56-.032s1.143-.062 2.56-.072c1.417-.01 2.561.004 2.561.034ZM107.151 59.69a1.697 1.697 0 0 1-.29.02l-.794.018-2.618.066-2.619.1-.792.031a1.654 1.654 0 0 1-.292 0c.096-.022.193-.035.29-.04.186-.018.458-.04.792-.063a72.216 72.216 0 0 1 5.237-.166c.342 0 .608 0 .796.014.097-.002.194.004.29.02Z" fill="#263238"/><path d="M97.527 61.542c0-.08.512-2.85.512-2.85l5.533-.199s4.627-.15 5.552-.869a7.242 7.242 0 0 0 1.303-1.225v5.207l-12.9-.064ZM104.364 49.688c-.01.81-.022 1.621-.034 2.433l.853.22c.065-.25.158-.49.279-.71a.947.947 0 0 1 .23-.283.798.798 0 0 1 .306-.158c.285-.058.561.114.841.2.364.107.811.03 1.012-.34a1.047 1.047 0 0 0-.075-1.008 1.505 1.505 0 0 0-.761-.574c-.854-.324-1.794-.151-2.687.026" fill="#EBEBEB"/><path d="M76.024 31.45c.193-.539.292-1.148.061-1.706a1.108 1.108 0 0 0-.25-.38c-.548-.523-1.221-.135-1.644.381-.352.427-.617.957-1.025 1.31a2.34 2.34 0 0 1-1.695.504 11.196 11.196 0 0 1-1.756-.339.796.796 0 0 0-.642.05c-.188.131-.271.398-.355.632-.404 1.151-1.73 2.73-3.049 3.554l-.017.71 1.195 2.038c.279.291 1.016.483 1.35.29 1.433-.83 3.775-2.89 4.877-3.667 1.195-.847 2.409-1.875 2.95-3.378Z" fill="#E0E0E0"/><path d="M76.61 31.122a.482.482 0 0 1-.022.104c-.018.066-.042.165-.083.29a6.452 6.452 0 0 1-.429 1.01 8.1 8.1 0 0 1-.877 1.32 15.45 15.45 0 0 1-1.287 1.395 25.148 25.148 0 0 1-2.56 2.192c-.342.253-.63.444-.832.568-.1.062-.18.106-.235.134a.427.427 0 0 1-.086.037.275.275 0 0 1 .077-.055l.227-.152c.196-.133.476-.333.816-.598a29.31 29.31 0 0 0 2.542-2.207c.45-.43.878-.889 1.283-1.375.33-.398.626-.83.884-1.294a7.38 7.38 0 0 0 .45-.996c.038-.127.083-.251.133-.373ZM75.024 28.862s-.09.016-.242.084c-.212.104-.403.26-.558.458-.21.237-.414.572-.692.899a3.718 3.718 0 0 1-1.041.857 3.41 3.41 0 0 1-2.269.396 3.085 3.085 0 0 1-.39-.095c-.113-.044-.21-.074-.287-.112a1.244 1.244 0 0 1-.233-.125c.3.117.608.205.92.26a3.49 3.49 0 0 0 2.22-.41c.38-.206.726-.488 1.024-.83.275-.316.486-.648.705-.884.165-.2.367-.351.59-.444a.734.734 0 0 1 .188-.046c.043-.01.065-.012.065-.008Z" fill="#263238"/><path d="M72.703 35.042c0-.018.29-.17.712-.524a9.053 9.053 0 0 0 1.478-1.61c.443-.597.825-1.253 1.137-1.955.237-.538.341-.898.352-.892a1.306 1.306 0 0 1-.06.255c-.026.1-.057.197-.092.293-.041.111-.082.243-.144.378a9.423 9.423 0 0 1-1.125 1.993 8.204 8.204 0 0 1-1.51 1.594c-.171.135-.35.256-.536.363a1.195 1.195 0 0 1-.212.105ZM76.33 32.067a.416.416 0 0 1 .1.03c.093.037.184.082.272.133.326.19.611.463.836.797.074.113.14.23.202.353.07.133.12.28.146.432a.67.67 0 0 1-.025.258.6.6 0 0 1-.118.219 2.86 2.86 0 0 1-.341.334c-.473.437-.982.931-1.514 1.453a137.522 137.522 0 0 1-2.742 2.656 24.36 24.36 0 0 1-.853.768l-.241.199a.522.522 0 0 1-.087.064.501.501 0 0 1 .077-.08l.23-.213c.198-.186.487-.453.838-.797.707-.674 1.66-1.632 2.731-2.678a53.194 53.194 0 0 1 1.52-1.45 3.05 3.05 0 0 0 .341-.322.506.506 0 0 0 .103-.182.57.57 0 0 0 .025-.217 1.387 1.387 0 0 0-.135-.398 2.86 2.86 0 0 0-.19-.345 2.69 2.69 0 0 0-.802-.81c-.239-.146-.375-.194-.373-.204Z" fill="#263238"/><path d="M81.28 39.54v-.911c0-.598 0-1.47-.008-2.59 0-2.248-.01-5.497-.017-9.51l.033.038-24.208.008.044-.052v13.015l-.043-.05 17.374.024 5.02.011H81.28h-1.79l-5.011.012-17.401.024h-.043V26.446h.046l24.202.013h.032v.038c0 4.024-.014 7.28-.017 9.533 0 1.12 0 1.993-.008 2.59v.67c0 .154-.01.25-.01.25Z" fill="#263238"/><path d="M71.424 31.534c.02.049.031.102.034.156.014.101.034.249.044.434.015.219.005.438-.032.654-.02.13-.054.255-.102.374a.542.542 0 0 1-.104.188.448.448 0 0 1-.161.121.203.203 0 0 1-.11.005.222.222 0 0 1-.098-.053.272.272 0 0 1-.058-.104.305.305 0 0 1-.01-.123c.016-.147.056-.257.075-.377.04-.207.065-.417.076-.63.02-.364 0-.597.012-.597.019.05.03.103.031.157.016.145.023.291.02.437a4.133 4.133 0 0 1-.06.647c-.016.12-.057.25-.068.365a.176.176 0 0 0 .005.076.156.156 0 0 0 .035.064.14.14 0 0 0 .061.03.13.13 0 0 0 .067-.002.383.383 0 0 0 .128-.103.46.46 0 0 0 .082-.155 1.6 1.6 0 0 0 .107-.344c.04-.206.056-.417.05-.628a6.384 6.384 0 0 1-.024-.592ZM72.33 31.396c.044.19.065.388.062.586.008.214.004.428-.012.641-.005.13-.025.259-.06.383a.471.471 0 0 1-.097.194.38.38 0 0 1-.165.115.206.206 0 0 1-.107.004.224.224 0 0 1-.098-.05.264.264 0 0 1-.056-.103.296.296 0 0 1-.01-.122c0-.13.015-.255.02-.377l.039-.638c.004-.196.024-.391.058-.583.016.198.016.398 0 .597 0 .2-.014.399-.02.638 0 .122-.009.247-.014.377a.184.184 0 0 0 .002.075.166.166 0 0 0 .032.066.136.136 0 0 0 .13.024.299.299 0 0 0 .126-.092.37.37 0 0 0 .074-.151c.033-.115.053-.234.06-.355.021-.237.028-.452.03-.633.008-.371-.007-.596.007-.596ZM72.955 30.803c.077.179.137.367.18.562.054.208.093.421.117.637.013.13.018.26.016.389.006.075-.001.15-.021.222a.575.575 0 0 1-.096.194.21.21 0 0 1-.095.064.185.185 0 0 1-.11 0 .287.287 0 0 1-.16-.141 1.095 1.095 0 0 1-.083-.399l-.065-.644a4.173 4.173 0 0 1-.036-.597c.048.191.08.387.099.585l.084.64c.004.12.03.239.075.347.01.024.024.045.042.062a.14.14 0 0 0 .062.033.129.129 0 0 0 .068-.002.144.144 0 0 0 .06-.037.534.534 0 0 0 .089-.343c.004-.125 0-.25-.01-.375a5.146 5.146 0 0 0-.098-.63 5.354 5.354 0 0 1-.118-.567ZM76.233 30.075c-.014 0-.026-.122-.086-.301a1.408 1.408 0 0 0-.37-.603 1.117 1.117 0 0 0-.584-.296c-.17-.03-.27-.016-.271-.034a.458.458 0 0 1 .278-.037c.231.017.452.117.632.287.18.17.311.4.375.66a.665.665 0 0 1 .026.324ZM76.608 31.156a.912.912 0 0 1 .044-.267 1.98 1.98 0 0 0 .053-.626.8.8 0 0 0-.08-.288.683.683 0 0 0-.174-.224 1.355 1.355 0 0 0-.205-.106c0-.012.097-.04.236.042a.597.597 0 0 1 .198.2c.061.105.1.227.112.354.02.225-.008.452-.08.662a.75.75 0 0 1-.104.253ZM71.734 34.744a1.82 1.82 0 0 1-.352.287 8.514 8.514 0 0 1-1.877.997 1.586 1.586 0 0 1-.415.125 2.32 2.32 0 0 1 .394-.2c.244-.11.582-.27.946-.465.363-.196.683-.399.918-.534a2.12 2.12 0 0 1 .386-.21ZM70.22 31.468a.842.842 0 0 1-.18-.14 3.718 3.718 0 0 1-.433-.468 4.465 4.465 0 0 1-.512-.83 3.742 3.742 0 0 1-.22-.551.655.655 0 0 1 0-.345.355.355 0 0 1 .087-.158.28.28 0 0 1 .145-.081.402.402 0 0 1 .295.084c.08.055.153.122.219.199.122.145.232.304.327.474.157.289.286.597.384.919.088.273.144.498.183.653.025.08.04.162.048.246a1.48 1.48 0 0 1-.082-.234c-.048-.151-.113-.372-.207-.64a5.241 5.241 0 0 0-.394-.89 2.898 2.898 0 0 0-.32-.456.987.987 0 0 0-.202-.2.337.337 0 0 0-.236-.071.196.196 0 0 0-.107.056.25.25 0 0 0-.064.115.524.524 0 0 0 0 .281 3.4 3.4 0 0 0 .207.536c.137.295.301.572.488.827.33.452.586.658.574.674Z" fill="#263238"/><path d="M70.002 30.937a2.133 2.133 0 0 1-.275-.36l-.278-.4-.08-.12a.252.252 0 0 1-.037-.2.115.115 0 0 1 .039-.052.092.092 0 0 1 .057-.018.147.147 0 0 1 .087.038c.04.036.079.075.115.116.245.271.436.603.56.97.058.148.091.308.099.47-.016 0-.053-.175-.157-.442a3.038 3.038 0 0 0-.564-.923c-.034-.035-.071-.08-.102-.105-.03-.026-.053-.024-.055-.012-.001.012.057.141.103.217l.264.42c.087.124.162.258.224.401ZM70.78 31.346a.228.228 0 0 1 0 .074 1.024 1.024 0 0 1-.036.199c-.076.24-.187.462-.328.657a5.385 5.385 0 0 1-.662.821 5.064 5.064 0 0 1-.454.399c-.082.064-.171.128-.255.2a.763.763 0 0 1-.302.137.32.32 0 0 1-.173-.015.368.368 0 0 1-.15-.105.42.42 0 0 1-.046-.38c.09-.204.217-.383.37-.524.242-.25.5-.477.772-.678.23-.175.422-.305.555-.398a1.09 1.09 0 0 1 .212-.126c-.06.06-.126.114-.195.161-.126.098-.314.237-.537.417a6.931 6.931 0 0 0-.75.69c-.141.133-.258.299-.341.487a.29.29 0 0 0 .03.276.28.28 0 0 0 .114.077.246.246 0 0 0 .13.01.7.7 0 0 0 .27-.125 5.193 5.193 0 0 0 .7-.584c.243-.241.466-.508.666-.797.141-.187.256-.4.341-.628.057-.145.06-.245.069-.245Z" fill="#263238"/><path d="M70.612 31.555a.752.752 0 0 1-.063.178 3.734 3.734 0 0 1-.229.452 4.462 4.462 0 0 1-.428.598c-.089.103-.188.2-.293.309a3.1 3.1 0 0 1-.171.15.29.29 0 0 1-.107.073.256.256 0 0 1-.124.016.15.15 0 0 1-.066-.037.184.184 0 0 1-.045-.067.308.308 0 0 1-.017-.151.412.412 0 0 1 .121-.23l.297-.294.513-.502c.15-.162.31-.31.478-.445a4.582 4.582 0 0 1-.437.498c-.145.156-.311.331-.492.52l-.29.305a.322.322 0 0 0-.094.172c0 .061.017.13.06.14.06 0 .117-.027.16-.075a4.67 4.67 0 0 0 .452-.442c.158-.178.304-.37.436-.576.222-.352.324-.592.34-.592ZM73.012 34.347c.014.024-.071.116-.187.2s-.224.137-.238.113c-.013-.023.072-.113.19-.199.118-.086.222-.133.235-.114ZM73.963 33.216c.018.016-.053.161-.171.307-.118.145-.248.227-.263.199-.015-.028.082-.14.2-.279.117-.14.213-.245.234-.227ZM75.01 31.758a1.113 1.113 0 0 1-.218.52.925.925 0 0 1-.374.379c.092-.156.194-.304.304-.443.087-.16.183-.312.288-.456ZM75.698 30.683c.02.012-.02.177-.118.352-.1.176-.217.283-.234.263-.017-.02.065-.153.159-.32.094-.168.169-.307.193-.295ZM67.242 39.147c0-.016.147.046.384.066.311.022.623-.026.919-.144.295-.12.58-.272.853-.45.112-.081.231-.148.355-.2a1.614 1.614 0 0 1-.323.264c-.27.2-.56.362-.862.484-.305.123-.63.164-.95.12a.755.755 0 0 1-.376-.14ZM77.757 26.726c.03.07.055.146.071.223.027.088.048.178.065.27.02.105.05.224.067.36.047.317.073.637.078.958.003.395-.023.789-.078 1.178-.06.388-.15.77-.267 1.14a6.668 6.668 0 0 1-.35.873c-.054.12-.116.22-.17.313-.042.08-.088.156-.139.229a1 1 0 0 1-.13.181c-.015-.012.17-.28.381-.76.126-.28.236-.571.328-.87.11-.366.196-.742.255-1.124.054-.383.083-.77.085-1.158-.001-.317-.02-.634-.06-.948-.063-.536-.152-.859-.136-.865ZM78.93 26.577c.04.081.071.167.095.257.035.102.064.206.087.313.037.14.067.281.09.424.032.174.055.35.069.526.022.2.023.399.03.598 0 .936-.18 1.86-.527 2.702-.077.183-.162.36-.255.532a4.378 4.378 0 0 1-.256.439 3.75 3.75 0 0 1-.237.336c-.06.085-.126.164-.196.237-.054.07-.115.132-.181.186-.014-.016.244-.283.565-.797.079-.132.17-.275.244-.439.073-.163.159-.34.24-.53.165-.416.293-.85.385-1.297.083-.448.129-.904.136-1.363 0-.211 0-.412-.022-.598a5.347 5.347 0 0 0-.058-.52c-.09-.635-.229-1.006-.21-1.006Z" fill="#263238"/><path d="M77.9 32.657c-.02.016-.118-.107-.218-.276-.101-.17-.171-.32-.145-.337.025-.018.117.107.218.277.1.17.166.319.145.336ZM78.064 32.107c-.014.022-.18-.098-.328-.315a.866.866 0 0 1-.193-.438c.022-.014.12.17.263.374.143.206.275.355.258.379ZM78.216 31.823a1.136 1.136 0 0 1-.394-.419 1.334 1.334 0 0 1-.248-.552c.117.153.223.316.318.488.118.151.227.312.324.483ZM78.367 31.425c-.012.024-.186-.088-.341-.305a.857.857 0 0 1-.186-.448c.024-.012.112.18.256.383.143.203.293.346.271.37ZM78.525 31.142a1.616 1.616 0 0 1-.297-.456 1.762 1.762 0 0 1-.224-.512c.223.283.4.611.52.968ZM78.628 30.415a1.817 1.817 0 0 1-.341-.455 1.822 1.822 0 0 1-.271-.514c.135.127.25.28.341.452.116.152.208.327.271.517ZM78.69 29.63c-.02.016-.171-.162-.326-.399a1.59 1.59 0 0 1-.255-.462c.02-.018.171.162.326.399.109.134.195.291.255.462ZM78.767 29.101a1.755 1.755 0 0 1-.341-.472 1.92 1.92 0 0 1-.27-.532c.136.134.251.294.342.472.114.16.205.339.27.532ZM78.745 28.199c-.02.014-.121-.134-.223-.331-.103-.197-.171-.37-.146-.385.026-.014.12.134.222.331.103.197.168.37.147.385ZM79.023 27.806c-.026 0-.086-.287-.258-.598-.172-.31-.377-.488-.362-.514.177.106.326.264.435.458.109.194.172.417.185.648v.006ZM65.402 26.076c.046.082.085.168.118.257l.3.714a8.05 8.05 0 0 0 1.255 2.134c.29.335.628.61.999.809.341.171.683.323.872.598a.866.866 0 0 1 .144.372.925.925 0 0 1-.033.407.44.44 0 0 1-.114.175c-.036.03-.055.042-.057.038a.621.621 0 0 0 .139-.23.892.892 0 0 0 .013-.377.828.828 0 0 0-.141-.34 1.188 1.188 0 0 0-.364-.312c-.149-.09-.318-.162-.493-.252a3.495 3.495 0 0 1-1.025-.819 7.582 7.582 0 0 1-1.25-2.177 18.966 18.966 0 0 1-.274-.73 1.85 1.85 0 0 1-.089-.267ZM62.353 34.26a1.531 1.531 0 0 1-.19-.199c-.12-.137-.288-.342-.49-.597a27.575 27.575 0 0 1-2.78-4.392c-.152-.303-.271-.55-.341-.724a1.809 1.809 0 0 1-.114-.273c.053.08.101.164.143.253l.372.706a35.613 35.613 0 0 0 2.774 4.382l.468.622c.058.069.11.143.158.223ZM77.151 32.93a.464.464 0 0 1-.029.095c-.022.06-.058.15-.109.26-.145.309-.317.6-.512.868a20.719 20.719 0 0 1-2.146 2.43 21.874 21.874 0 0 1-2.419 2.046c-.326.235-.594.414-.781.534l-.217.135a.273.273 0 0 1-.079.04.38.38 0 0 1 .07-.058l.209-.151c.182-.131.445-.32.764-.562a25.834 25.834 0 0 0 2.39-2.064 23.73 23.73 0 0 0 2.154-2.392c.2-.262.38-.543.538-.84.11-.22.16-.345.167-.341Z" fill="#263238"/><path d="M57.43 27.024c0 .122.104 11.815.104 11.815l8.618.422.284-.842-1.4-1.824L65 35.62a2.711 2.711 0 0 1-2.059-.309c-1.046-.63-2.126-1.843-2.126-1.843l-3.385-6.443ZM74 39.08c.11-.121 4.74-4.145 4.745-4.822-.006-.48-.046-.957-.12-1.429 0 0 1.484-4.258.996-5.805h1.116l.14 12.056H74Z" fill="#EBEBEB"/><path d="m72.758 30.384.261-3.786c-.212.409-.652 1.096-.864 1.505-1.853-2.87-2.164-3.597-3.673-6.05l-2.048.576 4.713 6.414-1.264.959 2.875.382Z" fill="#E0E0E0"/><path d="M72.757 30.386h-.047l-.15-.024-.561-.068-2.122-.267h-.079l.065-.052 1.26-.964v.06l-4.721-6.411-.046-.064.07-.02.791-.223 1.247-.36h.027l.019.027c.7 1.134 1.336 2.246 1.94 3.272.605 1.026 1.195 1.955 1.724 2.79h-.058c.304-.562.622-1.036.87-1.5l.066-.124-.012.144c-.087 1.195-.159 2.134-.208 2.79-.026.318-.045.567-.058.742 0 .08-.012.142-.017.2a.304.304 0 0 1 0 .062v-.07c0-.046 0-.114.01-.2l.044-.75c.041-.656.1-1.595.17-2.774l.056.02c-.246.472-.562.95-.854 1.506l-.027.052-.031-.048a85.346 85.346 0 0 1-1.734-2.778c-.61-1.024-1.246-2.134-1.946-3.266l.046.02-1.253.355-.792.223.024-.086 4.704 6.423.026.034-.033.025-1.264.953-.014-.06 2.103.301.568.086.149.024a.318.318 0 0 1 .048 0ZM81.058 40.943c0 .03-5.346.052-11.938.052-6.592 0-11.94-.022-11.94-.052s5.344-.052 11.94-.052c6.596 0 11.938.032 11.938.052ZM68.852 42.204c0 .028-2.629.051-5.869.051-3.24 0-5.87-.023-5.87-.051 0-.028 2.627-.052 5.87-.052 3.244 0 5.87.022 5.87.052ZM81.06 42.204c0 .028-2.39.051-5.345.051-2.955 0-5.348-.023-5.348-.051 0-.028 2.39-.052 5.348-.052 2.958 0 5.345.022 5.345.052ZM68.517 43.56c0 .03-2.56.052-5.7.052-3.142 0-5.704-.022-5.704-.052s2.552-.052 5.703-.052c3.151 0 5.701.024 5.701.052ZM110.821 40.943c0 .03-5.346.052-11.939.052-6.592 0-11.948-.022-11.948-.052s5.344-.052 11.948-.052c6.605 0 11.939.032 11.939.052ZM98.615 42.204c0 .028-2.628.051-5.87.051-3.241 0-5.87-.023-5.87-.051 0-.028 2.629-.052 5.87-.052 3.242 0 5.87.022 5.87.052ZM110.821 42.204c0 .028-2.389.051-5.346.051-2.956 0-5.346-.023-5.346-.051 0-.028 2.39-.052 5.346-.052 2.957 0 5.346.022 5.346.052ZM98.281 43.56c0 .03-2.56.052-5.703.052-3.143 0-5.703-.022-5.703-.052s2.56-.052 5.703-.052c3.142 0 5.703.024 5.703.052ZM58.68 24.148v1.184h-.105v-1.076h-.24v-.108h.346Z" fill="#263238"/><path d="M60.127 22.878a.375.375 0 0 1 0 .062v.199c0 .181 0 .428.01.737 0 .654.012 1.566.019 2.656v.042h-3.088l-.045-.052v-3.688h.038l2.219.022.615.012h.158a.234.234 0 0 1 .053 0h-.231l-.624.012-2.198.024.037-.046v3.645c.04.045-.055-.062-.044-.052h3.048l-.039.043.02-2.628c0-.313 0-.562.01-.745v-.2a.35.35 0 0 1 .042-.043ZM59.078 47.28c0 .199-.123.348-.369.348a.483.483 0 0 1-.365-.151l.051-.096c.085.092.198.14.314.136.17 0 .261-.09.261-.238 0-.147-.085-.235-.273-.235h-.073v-.09l.281-.41h-.512v-.11h.652v.088l-.309.42c.224.015.342.154.342.337Z" fill="#263238"/><path d="M60.127 45.172a.375.375 0 0 1 0 .061v.2c0 .18.003.425.01.735 0 .654.012 1.566.019 2.658v.044h-3.088l-.045-.054V45.128h.038l2.219.024.615.012h.158a.162.162 0 0 1 .053 0h-.231l-.624.011-2.198.022.037-.043v3.642c.04.048-.055-.062-.044-.05h3.048l-.039.046.02-2.628c0-.313 0-.564.01-.747v-.2a.353.353 0 0 1 .042-.045ZM88.313 47.307h-.203v.311h-.105v-.31h-.571v-.088l.537-.785h.115l-.512.765h.438v-.275h.103v.275h.203l-.005.107Z" fill="#263238"/><path d="M89.398 45.172v.261c0 .18.004.425.01.735 0 .654.01 1.566.02 2.658v.044H86.34l-.044-.054V45.128h.04l2.218.024.615.012h.158a.174.174 0 0 1 .053 0h-.231l-.624.011-2.198.022.037-.043v3.642c.04.048-.054-.062-.044-.05h3.048l-.039.046c.009-1.08.016-1.992.019-2.628 0-.313 0-.564.01-.747v-.2a.354.354 0 0 1 .04-.045ZM88.84 25.09v.11h-.712v-.088l.421-.48c.115-.132.137-.212.137-.293 0-.138-.082-.221-.237-.221a.297.297 0 0 0-.151.028.346.346 0 0 0-.126.103l-.078-.066a.452.452 0 0 1 .163-.132.39.39 0 0 1 .195-.037c.205 0 .342.122.342.319a.552.552 0 0 1-.05.208.473.473 0 0 1-.121.162l-.342.399.559-.012Z" fill="#263238"/><path d="M89.877 22.747a.255.255 0 0 1 0 .061v.2c0 .18 0 .428.01.737 0 .653.013 1.566.021 2.656v.046H86.822c0 .012-.085-.098-.046-.052v-3.692h.038l2.219.022.614.011h.16a.209.209 0 0 1 .052 0h-.23l-.624.012-2.176.04.04-.046v3.643c.04.046-.054-.062-.044-.052h3.047l-.039.044c0-1.078.016-1.98.02-2.628 0-.313 0-.562.01-.745v-.2a.35.35 0 0 1 .014-.057Z" fill="#263238"/><path d="M98.907 25.546c-.022-.014.359-.944.854-2.08.495-1.136.908-2.048.928-2.034.021.014-.358.944-.853 2.08-.495 1.136-.907 2.046-.929 2.034Z" fill="#7E57C2"/><path d="M100.08 24.894c-.106.094-.22.172-.342.233-.21.132-.502.307-.828.497a.085.085 0 0 1-.058.015.09.09 0 0 1-.054-.027.164.164 0 0 1-.036-.106V25.061c0-.173 0-.336.008-.488-.005-.15.005-.302.03-.45.03.15.047.305.049.46 0 .152 0 .315.01.489V25.508a.132.132 0 0 0 .009.038h.015c.326-.186.623-.353.84-.466.112-.078.232-.14.357-.186ZM106.782 21.675c0 .028-1.062.052-2.37.052-1.307 0-2.369-.024-2.369-.052 0-.028 1.06-.052 2.369-.052 1.309 0 2.37.022 2.37.052ZM106.918 22.428c0 .03-1.091.052-2.437.052-1.347 0-2.438-.022-2.438-.052s1.092-.052 2.438-.052c1.345 0 2.437.024 2.437.052ZM106.918 23.365c0 .03-1.091.052-2.437.052-1.347 0-2.438-.022-2.438-.052s1.092-.051 2.438-.051c1.345 0 2.437.023 2.437.051Z" fill="#7E57C2"/><path d="M64.476 20.105c0 .03-1.58.052-3.53.052-1.95 0-3.532-.022-3.532-.052s1.58-.052 3.532-.052c1.95 0 3.53.024 3.53.052Z" fill="#263238"/><path d="M80.365 45.902c0 .03-1.066.114-2.39.2-1.322.085-2.39.115-2.39.085s1.068-.113 2.39-.199c1.324-.086 2.389-.123 2.39-.086ZM78.3 46.761a4.173 4.173 0 0 1-.931.14c-.312.048-.626.06-.94.036.307-.08.62-.126.933-.14.311-.045.625-.057.939-.036ZM85.306 48.005c-.012.014-.17-.223-.5-.518a3.288 3.288 0 0 0-1.447-.784 3.002 3.002 0 0 0-1.593.05c-.4.12-.629.262-.637.244a.722.722 0 0 1 .157-.106 2.64 2.64 0 0 1 .464-.2 2.887 2.887 0 0 1 1.63-.086 3.173 3.173 0 0 1 1.472.824c.127.121.245.255.353.399a.692.692 0 0 1 .1.177Z" fill="#7E57C2"/><path d="M85.265 46.871c.06.134.105.276.135.423l.124.464c.03.095.05.193.058.293a.254.254 0 0 1-.013.096.225.225 0 0 1-.046.08.204.204 0 0 1-.074.047.182.182 0 0 1-.083.01 1.093 1.093 0 0 1-.267-.08l-.233-.085-.398-.154a1.612 1.612 0 0 1-.359-.167c.129.014.256.046.378.096l.403.133.235.082c.08.032.162.057.246.072a.088.088 0 0 0 .048-.001.1.1 0 0 0 .043-.027.122.122 0 0 0 .027-.046.137.137 0 0 0 .006-.056 1.395 1.395 0 0 0-.05-.265l-.105-.472a2.153 2.153 0 0 1-.075-.443ZM75.788 47.865s-.042 0-.114-.014a1.082 1.082 0 0 1-.294-.13 1.589 1.589 0 0 1-.674-.895 1.9 1.9 0 0 1 .022-1.191c.04-.113.09-.22.152-.319.046-.068.075-.1.08-.096-.063.144-.12.29-.17.44-.111.366-.11.765.005 1.129.114.363.333.67.62.865.22.157.377.193.373.21ZM81.195 47.529c-.015 0 .03-.175.044-.458a2.89 2.89 0 0 0-.164-1.076 2.879 2.879 0 0 0-.257-.524 2.321 2.321 0 0 0-.289-.363c-.184-.187-.32-.267-.314-.283.007-.016.04 0 .102.042.09.05.174.112.251.183.117.106.222.227.314.36.112.167.204.35.275.543a2.469 2.469 0 0 1 .142 1.124c-.01.114-.03.227-.063.336-.019.086-.034.118-.041.116ZM100.601 46.824c0 .028-1.555.052-3.47.052-1.916 0-3.47-.024-3.47-.052 0-.028 1.552-.052 3.47-.052 1.916 0 3.47.022 3.47.052ZM101.191 47.687c0 .03-1.556.051-3.47.051-1.916 0-3.471-.021-3.471-.051 0-.03 1.553-.052 3.47-.052 1.917 0 3.471.024 3.471.052ZM92.12 47.518a1.973 1.973 0 0 1-.171-.562 1.953 1.953 0 0 1-.086-.585c.143.362.229.75.255 1.147h.001Z" fill="#7E57C2"/><path d="M92.675 46.651a2.514 2.514 0 0 1-.625.337c-.21.11-.43.191-.656.239.197-.14.408-.25.629-.327.207-.115.426-.199.652-.249Z" fill="#7E57C2"/><path d="M91.55 47.64c.2-.388.449-.737.74-1.035a2.246 2.246 0 0 1-.342.55 2.141 2.141 0 0 1-.397.484Z" fill="#7E57C2"/><path d="M92.876 47.631a4.2 4.2 0 0 1-.76-.476 4.12 4.12 0 0 1-.714-.564c.266.129.52.288.76.476.254.158.493.347.713.564Z" fill="#7E57C2"/><path d="M71.408 20.07c0 .028-1.226.052-2.731.052-1.506 0-2.732-.024-2.732-.052 0-.028 1.226-.052 2.732-.052 1.505 0 2.73.022 2.73.052Z" fill="#263238"/><path d="M84.599 22.442a2.35 2.35 0 0 0 .234-1.26 2.237 2.237 0 0 0-.451-1.175l-2.038-.697c-.48.532-.888 1.22-.915 1.992-.023.446.082.888.3 1.255.218.367.535.639.9.77.366.132.759.117 1.116-.044.357-.16.658-.455.854-.839v-.002Z" fill="#000" opacity=".1"/><path d="M85.261 20.951c.169-1.123-.474-2.192-1.436-2.389-.963-.197-1.879.554-2.047 1.677-.169 1.123.474 2.193 1.437 2.39.962.197 1.878-.555 2.046-1.678Z" fill="#7E57C2"/><path d="M82.515 17.494a1.232 1.232 0 0 0-.378.568c-.075.228-.09.478-.044.716.046.24.151.457.303.626.152.168.344.28.55.323.207.042.42.011.612-.088.191-.099.354-.262.466-.469.113-.206.17-.447.166-.692a1.384 1.384 0 0 0-.192-.683 1.155 1.155 0 0 0-.3-.336.977.977 0 0 0-.388-.175.913.913 0 0 0-.416.013.995.995 0 0 0-.38.197Z" fill="#7E57C2"/><path d="M82.207 19.083c.074.133.159.257.254.369.119.124.26.215.414.265.154.05.316.056.472.02.155-.047.299-.132.422-.25a1.27 1.27 0 0 0 .293-.434c.049-.145.084-.295.106-.448 0 0 .014.046.01.131a1.296 1.296 0 0 1-.37.831c-.13.132-.285.225-.452.273a.883.883 0 0 1-.51-.025 1.011 1.011 0 0 1-.438-.31 1.017 1.017 0 0 1-.17-.294.367.367 0 0 1-.031-.128Z" fill="#263238"/><path d="M84.112 18.914c.063.233.166.45.302.635.16.16.345.28.545.353 0 .014-.075.024-.195 0a.846.846 0 0 1-.413-.271 1.088 1.088 0 0 1-.232-.48c-.027-.148-.017-.235-.007-.237ZM81.981 20.851c-.008-.014.058-.08.142-.2.11-.163.187-.355.222-.56a1.537 1.537 0 0 0-.02-.617 1.701 1.701 0 0 1-.064-.255c.009 0 .07.074.123.233.069.21.085.44.047.66-.037.22-.128.424-.26.588-.101.113-.183.161-.19.151Z" fill="#263238"/><path d="m12.938 89.247 15.186 7.733 32.921-2.234-14.311-7.185-33.797 1.686Z" fill="#fff"/><path d="m12.938 89.25 33.797-1.735h.02l14.312 7.173.17.088-.187.012h-.066L28.126 97.02l-15.173-7.772 15.2 7.696h-.015l32.854-2.242h.067l-.016.1-14.325-7.194h.017L12.939 89.25Z" fill="#263238"/><path d="m24.477 93.59 8.033-.443h.008l4.394 1.978.193.086-.207.014h-.043l-8.35.538-4.013-2.168 4.032 2.09h-.016l8.342-.56h.043l-.014.102-4.383-1.977h.017l-8.036.34ZM33.665 93.07l8.526-.598h.009l4.78 2.144.197.088-.212.012-8.918.456h-.016l-4.375-2.104 4.4 2.03h-.013l8.917-.482-.013.1-4.78-2.152h.017l-8.52.506ZM43.832 92.438l8.526-.598h.017l4.78 2.146.2.088-.214.012-8.919.456h-.013l-4.375-2.104 4.4 2.03h-.013l8.917-.482-.014.1-4.78-2.153h.018l-8.53.505ZM18.297 90.61l8.033-.443h.008l4.403 1.969.193.086-.207.014h-.043l-8.352.538h-.008l-4.012-2.168 4.039 2.096h-.015l8.335-.566h.042l-.013.1-4.384-1.975h.017l-8.036.349ZM27.484 90.087l8.535-.598h.009l4.78 2.146.197.09-.211.012-8.92.456h-.013l-4.375-2.104 4.399 2.028h-.015l8.918-.482-.015.1-4.78-2.154h.018l-8.527.506ZM37.656 89.458l8.525-.597h.017l4.78 2.146.197.09-.211.011-8.92.457h-.013l-4.375-2.107 4.4 2.03h-.014l8.917-.481-.014.1-4.78-2.153h.018l-8.527.504Z" fill="#263238"/><path d="m28.683 95.002-.156-1.385 32.257-2.15v1.385l-32.101 2.15Z" fill="#E0E0E0"/><path d="m19.16 89.011 9.37 4.607 32.09-2.178-8.515-4.07L19.16 89.01Z" fill="#fff"/><path d="m19.16 89.01 32.945-1.694H52.123l8.517 4.07.18.088-.194.012h-.065L28.525 93.65l-9.36-4.637c.202.1 3.498 1.708 9.389 4.584h-.03l32.027-2.192h.065l-.016.1-8.51-4.092h.016L19.16 89.01Z" fill="#263238"/><path d="m19.16 90.153 9.525 4.848-.155-1.384-5.509-2.707-3.86-1.9v1.143Z" fill="#E0E0E0"/><path d="m24.973 90.308 7.83-.432h.008l4.276 1.919.193.088-.207.012h-.04l-8.141.524h-.009l-3.909-2.115 3.938 2.043h-.017l8.14-.55h.042l-.014.102-4.267-1.927h.017l-7.84.336ZM33.928 89.801l8.309-.585h.01l4.655 2.092.198.09h-.213l-8.694.446-4.267-2.05 4.29 1.978h-.014l8.692-.472-.014.102-4.655-2.099h.017l-8.314.498ZM43.839 89.19l8.311-.585h.009l4.656 2.092.198.09h-.211l-8.694.446H48.1l-4.268-2.05 4.29 1.978h-.014l8.692-.47-.014.102-4.653-2.099h.017l-8.311.497Z" fill="#263238"/><path d="M53.6 89.942c-.088.02-.176.03-.265.032l-.72.056c-.608.046-1.448.11-2.376.2-.929.089-1.765.173-2.373.236l-.719.076a1.542 1.542 0 0 1-.264.016 1.13 1.13 0 0 1 .261-.056c.17-.03.413-.066.715-.107a52.058 52.058 0 0 1 2.373-.27c.927-.083 1.77-.137 2.38-.163.305-.014.552-.022.723-.024.088-.008.177-.007.265.004ZM52.774 90.574a1.147 1.147 0 0 1-.285-.086 1.907 1.907 0 0 0-.683-.113c-.23.01-.453.1-.642.255-.141.121-.201.237-.213.227-.012-.01.032-.138.17-.285.193-.187.434-.292.684-.301.242-.007.484.043.71.147a.774.774 0 0 1 .26.156ZM50.494 88.69a.659.659 0 0 1-.017.297 1.712 1.712 0 0 1-.273.644c-.13.189-.294.341-.482.446a.45.45 0 0 1-.245.082c.257-.134.485-.336.663-.591.178-.255.301-.556.36-.878h-.006ZM28.745 95.08a2.196 2.196 0 0 1-.154-.702 2.322 2.322 0 0 1-.015-.724c.08.471.138.947.17 1.425h-.001Z" fill="#263238"/><path d="M19.16 89.429s.062.026.17.083l.513.26 1.92.996 6.852 3.587H28.6c1.58-.016 3.311-.126 5.146-.226s3.776-.233 5.782-.37c5.872-.399 11.186-.797 15.033-1.082l4.554-.341 1.24-.088.322-.02h.11s-.038 0-.11.014l-.323.032-1.235.108-4.555.368c-3.845.303-9.157.714-15.031 1.112-2.006.138-3.947.26-5.783.367-1.837.108-3.564.2-5.15.213h-.009l-6.84-3.618-1.912-1.019-.501-.273-.178-.103ZM44.969 88.616l-.746-.454.365-.385.38.84Z" fill="#263238"/><path d="m43.21 87.619.875-.907.512 1.104-.374.349-1.012-.546Z" fill="#fff"/><path d="m28.521 56.769 4.98-1.937 2.771-2.736.601 1.108 2.327-.622 6.584 1.997 1.063 2.192 5.62 1.795.025 9.202-1.02 16.837.15 2.676H24.73l-.444-11.183-.02-6.957L28.52 56.77Z" fill="#7E57C2"/><path d="m42.742 82.483 5.803-.327s1.127.75 1.419 2.897c.292 2.148 0 2.15 0 2.15l-2.922 1.15-6.202-.167-2.246-3.296 1.695-1.168 2.453-1.24Z" fill="#FFBF9D"/><path d="M22.662 80s5.568-10.25 4.63-8.767c-.116.181.566-.588 1.443-3.103.843-2.413 3.038-12.554 3.038-12.554l-5.017 1.554c-1.319.409-2.39.542-3.53 1.423-.99.767-2.022 2.276-2.695 3.42-2.504 4.264-7.089 12.57-7.667 13.632-.828 1.516-2.356 5.733-2.482 7.761-.127 2.029.353 3.844 3.012 5.466 2.455 1.495 18.137.452 18.137.452l-.085-7.61L22.66 80ZM68.009 78.049c-.23-.67-9-11.988-13.402-17.227a19.811 19.811 0 0 0-2.14-2.256L51.017 69.6s.499 2.542.803 4.425c.065.399 4.619 4.024 4.619 4.024l.975.729-8.902 2.746.372 6.602 15.936-.489c2.07-.924 5.365-3.256 3.189-9.588Z" fill="#7E57C2"/><path d="M64.82 87.634h-.08l-.236.012-.914.038-3.38.12-11.325.364h-.05v-.05l-.109-1.937c-.09-1.612-.17-3.188-.261-4.665v-.043l.036-.01c.954-.23 1.865-.516 2.74-.797l2.497-.81c1.582-.512 2.992-.944 4.178-1.243.926-.25 1.864-.429 2.81-.534.333-.042.59-.042.763-.046h.265-.067l-.196.012c-.171.01-.43.014-.762.062-.942.12-1.878.308-2.8.562-1.184.309-2.59.75-4.17 1.267l-2.496.84c-.873.278-1.786.567-2.743.796l.035-.054c.084 1.487.171 3.055.263 4.665l.11 1.94-.047-.05 11.328-.323 3.38-.088.913-.018h.237a.619.619 0 0 1 .08-.01Z" fill="#263238"/><path d="M43.895 85.224A.589.589 0 0 0 43.74 85l-.944-.98-.546 1.9c.115.103.247.178.387.222.14.043.286.054.43.03a1 1 0 0 0 .407-.163c.125-.085.235-.199.323-.334a.525.525 0 0 0 .098-.212.576.576 0 0 0 0-.24Z" fill="#FF9A6C"/><path d="m31.227 74.617 11.986 13 1.132.628.626.373-.292-.63-.592-1.277L31.95 73.7a.494.494 0 0 0-.362-.167.494.494 0 0 0-.363.166.635.635 0 0 0-.126.21.716.716 0 0 0 0 .499c.03.079.074.15.128.208Z" fill="#455A64"/><path d="m31.45 81.927.938.199s4.87-2.099 5.565-2.204c.537-.082 3.098.62 4.235.944.223.06.422.209.562.42a1.294 1.294 0 0 1 .21.766 1.29 1.29 0 0 1-.191.603c-.111.176-.262.313-.436.393 0 0 .956.347.522 1.527-.319.873-1.33.737-1.33.737l-1.683.038s.429.151 1.078.329c.692.189.879.337.879.337s1.024 1.14.035 1.615c-.32.171-.673.244-1.024.212 0 0 .294 1.227-.493 1.438-.787.212-5.974-.249-5.974-.249s-.275-.181-1.334-.287l-1.466-.12-.094-6.698Z" fill="#FFBF9D"/><path d="M31.45 81.924V82.392c0 .307.015.753.025 1.33l.079 4.893-.03-.036 1.346.106c.235.018.478.048.724.09.255.033.505.103.745.209h-.015c1.086.092 2.265.181 3.518.247.625.03 1.27.06 1.93.046.163-.002.326-.016.487-.044a.616.616 0 0 0 .398-.273c.093-.155.143-.34.145-.528a2.27 2.27 0 0 0-.05-.58l-.015-.072h.065c.219.02.439-.004.65-.072.218-.052.424-.16.601-.316a.62.62 0 0 0 .147-.329.668.668 0 0 0-.053-.365 2.134 2.134 0 0 0-.39-.66 3.475 3.475 0 0 0-.81-.312l-1.137-.345-.31-.094h.322l1.685-.036c.23.023.463-.007.683-.09.216-.076.402-.236.529-.454.03-.054.056-.11.079-.169l.056-.183c.017-.062.026-.126.038-.19.011-.063.01-.127.013-.189a1.02 1.02 0 0 0-.073-.363.898.898 0 0 0-.193-.296 1.028 1.028 0 0 0-.273-.2l-.036-.018h-.019c0 .082-.008-.113 0-.095.024-.014.048-.024.072-.04a.767.767 0 0 0 .135-.098c.173-.146.299-.357.356-.597a1.23 1.23 0 0 0-.04-.708 1.101 1.101 0 0 0-.4-.522 1.908 1.908 0 0 0-.58-.215l-.594-.166c-.393-.107-.777-.209-1.153-.305a31.402 31.402 0 0 0-1.1-.256c-.18-.036-.357-.07-.533-.098a2.28 2.28 0 0 0-.512-.038c-.325.08-.646.182-.96.307-.307.113-.602.226-.886.34l-1.556.628-2.175.905-.703-.17-.17-.04-.059-.013h.053l.17.032.716.14a159.503 159.503 0 0 1 3.723-1.57c.283-.113.578-.23.886-.344.317-.13.64-.235.97-.315.177-.009.355.003.53.036.17.026.355.06.536.096.36.074.729.161 1.105.255.375.094.76.2 1.153.299l.596.163.3.086c.106.03.208.076.303.14.192.13.344.328.433.565.09.244.107.516.046.771-.063.26-.199.486-.385.644a.981.981 0 0 1-.226.15v-.09h.012l.02.01.04.018c.107.055.207.128.295.217.088.093.16.203.214.327a1.138 1.138 0 0 1 .068.598c-.012.067-.022.135-.04.199l-.06.2a1.115 1.115 0 0 1-.66.68c-.23.086-.474.119-.717.094l-1.684.038.012-.102 1.131.343c.29.07.571.181.838.329.175.198.314.435.41.695.052.133.072.28.058.425a.635.635 0 0 1-.17.383 1.477 1.477 0 0 1-.642.34c-.223.071-.454.096-.683.074l.048-.064c.044.2.061.406.053.612a1.17 1.17 0 0 1-.171.584.698.698 0 0 1-.45.309 3.098 3.098 0 0 1-.503.046 26.657 26.657 0 0 1-1.934-.05 103.308 103.308 0 0 1-3.52-.257h-.01a2.777 2.777 0 0 0-.72-.2 8.44 8.44 0 0 0-.719-.091l-1.345-.112h-.029v-.032c-.019-2.084-.032-3.76-.042-4.92 0-.572 0-1.016-.01-1.32v-.342c-.004-.047-.002-.083-.002-.083Z" fill="#FF9A6C"/><path d="M42.25 83.04a8.999 8.999 0 0 1-1.336-.091 8.607 8.607 0 0 1-1.328-.2c.447-.004.893.027 1.337.092.445.032.89.098 1.328.2ZM36.995 88.616c0 .012-.077-.02-.16-.12a.832.832 0 0 1-.178-.496.848.848 0 0 1 .147-.51c.076-.108.145-.144.152-.134.006.01-.045.068-.101.178a.9.9 0 0 0-.11.462.884.884 0 0 0 .139.452c.063.1.118.156.11.168ZM36.913 86.556c0 .012-.09 0-.207-.088a.702.702 0 0 1-.189-.23.854.854 0 0 1-.058-.619.768.768 0 0 1 .141-.273c.098-.12.183-.15.186-.137.004.012-.063.066-.138.183a.897.897 0 0 0-.13.532.828.828 0 0 0 .226.486c.095.1.174.134.169.146ZM36.888 84.166s-.09-.047-.17-.199a1.063 1.063 0 0 1-.12-.673.969.969 0 0 1 .307-.586c.123-.106.218-.128.222-.116.003.012-.079.06-.181.174a1.009 1.009 0 0 0-.258.548c-.031.211 0 .429.087.617.053.148.113.224.113.236ZM37.502 81.091s-.046-.024-.078-.103a.59.59 0 0 1-.017-.334.518.518 0 0 1 .164-.274c.063-.048.11-.052.114-.04.003.012-.143.12-.195.345-.019.135-.015.273.012.406ZM39.97 85.305c-.24.047-.484.06-.727.037a2.664 2.664 0 0 1-.724-.067c.24-.047.484-.059.726-.036.243-.012.487.01.726.066ZM40.76 87.833a8.69 8.69 0 0 1-1.312-.281 8.985 8.985 0 0 1-1.296-.375c.443.057.882.148 1.315.273.438.095.87.222 1.294.383Z" fill="#FF9A6C"/><path d="M27.806 69.374a.665.665 0 0 1 .029-.13c.02-.084.063-.2.097-.365.11-.451.19-.911.24-1.377.078-.688.104-1.384.078-2.078a11.27 11.27 0 0 0-.37-2.503 7.34 7.34 0 0 0-1.04-2.216 5.763 5.763 0 0 0-1.332-1.365 5.39 5.39 0 0 0-1.082-.597c-.133-.062-.24-.092-.31-.122a.44.44 0 0 1-.108-.048.455.455 0 0 1 .113.028c.071.024.18.048.315.104.386.143.757.337 1.105.58.518.361.98.823 1.365 1.365.47.665.83 1.426 1.062 2.245.219.82.342 1.672.367 2.531.024.7-.009 1.4-.097 2.092a9.526 9.526 0 0 1-.27 1.38c-.04.159-.087.276-.113.36a.571.571 0 0 1-.05.116ZM52.465 67.472a.726.726 0 0 1 0 .134c0 .097 0 .223-.013.38l-.067 1.395c-.066 1.196-.155 2.822-.256 4.621-.1 1.8-.208 3.428-.28 4.621l-.095 1.395a33.6 33.6 0 0 1-.031.38.592.592 0 0 1-.017.132.875.875 0 0 1 0-.133c0-.098.008-.226.013-.38l.067-1.396.254-4.62c.1-1.8.209-3.428.282-4.62l.095-1.395.031-.38a.903.903 0 0 1 .017-.134ZM42.069 65.388a.424.424 0 0 1-.058-.056l-.17-.173-.607-.674-.934-1.058c-.354-.412-.762-.873-1.18-1.409l.064-.02-.657 3.332-.026.126-.054-.112c-.25-.5-.512-1.02-.762-1.556-1.157-2.417-2.154-4.635-2.901-6.225l-.888-1.882-.242-.51-.062-.133a.022.022 0 0 1-.013-.01.03.03 0 0 1 .002-.035.02.02 0 0 1 .015-.006.02.02 0 0 1 .015.006c.004.005.007.01.008.017a.03.03 0 0 1-.005.018.022.022 0 0 1-.013.01l.068.13.258.5c.22.438.532 1.074.911 1.865.761 1.582 1.767 3.796 2.923 6.209.256.536.512 1.058.76 1.556l-.081.014c.242-1.195.468-2.327.67-3.328l.016-.081.048.063c.413.535.818.997 1.17 1.417l.92 1.072.59.69.155.183a.341.341 0 0 1 .06.06ZM42.406 65.133a2.27 2.27 0 0 1 .137-.221l.384-.614c.328-.53.785-1.288 1.318-2.192l.029-.05.034.046c.237.311.504.589.797.827.304.253.642.49.975.761l-.07.03c0-.022.01-.048.015-.072.357-1.724.674-3.282.818-4.43.076-.572.123-1.038.148-1.36.014-.154.024-.278.03-.373a.74.74 0 0 1 .018-.13.704.704 0 0 1 0 .132c0 .085 0 .211-.014.372-.017.325-.053.797-.12 1.37-.13 1.155-.438 2.721-.795 4.443l-.015.072-.015.074-.053-.042c-.33-.27-.666-.507-.975-.766a4.816 4.816 0 0 1-.806-.846h.063c-.539.9-1.007 1.651-1.345 2.172-.17.26-.307.462-.404.597-.048.07-.087.12-.113.154-.025.034-.039.048-.04.046ZM41.885 80.444a1.572 1.572 0 0 1 0-.153v-.439c0-.398.017-.94.029-1.614l.085-5.32c.034-2.075.034-3.95.046-5.323 0-.671 0-1.22.01-1.612v-.438c0-.052.002-.103.009-.154.008.051.011.102.01.154 0 .11 0 .255.009.438 0 .399.01.94.017 1.614.008 1.361 0 3.244-.019 5.323-.019 2.078-.07 3.96-.11 5.32l-.059 1.612-.02.439a.856.856 0 0 1-.007.153ZM31.532 89.299c-.005-.05-.008-.1-.008-.15 0-.106 0-.249-.012-.43-.009-.385-.02-.929-.033-1.594l-.077-5.429.04.05-1.332-.259-5.486-1.088-1.663-.34-.45-.098-.116-.028-.04-.014h.041l.118.018.454.078 1.665.308 5.49 1.057 1.329.26h.037v.043c.017 2.157.035 4.059.046 5.427v2.025a.92.92 0 0 1-.003.163Z" fill="#263238"/><path d="M22.662 80.006c0 .02-.298.043-.766.173a5.556 5.556 0 0 0-.806.297c-.32.15-.628.33-.923.538-.293.214-.57.453-.832.717a6.67 6.67 0 0 0-.592.702c-.312.428-.466.731-.481.72.026-.077.06-.15.1-.218a2.91 2.91 0 0 1 .135-.241c.058-.092.118-.2.198-.307a5.893 5.893 0 0 1 1.426-1.46c.3-.212.614-.393.94-.54.267-.119.542-.212.821-.28.118-.034.227-.047.323-.066a1.98 1.98 0 0 1 .246-.03.716.716 0 0 1 .211-.005ZM27.293 71.237a.716.716 0 0 1-.039.093l-.128.261-.48.947a443.741 443.741 0 0 1-3.274 6.199l-.512.93-.141.252a.353.353 0 0 1-.055.083.562.562 0 0 1 .04-.095l.127-.261.485-.947a444.614 444.614 0 0 1 3.274-6.2l.512-.93c.056-.1.103-.183.142-.249.04-.066.046-.085.05-.083Z" fill="#263238"/><path d="M24.413 79.236c1.9-1.887 3.053-5.157 2.845-8.058l-2.938 5.753.093 2.305ZM34.73 57.35l3.57 9.432 1.283-2.812 1.96.821-2.386-2.804-.664 3.33-3.763-7.967ZM57.281 78.782c1.525-.938 2.958-1.664 4.674-1.482.236.014.469.069.691.161.08.068.145.155.193.255.047.1.076.21.084.325-1.85-.081-3.7.16-5.49.713M52.542 66.292c0 .154-.448 7.923-.456 8.077 1.127-2.557 1.492-5.462.456-8.077Z" fill="#000" opacity=".3"/><path d="M45.138 58.042c.092-1.395.17-2.575.19-2.718 0 0 4.096-.078 4.699-4.749.292-2.256.57-6.962.778-11.223.108-2.205-.5-4.378-1.702-6.084-1.202-1.707-2.91-2.824-4.784-3.128l-.386-.062c-4.202-.398-6.828 3.56-7.053 8.473l-.778 15.209 6.071 10.21h.497l2.468-5.928Z" fill="#FFBF9D"/><path d="M45.327 55.326s-2.546-.235-5.003-2.644c0 0 .867 3.623 4.915 3.848l.088-1.204Z" fill="#FF9A6C"/><path d="M43.82 40.757c-.086.09-.526-.383-1.195-.455-.67-.071-1.195.277-1.263.17-.033-.048.06-.215.29-.379.31-.21.668-.3 1.024-.255.352.037.683.207.944.484.184.206.24.405.2.435ZM43.375 42.81a.669.669 0 0 1-.202.418.493.493 0 0 1-.395.134.454.454 0 0 1-.202-.058.531.531 0 0 1-.166-.148.633.633 0 0 1-.101-.212.671.671 0 0 1 .181-.66.495.495 0 0 1 .394-.135c.07.005.138.026.2.062a.546.546 0 0 1 .164.148c.046.062.08.133.103.21.022.078.03.16.024.241ZM45.203 46.358c0-.042.394-.056 1.024-.048.16 0 .313 0 .354-.127a1.108 1.108 0 0 0-.04-.562c-.095-.466-.194-.959-.3-1.473-.41-2.094-.683-3.806-.61-3.824.074-.018.463 1.664.873 3.759.097.516.191 1.008.278 1.478.036.217.11.47 0 .733a.447.447 0 0 1-.123.153.369.369 0 0 1-.167.075 1.04 1.04 0 0 1-.273 0c-.627-.062-1.018-.122-1.016-.164ZM43.654 38.205c-.075.17-.607 0-1.256-.014s-1.195.116-1.253-.058c-.029-.081.08-.235.31-.374.3-.167.629-.249.96-.24.333.01.658.11.951.294.22.151.32.31.288.392ZM49.94 39.225c-.079.137-.596-.062-1.23-.132-.636-.07-1.172-.016-1.23-.17-.025-.073.086-.2.314-.29.307-.116.632-.153.953-.11.325.037.64.153.923.341.212.15.306.295.27.361Z" fill="#263238"/><path d="M36.79 42.072c-.065-.046-2.641-1.395-2.933 1.815-.292 3.21 2.53 2.893 2.544 2.802.013-.092.389-4.617.389-4.617Z" fill="#FFBF9D"/><path d="M35.671 45.363c-.012-.012-.053.034-.136.066a.412.412 0 0 1-.36-.036c-.279-.16-.475-.73-.436-1.31.018-.276.089-.544.207-.784a.65.65 0 0 1 .162-.25.525.525 0 0 1 .242-.133.216.216 0 0 1 .164.037c.05.034.087.087.106.15.03.096 0 .158.019.166.019.008.065-.048.055-.183a.358.358 0 0 0-.21-.3.315.315 0 0 0-.139-.03.625.625 0 0 0-.321.136.773.773 0 0 0-.225.301 2.158 2.158 0 0 0-.247.875c-.041.65.187 1.29.573 1.473a.447.447 0 0 0 .446-.03c.088-.07.109-.142.1-.148Z" fill="#FF9A6C"/><path d="M44.43 48.54c.036-.08-.495-.312-.841-.931a3.962 3.962 0 0 1-.341-.871c-.067-.24-.12-.399-.15-.383-.032.016-.032.168 0 .425.039.345.142.676.301.97.168.294.4.53.671.684.21.115.352.131.36.105ZM33.413 36.578c.637-1.093.854-2.438 1.231-3.683.378-1.245 1.064-2.51 2.153-2.871l.024.014c.98-.377 2.159-.295 2.901.54.287-1.66 1.619-2.89 3.042-3.213 1.424-.322 3.653.104 4.96.835 1.011.568 1.959 1.642 3.097 3.203.481.656.915 1.358 1.297 2.098l.973 4.48-1.17 2.221c-.07.156-.148.306-.231.453l-1.21 4.782c.013-1.327.351-5.92.367-7.247a5.69 5.69 0 0 1-2.426-.863 6.687 6.687 0 0 1-1.94-1.905c-.576-.847-1.006-1.885-1.807-2.427-1.032-.696-2.33-.345-3.478.026l.05-.046a4.998 4.998 0 0 0-1.631 1.195 21.172 21.172 0 0 1-1.111 7.706c-.127.367-.458 1.118-.78 1.236-.635.233-.762-.517-1.113-.937-.258-.309-.664-.377-1.108-.409-.219-.822-.411-2.191-.572-3.4a2.179 2.179 0 0 1-1.164 0c.139-.322.276-.645.411-.968-.155.117-.33.194-.512.226a.397.397 0 0 1-.265-.055.496.496 0 0 1-.192-.22c-.087-.27.07-.544.204-.771Z" fill="#263238"/><path d="M40.958 31.216a3.515 3.515 0 0 0-.429.398 3.59 3.59 0 0 0-.703 1.513 6.832 6.832 0 0 0-.17 1.185c-.028.433-.023.899-.021 1.395.009.515-.01 1.03-.056 1.542-.029.27-.075.536-.137.797-.05.285-.164.55-.328.768a.589.589 0 0 1-.27.18.52.52 0 0 1-.31-.001.907.907 0 0 1-.492-.375c-.239-.372-.278-.825-.32-1.223l.083.018a4.037 4.037 0 0 1-.544.946 1.14 1.14 0 0 1-.811.439.692.692 0 0 1-.41-.116.755.755 0 0 1-.264-.347.916.916 0 0 1-.062-.422.61.61 0 0 1 .15-.355l.04.048a2.602 2.602 0 0 1-.907.692 2.11 2.11 0 0 1-.275.1.444.444 0 0 1-.097.021.372.372 0 0 1 .094-.038c.061-.026.152-.06.266-.117.33-.165.628-.405.878-.706l.04.048a.682.682 0 0 0-.067.695.686.686 0 0 0 .24.307.622.622 0 0 0 .372.1c.288-.021.557-.171.753-.418.212-.278.39-.59.526-.927l.066-.145.017.163c.043.398.087.835.306 1.17a.824.824 0 0 0 .44.336.442.442 0 0 0 .264 0 .501.501 0 0 0 .23-.153c.15-.206.255-.452.303-.717.062-.262.107-.528.133-.798.047-.507.068-1.017.062-1.528 0-.49 0-.958.029-1.395.025-.405.087-.805.183-1.195a3.518 3.518 0 0 1 .742-1.523c.133-.15.287-.272.456-.362ZM53.15 36.727l-.034.03-.105.077a2.279 2.279 0 0 1-.423.247 3.127 3.127 0 0 1-1.744.231c-.875-.135-1.699-.563-2.37-1.231a9.236 9.236 0 0 1-1.931-2.965c-.261-.598-.466-1.196-.7-1.752a6.447 6.447 0 0 0-.82-1.498c-.3-.407-.683-.72-1.114-.909-.195-.08-.4-.124-.606-.13a1.88 1.88 0 0 0-.567.084c-.566.178-1.054.6-1.365 1.18-.104.218-.187.45-.248.69a.154.154 0 0 1 0-.05c0-.038.016-.086.027-.144.042-.18.103-.355.181-.518.307-.603.801-1.044 1.38-1.231.19-.062.386-.093.583-.094.216.003.43.046.634.127.444.192.84.51 1.152.927.34.457.623.97.838 1.52.236.562.442 1.162.702 1.748a9.233 9.233 0 0 0 1.901 2.937c.658.661 1.464 1.089 2.323 1.232.58.096 1.17.028 1.72-.2.2-.09.396-.193.586-.308Z" fill="#455A64"/><path d="M49.947 41.525c-.085.09-.524-.383-1.195-.454-.67-.072-1.195.275-1.261.167-.033-.048.06-.215.29-.379.31-.208.668-.297 1.024-.255.351.039.682.209.944.485.184.209.24.392.198.436ZM48.954 43.483a.671.671 0 0 1-.203.419.495.495 0 0 1-.394.135.466.466 0 0 1-.2-.061.545.545 0 0 1-.165-.148.644.644 0 0 1-.102-.21.705.705 0 0 1-.025-.24.67.67 0 0 1 .202-.42.493.493 0 0 1 .395-.134c.07.005.138.026.2.062a.543.543 0 0 1 .165.147c.046.061.08.133.102.21.022.078.03.16.025.24ZM51.809 32.938c.307.558.802 1.086 1.365 1.066.208-.033.413-.083.614-.152.188.158.09.94-.06 1.146-.14.171-.293.329-.455.47.633.477 1.248.325 1.973.088a4.352 4.352 0 0 1-.784 1.878 3.495 3.495 0 0 1-1.483 1.17c-.367.144-.805.2-1.112-.073-.27-.24-.36-.663-.42-1.056a20.552 20.552 0 0 1-.209-4.358l.57-.18Z" fill="#263238"/></svg>