<svg width="101" height="100" fill="none" xmlns="http://www.w3.org/2000/svg"><path opacity=".3" d="M28.248 38.29H5.578l.024-.133c.093-.519.496-2.25 1.755-2.65 1.199-.383 2.313.485 2.731.87.08-.705.463-2.737 2.209-3.432a3.01 3.01 0 0 1 1.761-.199c.594.112 1.142.4 1.575.829.251-.616 1.303-2.653 4.177-2.653a4.562 4.562 0 0 1 1.862.364c.59.25 1.122.623 1.563 1.093a5.925 5.925 0 0 1 1.546 4.004c.416-.097 1.617-.3 2.469.331.483.345.83.854.976 1.436l.023.14Zm-22.401-.226h22.112a2.334 2.334 0 0 0-.851-1.169c-.932-.68-2.407-.26-2.423-.256l-.146.043v-.156a5.679 5.679 0 0 0-1.48-3.99 4.427 4.427 0 0 0-1.49-1.04 4.36 4.36 0 0 0-1.775-.347c-3.2 0-4.003 2.557-4.03 2.666l-.06.201-.131-.16a2.79 2.79 0 0 0-1.486-.88 2.754 2.754 0 0 0-1.71.17c-1.975.787-2.087 3.443-2.089 3.47v.272l-.182-.199c-.014-.014-1.32-1.407-2.67-.976-1.065.344-1.465 1.75-1.59 2.35ZM28.712 20.856h-15.1l.025-.134c.08-.453.358-1.52 1.188-1.784.763-.243 1.472.258 1.78.534.066-.527.344-1.778 1.478-2.228a2.025 2.025 0 0 1 2.2.387c.204-.453.927-1.728 2.78-1.728.428-.007.852.076 1.246.244.395.167.751.416 1.047.73a3.969 3.969 0 0 1 1.034 2.63c.314-.066 1.073-.168 1.617.226.331.232.568.578.668.974l.037.15Zm-14.828-.226h14.535a1.494 1.494 0 0 0-.532-.705c-.602-.453-1.557-.167-1.57-.165l-.149.045v-.158a3.722 3.722 0 0 0-.97-2.612 2.89 2.89 0 0 0-.973-.68 2.847 2.847 0 0 0-1.16-.226c-2.09 0-2.61 1.667-2.63 1.737l-.06.202-.134-.163a1.81 1.81 0 0 0-.966-.567 1.787 1.787 0 0 0-1.11.114c-1.283.512-1.356 2.244-1.356 2.265l-.011.272-.183-.2s-.856-.906-1.73-.636c-.645.208-.91 1.064-1.001 1.477ZM100.501 67.472H63.515l.022-.134c.151-.842.803-3.644 2.83-4.29 2.025-.645 3.936.956 4.51 1.507.093-.974.636-4.53 3.59-5.706a4.869 4.869 0 0 1 2.89-.304 4.924 4.924 0 0 1 2.559 1.398c.327-.85 1.98-4.403 6.824-4.403a7.417 7.417 0 0 1 3.022.59 7.532 7.532 0 0 1 2.538 1.772 9.64 9.64 0 0 1 2.514 6.607c.569-.142 2.638-.557 4.077.508a4.076 4.076 0 0 1 1.574 2.314l.036.14Zm-36.717-.227h36.43a3.848 3.848 0 0 0-1.452-2.038c-1.557-1.155-4.004-.442-4.03-.433l-.15.043v-.156a9.384 9.384 0 0 0-2.446-6.593 7.307 7.307 0 0 0-2.465-1.722 7.196 7.196 0 0 0-2.936-.573c-5.309 0-6.661 4.378-6.672 4.421l-.058.204-.133-.163a4.715 4.715 0 0 0-2.482-1.443 4.656 4.656 0 0 0-2.845.275c-3.281 1.306-3.466 5.707-3.466 5.753v.271l-.182-.199c-.022-.023-2.19-2.34-4.448-1.62-1.822.571-2.49 3.036-2.665 3.973ZM80.92 45.844h-15.1l.024-.133c.08-.453.358-1.52 1.188-1.785.763-.242 1.472.258 1.78.535.066-.528.344-1.778 1.478-2.23a2.03 2.03 0 0 1 2.2.388c.205-.464.927-1.728 2.78-1.728.428-.007.852.076 1.246.244.395.168.751.416 1.047.73a3.971 3.971 0 0 1 1.034 2.632c.314-.068 1.073-.17 1.618.226.33.233.566.578.667.974l.038.147Zm-14.83-.226h14.536a1.49 1.49 0 0 0-.532-.705c-.602-.452-1.556-.167-1.57-.165l-.149.046v-.16a3.721 3.721 0 0 0-.97-2.61 2.89 2.89 0 0 0-.973-.68 2.845 2.845 0 0 0-1.16-.227c-2.09 0-2.61 1.668-2.63 1.738l-.06.201-.134-.16a1.806 1.806 0 0 0-.966-.569 1.782 1.782 0 0 0-1.11.116c-1.283.511-1.356 2.244-1.356 2.264l-.011.272-.183-.2s-.858-.905-1.73-.633c-.645.204-.908 1.06-1.001 1.472ZM67.124 12.62h-24.34l.025-.133c.1-.558.532-2.413 1.882-2.843 1.294-.412 2.5.54 2.935.944.083-.738.485-2.944 2.37-3.696a3.233 3.233 0 0 1 1.887-.21c.636.122 1.222.43 1.686.89.26-.646 1.384-2.857 4.487-2.857a4.897 4.897 0 0 1 2 .392c.633.27 1.205.67 1.678 1.176a6.362 6.362 0 0 1 1.66 4.303c.445-.104 1.737-.33 2.655.349a2.72 2.72 0 0 1 1.046 1.54l.029.145Zm-24.073-.226h23.781a2.489 2.489 0 0 0-.92-1.271c-1.008-.745-2.594-.283-2.61-.279l-.148.046v-.157A6.122 6.122 0 0 0 61.56 6.43a4.755 4.755 0 0 0-1.603-1.12 4.682 4.682 0 0 0-1.909-.373c-3.445.01-4.322 2.843-4.322 2.881l-.057.202-.134-.163a3.006 3.006 0 0 0-1.609-.948 2.968 2.968 0 0 0-1.85.191c-2.126.85-2.248 3.708-2.248 3.738v.271l-.182-.199c-.016-.016-1.422-1.515-2.892-1.05-1.139.364-1.57 1.893-1.704 2.534Z" fill="#000"/><path d="M88.769 66.258c.13-.548.303-1.084.518-1.604.242-.48 1.334-.48 1.981.208.648.689 1.035 1.944 1.035 1.944a3.551 3.551 0 0 1 1.047 1.855c.185 1.091.24 1.748-.073 1.707-.314-.04-1.234-1.458-2.002-1.927-.767-.469-1.083-.467-1.083-.467l-1.423-1.716Z" fill="#fff"/><path d="M93.303 70.487h-.043c-.18-.023-.409-.279-.834-.768-.362-.417-.814-.938-1.205-1.178-.712-.437-1.021-.453-1.026-.453a.114.114 0 0 1-.084-.038l-1.428-1.717a.113.113 0 0 1-.025-.102c.133-.556.309-1.101.528-1.628a.794.794 0 0 1 .625-.383 1.8 1.8 0 0 1 .833.097c.267.098.508.258.703.467.608.647.988 1.757 1.053 1.959a3.64 3.64 0 0 1 1.06 1.898c.192 1.132.199 1.585.03 1.762a.25.25 0 0 1-.187.084Zm-3.052-2.618a3.03 3.03 0 0 1 1.085.477c.419.259.863.77 1.257 1.221.263.304.59.68.696.693.03 0 .036 0 .04-.011.15-.156-.017-1.146-.089-1.567a3.483 3.483 0 0 0-1.01-1.787.115.115 0 0 1-.033-.052s-.391-1.242-1.01-1.9a1.61 1.61 0 0 0-1.346-.498.588.588 0 0 0-.457.262 9.985 9.985 0 0 0-.494 1.526l1.361 1.635Z" fill="#263238"/><path d="M90.038 64.32a1.726 1.726 0 0 1 1.232.544c.645.68 1.035 1.943 1.035 1.943a3.55 3.55 0 0 1 1.047 1.855c.185 1.092.24 1.749-.073 1.708a.178.178 0 0 1-.045-.016 11.962 11.962 0 0 0-.118-1.26c-.149-.993-1.154-1.727-1.848-3.116a5.272 5.272 0 0 0-1.23-1.658Z" fill="#fff"/><path d="M93.302 70.483h-.042a.32.32 0 0 1-.065-.02.125.125 0 0 1-.076-.104 12.114 12.114 0 0 0-.115-1.246c-.082-.537-.445-1.008-.845-1.556a9.736 9.736 0 0 1-.992-1.529 5.184 5.184 0 0 0-1.204-1.622.114.114 0 0 1-.03-.127.13.13 0 0 1 .104-.072c.494.009.965.216 1.31.578.607.647.988 1.757 1.052 1.959a3.64 3.64 0 0 1 1.06 1.898c.192 1.132.199 1.585.03 1.762a.25.25 0 0 1-.187.08Zm-2.943-6.013c.407.429.747.92 1.006 1.454a9.68 9.68 0 0 0 .97 1.495c.429.57.798 1.064.89 1.658.053.36.09.75.11 1.16.136-.182-.026-1.133-.095-1.559a3.482 3.482 0 0 0-1.01-1.787.115.115 0 0 1-.033-.052s-.392-1.241-1.01-1.9a1.65 1.65 0 0 0-.828-.47ZM76.172 55.222s-.089.768.467 1.071c.55.257 1.118.47 1.7.637l-.125-3.035s-1.63.507-2.042 1.327Z" fill="#263238"/><path d="M78.341 57.04h-.03c-.59-.17-1.166-.387-1.722-.647-.614-.336-.53-1.15-.525-1.185a.112.112 0 0 1 .011-.038c.43-.852 2.04-1.36 2.109-1.384a.115.115 0 0 1 .097.016.124.124 0 0 1 .047.088l.125 3.035a.12.12 0 0 1-.043.095.11.11 0 0 1-.069.02Zm-2.06-1.789c0 .116-.021.702.412.94.495.235 1.006.43 1.53.584l-.11-2.717c-.392.129-1.498.57-1.831 1.193Z" fill="#263238"/><path d="m77.596 53.718.198 2.813s-1.637 4.015-2.093 8.416c-.456 4.401-.26 5.774-.15 6.342.112.569 1.144 1.447 1.953 1.552.81.104 1.313.074 3.868-.664 2.556-.739 4.32-1.721 6.084-2.702 1.763-.98 2.746-1.502 2.746-1.502s-.856-1.549-1.428-1.717c-.571-.167-1.24.408-1.24.408s-.119-.154-.557.068a3.707 3.707 0 0 1-.858.308l-5.436.78s5.38-11.015 5.972-12.472c.591-1.456-.134-2.246-.134-2.246l-8.925.616Z" fill="#FFC100"/><path d="M78.099 73.006a4.622 4.622 0 0 1-.61-.046c-.81-.104-1.92-.994-2.046-1.642-.082-.423-.334-1.714.147-6.378.434-4.185 1.953-8.074 2.093-8.423l-.198-2.786a.126.126 0 0 1 .027-.084.112.112 0 0 1 .077-.038l8.926-.616a.1.1 0 0 1 .089.036c.031.034.765.86.153 2.367-.542 1.336-5.16 10.806-5.88 12.285l5.224-.757c.286-.066.562-.166.826-.296a.738.738 0 0 1 .598-.107c.189-.142.754-.52 1.274-.369.599.174 1.406 1.608 1.495 1.771a.111.111 0 0 1 0 .089.113.113 0 0 1-.053.068s-1 .534-2.74 1.504c-1.742.969-3.54 1.968-6.106 2.717-1.908.544-2.685.705-3.296.705Zm-.383-19.178.19 2.698a.102.102 0 0 1 0 .052c-.019.041-1.64 4.052-2.087 8.38-.478 4.63-.222 5.89-.151 6.31.102.52 1.078 1.36 1.857 1.462.778.101 1.294.072 3.823-.66 2.53-.731 4.333-1.73 6.061-2.693 1.426-.792 2.347-1.29 2.64-1.451-.273-.474-.903-1.445-1.305-1.563-.51-.147-1.128.371-1.135.378a.111.111 0 0 1-.124.012.102.102 0 0 1-.034-.03c-.017-.014-.146-.039-.418.1a3.805 3.805 0 0 1-.89.317l-5.44.788a.11.11 0 0 1-.106-.046.117.117 0 0 1 0-.117c.053-.109 5.384-11.026 5.967-12.457.49-1.205.051-1.917-.078-2.089l-8.77.61Z" fill="#263238"/><path d="M80.316 57.67a.103.103 0 0 1-.062-.02l-1.05-.739a.115.115 0 0 1-.029-.158.11.11 0 0 1 .156-.03l1.047.74a.11.11 0 0 1 .047.073.112.112 0 0 1-.018.084.11.11 0 0 1-.091.05Z" fill="#263238"/><path d="M88.23 78.313s2.805.917 2.816 1.198c.011.28-.643 2.611-.919 3.737-.275 1.126-1.452 2.507-1.78 2.512-.326.004-.52-.207-.553-.68-.033-.473.243-1.223.142-1.884-.1-.662-.96-2.913-.96-2.913s1.225-1.416 1.254-1.97Z" fill="#fff"/><path d="M88.343 85.877c-.222 0-.607-.104-.654-.78a3.29 3.29 0 0 1 .074-.74c.078-.372.102-.753.071-1.132-.098-.643-.948-2.865-.956-2.888a.116.116 0 0 1 .02-.115c.333-.388 1.203-1.484 1.22-1.905a.122.122 0 0 1 .047-.089.11.11 0 0 1 .098-.015c1.91.625 2.892 1.064 2.892 1.302 0 .192-.223 1.076-.57 2.4-.133.51-.262 1.004-.353 1.36-.278 1.132-1.477 2.593-1.877 2.597l-.012.005Zm-1.234-5.563c.145.38.852 2.265.943 2.872.04.404.015.811-.071 1.207-.046.224-.07.452-.07.68.04.575.343.573.446.569.222 0 1.38-1.271 1.663-2.426.092-.367.223-.861.356-1.373.247-.938.552-2.097.56-2.317-.137-.176-1.407-.68-2.617-1.071-.154.586-.985 1.594-1.21 1.86Z" fill="#263238"/><path d="M91.046 79.511c0 .281-.643 2.612-.92 3.738-.275 1.125-1.451 2.507-1.778 2.511a.43.43 0 0 1-.056 0 13.079 13.079 0 0 0 1.621-3.417c.288-1.045.47-2.116.543-3.199.345.15.587.286.59.367Z" fill="#fff"/><path d="M88.352 85.871h-.049a.125.125 0 0 1-.098-.065.115.115 0 0 1 0-.114 12.91 12.91 0 0 0 1.606-3.386 15.88 15.88 0 0 0 .538-3.17.116.116 0 0 1 .054-.089.117.117 0 0 1 .102 0c.538.24.645.353.65.469 0 .192-.223 1.076-.57 2.4-.133.51-.262 1.004-.353 1.36-.278 1.132-1.477 2.593-1.878 2.598l-.002-.003Zm2.206-6.568a15.767 15.767 0 0 1-.533 3.06 13.02 13.02 0 0 1-1.422 3.114c.425-.378 1.19-1.359 1.413-2.265.091-.367.222-.86.356-1.372.244-.936.551-2.095.56-2.317a1.309 1.309 0 0 0-.374-.213v-.007Z" fill="#263238"/><path d="M82.481 55.51c-2.224.68-2.693 3.695-3.178 5.027-.485 1.331-1.88 8.165-1.897 8.674-.018.51.89 2.3 1.227 2.619.338.32 5.116 5.118 5.576 5.782.46.664 2.338 2.492 2.338 2.492l.434.194c1.094-.369 1.207-1.655 1.247-1.975.04-.32-.645-.68-.94-1.236-.296-.558-1.949-4.152-2.587-5.257-.638-1.106-2.478-2.084-2.736-2.582-.084-.203-.2-.39-.342-.555 0 0 2.16-3.438 3.952-5.02 1.793-1.58 3.127-4.613 3.31-6.83.182-2.218-.714-3.425-.714-3.425l-4.811.17" fill="#FFC100"/><path d="M86.982 80.406a.115.115 0 0 1-.047 0l-.431-.195a.1.1 0 0 1-.031-.023c-.078-.072-1.886-1.834-2.351-2.491-.465-.657-5.23-5.436-5.56-5.767-.332-.33-1.28-2.167-1.262-2.704.018-.537 1.401-7.323 1.906-8.711.082-.227.167-.514.258-.818.434-1.47 1.092-3.69 2.992-4.276a.114.114 0 0 1 .088.01c.027.015.047.04.055.07a.12.12 0 0 1-.01.09.116.116 0 0 1-.069.056c-1.78.553-2.397 2.619-2.844 4.125-.09.308-.176.598-.263.834-.5 1.374-1.875 8.223-1.89 8.638-.016.471.876 2.224 1.192 2.534.05.05 5.095 5.087 5.591 5.799.434.616 2.138 2.285 2.311 2.453l.374.17c.952-.352 1.085-1.461 1.127-1.83v-.04c.016-.117-.175-.305-.36-.486a3.016 3.016 0 0 1-.567-.68c-.109-.199-.385-.78-.736-1.517-.607-1.28-1.442-3.033-1.849-3.735-.364-.632-1.15-1.232-1.779-1.715-.471-.36-.843-.645-.959-.871a2.582 2.582 0 0 0-.313-.521.105.105 0 0 1-.025-.15c.023-.034 2.19-3.47 3.975-5.042 1.833-1.617 3.103-4.706 3.27-6.756.155-1.905-.505-3.06-.668-3.302l-4.75.17a.114.114 0 0 1-.08-.032.118.118 0 0 1-.036-.077.114.114 0 0 1 .064-.108.11.11 0 0 1 .043-.01l4.81-.17a.11.11 0 0 1 .094.045c.038.05.919 1.267.736 3.502-.169 2.068-1.401 5.191-3.347 6.908-1.617 1.427-3.559 4.421-3.886 4.924.114.162.214.334.3.512.094.184.485.48.89.797.645.494 1.45 1.11 1.837 1.78.412.712 1.248 2.47 1.857 3.751.35.734.625 1.314.732 1.509.144.234.32.446.525.627.245.24.458.453.43.68v.038c-.132 1.096-.577 1.78-1.322 2.039l-.022-.034ZM83.215 14.972H83.2a.107.107 0 0 1-.085-.066l-.187-.43a.757.757 0 0 1 .112-.882c.028-.031.1-.115.94-.428l.12-.043a.112.112 0 0 1 .112.023.118.118 0 0 1 .033.11l-.167.71a.12.12 0 0 1-.024.047l-.745.918a.118.118 0 0 1-.094.04Zm.76-1.566a4.115 4.115 0 0 0-.773.338.518.518 0 0 0-.073.636l.113.265.625-.752.109-.487Z" fill="#263238"/><path d="M87.482 42.565s-2.358 3.885-2.395 4.125c-.038.24 3.43 6.794 3.61 7.247 0 0-7.877.41-9.832.404-1.955-.007-2.702.872-2.702.872s1.07-2.832 1.063-5.352c-.006-2.521-1.245-6.38-.914-8.086.332-1.706 1.495-4.648 1.495-4.648s-.027-2.686.551-4.768c.579-2.081 1.19-4.115 1.353-5.436.162-1.32 1.29-5.24 1.826-6.341s1.657-4.666 1.657-4.666-.2-.637.01-1.056c.213-.342.472-.653.77-.921 0 0 .194-.906.512-1.237.318-.33.483-.018.414.226l-.07.227s.584 1.092.686 1.554c.102.462-1.415 1.676-1.415 1.676s-.543 5.988-.716 7.39c-.174 1.402-.968 3.255-.968 3.255l-.093 1.085-1.05 6.208s3.074.965 3.92 1.56c.844.596 3.095 2.392 3.353 3.851s-1.065 2.831-1.065 2.831Z" fill="#fff"/><path d="M76.173 55.34a.109.109 0 0 1-.057-.017.11.11 0 0 1-.047-.136c.011-.03 1.06-2.84 1.056-5.311 0-1.133-.262-2.562-.511-3.935-.3-1.66-.585-3.225-.4-4.174.315-1.622 1.387-4.378 1.492-4.645 0-.267 0-2.806.556-4.777.091-.333.184-.664.278-.992.48-1.71.934-3.327 1.072-4.428.165-1.334 1.299-5.275 1.837-6.387.498-1.033 1.524-4.254 1.64-4.618-.04-.148-.174-.705.028-1.106.205-.344.458-.656.752-.926.04-.179.222-.947.534-1.257.222-.227.387-.184.465-.136a.412.412 0 0 1 .133.453l-.055.19c.267.492.49 1.008.667 1.54.107.483-1.081 1.502-1.41 1.772-.051.57-.55 6.024-.712 7.345-.162 1.32-.89 3.064-.965 3.264l-.094 1.069-1.032 6.115c.53.17 3.08.999 3.855 1.547.318.226 3.114 2.235 3.403 3.92.255 1.45-.963 2.784-1.092 2.92-.877 1.443-2.269 3.785-2.365 4.063.076.3 1.424 2.92 2.32 4.662.668 1.318 1.212 2.357 1.284 2.543.005.017.007.035.005.052a.117.117 0 0 1-.054.086.111.111 0 0 1-.05.016c-.077 0-7.755.403-9.786.403h-.06c-1.855 0-2.589.825-2.595.834a.112.112 0 0 1-.092.052Zm8.56-42.666a.3.3 0 0 0-.172.109c-.294.296-.48 1.168-.483 1.177a.114.114 0 0 1-.035.062 4.2 4.2 0 0 0-.734.887c-.19.374 0 .963 0 .97a.118.118 0 0 1 0 .068c-.047.145-1.128 3.576-1.664 4.681-.536 1.106-1.65 4.983-1.815 6.315-.138 1.119-.596 2.743-1.079 4.462-.093.328-.184.66-.278.992-.567 2.038-.547 4.709-.547 4.736a.101.101 0 0 1 0 .043c0 .03-1.163 2.944-1.488 4.625-.176.906.105 2.453.403 4.09.249 1.385.509 2.814.513 3.976 0 1.966-.647 4.135-.936 5.003.391-.267 1.161-.637 2.447-.637h.082c1.855 0 8.476-.335 9.606-.394-.178-.373-.667-1.311-1.207-2.373-1.88-3.66-2.363-4.646-2.345-4.79.031-.245 1.849-3.253 2.404-4.17l.016-.02c.011-.014 1.283-1.36 1.039-2.73-.223-1.296-2.189-2.983-3.31-3.776-.82-.58-3.857-1.535-3.888-1.544a.117.117 0 0 1-.062-.05.12.12 0 0 1-.016-.08l1.05-6.205.094-1.079a.192.192 0 0 1 0-.034c0-.018.785-1.852.954-3.22.169-1.368.712-7.325.718-7.384a.119.119 0 0 1 .04-.08c.605-.49 1.428-1.304 1.368-1.585-.098-.453-.667-1.513-.667-1.524a.105.105 0 0 1 0-.086l.069-.227a.203.203 0 0 0-.036-.206l-.042-.002Z" fill="#263238"/><path d="M84.686 14.342a.11.11 0 0 1-.101-.072.115.115 0 0 1-.008-.044c.023-.368.069-.735.138-1.098a.111.111 0 0 1 .086-.09.108.108 0 0 1 .043 0 .114.114 0 0 1 .071.048.117.117 0 0 1 .018.085c-.066.35-.11.706-.133 1.062a.113.113 0 0 1-.035.079.107.107 0 0 1-.079.03Z" fill="#263238"/><path d="M76.321 41.78c.331-1.705 1.495-4.647 1.495-4.647s-.027-2.687.551-4.768l.171-.612 3.441-1.585-.7 4.15s3.074.964 3.919 1.56c.845.596 3.096 2.392 3.354 3.85.258 1.459-1.07 2.83-1.07 2.83s-2.358 3.89-2.395 4.13c-.038.24 3.43 6.795 3.61 7.248 0 0-7.877.41-9.832.403-1.955-.006-2.702.873-2.702.873s1.07-2.832 1.063-5.353c-.006-2.52-1.236-6.373-.905-8.079Z" fill="#ADADAD"/><path d="M76.173 55.34a.11.11 0 0 1-.057-.017.11.11 0 0 1-.047-.136c.011-.03 1.06-2.84 1.056-5.311 0-1.133-.262-2.562-.511-3.935-.3-1.658-.585-3.225-.4-4.174.313-1.622 1.387-4.378 1.492-4.645 0-.268 0-2.807.556-4.777l.171-.614a.116.116 0 0 1 .06-.072l3.443-1.586a.105.105 0 0 1 .114.014.111.111 0 0 1 .04.108l-.683 4.05c.53.17 3.08 1 3.854 1.547.319.227 3.114 2.236 3.403 3.92.256 1.45-.963 2.787-1.092 2.92-.876 1.443-2.268 3.785-2.364 4.064.076.299 1.424 2.92 2.32 4.66.667 1.32 1.212 2.359 1.283 2.544a.117.117 0 0 1-.049.139.112.112 0 0 1-.049.015c-.078 0-7.755.404-9.786.404h-.067c-1.855 0-2.589.824-2.595.833a.112.112 0 0 1-.092.05Zm2.465-23.505-.158.562c-.567 2.038-.547 4.709-.547 4.736a.098.098 0 0 1 0 .043c0 .03-1.164 2.944-1.488 4.625-.176.906.104 2.453.402 4.09.25 1.384.51 2.814.514 3.976 0 1.966-.647 4.135-.936 5.003.391-.267 1.16-.637 2.446-.637h.083c1.855 0 8.476-.335 9.606-.394-.178-.373-.667-1.311-1.208-2.373-1.88-3.66-2.362-4.646-2.344-4.79.031-.245 1.848-3.253 2.404-4.17l.016-.02c.01-.014 1.283-1.36 1.038-2.73-.222-1.296-2.188-2.983-3.31-3.776-.82-.58-3.856-1.535-3.887-1.544a.116.116 0 0 1-.062-.05.12.12 0 0 1-.016-.08l.667-3.938-3.22 1.467Z" fill="#263238"/><path d="M82.739 46.175a.105.105 0 0 1-.058-.016c-.038-.022-3.795-2.28-4.46-2.645a.115.115 0 0 1-.044-.154.112.112 0 0 1 .066-.055.11.11 0 0 1 .085.01c.667.367 4.428 2.627 4.466 2.65a.11.11 0 0 1 .055.112.114.114 0 0 1-.11.098ZM79.397 45.094a.107.107 0 0 1-.067-.022c-.76-.582-2.447-2.136-2.447-2.152a.116.116 0 0 1-.024-.124.112.112 0 0 1 .182-.037c.016.016 1.689 1.56 2.447 2.138a.114.114 0 0 1 .022.159.113.113 0 0 1-.113.038ZM80.557 50.568a.115.115 0 0 1-.109-.082.117.117 0 0 1 .078-.14c1.895-.548 4.175-2.976 4.2-3a.106.106 0 0 1 .156 0 .111.111 0 0 1 .032.08.113.113 0 0 1-.033.08c-.096.101-2.347 2.49-4.3 3.062a.067.067 0 0 1-.024 0ZM83.484 50.132a.106.106 0 0 1-.087-.045.115.115 0 0 1 .02-.159c.472-.466.917-.96 1.335-1.477a.11.11 0 0 1 .156-.016.119.119 0 0 1 .015.161c-.042.05-1.001 1.228-1.361 1.51a.112.112 0 0 1-.078.026ZM83.686 26.598c-.022.176.16-.58 1.313-.612 1.152-.032 2.424.4 3.078 1.055.654.655 2.871 2.492 2.753 5.572-.118 3.08-1.539 2.682-1.726 3.466-.186.783.617.98.617.98s-.419.995-2.625.741c-2.207-.254-1.635-2.73-1.412-3.09.222-.36-.12-3.553-.637-4.37a2.134 2.134 0 0 0-1.334-.95s-2.062 2.374-2.224 3.941c-.163 1.568.273 1.835.24 2.58-.033.745-1.023 1.359-1.88 1.133-.856-.227-.925-.598-.925-.598s1.079-.401.874-.877c-.204-.476-1.419-1.862-1.14-3.624.277-1.762.889-3.212 2.446-4.122 1.557-.91 2.264-.938 2.264-.938l.318-.288Z" fill="#263238"/><path d="M87.783 37.955a6.02 6.02 0 0 1-.696-.04c-.745-.087-1.261-.422-1.535-1-.411-.865-.11-2.017.04-2.264.198-.324-.135-3.461-.634-4.247a2.056 2.056 0 0 0-1.192-.888c-.293.349-2.002 2.437-2.155 3.828a4.233 4.233 0 0 0 .125 1.785c.081.254.12.52.115.788a1.289 1.289 0 0 1-.551.935 1.764 1.764 0 0 1-1.466.308c-.89-.242-.999-.643-1.008-.68a.113.113 0 0 1 .012-.078.11.11 0 0 1 .06-.05c.186-.07.7-.308.807-.567a.188.188 0 0 0 0-.158 3.48 3.48 0 0 0-.222-.385c-.403-.65-1.155-1.857-.926-3.305.327-2.084 1.101-3.38 2.51-4.201 1.365-.8 2.092-.929 2.272-.95l.274-.264a.098.098 0 0 1 .035-.023c.287-.394.741-.602 1.35-.618 1.19-.034 2.485.414 3.159 1.087.053.054.115.115.189.183.81.777 2.707 2.6 2.598 5.475-.08 2.151-.814 2.67-1.302 3.012-.222.156-.378.267-.426.476-.158.663.504.836.531.842a.103.103 0 0 1 .073.06.111.111 0 0 1 0 .094c-.01.032-.373.845-2.037.845Zm-4.057-8.677h.03c.286.064.557.186.798.357.24.171.445.39.602.642.512.806.901 4.059.636 4.491-.13.215-.398 1.271-.028 2.039.237.5.696.795 1.359.87 1.645.19 2.255-.336 2.446-.569a1.018 1.018 0 0 1-.47-.387.87.87 0 0 1-.082-.68c.07-.292.276-.44.517-.609.475-.338 1.13-.797 1.205-2.836.105-2.77-1.742-4.543-2.529-5.3-.073-.07-.138-.131-.191-.185-.634-.635-1.866-1.058-2.998-1.024-.552.016-.954.201-1.197.557a.163.163 0 0 1-.1.08l-.243.226a.1.1 0 0 1-.073.032s-.712.045-2.213.924c-1.334.783-2.084 2.038-2.4 4.04-.222 1.36.478 2.48.89 3.146.087.134.166.272.238.415a.424.424 0 0 1 0 .342c-.13.31-.594.543-.82.64.08.105.286.293.8.431a1.528 1.528 0 0 0 1.279-.27 1.047 1.047 0 0 0 .46-.763 2.222 2.222 0 0 0-.111-.704 4.493 4.493 0 0 1-.131-1.869c.166-1.585 2.166-3.907 2.253-4.004a.106.106 0 0 1 .073-.032Z" fill="#263238"/><path d="M81.989 35.557s-.127 1.273-.287 1.612c-.16.34-.785.859-.592.974.194.116 2.202-.437 3.236-.933 1.034-.496.832-1.483.89-1.685.058-.202-1.893.745-3.247.032Z" fill="#fff"/><path d="M81.205 38.268a.33.33 0 0 1-.155-.027.184.184 0 0 1-.087-.13c-.024-.142.1-.298.323-.563.119-.131.224-.275.313-.428.125-.263.243-1.226.278-1.575a.113.113 0 0 1 .058-.088.103.103 0 0 1 .102 0c.917.483 2.113.174 2.754 0 .34-.086.445-.113.516-.038a.166.166 0 0 1 .031.129.819.819 0 0 0 0 .151c0 .38-.029 1.17-.936 1.606-.81.392-2.614.963-3.197.963Zm-.015-.227c.305.023 2.075-.453 3.114-.94.783-.378.8-1.048.81-1.406v-.082l-.263.064c-.594.154-1.797.464-2.767.043-.04.358-.147 1.21-.28 1.492a2.49 2.49 0 0 1-.345.476c-.1.111-.19.232-.27.36v-.007Z" fill="#263238"/><path d="M84.13 28.273s1.335 1.88 1.869 2.73c.444.74.85 1.503 1.219 2.285 0 0-.098.797-.414.965a1.637 1.637 0 0 1-.754.143s-.274 1.014-1.597 1.714c-1.126.594-1.95.528-2.714-.2-.763-.726-1.178-2.848-.803-4.21.376-1.36 2.015-2.718 2.273-2.887.258-.17.921-.54.921-.54Z" fill="#fff"/><path d="M83.086 36.628a2.023 2.023 0 0 1-1.43-.63c-.794-.759-1.217-2.944-.835-4.326.383-1.382 2.002-2.738 2.318-2.944.258-.177.903-.533.93-.546a.11.11 0 0 1 .142.032c.014.02 1.335 1.893 1.873 2.733.538.84 1.228 2.281 1.228 2.295.009.02.013.041.01.063-.01.088-.117.86-.473 1.053-.228.107-.476.16-.727.157-.098.267-.48 1.096-1.624 1.698a3.05 3.05 0 0 1-1.412.415Zm1.003-8.204c-.187.104-.632.354-.828.487-.275.19-1.868 1.522-2.224 2.822-.356 1.3.027 3.398.772 4.098.745.7 1.506.754 2.587.183 1.265-.68 1.537-1.635 1.541-1.644a.116.116 0 0 1 .043-.062.112.112 0 0 1 .07-.022c.239.012.476-.032.695-.13.184-.099.31-.559.35-.846a24.88 24.88 0 0 0-1.196-2.243c-.465-.738-1.543-2.274-1.803-2.643h-.007Z" fill="#263238"/><path d="M83.309 33.652a.396.396 0 0 1-.276-.091 2.592 2.592 0 0 1-.35-.424.114.114 0 0 1 .069-.182.109.109 0 0 1 .087.022c.012.01.022.022.03.036.092.138.198.266.315.383.085.079.418 0 .625-.105a.11.11 0 0 1 .085-.002c.028.01.05.032.062.06a.112.112 0 0 1-.056.149 1.606 1.606 0 0 1-.591.154ZM83.41 34.528a1.269 1.269 0 0 1-.885-.343 1.302 1.302 0 0 1-.346-.538.119.119 0 0 1 .08-.146.113.113 0 0 1 .087.01c.027.015.047.04.056.07.057.167.155.316.283.435.129.119.284.203.453.245.558.127.794-.143.798-.148a.11.11 0 0 1 .076-.039.107.107 0 0 1 .08.028.116.116 0 0 1 .011.16.904.904 0 0 1-.694.266ZM85.505 32.73a.106.106 0 0 1-.082-.038.895.895 0 0 0-.94-.227.115.115 0 0 1-.147-.077.12.12 0 0 1 .008-.09.117.117 0 0 1 .069-.059 1.092 1.092 0 0 1 1.174.29.11.11 0 0 1 0 .159.104.104 0 0 1-.082.043ZM82.768 32.013a.108.108 0 0 1-.098-.06.822.822 0 0 0-.414-.367.803.803 0 0 0-.549-.017.117.117 0 0 1-.088-.01.117.117 0 0 1-.06-.115.12.12 0 0 1 .041-.08.116.116 0 0 1 .04-.022c.231-.074.48-.064.704.03.224.093.409.264.522.482a.112.112 0 0 1-.047.152.1.1 0 0 1-.051.007ZM85.952 31.953a.107.107 0 0 1-.087-.045 1.5 1.5 0 0 0-.6-.438 1.473 1.473 0 0 0-.734-.092.11.11 0 0 1-.082-.023.114.114 0 0 1-.022-.157.111.111 0 0 1 .073-.044c.286-.036.576.002.844.11.268.107.505.281.69.506a.115.115 0 0 1-.082.183ZM83.212 31a.11.11 0 0 1-.071-.025c-.027-.023-.68-.566-1.197-.114a.11.11 0 0 1-.157-.012.115.115 0 0 1 .013-.16c.527-.464 1.2-.129 1.483.111a.115.115 0 0 1 .016.159.115.115 0 0 1-.087.04ZM86.535 33.264h-.028a.173.173 0 0 1-.096-.057.179.179 0 0 1-.042-.104c-.03-.4-.03-.8 0-1.2a.116.116 0 0 1 .088-.104.114.114 0 0 1 .123.06l.422.866a.117.117 0 0 1 0 .111c-.19.283-.344.428-.467.428Zm.034-.906a5.422 5.422 0 0 0 0 .65 1.45 1.45 0 0 0 .191-.226l-.191-.424Z" fill="#263238"/><path d="m91.338 60.422-6.72 1.046-.963-6.708 7.035-.397.648 6.059Z" fill="#fff"/><path d="M84.617 61.578a.112.112 0 0 1-.066-.02.112.112 0 0 1-.045-.075l-.963-6.711a.124.124 0 0 1 .022-.088.105.105 0 0 1 .08-.041l7.038-.397a.108.108 0 0 1 .077.026.112.112 0 0 1 .038.074l.645 6.061a.115.115 0 0 1-.022.081.11.11 0 0 1-.071.044l-6.71 1.046h-.023Zm-.838-6.718.932 6.476 6.501-1.015-.623-5.846-6.81.385Z" fill="#263238"/><path d="m84.617 61.467-1.532-6.62.57-.09.962 6.71Z" fill="#fff"/><path d="M84.618 61.58a.108.108 0 0 1-.07-.023.111.111 0 0 1-.04-.062l-1.534-6.62a.129.129 0 0 1 .016-.091.107.107 0 0 1 .075-.048l.57-.09c.03-.004.06.003.084.02.024.018.04.045.045.075l.963 6.715a.113.113 0 0 1-.02.082.109.109 0 0 1-.07.045l-.02-.002Zm-1.4-6.64.917 3.955-.576-4.007-.34.052Z" fill="#263238"/><path d="m85.885 40.328 2.376 7.248s.067 1.393.049 2.492c-.018 1.098.507 2.992.58 4.342.04.774.118 1.65 0 2.42-.089.574-.625 1.004-.992 1.475-.396.508-.358 1.171-.734 1.658-.142.186.011.245.24.315.23.07.463-.184.463-.184a3.348 3.348 0 0 0-.191.585c-.057.229-.138.45-.243.661.195.094.402.161.614.2.276.036.52-.34.52-.34l.395.052a.765.765 0 0 0 .333-.12.674.674 0 0 0 .576-.13c.223-.214.345-.525.405-1.005.06-.48.798-5.468 1.065-7.628.267-2.161-.146-4.288-.273-5.198-.127-.91-.398-2.573-.817-5.962-.418-3.388-1.254-4.063-1.254-4.063s-.803-.917-1.89-.854c-1.088.064-1.78 1.438-1.78 1.438" fill="#ADADAD"/><path d="M88.083 61.658h-.052a2.633 2.633 0 0 1-.65-.21.113.113 0 0 1-.055-.069.111.111 0 0 1 0-.088c.097-.202.172-.415.223-.634.024-.102.05-.195.075-.274a.439.439 0 0 1-.269 0c-.151-.045-.322-.097-.365-.227a.284.284 0 0 1 .07-.258c.157-.233.271-.494.335-.77.075-.32.21-.62.398-.888.098-.127.21-.249.316-.369.292-.326.592-.661.654-1.053.076-.69.082-1.387.018-2.08l-.018-.316a18.433 18.433 0 0 0-.298-2.118 13.7 13.7 0 0 1-.282-2.231c.015-1.02-.043-2.31-.05-2.464l-2.368-7.248a.115.115 0 0 1 .006-.087.112.112 0 0 1 .064-.057.11.11 0 0 1 .085.006.113.113 0 0 1 .056.065l2.374 7.248v.03c0 .013.066 1.406.048 2.491.033.736.127 1.468.28 2.188.14.71.24 1.426.3 2.147l.019.315c.066.709.058 1.422-.022 2.129-.072.453-.394.82-.708 1.169-.104.117-.222.238-.307.358a2.343 2.343 0 0 0-.336.829c-.07.303-.197.59-.373.844-.031.039-.031.055-.031.055.07.037.145.064.222.081.133.043.3-.1.35-.151a.11.11 0 0 1 .141-.019.113.113 0 0 1 .038.143c-.078.182-.14.37-.184.564a3.334 3.334 0 0 1-.198.578c.152.067.312.116.476.145.171.022.358-.202.416-.29a.11.11 0 0 1 .107-.05l.39.05a.737.737 0 0 0 .263-.105.123.123 0 0 1 .085-.013.562.562 0 0 0 .474-.102c.2-.19.311-.471.369-.935.02-.154.107-.76.222-1.586.263-1.812.656-4.562.839-6.034.222-1.866-.056-3.746-.223-4.756-.022-.156-.044-.294-.06-.412-.03-.227-.069-.48-.118-.8-.15-1.03-.382-2.586-.7-5.162-.405-3.273-1.204-3.984-1.212-3.99-.01-.007-.801-.888-1.815-.83-1.014.06-1.675 1.36-1.682 1.378a.112.112 0 0 1-.151.05.115.115 0 0 1-.047-.152c.03-.06.732-1.434 1.869-1.502 1.136-.068 1.944.852 1.98.892.035.041.86.73 1.278 4.125.318 2.573.55 4.129.7 5.157.047.32.087.582.118.802l.06.41c.158 1.02.445 2.92.223 4.818a412.37 412.37 0 0 1-.84 6.038c-.12.836-.208 1.438-.223 1.585-.065.523-.196.845-.445 1.076a.775.775 0 0 1-.63.166.726.726 0 0 1-.369.11l-.329-.04a.769.769 0 0 1-.531.328Z" fill="#263238"/><path d="M88.309 50.074c.017-1.094-.05-2.492-.05-2.492l-1.21-3.699 3.468-.543c.27 2.009.445 3.146.547 3.85.127.906.543 3.038.274 5.198-.27 2.161-1.007 7.148-1.065 7.629-.058.48-.178.79-.405 1.005a.681.681 0 0 1-.576.13.764.764 0 0 1-.334.12l-.394-.053s-.244.376-.52.34a2.374 2.374 0 0 1-.614-.2c.104-.21.186-.432.243-.66.045-.201.11-.397.19-.585 0 0-.222.254-.462.184-.24-.07-.382-.13-.24-.315.376-.487.338-1.15.734-1.658.367-.471.903-.906.992-1.475.12-.77.042-1.646 0-2.421-.071-1.364-.594-3.26-.578-4.355Z" fill="#fff"/><path d="M88.08 61.657h-.05a2.636 2.636 0 0 1-.65-.21.11.11 0 0 1-.056-.069.11.11 0 0 1 0-.088c.097-.203.171-.415.223-.634a4.54 4.54 0 0 1 .075-.274.437.437 0 0 1-.269 0c-.151-.045-.322-.098-.365-.227a.282.282 0 0 1 .07-.258c.157-.233.271-.494.335-.77.075-.32.21-.621.398-.888.098-.127.21-.249.316-.369.291-.326.592-.661.654-1.053.076-.69.082-1.388.018-2.08l-.018-.317a18.435 18.435 0 0 0-.298-2.117 13.69 13.69 0 0 1-.282-2.231c.015-1.02-.043-2.31-.05-2.465l-1.205-3.685a.12.12 0 0 1 .011-.095.113.113 0 0 1 .078-.052l3.47-.555a.105.105 0 0 1 .082.02.114.114 0 0 1 .045.078c.184 1.379.327 2.342.431 3.046l.116.795c.015.116.037.254.06.41.158 1.02.445 2.92.222 4.817a412.373 412.373 0 0 1-.84 6.039c-.12.836-.207 1.438-.223 1.585-.064.523-.196.845-.445 1.076a.775.775 0 0 1-.63.166.726.726 0 0 1-.368.11l-.33-.04a.768.768 0 0 1-.525.335Zm-.5-.371c.152.067.312.116.476.145.171.022.358-.202.416-.29a.108.108 0 0 1 .107-.05l.391.05a.737.737 0 0 0 .263-.105.122.122 0 0 1 .084-.013.564.564 0 0 0 .474-.102c.2-.19.311-.471.369-.936.02-.154.107-.758.222-1.585.263-1.812.657-4.562.839-6.034.222-1.866-.056-3.746-.222-4.756-.023-.157-.045-.295-.06-.413-.032-.226-.07-.477-.116-.792-.102-.68-.24-1.615-.416-2.945l-3.227.514 1.167 3.575v.03c0 .013.067 1.406.05 2.49.032.736.126 1.468.28 2.188.139.71.24 1.427.3 2.148l.018.314c.066.709.058 1.423-.023 2.13-.07.453-.393.82-.707 1.168-.105.118-.222.238-.307.358a2.343 2.343 0 0 0-.336.815c-.07.304-.198.59-.373.845-.032.039-.032.055-.032.055.07.036.146.064.223.081.133.043.296-.095.35-.152a.108.108 0 0 1 .141-.015.11.11 0 0 1 .038.14c-.078.182-.14.37-.184.564-.05.199-.12.392-.205.578Z" fill="#263238"/><path d="M87.863 60.21a.104.104 0 0 1-.045 0 .113.113 0 0 1-.058-.062.115.115 0 0 1 .003-.087l.333-.77a.114.114 0 0 1 .062-.06.11.11 0 0 1 .144.064c.01.028.01.059-.001.087l-.336.77a.11.11 0 0 1-.102.059Z" fill="#263238"/><path d="M59.251 80.837s.74 2.3 1.074 2.98c.334.68 1.148 2.301 1.26 2.639.11.337 0 .566-.481.68a2.444 2.444 0 0 1-1.221-.145 2.485 2.485 0 0 1-1.003-.723c-.705-.83-1.112-1.812-1.37-2.111-.258-.3-1.001-.415-.89-1.434.108-.7.36-1.368.74-1.961l1.891.075Z" fill="#fff"/><path d="M60.773 87.279a2.63 2.63 0 0 1-1.088-.255 2.673 2.673 0 0 1-.891-.685 9.657 9.657 0 0 1-1.015-1.536 4.54 4.54 0 0 0-.356-.575 1.214 1.214 0 0 0-.249-.195c-.32-.21-.756-.5-.667-1.327a5.124 5.124 0 0 1 .76-2.012.122.122 0 0 1 .096-.05l1.889.075a.114.114 0 0 1 .102.08c0 .022.74 2.298 1.068 2.962l.222.433c.403.817.956 1.936 1.052 2.224a.598.598 0 0 1-.013.491.789.789 0 0 1-.55.333c-.118.026-.239.038-.36.037Zm-3.356-6.399a4.903 4.903 0 0 0-.688 1.86c-.075.68.265.906.566 1.11.108.06.207.137.295.226.144.193.272.397.383.612.282.53.613 1.033.99 1.499.647.765 1.623.947 2.113.831a.594.594 0 0 0 .404-.226.392.392 0 0 0 0-.31c-.089-.272-.667-1.428-1.04-2.193l-.223-.433c-.303-.616-.923-2.512-1.054-2.92l-1.746-.056Z" fill="#263238"/><path d="M61.101 87.139c.367-.086.518-.238.52-.453-.833.065-2.155-.34-2.63-1.051-.557-.83-1.075-1.885-1.557-2.224a12.384 12.384 0 0 1-.817-.657c-.095.996.634 1.11.89 1.411.256.301.667 1.282 1.37 2.11.27.323.615.57 1.004.721.389.151.808.2 1.22.143Z" fill="#fff"/><path d="M60.775 87.275a2.63 2.63 0 0 1-1.088-.254 2.673 2.673 0 0 1-.892-.686 9.657 9.657 0 0 1-1.014-1.535 4.54 4.54 0 0 0-.356-.575 1.212 1.212 0 0 0-.249-.195c-.316-.209-.747-.496-.667-1.303a.106.106 0 0 1 .067-.093.103.103 0 0 1 .113.019c.358.303.63.523.81.65.353.249.71.838 1.087 1.463.163.265.327.539.496.79.445.653 1.695 1.065 2.532 1.001a.114.114 0 0 1 .084.032.116.116 0 0 1 .036.084c0 .423-.459.53-.608.566a1.585 1.585 0 0 1-.351.036Zm-4.053-4.303c.023.5.314.693.577.867a1.3 1.3 0 0 1 .293.227c.144.192.272.397.383.611.282.531.613 1.034.99 1.5.647.765 1.623.947 2.112.831.254-.059.363-.143.405-.226-.89.025-2.117-.41-2.584-1.108-.17-.254-.338-.532-.5-.8-.365-.602-.71-1.173-1.026-1.395-.156-.093-.371-.265-.65-.507ZM48.534 41.904l-.827 6.91h-1.141s-.983 9.334-.827 9.388c.155.055 11.343 2.637 11.343 2.637l1.088-11.71-9.427-.526.83-6.794-1.039.095Z" fill="#263238"/><path d="M57.075 60.955h-.013c-1.146-.265-11.197-2.589-11.343-2.64-.12-.042-.183-.062.28-4.834.222-2.313.47-4.65.474-4.675a.111.111 0 0 1 .035-.071.107.107 0 0 1 .073-.029h1.041l.819-6.81a.11.11 0 0 1 .032-.067.106.106 0 0 1 .066-.03l1.036-.107a.118.118 0 0 1 .091.034.115.115 0 0 1 .03.093l-.815 6.683 9.309.521a.102.102 0 0 1 .077.039.114.114 0 0 1 .027.084l-1.087 11.71a.112.112 0 0 1-.045.079.105.105 0 0 1-.087.02Zm-11.248-2.842c.717.176 7.44 1.732 11.15 2.59l1.066-11.474-9.31-.52a.105.105 0 0 1-.08-.039.115.115 0 0 1-.025-.088l.812-6.662-.81.082-.819 6.82a.114.114 0 0 1-.036.07.11.11 0 0 1-.072.03h-1.041c-.363 3.463-.866 8.563-.834 9.19Z" fill="#263238"/><path d="M43.952 53.831s.296-1.848.073-2.337c-.222-.49-2.482-.867-3.888-.566-1.406.301-3.223 1.207-3.336 1.735-.114.527.371.491 1.074.566.703.075 2.11.152 2.63.34.387.183.729.454 1 .79 0 0 .854-1.284 2.447-.528Z" fill="#fff"/><path d="M41.51 54.472a.109.109 0 0 1-.087-.041 2.738 2.738 0 0 0-.952-.757c-.378-.138-1.27-.226-1.988-.276-.223-.02-.445-.039-.614-.057l-.263-.027c-.411-.036-.71-.063-.852-.258a.499.499 0 0 1-.057-.417c.127-.605 2.017-1.522 3.418-1.823 1.401-.301 3.755.059 4.004.63.222.507-.036 2.21-.067 2.403a.115.115 0 0 1-.058.084.115.115 0 0 1-.098 0c-1.485-.705-2.273.439-2.306.489a.105.105 0 0 1-.087.047l.007.003Zm-.203-3.543a5.625 5.625 0 0 0-1.147.107c-1.508.324-3.16 1.232-3.248 1.649a.299.299 0 0 0 .018.226c.085.116.367.14.694.17l.265.025.611.056c.73.064 1.638.14 2.044.29a2.7 2.7 0 0 1 .96.723c.284-.335.669-.567 1.095-.66.425-.093.87-.042 1.264.146.087-.587.222-1.785.062-2.13-.133-.29-1.388-.602-2.618-.602Z" fill="#263238"/><path d="M43.246 51.795c.325.134.619.227.861.318.012-.21-.016-.42-.082-.619-.223-.491-2.483-.867-3.888-.566-1.406.301-3.223 1.207-3.336 1.735-.05.227.015.353.164.426a3.3 3.3 0 0 1 1.577-1.18c1.446-.566 3.779-.49 4.704-.114Z" fill="#fff"/><path d="M36.968 53.201a.12.12 0 0 1-.047-.011.46.46 0 0 1-.222-.55c.126-.605 2.017-1.523 3.418-1.824 1.401-.301 3.755.059 4.004.63.072.213.103.438.09.663a.113.113 0 0 1-.043.093.108.108 0 0 1-.1.016c-.29-.095-.584-.202-.868-.317-.854-.349-3.174-.453-4.622.113a3.19 3.19 0 0 0-1.526 1.133.117.117 0 0 1-.084.054Zm4.339-2.265a5.63 5.63 0 0 0-1.148.1c-1.508.324-3.16 1.232-3.247 1.649a.276.276 0 0 0 .027.246c.405-.517.945-.909 1.557-1.132 1.428-.56 3.78-.519 4.784-.111.222.093.47.181.703.263a1.15 1.15 0 0 0-.067-.413c-.124-.296-1.379-.609-2.609-.609v.007ZM48.391 52.666s-1.074 2.376-1.185 3.696a80.242 80.242 0 0 1-.296 2.79l-.556 2.793s-2.184-7.021-2.295-7.62a1.175 1.175 0 0 0-.297-.665 1.138 1.138 0 0 0-.629-.353c-.482-.114-1.519-.037-1.703.34a.718.718 0 0 0 .073.715s-.184.077-.038.53c.129.323.318.618.556.868 0 0 1.37 7.503 1.78 9.202.409 1.699 2.927 4.79 3.296 4.487.37-.304 6.005-9.164 6.112-9.239.107-.075.89-1.284.89-1.284s.667 5.545 1.259 7.771c.591 2.227 1.22 4.94 1.22 4.94s-.629 1.735-.555 3.13c.073 1.395 1.407 5.733 1.407 5.733s-.258.378-.222.53c.036.151.111.376.111.376.17.041.344.066.518.074.334-.004.662-.082.964-.226l.444-.15c.057-.375.094-.753.112-1.132 0-.376.667-8.788.705-9.513.038-.725.998-6.412.591-9.24-.407-2.83-1-5.921-1-5.921l.037-1.396-10.925-1.773-.374.537Z" fill="#263238"/><path d="M57.925 81.597h-.093a2.885 2.885 0 0 1-.545-.082.107.107 0 0 1-.07-.07s-.075-.226-.113-.385c-.038-.158.114-.43.207-.575-.158-.519-1.334-4.38-1.394-5.708-.06-1.327.46-2.89.549-3.144-.073-.314-.667-2.838-1.214-4.903-.508-1.907-1.075-6.29-1.224-7.475a9.093 9.093 0 0 1-.747 1.047c-.062.075-.928 1.411-1.842 2.827-2.275 3.517-4.034 6.221-4.261 6.407a.242.242 0 0 1-.247.025c-.71-.247-2.85-2.994-3.227-4.573-.39-1.624-1.673-8.627-1.78-9.175a2.707 2.707 0 0 1-.558-.888c-.105-.32-.06-.492 0-.58a.803.803 0 0 1-.031-.75c.222-.453 1.334-.518 1.828-.4.262.053.5.188.682.388.181.199.296.452.328.721.093.505 1.692 5.663 2.164 7.187l.47-2.362s.184-1.475.293-2.777c.109-1.302 1.152-3.638 1.197-3.735v-.018l.371-.528a.103.103 0 0 1 .109-.045l10.925 1.771a.11.11 0 0 1 .068.04.114.114 0 0 1 .026.075l-.036 1.384c.04.215.607 3.205.996 5.914.325 2.24-.206 6.272-.462 8.208-.07.526-.12.906-.127 1.056-.018.315-.158 2.142-.305 4.077-.187 2.441-.4 5.209-.4 5.417-.017.385-.054.768-.111 1.149a.113.113 0 0 1-.076.09l-.445.152a2.518 2.518 0 0 1-.905.238Zm-.516-.288c.147.028.296.047.445.06.314-.013.622-.09.905-.227l.392-.134c.051-.347.085-.696.1-1.046 0-.216.204-2.87.4-5.436.149-1.934.287-3.76.305-4.077 0-.156.057-.541.129-1.072.253-1.927.783-5.936.465-8.153a148.493 148.493 0 0 0-1.001-5.916c-.007-.027 0-.016 0-.025l.035-1.296-10.763-1.746-.322.453c-.076.168-1.068 2.405-1.172 3.649-.11 1.307-.296 2.781-.296 2.797l-.558 2.8a.115.115 0 0 1-.029.081.11.11 0 0 1-.157.008.114.114 0 0 1-.037-.078c-.089-.288-2.188-7.022-2.3-7.633a1.063 1.063 0 0 0-.269-.608 1.03 1.03 0 0 0-.573-.32c-.474-.112-1.435-.017-1.58.278a.611.611 0 0 0 .063.598.112.112 0 0 1 .02.1.11.11 0 0 1-.068.075c-.015.013-.06.117.03.386.123.306.301.585.527.823a.125.125 0 0 1 .031.059c.013.077 1.375 7.521 1.78 9.197.404 1.677 2.76 4.494 3.127 4.422.222-.18 2.615-3.894 4.206-6.342 1.697-2.62 1.855-2.856 1.904-2.89.048-.034.493-.68.858-1.25a.108.108 0 0 1 .051-.044.104.104 0 0 1 .067-.004.109.109 0 0 1 .057.034.112.112 0 0 1 .027.061c0 .057.668 5.563 1.257 7.755.59 2.193 1.217 4.918 1.223 4.945a.104.104 0 0 1 0 .063c0 .018-.62 1.73-.549 3.087.071 1.357 1.39 5.663 1.403 5.703a.113.113 0 0 1-.015.1c-.1.128-.17.277-.205.437.022.116.063.25.087.326Z" fill="#263238"/><path d="M46.323 62.285a30.683 30.683 0 0 0-.667 4.224Z" fill="#fff"/><path d="M45.659 66.62a.106.106 0 0 1-.078-.037.112.112 0 0 1-.027-.083c.124-1.428.347-2.846.668-4.242a.116.116 0 0 1 .092-.088.111.111 0 0 1 .085.02.116.116 0 0 1 .046.075.117.117 0 0 1-.001.045 30.992 30.992 0 0 0-.667 4.206.114.114 0 0 1-.038.077.11.11 0 0 1-.08.027Z" fill="#263238"/><path d="M51.251 34.52s-2.146 2.34-2.962 3.133c-.817.793-6.037 7.7-6.11 7.882-.074.181-.15 2.15 1.443 1.735 1.593-.415 5.15-3.884 5.15-3.884s1.961 1.017 2.368 1.621a1.962 1.962 0 0 1 .187 1.735c-.15.49-2.816 5.28-2.927 5.92 0 0 1.112 2.227 5.222 2.34 4.11.114 5.963-.754 6.075-1.094.075-.32.112-.65.11-.98 0 0 .185-5.092.074-7.13-.111-2.039.076-3.771-.48-6.901-.556-3.13-.63-3.624-.63-3.624s2.038-3.998 3.592-7.09c1.555-3.091 1.889-4.829 1.482-5.356-.407-.528-1.927-.68-2.925.906-.999 1.585-2.298 4.828-2.816 5.546a11.716 11.716 0 0 1-2.482 2.376c-.89.603-2.111 1.244-2.111 1.244s-1.926.867-2.26 1.622Z" fill="#fff"/><path d="M54.33 55.127h-.714c-4.13-.115-5.272-2.308-5.318-2.4a.118.118 0 0 1 0-.073c.069-.394 1.005-2.186 1.835-3.764.531-1.017 1.036-1.98 1.094-2.17.194-.643.138-1.18-.171-1.638-.345-.51-1.909-1.359-2.26-1.549-.48.467-3.63 3.465-5.14 3.85-.534.141-.952.044-1.237-.29-.445-.511-.4-1.438-.338-1.585.098-.247 5.363-7.168 6.139-7.927.776-.759 2.771-2.922 2.945-3.112.367-.78 2.224-1.626 2.308-1.66 0 0 1.221-.644 2.096-1.237a11.539 11.539 0 0 0 2.446-2.349c.404-.691.766-1.408 1.083-2.145a34.932 34.932 0 0 1 1.729-3.397c.505-.804 1.232-1.284 2.001-1.32a1.312 1.312 0 0 1 1.112.405c.496.64-.04 2.639-1.47 5.479a1628.525 1628.525 0 0 1-3.574 7.057c.024.159.149.906.623 3.581a28.57 28.57 0 0 1 .445 5.196c0 .584.015 1.133.046 1.721.111 2.019-.07 7.087-.073 7.14.001.34-.038.68-.118 1.01-.16.419-1.95 1.177-5.49 1.177Zm-5.816-2.491c.162.276 1.396 2.14 5.115 2.244 4.126.116 5.89-.779 5.968-1.016.07-.31.105-.627.104-.945 0-.056.185-5.114.074-7.123-.032-.589-.038-1.144-.047-1.73a28.465 28.465 0 0 0-.443-5.147c-.55-3.096-.63-3.623-.631-3.623a.131.131 0 0 1 .01-.07c.023-.04 2.056-4.032 3.595-7.09 1.608-3.2 1.826-4.802 1.492-5.234a1.135 1.135 0 0 0-.927-.32c-.687.032-1.35.476-1.817 1.217a34.676 34.676 0 0 0-1.722 3.368c-.462.99-.86 1.846-1.112 2.18a11.76 11.76 0 0 1-2.509 2.404c-.89.6-2.108 1.246-2.122 1.253-.013.006-1.897.86-2.208 1.567a.095.095 0 0 1-.02.032c-.023.022-2.16 2.348-2.967 3.134-.808.786-5.946 7.576-6.088 7.848-.029.082-.089.917.307 1.36.222.255.565.325 1.01.21 1.546-.401 5.062-3.821 5.098-3.85a.111.111 0 0 1 .126-.021c.083.043 2.002 1.04 2.414 1.658a2.061 2.061 0 0 1 .198 1.832c-.06.202-.46.972-1.112 2.21-.739 1.444-1.673 3.226-1.786 3.663v-.011Z" fill="#263238"/><path d="M59.693 53.91c.076-.322.113-.651.112-.982 0 0 .184-5.091.073-7.13-.111-2.038.076-3.77-.48-6.901-.556-3.13-.63-3.624-.63-3.624l2.002-3.936-2.124-3.056a8.026 8.026 0 0 1-.543.997 11.719 11.719 0 0 1-2.482 2.376c-.89.602-2.11 1.243-2.11 1.243s-1.927.868-2.26 1.622c0 0-2.147 2.34-2.963 3.132-.51.494-2.736 3.373-4.355 5.509l3.545 1.415c.752-.666 1.292-1.191 1.292-1.191s1.962 1.017 2.37 1.622a1.96 1.96 0 0 1 .186 1.734c-.149.49-2.816 5.28-2.927 5.921 0 0 1.112 2.227 5.222 2.34 4.11.113 5.961-.752 6.072-1.092Z" fill="#FFC100"/><path d="M54.333 55.127h-.714c-4.13-.115-5.271-2.308-5.318-2.4a.118.118 0 0 1 0-.073c.07-.394 1.006-2.186 1.835-3.765.532-1.017 1.037-1.98 1.095-2.17.193-.643.137-1.18-.172-1.637-.344-.51-1.908-1.359-2.26-1.55-.157.155-.631.606-1.236 1.133a.111.111 0 0 1-.114.02l-3.547-1.415a.119.119 0 0 1-.067-.077.11.11 0 0 1 .02-.097c1.364-1.812 3.82-4.983 4.369-5.524.771-.75 2.77-2.922 2.944-3.113.367-.779 2.224-1.626 2.309-1.66 0 0 1.221-.643 2.095-1.236a11.54 11.54 0 0 0 2.447-2.35c.2-.311.378-.639.531-.978a.115.115 0 0 1 .092-.063.116.116 0 0 1 .1.048l2.124 3.055a.117.117 0 0 1 0 .118c-.992 1.959-1.853 3.649-1.982 3.904.024.16.149.907.623 3.581a28.58 28.58 0 0 1 .445 5.196c0 .585.015 1.133.046 1.722.111 2.018-.07 7.087-.073 7.139.001.34-.038.68-.118 1.01-.145.423-1.935 1.182-5.474 1.182Zm-5.816-2.491c.162.276 1.397 2.14 5.116 2.244 4.123.113 5.89-.779 5.967-1.017.07-.31.106-.626.105-.944 0-.057.184-5.114.073-7.123-.031-.59-.038-1.144-.047-1.73a28.474 28.474 0 0 0-.442-5.147c-.55-3.096-.63-3.624-.632-3.624a.131.131 0 0 1 .011-.07s.906-1.776 1.969-3.875l-1.978-2.845a6.405 6.405 0 0 1-.469.843 11.761 11.761 0 0 1-2.509 2.403c-.89.6-2.108 1.245-2.122 1.252-.013.007-1.897.86-2.208 1.568a.097.097 0 0 1-.02.031c-.023.023-2.16 2.349-2.967 3.135-.465.453-2.447 3.003-4.255 5.377l3.336 1.334c.716-.634 1.232-1.133 1.237-1.133a.11.11 0 0 1 .127-.02c.082.043 2.001 1.04 2.413 1.658a2.063 2.063 0 0 1 .198 1.832c-.06.202-.46.972-1.113 2.21-.742 1.432-1.677 3.215-1.79 3.652v-.011Z" fill="#263238"/><path d="M48.772 43.502a.112.112 0 0 1-.098-.059.11.11 0 0 1 .029-.143l1.628-1.32a.11.11 0 0 1 .149.024.115.115 0 0 1-.011.153l-1.112.906 2.05-.725a.11.11 0 0 1 .086.005.113.113 0 0 1 .057.065c.01.029.008.06-.005.087a.112.112 0 0 1-.064.058l-2.669.942a.098.098 0 0 1-.04.007ZM58.772 35.394a.111.111 0 0 1-.107-.11l-.111-3.204a.116.116 0 0 1 .03-.082.112.112 0 0 1 .077-.036c.03 0 .058.01.08.03.02.021.034.049.035.079l.058 1.69.276-2.454a.115.115 0 0 1 .081-.096.11.11 0 0 1 .118.04.116.116 0 0 1 .024.084l-.445 3.959a.111.111 0 0 1-.038.073.108.108 0 0 1-.078.027Z" fill="#263238"/><path d="M63.956 24.074s.173-.851-.107-1.24c-.28-.39-1.185-.501-2.302-.04-1.116.463-6.74 3.237-7.264 3.77-.525.532-1.815 2.312-1.815 2.312l2.164 1.884c.226-.42.413-.86.558-1.315.14-.535-.104-2.039-.104-2.039s3.736-1.386 4.715-1.386c.979 0 3.003-.854 3.421-1.28" fill="#fff"/><path d="M54.615 30.88a.117.117 0 0 1-.072-.026L52.39 28.96a.114.114 0 0 1-.017-.154c.053-.073 1.303-1.792 1.826-2.324.558-.568 6.259-3.363 7.3-3.794 1.2-.498 2.135-.337 2.433.077.298.415.133 1.294.126 1.332a.116.116 0 0 1-.049.073.112.112 0 0 1-.157-.033.117.117 0 0 1-.016-.087c.045-.227.118-.868-.087-1.151-.242-.335-1.087-.453-2.173 0-1.187.491-6.723 3.232-7.224 3.744-.445.453-1.481 1.853-1.744 2.213l1.98 1.723c.196-.372.359-.763.485-1.166.131-.503-.105-1.964-.107-1.98a.116.116 0 0 1 .014-.075.111.111 0 0 1 .057-.05c.154-.056 3.766-1.392 4.753-1.392.952 0 2.938-.836 3.337-1.248a.11.11 0 0 1 .18.037.114.114 0 0 1-.025.124c-.445.453-2.482 1.313-3.498 1.313-.868 0-4.026 1.133-4.591 1.348.053.34.222 1.504.089 1.982-.149.464-.34.913-.57 1.34a.115.115 0 0 1-.077.057l-.02.012Z" fill="#263238"/><path d="M50.027 34.075s.95.935 1.172 1.32c.295.407.703.714 1.172.881.47.167.977.186 1.457.054 1.36-.387.727-2.321.631-2.416-.095-.095-1.519.74-2.406.611a19.47 19.47 0 0 1-2.026-.45Z" fill="#fff"/><path d="M53.175 36.543a2.561 2.561 0 0 1-1.162-.292 2.611 2.611 0 0 1-.91-.79c-.212-.37-1.144-1.29-1.153-1.299a.114.114 0 0 1 .033-.189.11.11 0 0 1 .074-.003c.662.188 1.334.34 2.013.453.551.081 1.365-.252 1.852-.453.408-.168.532-.227.617-.131.25.526.321 1.122.2 1.694a1.23 1.23 0 0 1-.32.58c-.156.16-.354.273-.57.326-.219.065-.445.1-.674.104Zm-2.784-2.252c.327.322.624.673.89 1.05a2.38 2.38 0 0 0 1.118.828c.446.158.927.177 1.383.055a.97.97 0 0 0 .428-.23.995.995 0 0 0 .266-.41c.21-.586-.013-1.358-.095-1.558-.08.023-.243.089-.39.148-.54.226-1.356.555-1.968.466a18.613 18.613 0 0 1-1.633-.349Z" fill="#263238"/><path d="M47.208 28.045s-.538 1.71-1.112 2.097c-.574.387-2.756-.967-4.686-.419-1.93.548-2.376 2.492-2.311 2.999.027.284.113.56.254.806.03-.448.172-.881.41-1.259a2.783 2.783 0 0 1 1.044-.838s-1.677 2.29-.505 3.837c.318.437.742.782 1.23 1.003.488.22 1.024.309 1.555.256-.094 0-.632-.419-.538-.838.093-.419.76-.935.76-.935s-.411 1.359.158 1.773c.57.415 2.67 1.418 4.306.87 1.637-.548 2.978-2.945 2.63-3.74-.35-.795-1.711-2.944-1.235-3.71.272-.415.445-.89.507-1.386 0 0-.412-.838-1.203-.935a1.532 1.532 0 0 0-1.264.419Z" fill="#263238"/><path d="M46.727 37.676a6.508 6.508 0 0 1-3.321-1.051c-.445-.322-.37-1.096-.282-1.55a1.63 1.63 0 0 0-.463.646c-.074.32.347.68.445.7a.102.102 0 0 1 .098.088.116.116 0 0 1-.01.075.112.112 0 0 1-.053.052c-.12.059-1.78.21-2.924-1.291-.926-1.223-.18-2.845.253-3.583-.237.154-.445.35-.614.58-.225.36-.36.772-.391 1.198a.112.112 0 0 1-.023.065.108.108 0 0 1-.057.039.109.109 0 0 1-.116-.045 2.12 2.12 0 0 1-.271-.854c-.065-.521.353-2.544 2.393-3.121 1.156-.33 2.413.011 3.336.26.605.163 1.126.306 1.321.172.445-.299.919-1.572 1.066-2.038a.119.119 0 0 1 .024-.043 1.636 1.636 0 0 1 1.361-.453c.841.102 1.27.96 1.288.997a.123.123 0 0 1 .014.056 3.377 3.377 0 0 1-.525 1.44c-.334.546.4 1.957.89 2.89.148.284.275.53.355.714.131.301.065.786-.189 1.36-.42.957-1.383 2.155-2.507 2.531-.355.114-.726.17-1.098.166Zm-3.414-3.035a.11.11 0 0 1 .107.145c-.11.355-.297 1.345.117 1.648.563.415 2.607 1.387 4.206.857 1.059-.354 1.973-1.497 2.373-2.41.223-.5.29-.943.187-1.178-.075-.177-.202-.42-.347-.698-.543-1.04-1.283-2.46-.89-3.116.254-.393.42-.837.488-1.303-.076-.138-.459-.767-1.101-.847a1.418 1.418 0 0 0-1.157.367c-.073.227-.583 1.749-1.143 2.13-.28.19-.792.05-1.504-.143-.943-.254-2.115-.573-3.216-.26-1.873.531-2.286 2.416-2.224 2.876.017.14.047.277.089.412.066-.324.193-.632.376-.906a2.9 2.9 0 0 1 1.092-.879.109.109 0 0 1 .132.034.115.115 0 0 1 .001.138c-.017.023-1.614 2.24-.509 3.701.276.374.633.68 1.042.893.409.213.86.33 1.32.34a1.754 1.754 0 0 1-.125-.139.746.746 0 0 1-.184-.632c.102-.453.772-.976.8-.999a.104.104 0 0 1 .07-.031Z" fill="#263238"/><path d="M54.729 31.92c.308-.185.227-.908-.183-1.613-.41-.705-.991-1.126-1.3-.94-.309.185-.227.908.182 1.613.41.706.992 1.127 1.3.94Z" fill="#fff"/><path d="M54.56 32.077c-.37 0-.854-.4-1.228-1.04a2.817 2.817 0 0 1-.374-1.046c-.04-.354.043-.61.223-.723.373-.226.998.195 1.455.979.455.783.515 1.544.142 1.768a.44.44 0 0 1-.218.062Zm-1.037-1.155c.405.695.93 1.032 1.15.905.22-.126.183-.763-.222-1.458s-.928-1.03-1.148-.906c-.107.063-.153.247-.124.5.05.34.168.666.344.959Z" fill="#263238"/><path d="M49.017 28.303s-1.203 1.445-1.07 2.124c.134.68.474.58.474.906 0 .327-.062.838-.062.838s1.677 1.812 2.121 2.265c.445.453 3.134 1.133 3.895.548.76-.584.093-3.17-.191-3.868-.285-.698-1.297-2.265-1.615-2.677-.318-.412-3.14-.942-3.552-.136Z" fill="#fff"/><path d="M53.371 35.314c-1.123 0-2.627-.453-2.978-.804a184.607 184.607 0 0 1-2.124-2.265.114.114 0 0 1-.029-.09s.062-.515.062-.825c0-.086-.029-.117-.113-.197a1.087 1.087 0 0 1-.358-.68c-.132-.697.934-2.02 1.092-2.212.138-.256.476-.41 1-.453.962-.086 2.465.226 2.728.582.289.383 1.334 1.95 1.63 2.702.278.695.998 3.357.153 4.002a1.815 1.815 0 0 1-1.063.24Zm-4.893-3.182c.247.265 1.684 1.812 2.084 2.217.434.453 3.05 1.072 3.75.537.7-.534.062-3.015-.222-3.735-.274-.68-1.27-2.213-1.6-2.65-.18-.238-1.556-.584-2.533-.496-.445.041-.732.161-.827.35l-.014.022c-.324.392-1.147 1.522-1.052 2.038a.873.873 0 0 0 .292.562.451.451 0 0 1 .184.362c-.015.263-.058.653-.073.793h.011Z" fill="#263238"/><path d="M49.932 31.706a.104.104 0 0 1-.038 0 .114.114 0 0 1-.063-.058.117.117 0 0 1-.006-.087c.068-.18.177-.343.317-.473.141-.13.31-.225.493-.277a.11.11 0 0 1 .086.016.115.115 0 0 1 .05.073.12.12 0 0 1-.016.087.117.117 0 0 1-.071.05 1.018 1.018 0 0 0-.647.605.112.112 0 0 1-.105.064ZM49.333 31.288a.11.11 0 0 1-.077-.036.114.114 0 0 1-.03-.08 1.35 1.35 0 0 1 .26-.764c.162-.22.387-.385.645-.47a.111.111 0 0 1 .087.011.117.117 0 0 1 .043.16.116.116 0 0 1-.07.055c-.213.07-.4.207-.533.39a1.107 1.107 0 0 0-.21.634.115.115 0 0 1-.038.073.11.11 0 0 1-.077.027ZM52.657 31.673a.106.106 0 0 1-.082-.036.113.113 0 0 1-.033-.08.114.114 0 0 1 .033-.081c.245-.227.14-.403.14-.403a.112.112 0 0 1 .036-.157.107.107 0 0 1 .083-.015.105.105 0 0 1 .068.052.553.553 0 0 1-.178.69.101.101 0 0 1-.067.03ZM52.528 33.452c-.538 0-1.26-.664-1.334-.743a.114.114 0 0 1 .04-.19.11.11 0 0 1 .075.002c.826.328 1.982-.342 2.002-.349a.105.105 0 0 1 .123 0 .113.113 0 0 1 .042.118c-.03.108-.29 1.076-.854 1.148l-.094.014Zm-.838-.619c.282.209.643.42.89.39.246-.03.471-.426.584-.727-.458.229-.963.345-1.474.337ZM52.464 30.159a.106.106 0 0 1-.074-.03.114.114 0 0 1 0-.158.943.943 0 0 1 .866-.263.113.113 0 0 1 .087.09.115.115 0 0 1-.048.116.112.112 0 0 1-.084.018.706.706 0 0 0-.656.19.114.114 0 0 1-.091.037ZM51.77 29.453a.108.108 0 0 1-.078-.034.114.114 0 0 1-.033-.08.113.113 0 0 1 .033-.079 1.147 1.147 0 0 1 1.261-.188.117.117 0 0 1 .06.15.11.11 0 0 1-.145.061.928.928 0 0 0-1.018.136.112.112 0 0 1-.08.034Z" fill="#263238"/><path d="M48.253 29.012s.981-.936 2.225-.485c1.243.45 2.224.709 2.657.322.434-.388.38-1.192.16-1.133-.22.059-.284.195-.475-.097-.192-.293-1.204-1.133-2.85-1.226-1.645-.093-2.786.807-2.755 1.645.03.838.57.97.57.97" fill="#263238"/><path d="M52.505 29.15c-.523 0-1.228-.208-2.071-.516-1.155-.421-2.095.453-2.104.453a.11.11 0 0 1-.078.034.108.108 0 0 1-.078-.034.113.113 0 0 1-.033-.08.116.116 0 0 1 .033-.08c.042-.041 1.045-.977 2.329-.508 1.078.394 2.133.709 2.55.342a.954.954 0 0 0 .292-.716.415.415 0 0 0-.051-.226.444.444 0 0 1-.091.047c-.17.07-.3.098-.487-.185-.187-.283-1.181-1.083-2.763-1.176-.916-.052-1.761.213-2.262.714a1.132 1.132 0 0 0-.376.815c.03.734.468.856.485.86a.113.113 0 0 1 .068.052.117.117 0 0 1-.003.125.109.109 0 0 1-.116.043c-.024 0-.62-.158-.656-1.073a1.368 1.368 0 0 1 .445-.985c.545-.544 1.452-.834 2.43-.775 1.636.095 2.701.906 2.937 1.275.098.15.104.147.222.1.044-.02.09-.036.136-.05a.219.219 0 0 1 .247.124 1.153 1.153 0 0 1-.303 1.199c-.2.158-.45.237-.703.222Z" fill="#263238"/><path d="M47.517 32.93a17.646 17.646 0 0 1-1.005-2.628c-.38-1.358.667-2.58.667-2.58s-.284.807.127 2.266c.31 1.012.713 1.993 1.201 2.93l-.99.012Z" fill="#fff"/><path d="M47.516 33.043a.112.112 0 0 1-.1-.063 17.783 17.783 0 0 1-1.012-2.646c-.392-1.397.643-2.634.687-2.686a.11.11 0 0 1 .14-.023c.023.013.04.034.049.06a.115.115 0 0 1 0 .076s-.267.795.13 2.188c.31 1.006.712 1.98 1.2 2.91a.116.116 0 0 1-.039.153.107.107 0 0 1-.054.015l-.99.016h-.01Zm-.538-4.831c-.265.453-.59 1.239-.36 2.059.256.872.58 1.723.967 2.543h.739a17.15 17.15 0 0 1-1.128-2.79 5.212 5.212 0 0 1-.218-1.812Z" fill="#263238"/><path d="M47.087 32.466s-1.154 1.848-1.188 2.453l-.104 1.884s-2.654 5.37-3.457 7.248c-.803 1.878-.28 2.985.418 3.234.699.25 2.002-.498 2.27-1.1.266-.603 1.99-8.784 2.06-8.96.072-.177 1.153-.499 1.258-.748.244-.402.524-.781.836-1.132.107-.107-.21-.286-.523-.18-.313.107-.418.214-.558.25-.14.036-.165-.73-.165-.73s-.08-2.009-.184-2.505c-.105-.495-.663.286-.663.286Z" fill="#fff"/><path d="M43.071 47.454a1.034 1.034 0 0 1-.352-.056 1.275 1.275 0 0 1-.731-.736c-.285-.664-.198-1.604.249-2.65.77-1.812 3.265-6.868 3.447-7.248 0-.177.072-1.305.105-1.862.035-.625 1.157-2.43 1.203-2.507.094-.13.412-.546.667-.492.072.014.165.07.203.25.104.5.184 2.443.187 2.525.003.204.028.408.075.607a.861.861 0 0 0 .111-.057c.125-.069.255-.127.39-.172a.598.598 0 0 1 .667.14.181.181 0 0 1-.025.227 8.034 8.034 0 0 0-.814 1.103c-.069.163-.338.294-.77.49a2.4 2.4 0 0 0-.49.26c-.02.065-.223.978-.445 2.038-.717 3.289-1.43 6.532-1.61 6.926-.281.585-1.31 1.214-2.067 1.214Zm4.108-14.926c-.318.51-1.141 1.926-1.168 2.397a543.21 543.21 0 0 0-.104 1.884.153.153 0 0 1-.014.046c-.026.052-2.669 5.386-3.454 7.247-.42.988-.51 1.864-.249 2.47a1.09 1.09 0 0 0 .603.613c.625.226 1.862-.453 2.133-1.044.187-.403 1.067-4.455 1.595-6.877a95.1 95.1 0 0 1 .462-2.077c.047-.117.24-.21.603-.376.223-.104.616-.278.667-.373.242-.403.52-.782.83-1.133a.474.474 0 0 0-.378-.022 2.14 2.14 0 0 0-.356.158c-.067.04-.138.07-.211.093a.159.159 0 0 1-.13-.03c-.124-.095-.162-.49-.173-.806 0-.018-.08-2.004-.182-2.491-.014-.064-.031-.077-.031-.077-.065-.016-.272.16-.443.398Z" fill="#263238"/><path d="M49.28 33.148c.603.543.79 1.33.419 1.755-.372.426-1.161.33-1.764-.213s-.788-1.33-.416-1.755c.371-.426 1.161-.333 1.762.213Z" fill="#fff"/><path d="M49.059 35.277a1.834 1.834 0 0 1-1.19-.505 1.984 1.984 0 0 1-.608-.981.96.96 0 0 1 .182-.935.924.924 0 0 1 .89-.295c.384.056.742.23 1.028.496.647.584.839 1.445.427 1.916a.949.949 0 0 1-.73.304Zm-.89-2.492a.717.717 0 0 0-.563.227.807.807 0 0 0-.13.731c.089.338.277.64.54.865.553.501 1.274.6 1.603.227.33-.374.147-1.094-.407-1.586-.25-.24-.567-.399-.907-.453a.928.928 0 0 0-.136-.02v.01Z" fill="#263238"/><path d="M48.937 33.66c.445.415.599 1.01.316 1.334-.282.324-.89.252-1.334-.16-.445-.413-.599-1.01-.316-1.335.282-.324.878-.251 1.334.161Z" fill="#fff"/><path d="M48.762 35.304h-.127a1.569 1.569 0 0 1-.792-.38c-.223-.2-.387-.461-.471-.752a.754.754 0 0 1 .143-.735.725.725 0 0 1 .7-.232c.296.044.573.178.794.385.502.453.647 1.132.327 1.492a.749.749 0 0 1-.574.222Zm-.667-1.898a.52.52 0 0 0-.407.163.583.583 0 0 0-.094.533c.072.248.211.47.4.641.19.172.424.285.675.328a.555.555 0 0 0 .507-.156c.24-.276.102-.804-.307-1.173a1.25 1.25 0 0 0-.668-.329l-.106-.007ZM56.581 37.545a.11.11 0 0 1-.067-.025.113.113 0 0 1-.04-.061 18.47 18.47 0 0 0-1.507-3.783.115.115 0 0 1 .042-.154.11.11 0 0 1 .084-.01.112.112 0 0 1 .067.053 18.791 18.791 0 0 1 1.53 3.837c.007.03.003.06-.012.086a.114.114 0 0 1-.068.052l-.029.005ZM56.434 35.43a.112.112 0 0 1-.105-.071c-.396-.994-1.383-2.376-1.394-2.39a.116.116 0 0 1-.02-.084.116.116 0 0 1 .044-.074.11.11 0 0 1 .156.025c.042.056 1.014 1.418 1.421 2.437a.115.115 0 0 1-.06.147.1.1 0 0 1-.042.01ZM49.179 36.75s7.184 6.902 10.63 12.938v-1.961l-6.302-8.111a49.826 49.826 0 0 0-3.445-3.85l-.883.985Z" fill="#263238"/><path d="M59.809 49.804a.113.113 0 0 1-.096-.057c-3.399-5.952-10.538-12.842-10.612-12.91a.114.114 0 0 1 0-.159l.89-.98a.11.11 0 0 1 .158 0 49.786 49.786 0 0 1 3.454 3.85l6.297 8.11c.016.02.024.045.024.07v1.956a.115.115 0 0 1-.023.068.11.11 0 0 1-.059.04l-.033.012ZM49.335 36.748c.78.762 7.077 6.977 10.362 12.528v-1.509c-.369-.475-4.922-6.341-6.272-8.076a49.247 49.247 0 0 0-3.354-3.756l-.736.813Z" fill="#263238"/><path d="M46.214 34.958s.245-.888.385-.996c.14-.11 1.334-1.493 1.397-.995.062.498-.245.748-.42.924-.176.177-.595.641-.595.641a6.62 6.62 0 0 1-.069.818c-.083.416-.212.82-.384 1.207" fill="#fff"/><path d="M46.525 36.669a.098.098 0 0 1-.045 0 .11.11 0 0 1-.066-.107c.001-.015.005-.03.01-.043.168-.377.294-.772.377-1.177a6.46 6.46 0 0 0 .066-.802.11.11 0 0 1 .032-.077c.015-.02.422-.467.596-.644l.055-.054a.857.857 0 0 0 .331-.775c-.095-.024-.444.268-1.002.857-.07.075-.145.146-.223.213a4.05 4.05 0 0 0-.345.935.117.117 0 0 1-.053.072.113.113 0 0 1-.157-.042.119.119 0 0 1-.012-.089c.075-.279.271-.94.425-1.058.022-.016.106-.104.189-.19.63-.657 1.016-.999 1.24-.924a.223.223 0 0 1 .143.195 1.071 1.071 0 0 1-.398.97l-.051.049c-.145.147-.465.498-.563.607a7.004 7.004 0 0 1-.069.788 5.847 5.847 0 0 1-.393 1.24.115.115 0 0 1-.087.056ZM12.388 47.538s-1.074 9.348-.445 10.215c.63.868 2.776-.09 3.717-.68a53.641 53.641 0 0 1 2.195-1.277l.494-1.316s-1.21-10.724-1.255-10.996c-.044-.272-4.255 1.585-4.568 2.007-.314.421-.138 2.047-.138 2.047Z" fill="#263238"/><path d="M12.785 58.211a1.077 1.077 0 0 1-.936-.391c-.632-.875.307-9.264.425-10.285-.025-.227-.167-1.697.158-2.12.324-.424 4.252-2.175 4.657-2.07a.143.143 0 0 1 .109.113c.044.274 1.208 10.566 1.257 11.005a.104.104 0 0 1 0 .052l-.494 1.316a.119.119 0 0 1-.051.059c-.014 0-1.264.69-2.189 1.273-.56.35-1.935 1.048-2.936 1.048Zm4.202-14.647c-.56.05-4.126 1.658-4.38 1.989-.253.33-.16 1.526-.111 1.97a.046.046 0 0 1 0 .025c-.43 3.742-.91 9.526-.47 10.136.572.79 2.692-.159 3.56-.714.842-.53 1.95-1.132 2.164-1.26l.469-1.25c-.053-.584-1.114-9.974-1.232-10.896Z" fill="#263238"/><path d="M7.504 76.315a20.14 20.14 0 0 0-1.299 2.236 22.07 22.07 0 0 0-.852 2.598c-.133.502-.222.593-.667.045-.445-.548-.985-1.778-.716-3.785s1.334-4.15 1.557-4.059c.222.091 2.16 1.323 2.16 1.323l-.183 1.642Z" fill="#fff"/><path d="M5.118 81.677c-.15 0-.307-.154-.518-.413-.254-.312-1.059-1.508-.743-3.873.251-1.868 1.205-3.916 1.557-4.13a.158.158 0 0 1 .151-.019c.222.093 1.97 1.205 2.169 1.332a.115.115 0 0 1 .05.109l-.18 1.642a.103.103 0 0 1-.017.05c-.475.71-.906 1.45-1.288 2.217-.33.843-.609 1.706-.834 2.584-.07.258-.134.453-.298.496l-.05.005Zm.402-8.218c-.26.186-1.194 2.11-1.44 3.957-.306 2.265.444 3.398.69 3.697.248.299.33.335.35.333.02-.003.06-.077.13-.336.231-.889.517-1.762.855-2.616a20.08 20.08 0 0 1 1.293-2.228l.169-1.543c-.736-.466-1.815-1.144-2.047-1.264Z" fill="#263238"/><path d="M5.76 73.475a3.636 3.636 0 0 0-.222-.125c-.222-.09-1.299 2.053-1.557 4.06-.258 2.006.27 3.238.717 3.784.238.292.375.4.471.365-.278-.698-.807-2.29-.605-3.83.203-1.54.87-3.416 1.197-4.254Z" fill="#fff"/><path d="M5.118 81.674c-.15 0-.31-.154-.518-.41-.254-.312-1.059-1.508-.743-3.873.251-1.868 1.205-3.916 1.557-4.13a.158.158 0 0 1 .151-.019c.083.037.163.08.24.13.023.013.04.035.05.06a.115.115 0 0 1-.003.08c-.294.754-.999 2.677-1.203 4.228-.205 1.552.351 3.15.598 3.771a.122.122 0 0 1 0 .089.108.108 0 0 1-.065.06.22.22 0 0 1-.064.014Zm.402-8.215c-.262.188-1.194 2.11-1.44 3.957-.306 2.265.444 3.398.69 3.697.056.07.114.138.177.201-.307-.847-.685-2.237-.507-3.608.193-1.474.807-3.223 1.183-4.19l-.103-.057Z" fill="#263238"/><path d="M18.434 54.014s-.667 2.92-.583 4.607c.085 1.687.358 3.692.358 3.692l-.402 7.662s-3.359.274-3.941.73c-.583.455-4.702 3.284-5.51 3.603-.384.152-1.207.548-1.207.548s-.808.42-.18 1.325c.627.906 11.823-2.51 12.181-2.555.358-.045 2.507-.82 2.867-1.277.36-.458 2.82-8.983 2.82-8.983l5.285 7.753s-.089 2.233 1.21 3.83c1.3 1.597 3.806 6.066 3.806 6.066l-.09.774s-.889.906-.715 1.642c.173.736 1.163.594 1.79 1.004.627.41 2.15 1.277 2.15 1.277s2.33.906 2.06 0c-.097-.333-1.205-1.672-1.612-2.28a16.637 16.637 0 0 1-1.837-3.511c-.403-1.133-2.462-9.121-2.732-10.17-.269-1.049-1.556-6.385-2.553-9.44-.996-3.056-1.657-4.288-1.657-4.288l-.76-2.097-10.748.088Z" fill="#fff"/><path d="M39.908 86.223c-.587 0-1.46-.326-1.675-.41-.031-.016-1.557-.88-2.17-1.288a2.686 2.686 0 0 0-.76-.29c-.466-.127-.951-.259-1.08-.782-.176-.716.562-1.554.718-1.719l.082-.702c-.222-.406-2.557-4.516-3.78-6.016-1.224-1.5-1.242-3.553-1.235-3.868l-5.131-7.529c-.445 1.54-2.447 8.362-2.776 8.795-.392.498-2.591 1.275-2.94 1.32-.06 0-.545.145-1.157.32-7.411 2.1-10.74 2.754-11.121 2.185a1.117 1.117 0 0 1-.234-.906.958.958 0 0 1 .445-.573 30.75 30.75 0 0 1 1.22-.552c.769-.304 4.861-3.101 5.48-3.586.551-.432 3.336-.695 3.903-.745l.398-7.562s-.269-2.01-.358-3.683c-.089-1.674.558-4.519.585-4.639a.111.111 0 0 1 .039-.062.107.107 0 0 1 .068-.024l10.75-.09a.113.113 0 0 1 .104.072l.76 2.1s.683 1.266 1.66 4.292c.845 2.622 1.921 6.919 2.38 8.756.077.303.135.541.175.69.023.089 2.3 8.947 2.727 10.161a16.415 16.415 0 0 0 1.824 3.486c.151.226.398.55.667.895.545.718.908 1.204.97 1.415a.391.391 0 0 1-.078.424.658.658 0 0 1-.46.115ZM24.837 63.248a.113.113 0 0 1 .09.047l5.285 7.753c.014.021.02.045.02.07 0 .02-.07 2.21 1.184 3.753 1.29 1.586 3.78 6.036 3.819 6.082a.125.125 0 0 1 .013.07l-.089.775a.13.13 0 0 1-.033.067s-.848.875-.688 1.534c.098.394.48.496.923.618.289.06.566.168.821.317.618.403 2.129 1.264 2.144 1.273.645.252 1.67.526 1.882.322.016-.012.058-.052.018-.19-.056-.189-.54-.83-.932-1.344-.263-.346-.512-.68-.667-.906a16.611 16.611 0 0 1-1.85-3.535c-.432-1.223-2.712-10.093-2.734-10.181l-.176-.693c-.458-1.832-1.533-6.115-2.376-8.74-.97-3.006-1.641-4.254-1.648-4.268l-.743-2.038-10.58.09c-.109.494-.64 2.997-.56 4.487.088 1.663.353 3.665.358 3.685l-.399 7.683a.114.114 0 0 1-.031.073.11.11 0 0 1-.07.033c-.926.075-3.428.35-3.884.707-.52.408-4.689 3.284-5.536 3.624-.376.15-1.192.54-1.201.544a.731.731 0 0 0-.338.425.922.922 0 0 0 .202.73c.31.453 3.972-.317 10.898-2.276.774-.227 1.113-.318 1.19-.327.35-.043 2.447-.808 2.792-1.234.253-.322 1.815-5.527 2.802-8.944a.116.116 0 0 1 .09-.082l.004-.004Z" fill="#263238"/><path d="M22.715 70.534a.09.09 0 0 1-.033 0l-4.847-1.604a.115.115 0 0 1-.078-.113l.343-6.503s-.269-2.008-.358-3.682c-.089-1.674.558-4.519.585-4.639a.11.11 0 0 1 .107-.086l10.75-.09a.113.113 0 0 1 .104.072l.76 2.1s.683 1.266 1.66 4.292c.823 2.55 1.868 6.713 2.21 8.08a.115.115 0 0 1-.046.125 16.531 16.531 0 0 1-4.27 1.935.11.11 0 0 1-.122-.045l-4.6-6.746c-.272.938-1.335 4.562-2.058 6.838a.11.11 0 0 1-.107.066Zm-4.73-1.812 4.67 1.547c.839-2.625 2.075-6.906 2.089-6.949a.113.113 0 0 1 .089-.081.11.11 0 0 1 .109.047l4.686 6.874a16.26 16.26 0 0 0 4.066-1.841c-.36-1.443-1.381-5.493-2.187-7.989-.97-3.005-1.64-4.253-1.648-4.267l-.743-2.038-10.58.09c-.109.494-.64 2.997-.56 4.487.088 1.663.353 3.665.358 3.685l-.35 6.435Z" fill="#263238"/><path d="M24.837 63.476h-.022a.108.108 0 0 1-.074-.043.11.11 0 0 1-.022-.084l.358-2.782a.113.113 0 0 1 .042-.075.107.107 0 0 1 .083-.022.11.11 0 0 1 .073.043.114.114 0 0 1 .023.084l-.359 2.781a.113.113 0 0 1-.102.097ZM25.42 62.793a.113.113 0 0 1-.109-.144.114.114 0 0 1 .038-.058l1.388-1.184a.11.11 0 0 1 .188.046.116.116 0 0 1-.013.092.113.113 0 0 1-.032.034l-1.397 1.187a.108.108 0 0 1-.062.027ZM23.091 65.94h-.03l-4.434-1.278a.114.114 0 0 1-.07-.054.117.117 0 0 1-.01-.09.118.118 0 0 1 .096-.085c.015-.002.03-.001.044.003l4.275 1.23a1.436 1.436 0 0 1 .016-.523c-.463-.15-2.316-.612-3.497-.906a.116.116 0 0 1-.068-.053.12.12 0 0 1-.014-.085.115.115 0 0 1 .051-.07.112.112 0 0 1 .085-.014c3.708.906 3.71.951 3.714 1.06a.115.115 0 0 1-.055.104 1.944 1.944 0 0 0 0 .618.112.112 0 0 1-.038.102.104.104 0 0 1-.065.04ZM21.959 69.472c-.167 0-.625-.104-2.12-.65a.115.115 0 0 1-.008-.207.11.11 0 0 1 .084-.005c1.461.534 1.888.625 2.002.636.124-.437.8-2.403.89-2.639a.115.115 0 0 1 .056-.064.112.112 0 0 1 .086-.006.107.107 0 0 1 .063.058.112.112 0 0 1 .003.087c-.235.68-.854 2.492-.89 2.675a.17.17 0 0 1-.066.09.173.173 0 0 1-.1.025ZM19.385 68.647h-.04c-.631-.237-1.13-.432-1.13-.432a.111.111 0 0 1-.054-.046.115.115 0 0 1-.017-.07l.27-2.792a.115.115 0 0 1 .039-.078.11.11 0 0 1 .157.015.116.116 0 0 1 .026.083l-.27 2.698c.163.063.566.226 1.048.398a.114.114 0 0 1 .067.145.115.115 0 0 1-.096.08ZM19.195 58.187a.108.108 0 0 1-.064-.02.117.117 0 0 1-.034-.143.114.114 0 0 1 .063-.059l.078-.02a2.01 2.01 0 0 0 1.08-.68c.315-.401.566-.85.744-1.331a.11.11 0 0 1 .2-.007.115.115 0 0 1 .009.082 5.046 5.046 0 0 1-.781 1.404c-.31.373-.73.635-1.197.745l-.062.018a.098.098 0 0 1-.036.011ZM18.927 63.61a.106.106 0 0 1-.083-.032.11.11 0 0 1-.032-.084s.022-.21.051-.561a.114.114 0 0 1 .039-.078.11.11 0 0 1 .157.013c.02.023.029.053.026.083-.03.358-.053.57-.053.57a.116.116 0 0 1-.038.062.112.112 0 0 1-.067.027Z" fill="#263238"/><path d="M19.018 62.562a.109.109 0 0 1-.076-.04.115.115 0 0 1-.026-.083 10.56 10.56 0 0 0-.222-2.616c-.223-1.24.507-4.036.538-4.154a.112.112 0 0 1 .051-.068.108.108 0 0 1 .085-.01.11.11 0 0 1 .068.051.114.114 0 0 1 .012.086c0 .028-.752 2.863-.536 4.055.186.877.26 1.775.222 2.672a.112.112 0 0 1-.073.1.105.105 0 0 1-.043.007ZM26.375 59.734a.104.104 0 0 1-.038 0 .109.109 0 0 1-.064-.058.113.113 0 0 1-.003-.087s.178-.503.31-.994c.017-.064 0-.086-.012-.095-.11-.123-.596-.093-.89-.036a.11.11 0 0 1-.108-.044.108.108 0 0 1-.011-.117l.805-1.688a.11.11 0 0 1 .107-.064.107.107 0 0 1 .042.012.111.111 0 0 1 .056.065.115.115 0 0 1-.005.087l-.714 1.492c.274-.033.71-.052.89.139a.317.317 0 0 1 .062.31c-.133.5-.316 1.006-.316 1.012a.114.114 0 0 1-.111.066ZM29.586 69.495a.104.104 0 0 1-.091-.05l-.63-.964a.113.113 0 0 1-.016-.086.117.117 0 0 1 .048-.072.11.11 0 0 1 .125.001c.012.009.022.02.03.032l.627.974a.115.115 0 0 1-.03.156.105.105 0 0 1-.063.01ZM28.622 68.002a.113.113 0 0 1-.094-.05l-3.07-4.756a.116.116 0 0 1 .033-.158.11.11 0 0 1 .155.033l3.07 4.756a.113.113 0 0 1-.094.175Z" fill="#263238"/><path d="M18.434 54.014s-.667 2.92-.583 4.607c.085 1.687.358 3.692.358 3.692l-.402 7.662s-3.359.274-3.941.73c-.583.455-4.702 3.284-5.51 3.603-.384.152-1.207.548-1.207.548s-.808.42-.18 1.325c.627.906 11.823-2.51 12.181-2.555.358-.045 2.507-.82 2.867-1.277.36-.458 2.82-8.983 2.82-8.983l5.285 7.753s-.089 2.233 1.21 3.83c1.3 1.597 3.806 6.066 3.806 6.066l-.09.774s-.889.906-.715 1.642c.173.736 1.163.594 1.79 1.004.627.41 2.15 1.277 2.15 1.277s2.33.906 2.06 0c-.097-.333-1.205-1.672-1.612-2.28a16.637 16.637 0 0 1-1.837-3.511c-.403-1.133-2.462-9.121-2.732-10.17-.269-1.049-1.556-6.385-2.553-9.44-.996-3.056-1.657-4.288-1.657-4.288l-.76-2.097-10.748.088Z" fill="#fff"/><path d="M39.908 86.223c-.587 0-1.46-.326-1.675-.41-.031-.016-1.557-.88-2.17-1.288a2.686 2.686 0 0 0-.76-.29c-.466-.127-.951-.259-1.08-.782-.176-.716.562-1.554.718-1.719l.082-.702c-.222-.406-2.557-4.516-3.78-6.016-1.224-1.5-1.242-3.553-1.235-3.868l-5.131-7.529c-.445 1.54-2.447 8.362-2.776 8.795-.392.498-2.591 1.275-2.94 1.32-.06 0-.545.145-1.157.32-7.411 2.1-10.74 2.754-11.121 2.185a1.117 1.117 0 0 1-.234-.906.958.958 0 0 1 .445-.573 30.75 30.75 0 0 1 1.22-.552c.769-.304 4.861-3.101 5.48-3.586.551-.432 3.336-.695 3.903-.745l.398-7.562s-.269-2.01-.358-3.683c-.089-1.674.558-4.519.585-4.639a.111.111 0 0 1 .039-.062.107.107 0 0 1 .068-.024l10.75-.09a.113.113 0 0 1 .104.072l.76 2.1s.683 1.266 1.66 4.292c.845 2.622 1.921 6.919 2.38 8.756.077.303.135.541.175.69.023.089 2.3 8.947 2.727 10.161a16.415 16.415 0 0 0 1.824 3.486c.151.226.398.55.667.895.545.718.908 1.204.97 1.415a.391.391 0 0 1-.078.424.658.658 0 0 1-.46.115ZM24.837 63.248a.113.113 0 0 1 .09.047l5.285 7.753c.014.021.02.045.02.07 0 .02-.07 2.21 1.184 3.753 1.29 1.586 3.78 6.036 3.819 6.082a.125.125 0 0 1 .013.07l-.089.775a.13.13 0 0 1-.033.067s-.848.875-.688 1.534c.098.394.48.496.923.618.289.06.566.168.821.317.618.403 2.129 1.264 2.144 1.273.645.252 1.67.526 1.882.322.016-.012.058-.052.018-.19-.056-.189-.54-.83-.932-1.344-.263-.346-.512-.68-.667-.906a16.611 16.611 0 0 1-1.85-3.535c-.432-1.223-2.712-10.093-2.734-10.181l-.176-.693c-.458-1.832-1.533-6.115-2.376-8.74-.97-3.006-1.641-4.254-1.648-4.268l-.743-2.038-10.58.09c-.109.494-.64 2.997-.56 4.487.088 1.663.353 3.665.358 3.685l-.399 7.683a.114.114 0 0 1-.031.073.11.11 0 0 1-.07.033c-.926.075-3.428.35-3.884.707-.52.408-4.689 3.284-5.536 3.624-.376.15-1.192.54-1.201.544a.731.731 0 0 0-.338.425.922.922 0 0 0 .202.73c.31.453 3.972-.317 10.898-2.276.774-.227 1.113-.318 1.19-.327.35-.043 2.447-.808 2.792-1.234.253-.322 1.815-5.527 2.802-8.944a.116.116 0 0 1 .09-.082l.004-.004Z" fill="#263238"/><path d="M40.331 85.708c-.098-.333-1.205-1.671-1.612-2.28a20.142 20.142 0 0 1-.821-1.335c-1.252.474-2.852-.308-2.852-.308s-.89.906-.716 1.642c.174.736 1.163.594 1.79 1.004.628.41 2.152 1.277 2.152 1.277s2.333.913 2.06 0Z" fill="#fff"/><path d="M39.91 86.224c-.587 0-1.459-.326-1.675-.41-.03-.016-1.557-.881-2.17-1.289a2.688 2.688 0 0 0-.759-.29c-.467-.126-.952-.258-1.08-.781-.192-.781.706-1.71.746-1.748a.11.11 0 0 1 .127-.023c.016 0 1.57.754 2.763.303a.113.113 0 0 1 .136.05c.246.44.522.886.816 1.327.15.227.398.55.667.895.545.718.907 1.205.97 1.416a.393.393 0 0 1-.078.423.658.658 0 0 1-.463.127Zm-4.833-4.303c-.182.201-.774.906-.636 1.476.098.394.48.496.923.619.288.06.566.167.82.317.619.403 2.13 1.264 2.145 1.273.645.251 1.67.525 1.882.321.015-.011.057-.052.017-.19-.055-.188-.543-.829-.932-1.343a28.23 28.23 0 0 1-.667-.906c-.28-.419-.543-.84-.78-1.26-1.122.374-2.445-.16-2.772-.305v-.002Z" fill="#263238"/><path d="M36.75 84.156c-.667-.546-1.866-.938-2.427-1.101a.911.911 0 0 0 0 .371c.178.73 1.163.594 1.79 1.004.628.41 2.151 1.277 2.151 1.277s1.066.417 1.67.403c-.851-.469-2.501-1.397-3.184-1.954Z" fill="#fff"/><path d="M39.917 86.226c-.622 0-1.641-.397-1.683-.412-.043-.016-1.557-.882-2.171-1.29a2.686 2.686 0 0 0-.759-.29c-.467-.126-.952-.257-1.08-.78a1.04 1.04 0 0 1 0-.417.105.105 0 0 1 .05-.077.104.104 0 0 1 .09-.014c.631.183 1.792.575 2.464 1.121.712.58 2.46 1.554 3.178 1.944a.117.117 0 0 1 .056.127.113.113 0 0 1-.039.061.11.11 0 0 1-.068.024l-.038.003Zm-1.59-.619c.343.129.694.236 1.05.32-.845-.471-2.109-1.203-2.696-1.683-.587-.48-1.706-.874-2.26-1.042a.71.71 0 0 0 .018.197c.098.394.48.496.923.618.289.06.566.168.821.317.618.404 2.129 1.264 2.144 1.273Z" fill="#263238"/><path d="M31.598 60.307c-.985-3.058-1.657-4.288-1.657-4.288l-.76-2.097-10.748.09s-.667 2.92-.583 4.607c.085 1.688.358 3.692.358 3.692l-.342 6.503 4.846 1.608c.85-2.645 2.125-7.06 2.125-7.06l4.73 6.94a16.46 16.46 0 0 0 4.242-1.92c-.518-2.069-1.457-5.738-2.21-8.075Z" fill="#FFC100"/><path d="M22.715 70.534a.09.09 0 0 1-.033 0l-4.847-1.604a.115.115 0 0 1-.078-.113l.343-6.503s-.269-2.008-.358-3.682c-.089-1.674.558-4.519.585-4.639a.11.11 0 0 1 .107-.086l10.75-.09a.113.113 0 0 1 .104.072l.76 2.1s.683 1.266 1.66 4.292c.823 2.55 1.868 6.713 2.21 8.08a.115.115 0 0 1-.046.125 16.531 16.531 0 0 1-4.27 1.935.11.11 0 0 1-.122-.045l-4.6-6.746c-.272.938-1.335 4.562-2.058 6.838a.11.11 0 0 1-.107.066Zm-4.73-1.812 4.67 1.547c.839-2.625 2.075-6.906 2.089-6.949a.113.113 0 0 1 .089-.081.11.11 0 0 1 .109.047l4.686 6.874a16.26 16.26 0 0 0 4.066-1.841c-.36-1.443-1.381-5.493-2.187-7.989-.97-3.005-1.64-4.253-1.648-4.267l-.743-2.038-10.58.09c-.109.494-.64 2.997-.56 4.487.088 1.663.353 3.665.358 3.685l-.35 6.435Z" fill="#263238"/><path d="M24.837 63.476h-.022a.108.108 0 0 1-.074-.043.11.11 0 0 1-.022-.084l.358-2.782a.113.113 0 0 1 .042-.075.107.107 0 0 1 .083-.022.11.11 0 0 1 .073.043.114.114 0 0 1 .023.084l-.359 2.781a.113.113 0 0 1-.102.097ZM25.42 62.793a.113.113 0 0 1-.109-.144.114.114 0 0 1 .038-.058l1.388-1.184a.11.11 0 0 1 .188.046.116.116 0 0 1-.013.092.113.113 0 0 1-.032.034l-1.397 1.187a.108.108 0 0 1-.062.027ZM23.091 65.94h-.03l-4.434-1.278a.114.114 0 0 1-.07-.054.117.117 0 0 1-.01-.09.118.118 0 0 1 .096-.085c.015-.002.03-.001.044.003l4.275 1.23a1.436 1.436 0 0 1 .016-.523c-.463-.15-2.316-.612-3.497-.906a.116.116 0 0 1-.068-.053.12.12 0 0 1-.014-.085.115.115 0 0 1 .051-.07.112.112 0 0 1 .085-.014c3.708.906 3.71.951 3.714 1.06a.115.115 0 0 1-.055.104 1.944 1.944 0 0 0 0 .618.112.112 0 0 1-.038.102.104.104 0 0 1-.065.04ZM21.959 69.472c-.167 0-.625-.104-2.12-.65a.115.115 0 0 1-.008-.207.11.11 0 0 1 .084-.005c1.461.534 1.888.625 2.002.636.124-.437.8-2.403.89-2.639a.115.115 0 0 1 .056-.064.112.112 0 0 1 .086-.006.107.107 0 0 1 .063.058.112.112 0 0 1 .003.087c-.235.68-.854 2.492-.89 2.675a.17.17 0 0 1-.066.09.173.173 0 0 1-.1.025ZM19.385 68.647h-.04c-.631-.237-1.13-.432-1.13-.432a.111.111 0 0 1-.054-.046.115.115 0 0 1-.017-.07l.27-2.792a.115.115 0 0 1 .039-.078.11.11 0 0 1 .157.015.116.116 0 0 1 .026.083l-.27 2.698c.163.063.566.226 1.048.398a.114.114 0 0 1 .067.145.115.115 0 0 1-.096.08ZM19.195 58.187a.108.108 0 0 1-.064-.02.117.117 0 0 1-.034-.143.114.114 0 0 1 .063-.059l.078-.02a2.01 2.01 0 0 0 1.08-.68c.315-.401.566-.85.744-1.331a.11.11 0 0 1 .2-.007.115.115 0 0 1 .009.082 5.046 5.046 0 0 1-.781 1.404c-.31.373-.73.635-1.197.745l-.062.018a.098.098 0 0 1-.036.011ZM18.927 63.61a.106.106 0 0 1-.083-.032.11.11 0 0 1-.032-.084s.022-.21.051-.561a.114.114 0 0 1 .039-.078.11.11 0 0 1 .157.013c.02.023.029.053.026.083-.03.358-.053.57-.053.57a.116.116 0 0 1-.038.062.112.112 0 0 1-.067.027Z" fill="#263238"/><path d="M19.018 62.562a.109.109 0 0 1-.076-.04.115.115 0 0 1-.026-.083 10.56 10.56 0 0 0-.222-2.616c-.223-1.24.507-4.036.538-4.154a.112.112 0 0 1 .051-.068.108.108 0 0 1 .085-.01.11.11 0 0 1 .068.051.114.114 0 0 1 .012.086c0 .028-.752 2.863-.536 4.055.186.877.26 1.775.222 2.672a.112.112 0 0 1-.073.1.105.105 0 0 1-.043.007ZM26.375 59.734a.104.104 0 0 1-.038 0 .109.109 0 0 1-.064-.058.113.113 0 0 1-.003-.087s.178-.503.31-.994c.017-.064 0-.086-.012-.095-.11-.123-.596-.093-.89-.036a.11.11 0 0 1-.108-.044.108.108 0 0 1-.011-.117l.805-1.688a.11.11 0 0 1 .107-.064.107.107 0 0 1 .042.012.111.111 0 0 1 .056.065.115.115 0 0 1-.005.087l-.714 1.492c.274-.033.71-.052.89.139a.317.317 0 0 1 .062.31c-.133.5-.316 1.006-.316 1.012a.114.114 0 0 1-.111.066ZM29.586 69.495a.104.104 0 0 1-.091-.05l-.63-.964a.113.113 0 0 1-.016-.086.117.117 0 0 1 .048-.072.11.11 0 0 1 .125.001c.012.009.022.02.03.032l.627.974a.115.115 0 0 1-.03.156.105.105 0 0 1-.063.01ZM28.622 68.002a.113.113 0 0 1-.094-.05l-3.07-4.756a.116.116 0 0 1 .033-.158.11.11 0 0 1 .155.033l3.07 4.756a.113.113 0 0 1-.094.175Z" fill="#263238"/><path d="M19.344 37.49s-1.677.294-1.87.294c-.194 0-1.938-.163-2.196.065-.258.23-6.326 6.967-6.326 6.967l2.293 1.742 4.894-2.464.645.032 1.935 9.005s-.483 1.083-.387 1.345c.098.197.243.367.42.494 0 0 4.949 1.38 6.284 1.348 1.334-.032 3.645-.691 3.936-.854.292-.163.999-.79.87-1.382-.13-.591-.483-1.773-.483-1.773l-.947-13.273 3.58-7.82-2.613-1.92-4.003 4.832s-2.905 1.642-3.065 1.939c-.16.297-2.967 1.422-2.967 1.422Z" fill="#ADADAD"/><path d="M24.98 56.43c-1.388 0-6.041-1.295-6.241-1.358a.101.101 0 0 1-.036-.016 1.45 1.45 0 0 1-.458-.546c-.102-.274.242-1.1.373-1.4l-1.91-8.865-.532-.027L11.3 46.66a.112.112 0 0 1-.116 0L8.89 44.918a.11.11 0 0 1-.042-.08.11.11 0 0 1 .029-.088c.246-.274 6.072-6.742 6.332-6.976.205-.18.96-.172 2.033-.106l.235.009c.134 0 1.17-.175 1.842-.292 1.335-.535 2.791-1.187 2.892-1.36.166-.303 2.562-1.673 3.091-1.972l3.988-4.813a.11.11 0 0 1 .149-.02l2.616 1.907a.116.116 0 0 1 .035.14l-3.57 7.794.933 13.234c.04.133.36 1.207.482 1.769.145.666-.627 1.336-.925 1.504-.298.167-2.67.835-3.988.87l-.042-.007Zm-6.168-1.565c.343.096 4.951 1.373 6.208 1.34 1.323-.035 3.634-.698 3.885-.841.252-.143.935-.725.819-1.257-.127-.58-.478-1.753-.483-1.767a.08.08 0 0 1 0-.025l-.936-13.28a.129.129 0 0 1 0-.056l3.543-7.735-2.447-1.791-3.936 4.756a.07.07 0 0 1-.032.025c-1.185.68-2.907 1.703-3.02 1.896-.169.308-2.36 1.198-3.027 1.463h-.02c-.174.03-1.695.297-1.89.297-.038 0-.127 0-.25-.014-1.125-.07-1.755-.052-1.873.052-.197.177-4.114 4.514-6.227 6.865l2.137 1.624 4.844-2.432a.088.088 0 0 1 .054 0l.645.031a.113.113 0 0 1 .104.091l1.935 9.003a.11.11 0 0 1 0 .07c-.222.501-.444 1.133-.384 1.262.082.167.203.313.351.423Z" fill="#263238"/><path d="M28.417 39.143a.108.108 0 0 1-.075-.03.112.112 0 0 1-.034-.074l-.223-3.715a.115.115 0 0 1 .028-.082.11.11 0 0 1 .195.069l.133 2.163.258-3.153a.116.116 0 0 1 .04-.075.108.108 0 0 1 .156.013.113.113 0 0 1 .027.082l-.394 4.693a.114.114 0 0 1-.034.078.109.109 0 0 1-.077.031ZM18.282 45.256a.112.112 0 0 1-.062-.02l-1.484-1.017a.114.114 0 0 1-.042-.134.108.108 0 0 1 .046-.055.104.104 0 0 1 .07-.013l2.13.226a.11.11 0 0 1 .074.042.114.114 0 0 1-.017.158.11.11 0 0 1-.081.025l-1.684-.182 1.112.766a.115.115 0 0 1 .031.156.116.116 0 0 1-.093.048ZM27.368 44.807a.11.11 0 0 1-.077-.032.113.113 0 0 1-.034-.077c-.087-2.22-1.626-7.594-1.64-7.646a.113.113 0 0 1 .036-.12.11.11 0 0 1 .038-.02.109.109 0 0 1 .12.037c.01.011.016.025.02.04.063.226 1.557 5.453 1.648 7.7a.114.114 0 0 1-.064.108.111.111 0 0 1-.042.01h-.005ZM25.645 46.758h-.022a.114.114 0 0 1-.07-.049.118.118 0 0 1-.017-.085 32.18 32.18 0 0 0 .612-5.938c0-.03.012-.06.032-.081a.113.113 0 0 1 .122-.027.11.11 0 0 1 .06.062.112.112 0 0 1 .008.044 32.454 32.454 0 0 1-.614 5.981.113.113 0 0 1-.038.068.11.11 0 0 1-.073.025Z" fill="#263238"/><path d="M24.272 35.267s1.464 1.003.7 6.614c-.762 5.61-8.149 13.315-8.149 13.315l1.03.594s4.344-4.652 6.135-8.666c1.79-4.014 2.106-7.434 2.017-8.528-.089-1.093-.852-3.694-.852-3.694l-.88.365Z" fill="#263238"/><path d="M17.852 55.903a.127.127 0 0 1-.056-.013l-1.03-.594a.121.121 0 0 1-.055-.084.121.121 0 0 1 .031-.095c.073-.075 7.373-7.744 8.12-13.252.74-5.436-.64-6.494-.667-6.505a.113.113 0 0 1-.046-.105.114.114 0 0 1 .069-.092l.89-.365a.115.115 0 0 1 .09 0 .114.114 0 0 1 .058.07c.032.107.765 2.623.854 3.717.078.952-.133 4.35-2.024 8.584-1.779 3.985-6.112 8.65-6.156 8.698a.113.113 0 0 1-.078.036ZM17 55.172l.83.475c.527-.573 4.406-4.872 6.056-8.568 1.862-4.172 2.078-7.601 2.002-8.473-.078-.938-.667-3.029-.812-3.552l-.61.252c.361.416 1.242 1.95.612 6.59-.707 5.226-7.19 12.324-8.078 13.276Z" fill="#263238"/><path d="M19.989 35.673s-.667.2-.807.625c-.14.426-.503 1.276-.503 1.276s.919 1.617 1.477 2.382c.558.766 1.196 2.154 1.392 1.842.196-.313 1.168-2.127 1.197-2.265a.738.738 0 0 1 .333-.426c.112-.03 2.062.736 2.422.822.36.086.196-.2.03-.652-.167-.453-1.644-2.41-2.034-2.863-.389-.453-3.147-1.024-3.507-.74Z" fill="#ADADAD"/><path d="M21.48 41.954c-.209 0-.444-.36-.845-1.049-.187-.31-.38-.632-.562-.886-.56-.76-1.484-2.376-1.484-2.391a.118.118 0 0 1 0-.102s.363-.852.498-1.266c.136-.415.752-.655.866-.68.48-.301 3.211.267 3.64.766.396.453 1.88 2.428 2.053 2.899.025.065.047.127.072.186.104.269.173.453.075.564a.303.303 0 0 1-.305.052c-.169-.041-.649-.227-1.156-.4-.507-.171-1.139-.414-1.235-.42a.783.783 0 0 0-.222.335c-.033.174-1.03 2.013-1.212 2.306a.188.188 0 0 1-.182.086Zm-2.669-4.39c.158.276.948 1.645 1.442 2.322.189.26.384.586.574.906.222.364.516.858.645.933.222-.365 1.132-2.068 1.172-2.218a.843.843 0 0 1 .416-.511c.073-.019.222.022 1.334.43.48.174.977.355 1.132.392a.443.443 0 0 0 .08.013 1.943 1.943 0 0 0-.106-.324 48.834 48.834 0 0 0-.074-.19c-.153-.419-1.574-2.321-2.013-2.829-.382-.453-3.08-.94-3.356-.722a.105.105 0 0 1-.036.018s-.616.188-.734.55c-.117.363-.4 1.035-.476 1.23ZM18.042 32.099a8.427 8.427 0 0 1-.89-2.605c-.222-1.443.779-3.028 1.112-3.085.334-.056.416.623.416.623s2.558-2.745 3.503-2.405c.946.34.138 1.218.138 1.218s2.14-.566 1.946.594c-.193 1.16-.584 1.273-.584 1.273a4.788 4.788 0 0 0-2.418.566c-1.361.68-1.473.793-1.335 1.076.138.283.194.113-.14 1.189s-.445 1.273-.138 1.896c.307.622.334.65-.029.706-.362.057-1.027-.566-1.027-.566l-.554-.48Z" fill="#263238"/><path d="M19.585 33.262c-.405 0-.99-.535-1.059-.598l-.551-.478a.1.1 0 0 1-.025-.03 8.384 8.384 0 0 1-.903-2.634c-.222-1.474.765-3.139 1.203-3.214a.315.315 0 0 1 .256.066c.124.115.21.267.245.435.596-.619 2.589-2.596 3.472-2.279.12.03.231.09.322.175.09.086.158.194.196.315a.935.935 0 0 1-.149.652c.445-.082 1.252-.175 1.617.165a.647.647 0 0 1 .173.62c-.2 1.197-.616 1.36-.667 1.36a4.731 4.731 0 0 0-2.4.555c-.834.416-1.265.652-1.312.795 0 .024 0 .054.029.127.018.038.035.065.049.09.122.208.111.247-.18 1.185l-.085.265c-.264.844-.32 1.019-.062 1.544l.031.064c.19.383.26.525.196.652-.065.127-.194.131-.336.154a.282.282 0 0 1-.06.014Zm-1.441-1.237.54.469c.247.226.72.577.94.541a.762.762 0 0 0 .179-.043 3.965 3.965 0 0 0-.203-.442l-.03-.06c-.299-.61-.223-.866.048-1.715l.085-.267c.271-.877.269-.88.2-1-.016-.029-.036-.06-.056-.104a.384.384 0 0 1-.042-.3c.073-.227.405-.418 1.426-.927.754-.4 1.596-.6 2.446-.58.06-.036.338-.25.492-1.175a.44.44 0 0 0-.105-.42c-.34-.317-1.334-.142-1.701-.047a.11.11 0 0 1-.125-.052.115.115 0 0 1 .016-.136c.098-.107.34-.453.28-.702-.035-.143-.162-.252-.376-.33-.72-.26-2.687 1.628-3.383 2.377a.113.113 0 0 1-.115.03.107.107 0 0 1-.076-.093.915.915 0 0 0-.202-.503.095.095 0 0 0-.087-.023c-.256.044-1.235 1.563-1.019 2.945.15.895.443 1.759.868 2.557Z" fill="#263238"/><path d="M19.825 28.616s-1.167 1.613-.918 1.556c.249-.057.723-.566.696-.057-.027.51-.64 1.303-.556 1.473.084.17.556 1.019.36 1.132-.195.113-.304.14-.389.057-.085-.084-.5-.567-.972-.68-.471-.113-.778.707-.527 1.3.251.594 1.584.906 1.584.906l.611.17.111 1.812s2.029 2.523 2.418 2.976c.39.453.917.96 1.028.65.11-.31 1-4.64 1-4.64s1.444-.284 1.529-1.273c.084-.99-.14-3.199-.861-4.558-.72-1.359-1.03-1.782-2.14-1.839-1.11-.056-2.696.562-2.974 1.015Z" fill="#fff"/><path d="M23.141 40.119c-.115 0-.38-.084-.983-.786-.385-.453-2.4-2.945-2.42-2.974a.11.11 0 0 1-.024-.066l-.107-1.73-.534-.15c-.053 0-1.388-.328-1.657-.97a1.316 1.316 0 0 1 .14-1.26.506.506 0 0 1 .514-.195c.387.131.732.366.999.679l.029.03c.015.015.044.047.253-.075 0-.028 0-.193-.36-.895l-.045-.088c-.06-.125.023-.297.203-.646.166-.27.282-.57.342-.883a.23.23 0 0 0 0-.113c-.083.04-.164.085-.242.136a1.13 1.13 0 0 1-.307.151.133.133 0 0 1-.147-.056c-.044-.068-.124-.193.948-1.674.309-.492 1.944-1.133 3.071-1.07 1.128.064 1.495.513 2.224 1.899.712 1.338.966 3.545.877 4.62-.08.943-1.237 1.285-1.546 1.36-.12.584-.89 4.287-.99 4.584a.242.242 0 0 1-.238.172Zm-3.207-3.876c.222.279 2.03 2.519 2.39 2.945.506.586.78.73.83.706a.074.074 0 0 0 .012-.02c.084-.24.69-3.13.996-4.625a.111.111 0 0 1 .087-.088c.013 0 1.363-.279 1.439-1.171.089-1.051-.158-3.194-.848-4.494-.742-1.395-1.02-1.728-2.048-1.78-1.112-.057-2.631.57-2.874.965-.307.415-.593.847-.856 1.293l.064-.04c.178-.11.345-.211.481-.13.136.082.113.256.111.315-.06.346-.184.678-.367.976a1.871 1.871 0 0 0-.198.453l.04.07c.34.662.496 1.07.274 1.198-.174.1-.37.195-.523.039l-.031-.034a2.131 2.131 0 0 0-.89-.616.283.283 0 0 0-.296.122 1.077 1.077 0 0 0-.104 1.026c.187.453 1.15.757 1.506.838l.616.172a.122.122 0 0 1 .082.102l.107 1.778Z" fill="#263238"/><path d="m24.27 35.27-2.67-.028 2.363 1.5.307-1.473Z" fill="#263238"/><path d="M23.965 36.85a.11.11 0 0 1-.058-.017l-2.362-1.5a.115.115 0 0 1-.05-.129.124.124 0 0 1 .109-.08l2.67.028a.11.11 0 0 1 .086.042.115.115 0 0 1 .023.094l-.307 1.472a.114.114 0 0 1-.065.082.14.14 0 0 1-.046.009Zm-1.967-1.496 1.89 1.2.246-1.178-2.136-.022ZM24.55 31.137a.113.113 0 0 1-.084-.039.117.117 0 0 1 .011-.16c.399-.354.735-.755.721-.86-.084-.096-.89-.237-1.575-.3a.11.11 0 0 1-.1-.123.114.114 0 0 1 .077-.099.108.108 0 0 1 .043-.005c.603.057 1.635.186 1.758.43.122.245-.432.82-.779 1.133a.108.108 0 0 1-.071.023ZM22.723 33.585a.65.65 0 0 1-.147-.018c-.727-.185-.8-1.69-.807-1.86a.116.116 0 0 1 .071-.11.114.114 0 0 1 .125.031c.83.95 2.204.537 2.224.533a.109.109 0 0 1 .122.04.117.117 0 0 1 0 .134c-.1.132-.896 1.25-1.588 1.25ZM22.013 32c.058.5.223 1.255.617 1.359.393.104.976-.487 1.312-.906-.44.063-1.27.097-1.928-.46V32ZM21.185 30.628a.098.098 0 0 1-.044 0 .111.111 0 0 1-.06-.062.116.116 0 0 1 .002-.087.981.981 0 0 1 .492-.506c.22-.1.469-.114.698-.038.03.009.054.029.069.056a.12.12 0 0 1-.046.16.114.114 0 0 1-.088.01.741.741 0 0 0-.538.03.76.76 0 0 0-.383.387.114.114 0 0 1-.102.05Z" fill="#263238"/><path d="M24.02 29.69a.111.111 0 0 1-.046 0 .108.108 0 0 1-.058-.063.112.112 0 0 1 .004-.086.569.569 0 0 1 .276-.262.556.556 0 0 1 .376-.028c.03.006.055.024.072.05a.118.118 0 0 1-.033.16.112.112 0 0 1-.086.017.331.331 0 0 0-.402.163.112.112 0 0 1-.102.05ZM20.67 29.72h-.017a.11.11 0 0 1-.092-.085.115.115 0 0 1-.002-.045s.122-.79 1.143-.813c.03 0 .057.013.078.033.021.02.034.049.036.078a.113.113 0 0 1-.03.082.11.11 0 0 1-.08.034c-.824.018-.922.595-.927.62a.111.111 0 0 1-.037.069.109.109 0 0 1-.072.027ZM23.346 28.666a.112.112 0 0 1-.112-.113c0-.03.011-.059.031-.08a.779.779 0 0 1 .935-.117.11.11 0 0 1 .053.067.114.114 0 0 1-.078.14.11.11 0 0 1-.084-.01.552.552 0 0 0-.668.081.115.115 0 0 1-.077.032Z" fill="#263238"/><path d="M9.123 46.68a14.797 14.797 0 0 1-1.334-.778c-.223-.195.954-2.845 1.07-2.922.115-.077 2.831.156 3.214.39.382.233 1.032 2.104.89 2.609-.143.505-1.07.858-1.262.935-.191.077-2.578-.233-2.578-.233Z" fill="#ADADAD"/><path d="M11.542 47.038c-.51 0-1.82-.163-2.431-.245a.082.082 0 0 1-.038-.011c-.466-.238-.92-.503-1.357-.793a.264.264 0 0 1-.069-.226c.03-.571.981-2.764 1.148-2.879.223-.145 2.987.177 3.336.387.445.272 1.097 2.193.93 2.74-.109.361-.534.68-1.299.997h-.029a.57.57 0 0 1-.191.03ZM9.16 46.57c.947.125 2.338.281 2.49.227h.025c.859-.347 1.112-.655 1.168-.852.145-.478-.514-2.287-.83-2.491-.315-.204-2.78-.435-3.1-.385-.19.249-1.112 2.453-1.043 2.743.416.276.847.53 1.29.758Z" fill="#263238"/><path d="M14.516 48.823s-1.95-3.117-2.333-3.662c-.383-.546-2.026-.974-2.83-.623-.802.35-1.416 1.479-1.225 1.91.191.43 4.17 2.842 4.17 2.842s-.458 2.264-.266 2.455c.407.364.855.677 1.334.933.307.118.765-.31.765-.31.178.02.358.02.536 0 .192-.039.42-.351.42-.351s.223.39.461.038c.238-.351.267-.623.076-.74-.192-.118-.345-.895-.345-.895s.222-.623.04-1.053c-.182-.43-.803-.544-.803-.544Z" fill="#fff"/><path d="M13.485 52.813a.401.401 0 0 1-.154-.027 6.865 6.865 0 0 1-1.379-.96c-.195-.202.047-1.604.223-2.478-.801-.487-3.957-2.428-4.146-2.854a.976.976 0 0 1 .053-.7 2.576 2.576 0 0 1 1.228-1.359c.87-.38 2.56.084 2.965.662.36.514 2.075 3.248 2.31 3.624.16.04.654.192.837.6.182.407.022.967-.024 1.105.07.347.2.738.286.793a.349.349 0 0 1 .167.226.93.93 0 0 1-.209.68.35.35 0 0 1-.305.197.375.375 0 0 1-.246-.12.89.89 0 0 1-.399.283c-.172.02-.347.02-.52 0-.19.18-.43.294-.687.328Zm-3.401-8.287a1.77 1.77 0 0 0-.687.118 2.331 2.331 0 0 0-1.112 1.234.755.755 0 0 0-.058.523c.129.288 2.598 1.867 4.123 2.793.02.012.036.03.046.051.01.022.012.046.008.069-.207 1.015-.376 2.204-.294 2.358.397.35.83.655 1.295.906.197.077.545-.188.651-.288a.111.111 0 0 1 .087-.03c.166.021.334.021.5 0a.895.895 0 0 0 .359-.314.121.121 0 0 1 .095-.045.107.107 0 0 1 .09.054c.03.052.102.129.155.131.053.003.093-.059.115-.097a.762.762 0 0 0 .176-.492.137.137 0 0 0-.064-.088c-.223-.131-.356-.777-.396-.97a.124.124 0 0 1 0-.063s.209-.584.04-.965c-.17-.38-.716-.48-.723-.48a.127.127 0 0 1-.073-.05c-.02-.031-1.953-3.12-2.33-3.657-.257-.372-1.22-.698-2.003-.698Z" fill="#263238"/><path d="M15.091 52.13a.11.11 0 0 1-.071-.027.114.114 0 0 1-.038-.068l-.267-1.794a.118.118 0 0 1 .021-.085.112.112 0 0 1 .202.05l.269 1.792a.115.115 0 0 1-.053.115.11.11 0 0 1-.04.015l-.023.002Z" fill="#263238"/><path d="M33.644 15.206s.342-1.325.534-1.014c.19.31-.223 1.714-.223 1.714s.536-1.05.574-.505c.038.546-.84 1.712-.84 1.712l-.045-1.907Z" fill="#fff"/><path d="M33.681 17.226h-.035a.112.112 0 0 1-.076-.107l-.038-1.907a.074.074 0 0 1 0-.031c.132-.503.334-1.11.554-1.133a.18.18 0 0 1 .185.1c.12.197.05.693-.043 1.132.138-.145.223-.129.247-.122.094.018.145.107.156.258.04.571-.772 1.667-.865 1.792a.109.109 0 0 1-.085.018Zm.074-2.007.03 1.554c.277-.41.648-1.042.626-1.359v-.016a2.734 2.734 0 0 0-.363.566.112.112 0 0 1-.06.055.11.11 0 0 1-.082-.002.112.112 0 0 1-.065-.136c.16-.533.336-1.344.258-1.586-.155.29-.271.602-.344.924Z" fill="#263238"/><path d="M29.929 28.96s3.52-8.727 3.597-8.999c.075-.271-1.073-3.078-1.15-3.662-.078-.585-.345-2.265 0-2.265.344 0 .222.31.222.505s.383 1.792.383 1.792.222-1.869.269-2.064c.046-.195.222-.507.42-.274.198.233.076.508.076.702 0 .195.037 1.753.037 1.869.146.412.312.815.499 1.21 0 0 .536-1.092.611-1.597.076-.505.383-1.248.499-.546.08.521.04 1.055-.116 1.558-.076.195.498 1.479.307 1.869-.191.39-.76 1.18-.76 1.331 0 .152-2.334 10.011-2.334 10.011l-2.56-1.44Z" fill="#fff"/><path d="M32.495 30.511a.12.12 0 0 1-.056-.013l-2.562-1.443a.113.113 0 0 1-.049-.14c1.217-3.018 3.532-8.777 3.592-8.988.018-.145-.325-1.11-.574-1.812a14.766 14.766 0 0 1-.578-1.8l-.027-.2c-.155-1.132-.222-1.889-.024-2.11a.206.206 0 0 1 .162-.078.353.353 0 0 1 .28.104.513.513 0 0 1 .07.404 1.027 1.027 0 0 0 0 .11c0 .096.117.635.237 1.16.072-.564.17-1.33.194-1.454.024-.124.14-.392.325-.44a.272.272 0 0 1 .289.116.75.75 0 0 1 .118.628.888.888 0 0 0-.016.147c0 .109.013.65.022 1.132 0 .37.016.696.016.745 0 .05.193.503.389.943a6.83 6.83 0 0 0 .5-1.36s.154-.926.465-.928c.187 0 .223.276.25.38a3.53 3.53 0 0 1-.12 1.62c.024.188.068.374.13.553.143.494.305 1.05.17 1.327-.085.172-.24.417-.392.652a4.093 4.093 0 0 0-.36.625c0 .152-1.78 7.72-2.338 10.034a.113.113 0 0 1-.062.077.174.174 0 0 1-.051.01Zm-2.422-1.606 2.346 1.32c.803-3.397 2.271-9.62 2.298-9.847 0-.102.115-.295.398-.736a7.27 7.27 0 0 0 .378-.63c.08-.163-.073-.777-.185-1.162-.11-.385-.169-.591-.124-.7.149-.484.185-.996.107-1.497a.853.853 0 0 0-.04-.168c-.123.22-.203.462-.236.712-.08.518-.6 1.585-.623 1.63a.13.13 0 0 1-.102.064.112.112 0 0 1-.098-.066 8.316 8.316 0 0 1-.51-1.257c0-.05 0-.374-.015-.74 0-.474-.022-1.017-.022-1.133.002-.06.008-.12.017-.179a.536.536 0 0 0-.069-.453c-.017-.02-.042-.045-.064-.04a.392.392 0 0 0-.16.264c-.031.15-.19 1.411-.267 2.055a.114.114 0 0 1-.034.069.11.11 0 0 1-.07.03.106.106 0 0 1-.073-.02.109.109 0 0 1-.041-.066c-.065-.27-.387-1.62-.387-1.812v-.136c0-.083.02-.19-.013-.226-.034-.036-.056-.03-.114-.03-.106.084-.082.734.083 1.93l.028.2c.152.596.341 1.182.565 1.755.445 1.232.625 1.79.579 1.954-.065.263-3.154 7.926-3.552 8.915Z" fill="#263238"/><path d="M28.171 29.815s1.148 1.359 1.557 1.714c.41.356 2.182 1.133 2.182 1.133l1.112-2.297s-1.185-1.012-1.988-1.359c-.803-.346-1.53-.74-1.53-.74l-1.333 1.549Z" fill="#ADADAD"/><path d="M31.935 32.77a.098.098 0 0 1-.044 0c-.073-.032-1.78-.789-2.206-1.146a22.437 22.437 0 0 1-1.584-1.729.112.112 0 0 1 0-.147l1.334-1.558a.113.113 0 0 1 .136-.025s.734.392 1.524.736c.79.345 1.968 1.339 2.017 1.38a.119.119 0 0 1 .027.138l-1.112 2.296a.112.112 0 0 1-.092.055Zm-3.603-2.956c.247.288 1.141 1.332 1.493 1.626.351.295 1.683.906 2.057 1.07l1.023-2.12c-.26-.227-1.223-.997-1.895-1.29a21.8 21.8 0 0 1-1.459-.704l-1.219 1.418Z" fill="#263238"/></svg>