<svg width="180" height="180" fill="none" xmlns="http://www.w3.org/2000/svg"><path opacity=".3" d="M49.948 68.924H9.14l.044-.24c.168-.934.893-4.048 3.159-4.77 2.158-.689 4.164.872 4.916 1.566.145-1.268.833-4.925 3.976-6.177a5.42 5.42 0 0 1 3.17-.358 5.48 5.48 0 0 1 2.835 1.491c.453-1.109 2.346-4.774 7.519-4.774 1.15-.019 2.29.204 3.352.655a8.34 8.34 0 0 1 2.813 1.967 10.666 10.666 0 0 1 2.783 7.208c.748-.176 2.91-.543 4.444.595a4.538 4.538 0 0 1 1.757 2.585l.04.252Zm-40.323-.407h39.803a4.202 4.202 0 0 0-1.533-2.104c-1.678-1.223-4.332-.469-4.36-.46l-.265.077v-.281a10.222 10.222 0 0 0-2.662-7.184 7.97 7.97 0 0 0-2.683-1.871 7.846 7.846 0 0 0-3.194-.624c-5.761 0-7.207 4.603-7.255 4.798l-.108.363-.236-.29a5.021 5.021 0 0 0-2.675-1.582 4.957 4.957 0 0 0-3.078.307c-3.555 1.415-3.755 6.197-3.76 6.246v.489l-.328-.359c-.024-.024-2.374-2.532-4.804-1.757-1.918.62-2.638 3.151-2.862 4.232ZM50.781 37.547h-27.18l.044-.24c.144-.816.645-2.736 2.138-3.213 1.373-.437 2.65.464 3.203.962.12-.95.62-3.2 2.662-4.012a3.646 3.646 0 0 1 2.08-.245c.703.124 1.355.45 1.88.942.368-.815 1.67-3.11 5.004-3.11a5.517 5.517 0 0 1 2.243.439c.71.301 1.352.749 1.885 1.314a7.143 7.143 0 0 1 1.861 4.733c.565-.118 1.93-.302 2.911.408a3.05 3.05 0 0 1 1.201 1.753l.068.269Zm-26.691-.408h26.163a2.689 2.689 0 0 0-.957-1.268c-1.085-.815-2.803-.302-2.827-.297l-.268.081v-.285a6.699 6.699 0 0 0-1.745-4.701 5.202 5.202 0 0 0-1.753-1.223c-.66-.28-1.371-.42-2.087-.408-3.763 0-4.7 3-4.736 3.127l-.108.363-.24-.294a3.259 3.259 0 0 0-1.739-1.02 3.217 3.217 0 0 0-1.997.205c-2.31.921-2.442 4.04-2.442 4.077l-.02.49-.328-.36s-1.541-1.63-3.115-1.145c-1.16.375-1.637 1.916-1.801 2.658ZM180 121.453h-66.575l.04-.241c.273-1.517 1.446-6.56 5.093-7.722 3.647-1.162 7.086 1.721 8.119 2.712.168-1.754 1.145-8.154 6.462-10.27a8.764 8.764 0 0 1 5.201-.548 8.865 8.865 0 0 1 4.607 2.517c.589-1.529 3.564-7.926 12.283-7.926 1.866-.03 3.718.332 5.44 1.064a13.534 13.534 0 0 1 4.569 3.189 17.35 17.35 0 0 1 4.524 11.892c1.025-.257 4.749-1.003 7.339.913a7.34 7.34 0 0 1 2.834 4.167l.064.253Zm-66.09-.408h65.574a6.928 6.928 0 0 0-2.614-3.669c-2.803-2.08-7.207-.795-7.255-.779l-.268.077v-.281a16.888 16.888 0 0 0-4.404-11.868 13.144 13.144 0 0 0-4.437-3.098 12.954 12.954 0 0 0-5.284-1.032c-9.556 0-11.99 7.881-12.01 7.958l-.104.367-.241-.293a8.478 8.478 0 0 0-4.467-2.597 8.382 8.382 0 0 0-5.121.493c-5.905 2.353-6.238 10.274-6.238 10.356v.489l-.328-.359c-.04-.041-3.943-4.211-8.007-2.915-3.279 1.027-4.48 5.463-4.796 7.151ZM144.754 82.52h-27.18l.044-.241c.144-.816.644-2.736 2.138-3.213 1.373-.436 2.65.465 3.203.962.12-.95.62-3.2 2.662-4.011a3.653 3.653 0 0 1 2.08-.244c.702.124 1.355.45 1.879.94.369-.835 1.67-3.11 5.005-3.11a5.517 5.517 0 0 1 2.243.44c.71.301 1.351.748 1.885 1.313a7.147 7.147 0 0 1 1.861 4.738c.565-.123 1.93-.306 2.911.407a3.065 3.065 0 0 1 1.201 1.753l.068.265Zm-26.692-.408h26.163a2.685 2.685 0 0 0-.956-1.268c-1.085-.816-2.803-.302-2.827-.298l-.268.082v-.286a6.702 6.702 0 0 0-1.746-4.7 5.2 5.2 0 0 0-1.752-1.223 5.125 5.125 0 0 0-2.087-.408c-3.764 0-4.7 3-4.736 3.127l-.108.363-.241-.29a3.246 3.246 0 0 0-1.738-1.022 3.21 3.21 0 0 0-1.997.207c-2.31.921-2.442 4.04-2.442 4.077l-.02.489-.328-.359s-1.546-1.63-3.115-1.141c-1.161.367-1.634 1.908-1.802 2.65ZM119.924 22.719H76.113l.044-.24c.18-1.004.957-4.343 3.387-5.117 2.33-.742 4.5.97 5.285 1.7.148-1.33.872-5.3 4.263-6.654a5.819 5.819 0 0 1 3.398-.376c1.145.217 2.2.774 3.036 1.6.468-1.162 2.49-5.142 8.075-5.142a8.819 8.819 0 0 1 3.601.706 8.958 8.958 0 0 1 3.021 2.116 11.455 11.455 0 0 1 2.987 7.746c.8-.188 3.126-.595 4.78.628a4.894 4.894 0 0 1 1.882 2.772l.052.26Zm-43.33-.408h42.805a4.48 4.48 0 0 0-1.657-2.287c-1.814-1.341-4.668-.51-4.696-.501l-.269.081v-.281a11.017 11.017 0 0 0-2.866-7.746 8.565 8.565 0 0 0-2.886-2.015 8.425 8.425 0 0 0-3.436-.672c-6.201.016-7.779 5.117-7.779 5.186l-.104.363-.24-.294a5.411 5.411 0 0 0-2.896-1.707 5.343 5.343 0 0 0-3.33.345c-3.827 1.53-4.047 6.674-4.047 6.727V20l-.328-.36c-.028-.028-2.559-2.727-5.205-1.89-2.05.655-2.827 3.407-3.067 4.561Z" fill="#000"/><path d="M158.89 119.269c.235-.986.547-1.952.933-2.887.436-.864 2.402-.864 3.567.375 1.165 1.24 1.862 3.498 1.862 3.498a6.39 6.39 0 0 1 1.885 3.339c.333 1.965.433 3.148-.132 3.074-.564-.073-2.222-2.625-3.603-3.469-1.381-.844-1.95-.84-1.95-.84l-2.562-3.09Z" fill="#fff"/><path d="M167.048 126.879h-.076c-.324-.041-.736-.502-1.501-1.382-.653-.75-1.465-1.688-2.17-2.12-1.281-.787-1.838-.816-1.846-.816a.2.2 0 0 1-.152-.069l-2.57-3.09a.22.22 0 0 1-.044-.086.203.203 0 0 1 0-.098c.238-1.001.555-1.982.949-2.931a1.401 1.401 0 0 1 1.125-.689c.507-.06 1.02 0 1.5.176s.914.463 1.266.839c1.093 1.166 1.778 3.164 1.894 3.527a6.555 6.555 0 0 1 1.91 3.416c.344 2.039.356 2.854.052 3.172a.455.455 0 0 1-.337.151Zm-5.493-4.713c.7.154 1.364.447 1.954.86.753.465 1.554 1.386 2.262 2.198.473.546 1.061 1.223 1.253 1.247.052 0 .064 0 .072-.02.269-.282-.032-2.063-.16-2.821a6.263 6.263 0 0 0-1.817-3.217.209.209 0 0 1-.06-.094s-.705-2.234-1.818-3.42a2.935 2.935 0 0 0-1.11-.733 2.888 2.888 0 0 0-1.312-.164 1.055 1.055 0 0 0-.825.473 18.038 18.038 0 0 0-.889 2.747l2.45 2.944Z" fill="#263238"/><path d="M161.171 115.782a3.124 3.124 0 0 1 2.218.979c1.161 1.223 1.862 3.498 1.862 3.498a6.394 6.394 0 0 1 1.886 3.339c.332 1.965.432 3.147-.132 3.074a.341.341 0 0 1-.081-.029 21.27 21.27 0 0 0-.212-2.267c-.268-1.789-2.078-3.11-3.327-5.609a9.477 9.477 0 0 0-2.214-2.985Z" fill="#fff"/><path d="M167.051 126.876h-.076a.578.578 0 0 1-.116-.036.23.23 0 0 1-.094-.075.22.22 0 0 1-.042-.113c-.031-.751-.1-1.499-.208-2.242-.148-.967-.801-1.815-1.522-2.801a17.491 17.491 0 0 1-1.785-2.752 9.323 9.323 0 0 0-2.166-2.919.202.202 0 0 1-.056-.228.227.227 0 0 1 .188-.131c.89.016 1.738.389 2.358 1.04 1.093 1.166 1.778 3.163 1.894 3.526a6.553 6.553 0 0 1 1.909 3.417c.345 2.038.357 2.854.052 3.172a.441.441 0 0 1-.336.142Zm-5.297-10.824a10.387 10.387 0 0 1 1.81 2.617c.499.95 1.083 1.851 1.746 2.691.772 1.028 1.437 1.916 1.601 2.984.096.649.164 1.35.2 2.088.244-.326-.048-2.039-.172-2.805a6.269 6.269 0 0 0-1.818-3.217.212.212 0 0 1-.06-.094s-.704-2.234-1.817-3.42a2.972 2.972 0 0 0-1.49-.844ZM136.216 99.402s-.16 1.382.841 1.928a20.54 20.54 0 0 0 3.058 1.146l-.224-5.463s-2.934.913-3.675 2.389Z" fill="#263238"/><path d="M140.118 102.676h-.056a21.175 21.175 0 0 1-3.098-1.166c-1.105-.603-.953-2.07-.945-2.132a.188.188 0 0 1 .02-.07c.772-1.532 3.671-2.445 3.795-2.49a.207.207 0 0 1 .176.028c.024.02.044.043.059.07a.227.227 0 0 1 .025.09l.224 5.462a.21.21 0 0 1-.076.172.2.2 0 0 1-.124.036Zm-3.707-3.22c0 .207-.04 1.263.741 1.691.89.423 1.811.775 2.754 1.052l-.2-4.892c-.705.232-2.694 1.027-3.295 2.148Z" fill="#263238"/><path d="m138.776 96.696.356 5.063s-2.947 7.229-3.767 15.15c-.821 7.922-.469 10.392-.268 11.416.2 1.023 2.057 2.605 3.515 2.792 1.457.188 2.362.135 6.962-1.194s7.775-3.099 10.95-4.864a311.223 311.223 0 0 1 4.944-2.703s-1.541-2.789-2.57-3.09c-1.029-.302-2.234.734-2.234.734s-.213-.278-1.001.122a6.652 6.652 0 0 1-1.546.554l-9.784 1.403s9.684-19.826 10.749-22.448c1.065-2.621-.24-4.044-.24-4.044l-16.066 1.109Z" fill="#FFC100"/><path d="M139.683 131.416a8.396 8.396 0 0 1-1.097-.081c-1.457-.188-3.455-1.79-3.683-2.956-.148-.762-.601-3.086.264-11.481.781-7.534 3.515-14.534 3.767-15.162l-.356-5.014a.222.222 0 0 1 .048-.151.202.202 0 0 1 .14-.07l16.066-1.108c.03-.004.061 0 .088.012a.19.19 0 0 1 .073.053c.056.061 1.377 1.55.276 4.26-.977 2.406-9.288 19.451-10.586 22.113l9.405-1.361c.513-.12 1.011-.3 1.485-.534a1.316 1.316 0 0 1 1.077-.192c.34-.257 1.357-.938 2.294-.664 1.077.313 2.53 2.894 2.69 3.188a.197.197 0 0 1 0 .159.196.196 0 0 1-.096.122s-1.797.962-4.932 2.707c-3.135 1.745-6.37 3.543-10.99 4.892-3.435.979-4.832 1.268-5.933 1.268Zm-.689-34.519.341 4.856a.183.183 0 0 1 0 .093c-.032.074-2.951 7.294-3.756 15.085-.86 8.333-.4 10.6-.272 11.358.184.934 1.942 2.446 3.343 2.63 1.401.183 2.33.13 6.882-1.186 4.552-1.317 7.799-3.115 10.91-4.848 2.566-1.427 4.224-2.324 4.752-2.613-.492-.852-1.625-2.601-2.35-2.813-.917-.265-2.03.668-2.042.681a.2.2 0 0 1-.224.021.183.183 0 0 1-.06-.054c-.032-.025-.264-.069-.753.179a6.825 6.825 0 0 1-1.601.571l-9.793 1.419a.196.196 0 0 1-.192-.082.206.206 0 0 1 0-.212c.096-.195 9.693-19.846 10.741-22.423.881-2.169.093-3.449-.14-3.759l-15.786 1.097Z" fill="#263238"/><path d="M143.671 103.808a.188.188 0 0 1-.112-.037l-1.89-1.329a.21.21 0 0 1-.052-.286.201.201 0 0 1 .28-.053l1.886 1.334c.022.014.04.033.055.056a.21.21 0 0 1 .029.073.191.191 0 0 1-.001.079.2.2 0 0 1-.195.163Z" fill="#263238"/><path d="M157.918 140.97s5.048 1.651 5.068 2.156c.02.506-1.157 4.701-1.653 6.727-.497 2.027-2.615 4.513-3.203 4.522-.589.008-.937-.371-.997-1.223-.06-.853.436-2.202.256-3.392-.18-1.191-1.729-5.243-1.729-5.243s2.206-2.548 2.258-3.547Z" fill="#fff"/><path d="M158.124 154.58c-.4 0-1.093-.187-1.177-1.402a5.97 5.97 0 0 1 .132-1.333 7.047 7.047 0 0 0 .128-2.039c-.176-1.157-1.705-5.157-1.721-5.198a.202.202 0 0 1 .036-.208c.6-.697 2.166-2.67 2.198-3.428a.212.212 0 0 1 .025-.089.19.19 0 0 1 .059-.07.19.19 0 0 1 .176-.029c3.439 1.125 5.205 1.916 5.205 2.344 0 .347-.401 1.937-1.025 4.322-.241.917-.473 1.806-.637 2.446-.5 2.039-2.658 4.668-3.379 4.676l-.02.008Zm-2.222-10.012c.26.685 1.533 4.076 1.698 5.169.07.727.027 1.46-.129 2.173a6.05 6.05 0 0 0-.124 1.223c.072 1.036.617 1.032.801 1.023.4 0 2.486-2.287 2.995-4.366.164-.66.4-1.549.64-2.471.445-1.687.993-3.775 1.009-4.17-.248-.318-2.534-1.223-4.712-1.929-.276 1.056-1.774 2.871-2.178 3.348Z" fill="#263238"/><path d="M162.987 143.126c0 .506-1.157 4.701-1.653 6.727-.497 2.026-2.615 4.513-3.203 4.521a.557.557 0 0 1-.1 0 23.523 23.523 0 0 0 2.918-6.152c.518-1.879.846-3.808.977-5.756.621.269 1.057.514 1.061.66Z" fill="#fff"/><path d="M158.142 154.576h-.088a.233.233 0 0 1-.102-.037.233.233 0 0 1-.101-.183c0-.036.009-.071.027-.102a23.211 23.211 0 0 0 2.89-6.095c.515-1.864.84-3.777.969-5.708a.207.207 0 0 1 .096-.159.213.213 0 0 1 .185 0c.968.432 1.161.636 1.169.844 0 .346-.401 1.936-1.025 4.321-.241.918-.473 1.806-.637 2.447-.5 2.038-2.658 4.668-3.379 4.676l-.004-.004Zm3.972-11.823a28.478 28.478 0 0 1-.961 5.508 23.443 23.443 0 0 1-2.558 5.605c.764-.681 2.141-2.446 2.542-4.077.164-.66.4-1.549.64-2.47.441-1.684.993-3.771 1.009-4.171a2.35 2.35 0 0 0-.672-.383v-.012Z" fill="#263238"/><path d="M147.574 99.924c-4.004 1.223-4.849 6.65-5.721 9.047-.873 2.397-3.383 14.697-3.416 15.615-.032.917 1.602 4.138 2.21 4.712.609.575 9.209 9.214 10.037 10.409.829 1.194 4.208 4.484 4.208 4.484l.781.351c1.97-.664 2.174-2.98 2.246-3.555.072-.575-1.161-1.223-1.694-2.226-.532-1.003-3.507-7.473-4.656-9.463-1.149-1.989-4.46-3.75-4.924-4.647a3.698 3.698 0 0 0-.617-.999s3.888-6.189 7.115-9.034c3.226-2.846 5.629-8.305 5.957-12.296.328-3.992-1.285-6.165-1.285-6.165l-8.66.306" fill="#FFC100"/><path d="M155.674 144.733a.203.203 0 0 1-.085 0l-.776-.351a.172.172 0 0 1-.056-.041c-.14-.13-3.395-3.302-4.232-4.484-.837-1.182-9.412-9.785-10.009-10.38-.596-.595-2.302-3.902-2.27-4.868.032-.966 2.522-13.18 3.431-15.68.148-.407.3-.925.465-1.471.78-2.646 1.965-6.642 5.384-7.698a.207.207 0 0 1 .159.018.216.216 0 0 1 .1.127.213.213 0 0 1-.143.263c-3.202.995-4.315 4.713-5.12 7.424-.16.555-.316 1.076-.473 1.5-.9 2.475-3.375 14.804-3.403 15.55-.028.848 1.578 4.003 2.146 4.562.092.09 9.172 9.157 10.065 10.437.781 1.109 3.848 4.113 4.16 4.415l.673.306c1.713-.632 1.953-2.63 2.029-3.294v-.07c.028-.212-.316-.55-.648-.876a5.406 5.406 0 0 1-1.021-1.223c-.196-.359-.693-1.407-1.325-2.732-1.093-2.303-2.595-5.459-3.327-6.723-.657-1.137-2.07-2.217-3.203-3.086-.849-.648-1.517-1.162-1.726-1.569a4.645 4.645 0 0 0-.564-.938.187.187 0 0 1-.076-.201.185.185 0 0 1 .032-.068c.04-.061 3.939-6.246 7.154-9.075 3.299-2.911 5.585-8.472 5.885-12.162.281-3.428-.908-5.508-1.201-5.944l-8.551.306a.207.207 0 0 1-.142-.056.211.211 0 0 1-.066-.14.217.217 0 0 1 .052-.147.203.203 0 0 1 .14-.065l8.659-.306a.202.202 0 0 1 .169.082c.068.09 1.653 2.279 1.325 6.303-.305 3.722-2.523 9.344-6.026 12.434-2.91 2.569-6.405 7.959-6.994 8.864.204.292.385.6.541.921.168.33.872.864 1.601 1.435 1.161.889 2.61 1.998 3.307 3.205.741 1.28 2.246 4.443 3.343 6.751.629 1.321 1.125 2.365 1.317 2.715.258.422.577.803.945 1.129.44.433.825.816.773 1.224v.069c-.237 1.973-1.037 3.204-2.378 3.669l-.04-.061ZM148.891 26.952h-.028a.193.193 0 0 1-.152-.118l-.336-.775a1.357 1.357 0 0 1 .2-1.586c.052-.057.18-.208 1.693-.77l.217-.078a.205.205 0 0 1 .2.04.219.219 0 0 1 .056.093.22.22 0 0 1 .004.108l-.301 1.276a.213.213 0 0 1-.044.085l-1.341 1.652a.215.215 0 0 1-.168.073Zm1.369-2.817c-.483.154-.95.357-1.393.607a.933.933 0 0 0-.132 1.146l.204.477 1.125-1.354.196-.876Z" fill="#263238"/><path d="M156.573 76.622s-4.244 6.992-4.312 7.424c-.068.433 6.173 12.231 6.498 13.047 0 0-14.177.737-17.696.725-3.519-.012-4.864 1.57-4.864 1.57s1.925-5.096 1.913-9.634c-.012-4.537-2.242-11.485-1.645-14.554.596-3.07 2.69-8.366 2.69-8.366s-.048-4.836.993-8.582c1.041-3.747 2.142-7.408 2.434-9.785.293-2.377 2.322-9.434 3.287-11.415.965-1.981 2.983-8.399 2.983-8.399s-.36-1.145.02-1.9a7.677 7.677 0 0 1 1.385-1.659s.349-1.63.921-2.226c.573-.595.869-.032.745.408l-.124.408s1.049 1.965 1.233 2.796c.184.832-2.547 3.017-2.547 3.017s-.976 10.78-1.289 13.303c-.312 2.524-1.741 5.859-1.741 5.859l-.168 1.953-1.89 11.174s5.533 1.737 7.054 2.81c1.522 1.072 5.573 4.305 6.038 6.93.464 2.626-1.918 5.096-1.918 5.096Z" fill="#fff"/><path d="M136.217 99.618a.2.2 0 0 1-.105-.032.202.202 0 0 1-.084-.245c.02-.053 1.91-5.112 1.902-9.56 0-2.039-.472-4.611-.921-7.082-.54-2.988-1.053-5.806-.72-7.514.568-2.919 2.498-7.88 2.686-8.362 0-.48 0-5.05 1.001-8.598.164-.6.332-1.194.5-1.785.865-3.079 1.682-5.99 1.93-7.97.296-2.402 2.338-9.496 3.307-11.498.897-1.859 2.742-7.656 2.951-8.313-.072-.265-.313-1.267.052-1.99a7.353 7.353 0 0 1 1.353-1.667c.072-.322.4-1.704.961-2.262.4-.408.696-.33.836-.245a.755.755 0 0 1 .241.815l-.1.343c.481.885.883 1.813 1.201 2.772.192.869-1.946 2.703-2.539 3.188-.092 1.028-.989 10.845-1.281 13.222-.292 2.377-1.601 5.516-1.737 5.875l-.168 1.924-1.858 11.008c.953.305 5.545 1.798 6.938 2.784.573.408 5.605 4.024 6.125 7.057.461 2.61-1.733 5.01-1.965 5.255-1.578 2.597-4.084 6.813-4.256 7.314.136.539 2.562 5.256 4.176 8.39 1.201 2.374 2.182 4.245 2.31 4.58a.213.213 0 0 1-.088.248.202.202 0 0 1-.088.028c-.141 0-13.961.726-17.616.726h-.108c-3.339 0-4.66 1.484-4.672 1.5a.202.202 0 0 1-.164.094Zm15.405-76.8a.536.536 0 0 0-.308.195c-.529.534-.865 2.103-.869 2.12a.206.206 0 0 1-.064.11 7.578 7.578 0 0 0-1.321 1.598c-.34.673 0 1.733 0 1.745a.212.212 0 0 1 0 .122c-.084.261-2.03 6.438-2.995 8.427-.965 1.99-2.97 8.97-3.267 11.367-.248 2.014-1.073 4.937-1.941 8.031-.169.591-.333 1.187-.501 1.786-1.021 3.67-.985 8.476-.985 8.525a.17.17 0 0 1 0 .077c0 .053-2.094 5.3-2.678 8.325-.316 1.631.188 4.416.725 7.363.448 2.491.916 5.064.924 7.155 0 3.539-1.165 7.445-1.685 9.006.705-.48 2.09-1.145 4.404-1.145h.148c3.339 0 15.257-.604 17.291-.71-.32-.672-1.201-2.36-2.174-4.273-3.383-6.588-4.251-8.361-4.219-8.622.056-.44 3.327-5.855 4.327-7.506l.028-.036c.021-.025 2.311-2.447 1.87-4.913-.4-2.332-3.939-5.37-5.957-6.796-1.477-1.044-6.942-2.765-6.998-2.78a.21.21 0 0 1-.14-.233l1.889-11.17.168-1.942a.623.623 0 0 1 0-.06c0-.033 1.414-3.336 1.718-5.798.304-2.463 1.281-13.185 1.293-13.29a.216.216 0 0 1 .072-.143c1.089-.885 2.57-2.349 2.462-2.854-.176-.816-1.201-2.724-1.201-2.744a.187.187 0 0 1-.016-.078c0-.026.005-.053.016-.077l.124-.408a.37.37 0 0 0 .02-.195.354.354 0 0 0-.084-.176l-.076-.004Z" fill="#263238"/><path d="M151.543 25.822a.198.198 0 0 1-.182-.13.21.21 0 0 1-.014-.078c.04-.664.123-1.324.248-1.977a.197.197 0 0 1 .361-.076c.03.045.041.1.032.153-.119.632-.199 1.27-.24 1.912a.207.207 0 0 1-.062.142.2.2 0 0 1-.143.054Z" fill="#263238"/><path d="M136.483 75.208c.597-3.07 2.69-8.366 2.69-8.366s-.048-4.835.993-8.582c.104-.367.204-.734.309-1.1l6.193-2.854-1.261 7.469s5.533 1.736 7.054 2.809c1.522 1.072 5.573 4.305 6.038 6.93.464 2.626-1.926 5.092-1.926 5.092s-4.244 7.005-4.312 7.437c-.068.432 6.173 12.23 6.498 13.046 0 0-14.177.738-17.696.725-3.519-.012-4.864 1.57-4.864 1.57s1.925-5.096 1.913-9.634c-.012-4.537-2.226-11.472-1.629-14.542Z" fill="#ADADAD"/><path d="M136.217 99.62a.2.2 0 0 1-.105-.033.202.202 0 0 1-.084-.245c.02-.053 1.91-5.112 1.902-9.56 0-2.038-.472-4.611-.921-7.082-.54-2.984-1.053-5.805-.72-7.514.564-2.919 2.498-7.88 2.686-8.361 0-.481 0-5.052 1.001-8.598l.308-1.105a.21.21 0 0 1 .108-.13l6.198-2.855a.188.188 0 0 1 .204.025.206.206 0 0 1 .072.196l-1.229 7.29c.953.305 5.545 1.797 6.938 2.784.573.407 5.605 4.024 6.125 7.057.461 2.609-1.733 5.014-1.965 5.255-1.578 2.597-4.084 6.813-4.256 7.314.136.538 2.562 5.255 4.176 8.39 1.201 2.373 2.182 4.244 2.31 4.579.01.03.014.062.01.094a.202.202 0 0 1-.098.154.2.2 0 0 1-.088.029c-.141 0-13.961.725-17.616.725h-.12c-3.339 0-4.66 1.484-4.672 1.5a.207.207 0 0 1-.072.066.194.194 0 0 1-.092.025Zm4.435-42.31-.284 1.01c-1.021 3.67-.985 8.476-.985 8.525a.169.169 0 0 1 0 .078c0 .053-2.094 5.3-2.678 8.325-.316 1.63.188 4.415.725 7.363.448 2.49.916 5.063.924 7.155 0 3.538-1.165 7.444-1.685 9.005.705-.48 2.09-1.145 4.404-1.145h.148c3.339 0 15.258-.604 17.291-.71-.32-.672-1.201-2.36-2.174-4.272-3.383-6.588-4.251-8.362-4.219-8.623.056-.44 3.327-5.854 4.327-7.505l.029-.037c.02-.025 2.31-2.446 1.869-4.913-.4-2.332-3.939-5.37-5.957-6.796-1.477-1.044-6.942-2.764-6.998-2.78a.21.21 0 0 1-.14-.233l1.201-7.09-5.798 2.642Z" fill="#263238"/><path d="M148.036 83.12a.188.188 0 0 1-.104-.028c-.068-.04-6.83-4.106-8.027-4.762a.203.203 0 0 1-.08-.277.2.2 0 0 1 .272-.082c1.201.66 7.971 4.73 8.039 4.77a.21.21 0 0 1 .094.123.193.193 0 0 1 .004.08.209.209 0 0 1-.099.149.2.2 0 0 1-.099.027ZM142.02 81.173a.196.196 0 0 1-.12-.04c-1.369-1.048-4.404-3.845-4.404-3.874a.214.214 0 0 1-.044-.066.21.21 0 0 1 .044-.223.202.202 0 0 1 .284 0c.028.028 3.039 2.809 4.404 3.848a.2.2 0 0 1 .078.135.204.204 0 0 1-.038.15.202.202 0 0 1-.204.07ZM144.109 91.024a.2.2 0 0 1-.122-.04.198.198 0 0 1-.074-.107.206.206 0 0 1 .14-.253c3.411-.986 7.514-5.356 7.558-5.397a.196.196 0 0 1 .141-.062.189.189 0 0 1 .14.062.207.207 0 0 1 .059.142.206.206 0 0 1-.059.143c-.173.184-4.224 4.485-7.739 5.512a.12.12 0 0 1-.044 0ZM149.377 90.24a.192.192 0 0 1-.156-.08.205.205 0 0 1 .036-.285 31.86 31.86 0 0 0 2.402-2.66.198.198 0 0 1 .28-.028.214.214 0 0 1 .028.29c-.076.09-1.801 2.21-2.45 2.719a.203.203 0 0 1-.14.045ZM149.743 47.882c-.04.318.288-1.044 2.362-1.1 2.074-.058 4.364.72 5.541 1.9 1.177 1.177 5.168 4.484 4.956 10.028-.212 5.545-2.77 4.827-3.107 6.238-.336 1.41 1.109 1.765 1.109 1.765s-.752 1.79-4.724 1.334c-3.971-.457-2.942-4.913-2.542-5.561.4-.649-.216-6.397-1.145-7.869a3.842 3.842 0 0 0-2.402-1.708s-3.711 4.273-4.004 7.094c-.292 2.82.493 3.302.433 4.643-.06 1.342-1.842 2.447-3.383 2.039-1.542-.408-1.666-1.076-1.666-1.076s1.942-.722 1.574-1.578c-.369-.856-2.555-3.352-2.054-6.523.5-3.172 1.601-5.781 4.404-7.42 2.802-1.64 4.075-1.688 4.075-1.688l.573-.518Z" fill="#263238"/><path d="M157.113 68.324c-.419 0-.838-.025-1.254-.073-1.341-.155-2.27-.758-2.762-1.798-.741-1.558-.2-3.633.072-4.077.356-.583-.244-6.23-1.141-7.644a3.702 3.702 0 0 0-2.146-1.598c-.528.627-3.603 4.386-3.879 6.89a7.614 7.614 0 0 0 .224 3.212c.147.458.217.938.208 1.419a2.336 2.336 0 0 1-.31.956c-.172.29-.405.54-.683.728a3.144 3.144 0 0 1-2.638.554c-1.602-.436-1.798-1.158-1.814-1.223a.204.204 0 0 1 .128-.232c.337-.127 1.261-.555 1.454-1.02a.35.35 0 0 0 0-.285 6.308 6.308 0 0 0-.401-.693c-.724-1.17-2.078-3.343-1.665-5.948.588-3.75 1.982-6.083 4.516-7.563 2.458-1.439 3.767-1.671 4.091-1.708l.493-.477a.174.174 0 0 1 .064-.04c.516-.71 1.333-1.085 2.43-1.114 2.142-.061 4.472.746 5.685 1.957.096.098.208.208.34.33 1.458 1.399 4.873 4.68 4.677 9.854-.145 3.873-1.466 4.807-2.343 5.422-.4.282-.68.482-.768.857-.284 1.194.909 1.504.957 1.516a.184.184 0 0 1 .132.106.195.195 0 0 1 .019.086c0 .03-.006.059-.019.085-.02.058-.673 1.521-3.667 1.521Zm-7.303-15.618h.052a3.973 3.973 0 0 1 1.438.642c.433.308.801.701 1.084 1.156.921 1.45 1.622 7.305 1.145 8.084-.236.387-.716 2.287-.052 3.67.429.9 1.253 1.43 2.446 1.565 2.963.342 4.06-.604 4.404-1.023a1.831 1.831 0 0 1-.844-.698 1.553 1.553 0 0 1-.199-.596 1.6 1.6 0 0 1 .05-.627c.125-.526.497-.79.929-1.097.857-.607 2.034-1.434 2.17-5.104.188-4.986-3.135-8.178-4.552-9.54-.132-.126-.248-.236-.344-.334-1.141-1.142-3.359-1.904-5.397-1.843-.993.029-1.717.363-2.154 1.003a.292.292 0 0 1-.18.143l-.436.407a.18.18 0 0 1-.132.057s-1.282.082-3.984 1.664c-2.402 1.41-3.751 3.67-4.32 7.273-.4 2.446.861 4.464 1.602 5.663.156.24.299.49.428.746a.774.774 0 0 1 0 .616c-.232.558-1.069.978-1.477 1.153.144.188.516.526 1.441.775a2.753 2.753 0 0 0 2.302-.485 1.89 1.89 0 0 0 .829-1.374 4.01 4.01 0 0 0-.2-1.268 8.08 8.08 0 0 1-.237-3.363c.301-2.854 3.9-7.033 4.056-7.208a.19.19 0 0 1 .132-.057Z" fill="#263238"/><path d="M146.682 64.004s-.228 2.292-.516 2.903c-.288.612-1.413 1.545-1.065 1.753.348.208 3.963-.786 5.825-1.68 1.862-.892 1.497-2.67 1.601-3.033.105-.362-3.407 1.342-5.845.057Z" fill="#fff"/><path d="M145.273 68.884a.593.593 0 0 1-.28-.05.33.33 0 0 1-.156-.231c-.044-.257.18-.539.581-1.016a4.48 4.48 0 0 0 .564-.77c.224-.473.436-2.206.5-2.834a.195.195 0 0 1 .033-.093.196.196 0 0 1 .072-.066.183.183 0 0 1 .184 0c1.649.869 3.803.314 4.956 0 .613-.154.801-.203.929-.069a.3.3 0 0 1 .056.232c-.008.091-.008.183 0 .274 0 .685-.052 2.103-1.685 2.89-1.458.706-4.705 1.733-5.754 1.733Zm-.028-.408c.549.04 3.736-.815 5.605-1.692 1.41-.68 1.442-1.887 1.458-2.532v-.146l-.473.114c-1.069.277-3.235.836-4.98.077-.072.645-.264 2.177-.505 2.687-.172.31-.381.597-.62.856-.182.2-.344.417-.485.648v-.012Z" fill="#263238"/><path d="M150.537 50.9s2.402 3.383 3.363 4.912a46.64 46.64 0 0 1 2.194 4.114s-.177 1.435-.745 1.736c-.427.193-.891.28-1.357.257 0 0-.493 1.827-2.875 3.087-2.026 1.068-3.511.95-4.884-.36-1.373-1.308-2.122-5.128-1.445-7.578.676-2.45 3.627-4.892 4.091-5.198.465-.306 1.658-.97 1.658-.97Z" fill="#fff"/><path d="M148.66 65.932a3.64 3.64 0 0 1-2.574-1.134c-1.429-1.365-2.19-5.3-1.501-7.787.688-2.486 3.603-4.928 4.171-5.3.465-.317 1.626-.958 1.674-.982a.195.195 0 0 1 .138-.02c.047.01.089.038.118.077.024.037 2.402 3.408 3.371 4.92.969 1.513 2.21 4.106 2.21 4.13a.224.224 0 0 1 .02.115c-.02.159-.212 1.55-.853 1.896-.41.192-.857.288-1.309.281-.176.481-.865 1.973-2.922 3.058a5.492 5.492 0 0 1-2.543.746Zm1.806-14.767c-.336.188-1.137.636-1.489.877-.497.342-3.363 2.74-4.004 5.08-.641 2.34.048 6.115 1.389 7.375 1.341 1.26 2.711 1.357 4.656.33 2.278-1.223 2.767-2.944 2.775-2.96a.205.205 0 0 1 .204-.15c.428.022.856-.058 1.249-.233.332-.18.561-1.007.633-1.525a45.142 45.142 0 0 0-2.154-4.036c-.837-1.33-2.779-4.093-3.247-4.758h-.012Z" fill="#263238"/><path d="M149.059 60.578a.713.713 0 0 1-.496-.163 4.68 4.68 0 0 1-.629-.762.208.208 0 0 1 .046-.298.194.194 0 0 1 .159-.027.203.203 0 0 1 .128.101c.167.248.357.478.568.689.152.142.753 0 1.125-.188a.198.198 0 0 1 .264.102.21.21 0 0 1 .007.156.216.216 0 0 1-.042.068.187.187 0 0 1-.065.045 2.89 2.89 0 0 1-1.065.277ZM149.241 62.155a2.719 2.719 0 0 1-.592-.07 2.28 2.28 0 0 1-1.001-.547 2.348 2.348 0 0 1-.621-.969.216.216 0 0 1 .018-.161.205.205 0 0 1 .283-.084.216.216 0 0 1 .1.127c.103.3.278.57.51.783.231.213.511.365.815.44 1.005.228 1.429-.257 1.437-.265a.192.192 0 0 1 .28-.02.21.21 0 0 1 .02.29 1.625 1.625 0 0 1-1.249.476ZM153.011 58.922a.19.19 0 0 1-.148-.07 1.631 1.631 0 0 0-.789-.451 1.608 1.608 0 0 0-.904.044.207.207 0 0 1-.16-.015.216.216 0 0 1-.088-.288.21.21 0 0 1 .123-.105 1.97 1.97 0 0 1 2.114.522c.019.018.035.04.045.065a.19.19 0 0 1 .016.078.192.192 0 0 1-.061.143.183.183 0 0 1-.148.077ZM148.084 57.629a.19.19 0 0 1-.102-.028.2.2 0 0 1-.074-.078 1.474 1.474 0 0 0-.745-.662 1.443 1.443 0 0 0-.988-.031.204.204 0 0 1-.159-.017.208.208 0 0 1-.101-.126.21.21 0 0 1 .016-.162.202.202 0 0 1 .052-.064.198.198 0 0 1 .072-.04 1.826 1.826 0 0 1 1.267.053c.403.169.736.476.939.87a.2.2 0 0 1 .022.075.2.2 0 0 1-.106.197.185.185 0 0 1-.093.013ZM153.819 57.518a.192.192 0 0 1-.156-.081 2.71 2.71 0 0 0-1.082-.788 2.655 2.655 0 0 0-1.32-.166.197.197 0 0 1-.148-.04.205.205 0 0 1 .092-.364 3.063 3.063 0 0 1 1.519.198c.482.193.91.506 1.243.91a.207.207 0 0 1-.148.331ZM148.889 55.802a.198.198 0 0 1-.128-.045c-.048-.04-1.225-1.02-2.154-.204a.198.198 0 0 1-.282-.022.205.205 0 0 1 .022-.288c.949-.835 2.162-.232 2.67.2a.204.204 0 0 1 .028.285.202.202 0 0 1-.156.074ZM154.87 59.876h-.052a.315.315 0 0 1-.248-.29 14.983 14.983 0 0 1 0-2.16.207.207 0 0 1 .16-.188.207.207 0 0 1 .22.11l.761 1.558c.017.03.025.065.025.1s-.008.07-.025.1c-.344.51-.62.77-.841.77Zm.06-1.63a9.93 9.93 0 0 0 0 1.17c.129-.124.244-.26.345-.408l-.345-.763Z" fill="#263238"/><path d="m163.511 108.762-12.094 1.884-1.734-12.076 12.663-.714 1.165 10.906Z" fill="#fff"/><path d="M151.419 110.847a.202.202 0 0 1-.12-.037.214.214 0 0 1-.08-.134l-1.733-12.08a.22.22 0 0 1 .04-.16.187.187 0 0 1 .144-.073l12.667-.713a.194.194 0 0 1 .14.047.2.2 0 0 1 .068.132l1.161 10.91a.208.208 0 0 1-.039.147.205.205 0 0 1-.129.077l-12.079 1.884h-.04Zm-1.509-12.092 1.678 11.656 11.702-1.827-1.121-10.522-12.259.693Z" fill="#263238"/><path d="M151.418 110.647 148.66 98.73l1.025-.159 1.733 12.076Z" fill="#fff"/><path d="M151.42 110.85a.197.197 0 0 1-.197-.155l-2.762-11.917a.232.232 0 0 1 .028-.163.188.188 0 0 1 .136-.086l1.025-.163a.221.221 0 0 1 .152.037.219.219 0 0 1 .08.134l1.734 12.088a.204.204 0 0 1-.034.148.197.197 0 0 1-.126.081l-.036-.004Zm-2.519-11.954 1.65 7.118-1.037-7.212-.613.094Z" fill="#263238"/><path d="m153.696 72.596 4.276 13.046s.12 2.507.088 4.485c-.032 1.977.912 5.385 1.045 7.815.072 1.394.212 2.972 0 4.358-.161 1.032-1.125 1.806-1.786 2.654-.713.914-.645 2.108-1.321 2.985-.256.334.02.44.432.566.413.127.833-.33.833-.33a5.964 5.964 0 0 0-.344 1.052 5.893 5.893 0 0 1-.437 1.19c.351.17.723.291 1.105.359.497.065.937-.611.937-.611l.709.093c.214-.023.419-.097.6-.216a1.218 1.218 0 0 0 1.037-.232c.401-.387.621-.946.729-1.81.108-.864 1.437-9.842 1.918-13.731.48-3.89-.265-7.718-.493-9.357-.228-1.639-.717-4.631-1.469-10.73-.753-6.1-2.258-7.314-2.258-7.314s-1.446-1.651-3.403-1.537c-1.958.114-3.203 2.589-3.203 2.589" fill="#ADADAD"/><path d="M157.651 110.989h-.092a4.73 4.73 0 0 1-1.169-.379.207.207 0 0 1-.101-.123.214.214 0 0 1-.016-.079.22.22 0 0 1 .016-.08 5.6 5.6 0 0 0 .401-1.141 7.78 7.78 0 0 1 .136-.493.785.785 0 0 1-.484 0c-.273-.082-.581-.176-.657-.408a.512.512 0 0 1 .124-.465c.284-.42.489-.89.605-1.386a4.585 4.585 0 0 1 .716-1.598c.176-.228.377-.449.569-.665.524-.587 1.065-1.19 1.177-1.895.137-1.244.148-2.498.032-3.743l-.032-.57a33.055 33.055 0 0 0-.537-3.813 24.656 24.656 0 0 1-.508-4.016c.028-1.834-.076-4.158-.088-4.435l-4.264-13.046a.205.205 0 0 1 .126-.259.196.196 0 0 1 .153.01.202.202 0 0 1 .101.118l4.272 13.046v.053c0 .025.12 2.532.088 4.485a23.94 23.94 0 0 0 .505 3.938c.251 1.277.431 2.568.54 3.865l.032.567c.119 1.275.106 2.56-.04 3.832-.128.816-.709 1.476-1.273 2.104-.188.212-.4.428-.553.644-.294.453-.5.959-.604 1.492a4.471 4.471 0 0 1-.673 1.521c-.056.069-.056.098-.056.098.127.066.262.115.401.146.24.078.54-.179.628-.273a.203.203 0 0 1 .122-.064.201.201 0 0 1 .203.289 5.997 5.997 0 0 0-.333 1.015 6.009 6.009 0 0 1-.356 1.039c.274.122.562.209.857.261.308.041.644-.363.748-.522a.198.198 0 0 1 .192-.089l.705.089c.168-.031.328-.095.473-.187a.224.224 0 0 1 .152-.025 1.017 1.017 0 0 0 .852-.183c.361-.343.561-.848.665-1.684.036-.277.192-1.366.4-2.854.473-3.261 1.181-8.21 1.51-10.86.4-3.36-.1-6.744-.401-8.562-.04-.281-.08-.53-.108-.742a95.995 95.995 0 0 0-.212-1.44c-.272-1.854-.689-4.655-1.261-9.29-.729-5.892-2.166-7.172-2.182-7.184-.016-.012-1.441-1.598-3.267-1.492-1.826.106-3.015 2.446-3.027 2.478a.202.202 0 0 1-.272.09.205.205 0 0 1-.084-.273c.052-.106 1.317-2.58 3.363-2.703 2.046-.122 3.499 1.533 3.563 1.606.064.074 1.55 1.313 2.302 7.424.573 4.632.989 7.433 1.261 9.284.084.574.157 1.047.213 1.443.028.208.068.456.108.738.284 1.834.8 5.255.4 8.671-.332 2.654-1.041 7.6-1.513 10.869-.216 1.505-.373 2.589-.401 2.854-.116.942-.352 1.521-.8 1.937a1.397 1.397 0 0 1-1.133.297c-.201.126-.43.195-.665.2l-.592-.073a1.363 1.363 0 0 1-.957.591Z" fill="#263238"/><path d="M158.062 90.133c.032-1.969-.088-4.484-.088-4.484l-2.178-6.658 6.242-.978c.484 3.616.801 5.662.985 6.93.228 1.631.977 5.468.492 9.357-.484 3.89-1.813 12.867-1.917 13.731-.105.864-.321 1.423-.729 1.81a1.217 1.217 0 0 1-1.037.233 1.383 1.383 0 0 1-.601.216l-.708-.094s-.441.677-.937.611a4.277 4.277 0 0 1-1.105-.358 5.86 5.86 0 0 0 .436-1.191 6.05 6.05 0 0 1 .345-1.052s-.401.457-.833.331c-.432-.127-.689-.233-.432-.567.676-.877.608-2.071 1.321-2.984.66-.848 1.625-1.631 1.785-2.654.217-1.387.076-2.964 0-4.359-.128-2.454-1.069-5.866-1.041-7.84Z" fill="#fff"/><path d="M157.649 110.987h-.092a4.771 4.771 0 0 1-1.169-.379.204.204 0 0 1-.1-.123.197.197 0 0 1 0-.159c.174-.364.308-.747.4-1.141.044-.184.092-.351.136-.494a.785.785 0 0 1-.484 0c-.272-.081-.581-.175-.657-.407a.512.512 0 0 1 .125-.465c.284-.42.489-.89.604-1.386a4.587 4.587 0 0 1 .717-1.598c.176-.229.376-.449.568-.665.525-.587 1.065-1.19 1.177-1.896.137-1.243.148-2.497.032-3.742l-.032-.571a33.275 33.275 0 0 0-.536-3.812 24.657 24.657 0 0 1-.509-4.016c.028-1.834-.076-4.158-.088-4.435l-2.17-6.633c-.008-.029-.011-.059-.008-.088a.223.223 0 0 1 .028-.084.2.2 0 0 1 .14-.094l6.246-.998a.192.192 0 0 1 .202.097c.014.024.023.05.026.078.333 2.483.589 4.216.777 5.483l.208 1.431c.028.208.068.457.108.738.284 1.835.801 5.255.401 8.672-.333 2.654-1.041 7.599-1.514 10.869-.216 1.504-.372 2.589-.4 2.854-.116.942-.352 1.521-.801 1.936a1.386 1.386 0 0 1-1.133.298c-.2.125-.429.194-.664.2l-.593-.074a1.373 1.373 0 0 1-.945.604Zm-.901-.669c.275.122.562.209.857.261.308.041.645-.363.749-.522a.196.196 0 0 1 .083-.073c.034-.016.072-.022.109-.016l.705.089a1.33 1.33 0 0 0 .472-.187.218.218 0 0 1 .152-.025 1.017 1.017 0 0 0 .853-.183c.36-.343.56-.848.664-1.684.037-.277.193-1.366.401-2.854.472-3.261 1.181-8.21 1.509-10.86.401-3.36-.1-6.744-.4-8.562-.04-.282-.08-.53-.108-.742-.056-.408-.124-.86-.208-1.427a273.089 273.089 0 0 1-.749-5.3l-5.809.925 2.102 6.434v.053c0 .024.12 2.531.088 4.484.059 1.325.228 2.643.504 3.939.251 1.276.432 2.567.541 3.865l.032.566a18.66 18.66 0 0 1-.04 3.832c-.129.816-.709 1.476-1.274 2.104-.188.212-.4.428-.552.644a4.243 4.243 0 0 0-.605 1.468 4.47 4.47 0 0 1-.672 1.521c-.056.069-.056.098-.056.098.126.066.261.115.4.146.24.078.533-.171.629-.273a.194.194 0 0 1 .256-.028.196.196 0 0 1 .068.252c-.14.328-.251.668-.332 1.016a5.971 5.971 0 0 1-.369 1.039Z" fill="#263238"/><path d="M157.26 108.385a.18.18 0 0 1-.08 0 .2.2 0 0 1-.105-.114.203.203 0 0 1 .005-.155l.6-1.386a.215.215 0 0 1 .045-.066.2.2 0 0 1 .143-.058.201.201 0 0 1 .182.131.21.21 0 0 1-.002.156l-.604 1.386a.211.211 0 0 1-.077.08.212.212 0 0 1-.107.026Z" fill="#263238"/><path d="M105.748 145.511s1.333 4.142 1.934 5.365c.6 1.223 2.066 4.142 2.266 4.749.2.608 0 1.02-.865 1.223a4.393 4.393 0 0 1-2.197-.26 4.467 4.467 0 0 1-1.806-1.301c-1.27-1.492-2.002-3.262-2.467-3.8-.464-.538-1.801-.746-1.601-2.58a9.122 9.122 0 0 1 1.333-3.531l3.403.135Z" fill="#fff"/><path d="M108.492 157.102a4.738 4.738 0 0 1-1.959-.457 4.83 4.83 0 0 1-1.604-1.234 17.398 17.398 0 0 1-1.825-2.765 8.146 8.146 0 0 0-.641-1.035 2.231 2.231 0 0 0-.448-.351c-.577-.379-1.362-.901-1.201-2.389a9.218 9.218 0 0 1 1.369-3.62.216.216 0 0 1 .076-.065.214.214 0 0 1 .096-.025l3.399.135a.195.195 0 0 1 .113.043c.033.025.058.06.071.099 0 .041 1.333 4.138 1.922 5.333l.4.779c.725 1.471 1.722 3.485 1.894 4.003a1.08 1.08 0 0 1-.024.885 1.41 1.41 0 0 1-.989.599 2.777 2.777 0 0 1-.649.065Zm-6.041-11.517a8.827 8.827 0 0 0-1.237 3.347c-.136 1.223.476 1.631 1.017 1.998.195.11.374.247.532.408.26.346.49.715.689 1.1a16.87 16.87 0 0 0 1.782 2.699c1.165 1.378 2.922 1.705 3.803 1.497a1.071 1.071 0 0 0 .729-.408.703.703 0 0 0 0-.559c-.161-.489-1.202-2.568-1.874-3.946l-.4-.779c-.545-1.109-1.662-4.521-1.898-5.255l-3.143-.102Z" fill="#263238"/><path d="M109.082 156.851c.661-.155.933-.428.937-.815-1.501.118-3.879-.612-4.736-1.892-1.001-1.492-1.934-3.392-2.803-4.004-.4-.277-.96-.75-1.469-1.182-.172 1.794 1.141 1.998 1.601 2.54.461.542 1.202 2.307 2.467 3.8a4.466 4.466 0 0 0 1.807 1.296 4.39 4.39 0 0 0 2.196.257Z" fill="#fff"/><path d="M108.493 157.102a4.724 4.724 0 0 1-1.96-.458 4.801 4.801 0 0 1-1.603-1.234 17.281 17.281 0 0 1-1.826-2.764 8.146 8.146 0 0 0-.641-1.035 2.136 2.136 0 0 0-.448-.351c-.569-.375-1.345-.893-1.201-2.344a.192.192 0 0 1 .035-.102.18.18 0 0 1 .085-.065.188.188 0 0 1 .204.032c.645.546 1.133.942 1.457 1.17.637.449 1.278 1.509 1.958 2.634.292.477.589.97.893 1.423.801 1.174 3.051 1.916 4.556 1.802a.19.19 0 0 1 .082.012.213.213 0 0 1 .118.113.212.212 0 0 1 .016.083c0 .762-.825.954-1.093 1.019-.208.045-.42.067-.632.065Zm-7.295-7.746c.04.901.565 1.248 1.037 1.561.195.11.372.247.529.408.259.347.489.715.688 1.101a16.87 16.87 0 0 0 1.782 2.699c1.165 1.378 2.922 1.704 3.803 1.496.457-.106.653-.257.729-.408-1.602.045-3.812-.738-4.652-1.993-.305-.457-.609-.958-.901-1.439-.657-1.085-1.277-2.112-1.846-2.512-.28-.167-.668-.477-1.169-.913ZM86.457 75.43l-1.49 12.439h-2.053s-1.77 16.801-1.49 16.899c.28.097 20.418 4.745 20.418 4.745l1.958-21.078-16.967-.945 1.493-12.231-1.87.171Z" fill="#263238"/><path d="M101.836 109.719h-.024c-2.062-.477-20.154-4.66-20.418-4.754-.217-.073-.329-.11.504-8.7.4-4.163.845-8.37.853-8.415a.2.2 0 0 1 .064-.128.194.194 0 0 1 .132-.051h1.873l1.474-12.26a.197.197 0 0 1 .057-.12.19.19 0 0 1 .119-.055l1.866-.192a.21.21 0 0 1 .164.062.208.208 0 0 1 .052.167l-1.466 12.03 16.755.939a.188.188 0 0 1 .141.069c.017.02.03.044.039.07a.218.218 0 0 1 .009.08l-1.958 21.078a.209.209 0 0 1-.154.179.19.19 0 0 1-.082.001Zm-20.246-5.117c1.289.318 13.391 3.119 20.069 4.664l1.918-20.654-16.759-.937a.193.193 0 0 1-.182-.144.207.207 0 0 1-.006-.085l1.461-11.99-1.457.147-1.473 12.276a.205.205 0 0 1-.065.127.199.199 0 0 1-.131.052H83.09c-.653 6.234-1.557 15.415-1.501 16.544Z" fill="#263238"/><path d="M78.213 96.901s.533-3.326.132-4.207c-.4-.88-4.468-1.561-6.998-1.02-2.53.543-5.801 2.174-6.005 3.124-.204.95.668.884 1.933 1.019 1.265.135 3.8.273 4.733.612a5.155 5.155 0 0 1 1.801 1.422s1.538-2.311 4.404-.95Z" fill="#fff"/><path d="M73.815 98.055a.197.197 0 0 1-.156-.074 4.931 4.931 0 0 0-1.713-1.361c-.68-.25-2.286-.408-3.58-.498-.4-.037-.8-.07-1.104-.102l-.473-.049c-.74-.065-1.277-.114-1.533-.465a.9.9 0 0 1-.104-.75c.228-1.088 3.631-2.74 6.153-3.281 2.522-.543 6.758.106 7.207 1.133.4.913-.064 3.979-.12 4.325a.208.208 0 0 1-.105.151.205.205 0 0 1-.176 0c-2.674-1.268-4.091.791-4.151.88a.188.188 0 0 1-.157.087l.012.004Zm-.364-6.377a10.133 10.133 0 0 0-2.066.192c-2.714.583-5.689 2.218-5.845 2.968a.535.535 0 0 0 .032.408c.152.208.66.252 1.25.305l.476.045 1.1.102c1.314.114 2.947.253 3.68.522a4.86 4.86 0 0 1 1.725 1.3 3.59 3.59 0 0 1 1.972-1.187 3.544 3.544 0 0 1 2.276.262c.156-1.056.4-3.213.112-3.832-.24-.522-2.498-1.085-4.712-1.085Z" fill="#263238"/><path d="M76.943 93.237c.585.24 1.113.407 1.55.57a2.983 2.983 0 0 0-.148-1.112c-.4-.885-4.468-1.562-6.999-1.02-2.53.543-5.8 2.173-6.005 3.123-.088.408.028.636.296.767a5.938 5.938 0 0 1 2.839-2.124c2.602-1.02 6.802-.88 8.467-.204Z" fill="#fff"/><path d="M65.64 95.767a.214.214 0 0 1-.085-.02.81.81 0 0 1-.382-.419.83.83 0 0 1-.018-.572c.228-1.088 3.631-2.74 6.153-3.281 2.523-.543 6.758.106 7.207 1.133.13.384.185.79.164 1.194a.202.202 0 0 1-.08.168.194.194 0 0 1-.18.028 24.847 24.847 0 0 1-1.562-.57c-1.537-.629-5.713-.816-8.319.203a5.744 5.744 0 0 0-2.746 2.039.209.209 0 0 1-.153.097Zm7.81-4.076c-.692-.011-1.385.049-2.065.179-2.715.583-5.69 2.218-5.846 2.968a.496.496 0 0 0 .048.444 6.314 6.314 0 0 1 2.803-2.038c2.57-1.007 6.806-.934 8.612-.2.4.167.844.326 1.265.473a2.072 2.072 0 0 0-.12-.742c-.225-.534-2.483-1.097-4.697-1.097v.013ZM86.2 94.8s-1.935 4.276-2.135 6.653c-.2 2.377-.532 5.023-.532 5.023l-1.001 5.026S78.6 98.864 78.4 97.788a2.113 2.113 0 0 0-.535-1.198c-.3-.33-.696-.554-1.13-.637-.87-.204-2.735-.065-3.067.611a1.292 1.292 0 0 0 .132 1.289s-.332.139-.068.954a4.851 4.851 0 0 0 1 1.561s2.467 13.507 3.204 16.565c.736 3.058 5.268 8.623 5.933 8.076.665-.546 10.81-16.495 11.002-16.63.192-.134 1.601-2.311 1.601-2.311s1.201 9.98 2.266 13.988c1.065 4.007 2.198 8.892 2.198 8.892s-1.133 3.122-1 5.634c.131 2.511 2.534 10.318 2.534 10.318s-.465.681-.401.954c.064.274.2.677.2.677.306.075.619.12.933.135a4.127 4.127 0 0 0 1.734-.408l.8-.269c.102-.675.169-1.356.201-2.038 0-.677 1.201-15.819 1.269-17.123.068-1.305 1.797-11.542 1.065-16.634-.733-5.092-1.802-10.657-1.802-10.657l.068-2.512-19.665-3.192-.673.966Z" fill="#263238"/><path d="M103.365 146.878h-.168a5.166 5.166 0 0 1-.981-.147.189.189 0 0 1-.077-.048.202.202 0 0 1-.047-.078s-.136-.408-.204-.693c-.068-.286.204-.775.372-1.036-.284-.933-2.402-7.885-2.51-10.274-.108-2.389.829-5.202.989-5.658a363.04 363.04 0 0 0-2.186-8.827c-.913-3.433-1.934-11.322-2.202-13.454-.404.66-.853 1.289-1.345 1.884-.112.134-1.67 2.54-3.315 5.088-4.096 6.331-7.263 11.199-7.67 11.533a.428.428 0 0 1-.444.045c-1.278-.444-5.13-5.389-5.81-8.231-.701-2.923-3.011-15.529-3.203-16.516a4.866 4.866 0 0 1-1.005-1.598c-.188-.575-.108-.884 0-1.043a1.446 1.446 0 0 1-.056-1.35c.4-.815 2.402-.934 3.29-.722.472.096.901.34 1.228.7.326.358.533.813.59 1.298.168.91 3.047 10.192 3.896 12.936l.844-4.252s.333-2.654.529-4.998c.196-2.345 2.074-6.548 2.154-6.723v-.033l.668-.95a.189.189 0 0 1 .197-.081l19.665 3.188a.2.2 0 0 1 .168.208l-.064 2.49c.072.388 1.093 5.77 1.794 10.646.584 4.032-.373 11.289-.833 14.774-.124.946-.216 1.631-.228 1.9-.032.567-.284 3.857-.549 7.339-.336 4.395-.72 9.377-.72 9.752a20.162 20.162 0 0 1-.2 2.067.212.212 0 0 1-.046.101.198.198 0 0 1-.091.062l-.8.273a4.536 4.536 0 0 1-1.63.428Zm-.929-.518c.265.05.533.085.801.106a4.093 4.093 0 0 0 1.63-.407l.704-.241c.093-.624.153-1.253.18-1.884 0-.387.369-5.165.721-9.784.268-3.482.516-6.768.549-7.339 0-.281.104-.974.232-1.928.456-3.469 1.409-10.686.836-14.677-.724-5.027-1.789-10.6-1.801-10.649-.012-.049 0-.028 0-.045l.064-2.332-19.373-3.143-.58.815c-.137.302-1.922 4.33-2.11 6.568-.197 2.353-.533 5.007-.533 5.035l-1.005 5.039a.21.21 0 0 1-.052.148.198.198 0 0 1-.283.014.205.205 0 0 1-.065-.141c-.16-.518-3.94-12.639-4.14-13.74a1.911 1.911 0 0 0-.485-1.093 1.853 1.853 0 0 0-1.032-.578c-.853-.2-2.583-.028-2.843.502a1.097 1.097 0 0 0 .112 1.076.203.203 0 0 1-.007.261.196.196 0 0 1-.077.053c-.028.024-.108.212.052.697.22.55.543 1.053.949 1.48a.222.222 0 0 1 .056.106c.024.138 2.474 13.539 3.203 16.556.729 3.017 4.968 8.089 5.629 7.958.4-.322 4.708-7.008 7.57-11.415 3.055-4.717 3.34-5.141 3.428-5.202.088-.061.888-1.223 1.545-2.251a.193.193 0 0 1 .212-.085.198.198 0 0 1 .152.171c0 .102 1.201 10.013 2.262 13.959 1.061 3.947 2.19 8.851 2.202 8.9a.185.185 0 0 1 0 .114c0 .033-1.117 3.115-.989 5.557.129 2.442 2.503 10.193 2.527 10.266a.204.204 0 0 1-.028.179c-.18.231-.306.5-.369.787.04.208.112.449.156.587Z" fill="#263238"/><path d="M82.482 112.114a55.259 55.259 0 0 0-1.201 7.604l1.2-7.604Z" fill="#fff"/><path d="M81.282 119.918a.203.203 0 0 1-.076-.019.206.206 0 0 1-.063-.048.207.207 0 0 1-.05-.149 55.698 55.698 0 0 1 1.202-7.636.217.217 0 0 1 .033-.075.22.22 0 0 1 .058-.056.197.197 0 0 1 .155-.026.2.2 0 0 1 .128.093.208.208 0 0 1 .026.157 55.768 55.768 0 0 0-1.2 7.571.204.204 0 0 1-.213.188Z" fill="#263238"/><path d="M91.347 62.142s-3.864 4.211-5.333 5.638c-1.47 1.427-10.865 13.862-10.998 14.188-.132.326-.268 3.87 2.599 3.123 2.866-.746 9.268-6.992 9.268-6.992s3.531 1.83 4.264 2.92a3.549 3.549 0 0 1 .336 3.123c-.268.88-5.069 9.502-5.269 10.656 0 0 2.002 4.008 9.4 4.212 7.399.203 10.734-1.358 10.934-1.97.136-.578.203-1.17.201-1.765 0 0 .332-9.165.132-12.834-.201-3.67.136-6.788-.865-12.422-1.001-5.635-1.133-6.523-1.133-6.523s3.667-7.196 6.466-12.761c2.798-5.565 3.399-8.692 2.666-9.642-.733-.95-3.467-1.223-5.265 1.63-1.797 2.855-4.135 8.693-5.068 9.985a21.103 21.103 0 0 1-4.468 4.277c-1.602 1.084-3.8 2.238-3.8 2.238s-3.467 1.562-4.067 2.92Z" fill="#fff"/><path d="M96.894 99.232H95.61c-7.434-.208-9.488-4.154-9.572-4.321a.212.212 0 0 1 0-.13c.124-.71 1.81-3.935 3.303-6.777.957-1.83 1.865-3.563 1.97-3.905.348-1.158.248-2.124-.309-2.948-.62-.917-3.435-2.446-4.067-2.788-.865.84-6.534 6.237-9.253 6.93-.96.253-1.713.078-2.226-.522-.8-.921-.72-2.588-.608-2.853.176-.445 9.652-12.904 11.05-14.27 1.397-1.365 4.988-5.259 5.3-5.601.661-1.403 4.004-2.928 4.156-2.989 0 0 2.198-1.158 3.771-2.226a20.742 20.742 0 0 0 4.404-4.227 35.236 35.236 0 0 0 1.95-3.861 62.864 62.864 0 0 1 3.111-6.116c.909-1.447 2.218-2.311 3.603-2.377a2.366 2.366 0 0 1 2.002.73c.893 1.154-.072 4.75-2.647 9.862a2975.115 2975.115 0 0 1-6.433 12.704c.044.285.268 1.63 1.121 6.446.551 3.085.819 6.216.8 9.352 0 1.052.028 2.038.085 3.098.2 3.633-.129 12.757-.133 12.85a7.572 7.572 0 0 1-.212 1.82c-.288.753-3.511 2.12-9.88 2.12Zm-10.469-4.484c.292.497 2.514 3.852 9.208 4.04 7.427.208 10.602-1.403 10.742-1.83.127-.558.19-1.129.188-1.7 0-.103.332-9.206.132-12.823-.056-1.06-.068-2.059-.084-3.115a51.169 51.169 0 0 0-.797-9.262c-.989-5.573-1.133-6.523-1.137-6.523a.239.239 0 0 1 .02-.127c.04-.069 3.7-7.257 6.47-12.76 2.895-5.761 3.287-8.644 2.686-9.422a2.03 2.03 0 0 0-1.669-.575c-1.237.057-2.43.856-3.271 2.19a62.391 62.391 0 0 0-3.099 6.062c-.832 1.781-1.549 3.322-2.001 3.926a21.166 21.166 0 0 1-4.516 4.325c-1.602 1.08-3.796 2.243-3.82 2.255-.024.012-3.415 1.55-3.975 2.821a.171.171 0 0 1-.036.057c-.04.04-3.888 4.228-5.341 5.643-1.453 1.414-10.702 13.637-10.958 14.126-.052.147-.16 1.651.553 2.446.4.461 1.017.587 1.817.38 2.783-.722 9.112-6.878 9.176-6.931a.2.2 0 0 1 .229-.037c.148.078 3.603 1.871 4.344 2.984a3.732 3.732 0 0 1 .356 3.298c-.108.363-.829 1.75-2.002 3.98-1.33 2.597-3.01 5.805-3.215 6.592v-.02Z" fill="#263238"/><path d="M106.548 97.041c.136-.578.204-1.17.201-1.765 0 0 .332-9.165.132-12.834-.2-3.67.136-6.788-.865-12.422-1.001-5.635-1.133-6.523-1.133-6.523s1.657-3.262 3.603-7.086l-3.823-5.5c-.284.621-.61 1.22-.977 1.794a21.103 21.103 0 0 1-4.468 4.277c-1.602 1.084-3.8 2.238-3.8 2.238s-3.467 1.561-4.067 2.919c0 0-3.864 4.211-5.333 5.638-.917.89-4.924 6.07-7.839 9.915l6.382 2.549a75.608 75.608 0 0 0 2.326-2.145s3.531 1.83 4.264 2.92a3.549 3.549 0 0 1 .336 3.123c-.268.88-5.069 9.502-5.269 10.656 0 0 2.002 4.008 9.4 4.212 7.399.203 10.73-1.354 10.93-1.966Z" fill="#FFC100"/><path d="M96.895 99.232H95.61c-7.434-.208-9.488-4.155-9.572-4.322a.212.212 0 0 1 0-.13c.124-.71 1.81-3.935 3.303-6.776.957-1.83 1.865-3.564 1.97-3.906.348-1.158.248-2.124-.309-2.948-.62-.917-3.435-2.446-4.067-2.788a59.783 59.783 0 0 1-2.226 2.038.2.2 0 0 1-.205.037l-6.385-2.548a.215.215 0 0 1-.12-.139.2.2 0 0 1 .036-.175c2.454-3.261 6.874-8.97 7.863-9.944 1.389-1.35 4.988-5.259 5.3-5.601.66-1.403 4.004-2.928 4.156-2.989 0 0 2.198-1.157 3.771-2.226a20.742 20.742 0 0 0 4.404-4.227c.362-.563.681-1.151.957-1.762a.209.209 0 0 1 .164-.114.211.211 0 0 1 .18.086l3.824 5.5a.217.217 0 0 1 0 .212c-1.786 3.526-3.335 6.568-3.567 7.028.044.286.268 1.63 1.121 6.446a51.43 51.43 0 0 1 .8 9.352c0 1.052.028 2.039.084 3.099.201 3.632-.128 12.756-.132 12.85a7.573 7.573 0 0 1-.212 1.819c-.26.762-3.483 2.128-9.853 2.128Zm-10.469-4.485c.292.497 2.514 3.853 9.208 4.04 7.423.204 10.602-1.402 10.742-1.83.127-.558.19-1.128.188-1.7 0-.102.332-9.206.132-12.822-.056-1.06-.068-2.06-.084-3.115a51.169 51.169 0 0 0-.797-9.263c-.989-5.573-1.133-6.523-1.137-6.523a.239.239 0 0 1 .02-.126s1.63-3.197 3.543-6.976l-3.559-5.12a11.593 11.593 0 0 1-.844 1.516 21.164 21.164 0 0 1-4.516 4.326c-1.602 1.08-3.796 2.242-3.82 2.254-.024.012-3.415 1.55-3.975 2.822a.171.171 0 0 1-.036.057c-.04.04-3.888 4.227-5.341 5.642-.837.815-4.404 5.406-7.659 9.679l6.005 2.4c1.29-1.14 2.218-2.037 2.226-2.037a.199.199 0 0 1 .229-.037c.148.077 3.603 1.871 4.343 2.984a3.732 3.732 0 0 1 .356 3.298c-.107.363-.828 1.75-2.001 3.98-1.337 2.576-3.019 5.785-3.223 6.571v-.02Z" fill="#263238"/><path d="M86.886 78.306a.202.202 0 0 1-.176-.106.199.199 0 0 1 .052-.257l2.93-2.377a.197.197 0 0 1 .268.043.207.207 0 0 1-.02.275l-2.001 1.631 3.69-1.305a.198.198 0 0 1 .155.01.208.208 0 0 1 .094.274.203.203 0 0 1-.116.104l-4.804 1.696a.178.178 0 0 1-.072.012ZM104.884 63.709a.205.205 0 0 1-.192-.196l-.2-5.77a.21.21 0 0 1 .053-.146.2.2 0 0 1 .139-.065.203.203 0 0 1 .143.055.208.208 0 0 1 .065.14l.104 3.042.497-4.415a.204.204 0 0 1 .224-.18.201.201 0 0 1 .17.149.215.215 0 0 1 .006.08l-.801 7.126a.2.2 0 0 1-.068.133.195.195 0 0 1-.14.047Z" fill="#263238"/><path d="M114.221 43.333s.312-1.532-.192-2.234c-.505-.701-2.134-.9-4.144-.07-2.01.833-12.13 5.827-13.076 6.785-.944.958-3.266 4.163-3.266 4.163l3.895 3.392c.407-.757.743-1.55 1.005-2.37.252-.961-.188-3.669-.188-3.669s6.726-2.494 8.487-2.494c1.762 0 5.405-1.538 6.158-2.304" fill="#fff"/><path d="M97.406 55.59a.21.21 0 0 1-.128-.05l-3.875-3.408a.205.205 0 0 1-.032-.277c.096-.13 2.346-3.225 3.287-4.183 1.005-1.023 11.266-6.054 13.139-6.829 2.162-.897 3.844-.607 4.38.139.537.746.24 2.328.228 2.397a.205.205 0 0 1-.242.161.205.205 0 0 1-.129-.09.21.21 0 0 1-.029-.157c.08-.407.212-1.561-.156-2.07-.436-.604-1.958-.816-3.911 0-2.138.884-12.103 5.817-13.004 6.739-.8.815-2.666 3.334-3.139 3.983l3.563 3.102c.354-.671.646-1.374.873-2.1.236-.905-.188-3.534-.192-3.563a.207.207 0 0 1 .025-.135.2.2 0 0 1 .103-.089c.276-.102 6.778-2.507 8.556-2.507 1.713 0 5.288-1.505 6.005-2.247a.198.198 0 0 1 .339.145.2.2 0 0 1-.059.145c-.8.815-4.468 2.364-6.297 2.364-1.562 0-7.247 2.039-8.264 2.426.096.612.4 2.707.16 3.568a14.35 14.35 0 0 1-1.025 2.413.205.205 0 0 1-.14.102l-.036.02Z" fill="#263238"/><path d="M89.144 61.34s1.71 1.683 2.11 2.376a4.451 4.451 0 0 0 2.11 1.586c.845.3 1.759.335 2.622.098 2.45-.697 1.31-4.179 1.137-4.35-.172-.171-2.734 1.333-4.332 1.1a35 35 0 0 1-3.647-.81Z" fill="#fff"/><path d="M94.812 65.779a4.609 4.609 0 0 1-2.092-.525 4.701 4.701 0 0 1-1.639-1.424c-.38-.664-2.058-2.32-2.074-2.336a.205.205 0 0 1 .06-.34.197.197 0 0 1 .132-.007c1.192.34 2.402.612 3.624.816.992.147 2.458-.453 3.335-.816.732-.301.956-.407 1.108-.236.452.947.58 2.02.36 3.05a2.215 2.215 0 0 1-.574 1.045c-.283.288-.638.49-1.027.585a4.44 4.44 0 0 1-1.213.188ZM89.8 61.726c.589.579 1.125 1.21 1.601 1.888a4.285 4.285 0 0 0 2.015 1.493 4.206 4.206 0 0 0 2.49.097c.285-.07.55-.211.768-.412.218-.201.384-.455.48-.738.377-1.056-.024-2.446-.172-2.805-.144.041-.436.16-.7.265-.973.408-2.442 1-3.543.84-.981-.146-2.178-.436-2.94-.628Z" fill="#263238"/><path d="M84.072 50.485s-.969 3.078-2.002 3.775c-1.033.697-4.96-1.74-8.435-.754-3.475.986-4.276 4.484-4.16 5.398.048.511.204 1.006.456 1.451.056-.807.31-1.587.741-2.267a5.009 5.009 0 0 1 1.878-1.508s-3.019 4.122-.91 6.906a5.588 5.588 0 0 0 2.214 1.805 5.479 5.479 0 0 0 2.8.462c-.169 0-1.138-.754-.97-1.509.169-.754 1.37-1.683 1.37-1.683s-.741 2.446.284 3.192 4.804 2.552 7.75 1.565c2.947-.986 5.362-5.3 4.733-6.73-.629-1.431-3.079-5.3-2.222-6.678.49-.75.802-1.603.913-2.496 0 0-.74-1.508-2.166-1.683a2.754 2.754 0 0 0-1.22.117c-.393.13-.753.348-1.054.637Z" fill="#263238"/><path d="M83.208 67.819a11.716 11.716 0 0 1-5.977-1.892c-.8-.579-.665-1.973-.509-2.789-.368.312-.654.71-.832 1.162-.133.575.624 1.224.8 1.26.044 0 .085.017.117.046.033.03.054.07.06.113a.208.208 0 0 1-.017.134.202.202 0 0 1-.096.095c-.216.106-3.203.379-5.264-2.324-1.666-2.202-.325-5.121.456-6.45-.426.278-.8.631-1.105 1.044a4.748 4.748 0 0 0-.704 2.156.197.197 0 0 1-.144.188.198.198 0 0 1-.209-.082 3.813 3.813 0 0 1-.488-1.537c-.116-.937.636-4.578 4.308-5.618 2.081-.595 4.343.02 6.005.47 1.089.293 2.026.55 2.378.309.8-.538 1.654-2.83 1.918-3.67a.213.213 0 0 1 .044-.077c.323-.313.71-.548 1.134-.69a2.942 2.942 0 0 1 1.316-.125c1.513.183 2.286 1.729 2.318 1.794a.224.224 0 0 1 .024.102 6.078 6.078 0 0 1-.945 2.593c-.6.982.72 3.522 1.602 5.202.268.51.496.954.64 1.284.236.542.116 1.415-.34 2.446-.757 1.725-2.49 3.881-4.512 4.558a6.21 6.21 0 0 1-1.978.298Zm-6.145-5.463a.2.2 0 0 1 .192.26c-.196.64-.533 2.422.212 2.969 1.013.746 4.692 2.495 7.57 1.54 1.906-.635 3.552-2.694 4.272-4.337.4-.901.521-1.696.337-2.12-.136-.318-.365-.754-.625-1.256-.977-1.871-2.31-4.427-1.601-5.61a5.86 5.86 0 0 0 .877-2.344c-.136-.249-.825-1.382-1.982-1.525a2.556 2.556 0 0 0-2.082.66c-.132.408-1.049 3.148-2.058 3.833-.504.343-1.425.09-2.706-.257-1.698-.456-3.808-1.031-5.79-.469-3.37.958-4.115 4.35-4.003 5.178.031.252.085.5.16.742a4.587 4.587 0 0 1 .677-1.63 5.22 5.22 0 0 1 1.966-1.583.197.197 0 0 1 .238.06.206.206 0 0 1 .002.25c-.032.041-2.907 4.032-.917 6.662a5.49 5.49 0 0 0 1.875 1.607c.737.384 1.55.593 2.377.61a3.127 3.127 0 0 1-.224-.248 1.344 1.344 0 0 1-.333-1.137c.184-.816 1.39-1.757 1.442-1.798a.187.187 0 0 1 .124-.057Z" fill="#263238"/><path d="M97.608 57.461c.556-.334.41-1.635-.328-2.904-.737-1.27-1.785-2.028-2.34-1.693-.556.335-.41 1.635.328 2.905.737 1.269 1.785 2.027 2.34 1.692Z" fill="#fff"/><path d="M97.302 57.74c-.664 0-1.537-.717-2.21-1.87a5.072 5.072 0 0 1-.672-1.884c-.072-.636.076-1.097.4-1.301.673-.408 1.798.35 2.618 1.761.821 1.41.93 2.78.257 3.184a.79.79 0 0 1-.393.11Zm-1.865-2.079c.728 1.252 1.673 1.86 2.07 1.63.396-.227.328-1.373-.4-2.625-.73-1.251-1.67-1.855-2.067-1.63-.192.114-.276.444-.224.9.092.612.303 1.198.62 1.725Z" fill="#263238"/><path d="M87.327 50.949s-2.166 2.6-1.926 3.824c.24 1.223.853 1.043.853 1.63 0 .588-.112 1.509-.112 1.509s3.018 3.261 3.819 4.077c.8.815 5.641 2.038 7.01.986 1.37-1.051.168-5.707-.344-6.963-.513-1.256-2.334-4.077-2.907-4.819-.572-.742-5.653-1.696-6.393-.244Z" fill="#fff"/><path d="M95.164 63.57c-2.021 0-4.728-.815-5.36-1.447-.801-.815-3.792-4.036-3.824-4.077a.204.204 0 0 1-.052-.163s.112-.925.112-1.484c0-.155-.052-.212-.204-.354a1.955 1.955 0 0 1-.644-1.223c-.237-1.256 1.681-3.637 1.965-3.984.249-.46.857-.738 1.802-.815 1.73-.155 4.436.408 4.908 1.048.52.689 2.402 3.51 2.935 4.864.5 1.251 1.797 6.042.276 7.203a3.266 3.266 0 0 1-1.914.433Zm-8.808-5.727c.445.477 3.031 3.261 3.752 3.99.78.816 5.489 1.93 6.75.967 1.261-.962.112-5.426-.4-6.723-.493-1.223-2.287-3.983-2.88-4.77-.323-.428-2.802-1.052-4.56-.893-.8.074-1.316.29-1.488.628l-.025.041c-.584.705-2.065 2.74-1.893 3.67.043.392.23.753.524 1.01a.811.811 0 0 1 .333.653 33.288 33.288 0 0 1-.132 1.427h.02Z" fill="#263238"/><path d="M88.975 57.073a.186.186 0 0 1-.068 0 .206.206 0 0 1-.114-.105.212.212 0 0 1-.01-.156c.122-.325.318-.617.57-.851.254-.235.558-.405.888-.498a.201.201 0 0 1 .212.084.211.211 0 0 1-.124.324 1.789 1.789 0 0 0-.707.406 1.83 1.83 0 0 0-.458.682.203.203 0 0 1-.189.114ZM87.895 56.32a.2.2 0 0 1-.138-.063.206.206 0 0 1-.054-.144 2.43 2.43 0 0 1 .468-1.375 2.36 2.36 0 0 1 1.161-.847.205.205 0 0 1 .254.149.215.215 0 0 1-.073.222.206.206 0 0 1-.073.037c-.384.127-.719.372-.959.703-.24.33-.372.729-.378 1.14a.205.205 0 0 1-.07.13.198.198 0 0 1-.138.049ZM93.879 57.016a.194.194 0 0 1-.148-.065.201.201 0 0 1-.06-.145.207.207 0 0 1 .06-.145c.44-.407.252-.725.252-.725a.202.202 0 0 1 .064-.282.19.19 0 0 1 .272.066.994.994 0 0 1-.32 1.243.183.183 0 0 1-.12.053ZM93.651 60.215c-.969 0-2.27-1.195-2.402-1.338a.205.205 0 0 1 .074-.34.197.197 0 0 1 .134.002c1.485.591 3.567-.616 3.603-.628a.19.19 0 0 1 .29.095.206.206 0 0 1 .007.117c-.052.196-.52 1.937-1.538 2.067l-.168.025Zm-1.51-1.113c.51.375 1.158.754 1.602.701.445-.053.849-.767 1.053-1.309a5.75 5.75 0 0 1-2.654.608ZM93.533 54.287a.19.19 0 0 1-.133-.053.206.206 0 0 1 0-.285c.2-.205.448-.356.72-.438.272-.083.56-.095.838-.035a.201.201 0 0 1 .156.16.207.207 0 0 1-.236.243 1.27 1.27 0 0 0-1.181.343.203.203 0 0 1-.164.065ZM92.28 53.015a.192.192 0 0 1-.14-.061.2.2 0 0 1-.043-.22.2.2 0 0 1 .043-.065 2.049 2.049 0 0 1 2.27-.338.206.206 0 0 1 .108.111c.02.05.02.107 0 .157a.202.202 0 0 1-.107.11.197.197 0 0 1-.153 0 1.67 1.67 0 0 0-1.833.245.202.202 0 0 1-.144.061Z" fill="#263238"/><path d="M85.952 52.226s1.766-1.684 4.004-.873c2.238.812 4.003 1.276 4.784.58.78-.698.685-2.145.288-2.04-.396.107-.512.352-.856-.175-.345-.525-2.166-2.038-5.129-2.205-2.963-.167-5.016 1.451-4.96 2.96.056 1.508 1.025 1.745 1.025 1.745" fill="#263238"/><path d="M93.607 52.477c-.94 0-2.21-.375-3.727-.93-2.078-.758-3.771.816-3.787.816a.196.196 0 0 1-.216.044.206.206 0 0 1-.064-.334c.075-.073 1.881-1.757 4.191-.913 1.942.71 3.84 1.276 4.592.616a1.743 1.743 0 0 0 .525-1.288.748.748 0 0 0-.092-.408.796.796 0 0 1-.164.085c-.305.127-.541.175-.877-.334-.337-.51-2.126-1.949-4.973-2.116-1.65-.094-3.17.383-4.071 1.284a2.068 2.068 0 0 0-.677 1.468c.052 1.32.84 1.541.873 1.55.05.013.094.046.122.091.028.046.037.1.026.153a.202.202 0 0 1-.089.127.193.193 0 0 1-.151.024c-.044 0-1.117-.286-1.181-1.933a2.46 2.46 0 0 1 .217-.972 2.42 2.42 0 0 1 .583-.801c.981-.979 2.615-1.5 4.376-1.395 2.943.172 4.86 1.631 5.285 2.296.176.269.188.265.4.18a2.32 2.32 0 0 1 .245-.09.394.394 0 0 1 .444.224c.124.374.14.777.043 1.16-.097.383-.301.73-.587.996a1.85 1.85 0 0 1-1.266.4Z" fill="#263238"/><path d="M84.63 59.276a31.782 31.782 0 0 1-1.809-4.73c-.684-2.445 1.201-4.643 1.201-4.643s-.512 1.452.228 4.077a31.202 31.202 0 0 0 2.162 5.276l-1.781.02Z" fill="#fff"/><path d="M84.629 59.48a.201.201 0 0 1-.18-.114 32.011 32.011 0 0 1-1.822-4.761c-.704-2.516 1.157-4.742 1.237-4.836a.2.2 0 0 1 .34.066.208.208 0 0 1 0 .138s-.48 1.431.233 3.938a30.72 30.72 0 0 0 2.162 5.24.206.206 0 0 1-.07.273.19.19 0 0 1-.098.028l-1.782.029h-.02Zm-.969-8.695c-.476.815-1.06 2.23-.648 3.706a31.481 31.481 0 0 0 1.741 4.578h1.33c-.822-1.61-1.502-3.29-2.03-5.023a9.38 9.38 0 0 1-.393-3.261Z" fill="#263238"/><path d="M83.851 58.44s-2.078 3.327-2.138 4.416l-.188 3.392s-4.776 9.666-6.222 13.046c-1.445 3.38-.504 5.373.753 5.822 1.257.448 3.603-.897 4.084-1.982.48-1.084 3.583-15.81 3.711-16.128.128-.318 2.074-.897 2.262-1.346.44-.724.944-1.406 1.505-2.038.193-.191-.376-.514-.94-.322-.565.192-.753.383-1.005.449-.252.065-.297-1.313-.297-1.313s-.144-3.617-.332-4.51c-.188-.892-1.193.514-1.193.514Z" fill="#fff"/><path d="M76.624 85.42a1.859 1.859 0 0 1-.633-.102 2.294 2.294 0 0 1-.795-.522 2.344 2.344 0 0 1-.522-.803c-.512-1.195-.356-2.887.448-4.77C76.508 75.96 81 66.862 81.329 66.177c0-.318.128-2.349.188-3.352.064-1.125 2.082-4.374 2.166-4.513.168-.232.74-.982 1.201-.884.128.024.297.126.365.448.188.901.332 4.4.336 4.546.005.368.051.735.136 1.093.069-.03.136-.063.2-.102.224-.125.459-.228.7-.31a1.075 1.075 0 0 1 1.202.252.327.327 0 0 1-.044.408 14.436 14.436 0 0 0-1.466 1.986c-.124.293-.608.53-1.385.88a4.334 4.334 0 0 0-.885.47c-.036.117-.4 1.76-.8 3.668-1.29 5.92-2.575 11.758-2.899 12.468-.504 1.051-2.358 2.185-3.72 2.185Zm7.394-26.867c-.572.917-2.053 3.465-2.101 4.313-.064 1.089-.189 3.392-.189 3.392a.272.272 0 0 1-.024.082c-.048.094-4.804 9.695-6.217 13.046-.757 1.778-.917 3.355-.448 4.444.096.25.242.477.429.667.187.19.41.34.655.438 1.125.407 3.351-.816 3.84-1.88.336-.726 1.922-8.02 2.87-12.377.585-2.683.801-3.633.833-3.739.084-.212.433-.379 1.085-.677.4-.187 1.11-.501 1.201-.672.436-.725.936-1.407 1.493-2.039a.853.853 0 0 0-.68-.04c-.222.075-.436.17-.64.285-.12.07-.249.126-.381.167a.283.283 0 0 1-.232-.053c-.224-.171-.293-.885-.313-1.451 0-.033-.144-3.609-.328-4.485-.024-.114-.056-.139-.056-.139-.116-.028-.488.29-.797.718Z" fill="#263238"/><path d="M87.8 59.665c1.085.979 1.422 2.394.753 3.16-.669.767-2.09.595-3.175-.383-1.085-.979-1.417-2.393-.749-3.16.67-.766 2.09-.6 3.171.383Z" fill="#fff"/><path d="M87.401 63.503a3.301 3.301 0 0 1-2.142-.91 3.57 3.57 0 0 1-1.093-1.765 1.726 1.726 0 0 1 .328-1.683c.196-.225.448-.393.73-.487.282-.093.583-.108.872-.044.69.102 1.335.413 1.85.893 1.165 1.052 1.509 2.602.768 3.45a1.684 1.684 0 0 1-1.313.546ZM85.8 59.018a1.292 1.292 0 0 0-1.013.408 1.451 1.451 0 0 0-.237 1.317c.162.607.501 1.15.973 1.557.997.901 2.294 1.08 2.887.408.592-.673.264-1.97-.733-2.854a3.034 3.034 0 0 0-1.633-.816 1.691 1.691 0 0 0-.244-.036v.016Z" fill="#263238"/><path d="M87.186 60.589c.8.746 1.077 1.818.568 2.4-.508.584-1.601.453-2.402-.289-.8-.742-1.077-1.818-.568-2.4.508-.584 1.581-.453 2.402.289Z" fill="#fff"/><path d="M86.872 63.554h-.229a2.826 2.826 0 0 1-1.425-.686 2.906 2.906 0 0 1-.849-1.353 1.357 1.357 0 0 1 .257-1.324c.155-.177.353-.31.575-.383.221-.073.458-.085.686-.034.534.08 1.031.322 1.429.693.905.816 1.165 2.039.588 2.687a1.348 1.348 0 0 1-1.032.4Zm-1.201-3.417a.939.939 0 0 0-.733.294 1.05 1.05 0 0 0-.168.958c.13.446.379.846.72 1.154a2.42 2.42 0 0 0 1.213.59.998.998 0 0 0 .913-.28c.433-.498.184-1.448-.552-2.113a2.25 2.25 0 0 0-1.201-.59l-.192-.013ZM100.947 67.58a.2.2 0 0 1-.192-.155 33.231 33.231 0 0 0-2.714-6.808.207.207 0 0 1 .076-.277.197.197 0 0 1 .272.077 33.84 33.84 0 0 1 2.755 6.906.212.212 0 0 1-.023.154.206.206 0 0 1-.122.095l-.052.008ZM100.682 63.776a.206.206 0 0 1-.189-.126c-.712-1.79-2.49-4.277-2.51-4.301a.207.207 0 0 1 .044-.285.199.199 0 0 1 .28.044c.077.102 1.826 2.553 2.559 4.387.02.05.02.106-.001.155a.203.203 0 0 1-.183.127ZM87.617 66.153s12.931 12.423 19.133 23.288v-3.53l-11.342-14.6a89.682 89.682 0 0 0-6.202-6.931l-1.59 1.773Z" fill="#263238"/><path d="M106.752 89.648a.205.205 0 0 1-.172-.102c-6.118-10.714-18.97-23.116-19.101-23.239a.206.206 0 0 1 0-.285l1.601-1.765a.2.2 0 0 1 .22-.045.2.2 0 0 1 .064.045 89.64 89.64 0 0 1 6.218 6.93l11.334 14.6c.028.035.044.08.044.126v3.519a.204.204 0 0 1-.148.195l-.06.02Zm-18.853-23.5c1.405 1.37 12.739 12.557 18.653 22.55v-2.715c-.665-.857-8.86-11.416-11.29-14.539a88.635 88.635 0 0 0-6.038-6.76L87.9 66.149Z" fill="#263238"/><path d="M82.28 62.927s.441-1.598.693-1.794c.253-.195 2.403-2.686 2.515-1.79.112.897-.44 1.346-.757 1.664-.316.318-1.069 1.154-1.069 1.154-.01.492-.052.984-.124 1.471-.151.749-.383 1.478-.693 2.173" fill="#fff"/><path d="M82.842 66.005a.174.174 0 0 1-.08 0 .194.194 0 0 1-.107-.113.201.201 0 0 1 .007-.156c.3-.68.526-1.39.676-2.12.07-.478.11-.96.12-1.444a.196.196 0 0 1 .056-.138c.028-.037.76-.84 1.073-1.158l.1-.098c.212-.158.378-.37.483-.615.104-.245.144-.514.114-.78-.172-.044-.8.482-1.806 1.542-.126.135-.26.263-.4.383a7.29 7.29 0 0 0-.62 1.684.21.21 0 0 1-.096.129.204.204 0 0 1-.283-.075.214.214 0 0 1-.022-.16c.136-.502.488-1.692.765-1.904a5.85 5.85 0 0 0 .34-.342c1.133-1.183 1.83-1.798 2.234-1.664a.402.402 0 0 1 .256.35c.041.33-.004.665-.13.97a1.892 1.892 0 0 1-.587.776l-.092.09c-.26.264-.836.896-1.013 1.092-.014.475-.055.949-.124 1.419-.152.768-.39 1.516-.708 2.23a.205.205 0 0 1-.156.102ZM21.395 85.566s-1.934 16.826-.801 18.387 4.996-.163 6.69-1.223c1.693-1.06 3.951-2.299 3.951-2.299l.889-2.37s-2.178-19.303-2.258-19.793c-.08-.489-7.659 2.854-8.223 3.612-.565.759-.248 3.686-.248 3.686Z" fill="#263238"/><path d="M22.114 104.782a1.965 1.965 0 0 1-1.686-.706c-1.136-1.573.553-16.674.765-18.513-.044-.408-.3-3.054.285-3.816.584-.762 7.654-3.914 8.383-3.726a.252.252 0 0 1 .196.204c.08.493 2.174 19.018 2.262 19.81a.186.186 0 0 1 0 .093l-.889 2.369a.215.215 0 0 1-.092.106c-.024 0-2.274 1.243-3.94 2.291-1.008.632-3.482 1.888-5.284 1.888Zm7.563-26.366c-1.01.09-7.427 2.984-7.883 3.58-.457.595-.288 2.748-.2 3.547a.083.083 0 0 1 0 .044c-.773 6.736-1.638 17.148-.845 18.245 1.029 1.423 4.844-.286 6.406-1.285 1.517-.954 3.51-2.038 3.895-2.266l.845-2.25c-.096-1.053-2.006-17.956-2.218-19.615Z" fill="#263238"/><path d="M12.608 137.366a36.316 36.316 0 0 0-2.338 4.024 39.684 39.684 0 0 0-1.534 4.676c-.24.905-.4 1.068-1.2.082-.801-.987-1.774-3.201-1.29-6.813.485-3.612 2.402-7.469 2.803-7.306.4.163 3.887 2.381 3.887 2.381l-.328 2.956Z" fill="#fff"/><path d="M8.31 147.021c-.268 0-.553-.278-.933-.742-.456-.563-1.906-2.716-1.337-6.972.452-3.363 2.17-7.049 2.802-7.436a.29.29 0 0 1 .132-.052.292.292 0 0 1 .14.019c.401.167 3.548 2.169 3.904 2.397a.212.212 0 0 1 .092.196l-.324 2.956a.19.19 0 0 1-.032.09 36.331 36.331 0 0 0-2.318 3.991 39.933 39.933 0 0 0-1.502 4.652c-.124.464-.24.815-.536.892l-.088.009Zm.725-14.791c-.469.334-2.15 3.795-2.595 7.122-.548 4.077.801 6.115 1.245 6.653.445.539.593.604.629.6.036-.004.108-.139.232-.604.418-1.6.933-3.173 1.542-4.708a36.17 36.17 0 0 1 2.326-4.012l.304-2.777c-1.325-.839-3.267-2.058-3.683-2.274Z" fill="#263238"/><path d="M9.466 132.254a6.414 6.414 0 0 0-.4-.225c-.401-.163-2.339 3.694-2.803 7.306-.465 3.612.484 5.83 1.289 6.813.428.526.676.721.849.656-.5-1.256-1.454-4.122-1.09-6.894.365-2.772 1.566-6.148 2.155-7.656Z" fill="#fff"/><path d="M8.31 147.017c-.268 0-.557-.278-.933-.738-.456-.563-1.906-2.716-1.337-6.972.452-3.363 2.17-7.049 2.802-7.436a.29.29 0 0 1 .132-.052.292.292 0 0 1 .14.019c.15.067.295.145.433.233a.206.206 0 0 1 .084.252c-.528 1.358-1.797 4.819-2.166 7.612-.368 2.793.633 5.671 1.077 6.788a.22.22 0 0 1 0 .159.194.194 0 0 1-.116.11.42.42 0 0 1-.116.025Zm.725-14.787c-.473.338-2.15 3.795-2.595 7.122-.548 4.077.801 6.115 1.245 6.653.099.127.205.248.317.363-.553-1.524-1.233-4.028-.913-6.494.348-2.654 1.453-5.802 2.13-7.543l-.184-.101Z" fill="#263238"/><path d="M32.278 97.222s-1.2 5.256-1.049 8.293c.153 3.037.645 6.645.645 6.645l-.725 13.793s-6.045.493-7.094 1.312c-1.049.82-8.463 5.912-9.917 6.487-.692.273-2.174.986-2.174.986s-1.453.755-.324 2.385c1.129 1.631 21.283-4.517 21.928-4.598.644-.082 4.512-1.476 5.16-2.3.649-.823 5.077-16.169 5.077-16.169l9.512 13.955s-.16 4.02 2.178 6.894c2.338 2.875 6.85 10.918 6.85 10.918l-.16 1.395s-1.602 1.631-1.29 2.956c.313 1.325 2.095 1.068 3.224 1.806 1.129.737 3.871 2.299 3.871 2.299s4.192 1.631 3.707 0c-.176-.599-2.17-3.009-2.902-4.105a29.954 29.954 0 0 1-3.307-6.32c-.725-2.038-4.432-16.417-4.916-18.305-.485-1.888-2.803-11.493-4.597-16.993-1.793-5.499-2.982-7.717-2.982-7.717l-1.37-3.775-19.345.159Z" fill="#fff"/><path d="M70.931 155.205c-1.057 0-2.626-.587-3.014-.738-.057-.029-2.803-1.586-3.908-2.32a4.835 4.835 0 0 0-1.365-.522c-.841-.228-1.714-.465-1.946-1.406-.316-1.289 1.013-2.797 1.293-3.095l.148-1.264c-.4-.729-4.604-8.129-6.806-10.828s-2.234-6.397-2.222-6.963l-9.236-13.552c-.8 2.772-4.404 15.052-4.996 15.831-.705.897-4.664 2.295-5.293 2.376-.108 0-.98.261-2.082.575-13.34 3.78-19.333 4.958-20.018 3.935a2.021 2.021 0 0 1-.42-1.631 1.724 1.724 0 0 1 .8-1.032c.069-.032 1.506-.717 2.195-.994 1.385-.547 8.751-5.582 9.864-6.454.993-.779 6.006-1.252 7.027-1.342l.716-13.612s-.484-3.617-.644-6.629c-.16-3.013 1.005-8.134 1.053-8.35a.2.2 0 0 1 .069-.112.194.194 0 0 1 .123-.043l19.349-.163a.201.201 0 0 1 .188.13l1.37 3.78s1.228 2.279 2.986 7.726c1.521 4.721 3.46 12.455 4.284 15.761.14.546.244.974.316 1.243.04.159 4.14 16.104 4.909 18.289a29.513 29.513 0 0 0 3.282 6.275c.273.408.717.991 1.201 1.61.981 1.293 1.634 2.169 1.746 2.548a.706.706 0 0 1-.14.763c-.242.17-.537.244-.829.208Zm-27.128-41.357a.211.211 0 0 1 .092.023.212.212 0 0 1 .072.063l9.513 13.955a.234.234 0 0 1 .036.127c0 .036-.128 3.979 2.13 6.755 2.322 2.854 6.806 10.865 6.874 10.947a.22.22 0 0 1 .024.126l-.16 1.394a.237.237 0 0 1-.06.123s-1.526 1.573-1.238 2.76c.177.709.865.893 1.662 1.113.52.108 1.018.301 1.477.57 1.113.726 3.832 2.275 3.86 2.292 1.16.452 3.006.946 3.387.579.028-.021.104-.094.032-.343-.1-.338-.973-1.492-1.678-2.417a51.672 51.672 0 0 1-1.2-1.631 29.916 29.916 0 0 1-3.332-6.364c-.777-2.202-4.88-18.167-4.92-18.326l-.317-1.248c-.824-3.298-2.758-11.007-4.275-15.732-1.746-5.41-2.955-7.657-2.967-7.681l-1.337-3.67-19.045.163c-.196.89-1.153 5.394-1.009 8.077.16 2.992.637 6.596.645 6.633l-.717 13.829a.201.201 0 0 1-.184.192c-1.666.134-6.17.627-6.99 1.272-.937.733-8.44 5.911-9.965 6.523-.677.269-2.146.97-2.162.978-.293.166-.51.441-.609.767a1.661 1.661 0 0 0 .365 1.312c.556.816 7.15-.57 19.617-4.097 1.393-.408 2.002-.571 2.142-.587.628-.078 4.404-1.456 5.024-2.222.457-.579 3.267-9.948 5.045-16.1a.208.208 0 0 1 .16-.146l.008-.009Z" fill="#263238"/><path d="M39.982 126.964a.152.152 0 0 1-.06 0l-8.724-2.887a.197.197 0 0 1-.104-.077.208.208 0 0 1-.036-.126l.617-11.705s-.485-3.617-.645-6.629c-.16-3.013 1.005-8.134 1.053-8.35a.2.2 0 0 1 .07-.112.194.194 0 0 1 .122-.043l19.35-.163c.04 0 .08.013.113.036.034.023.06.056.075.094l1.369 3.78s1.229 2.279 2.987 7.726c1.48 4.59 3.363 12.084 3.98 14.546a.207.207 0 0 1-.085.224 29.784 29.784 0 0 1-7.687 3.482.193.193 0 0 1-.22-.082l-8.28-12.141c-.488 1.688-2.402 8.211-3.703 12.309a.203.203 0 0 1-.192.118Zm-8.515-3.262 8.407 2.785c1.51-4.725 3.735-12.431 3.76-12.508a.204.204 0 0 1 .16-.147.198.198 0 0 1 .196.086l8.435 12.373a29.263 29.263 0 0 0 7.319-3.314c-.649-2.597-2.486-9.887-3.936-14.38-1.745-5.41-2.954-7.656-2.966-7.681l-1.338-3.669-19.044.163c-.197.889-1.154 5.394-1.01 8.077.16 2.992.637 6.596.645 6.633l-.628 11.582Z" fill="#263238"/><path d="M43.804 114.257h-.04a.198.198 0 0 1-.172-.228l.644-5.007a.2.2 0 0 1 .146-.171.188.188 0 0 1 .078-.004c.053.007.1.035.133.078a.206.206 0 0 1 .04.15l-.645 5.007a.21.21 0 0 1-.062.12.2.2 0 0 1-.122.055ZM44.855 113.025a.2.2 0 0 1-.191-.135.206.206 0 0 1 .063-.228l2.498-2.132a.194.194 0 0 1 .151-.064.208.208 0 0 1 .082.02c.025.013.047.03.066.052a.207.207 0 0 1-.043.301l-2.514 2.137a.196.196 0 0 1-.112.049ZM40.66 118.691h-.055l-7.98-2.3a.199.199 0 0 1-.125-.098.216.216 0 0 1 .076-.289.208.208 0 0 1 .158-.021l7.694 2.214a2.588 2.588 0 0 1 .028-.942c-.832-.269-4.167-1.1-6.293-1.63a.214.214 0 0 1-.148-.249.206.206 0 0 1 .244-.151c6.674 1.631 6.678 1.712 6.686 1.908a.206.206 0 0 1-.1.188c-.06.368-.06.744 0 1.113a.198.198 0 0 1-.068.183.187.187 0 0 1-.116.074ZM38.621 125.049c-.3 0-1.125-.187-3.815-1.17a.207.207 0 0 1-.014-.373.196.196 0 0 1 .15-.01c2.63.962 3.4 1.125 3.603 1.145.224-.786 1.442-4.325 1.602-4.749a.204.204 0 0 1 .256-.127.202.202 0 0 1 .12.261c-.424 1.223-1.537 4.485-1.601 4.815a.301.301 0 0 1-.12.163.31.31 0 0 1-.18.045ZM33.988 123.568h-.072c-1.137-.428-2.034-.779-2.034-.779a.2.2 0 0 1-.098-.082.206.206 0 0 1-.03-.126l.485-5.027a.205.205 0 0 1 .071-.138.197.197 0 0 1 .283.026c.034.041.05.095.046.149l-.485 4.856c.293.114 1.017.407 1.886.717.05.019.09.057.113.105a.208.208 0 0 1 .007.156.211.211 0 0 1-.172.143ZM33.651 104.736a.195.195 0 0 1-.188-.139.21.21 0 0 1 .124-.261l.14-.036a3.625 3.625 0 0 0 1.946-1.223 8.88 8.88 0 0 0 1.337-2.398.203.203 0 0 1 .104-.103.197.197 0 0 1 .145-.005.201.201 0 0 1 .11.096c.024.045.03.098.017.147a9.09 9.09 0 0 1-1.405 2.528 3.993 3.993 0 0 1-2.154 1.341l-.112.033a.205.205 0 0 1-.064.02ZM33.165 114.502a.194.194 0 0 1-.15-.057.203.203 0 0 1-.059-.151s.04-.379.093-1.011a.205.205 0 0 1 .216-.188.206.206 0 0 1 .184.221c-.056.644-.096 1.027-.096 1.027a.203.203 0 0 1-.068.111.199.199 0 0 1-.12.048Z" fill="#263238"/><path d="M33.328 112.612a.2.2 0 0 1-.184-.22 19.01 19.01 0 0 0-.4-4.709c-.401-2.234.912-7.265.968-7.477a.198.198 0 0 1 .093-.124.196.196 0 0 1 .151-.019.207.207 0 0 1 .123.094.207.207 0 0 1 .021.155c0 .049-1.353 5.153-.964 7.298.335 1.579.47 3.196.4 4.811a.202.202 0 0 1-.131.18.184.184 0 0 1-.077.011ZM46.57 107.52a.195.195 0 0 1-.069 0 .2.2 0 0 1-.114-.104.206.206 0 0 1-.006-.157s.32-.905.557-1.79c.032-.114 0-.155-.02-.171-.2-.22-1.073-.167-1.602-.065a.199.199 0 0 1-.196-.078.192.192 0 0 1-.02-.212l1.45-3.037a.201.201 0 0 1 .114-.105.2.2 0 0 1 .216.06.202.202 0 0 1 .05.147.216.216 0 0 1-.02.078l-1.285 2.686c.492-.061 1.277-.094 1.601.249a.574.574 0 0 1 .112.558c-.24.901-.568 1.811-.568 1.823a.203.203 0 0 1-.2.118ZM52.349 125.09a.192.192 0 0 1-.164-.09l-1.133-1.737a.207.207 0 0 1 .058-.283.195.195 0 0 1 .151-.029.194.194 0 0 1 .127.088l1.13 1.753a.206.206 0 0 1-.057.281.189.189 0 0 1-.112.017ZM50.62 122.403a.21.21 0 0 1-.168-.09l-5.525-8.562a.207.207 0 0 1 .058-.283.197.197 0 0 1 .151-.029.202.202 0 0 1 .127.088l5.525 8.562a.198.198 0 0 1 .029.153.196.196 0 0 1-.089.128.182.182 0 0 1-.108.033Z" fill="#263238"/><path d="M32.278 97.222s-1.2 5.256-1.049 8.293c.153 3.037.645 6.645.645 6.645l-.725 13.793s-6.045.493-7.094 1.312c-1.049.82-8.463 5.912-9.917 6.487-.692.273-2.174.986-2.174.986s-1.453.755-.324 2.385c1.129 1.631 21.283-4.517 21.928-4.598.644-.082 4.512-1.476 5.16-2.3.649-.823 5.077-16.169 5.077-16.169l9.512 13.955s-.16 4.02 2.178 6.894c2.338 2.875 6.85 10.918 6.85 10.918l-.16 1.395s-1.602 1.631-1.29 2.956c.313 1.325 2.095 1.068 3.224 1.806 1.129.737 3.871 2.299 3.871 2.299s4.192 1.631 3.707 0c-.176-.599-2.17-3.009-2.902-4.105a29.954 29.954 0 0 1-3.307-6.32c-.725-2.038-4.432-16.417-4.916-18.305-.485-1.888-2.803-11.493-4.597-16.993-1.793-5.499-2.982-7.717-2.982-7.717l-1.37-3.775-19.345.159Z" fill="#fff"/><path d="M70.931 155.205c-1.057 0-2.626-.587-3.014-.738-.057-.029-2.803-1.586-3.908-2.32a4.835 4.835 0 0 0-1.365-.522c-.841-.228-1.714-.465-1.946-1.406-.316-1.289 1.013-2.797 1.293-3.095l.148-1.264c-.4-.729-4.604-8.129-6.806-10.828s-2.234-6.397-2.222-6.963l-9.236-13.552c-.8 2.772-4.404 15.052-4.996 15.831-.705.897-4.664 2.295-5.293 2.376-.108 0-.98.261-2.082.575-13.34 3.78-19.333 4.958-20.018 3.935a2.021 2.021 0 0 1-.42-1.631 1.724 1.724 0 0 1 .8-1.032c.069-.032 1.506-.717 2.195-.994 1.385-.547 8.751-5.582 9.864-6.454.993-.779 6.006-1.252 7.027-1.342l.716-13.612s-.484-3.617-.644-6.629c-.16-3.013 1.005-8.134 1.053-8.35a.2.2 0 0 1 .069-.112.194.194 0 0 1 .123-.043l19.349-.163a.201.201 0 0 1 .188.13l1.37 3.78s1.228 2.279 2.986 7.726c1.521 4.721 3.46 12.455 4.284 15.761.14.546.244.974.316 1.243.04.159 4.14 16.104 4.909 18.289a29.513 29.513 0 0 0 3.282 6.275c.273.408.717.991 1.201 1.61.981 1.293 1.634 2.169 1.746 2.548a.706.706 0 0 1-.14.763c-.242.17-.537.244-.829.208Zm-27.128-41.357a.211.211 0 0 1 .092.023.212.212 0 0 1 .072.063l9.513 13.955a.234.234 0 0 1 .036.127c0 .036-.128 3.979 2.13 6.755 2.322 2.854 6.806 10.865 6.874 10.947a.22.22 0 0 1 .024.126l-.16 1.394a.237.237 0 0 1-.06.123s-1.526 1.573-1.238 2.76c.177.709.865.893 1.662 1.113.52.108 1.018.301 1.477.57 1.113.726 3.832 2.275 3.86 2.292 1.16.452 3.006.946 3.387.579.028-.021.104-.094.032-.343-.1-.338-.973-1.492-1.678-2.417a51.672 51.672 0 0 1-1.2-1.631 29.916 29.916 0 0 1-3.332-6.364c-.777-2.202-4.88-18.167-4.92-18.326l-.317-1.248c-.824-3.298-2.758-11.007-4.275-15.732-1.746-5.41-2.955-7.657-2.967-7.681l-1.337-3.67-19.045.163c-.196.89-1.153 5.394-1.009 8.077.16 2.992.637 6.596.645 6.633l-.717 13.829a.201.201 0 0 1-.184.192c-1.666.134-6.17.627-6.99 1.272-.937.733-8.44 5.911-9.965 6.523-.677.269-2.146.97-2.162.978-.293.166-.51.441-.609.767a1.661 1.661 0 0 0 .365 1.312c.556.816 7.15-.57 19.617-4.097 1.393-.408 2.002-.571 2.142-.587.628-.078 4.404-1.456 5.024-2.222.457-.579 3.267-9.948 5.045-16.1a.208.208 0 0 1 .16-.146l.008-.009Z" fill="#263238"/><path d="M71.697 154.273c-.176-.599-2.17-3.009-2.903-4.105a36.225 36.225 0 0 1-1.477-2.402c-2.254.852-5.132-.554-5.132-.554s-1.602 1.631-1.29 2.956c.313 1.325 2.094 1.068 3.223 1.806 1.13.738 3.872 2.299 3.872 2.299s4.2 1.643 3.707 0Z" fill="#fff"/><path d="M70.933 155.203c-1.057 0-2.626-.587-3.015-.738-.056-.029-2.802-1.586-3.907-2.32a4.866 4.866 0 0 0-1.365-.522c-.841-.228-1.714-.465-1.946-1.406-.344-1.407 1.273-3.078 1.345-3.148a.197.197 0 0 1 .228-.04c.028 0 2.827 1.357 4.973.546a.202.202 0 0 1 .244.09c.444.79.94 1.594 1.47 2.389.271.407.716.99 1.2 1.61.981 1.292 1.634 2.169 1.746 2.548a.704.704 0 0 1-.14.762c-.24.179-.537.26-.833.229Zm-8.7-7.746c-.328.362-1.393 1.63-1.145 2.658.176.709.865.893 1.662 1.113.519.108 1.018.301 1.477.571 1.113.725 3.831 2.274 3.86 2.291 1.16.452 3.006.946 3.386.579.028-.021.105-.094.032-.343-.1-.338-.976-1.492-1.677-2.417a50.836 50.836 0 0 1-1.201-1.631 36.668 36.668 0 0 1-1.405-2.267c-2.018.673-4.4-.289-4.989-.55v-.004Z" fill="#263238"/><path d="M65.246 151.478c-1.201-.982-3.36-1.687-4.368-1.981-.046.22-.046.448 0 .669.32 1.312 2.094 1.068 3.223 1.806s3.871 2.299 3.871 2.299 1.918.75 3.007.726c-1.534-.844-4.504-2.516-5.733-3.519Z" fill="#fff"/><path d="M70.95 155.21c-1.12 0-2.954-.714-3.03-.742-.076-.029-2.802-1.586-3.907-2.32a4.805 4.805 0 0 0-1.366-.522c-.84-.228-1.713-.465-1.945-1.407a1.872 1.872 0 0 1 0-.75.187.187 0 0 1 .092-.138.183.183 0 0 1 .16-.025c1.137.33 3.227 1.036 4.436 2.018 1.28 1.044 4.428 2.797 5.72 3.498a.208.208 0 0 1 .1.229.205.205 0 0 1-.07.11.19.19 0 0 1-.121.044l-.068.005Zm-2.862-1.113c.618.231 1.249.423 1.89.574-1.522-.848-3.796-2.164-4.852-3.029-1.058-.864-3.071-1.573-4.068-1.875a1.28 1.28 0 0 0 .032.355c.176.709.865.892 1.661 1.113.52.108 1.018.301 1.478.57 1.113.726 3.831 2.275 3.86 2.292Z" fill="#263238"/><path d="M55.978 108.552c-1.774-5.503-2.983-7.717-2.983-7.717l-1.37-3.775-19.344.163s-1.202 5.255-1.05 8.292c.153 3.037.645 6.645.645 6.645l-.616 11.705 8.723 2.895c1.53-4.762 3.824-12.708 3.824-12.708l8.515 12.492a29.66 29.66 0 0 0 7.635-3.457c-.933-3.723-2.622-10.327-3.98-14.535Z" fill="#FFC100"/><path d="M39.982 126.964a.152.152 0 0 1-.06 0l-8.724-2.887a.197.197 0 0 1-.104-.077.208.208 0 0 1-.036-.126l.617-11.705s-.485-3.617-.645-6.629c-.16-3.013 1.005-8.134 1.053-8.35a.2.2 0 0 1 .07-.112.194.194 0 0 1 .122-.043l19.35-.163c.04 0 .08.013.113.036.034.023.06.056.075.094l1.369 3.78s1.229 2.279 2.987 7.726c1.48 4.59 3.363 12.084 3.98 14.546a.207.207 0 0 1-.085.224 29.784 29.784 0 0 1-7.687 3.482.193.193 0 0 1-.22-.082l-8.28-12.141c-.488 1.688-2.402 8.211-3.703 12.309a.203.203 0 0 1-.192.118Zm-8.515-3.262 8.407 2.785c1.51-4.725 3.735-12.431 3.76-12.508a.204.204 0 0 1 .16-.147.198.198 0 0 1 .196.086l8.435 12.373a29.263 29.263 0 0 0 7.319-3.314c-.649-2.597-2.486-9.887-3.936-14.38-1.745-5.41-2.954-7.656-2.966-7.681l-1.338-3.669-19.044.163c-.197.889-1.154 5.394-1.01 8.077.16 2.992.637 6.596.645 6.633l-.628 11.582Z" fill="#263238"/><path d="M43.804 114.257h-.04a.198.198 0 0 1-.172-.228l.644-5.007a.2.2 0 0 1 .146-.171.188.188 0 0 1 .078-.004c.053.007.1.035.133.078a.206.206 0 0 1 .04.15l-.645 5.007a.21.21 0 0 1-.062.12.2.2 0 0 1-.122.055ZM44.855 113.025a.2.2 0 0 1-.191-.135.206.206 0 0 1 .063-.228l2.498-2.132a.194.194 0 0 1 .151-.064.208.208 0 0 1 .082.02c.025.013.047.03.066.052a.207.207 0 0 1-.043.301l-2.514 2.137a.196.196 0 0 1-.112.049ZM40.66 118.691h-.055l-7.98-2.3a.199.199 0 0 1-.125-.098.216.216 0 0 1 .076-.289.208.208 0 0 1 .158-.021l7.694 2.214a2.588 2.588 0 0 1 .028-.942c-.832-.269-4.167-1.1-6.293-1.63a.214.214 0 0 1-.148-.249.206.206 0 0 1 .244-.151c6.674 1.631 6.678 1.712 6.686 1.908a.206.206 0 0 1-.1.188c-.06.368-.06.744 0 1.113a.198.198 0 0 1-.068.183.187.187 0 0 1-.116.074ZM38.621 125.049c-.3 0-1.125-.187-3.815-1.17a.207.207 0 0 1-.014-.373.196.196 0 0 1 .15-.01c2.63.962 3.4 1.125 3.603 1.145.224-.786 1.442-4.325 1.602-4.749a.204.204 0 0 1 .256-.127.202.202 0 0 1 .12.261c-.424 1.223-1.537 4.485-1.601 4.815a.301.301 0 0 1-.12.163.31.31 0 0 1-.18.045ZM33.988 123.568h-.072c-1.137-.428-2.034-.779-2.034-.779a.2.2 0 0 1-.098-.082.206.206 0 0 1-.03-.126l.485-5.027a.205.205 0 0 1 .071-.138.197.197 0 0 1 .283.026c.034.041.05.095.046.149l-.485 4.856c.293.114 1.017.407 1.886.717.05.019.09.057.113.105a.208.208 0 0 1 .007.156.211.211 0 0 1-.172.143ZM33.651 104.736a.195.195 0 0 1-.188-.139.21.21 0 0 1 .124-.261l.14-.036a3.625 3.625 0 0 0 1.946-1.223 8.88 8.88 0 0 0 1.337-2.398.203.203 0 0 1 .104-.103.197.197 0 0 1 .145-.005.201.201 0 0 1 .11.096c.024.045.03.098.017.147a9.09 9.09 0 0 1-1.405 2.528 3.993 3.993 0 0 1-2.154 1.341l-.112.033a.205.205 0 0 1-.064.02ZM33.165 114.502a.194.194 0 0 1-.15-.057.203.203 0 0 1-.059-.151s.04-.379.093-1.011a.205.205 0 0 1 .216-.188.206.206 0 0 1 .184.221c-.056.644-.096 1.027-.096 1.027a.203.203 0 0 1-.068.111.199.199 0 0 1-.12.048Z" fill="#263238"/><path d="M33.328 112.612a.2.2 0 0 1-.184-.22 19.01 19.01 0 0 0-.4-4.709c-.401-2.234.912-7.265.968-7.477a.198.198 0 0 1 .093-.124.196.196 0 0 1 .151-.019.207.207 0 0 1 .123.094.207.207 0 0 1 .021.155c0 .049-1.353 5.153-.964 7.298.335 1.579.47 3.196.4 4.811a.202.202 0 0 1-.131.18.184.184 0 0 1-.077.011ZM46.57 107.52a.195.195 0 0 1-.069 0 .2.2 0 0 1-.114-.104.206.206 0 0 1-.006-.157s.32-.905.557-1.79c.032-.114 0-.155-.02-.171-.2-.22-1.073-.167-1.602-.065a.199.199 0 0 1-.196-.078.192.192 0 0 1-.02-.212l1.45-3.037a.201.201 0 0 1 .114-.105.2.2 0 0 1 .216.06.202.202 0 0 1 .05.147.216.216 0 0 1-.02.078l-1.285 2.686c.492-.061 1.277-.094 1.601.249a.574.574 0 0 1 .112.558c-.24.901-.568 1.811-.568 1.823a.203.203 0 0 1-.2.118ZM52.349 125.09a.192.192 0 0 1-.164-.09l-1.133-1.737a.207.207 0 0 1 .058-.283.195.195 0 0 1 .151-.029.194.194 0 0 1 .127.088l1.13 1.753a.206.206 0 0 1-.057.281.189.189 0 0 1-.112.017ZM50.62 122.403a.21.21 0 0 1-.168-.09l-5.525-8.562a.207.207 0 0 1 .058-.283.197.197 0 0 1 .151-.029.202.202 0 0 1 .127.088l5.525 8.562a.198.198 0 0 1 .029.153.196.196 0 0 1-.089.128.182.182 0 0 1-.108.033Z" fill="#263238"/><path d="M33.919 67.478s-3.019.53-3.367.53c-.348 0-3.487-.294-3.951.118-.465.412-11.387 12.54-11.387 12.54l4.128 3.136 8.808-4.436 1.16.057 3.484 16.21s-.869 1.949-.697 2.422c.178.354.438.66.757.888 0 0 8.908 2.483 11.31 2.426 2.402-.057 6.562-1.243 7.086-1.537.525-.293 1.798-1.423 1.566-2.487-.233-1.064-.869-3.192-.869-3.192l-1.706-23.89 6.446-14.078-4.704-3.454-7.206 8.697s-5.229 2.955-5.517 3.49c-.289.533-5.341 2.56-5.341 2.56Z" fill="#ADADAD"/><path d="M44.058 101.572c-2.498 0-10.874-2.332-11.234-2.446a.18.18 0 0 1-.064-.028 2.61 2.61 0 0 1-.825-.983c-.184-.493.437-1.981.673-2.52l-3.44-15.957-.956-.049-8.78 4.395a.2.2 0 0 1-.208 0l-4.128-3.135a.199.199 0 0 1-.076-.142.2.2 0 0 1 .052-.16c.445-.493 10.93-12.136 11.399-12.556.368-.326 1.729-.31 3.659-.192l.424.016c.24 0 2.106-.314 3.315-.525 2.402-.963 5.025-2.137 5.205-2.447.3-.546 4.612-3.013 5.565-3.55l7.178-8.664a.2.2 0 0 1 .268-.037l4.708 3.433a.212.212 0 0 1 .064.253l-6.425 14.028 1.677 23.822c.072.24.649 2.173.869 3.184.26 1.198-1.129 2.405-1.666 2.707-.536.302-4.804 1.504-7.178 1.565l-.076-.012Zm-11.102-2.817c.617.171 8.912 2.471 11.174 2.41 2.382-.062 6.542-1.256 6.994-1.513.453-.257 1.682-1.305 1.474-2.263-.228-1.043-.861-3.155-.87-3.18a.154.154 0 0 1 0-.044L50.044 70.26a.234.234 0 0 1 0-.101l6.378-13.923-4.404-3.225-7.086 8.562a.125.125 0 0 1-.056.044c-2.134 1.224-5.233 3.066-5.437 3.413-.304.554-4.248 2.156-5.449 2.633h-.036c-.312.053-3.05.535-3.403.535-.068 0-.228 0-.448-.025-2.026-.126-3.16-.094-3.371.094-.357.318-7.407 8.125-11.21 12.357l3.847 2.923 8.72-4.378a.158.158 0 0 1 .096 0l1.161.057c.045.002.087.02.121.049a.21.21 0 0 1 .067.114l3.483 16.206a.2.2 0 0 1 0 .126c-.4.9-.8 2.038-.692 2.27.148.302.365.563.632.763Z" fill="#263238"/><path d="M50.245 70.458a.194.194 0 0 1-.135-.054.2.2 0 0 1-.061-.133l-.4-6.686a.207.207 0 0 1 .05-.148.199.199 0 0 1 .283-.017c.04.036.063.086.067.14l.24 3.894.464-5.675a.21.21 0 0 1 .072-.136.196.196 0 0 1 .281.023.204.204 0 0 1 .048.15l-.709 8.447a.203.203 0 0 1-.06.14.198.198 0 0 1-.14.055ZM32.004 81.46a.202.202 0 0 1-.113-.037l-2.67-1.83a.208.208 0 0 1-.076-.24.19.19 0 0 1 .208-.122l3.835.407a.2.2 0 0 1 .134.075.205.205 0 0 1-.031.285.198.198 0 0 1-.147.043l-3.03-.326 2.002 1.378a.207.207 0 0 1 .056.281.209.209 0 0 1-.169.086ZM48.359 80.652a.198.198 0 0 1-.139-.057.206.206 0 0 1-.061-.139c-.156-3.995-2.927-13.67-2.95-13.763a.204.204 0 0 1 .062-.216.195.195 0 0 1 .07-.037.195.195 0 0 1 .154.015.202.202 0 0 1 .097.124c.113.407 2.803 9.817 2.967 13.861a.206.206 0 0 1-.116.194.199.199 0 0 1-.076.018h-.008ZM45.262 84.163h-.04a.204.204 0 0 1-.126-.089.21.21 0 0 1-.03-.152 57.91 57.91 0 0 0 1.1-10.69.21.21 0 0 1 .059-.145.202.202 0 0 1 .219-.048.198.198 0 0 1 .123.19 58.404 58.404 0 0 1-1.105 10.766.205.205 0 0 1-.07.121.198.198 0 0 1-.13.047Z" fill="#263238"/><path d="M42.786 63.482s2.635 1.806 1.261 11.904c-1.373 10.099-14.669 23.968-14.669 23.968l1.854 1.069s7.819-8.374 11.042-15.599c3.223-7.224 3.791-13.38 3.631-15.35-.16-1.969-1.533-6.649-1.533-6.649l-1.586.657Z" fill="#263238"/><path d="M31.23 100.628a.233.233 0 0 1-.1-.025l-1.853-1.068a.217.217 0 0 1-.1-.15.216.216 0 0 1 .056-.172c.132-.135 13.272-13.94 14.617-23.854 1.329-9.785-1.153-11.689-1.201-11.709a.203.203 0 0 1-.083-.19.206.206 0 0 1 .123-.165l1.601-.656a.208.208 0 0 1 .164 0 .205.205 0 0 1 .104.126c.056.192 1.378 4.721 1.538 6.69.14 1.713-.24 7.828-3.643 15.452-3.203 7.171-11.002 15.57-11.082 15.655a.205.205 0 0 1-.14.066Zm-1.533-1.317 1.494.856c.948-1.032 7.93-8.77 10.901-15.423 3.351-7.51 3.74-13.682 3.603-15.252-.14-1.688-1.2-5.45-1.46-6.392l-1.098.452c.649.75 2.234 3.51 1.101 11.864-1.273 9.405-12.943 22.183-14.54 23.895Z" fill="#263238"/><path d="M35.076 64.211s-1.2.36-1.453 1.126c-.252.766-.905 2.295-.905 2.295s1.654 2.91 2.659 4.289c1.005 1.378 2.154 3.877 2.506 3.314.352-.562 2.102-3.828 2.154-4.077a1.33 1.33 0 0 1 .6-.766c.2-.053 3.712 1.325 4.36 1.48.649.155.352-.359.052-1.174-.3-.816-2.958-4.338-3.659-5.154-.7-.815-5.665-1.842-6.314-1.333Z" fill="#ADADAD"/><path d="M37.76 75.52c-.376 0-.8-.65-1.521-1.888-.336-.559-.685-1.138-1.013-1.595-1.009-1.37-2.67-4.276-2.67-4.305a.21.21 0 0 1 0-.183s.652-1.533.896-2.28c.245-.745 1.354-1.178 1.558-1.222.865-.543 5.78.48 6.554 1.378.712.815 3.383 4.37 3.695 5.218.044.118.084.228.128.334.188.486.312.816.136 1.016a.544.544 0 0 1-.548.093c-.305-.073-1.17-.407-2.082-.717-.913-.31-2.05-.746-2.222-.758-.183.161-.321.37-.4.603-.06.314-1.854 3.624-2.182 4.15a.345.345 0 0 1-.329.155Zm-4.804-7.902c.284.497 1.705 2.96 2.594 4.179.34.469.693 1.056 1.033 1.63.4.657.929 1.546 1.161 1.68.4-.656 2.038-3.722 2.11-3.99a1.517 1.517 0 0 1 .749-.922c.132-.033.4.04 2.402.774.865.314 1.757.64 2.038.706.047.012.095.02.144.024a3.5 3.5 0 0 0-.192-.583 78.208 78.208 0 0 0-.133-.342c-.276-.755-2.834-4.18-3.623-5.093-.688-.815-5.545-1.691-6.041-1.3a.19.19 0 0 1-.064.033s-1.11.338-1.321.99c-.213.653-.72 1.863-.857 2.214ZM31.576 57.777a15.17 15.17 0 0 1-1.601-4.689c-.4-2.597 1.401-5.45 2.002-5.553.6-.102.748 1.122.748 1.122s4.605-4.942 6.306-4.33c1.702.611.248 2.193.248 2.193s3.852-1.019 3.503 1.068c-.348 2.088-1.053 2.292-1.053 2.292a8.619 8.619 0 0 0-4.352 1.019c-2.45 1.223-2.65 1.427-2.402 1.936.249.51.349.204-.252 2.14-.6 1.937-.8 2.292-.248 3.413s.6 1.17-.052 1.272c-.653.102-1.85-1.02-1.85-1.02l-.997-.863Z" fill="#263238"/><path d="M34.352 59.869c-.729 0-1.781-.962-1.906-1.076l-.992-.86a.18.18 0 0 1-.044-.054 15.092 15.092 0 0 1-1.626-4.741c-.4-2.654 1.377-5.65 2.166-5.785a.571.571 0 0 1 .46.118c.224.208.378.481.44.783 1.074-1.113 4.66-4.672 6.25-4.102.217.053.417.161.58.316.164.154.285.349.353.565.058.412-.037.83-.268 1.174.8-.147 2.254-.314 2.91.298a1.182 1.182 0 0 1 .312 1.117c-.36 2.152-1.108 2.446-1.2 2.446a8.517 8.517 0 0 0-4.32.999c-1.502.75-2.278 1.174-2.362 1.43 0 .046 0 .099.052.23.032.068.064.117.088.162.22.375.2.445-.324 2.132l-.153.477c-.476 1.521-.576 1.835-.112 2.78l.056.115c.34.689.469.946.353 1.174-.116.228-.349.237-.605.277a.522.522 0 0 1-.108.025Zm-2.594-2.226.973.844c.444.407 1.297 1.04 1.693.974.11-.013.217-.039.32-.077a7.158 7.158 0 0 0-.364-.795l-.056-.11c-.536-1.097-.4-1.558.088-3.087l.152-.48c.489-1.578.485-1.582.36-1.799-.027-.053-.063-.11-.1-.187a.689.689 0 0 1-.076-.542c.133-.408.73-.75 2.567-1.668a8.939 8.939 0 0 1 4.404-1.044c.108-.065.608-.448.884-2.115a.793.793 0 0 0-.188-.755c-.612-.57-2.402-.257-3.063-.085a.196.196 0 0 1-.224-.093.206.206 0 0 1 .028-.246c.177-.191.613-.815.505-1.264-.064-.256-.293-.452-.677-.595-1.297-.465-4.836 2.932-6.09 4.281a.203.203 0 0 1-.3-.01.197.197 0 0 1-.044-.104 1.647 1.647 0 0 0-.364-.905.17.17 0 0 0-.156-.041c-.46.078-2.222 2.813-1.834 5.3.27 1.61.798 3.166 1.562 4.603Z" fill="#263238"/><path d="M34.782 51.51s-2.102 2.903-1.653 2.8c.448-.101 1.3-1.019 1.253-.101-.048.917-1.153 2.344-1.001 2.65.152.305 1 1.834.648 2.038-.352.204-.548.253-.7.102-.153-.15-.901-1.02-1.75-1.223-.849-.204-1.401 1.272-.949 2.34.453 1.068 2.85 1.63 2.85 1.63l1.102.307.2 3.261s3.651 4.542 4.352 5.357c.7.816 1.65 1.729 1.85 1.17.2-.558 1.801-8.353 1.801-8.353s2.598-.51 2.75-2.291c.153-1.782-.252-5.757-1.549-8.203-1.297-2.446-1.853-3.209-3.851-3.31-1.998-.103-4.853 1.01-5.353 1.826Z" fill="#fff"/><path d="M40.751 72.215c-.208 0-.684-.151-1.77-1.415-.692-.815-4.32-5.3-4.355-5.353a.197.197 0 0 1-.044-.118l-.193-3.115-.96-.269c-.096 0-2.499-.591-2.983-1.745a2.366 2.366 0 0 1 .252-2.27.893.893 0 0 1 .925-.35 4.095 4.095 0 0 1 1.798 1.222l.052.053c.028.028.08.085.456-.135 0-.049 0-.346-.648-1.61l-.08-.16c-.109-.224.04-.533.364-1.161.299-.487.508-1.026.616-1.59a.416.416 0 0 0 0-.204c-.15.072-.296.154-.436.245-.17.118-.356.21-.553.273a.24.24 0 0 1-.264-.102c-.08-.123-.224-.347 1.706-3.013.556-.885 3.499-2.039 5.529-1.924 2.03.114 2.69.921 4.003 3.416 1.281 2.41 1.738 6.38 1.578 8.317-.145 1.696-2.226 2.312-2.783 2.446-.216 1.052-1.601 7.718-1.782 8.252a.438.438 0 0 1-.428.31Zm-5.773-6.976c.4.502 3.655 4.534 4.304 5.3.909 1.056 1.401 1.313 1.493 1.272a.132.132 0 0 0 .02-.037c.152-.432 1.241-5.634 1.794-8.325a.2.2 0 0 1 .156-.159c.024 0 2.454-.501 2.59-2.107.16-1.892-.284-5.749-1.525-8.089-1.337-2.511-1.838-3.11-3.687-3.205-2.002-.101-4.737 1.028-5.173 1.737a27.026 27.026 0 0 0-1.541 2.328l.116-.073c.32-.196.62-.38.864-.233.245.147.205.461.2.567a5.015 5.015 0 0 1-.66 1.757 3.368 3.368 0 0 0-.356.816l.072.126c.612 1.19.893 1.924.492 2.157-.312.18-.664.35-.94.07l-.057-.062a3.838 3.838 0 0 0-1.601-1.109.512.512 0 0 0-.533.22 1.938 1.938 0 0 0-.188 1.847c.337.815 2.07 1.362 2.71 1.508l1.11.31a.218.218 0 0 1 .148.183l.192 3.201Z" fill="#263238"/><path d="m42.784 63.483-4.804-.048 4.252 2.698.552-2.65Z" fill="#263238"/><path d="M42.232 66.334a.197.197 0 0 1-.104-.032l-4.252-2.7a.21.21 0 0 1-.088-.232.223.223 0 0 1 .196-.143l4.805.05a.198.198 0 0 1 .155.074.205.205 0 0 1 .041.17l-.553 2.65a.205.205 0 0 1-.116.147.253.253 0 0 1-.084.016Zm-3.539-2.695 3.403 2.161.44-2.12-3.843-.04ZM43.288 56.047a.204.204 0 0 1-.152-.07.21.21 0 0 1 .02-.289c.716-.636 1.32-1.358 1.297-1.545-.152-.175-1.602-.428-2.835-.542a.194.194 0 0 1-.136-.072.201.201 0 0 1-.044-.148.206.206 0 0 1 .07-.14.2.2 0 0 1 .146-.048c1.085.102 2.943.334 3.163.775.22.44-.777 1.475-1.401 2.038a.194.194 0 0 1-.128.04ZM39.998 60.452c-.089 0-.177-.011-.264-.032-1.309-.335-1.441-3.042-1.453-3.348a.21.21 0 0 1 .128-.2.204.204 0 0 1 .224.058c1.493 1.708 3.968.966 4.004.958a.197.197 0 0 1 .22.073.21.21 0 0 1 0 .24c-.18.237-1.614 2.251-2.859 2.251Zm-1.277-2.854c.104.901.4 2.259 1.11 2.447.708.187 1.757-.877 2.361-1.631-.792.114-2.286.175-3.47-.828v.012ZM37.232 55.128a.175.175 0 0 1-.08 0 .199.199 0 0 1-.107-.112.207.207 0 0 1 .003-.157c.174-.404.49-.728.886-.909a1.72 1.72 0 0 1 1.256-.07.21.21 0 0 1 .124.102.216.216 0 0 1-.082.289.205.205 0 0 1-.159.018 1.335 1.335 0 0 0-.97.051 1.37 1.37 0 0 0-.687.699.205.205 0 0 1-.184.09Z" fill="#263238"/><path d="M42.332 53.442a.205.205 0 0 1-.084 0 .199.199 0 0 1-.115-.192.203.203 0 0 1 .019-.077c.107-.21.282-.377.496-.472a1 1 0 0 1 .677-.05c.053.012.1.044.13.09a.211.211 0 0 1-.06.289c-.046.03-.101.04-.154.03a.594.594 0 0 0-.415.011.609.609 0 0 0-.31.282.206.206 0 0 1-.184.09ZM36.304 53.498h-.032a.2.2 0 0 1-.165-.153.207.207 0 0 1-.004-.08s.22-1.422 2.058-1.463c.053 0 .103.022.14.059a.203.203 0 0 1-.056.333.193.193 0 0 1-.076.015c-1.485.033-1.661 1.073-1.67 1.117a.2.2 0 0 1-.066.124.194.194 0 0 1-.13.048ZM41.119 51.601a.202.202 0 0 1-.202-.204c0-.053.021-.104.058-.142a1.393 1.393 0 0 1 1.681-.212.197.197 0 0 1 .096.122.204.204 0 0 1-.02.155.197.197 0 0 1-.272.078.994.994 0 0 0-1.201.146.206.206 0 0 1-.14.057Z" fill="#263238"/><path d="M15.518 84.026a26.576 26.576 0 0 1-2.402-1.403c-.4-.35 1.718-5.12 1.926-5.26.208-.138 5.096.282 5.785.702.689.42 1.858 3.788 1.601 4.697-.256.909-1.925 1.545-2.27 1.683-.344.14-4.64-.42-4.64-.42Z" fill="#ADADAD"/><path d="M19.872 84.668c-.917 0-3.275-.293-4.376-.44a.144.144 0 0 1-.068-.02c-.84-.43-1.655-.906-2.442-1.427a.475.475 0 0 1-.125-.408c.053-1.027 1.766-4.974 2.066-5.182.4-.26 5.377.318 6.006.697.8.49 1.973 3.947 1.673 4.934-.196.648-.96 1.223-2.338 1.793h-.052a1.025 1.025 0 0 1-.344.053Zm-4.288-.84c1.705.225 4.208.506 4.484.408h.044c1.545-.624 2.002-1.178 2.102-1.533.26-.86-.925-4.117-1.493-4.484-.569-.367-5.005-.783-5.582-.693-.34.448-2.001 4.415-1.877 4.937.75.498 1.524.953 2.322 1.366Z" fill="#263238"/><path d="M25.225 87.882s-3.511-5.61-4.2-6.593c-.688-.982-3.647-1.753-5.092-1.12-1.445.631-2.55 2.661-2.206 3.436.344.774 7.507 5.116 7.507 5.116s-.825 4.077-.48 4.42a12.304 12.304 0 0 0 2.401 1.68c.553.212 1.377-.559 1.377-.559.321.037.645.037.965 0 .345-.07.757-.632.757-.632s.4.701.829.07c.428-.633.48-1.122.136-1.334-.344-.212-.62-1.61-.62-1.61s.4-1.121.071-1.896c-.328-.775-1.445-.978-1.445-.978Z" fill="#fff"/><path d="M23.367 95.061a.72.72 0 0 1-.276-.049 12.355 12.355 0 0 1-2.483-1.728c-.352-.363.084-2.887.4-4.46-1.44-.877-7.121-4.371-7.462-5.138a1.758 1.758 0 0 1 .096-1.26 4.637 4.637 0 0 1 2.21-2.445c1.566-.685 4.608.15 5.337 1.19.648.925 3.735 5.846 4.16 6.523.288.073 1.177.347 1.505 1.08.328.734.04 1.741-.044 1.99.128.624.36 1.33.516 1.427a.628.628 0 0 1 .3.408 1.68 1.68 0 0 1-.376 1.223.616.616 0 0 1-.549.355.675.675 0 0 1-.443-.217c-.188.235-.436.411-.717.51a4.043 4.043 0 0 1-.937 0c-.342.323-.774.53-1.237.591Zm-6.122-14.917a3.19 3.19 0 0 0-1.237.212 4.196 4.196 0 0 0-2.001 2.222 1.36 1.36 0 0 0-.104.941c.232.518 4.676 3.36 7.422 5.027a.203.203 0 0 1 .096.216c-.372 1.827-.676 3.967-.528 4.244a12.47 12.47 0 0 0 2.33 1.631c.356.139.98-.338 1.173-.518a.2.2 0 0 1 .156-.053c.3.037.602.037.9 0a1.61 1.61 0 0 0 .645-.566.217.217 0 0 1 .172-.082.193.193 0 0 1 .16.098c.057.094.185.232.28.236.097.005.169-.106.21-.175.205-.247.317-.56.315-.885a.247.247 0 0 0-.116-.158c-.4-.237-.64-1.399-.712-1.746a.223.223 0 0 1 0-.114s.376-1.052.072-1.736c-.305-.685-1.29-.865-1.302-.865a.228.228 0 0 1-.132-.09c-.036-.056-3.515-5.617-4.191-6.584-.465-.668-2.198-1.255-3.608-1.255Z" fill="#263238"/><path d="M26.26 93.837a.199.199 0 0 1-.129-.049.205.205 0 0 1-.067-.122l-.48-3.23a.209.209 0 0 1 .096-.206.199.199 0 0 1 .277.07.208.208 0 0 1 .027.076l.485 3.225a.207.207 0 0 1-.095.205.198.198 0 0 1-.074.027l-.04.004Z" fill="#263238"/><path d="M59.656 27.373s.616-2.385.96-1.826c.345.558-.4 3.086-.4 3.086s.965-1.892 1.033-.91c.068.983-1.513 3.083-1.513 3.083l-.08-3.433Z" fill="#fff"/><path d="M59.724 31.009h-.064a.201.201 0 0 1-.136-.192l-.068-3.433a.134.134 0 0 1 0-.057c.236-.905.6-1.998.997-2.038a.324.324 0 0 1 .332.179c.216.355.092 1.248-.076 2.038.248-.26.4-.232.444-.22.168.033.26.192.28.465.073 1.027-1.389 3-1.557 3.225a.194.194 0 0 1-.152.033Zm.132-3.613.056 2.797c.497-.738 1.165-1.875 1.125-2.446v-.029c-.258.311-.477.654-.652 1.02a.197.197 0 0 1-.256.094.203.203 0 0 1-.116-.245c.287-.958.604-2.418.464-2.854a6.66 6.66 0 0 0-.62 1.663Z" fill="#263238"/><path d="M52.972 52.126s6.338-15.709 6.474-16.198c.136-.489-1.93-5.54-2.07-6.592-.14-1.052-.62-4.077 0-4.077s.4.558.4.91c0 .35.689 3.224.689 3.224s.4-3.364.484-3.714c.084-.35.4-.913.757-.493.356.42.136.913.136 1.263 0 .351.068 3.156.068 3.364.262.74.561 1.468.897 2.177 0 0 .965-1.965 1.101-2.874.136-.91.689-2.247.897-.983.145.939.074 1.9-.208 2.805-.136.35.896 2.662.552 3.363-.344.702-1.369 2.125-1.369 2.398 0 .273-4.2 18.02-4.2 18.02l-4.608-2.593Z" fill="#fff"/><path d="M57.588 54.92a.213.213 0 0 1-.1-.024l-4.612-2.597a.203.203 0 0 1-.088-.253c2.19-5.43 6.358-15.798 6.466-16.177.032-.26-.585-1.998-1.033-3.262a26.549 26.549 0 0 1-1.041-3.24l-.048-.36c-.28-2.038-.4-3.4-.044-3.8a.37.37 0 0 1 .292-.138.635.635 0 0 1 .505.188.924.924 0 0 1 .124.725 1.8 1.8 0 0 0 0 .2c0 .171.212 1.142.428 2.088.128-1.016.304-2.394.348-2.618.044-.224.253-.705.585-.79a.488.488 0 0 1 .52.207 1.35 1.35 0 0 1 .212 1.13 1.625 1.625 0 0 0-.027.264c0 .196.023 1.17.04 2.039 0 .665.028 1.252.028 1.341 0 .09.348.905.7 1.696.386-.78.688-1.6.901-2.446 0 0 .276-1.667.837-1.671.336 0 .4.497.448.684a6.356 6.356 0 0 1-.216 2.915c.045.34.124.673.236.995.256.89.549 1.892.304 2.39-.152.31-.432.75-.704 1.174A7.373 7.373 0 0 0 62 36.705c0 .273-3.203 13.894-4.208 18.06a.205.205 0 0 1-.112.14.31.31 0 0 1-.092.015Zm-4.36-2.89 4.224 2.377c1.446-6.116 4.088-17.319 4.136-17.727 0-.183.208-.53.716-1.325.265-.407.537-.84.681-1.133.144-.294-.132-1.398-.332-2.092-.2-.693-.304-1.064-.224-1.26a5.99 5.99 0 0 0 .192-2.694 1.531 1.531 0 0 0-.072-.302 3.61 3.61 0 0 0-.425 1.28c-.144.934-1.08 2.854-1.12 2.936a.235.235 0 0 1-.185.114.202.202 0 0 1-.176-.118 14.967 14.967 0 0 1-.917-2.263c0-.09 0-.673-.028-1.333 0-.852-.04-1.83-.04-2.039.004-.108.014-.215.032-.322a.967.967 0 0 0-.124-.815c-.032-.037-.076-.082-.116-.074a.708.708 0 0 0-.288.477c-.056.27-.34 2.54-.48 3.698a.205.205 0 0 1-.063.125.198.198 0 0 1-.126.055.19.19 0 0 1-.13-.038.196.196 0 0 1-.074-.117c-.116-.486-.697-2.915-.697-3.262v-.245c0-.15.036-.342-.024-.407-.06-.065-.1-.053-.204-.053-.192.15-.148 1.32.148 3.473l.052.36c.274 1.073.613 2.128 1.017 3.159.8 2.218 1.125 3.22 1.041 3.518-.116.473-5.677 14.265-6.394 16.047Z" fill="#263238"/><path d="M49.804 53.665s2.066 2.446 2.803 3.086c.736.64 3.927 2.038 3.927 2.038l2.002-4.134s-2.134-1.822-3.58-2.446c-1.445-.624-2.754-1.333-2.754-1.333l-2.398 2.789Z" fill="#ADADAD"/><path d="M56.58 58.984a.178.178 0 0 1-.08 0c-.132-.057-3.203-1.419-3.972-2.063a40.367 40.367 0 0 1-2.85-3.11.202.202 0 0 1 0-.265l2.402-2.805a.203.203 0 0 1 .244-.045s1.321.705 2.743 1.325c1.42.62 3.543 2.41 3.63 2.483a.213.213 0 0 1 .049.248l-2.002 4.134a.202.202 0 0 1-.164.098Zm-6.486-5.32c.444.518 2.054 2.397 2.687 2.927.632.53 3.03 1.63 3.703 1.924l1.841-3.816c-.468-.407-2.202-1.793-3.41-2.32a39.309 39.309 0 0 1-2.627-1.267l-2.194 2.552Z" fill="#263238"/></svg>