<svg width="28" height="30" fill="none" xmlns="http://www.w3.org/2000/svg"><path d="M13.07 29.292c-.617-.345-.622-.907 0-1.279a2.456 2.456 0 0 1 2.22-.027c.618.345.627.907 0 1.279a2.468 2.468 0 0 1-2.22.027Z" fill="#263238"/><path d="M15.658 28.918h-.254a.78.78 0 0 0-.332-.322 1.991 1.991 0 0 0-1.816.028.79.79 0 0 0-.322.326h-.254l.3.454a.808.808 0 0 0 .29.253 1.99 1.99 0 0 0 1.816-.022.908.908 0 0 0 .286-.259l.286-.458Z" fill="#263238"/><path d="M12.534 28.89c-.908-.513-.908-1.361 0-1.892a3.637 3.637 0 0 1 3.278-.036c.909.513.909 1.36 0 1.891a3.636 3.636 0 0 1-3.277.036Z" fill="#455A64"/><path d="M12.472 28.58c-.944-.53-.953-1.41-.022-1.958a3.753 3.753 0 0 1 3.405-.036c.944.53.953 1.41 0 1.958a3.744 3.744 0 0 1-3.383.037Z" fill="#37474F"/><path d="M12.426 28.243c-.971-.544-.98-1.446-.022-2.013a3.871 3.871 0 0 1 3.486-.036c.972.548.981 1.446.023 2.013a3.855 3.855 0 0 1-3.487.036Z" fill="#455A64"/><path d="M12.376 27.903c-.99-.558-1.003-1.483 0-2.063a3.963 3.963 0 0 1 3.578-.037c.99.558 1.003 1.483 0 2.063a3.976 3.976 0 0 1-3.578.037Z" fill="#37474F"/><path d="M12.345 27.562c-1.017-.576-1.026-1.519-.023-2.113a4.035 4.035 0 0 1 3.66-.036c1.017.571 1.026 1.514.023 2.108a4.05 4.05 0 0 1-3.66.041Z" fill="#455A64"/><path d="M12.286 27.216c-1.045-.585-1.054-1.55-.023-2.158a4.145 4.145 0 0 1 3.745-.041c1.04.585 1.05 1.555.023 2.163a4.144 4.144 0 0 1-3.745.036Z" fill="#37474F"/><path d="M16.883 24.718a1.359 1.359 0 0 0-.822-1.12 4.331 4.331 0 0 0-3.922.04 1.362 1.362 0 0 0-.8 1.139v.938a1.36 1.36 0 0 0 .827 1.125 4.336 4.336 0 0 0 3.918-.041 1.362 1.362 0 0 0 .8-1.143c.026-.158.022-.78 0-.938Z" fill="#BA68C8"/><path d="M13.933 5.848A8.336 8.336 0 0 0 8.07 8.34a8.315 8.315 0 0 0-2.385 5.901c.068 6.611 5.539 7.654 5.57 10.315a1.419 1.419 0 0 0 .854 1.166 4.51 4.51 0 0 0 4.086-.041 1.43 1.43 0 0 0 .831-1.184c-.027-2.666 5.421-3.817 5.353-10.428a8.324 8.324 0 0 0-2.518-5.857 8.346 8.346 0 0 0-5.927-2.364Z" fill="#BA68C8"/><path d="M13.933 5.848A8.336 8.336 0 0 0 8.07 8.34a8.315 8.315 0 0 0-2.385 5.901c.068 6.611 5.539 7.654 5.57 10.315a1.419 1.419 0 0 0 .854 1.166 4.51 4.51 0 0 0 4.086-.041 1.43 1.43 0 0 0 .831-1.184c-.027-2.666 5.421-3.817 5.353-10.428a8.324 8.324 0 0 0-2.518-5.857 8.346 8.346 0 0 0-5.927-2.364Z" fill="#fff" style="mix-blend-mode:screen" opacity=".7"/><path d="M12.44 25.573c-.945-.53-.954-1.41-.024-1.963a3.767 3.767 0 0 1 3.405-.032c.945.53.954 1.41 0 1.96a3.758 3.758 0 0 1-3.382.035Z" fill="#BA68C8"/><path opacity=".55" d="M12.44 25.573c-.945-.53-.954-1.41-.024-1.963a3.767 3.767 0 0 1 3.405-.032c.945.53.954 1.41 0 1.96a3.758 3.758 0 0 1-3.382.035Z" fill="#fff"/><path opacity=".25" d="M16.244 25.209c-.118.123-.254.229-.404.313a3.76 3.76 0 0 1-3.4.036 1.653 1.653 0 0 1-.409-.304 1.71 1.71 0 0 1 .4-.317 3.767 3.767 0 0 1 3.405-.037c.15.084.287.188.408.309Z" fill="#BA68C8"/><path d="M16.244 25.209c-.118.123-.254.229-.404.313a3.76 3.76 0 0 1-3.4.036 1.653 1.653 0 0 1-.409-.304 1.71 1.71 0 0 1 .4-.317 3.767 3.767 0 0 1 3.405-.037c.15.084.287.188.408.309Z" fill="#BA68C8"/><path opacity=".35" d="M16.244 25.209c-.118.123-.254.229-.404.313a3.76 3.76 0 0 1-3.4.036 1.653 1.653 0 0 1-.409-.304 1.71 1.71 0 0 1 .4-.317 3.767 3.767 0 0 1 3.405-.037c.15.084.287.188.408.309ZM20.517 10.161c-.526-.784-1.362-1.42-2.324-.993a1.51 1.51 0 0 0-.29.177 1.239 1.239 0 0 0-.396 1.138c.127.807.908 1.301 1.362 1.922.503.684.88 1.452 1.113 2.268.065.296.16.585.285.861a.649.649 0 0 0 .831.268 1.203 1.203 0 0 0 .527-.907 6.365 6.365 0 0 0-1.108-4.734Zm.223 6.18a.681.681 0 0 0-.668.48.905.905 0 0 0 .091.744.54.54 0 0 0 .736.159.867.867 0 0 0 .39-.726.648.648 0 0 0-.531-.662l-.018.005Z" fill="#fff"/><path d="M15.113 25.382h-.1c-.032-2.966.123-4.825.513-6.217.099-.359.23-.708.395-1.043a5.117 5.117 0 0 1-1.87-1.079c-.531.5-1.163.883-1.853 1.12.173.33.313.677.418 1.034.418 1.36.613 3.238.645 6.203h-.1c-.027-2.952-.223-4.802-.636-6.176a5.609 5.609 0 0 0-.422-1.033 2.19 2.19 0 0 1-.277.063c-.967.172-1.535-.1-1.744-.413a.63.63 0 0 1 0-.716.64.64 0 0 1 .659-.267c.422.058.953.417 1.403 1.22a4.996 4.996 0 0 0 1.816-1.098 2.126 2.126 0 0 1-.277-.326 1.61 1.61 0 0 1-.268-1.61.665.665 0 0 1 .944-.266c.104.064.19.156.245.266a1.608 1.608 0 0 1-.231 1.614 2.674 2.674 0 0 1-.272.335 5.04 5.04 0 0 0 1.875 1.043c.454-.807.953-1.178 1.362-1.247a.636.636 0 0 1 .662.254.62.62 0 0 1 .028.712c-.205.318-.763.603-1.735.454-.09 0-.186-.037-.277-.06a5.44 5.44 0 0 0-.4 1.044c-.385 1.396-.548 3.232-.503 6.189Zm.953-7.318.245.05c.909.145 1.453-.118 1.64-.409a.525.525 0 0 0 0-.607.544.544 0 0 0-.573-.213c-.395.077-.898.412-1.312 1.179Zm-5.448-1.12a.532.532 0 0 0-.55.537c0 .11.034.216.096.306.196.286.727.535 1.648.372a2.39 2.39 0 0 0 .245-.055c-.454-.757-.94-1.097-1.316-1.151l-.123-.01Zm3.4-2.177a.564.564 0 0 0-.503.322 1.557 1.557 0 0 0 .259 1.51c.08.112.169.217.268.313.097-.098.185-.204.263-.317a1.573 1.573 0 0 0 .231-1.52.576.576 0 0 0-.513-.308h-.004Z" fill="#455A64"/><path d="M14.16 4.37a.314.314 0 0 1-.312-.313V.942a.313.313 0 0 1 .626 0v3.115a.312.312 0 0 1-.313.313ZM19.286 5.751a.332.332 0 0 1-.259-.125.318.318 0 0 1-.014-.37l1.558-2.72a.314.314 0 0 1 .544.313l-1.557 2.698a.309.309 0 0 1-.272.204ZM23.027 9.507a.314.314 0 0 1-.272-.154.317.317 0 0 1 .114-.431l2.7-1.56a.315.315 0 0 1 .406.464.314.314 0 0 1-.092.08l-2.697 1.56a.332.332 0 0 1-.159.04ZM27.509 14.63h-3.12a.314.314 0 0 1 0-.626h3.12a.313.313 0 1 1 0 .626ZM25.705 21.302a.332.332 0 0 1-.159-.04l-2.724-1.556a.317.317 0 0 1-.113-.453.313.313 0 0 1 .426-.114l2.724 1.556a.309.309 0 0 1 .118.426.316.316 0 0 1-.272.181ZM2.552 21.263a.318.318 0 0 1-.272-.159.313.313 0 0 1 .114-.426l2.687-1.56a.314.314 0 1 1 .314.54l-2.697 1.56a.29.29 0 0 1-.146.045ZM3.891 14.584H.772a.318.318 0 0 1 0-.63h3.12a.312.312 0 0 1 .289.432.313.313 0 0 1-.29.194v.004ZM5.275 9.466a.332.332 0 0 1-.158-.04L2.392 7.87a.318.318 0 0 1-.113-.453.313.313 0 0 1 .427-.114L5.43 8.86a.313.313 0 0 1-.155.585v.022ZM9.035 5.729a.318.318 0 0 1-.272-.159L7.201 2.9a.315.315 0 1 1 .545-.318l1.562 2.72a.312.312 0 0 1-.114.427.291.291 0 0 1-.159 0Z" fill="#BA68C8"/></svg>