<svg width="12" height="12" fill="none" xmlns="http://www.w3.org/2000/svg"><path d="M5.796 11.174c-.238-.132-.24-.348 0-.492a.944.944 0 0 1 .854-.01c.237.133.24.349 0 .492a.95.95 0 0 1-.854.01Z" fill="#263238"/><path d="M6.79 11.028h-.098a.3.3 0 0 0-.127-.124.767.767 0 0 0-.699.01.304.304 0 0 0-.124.126h-.097l.115.175a.31.31 0 0 0 .112.097.764.764 0 0 0 .698-.008.35.35 0 0 0 .11-.1l.11-.176Z" fill="#263238"/><path d="M5.59 11.022c-.35-.197-.35-.523 0-.727a1.398 1.398 0 0 1 1.26-.014c.35.197.35.523 0 .727a1.399 1.399 0 0 1-1.26.014Z" fill="#455A64"/><path d="M5.568 10.899c-.363-.204-.367-.543-.009-.754a1.445 1.445 0 0 1 1.31-.014c.363.204.366.543 0 .754a1.441 1.441 0 0 1-1.301.014Z" fill="#37474F"/><path d="M5.548 10.77c-.373-.21-.377-.557-.008-.775a1.49 1.49 0 0 1 1.34-.014c.374.212.378.557.01.775a1.481 1.481 0 0 1-1.342.014Z" fill="#455A64"/><path d="M5.526 10.637c-.38-.214-.386-.57 0-.793a1.524 1.524 0 0 1 1.376-.014c.38.214.386.57 0 .793a1.53 1.53 0 0 1-1.376.014Z" fill="#37474F"/><path d="M5.515 10.509c-.392-.222-.395-.585-.01-.813a1.552 1.552 0 0 1 1.408-.014c.391.22.395.582.009.81a1.557 1.557 0 0 1-1.407.017Z" fill="#455A64"/><path d="M5.495 10.374c-.402-.225-.405-.596-.009-.83a1.594 1.594 0 0 1 1.44-.016c.4.225.404.598.01.832a1.595 1.595 0 0 1-1.441.014Z" fill="#37474F"/><path d="M7.265 9.417a.523.523 0 0 0-.316-.43 1.666 1.666 0 0 0-1.509.015.524.524 0 0 0-.307.438v.361a.523.523 0 0 0 .318.433 1.667 1.667 0 0 0 1.507-.016.524.524 0 0 0 .307-.44c.01-.06.009-.3 0-.36Z" fill="#BA68C8"/><path d="M6.13 2.156a3.206 3.206 0 0 0-3.173 3.229c.026 2.543 2.13 2.944 2.143 3.968a.546.546 0 0 0 .328.449 1.734 1.734 0 0 0 1.571-.016.55.55 0 0 0 .32-.455c-.01-1.026 2.085-1.469 2.059-4.012A3.203 3.203 0 0 0 6.13 2.156Z" fill="#BA68C8"/><path d="M6.13 2.156a3.206 3.206 0 0 0-3.173 3.229c.026 2.543 2.13 2.944 2.143 3.968a.546.546 0 0 0 .328.449 1.734 1.734 0 0 0 1.571-.016.55.55 0 0 0 .32-.455c-.01-1.026 2.085-1.469 2.059-4.012A3.203 3.203 0 0 0 6.13 2.156Z" fill="#fff" style="mix-blend-mode:screen" opacity=".7"/><path d="M5.556 9.747c-.363-.204-.367-.542-.009-.755a1.449 1.449 0 0 1 1.31-.012c.363.204.367.542 0 .753a1.445 1.445 0 0 1-1.3.014Z" fill="#BA68C8"/><path opacity=".55" d="M5.556 9.747c-.363-.204-.367-.542-.009-.755a1.449 1.449 0 0 1 1.31-.012c.363.204.367.542 0 .753a1.445 1.445 0 0 1-1.3.014Z" fill="#fff"/><path opacity=".25" d="M7.019 9.605a.665.665 0 0 1-.156.12 1.445 1.445 0 0 1-1.307.015.636.636 0 0 1-.158-.117.658.658 0 0 1 .154-.122 1.449 1.449 0 0 1 1.31-.014c.057.032.11.072.157.118Z" fill="#BA68C8"/><path d="M7.019 9.605a.665.665 0 0 1-.156.12 1.445 1.445 0 0 1-1.307.015.636.636 0 0 1-.158-.117.658.658 0 0 1 .154-.122 1.449 1.449 0 0 1 1.31-.014c.057.032.11.072.157.118Z" fill="#BA68C8"/><path opacity=".35" d="M7.019 9.605a.665.665 0 0 1-.156.12 1.445 1.445 0 0 1-1.307.015.636.636 0 0 1-.158-.117.658.658 0 0 1 .154-.122 1.449 1.449 0 0 1 1.31-.014c.057.032.11.072.157.118ZM8.661 3.817c-.203-.301-.524-.546-.894-.382a.581.581 0 0 0-.112.068.476.476 0 0 0-.152.438c.05.31.35.5.524.74.194.262.338.558.428.871.025.114.062.225.11.332a.25.25 0 0 0 .32.103.462.462 0 0 0 .202-.35 2.448 2.448 0 0 0-.426-1.82Zm.086 2.377a.262.262 0 0 0-.257.185.348.348 0 0 0 .035.286.208.208 0 0 0 .283.061.333.333 0 0 0 .15-.279.25.25 0 0 0-.204-.255l-.007.002Z" fill="#fff"/><path d="M6.583 9.672h-.038c-.012-1.14.047-1.856.197-2.391.038-.138.089-.273.152-.401a1.968 1.968 0 0 1-.72-.416c-.204.193-.446.34-.712.431.067.127.12.26.16.398.161.523.237 1.246.249 2.386h-.039c-.01-1.135-.085-1.847-.244-2.375a2.157 2.157 0 0 0-.162-.398.848.848 0 0 1-.107.024c-.372.067-.59-.038-.67-.159a.242.242 0 0 1 0-.275.246.246 0 0 1 .253-.103c.162.023.366.16.54.47.26-.09.498-.234.698-.423a.816.816 0 0 1-.107-.126.619.619 0 0 1-.103-.619.257.257 0 0 1 .458 0 .619.619 0 0 1-.09.621 1.033 1.033 0 0 1-.104.13c.209.183.455.32.721.4.175-.31.367-.453.524-.48a.245.245 0 0 1 .255.098.239.239 0 0 1 .01.274c-.078.122-.293.232-.667.175-.035 0-.071-.014-.106-.023a2.092 2.092 0 0 0-.154.401c-.148.538-.211 1.244-.194 2.381Zm.367-2.815.094.02c.35.055.559-.046.63-.158a.202.202 0 0 0-.097-.308.21.21 0 0 0-.122-.008c-.152.03-.346.16-.505.454Zm-2.095-.43a.204.204 0 0 0-.212.206c0 .042.013.083.037.118.075.11.28.205.634.143a.912.912 0 0 0 .094-.021c-.175-.292-.361-.422-.506-.443l-.047-.004Zm1.307-.838a.217.217 0 0 0-.193.124.6.6 0 0 0 .1.58c.03.044.064.084.102.12a.85.85 0 0 0 .101-.121.605.605 0 0 0 .09-.585.222.222 0 0 0-.198-.118h-.002Z" fill="#455A64"/><path d="M6.214 1.585a.12.12 0 0 1-.12-.12V.267a.12.12 0 0 1 .24 0v1.198a.12.12 0 0 1-.12.12ZM8.187 2.115a.128.128 0 0 1-.099-.048.122.122 0 0 1-.005-.142L8.682.88a.12.12 0 0 1 .21.12l-.6 1.038a.119.119 0 0 1-.105.078ZM9.621 3.562a.12.12 0 0 1-.061-.225l1.039-.6a.12.12 0 0 1 .134.01.122.122 0 0 1 .043.126.12.12 0 0 1-.057.074l-1.037.6a.128.128 0 0 1-.061.015ZM11.347 5.537h-1.2a.12.12 0 0 1 0-.24h1.2a.12.12 0 1 1 0 .24ZM10.653 8.102a.127.127 0 0 1-.061-.016l-1.048-.598a.122.122 0 0 1-.043-.175.12.12 0 0 1 .164-.043l1.048.598a.12.12 0 0 1 .045.164.123.123 0 0 1-.105.07ZM1.75 8.084a.122.122 0 0 1-.105-.06.12.12 0 0 1 .044-.165l1.033-.6a.12.12 0 1 1 .12.208l-1.036.6a.112.112 0 0 1-.056.017ZM2.264 5.52h-1.2a.122.122 0 0 1 0-.243h1.2a.12.12 0 0 1 0 .24v.002ZM2.798 3.546a.127.127 0 0 1-.062-.016L1.69 2.932a.122.122 0 0 1-.044-.175.12.12 0 0 1 .164-.043l1.048.598a.12.12 0 0 1-.06.225v.009ZM4.242 2.112a.122.122 0 0 1-.105-.06l-.6-1.028a.121.121 0 1 1 .209-.122l.6 1.046a.12.12 0 0 1-.043.164.112.112 0 0 1-.061 0Z" fill="#BA68C8"/></svg>