<svg width="25" height="24" fill="none" xmlns="http://www.w3.org/2000/svg"><g clip-path="url('#clip0_342_2734')"><path d="m5.819 14.504-.835 3.118-3.054.065A11.946 11.946 0 0 1 .5 12c0-1.99.484-3.866 1.342-5.519l2.719.499 1.19 2.702A7.133 7.133 0 0 0 5.368 12c0 .881.16 1.725.452 2.504Z" fill="#FBBB00"/><path d="M24.29 9.758a12.021 12.021 0 0 1-.053 4.747 11.998 11.998 0 0 1-4.224 6.853h-.001l-3.424-.175-.485-3.025a7.152 7.152 0 0 0 3.078-3.652h-6.417V9.758H24.29Z" fill="#518EF8"/><path d="M20.012 21.358A11.95 11.95 0 0 1 12.5 24c-4.57 0-8.543-2.554-10.57-6.313l3.89-3.183a7.135 7.135 0 0 0 10.284 3.654l3.908 3.2Z" fill="#28B446"/><path d="m20.16 2.763-3.888 3.182a7.137 7.137 0 0 0-10.52 3.736l-3.91-3.2A11.998 11.998 0 0 1 12.5 0a11.95 11.95 0 0 1 7.66 2.763Z" fill="#F14336"/></g><defs><clipPath id="clip0_342_2734"><path fill="#fff" transform="translate(.5)" d="M0 0h24v24H0z"/></clipPath></defs></svg>