<svg width="120" height="120" fill="none" xmlns="http://www.w3.org/2000/svg"><path d="M60.803 120.001c32.694 0 59.197-15.033 59.197-33.577 0-18.543-26.504-33.576-59.197-33.576-32.694 0-59.198 15.033-59.198 33.576 0 18.544 26.504 33.577 59.198 33.577Z" fill="#F0FFF4"/><path d="M73.548 57.132c-3.528 2-3.528 5.244 0 7.245 3.528 2 9.245 2 12.77 0 3.525-2 3.528-5.244 0-7.245-3.528-2-9.245-1.998-12.77 0Z" fill="#E6E6E6"/><path d="m19.155 115.826 39.957-22.664c.623-.352.623-.924 0-1.276l-9.352-5.308a2.523 2.523 0 0 0-2.25 0L7.553 109.242c-.621.352-.621.924 0 1.276l9.351 5.308a2.524 2.524 0 0 0 2.252 0ZM92.21 109.349 69.071 96.253a.305.305 0 0 1 0-.584l21.742-12.35a1.138 1.138 0 0 1 1.04 0l23.136 13.097a.313.313 0 0 1 .213.292.306.306 0 0 1-.213.293l-21.742 12.348a1.13 1.13 0 0 1-1.039 0Z" fill="#E0E0E0"/><path d="m20.8 35.728.528.309 10.788-6.122-.525-.307-10.79 6.12Z" fill="#FAFAFA"/><path d="m31.591 29.612-10.263 5.821V8.117l10.263-5.818v27.313Z" fill="#fff"/><path d="M33.111.313 20.336 7.558v30.175l12.775-7.245V.313Zm-.995 29.603-10.788 6.125V8.122l10.788-6.124v27.918Z" fill="#F0F0F0"/><path d="m32.115 29.916-.525-.306V2.296l.527-.3-.002 27.92Z" fill="#E0E0E0"/><path d="m33.111.307-.535-.3L19.8 7.253l.535.298L33.11.307Z" fill="#FAFAFA"/><path d="m19.8 7.246.536.299v30.174l-.535-.301V7.246Z" fill="#E0E0E0"/><path d="m30.823 28.997-8.725 4.949V9.018l8.725-4.948v24.927Z" fill="#F0F0F0"/><path d="m30.823 28.997-8.725 4.949V9.018l8.725-4.948v24.927Z" fill="#F0F0F0"/><path d="M22.094 25.647c.415.032.832.032 1.247 0a15.923 15.923 0 0 0 4.25-.909c1.054-.383 2.111-.878 3.228-.908v5.19l-1.182.671a4.004 4.004 0 0 0-1.62-.885c-1.681-.434-3.406.398-5.134.592-.258.026-.519.04-.779.038l-.01-3.79ZM22.094 19.43c1.953-.566 3.953-1.038 5.348-2.444 1.122-1.136 1.652-2.706 2.021-4.247.37-1.541.624-3.129 1.333-4.547l.023-.044v11.466c-.109.158-.218.32-.335.475-1.283 1.707-3.172 3.131-5.328 3.24-1.013.054-2.06-.18-3.062-.175V19.43ZM22.094 13.735a5.845 5.845 0 0 0 1.663-2.415 5.75 5.75 0 0 0 .27-2.903 5.134 5.134 0 0 0-.1-.429l3.362-1.904c0 .217-.023.434-.029.651-.036 1.258 0 2.534-.275 3.761a7.346 7.346 0 0 1-1.376 2.832 7.503 7.503 0 0 1-2.448 2.017 7.35 7.35 0 0 1-1.062.434l-.005-2.044ZM4.39 48.7l.525.305 10.79-6.12-.524-.308L4.391 48.7Z" fill="#FAFAFA"/><path d="M15.18 42.578 4.914 48.4V21.086l10.266-5.818v27.31Z" fill="#fff"/><path d="M16.696 13.282 3.91 20.527v30.175l12.775-7.248.01-30.172Zm-.993 29.603L4.913 49.01V21.09l10.79-6.125v27.919Z" fill="#F0F0F0"/><path d="m15.704 42.884-.524-.309v-27.31l.524-.305v27.924Z" fill="#E0E0E0"/><path d="m16.697 13.276-.535-.3L3.387 20.22l.535.301 12.775-7.245Z" fill="#FAFAFA"/><path d="m3.387 20.215.535.301v30.175l-.535-.302V20.215Z" fill="#E0E0E0"/><path d="M14.409 41.982 5.684 46.93V22.003l8.725-4.948v24.927Z" fill="#F0F0F0"/><path d="M14.409 41.982 5.684 46.93V22.003l8.725-4.948v24.927Z" fill="#F0F0F0"/><path d="M5.684 38.623c.415.03.831.03 1.246 0a15.896 15.896 0 0 0 4.255-.924c1.058-.383 2.112-.88 3.23-.91v5.192l-1.183.669a4.04 4.04 0 0 0-1.618-.883c-1.683-.434-3.406.395-5.133.59a6.83 6.83 0 0 1-.78.04l-.017-3.774ZM5.684 32.412c1.953-.566 3.956-1.038 5.348-2.444 1.122-1.136 1.652-2.708 2.021-4.247.369-1.539.623-3.129 1.333-4.55l.023-.04v11.462c-.11.161-.218.322-.335.478-1.28 1.704-3.17 3.13-5.325 3.24-1.013.052-2.06-.18-3.065-.178v-3.72ZM5.684 26.703a5.84 5.84 0 0 0 1.664-2.413c.338-.93.432-1.929.27-2.903a7.905 7.905 0 0 0-.098-.429l3.356-1.904c-.014.218-.024.435-.03.651-.035 1.258 0 2.534-.276 3.762a7.346 7.346 0 0 1-1.377 2.832 7.503 7.503 0 0 1-2.447 2.017 7.401 7.401 0 0 1-1.062.433v-2.046ZM118.332 67.233l-.587.344-19.944-11.313.584-.344 19.947 11.313Z" fill="#FAFAFA"/><path d="m98.387 55.917 19.36 10.979v-50.01L98.387 5.914v50.004Z" fill="#fff"/><path d="m96.691 56.896 22.161 12.569V16.268L96.692 3.7v53.196Zm1.107-51.315 19.947 11.313V67.58L97.798 56.268V5.581Z" fill="#F0F0F0"/><path d="m97.8 56.27.584-.345V5.922l-.587-.34.002 50.687Z" fill="#E0E0E0"/><path d="M117.745 49.589v.676L97.801 38.952l.584-.344 19.36 10.98ZM117.745 32.273v.676L97.801 21.636l.584-.345 19.36 10.982ZM96.691 3.698l.598-.337 22.158 12.568-.595.337-22.16-12.568Z" fill="#FAFAFA"/><path d="m119.446 15.93-.594.337v53.197l.594-.337V15.93ZM109.215 12.056l-.598-.336v50.686l.598-.334V12.056Z" fill="#E0E0E0"/><path d="m107.512 11.085 1.106.625v50.687l-1.104-.63-.002-50.682Z" fill="#F0F0F0"/><path d="M96.691 21.011v1.253l22.161 12.569V33.58L96.692 21.01ZM96.691 38.324v1.253l22.161 12.568v-1.253l-22.16-12.569Z" fill="#F0F0F0"/><path d="m108.617 27.771.598-.34 8.53 4.84v.676l-9.128-5.176ZM108.617 45.084l.598-.34 8.53 4.839v.676l-9.128-5.175Z" fill="#FAFAFA"/><path d="M75.282 52.84a.254.254 0 0 1 .156-.213.838.838 0 0 1 .748 0 .26.26 0 0 1 .156.212l-2.483 7.94a.184.184 0 0 1-.11.147.604.604 0 0 1-.519 0 .195.195 0 0 1-.109-.148l2.161-7.939ZM84.44 52.84a.257.257 0 0 0-.153-.212.843.843 0 0 0-.75 0 .258.258 0 0 0-.154.211l2.48 7.94a.19.19 0 0 0 .11.147.604.604 0 0 0 .52 0 .188.188 0 0 0 .108-.148L84.44 52.84ZM80.458 53.378a.253.253 0 0 0-.156-.215.838.838 0 0 0-.748 0 .259.259 0 0 0-.156.215l.156 10.011a.19.19 0 0 0 .11.148.604.604 0 0 0 .519 0 .194.194 0 0 0 .109-.148l.166-10.011Z" fill="#455A64"/><path d="M89.418 48.949c0-1.379-.917-2.757-2.769-3.805-3.707-2.103-9.712-2.103-13.419 0-1.852 1.048-2.772 2.426-2.77 3.805v.74c.024 1.357.952 2.712 2.78 3.75 3.707 2.101 9.713 2.101 13.42 0 1.818-1.038 2.756-2.393 2.78-3.75l-.022-.74Z" fill="#92E3A9"/><path opacity=".6" d="M89.418 48.949c0-1.379-.917-2.757-2.769-3.805-3.707-2.103-9.712-2.103-13.419 0-1.852 1.048-2.772 2.426-2.77 3.805v.74c.024 1.357.952 2.712 2.78 3.75 3.707 2.101 9.713 2.101 13.42 0 1.818-1.038 2.756-2.393 2.78-3.75l-.022-.74Z" fill="#fff"/><path d="M73.22 45.143c-3.705 2.1-3.705 5.507 0 7.61 3.704 2.102 9.712 2.102 13.419 0 3.707-2.103 3.704-5.51 0-7.61-3.704-2.1-9.713-2.103-13.42 0Z" fill="#92E3A9"/><path opacity=".8" d="M73.22 45.143c-3.705 2.1-3.705 5.507 0 7.61 3.704 2.102 9.712 2.102 13.419 0 3.707-2.103 3.704-5.51 0-7.61-3.704-2.1-9.713-2.103-13.42 0Z" fill="#fff"/><path d="M82.007 47.181c1.182.672 1.182 1.759 0 2.427-1.182.669-3.099.671-4.28 0-1.183-.67-1.183-1.755 0-2.427 1.181-.67 3.098-.67 4.28 0Z" fill="#92E3A9" opacity=".2"/><path d="M77.987 48.544c-1.04-1.02-1.634-3.608-.632-4.425h5.11c1.003.817.4 3.392-.629 4.425a.29.29 0 0 0-.028.028l-.037.033a.98.98 0 0 1-.093.082l-.023.02-.078.057-.133.084a3.444 3.444 0 0 1-3.068 0 1.576 1.576 0 0 1-.132-.084l-.073-.054-.031-.023a1.32 1.32 0 0 1-.091-.079l-.039-.038a.107.107 0 0 1-.023-.026Z" fill="#F0F0F0"/><path d="M82.022 43.785c1.166.663 1.166 1.735 0 2.396-1.167.661-3.055.661-4.222 0-1.166-.66-1.166-1.733 0-2.396 1.167-.664 3.055-.661 4.222 0Z" fill="#FAFAFA"/><path d="M81.195 44.254c.709.403.709 1.053 0 1.457a2.876 2.876 0 0 1-2.57 0c-.709-.404-.709-1.054 0-1.457a2.9 2.9 0 0 1 2.57 0Z" fill="#E0E0E0"/><path d="M78.626 44.95a2.876 2.876 0 0 1 2.57 0c.171.09.317.221.423.382-.106.16-.252.293-.423.383a2.875 2.875 0 0 1-2.57 0 1.146 1.146 0 0 1-.423-.383c.106-.16.252-.292.423-.383Z" fill="#455A64"/><path d="M81.035 45.33c.364-.361.677-.769.93-1.212.429-.745.795-1.692.574-1.817-.22-.125-1.413.822-1.413.822a5.2 5.2 0 0 0 .096-1.276c-.039-.664-.202-1.276-.394-1.389-.193-.112-.63.715-.814 1.322-.184.608-.26.983-.26.983s-.163-.697-.368-1.276c-.226-.63-.431-.766-.59-.71-.158.056-.26.355-.309 1.195-.016.4-.003.8.039 1.199 0 0-.317-.342-.67-.676-.353-.334-.663-.365-.78-.296-.116.069-.033.59.567 1.656.3.543.682 1.038 1.135 1.467 0 0 .836.536 2.257.008Z" fill="#92E3A9"/><path d="M81.035 45.331c.364-.361.677-.769.93-1.212.429-.745.795-1.692.574-1.817-.22-.125-1.413.822-1.413.822.085-.42.117-.849.096-1.276-.039-.664-.202-1.276-.394-1.389-.193-.112-.63.715-.814 1.322-.184.608-.26.983-.26.983s-.163-.697-.368-1.276c-.226-.63-.431-.766-.59-.71-.158.056-.26.355-.309 1.195-.016.4-.003.8.039 1.199 0 0-.317-.342-.67-.676-.353-.335-.663-.365-.78-.296-.116.069-.033.59.567 1.656a6.05 6.05 0 0 0 1.135 1.467s.836.536 2.257.008Z" fill="#000" opacity=".2"/><path opacity=".2" d="M80.025 41.787c-.184.607-.26.982-.26.982l.112.51s.117-1.143.28-1.878c-.056.14-.103.266-.132.386ZM78.725 42.702a7.5 7.5 0 0 1-.164-1.454 5.944 5.944 0 0 0-.078.735c-.016.4-.003.8.04 1.199l.82.845a7.195 7.195 0 0 1-.618-1.325ZM80.61 43.618l.519-.51c.086-.42.118-.85.096-1.277a4.475 4.475 0 0 0-.104-.753c.052.407.031.82-.06 1.22-.123.448-.274.89-.452 1.32Z" fill="#000"/><path d="m10.248 110.326 2.25-1.43s1.088-5.693.28-10.718c-1.138-7.09-6.045-9.524-7.824-8.827-1.78.697-2.2 2.807 1.018 6.89 1.894 2.415 4.338 7.516 4.276 14.085Z" fill="#92E3A9"/><path d="m10.248 110.327 2.25-1.429s1.088-5.693.28-10.718c-1.138-7.09-6.045-9.524-7.824-8.828-1.78.697-2.2 2.808 1.018 6.89 1.894 2.415 4.338 7.516 4.276 14.085Z" fill="#fff" opacity=".3"/><path d="M11.066 107.519h-.024a.162.162 0 0 1-.105-.062.156.156 0 0 1-.03-.117c.93-6.635-1.782-13.887-4.829-16.814a.156.156 0 0 1 .01-.21.163.163 0 0 1 .213-.015c3.118 2.978 5.868 10.358 4.936 17.083a.16.16 0 0 1-.171.135Z" fill="#fff"/><path d="M4.59 113.92c-.338.189-1.299-.538-1.559-.714a3.188 3.188 0 0 1-1.07-1.205 2.94 2.94 0 0 1-.26-1.786 7 7 0 0 1 .229-.947c.091-.306.18-.612.26-.918.108-.296.155-.61.137-.924-.083-.628-.649-1.07-1.166-1.447-.569-.421-1.164-.975-1.161-1.73.042-.587.28-1.143.678-1.583.369-.459.805-.862 1.138-1.345.261-.337.398-.752.387-1.176a1.897 1.897 0 0 0-.26-.732c-.26-.493-.631-.945-.818-1.473-.187-.528-.161-1.186.26-1.564.345-.312.857-.355 1.324-.324a3.08 3.08 0 0 1 1.232.426c1.22.669 1.917 2.087 3.213 2.603.511.156 1.032.28 1.558.375.52.135 1.04.398 1.3.87.475.934-.409 2.085-.073 3.075.296.878 1.163 1.215 1.652 2.004.199.349.278.751.226 1.148a5.402 5.402 0 0 1-.491 1.939 17.01 17.01 0 0 1-1.081 1.825s-5.603 3.578-5.655 3.603Z" fill="#92E3A9"/><path d="M4.59 113.924c-.338.189-1.299-.538-1.559-.714a3.195 3.195 0 0 1-1.07-1.205 2.94 2.94 0 0 1-.26-1.786c.054-.321.13-.637.229-.947.091-.306.18-.613.26-.919.108-.296.155-.61.137-.924-.083-.627-.649-1.069-1.166-1.447-.569-.421-1.164-.974-1.161-1.73a2.64 2.64 0 0 1 .678-1.582c.369-.459.805-.863 1.138-1.345.261-.337.398-.752.387-1.176a1.896 1.896 0 0 0-.26-.733c-.26-.492-.631-.944-.818-1.472-.187-.528-.161-1.187.26-1.565.345-.31.857-.354 1.324-.324a3.08 3.08 0 0 1 1.232.426c1.22.67 1.917 2.088 3.213 2.604.511.155 1.032.28 1.558.375.52.135 1.04.398 1.3.87.475.934-.409 2.085-.073 3.075.296.878 1.163 1.215 1.652 2.003.199.349.278.752.226 1.149a5.407 5.407 0 0 1-.491 1.939 17.01 17.01 0 0 1-1.081 1.825s-5.603 3.578-5.655 3.603Z" fill="#fff" opacity=".65"/><path d="M7.851 112.043a.157.157 0 0 1-.107-.048.149.149 0 0 1-.041-.108c.26-5.931-2.597-12.482-4.663-14.383a.15.15 0 0 1 .108-.255c.04 0 .08.015.108.043 2.11 1.942 5.013 8.6 4.759 14.615a.143.143 0 0 1-.053.101.132.132 0 0 1-.052.028.167.167 0 0 1-.059.007Z" fill="#fff"/><path d="M6.883 104.792h-.047c-1.43-.386-2.9-.619-4.382-.694a.154.154 0 0 1-.106-.047.152.152 0 0 1-.026-.165.143.143 0 0 1 .035-.047.148.148 0 0 1 .11-.039 21.22 21.22 0 0 1 4.46.709c.036.01.067.032.087.062a.145.145 0 0 1-.03.195.155.155 0 0 1-.1.034v-.008Z" fill="#fff"/><path d="M55.306 88.003V3.884c0-2.164-1.093-2.761-2.078-3.317-.984-.557-2.572-.883-3.95-.1l-35.35 20.059c-1.379.783-2.498 2.687-2.498 4.254v84.119c0 1.567 1 2.491 1.971 3.042.972.551 2.665 1.156 4.047.373L52.805 92.26a4.668 4.668 0 0 0 1.874-1.775c.443-.753.66-1.613.627-2.482Z" fill="#37474F"/><path d="M53.057 88.803 16.69 109.426V24.954l-4.528-2.59a4.95 4.95 0 0 0-.732 2.42v84.119c0 1.566 1 2.49 1.971 3.041.972.552 2.665 1.157 4.047.373l35.357-20.053a4.726 4.726 0 0 0 2.166-2.374l-.14-.079-1.774-1.008Z" fill="#263238"/><path d="M52.749 3.16 17.283 23.271c-.51.328-.934.768-1.239 1.286a3.78 3.78 0 0 0-.517 1.697v83.45c0 1.682 1.216 2.369 2.7 1.532l34.522-19.595a4.37 4.37 0 0 0 1.404-1.46 4.282 4.282 0 0 0 .586-1.924V4.298c-.008-1.253-.904-1.761-1.99-1.139Z" fill="#455A64"/><path d="M53.821 10.775v73.388c0 1.238-.888 2.751-1.974 3.363L18.41 106.493c-1.09.623-1.976.122-1.976-1.118V31.388c0-1.003.581-2.188 1.387-2.928l.187-.165c.128-.095.262-.18.402-.256L51.125 9.47l.195-.113c1.379-.78 2.501-.143 2.501 1.42Z" fill="#000"/><path d="M48.975 85.348a4.34 4.34 0 0 0 1.396-1.452 4.25 4.25 0 0 0 .578-1.914V9.566l-9.091 5.155c-.31.215-23.451 13.304-23.451 13.304-.14.075-.275.16-.403.255l-.187.166c-.805.74-1.387 1.924-1.387 2.927v72.433l32.545-18.458Z" fill="#FAFAFA"/><path d="m31.36 17.49 5.023-2.848c.301-.17.543-.048.543.27a1.127 1.127 0 0 1-.543.884l-5.024 2.848c-.298.17-.543.05-.543-.268.014-.18.07-.353.164-.507.095-.154.224-.283.38-.379ZM38.962 12.937c.338-.191.61-.035.61.347a1.313 1.313 0 0 1-.178.593 1.34 1.34 0 0 1-.432.449c-.338.191-.61.035-.61-.348.011-.208.072-.41.178-.592a1.34 1.34 0 0 1 .432-.449Z" fill="#263238"/><path d="M14.709 34.875a2.059 2.059 0 0 0-.265-.93 2.099 2.099 0 0 0-.663-.713.624.624 0 0 0-.633-.051c-.117.069-.572.319-.694.39a.714.714 0 0 0-.286.646v6.852c.012.327.103.646.264.933.16.286.388.531.664.715a.633.633 0 0 0 .61.064c.127-.066.595-.332.714-.403a.71.71 0 0 0 .289-.643v-6.86Z" fill="#455A64"/><path d="M14.021 35.261v6.855c0 .618-.413.883-.924.595a2.1 2.1 0 0 1-.662-.714 2.055 2.055 0 0 1-.263-.93v-6.852c0-.617.415-.883.925-.594.274.182.501.426.662.711.16.285.25.604.262.93Z" fill="#37474F"/><path d="M14.712 46.864a2.054 2.054 0 0 0-.264-.929 2.097 2.097 0 0 0-.663-.712.62.62 0 0 0-.634-.05c-.117.068-.571.318-.693.39a.715.715 0 0 0-.286.643v6.854c.011.327.102.646.263.932.16.287.389.531.664.714a.625.625 0 0 0 .61.064c.128-.064.596-.33.715-.4a.712.712 0 0 0 .288-.646v-6.86Z" fill="#455A64"/><path d="M14.021 47.258v6.854c0 .618-.413.883-.924.592a2.09 2.09 0 0 1-.662-.712 2.047 2.047 0 0 1-.263-.929V46.21c0-.618.415-.883.925-.592.274.182.501.426.662.711.16.285.25.604.262.93Z" fill="#37474F"/><path d="m54.944 9.1-34.79 19.706a1.71 1.71 0 0 0-.552.575 1.675 1.675 0 0 0-.227.757v75.417c.014.266.092.525.227.756a1.7 1.7 0 0 0 .552.573l.489.276a1.767 1.767 0 0 0 1.558 0l34.793-19.74c.227-.146.416-.343.551-.575a1.68 1.68 0 0 0 .228-.757V10.702a1.673 1.673 0 0 0-.227-.758 1.709 1.709 0 0 0-.552-.574l-.489-.273a1.763 1.763 0 0 0-1.56.002Z" fill="#E0E0E0"/><path d="M57.786 86.14c0 .679-.483 1.108-1.083 1.447l-34.19 19.395c-.598.34-1.083.067-1.083-.615V31.632c0-.372.099-.737.288-1.06.19-.322.462-.59.79-.775l34.195-19.395a.733.733 0 0 1 .986.26.7.7 0 0 1 .097.355V86.14Z" fill="#FAFAFA"/><path d="M57.785 10.704v.3a.702.702 0 0 0-.363-.612.734.734 0 0 0-.722 0L22.507 29.787a2.083 2.083 0 0 0-.792.789l-2.117-1.2c.133-.239.328-.44.563-.584l34.782-19.69a1.766 1.766 0 0 1 1.56 0l.487.275c.23.143.422.338.56.57.139.23.22.49.235.757Z" fill="#F0F0F0"/><path d="m21.73 40.672 35.754-20.28v-4.949L21.73 35.721v4.95Z" fill="#92E3A9"/><path opacity=".5" d="m21.73 40.672 35.754-20.28v-4.949L21.73 35.721v4.95Z" fill="#fff"/><path d="m24.488 36.014 11.95-6.773c.321-.181.581-.051.581.29a1.213 1.213 0 0 1-.582.95l-11.949 6.77c-.322.184-.582.054-.582-.288a1.209 1.209 0 0 1 .582-.95Z" fill="#FAFAFA"/><path opacity=".75" d="M54.48 18.375c.603-.342 1.094-.064 1.094.62a2.348 2.348 0 0 1-.322 1.058c-.19.324-.456.598-.774.802-.605.342-1.094.066-1.091-.62a2.35 2.35 0 0 1 .32-1.058c.19-.324.455-.598.773-.802Z" fill="#fff"/><path d="M54.483 18.896a1.33 1.33 0 0 0-.427.44 1.303 1.303 0 0 0-.181.58c0 .256.117.399.288.422v.288l.247-.334c.024 0 .047-.018.07-.03.176-.112.323-.263.43-.441a1.3 1.3 0 0 0 .18-.583c0-.378-.26-.53-.607-.342Z" fill="#455A64"/><path opacity=".75" d="M51.206 20.238c.602-.342 1.09-.064 1.09.62a2.34 2.34 0 0 1-.321 1.058 2.39 2.39 0 0 1-.775.8c-.605.344-1.093.066-1.09-.618.02-.373.13-.735.321-1.059.19-.323.456-.598.775-.801Z" fill="#fff"/><path d="m51.872 21.788-.367-.207c.076-.139.118-.294.122-.451a.354.354 0 0 0-.178-.372.372.372 0 0 0-.416.035 1.122 1.122 0 0 0-.52.896.4.4 0 0 0 .161.354.322.322 0 0 0 .161.041.526.526 0 0 0 .26-.077 1.03 1.03 0 0 0 .338-.331l.368.209c.01.003.021.003.032 0a.072.072 0 0 0 .06-.033.066.066 0 0 0-.021-.064Zm-.52-.217a.975.975 0 0 1-.325.337.238.238 0 0 1-.379-.077.228.228 0 0 1-.013-.145.982.982 0 0 1 .46-.784.387.387 0 0 1 .187-.058.166.166 0 0 1 .093.025.274.274 0 0 1 .112.256.92.92 0 0 1-.127.433l-.008.013Z" fill="#455A64"/><path d="M21.73 102.607v3.815c0 .668.478.666 1.066.334L56.418 87.68c.59-.332 1.065-.765 1.065-1.421v-3.93L21.73 102.607Z" fill="#92E3A9"/><path opacity=".5" d="M21.73 102.607v3.815c0 .668.478.666 1.066.334L56.418 87.68c.59-.332 1.065-.765 1.065-1.421v-3.93L21.73 102.607Z" fill="#fff"/><path d="m29.934 100.203-.364.207v1.419l-.455.255v-1.057l-.428.243v1.059l-.452.258v-1.419l-.364.206 1.031-1.985 1.032.814Z" fill="#92E3A9"/><path d="M35.941 98.187a.526.526 0 0 1-.26-.069c-.26-.148-.408-.51-.408-.975 0-.793.432-1.686.962-1.988a.63.63 0 0 1 .63-.035c.26.148.409.51.409.974 0 .794-.434 1.687-.964 1.988a.746.746 0 0 1-.369.105Zm.652-2.988a.597.597 0 0 0-.288.084c-.489.278-.889 1.113-.889 1.86 0 .411.125.728.335.847a.474.474 0 0 0 .478-.035c.491-.278.889-1.113.889-1.86 0-.411-.125-.728-.333-.848a.39.39 0 0 0-.192-.048Z" fill="#fff"/><path d="M36.17 96.778a.24.24 0 0 1-.109-.028.435.435 0 0 1-.164-.387.867.867 0 0 1 .333-.715.245.245 0 0 1 .244 0 .428.428 0 0 1 .164.385.867.867 0 0 1-.333.715.264.264 0 0 1-.135.03Zm.195-1.02a.14.14 0 0 0-.06.018.743.743 0 0 0-.26.587c0 .153.047.237.089.255.041.018.039.02.093 0a.746.746 0 0 0 .26-.587c0-.153-.05-.235-.09-.255a.071.071 0 0 0-.032-.018ZM35.652 98.096a.078.078 0 0 1-.05-.029.075.075 0 0 1-.015-.055l.018-.13a1.115 1.115 0 0 1 .457-.81l.35-.199a.334.334 0 0 1 .313-.025.452.452 0 0 1 .22.355l.016.112a.07.07 0 0 1-.035.075.072.072 0 0 1-.028.009.075.075 0 0 1-.054-.014.07.07 0 0 1-.029-.047l-.018-.112a.314.314 0 0 0-.135-.256.192.192 0 0 0-.176.02l-.349.2a.998.998 0 0 0-.384.699l-.018.133c0 .01-.002.02-.007.03a.074.074 0 0 1-.045.04.078.078 0 0 1-.031.004ZM42.775 94.109a.194.194 0 0 1-.122-.041.482.482 0 0 1-.104-.51c.015-.067.037-.132.065-.195l.028-.068a.927.927 0 0 0 .08-.365v-.179c0-.574.302-1.194.687-1.414a.463.463 0 0 1 .465-.023.78.78 0 0 1 .296.702v.179c-.007.09.016.18.067.255l.032.036a.39.39 0 0 1 .075.137.753.753 0 0 1-.283.789l-1.154.653a.263.263 0 0 1-.132.044Zm.899-2.688a.413.413 0 0 0-.19.057c-.338.191-.61.765-.61 1.276v.178c-.003.146-.034.29-.094.424l-.029.069a.924.924 0 0 0-.057.168c-.041.176 0 .309.047.347 0 0 .034.026.094 0l1.15-.653a.64.64 0 0 0 .216-.62.217.217 0 0 0-.047-.087l-.028-.036a.504.504 0 0 1-.104-.342v-.178a.637.637 0 0 0-.224-.575.264.264 0 0 0-.124-.028Z" fill="#fff"/><path d="M43.337 94.113a.222.222 0 0 1-.09-.018.32.32 0 0 1-.167-.232.073.073 0 0 1 .03-.078.077.077 0 0 1 .027-.012c.02-.003.04.001.056.011.016.01.028.027.033.045a.171.171 0 0 0 .08.13.109.109 0 0 0 .101-.015.666.666 0 0 0 .26-.444.079.079 0 0 1 .086-.059c.02.004.037.014.049.03a.073.073 0 0 1 .013.055.807.807 0 0 1-.33.546.293.293 0 0 1-.148.04ZM43.23 91.665a.074.074 0 0 1-.049-.018.07.07 0 0 1-.024-.045.485.485 0 0 1 0-.064.636.636 0 0 1 .26-.51.203.203 0 0 1 .208 0 .314.314 0 0 1 .124.28v.066a.074.074 0 0 1-.027.05.076.076 0 0 1-.107-.01.074.074 0 0 1-.016-.055.362.362 0 0 0 0-.05c0-.088-.023-.141-.05-.154a.06.06 0 0 0-.057 0 .51.51 0 0 0-.181.439.07.07 0 0 1-.015.054.073.073 0 0 1-.05.028l-.016-.01ZM49.704 88.14a.076.076 0 0 1-.065-.035.076.076 0 0 1 .026-.102l1.647-.934a.077.077 0 0 1 .111.055.072.072 0 0 1-.014.054.073.073 0 0 1-.022.018l-1.647.934a.065.065 0 0 1-.036.01ZM49.7 89.073a.075.075 0 0 1-.047-.013.07.07 0 0 1-.025-.088.072.072 0 0 1 .034-.035l1.647-.934a.074.074 0 0 1 .101.026.071.071 0 0 1-.026.1l-1.647.933a.067.067 0 0 1-.036.01ZM49.704 90.007a.077.077 0 0 1-.065-.036.073.073 0 0 1 .026-.1l1.647-.934a.073.073 0 0 1 .082.004.07.07 0 0 1 .019.022.072.072 0 0 1-.004.083.075.075 0 0 1-.022.019l-1.647.934a.094.094 0 0 1-.036.008Z" fill="#fff"/><path d="M57.063 10.589c.111 0 .218.045.297.122a.412.412 0 0 1 .123.294v75.133c0 .46-.288.827-.932 1.192l-34.193 19.395a.71.71 0 0 1-.332.105c-.26 0-.299-.291-.299-.465V31.63c0-.32.087-.634.25-.911a1.85 1.85 0 0 1 .677-.669L56.85 10.655a.438.438 0 0 1 .21-.056m0-.296a.724.724 0 0 0-.361.097L22.504 29.795c-.328.186-.6.453-.79.775-.19.323-.289.688-.288 1.06v74.735c0 .483.244.766.6.766a.982.982 0 0 0 .483-.146l34.19-19.395c.6-.34 1.083-.765 1.083-1.447V11.005a.703.703 0 0 0-.214-.494.729.729 0 0 0-.505-.205l-.003-.003Z" fill="#E0E0E0"/><path d="M27.455 30.683a.07.07 0 0 1 0-.04v-.213l-.338.192c-.018 0-.026 0-.026-.031v-.074a.21.21 0 0 1 0-.043.232.232 0 0 1 0-.041l.356-.957c0-.015 0-.028.015-.036a.061.061 0 0 1 .024-.02l.047-.028h.03a.066.066 0 0 1 0 .046v.737l.074-.043h.03a.078.078 0 0 1 0 .046v.038a.146.146 0 0 1 0 .053.06.06 0 0 1-.03.031l-.073.043v.21a.104.104 0 0 1 0 .053.065.065 0 0 1-.031.034l-.055.03c-.008.02-.018.02-.023.013Zm0-.444v-.534l-.244.664.244-.13ZM27.853 30.33a.672.672 0 0 1-.099-.432 1.32 1.32 0 0 1 .099-.541.671.671 0 0 1 .278-.33.386.386 0 0 1 .135-.05c.034-.007.07-.001.101.015a.02.02 0 0 1 0 .02.047.047 0 0 1 0 .023l-.028.11a.108.108 0 0 1-.013.026h-.016a.192.192 0 0 0-.171.028.46.46 0 0 0-.19.224 1.052 1.052 0 0 0-.068.4.554.554 0 0 0 .068.328c.044.053.104.058.182 0a.449.449 0 0 0 .148-.13v-.343l-.14.08h-.029a.09.09 0 0 1 0-.046v-.049a.146.146 0 0 1 0-.053.064.064 0 0 1 .029-.031l.223-.128h.034a.098.098 0 0 1 0 .056v.488a.197.197 0 0 1 0 .043.277.277 0 0 1-.013.033.727.727 0 0 1-.26.256c-.112.081-.205.079-.27.002ZM30.67 28.65a.503.503 0 0 1-.194.406c-.106.059-.195-.023-.195-.186a.502.502 0 0 1 .195-.403c.117-.062.195.02.195.183Z" fill="#455A64"/><path d="M30.487 27.98c-.228.162-.388.4-.452.668a.12.12 0 0 0 .02.133c.037.023.091-.023.115-.1a.814.814 0 0 1 .317-.472.21.21 0 0 1 .32.113c.02.048.075.036.113-.03a.206.206 0 0 0 .021-.16.29.29 0 0 0-.187-.19.301.301 0 0 0-.267.038Z" fill="#455A64"/><path d="M30.485 27.506c-.338.237-.582.58-.694.972-.023.064-.016.128.015.148.037.02.089-.023.112-.094.09-.32.29-.6.567-.794a.38.38 0 0 1 .568.15c.024.044.076.029.112-.033a.191.191 0 0 0 .016-.166.456.456 0 0 0-.304-.255.47.47 0 0 0-.392.072ZM37.946 23.828a.04.04 0 0 1 0-.035c0-.015.005-.03.013-.041l.28-.493a.26.26 0 0 1 .02-.036l.024-.023.102-.056h.023a.043.043 0 0 1 0 .034v1.258a.096.096 0 0 1 0 .043.052.052 0 0 1-.023.028l-.104.059a.024.024 0 0 1-.013.004.024.024 0 0 1-.013-.004.055.055 0 0 1 0-.034v-.959l-.182.322a.044.044 0 0 1-.026.023h-.023l-.078-.09ZM38.606 23.474a.041.041 0 0 1 0-.036c0-.014.005-.028.013-.04l.28-.493a.25.25 0 0 1 .021-.036.098.098 0 0 1 .023-.023l.102-.056a.018.018 0 0 1 .023 0 .042.042 0 0 1 0 .033v1.269a.086.086 0 0 1 0 .043.063.063 0 0 1-.023.028l-.104.059a.02.02 0 0 1-.026 0 .052.052 0 0 1 0-.03v-.965l-.182.321a.061.061 0 0 1-.026.026.024.024 0 0 1-.023 0l-.078-.1ZM39.46 22.932h.024a.043.043 0 0 1 0 .033v.189a.084.084 0 0 1 0 .043.048.048 0 0 1-.023.03l-.12.067a.024.024 0 0 1-.026 0 .053.053 0 0 1 0-.03v-.197a.132.132 0 0 1 0-.044.064.064 0 0 1 .026-.03l.12-.061Zm0 .681h.024c.005 0 0 .015 0 .03v.19a.08.08 0 0 1 0 .04.05.05 0 0 1-.023.03l-.12.07a.021.021 0 0 1-.026 0 .049.049 0 0 1 0-.03v-.192a.132.132 0 0 1 0-.044.069.069 0 0 1 .026-.028l.12-.066ZM40.147 23.516a.021.021 0 0 1-.026 0 .042.042 0 0 1 0-.031v-.235l-.397.227a.024.024 0 0 1-.026 0 .053.053 0 0 1 0-.03v-.138a.178.178 0 0 1 0-.054c0-.018.013-.035.02-.056l.395-.967a.16.16 0 0 1 .052-.08l.099-.055a.018.018 0 0 1 .023 0 .04.04 0 0 1 0 .03v.781l.112-.064h.023c.006 0 0 .016 0 .031v.138a.086.086 0 0 1 0 .043.059.059 0 0 1-.023.03l-.112.062v.237a.079.079 0 0 1 0 .041.046.046 0 0 1-.008.018.05.05 0 0 1-.015.013l-.117.059Zm-.036-.51v-.417l-.219.541.219-.125ZM40.665 21.912a.094.094 0 0 1 0-.044.089.089 0 0 1 .024-.028l.485-.275h.024c.005 0 0 .015 0 .03v.138a.089.089 0 0 1 0 .043.059.059 0 0 1-.024.031l-.36.204-.016.256a.318.318 0 0 1 .07-.064l.054-.036a.362.362 0 0 1 .136-.049.153.153 0 0 1 .106.029c.034.024.059.06.07.1.02.057.028.117.026.178a.898.898 0 0 1-.026.23.798.798 0 0 1-.073.186.598.598 0 0 1-.39.301.158.158 0 0 1-.106-.026.168.168 0 0 1-.062-.087.402.402 0 0 1-.026-.132.089.089 0 0 1 0-.044.07.07 0 0 1 .026-.028l.104-.058a.018.018 0 0 1 .023 0v.025a.104.104 0 0 0 .026.059c.01.012.024.02.04.023a.103.103 0 0 0 .046 0 .317.317 0 0 0 .177-.153.431.431 0 0 0 .044-.192.14.14 0 0 0-.044-.12.108.108 0 0 0-.12 0 .319.319 0 0 0-.096.085l-.026.035a.104.104 0 0 1-.031.026l-.117.066a.021.021 0 0 1-.026 0 .053.053 0 0 1 0-.03l.062-.68ZM23.746 32.94v-.408l.359-.202v.406l-.359.204ZM24.285 32.633v-.812l.359-.204v.814l-.359.202ZM24.824 32.33v-1.22l.359-.202v1.218l-.359.204ZM25.36 32.018v-1.623l.355-.204v1.626l-.356.201ZM55.256 13.754a.096.096 0 0 0-.097-.055.098.098 0 0 0-.038.011l-1.335.766a.511.511 0 0 0-.156.4v.738a.43.43 0 0 0 .057.235c.014.02.033.037.055.049a.083.083 0 0 0 .08 0l1.335-.766a.51.51 0 0 0 .156-.4v-.743a.43.43 0 0 0-.057-.235Zm-1.53 1.99a.189.189 0 0 1-.023-.107v-.74a.385.385 0 0 1 .12-.303l1.334-.766a.056.056 0 0 1 .045 0l.015.015a.19.19 0 0 1 .024.107v.743a.387.387 0 0 1-.12.306l-1.335.766c-.026.002-.047 0-.06-.02Z" fill="#455A64"/><path d="M54.074 14.58v.874l-.21.12a.025.025 0 0 1-.014.003.025.025 0 0 1-.022-.013.026.026 0 0 1-.003-.013V14.9a.292.292 0 0 1 .085-.225l.164-.094ZM54.172 14.53l.252-.142v.873l-.252.142v-.872ZM54.52 14.33l.252-.143v.875l-.252.143v-.875ZM55.12 14.05v.631a.325.325 0 0 1-.167.28l-.086.05v-.876l.2-.112a.035.035 0 0 1 .035-.001.034.034 0 0 1 .017.029ZM55.36 13.97c.037-.024.068.084.068.234v.138a.548.548 0 0 1-.067.319l-.068.046v-.7l.068-.038ZM51.598 16.198l1.301-1.133-.403 1.664-.19-.694-.708.163Z" fill="#455A64"/><path d="M66.606 73.599V22.198c.005-.186.055-.367.145-.53.09-.162.219-.302.374-.407.29-.166.52 0 .52.34v51.39a1.171 1.171 0 0 1-.52.937c-.286.166-.52.013-.52-.33Z" fill="#92E3A9"/><path d="M66.848 30.214v-2.268a.628.628 0 0 1 .285-.51c.156-.09.284 0 .284.183v2.268a.634.634 0 0 1-.284.51c-.158.093-.285.011-.285-.183Z" fill="#fff"/><path d="M62.972 33.954c0 .696-.499 1.143-1.114 1.49l-35.24 19.99c-.613.35-1.114.066-1.114-.633V42.669c0-.383.102-.76.297-1.092.195-.332.475-.607.812-.8l35.242-20.004a.756.756 0 0 1 1.018.27c.065.11.1.237.099.365v12.546Z" fill="#000" opacity=".2"/><path d="m62.814 21.771-34.46 19.52c-.227.145-.415.34-.55.57-.136.23-.215.487-.23.752v12.25c.015.264.093.52.229.75.135.229.324.423.55.566l.484.27a1.747 1.747 0 0 0 1.558 0l34.24-19.425c.428-.242.997-.96.997-1.444V23.359a1.658 1.658 0 0 0-.229-.75 1.692 1.692 0 0 0-.55-.567l-.486-.273a1.757 1.757 0 0 0-1.553.002Z" fill="#92E3A9"/><path opacity=".25" d="m62.814 21.771-34.46 19.52c-.227.145-.415.34-.55.57-.136.23-.215.487-.23.752v12.25c.015.264.093.52.229.75.135.229.324.423.55.566l.484.27a1.747 1.747 0 0 0 1.558 0l34.24-19.425c.428-.242.997-.96.997-1.444V23.359a1.658 1.658 0 0 0-.229-.75 1.692 1.692 0 0 0-.55-.567l-.486-.273a1.757 1.757 0 0 0-1.553.002Z" fill="#000"/><path d="M65.63 35.646c0 .671-.477 1.098-1.072 1.432L30.69 56.292c-.59.334-1.073.063-1.073-.61V44.09c0-.368.1-.73.287-1.048.187-.319.456-.583.78-.767l33.874-19.221a.725.725 0 0 1 .977.256.693.693 0 0 1 .096.351v11.984Z" fill="#FAFAFA"/><path d="M64.914 23.221c.118 0 .232.047.316.129.083.082.13.194.13.31v11.995c0 .467-.288.837-.937 1.204l-33.868 19.2a.706.706 0 0 1-.343.108c-.293 0-.325-.34-.325-.487V44.089c.001-.322.088-.637.252-.916a1.86 1.86 0 0 1 .68-.672l33.88-19.22a.463.463 0 0 1 .222-.06m0-.255a.705.705 0 0 0-.355.097L30.693 42.285a2.115 2.115 0 0 0-.782.766c-.187.319-.286.68-.286 1.048v11.59c0 .478.244.754.595.754a.98.98 0 0 0 .478-.143l33.868-19.214c.594-.334 1.072-.765 1.072-1.431V23.66a.698.698 0 0 0-.21-.498.724.724 0 0 0-.507-.206v.01Z" fill="#E6E6E6"/><path d="M65.631 23.359v.3a.695.695 0 0 0-.36-.607.727.727 0 0 0-.715 0l-33.87 19.222a2.06 2.06 0 0 0-.78.765.089.089 0 0 0 0 .023l-2.093-1.186c.13-.24.323-.44.558-.582L62.828 21.77a1.755 1.755 0 0 1 1.559 0l.483.273c.223.145.408.34.54.568.133.229.209.484.221.747Z" fill="#92E3A9"/><path opacity=".45" d="M65.631 23.359v.3a.695.695 0 0 0-.36-.607.727.727 0 0 0-.715 0l-33.87 19.222a2.06 2.06 0 0 0-.78.765.089.089 0 0 0 0 .023l-2.093-1.186c.13-.24.323-.44.558-.582L62.828 21.77a1.755 1.755 0 0 1 1.559 0l.483.273c.223.145.408.34.54.568.133.229.209.484.221.747Z" fill="#fff"/><path d="M33.56 42.529c-.808.459-1.462 1.822-1.462 3.044 0 .661.192 1.14.493 1.376l.026-.21a1.684 1.684 0 0 1 .668-1.191l.553-.312c.322-.184.597 0 .668.434l.028.171a4.301 4.301 0 0 0 .489-1.927c0-1.222-.655-1.84-1.463-1.385Zm0 2.296c-.26.146-.468-.076-.468-.497s.208-.883.468-1.021c.26-.138.468.076.468.497 0 .422-.208.883-.468 1.032v-.01Z" fill="#92E3A9"/><path d="M33.047 47.216a.84.84 0 0 1-.416-.108c-.408-.232-.639-.788-.639-1.53 0-1.254.68-2.66 1.517-3.135a.972.972 0 0 1 .982-.056c.408.23.64.789.64 1.531 0 1.253-.679 2.66-1.515 3.134a1.16 1.16 0 0 1-.57.164Zm1.039-4.73a.931.931 0 0 0-.46.139c-.78.441-1.41 1.766-1.41 2.952 0 .656.197 1.161.532 1.35a.765.765 0 0 0 .78-.056c.779-.441 1.41-1.766 1.41-2.953 0-.655-.2-1.16-.535-1.35a.622.622 0 0 0-.328-.081h.01Z" fill="#92E3A9"/><path d="m36.934 41.532 7.95-4.509c.313-.179.565-.046.565.294a1.192 1.192 0 0 1-.564.934l-7.951 4.509c-.312.176-.567.046-.567-.293.013-.189.071-.372.17-.534.098-.162.234-.3.397-.4Z" fill="#455A64"/><path d="M36.504 44.46a.136.136 0 0 1-.102-.014.132.132 0 0 1-.048-.18.134.134 0 0 1 .082-.06l5.975-3.382a.136.136 0 0 1 .108-.026.137.137 0 0 1 .092.064.131.131 0 0 1-.065.19l-5.962 3.38a.126.126 0 0 1-.08.029ZM62.037 27.967a.712.712 0 0 0 .322-.559c0-.204-.145-.288-.325-.186a.712.712 0 0 0-.327.556c.003.21.148.294.33.19ZM63.11 27.366a.717.717 0 0 0 .327-.556c0-.205-.145-.289-.327-.187a.717.717 0 0 0-.325.557c0 .204.146.288.325.186ZM60.965 28.57a.712.712 0 0 0 .328-.556c0-.204-.146-.288-.328-.184a.714.714 0 0 0-.324.554c0 .204.145.296.324.186ZM44.438 40.797a1.153 1.153 0 0 0 .519-.901c0-.332-.236-.467-.52-.301a1.133 1.133 0 0 0-.52.903c.001.332.232.467.52.299ZM32.553 48.742 62.03 32.026c.311-.176.563-.051.563.278a1.17 1.17 0 0 1-.17.526c-.098.16-.233.294-.393.392L32.553 49.94c-.309.176-.56.051-.56-.278.013-.185.07-.365.168-.525.098-.16.232-.294.392-.394Z" fill="#E0E0E0"/><path d="m32.977 53.285-.338-.09c-.32-.08-.702-.254-.702-.668a1.069 1.069 0 0 1 .52-.806.329.329 0 0 1 .466.08.315.315 0 0 1 .053.162c.056-.332.243-.629.52-.827.286-.163.52-.066.52.217 0 .404-.382 1.021-.702 1.463l-.337.47Z" fill="#92E3A9"/><path d="M35.756 51.725a.527.527 0 0 1-.26-.067.662.662 0 0 1-.286-.605c.017-.299.105-.59.258-.85.152-.26.365-.48.62-.645a.598.598 0 0 1 .916.198.572.572 0 0 1 .048.346c-.001.128-.02.256-.055.38l.286.385a.076.076 0 0 1 0 .084.079.079 0 0 1-.073.043h-.444a1.758 1.758 0 0 1-.6.605.863.863 0 0 1-.41.126Zm.748-2.129a.682.682 0 0 0-.333.102 1.746 1.746 0 0 0-.563.584c-.139.236-.219.5-.234.771a.417.417 0 0 0 .204.463.437.437 0 0 0 .51-.057c.232-.143.423-.341.556-.577a.084.084 0 0 1 .073-.04h.327l-.202-.276a.074.074 0 0 1-.024-.08c.04-.121.06-.249.06-.377a.503.503 0 0 0-.203-.462.344.344 0 0 0-.171-.04v-.01ZM38.645 50.181h-.013a.081.081 0 0 1-.05-.025.078.078 0 0 1-.02-.051l-.073-1.166-.704-.187a.083.083 0 0 1-.062-.069.083.083 0 0 1 .041-.079l1.679-.952a.084.084 0 0 1 .093 0 .085.085 0 0 1 .026.09l-.842 2.386a.083.083 0 0 1-.075.054Zm-.626-1.53.572.15a.081.081 0 0 1 .042.027c.01.013.017.03.017.047l.052.819.632-1.787-1.315.743Z" fill="#E0E0E0"/><path d="M38.567 48.954a.088.088 0 0 1-.05-.015.082.082 0 0 1-.03-.086.08.08 0 0 1 .015-.03l.914-1.153a.083.083 0 0 1 .055-.031.087.087 0 0 1 .062.016.083.083 0 0 1 .032.054.082.082 0 0 1-.017.06l-.916 1.154a.078.078 0 0 1-.065.031ZM61.282 37.212h-.018a.081.081 0 0 1-.065-.08v-1.902a.076.076 0 0 1 .042-.07l1.226-.698a.082.082 0 0 1 .083 0 .083.083 0 0 1 .042.071v1.901a.078.078 0 0 1-.052.074.08.08 0 0 1-.089-.015l-.532-.51-.561 1.194a.082.082 0 0 1-.076.035Zm.084-1.934v1.485l.452-.964a.079.079 0 0 1 .06-.046.079.079 0 0 1 .072.023l.475.464v-1.567l-1.06.605Z" fill="#E0E0E0"/><path d="M62.972 73.302c0 .696-.499 1.143-1.114 1.49l-35.24 19.982c-.613.35-1.114.067-1.114-.633V62.267c0-.383.103-.76.297-1.091.195-.332.475-.608.812-.8l35.242-19.998a.752.752 0 0 1 1.018.267.72.72 0 0 1 .099.366v32.29Z" fill="#000" opacity=".2"/><path d="m62.814 41.366-34.46 19.52a1.698 1.698 0 0 0-.55.568c-.136.23-.215.487-.23.752v31.39c.014.263.092.52.228.75.136.229.325.423.552.566l.496.268a1.747 1.747 0 0 0 1.558 0l34.19-19.395c.429-.243 1.04-.985 1.04-1.473V42.966a1.655 1.655 0 0 0-.23-.75 1.69 1.69 0 0 0-.55-.567l-.486-.273a1.754 1.754 0 0 0-1.558-.01Z" fill="#92E3A9"/><path opacity=".25" d="m62.814 41.366-34.46 19.52a1.698 1.698 0 0 0-.55.568c-.136.23-.215.487-.23.752v31.39c.014.263.092.52.228.75.136.229.325.423.552.566l.496.268a1.747 1.747 0 0 0 1.558 0l34.19-19.395c.429-.243 1.04-.985 1.04-1.473V42.966a1.655 1.655 0 0 0-.23-.75 1.69 1.69 0 0 0-.55-.567l-.486-.273a1.754 1.754 0 0 0-1.558-.01Z" fill="#000"/><path d="M65.63 74.355c0 .669-.477 1.097-1.072 1.432L30.69 95.003c-.59.337-1.073.066-1.073-.607V63.683c0-.368.1-.73.287-1.049.187-.319.456-.584.78-.768l33.874-19.221a.726.726 0 0 1 .976.259.695.695 0 0 1 .097.35v31.101Z" fill="#FAFAFA"/><path d="M64.914 42.817c.118 0 .232.046.316.129.083.082.13.194.13.31v31.1c0 .465-.288.838-.937 1.203L30.555 94.772a.736.736 0 0 1-.343.107c-.293 0-.325-.342-.325-.487V63.684c.001-.321.087-.637.251-.915.164-.279.399-.51.682-.672l33.878-19.221a.437.437 0 0 1 .224-.059m0-.255a.729.729 0 0 0-.356.094L30.693 61.878c-.325.184-.594.45-.781.768-.188.319-.287.68-.287 1.049v30.702c0 .477.244.766.595.766a.986.986 0 0 0 .478-.146l33.868-19.21c.594-.335 1.072-.766 1.072-1.432V43.256a.698.698 0 0 0-.21-.498.724.724 0 0 0-.507-.206v.01Z" fill="#E6E6E6"/><path d="M65.627 42.967v.301a.695.695 0 0 0-.36-.608.727.727 0 0 0-.715 0l-33.87 19.21a2.06 2.06 0 0 0-.78.765.088.088 0 0 0 0 .023l-2.093-1.19c.13-.238.323-.437.558-.579l34.458-19.522a1.755 1.755 0 0 1 1.558 0l.483.273c.225.146.412.343.544.573.132.231.207.49.217.754Z" fill="#92E3A9"/><path opacity=".45" d="M65.627 42.967v.301a.695.695 0 0 0-.36-.608.727.727 0 0 0-.715 0l-33.87 19.21a2.06 2.06 0 0 0-.78.765.088.088 0 0 0 0 .023l-2.093-1.19c.13-.238.323-.437.558-.579l34.458-19.522a1.755 1.755 0 0 1 1.558 0l.483.273c.225.146.412.343.544.573.132.231.207.49.217.754Z" fill="#fff"/><path d="M33.56 62.129c-.808.46-1.462 1.822-1.462 3.047 0 .658.192 1.138.493 1.373l.026-.21a1.683 1.683 0 0 1 .668-1.189l.553-.314c.322-.183.597 0 .668.434l.028.171a4.293 4.293 0 0 0 .489-1.924c0-1.225-.655-1.842-1.463-1.388Zm0 2.297c-.26.145-.468-.077-.468-.498s.208-.88.468-1.02c.26-.141.468.076.468.51 0 .433-.208.872-.468 1.018v-.01Z" fill="#92E3A9"/><path d="M33.047 66.812a.84.84 0 0 1-.416-.107c-.408-.23-.639-.789-.639-1.532 0-1.253.68-2.659 1.517-3.133a.972.972 0 0 1 .982-.056c.408.232.64.788.64 1.53 0 1.254-.679 2.66-1.515 3.134a1.16 1.16 0 0 1-.57.164Zm1.039-4.726a.927.927 0 0 0-.46.135c-.78.441-1.41 1.766-1.41 2.952 0 .656.197 1.162.532 1.35a.754.754 0 0 0 .78-.056c.779-.441 1.41-1.766 1.41-2.952 0-.656-.2-1.162-.535-1.35a.619.619 0 0 0-.328-.08h.01Z" fill="#92E3A9"/><path d="m36.934 61.131 7.95-4.509c.313-.176.565-.046.565.294a1.186 1.186 0 0 1-.564.934l-7.951 4.517c-.312.176-.567.046-.567-.294.012-.19.07-.374.168-.538.098-.163.235-.302.399-.404Z" fill="#455A64"/><path d="M36.502 64.058a.14.14 0 0 1-.117-.063.13.13 0 0 1-.013-.101.133.133 0 0 1 .063-.08l5.974-3.382a.137.137 0 0 1 .2.038.132.132 0 0 1-.065.19l-5.961 3.383a.153.153 0 0 1-.08.015ZM62.038 47.563a.717.717 0 0 0 .325-.556c0-.205-.145-.286-.325-.184a.708.708 0 0 0-.327.553c0 .21.145.294.327.187ZM63.11 46.968a.712.712 0 0 0 .327-.556c0-.204-.145-.286-.327-.184a.713.713 0 0 0-.325.554c0 .204.146.288.325.186ZM60.965 48.17a.712.712 0 0 0 .328-.557c0-.204-.146-.286-.328-.184a.714.714 0 0 0-.324.554c0 .204.145.289.324.187ZM44.438 60.4c.152-.1.279-.235.369-.392.09-.157.142-.332.15-.512 0-.332-.236-.467-.52-.301a1.135 1.135 0 0 0-.52.903c.001.332.232.477.52.301ZM32.553 68.34l23.711-13.454c.31-.176.561-.05.561.281a1.172 1.172 0 0 1-.17.524c-.096.159-.23.293-.39.392L32.552 69.537c-.309.176-.56.051-.56-.278a1.17 1.17 0 0 1 .168-.525c.098-.16.232-.294.392-.394ZM32.553 70.79l13.49-7.655c.312-.176.563-.051.563.28a1.17 1.17 0 0 1-.563.917l-13.49 7.656c-.309.176-.56.05-.56-.278.013-.186.07-.366.168-.526.098-.16.232-.294.392-.393Z" fill="#E0E0E0"/><path d="m32.977 91.73-.338-.086c-.32-.082-.702-.255-.702-.669a1.07 1.07 0 0 1 .52-.806.328.328 0 0 1 .471.087c.032.05.049.109.049.168.055-.332.242-.63.52-.827.285-.163.519-.066.519.215 0 .405-.382 1.02-.702 1.464l-.337.455Z" fill="#92E3A9"/><path d="M35.756 90.186a.506.506 0 0 1-.26-.066.656.656 0 0 1-.286-.603c.017-.3.105-.591.258-.851a1.93 1.93 0 0 1 .62-.647.677.677 0 0 1 .676-.056.654.654 0 0 1 .288.603c-.001.128-.02.256-.055.38l.286.383a.08.08 0 0 1 0 .086.084.084 0 0 1-.073.043h-.444a1.758 1.758 0 0 1-.6.606.857.857 0 0 1-.41.122Zm.748-2.128a.71.71 0 0 0-.333.102c-.232.149-.425.35-.563.585-.139.236-.219.5-.234.772a.416.416 0 0 0 .204.463.438.438 0 0 0 .51-.057c.237-.144.43-.347.564-.587a.082.082 0 0 1 .073-.04h.327l-.203-.274a.08.08 0 0 1-.023-.081c.039-.122.059-.248.06-.376a.503.503 0 0 0-.203-.461.345.345 0 0 0-.18-.051v.005ZM38.645 88.65h-.013a.081.081 0 0 1-.07-.076l-.073-1.166-.704-.186a.085.085 0 0 1-.062-.07.08.08 0 0 1 .042-.078l1.678-.952a.079.079 0 0 1 .093 0 .084.084 0 0 1 .026.09l-.841 2.372a.087.087 0 0 1-.076.067Zm-.626-1.53.572.153a.078.078 0 0 1 .06.071l.051.822.632-1.787-1.315.74Z" fill="#E0E0E0"/><path d="M38.57 87.414a.073.073 0 0 1-.05-.017.08.08 0 0 1-.031-.053.079.079 0 0 1 .016-.06l.915-1.153a.084.084 0 0 1 .117-.015.081.081 0 0 1 .015.114l-.917 1.146a.077.077 0 0 1-.065.038ZM61.282 75.67h-.018a.081.081 0 0 1-.065-.08v-1.9a.076.076 0 0 1 .042-.069l1.226-.699a.082.082 0 0 1 .083 0 .076.076 0 0 1 .042.069v1.904a.08.08 0 0 1-.052.074.082.082 0 0 1-.089-.018l-.532-.51-.561 1.196a.083.083 0 0 1-.076.033Zm.084-1.936v1.485l.452-.962a.073.073 0 0 1 .06-.046.085.085 0 0 1 .072.02l.475.465V73.13l-1.06.603Z" fill="#E0E0E0"/><path d="M31.781 74.01v14.8c0 .213.15.3.338.192l14.097-8.005a.746.746 0 0 0 .338-.574V65.62c0-.212-.153-.296-.338-.191L32.12 73.428a.737.737 0 0 0-.338.582Z" fill="#92E3A9"/><path opacity=".5" d="M31.781 74.01v14.8c0 .213.15.3.338.192l14.097-8.005a.746.746 0 0 0 .338-.574V65.62c0-.212-.153-.296-.338-.191L32.12 73.428a.737.737 0 0 0-.338.582Z" fill="#fff"/><path opacity=".5" d="m32.559 74.074 13.214-7.495v13.793l-13.214 7.495V74.074Z" fill="#fff"/><path d="M32.559 87.856v-4.48l3.566-7.96 5.819 3.97-1.928-1.924 2.453-3.021 3.304 1.472v4.448l-13.214 7.495ZM41.28 70.636c.582-.331 1.054-.063 1.054.597a2.267 2.267 0 0 1-.31 1.017c-.184.31-.439.574-.744.77-.585.332-1.057.064-1.057-.597.022-.359.129-.707.312-1.017.184-.31.439-.574.745-.77Z" fill="#fff"/><path d="M48.664 64.425v14.802c0 .212.15.296.338.191l14.097-7.995a.743.743 0 0 0 .338-.574V56.047c0-.211-.15-.296-.338-.191L49.002 63.85a.736.736 0 0 0-.338.574Z" fill="#92E3A9"/><path opacity=".5" d="M48.664 64.425v14.802c0 .212.15.296.338.191l14.097-7.995a.743.743 0 0 0 .338-.574V56.047c0-.211-.15-.296-.338-.191L49.002 63.85a.736.736 0 0 0-.338.574Z" fill="#fff"/><path opacity=".5" d="m49.441 64.49 13.215-7.493v13.79L49.44 78.284V64.489Z" fill="#fff"/><path d="M49.441 78.272v-4.478l3.57-7.96 5.816 3.971-1.928-1.924 2.455-3.022 3.302 1.47v4.448L49.44 78.272ZM58.16 61.055c.582-.332 1.055-.064 1.055.597a2.268 2.268 0 0 1-.312 1.016c-.183.31-.437.574-.743.77-.582.33-1.054.061-1.054-.6.021-.357.128-.705.311-1.014.184-.31.438-.573.743-.77Z" fill="#fff"/><path d="m85.48 20.827-1.25-.71c-.46-.255-1.145-.216-1.912.22-1.062.6-1.969 2.06-2.337 3.284l-.886-.51c-.455-.299-1.078-.345-1.77.046-.085.048-.17.102-.26.155l-.129.095-.114.082c-.06.046-.117.094-.174.142l-.065.052-.195.18-.031.029a6.076 6.076 0 0 0-.785.954 4.225 4.225 0 0 0-.763 2.205c0 1.294.815 2.12 1.818 2.649l.984.559a6.952 6.952 0 0 0 1.876.765l1.623.421 1.616-2.258c1.559-2.154 3.377-5.135 3.377-7.087.008-.625-.231-1.061-.623-1.273Z" fill="#92E3A9"/><path opacity=".45" d="m85.48 20.827-1.25-.71c-.46-.255-1.145-.216-1.912.22-1.062.6-1.969 2.06-2.337 3.284l-.886-.51c-.455-.299-1.078-.345-1.77.046-.085.048-.17.102-.26.155l-.129.095-.114.082c-.06.046-.117.094-.174.142l-.065.052-.195.18-.031.029a6.076 6.076 0 0 0-.785.954 4.225 4.225 0 0 0-.763 2.205c0 1.294.815 2.12 1.818 2.649l.984.559a6.952 6.952 0 0 0 1.876.765l1.623.421 1.616-2.258c1.559-2.154 3.377-5.135 3.377-7.087.008-.625-.231-1.061-.623-1.273Z" fill="#fff"/><path d="m77.594 30.258-.971-.55c-.998-.527-1.818-1.352-1.818-2.648a4.2 4.2 0 0 1 .766-2.205l1.278.725a4.195 4.195 0 0 0-.764 2.205c.006 1.158.655 1.942 1.51 2.473Z" fill="#92E3A9"/><path d="m77.594 30.262-.971-.55c-.998-.527-1.818-1.352-1.818-2.648a4.2 4.2 0 0 1 .766-2.205l1.278.725a4.195 4.195 0 0 0-.764 2.205c.006 1.158.655 1.942 1.51 2.473Z" fill="#fff" opacity=".2"/><path d="M85.479 20.82c-.46-.256-1.133-.184-1.876.24-1.28.724-2.337 2.697-2.496 4-.16-1.12-1.216-1.895-2.496-1.17a5.315 5.315 0 0 0-1.751 1.694l-1.286-.735c.018-.03.04-.061.06-.092l.052-.074.132-.184c.13-.165.26-.326.416-.482l.112-.112c.028-.026.054-.054.08-.08.271-.258.573-.483.899-.67.293-.178.628-.276.971-.284.285-.001.562.082.798.238l.886.51c.369-1.225 1.275-2.685 2.338-3.284.766-.437 1.452-.488 1.912-.22l1.249.705Z" fill="#92E3A9"/><path opacity=".75" d="M85.479 20.82c-.46-.256-1.133-.184-1.876.24-1.28.724-2.337 2.697-2.496 4-.16-1.12-1.216-1.895-2.496-1.17a5.315 5.315 0 0 0-1.751 1.694l-1.286-.735c.018-.03.04-.061.06-.092l.052-.074.132-.184c.13-.165.26-.326.416-.482l.112-.112c.028-.026.054-.054.08-.08.271-.258.573-.483.899-.67.293-.178.628-.276.971-.284.285-.001.562.082.798.238l.886.51c.369-1.225 1.275-2.685 2.338-3.284.766-.437 1.452-.488 1.912-.22l1.249.705Z" fill="#fff"/><path d="m85.533 9.7-.642-.362c-.239-.138-.59-.113-.984.112-.543.309-1.008 1.056-1.2 1.687l-.455-.255a.842.842 0 0 0-.906.023l-.133.081-.065.049-.06.04c-.03.024-.06.049-.088.075l-.034.025-.1.094-.016.013a2.977 2.977 0 0 0-.403.49 2.166 2.166 0 0 0-.392 1.133c0 .666.418 1.09.932 1.36l.504.286c.3.177.625.309.964.39l.834.218.831-1.162c.795-1.107 1.74-2.636 1.74-3.639a.686.686 0 0 0-.327-.658Z" fill="#92E3A9"/><path opacity=".3" d="m85.533 9.7-.642-.362c-.239-.138-.59-.113-.984.112-.543.309-1.008 1.056-1.2 1.687l-.455-.255a.842.842 0 0 0-.906.023l-.133.081-.065.049-.06.04c-.03.024-.06.049-.088.075l-.034.025-.1.094-.016.013a2.977 2.977 0 0 0-.403.49 2.166 2.166 0 0 0-.392 1.133c0 .666.418 1.09.932 1.36l.504.286c.3.177.625.309.964.39l.834.218.831-1.162c.795-1.107 1.74-2.636 1.74-3.639a.686.686 0 0 0-.327-.658Z" fill="#000"/><path d="m81.483 14.54-.496-.28c-.52-.271-.932-.695-.932-1.36.02-.407.157-.8.392-1.134l.657.373a2.166 2.166 0 0 0-.392 1.133c.002.26.075.514.21.737.136.223.33.406.561.531Z" fill="#92E3A9"/><path d="m81.483 14.544-.496-.28c-.52-.27-.932-.694-.932-1.36.02-.406.157-.799.392-1.133l.657.372a2.166 2.166 0 0 0-.392 1.133c.002.26.075.514.21.737.136.223.33.406.561.531Z" fill="#000" opacity=".45"/><path d="M85.529 9.695c-.236-.125-.582-.092-.964.125-.657.37-1.2 1.386-1.28 2.042a.786.786 0 0 0-.136-.398.823.823 0 0 0-1.145-.204 2.743 2.743 0 0 0-.901.87l-.658-.373.032-.046.028-.038.068-.095c.067-.086.137-.168.213-.255l.057-.059.041-.038c.14-.134.295-.25.463-.347.15-.09.322-.139.498-.143a.735.735 0 0 1 .408.12l.455.255c.192-.63.657-1.378 1.203-1.686.392-.225.745-.256.981-.113l.637.383Z" fill="#92E3A9"/><path opacity=".15" d="M85.529 9.695c-.236-.125-.582-.092-.964.125-.657.37-1.2 1.386-1.28 2.042a.786.786 0 0 0-.136-.398.823.823 0 0 0-1.145-.204 2.743 2.743 0 0 0-.901.87l-.658-.373.032-.046.028-.038.068-.095c.067-.086.137-.168.213-.255l.057-.059.041-.038c.14-.134.295-.25.463-.347.15-.09.322-.139.498-.143a.735.735 0 0 1 .408.12l.455.255c.192-.63.657-1.378 1.203-1.686.392-.225.745-.256.981-.113l.637.383Z" fill="#000"/><path d="M72.844 9.874a1.138 1.138 0 0 0 .4-.791c0-.434-.327-.337-.327-.337.16-.2.25-.443.26-.696a.385.385 0 0 0-.17-.35l-.833-.46a.314.314 0 0 0-.346.026l-.73.416a1.874 1.874 0 0 0-.163-.556.342.342 0 0 0-.159-.174l-.828-.457c-.278-.178-.761.161-.761.296 0 .09.02.398.028.695v.19c.005.123-.005.246-.03.366a.844.844 0 0 1-.037.104c0 .018-.016.041-.024.064l-.041.1-.12.283c0 .026-.02.054-.033.08a46.64 46.64 0 0 1-.388.89l-.057.13-.114.255v3.499l.85.482 2.72-1.546a1.25 1.25 0 0 0 .412-.394c.105-.16.171-.343.193-.533a.943.943 0 0 0-.053-.4c.251-.203.415-.49.46-.807-.002-.293-.109-.375-.109-.375Z" fill="#92E3A9"/><g opacity=".4" fill="#fff"><path d="M70.777 6.951a.652.652 0 0 0-.42.032.638.638 0 0 0-.31.282l-.86-.475c0-.135.484-.474.762-.296l.828.457ZM73.01 7.703a.333.333 0 0 0-.319.044l-1.644.931a2.87 2.87 0 0 0 .054-.992l.733-.416a.315.315 0 0 1 .343-.028l.834.461Z"/></g><path d="m69.234 13.931-.86-.487-.003-3.489.86.488.003 3.488Z" fill="#000" opacity=".2"/><path d="M70.047 8.518c-.068.255-.816 1.917-.816 1.917l-.86-.475s.746-1.674.818-1.917a7.678 7.678 0 0 0 0-1.25l.86.475c.036.416.035.834-.002 1.25Z" fill="#fff" opacity=".2"/><path d="M68.856 10.737a.308.308 0 0 0-.047-.15.301.301 0 0 0-.112-.116l-.545-.311a.36.36 0 0 0-.315 0l-.873.495a.342.342 0 0 0-.111.115.352.352 0 0 0-.044.153v3.71a.335.335 0 0 0 .156.256l.545.311a.32.32 0 0 0 .158.036.31.31 0 0 0 .156-.036l.876-.497a.34.34 0 0 0 .156-.256v-3.71Z" fill="#92E3A9"/><path d="M67.657 11.23v4.007a.323.323 0 0 1-.159-.036l-.545-.316a.342.342 0 0 1-.156-.255v-3.711a.353.353 0 0 1 .044-.153l.816.464Z" fill="#fff" opacity=".2"/><path d="m68.796 10.585-1.14.648-.816-.465a.342.342 0 0 1 .111-.115l.866-.495a.359.359 0 0 1 .314 0l.545.312c.05.026.092.066.12.114Z" fill="#fff" opacity=".4"/><path d="M71.67 95.8a.442.442 0 0 1-.393-.238.43.43 0 0 1-.025-.33l3.406-10.119a4.71 4.71 0 0 1 1.847-2.169l14.133-8.016a1.332 1.332 0 0 1 1.81.304c.135.18.219.391.245.613l1.738 4.9a.425.425 0 0 1-.02.33.447.447 0 0 1-.588.2.435.435 0 0 1-.223-.247l-1.748-4.946a.36.36 0 0 1-.019-.072.44.44 0 0 0-.26-.42.462.462 0 0 0-.496.07l-14.133 8.017a3.845 3.845 0 0 0-1.455 1.707l-3.4 10.106a.434.434 0 0 1-.157.223.447.447 0 0 1-.261.088ZM92.56 107.866h-.051a.445.445 0 0 1-.294-.163.429.429 0 0 1-.09-.319l1.41-11.591a3.34 3.34 0 0 1 .513-1.327 3.409 3.409 0 0 1 1.022-1.003l14.134-8.016a1.633 1.633 0 0 1 1.349-.148c.222.073.425.192.596.35.171.158.305.35.392.564v.023l2.801 10.01a.428.428 0 0 1 .04.362.425.425 0 0 1-.255.264.443.443 0 0 1-.591-.314l-2.795-9.996a.732.732 0 0 0-.46-.428.751.751 0 0 0-.628.079L95.519 94.23c-.29.19-.536.438-.726.726a2.5 2.5 0 0 0-.375.948l-1.416 11.591a.43.43 0 0 1-.15.266.448.448 0 0 1-.291.104Z" fill="#263238"/><path d="M92.754 95.288a2.853 2.853 0 0 1-1.387-.332L75.163 85.77a1.12 1.12 0 0 1-.507-.406 1.09 1.09 0 0 1 0-1.23c.124-.181.3-.323.507-.405l16.498-9.366a3.068 3.068 0 0 1 2.774 0l16.204 9.187c.206.083.383.224.507.406a1.084 1.084 0 0 1 0 1.23 1.117 1.117 0 0 1-.507.406l-16.498 9.358a2.855 2.855 0 0 1-1.387.339Zm.296-20.456a2.042 2.042 0 0 0-.979.227l-16.497 9.358c-.177.1-.286.222-.286.321 0 .1.109.222.286.322l16.201 9.207a2.227 2.227 0 0 0 1.956 0l16.497-9.358c.177-.1.286-.224.286-.324s-.109-.222-.286-.321l-16.203-9.187c-.3-.159-.637-.24-.977-.235l.002-.01Z" fill="#455A64"/><path d="M79.73 82.02a.417.417 0 0 1-.256-.091.405.405 0 0 1-.143-.228l-1.663-7.485a.398.398 0 0 1 .07-.288.411.411 0 0 1 .546-.116c.09.052.155.135.184.233l1.665 7.464a.4.4 0 0 1-.056.304.413.413 0 0 1-.258.176.527.527 0 0 1-.088.03ZM87.5 77.591a.415.415 0 0 1-.257-.089.403.403 0 0 1-.143-.227l-1.665-7.485a.397.397 0 0 1 .066-.29.417.417 0 0 1 .55-.12c.09.053.155.138.184.236l1.665 7.485a.395.395 0 0 1-.165.417.412.412 0 0 1-.235.073Z" fill="#37474F"/><path d="M92.558 67.668a.403.403 0 0 0-.244-.337l-2.156-1.218a1.338 1.338 0 0 0-1.184 0l-15.44 8.772a.412.412 0 0 0-.245.336v.628a.404.404 0 0 0 .244.337l2.146 1.217a1.339 1.339 0 0 0 1.184 0l15.462-8.77a.412.412 0 0 0 .244-.335l-.01-.63Z" fill="#37474F"/><path d="m92.315 67.33-2.156-1.216a1.339 1.339 0 0 0-1.184 0l-12.713 7.221v4.209c.206.004.41-.044.592-.138l15.461-8.771a.412.412 0 0 0 .244-.335v-.63a.404.404 0 0 0-.244-.34Z" fill="#263238"/><path d="m88.984 66.115-15.45 8.77a.361.361 0 0 0-.178.13.35.35 0 0 0 .177.542l2.146 1.217a1.317 1.317 0 0 0 1.184 0l15.45-8.77a.409.409 0 0 0 .245-.335.405.405 0 0 0-.244-.337l-2.156-1.217a1.338 1.338 0 0 0-1.174 0Z" fill="#455A64"/><path d="m109.59 81.315-16.856-9.572a.43.43 0 0 0-.418.04l-16.054 9.109c-.173.11-.317.258-.42.434a1.258 1.258 0 0 0-.172.574v2.432a.405.405 0 0 0 .174.375L92.7 94.269a.421.421 0 0 0 .418-.038l16.054-9.11c.172-.11.316-.259.419-.433.103-.175.162-.371.173-.573v-2.432a.407.407 0 0 0-.174-.368Z" fill="#92E3A9"/><path opacity=".15" d="m92.697 94.268-16.853-9.57a.413.413 0 0 1-.174-.375v-2.432a1.19 1.19 0 0 1 .2-.612l16.853 9.57a1.21 1.21 0 0 0-.197.612v2.432a.4.4 0 0 0 .171.375Z" fill="#000"/><path opacity=".25" d="M92.525 93.903v-2.44c.011-.201.07-.398.173-.572.103-.175.247-.324.42-.433l16.053-9.108a.414.414 0 0 1 .418-.04c.06.041.108.098.139.164.03.066.042.138.035.21v2.432a1.281 1.281 0 0 1-.592 1.005l-16.053 9.111a.421.421 0 0 1-.419.038.4.4 0 0 1-.174-.367Z" fill="#000"/><path d="m110.65 68.084-14.638-8.312a.389.389 0 0 0-.368.054l-2.149 1.217c-.357.231-.61.588-.706.998l-1.987 11.264c-.034.192 0 .324.104.378l14.637 8.31a.384.384 0 0 0 .372-.052l2.145-1.217c.357-.231.61-.589.707-.998l1.987-11.264c.034-.194-.01-.324-.104-.378Z" fill="#92E3A9"/><path opacity=".15" d="M105.436 81.618c-.031.194 0 .324.104.38l-14.635-8.311c-.097-.054-.138-.187-.104-.376l1.987-11.266a1.45 1.45 0 0 1 .26-.58l14.64 8.307a1.51 1.51 0 0 0-.26.577l-1.992 11.27Z" fill="#000"/><path opacity=".25" d="m105.914 81.943 2.145-1.217c.357-.231.61-.589.707-.998l1.987-11.264c.034-.194 0-.324-.104-.378a.38.38 0 0 0-.371.051l-2.146 1.217c-.358.23-.612.588-.709.998l-1.985 11.264c-.033.194 0 .325.104.378a.384.384 0 0 0 .372-.05Z" fill="#000"/><path d="M81.879 92.831s1.374 3.318 1.442 4.614c.072 1.36.407 1.81.171 3.29-.052.321-.223.967-.26 1.23a.38.38 0 0 0 .063.323.395.395 0 0 0 .293.159c.6.122 1.6-.985 2.078-2.192a35.188 35.188 0 0 0 1.19-4.252 1.815 1.815 0 0 0-.19-.952 2.66 2.66 0 0 0-.275-.492c-.197-.592-.294-1.718-.46-2.498l-4.052.77Z" fill="#FFA8A7"/><path d="M88.021 97.244c.08.138.134.288.161.444.016.273-.61 1.167-.855 1.49-.344.441-.506.994-.451 1.547a3.706 3.706 0 0 1-.925 2.419 6.072 6.072 0 0 1-3.021 1.94c-1.458.441-1.972-.278-1.972-.278s-.452-.692-.18-.975c.274-.283 7.243-6.587 7.243-6.587Z" fill="#37474F"/><path d="M86.383 94.555c.044 0 .124-.016.236.12.044.05.31.696.52 1.033.21.337.8.983.873 1.531-.338 1.062-1.351 1.8-1.505 2.807-.153 1.008-.17 2.167-1.74 3.392-1.569 1.225-3.182 1.352-3.761 1.021-.58-.332-.52-.937.283-2.098.857-1.233 1.436-3.905 1.436-3.905.078-.374.13-.752.159-1.133a7.493 7.493 0 0 0-.107-1.125.814.814 0 0 1 .073-.51c.11-.139.26-.24.431-.291.257-.12.528-.21.805-.268.281-.06.574-.025.832.1.167.116.34.224.52.323a.755.755 0 0 0 .779-.135.62.62 0 0 0 .207-.694 1.604 1.604 0 0 0-.041-.168Z" fill="#92E3A9"/><path opacity=".4" d="M86.383 94.555c.044 0 .124-.016.236.12.044.05.31.696.52 1.033.21.337.8.983.873 1.531-.338 1.062-1.351 1.8-1.505 2.807-.153 1.008-.17 2.167-1.74 3.392-1.569 1.225-3.182 1.352-3.761 1.021-.58-.332-.52-.937.283-2.098.857-1.233 1.436-3.905 1.436-3.905.078-.374.13-.752.159-1.133a7.493 7.493 0 0 0-.107-1.125.814.814 0 0 1 .073-.51c.11-.139.26-.24.431-.291.257-.12.528-.21.805-.268.281-.06.574-.025.832.1.167.116.34.224.52.323a.755.755 0 0 0 .779-.135.62.62 0 0 0 .207-.694 1.604 1.604 0 0 0-.041-.168Z" fill="#000"/><path d="M85.691 102.447a2.48 2.48 0 0 0-.965-.916 2.538 2.538 0 0 0-1.308-.294c-1.665 0-2.242.84-2.494 1.327-.303.585-.618 1.641.07 1.945.74.327 1.6.227 2.954-.439s1.743-1.623 1.743-1.623ZM85.393 97.52a.174.174 0 0 1-.15 0c-.26-.131-1.62-.412-2.411.31-.104-.081-.084-.23.049-.436.927-.58 2.216-.319 2.527-.163a.154.154 0 0 1 .084.157.152.152 0 0 1-.021.06.162.162 0 0 1-.078.071ZM82.658 98.793a.501.501 0 0 1 .096-.45 3.165 3.165 0 0 1 2.408-.094.155.155 0 0 1 .081.094.15.15 0 0 1-.016.123.173.173 0 0 1-.078.071.175.175 0 0 1-.15 0c-.25-.125-1.541-.39-2.341.256ZM81.98 101.003a.907.907 0 0 1 .213-.592c.925-.546 2.183-.294 2.489-.141a.156.156 0 0 1 .065.217.174.174 0 0 1-.101.081.182.182 0 0 1-.13-.009c-.27-.136-1.772-.442-2.535.444ZM84.908 99.55a.174.174 0 0 1-.15 0c-.26-.127-1.588-.4-2.385.288a.564.564 0 0 1 .137-.482 3.165 3.165 0 0 1 2.41-.094.158.158 0 0 1 .082.094.15.15 0 0 1-.016.123.172.172 0 0 1-.078.071Z" fill="#FAFAFA"/><path d="M80.47 97.047s-.876 3.999-1.707 5.528c-.832 1.529-1.258 2.266-2.357 3.399-.239.255-.779.702-.974.903a.41.41 0 0 0-.143.315.398.398 0 0 0 .156.308c.442.457 2.403.651 3.54-.107 1.139-.758 2.227-2.442 2.915-3.062.26-.235.504-.475.738-.73.234-.255.177-.493.21-.779.016-.14.014-.51.014-.51.184-.671.644-1.717.89-2.368l-3.283-2.897Z" fill="#FFA8A7"/><path d="M83.103 105.371c.004.166-.02.331-.073.49-.122.255-1.145.78-1.535.964-.538.24-.963.673-1.187 1.21-.403.822-1.18 1.406-2.065 1.786a6.469 6.469 0 0 1-3.761.337c-1.559-.296-1.684-1.207-1.684-1.207s-.072-.857.32-.988c.392-.13 9.985-2.592 9.985-2.592Z" fill="#37474F"/><path d="M82.93 102.103c.042.018.12.046.159.225 0 .069-.063.793-.026 1.212.036.418.246 1.291.041 1.835-.841.816-2.148 1.021-2.79 1.865-.641.845-1.239 1.919-3.301 2.297-2.063.378-3.616-.283-3.99-.863-.374-.579-.018-1.117 1.299-1.801 1.418-.728 3.286-2.909 3.288-2.909a9.77 9.77 0 0 0 .707-.978c.183-.352.337-.717.462-1.092a.876.876 0 0 1 .322-.436.937.937 0 0 1 .546-.062c.297.015.591.062.878.141.288.08.54.254.717.492.12.176.182.388.317.549a.793.793 0 0 0 .779.255.663.663 0 0 0 .359-.185.649.649 0 0 0 .181-.356c.021-.062.039-.125.052-.189Z" fill="#92E3A9"/><path opacity=".4" d="M82.93 102.103c.042.018.12.046.159.225 0 .069-.063.793-.026 1.212.036.418.246 1.291.041 1.835-.841.816-2.148 1.021-2.79 1.865-.641.845-1.239 1.919-3.301 2.297-2.063.378-3.616-.283-3.99-.863-.374-.579-.018-1.117 1.299-1.801 1.418-.728 3.286-2.909 3.288-2.909a9.77 9.77 0 0 0 .707-.978c.183-.352.337-.717.462-1.092a.876.876 0 0 1 .322-.436.937.937 0 0 1 .546-.062c.297.015.591.062.878.141.288.08.54.254.717.492.12.176.182.388.317.549a.793.793 0 0 0 .779.255.663.663 0 0 0 .359-.185.649.649 0 0 0 .181-.356c.021-.062.039-.125.052-.189Z" fill="#000"/><path d="M78.35 109.062a2.537 2.537 0 0 0-.433-1.312 2.595 2.595 0 0 0-1.063-.901c-1.543-.796-2.49-.306-2.969.026-.571.393-1.39 1.217-.906 1.829.52.661 1.369.98 2.95 1.021 1.582.041 2.421-.663 2.421-.663ZM80.544 104.364a.18.18 0 0 1-.14-.074c-.172-.242-1.3-1.158-2.385-.873-.054-.122.04-.255.26-.38 1.145-.087 2.208.766 2.418 1.067a.16.16 0 0 1 .026.126.162.162 0 0 1-.075.106.181.181 0 0 1-.104.028ZM77.371 104.218a.52.52 0 0 1 .314-.368 3.284 3.284 0 0 1 2.273 1.075.163.163 0 0 1 .026.126.16.16 0 0 1-.075.106.199.199 0 0 1-.107.028.18.18 0 0 1-.14-.074c-.158-.235-1.229-1.1-2.29-.893ZM75.64 105.929a.978.978 0 0 1 .489-.441c1.127-.059 2.164.781 2.369 1.069a.159.159 0 0 1-.05.232.156.156 0 0 1-.106.028.17.17 0 0 1-.14-.074c-.177-.257-1.413-1.255-2.561-.814ZM79.076 106.008a.17.17 0 0 1-.14-.074c-.172-.24-1.268-1.135-2.338-.88a.596.596 0 0 1 .368-.38 3.3 3.3 0 0 1 1.25.313c.392.185.741.446 1.029.766a.16.16 0 0 1 0 .187.159.159 0 0 1-.05.045.178.178 0 0 1-.12.023Z" fill="#FAFAFA"/><path d="M89.91 73.894c-1.751 1.117-6.84 4.45-9.352 6.481-.725.588-1.584 1.17-1.405 3.3.205 2.44 2.036 10.739 2.036 10.739l15.604-16.468-6.883-4.052Z" fill="#37474F"/><path d="M81.75 91.86c2.25-1.644 9.801-12.01 9.801-12.01l-.288-.077c-1.507-.862-1.818-2.807-1.818-2.807-.289.84.114 2.06.571 2.774-.571.434-3.377 2.511-5.61 4.06a3.006 3.006 0 0 0-1.38 1.817c-.574 2.248-1.299 5.778-1.275 6.242Z" fill="#263238"/><path d="m90.628 74.516 12.256 2.901c-.704 3.275-1.369 4.084-1.92 4.757-.821 1.003-1.966 2.042-5.128 3.456-3.213 1.429-6.068 2.779-6.816 3.085-.564.232-.94 1.363-1.257 2.754-.333 1.46-.41 2.4-2.042 5.422-1.595 2.956-2.117 3.637-2.117 3.637s-2.257.125-3.686-1.233c0 0 2.535-10.279 3.057-12.124.294-1.034.325-1.582 1.7-2.667 1.176-.929 6.592-4.734 6.592-4.734s-2.07-2.457-.639-5.254Z" fill="#37474F"/><path d="M95.718 58.889c-1.236-.095-2.247 0-3.257.92-1.343 1.244-4.063 6.097-5.715 8.79l3.219 3.47 3.14-4.945 2.613-8.235Z" fill="#F28F8F"/><path d="M95.638 58.848c-.95-.081-2.138-.224-3.117.723-.852.829-3.037 4.261-3.037 4.261.394.83.97 1.564 1.686 2.149a5.977 5.977 0 0 0 2.203.94l2.52-8.05-.255-.023Z" fill="#455A64"/><path d="M99.005 59.413c1.8.531 3.099.917 5.138 2.448.47.54 1.008 1.786.828 4.004-.259 3.345-.361 4.216-1.098 8.097-.52 2.736-1.369 5.556-1.369 5.556-4.49 1.003-11.95-2.445-13.067-5.385.873-1.062 1.372-2.013 2.455-9.118.54-3.547 2.17-5.525 3.743-6.155 1.14.066 2.27.251 3.37.553Z" fill="#FAFAFA"/><path d="M84.516 64.368a.119.119 0 0 1 .107 0l3.836 1.05c.123.038.227.119.294.226l3.68 6.607c.03.051.03.092 0 .113l-.386.372c-.018.018-.055.023-.107 0l-3.836-1.049a.55.55 0 0 1-.294-.227l-3.678-6.607c-.029-.05-.031-.092 0-.112l.384-.373Z" fill="#455A64"/><path d="M88.234 65.862a.49.49 0 0 1 .133.142l3.678 6.605c.029.048.029.087 0 .11l.385-.37c.02-.02.02-.062 0-.113l-3.681-6.607a.515.515 0 0 0-.13-.143l-.385.376Z" fill="#37474F"/><path d="m91.947 72.738-3.836-1.05a.55.55 0 0 1-.294-.226l-3.678-6.607c-.055-.097 0-.15.096-.12l3.84 1.046a.565.565 0 0 1 .293.23l3.678 6.604c.055.097.01.15-.099.123Z" fill="#263238"/><path d="m88.531 67.153-.374-.67a.637.637 0 0 0-.337-.256l-.151-.04c-.195-.055-.275.045-.18.221l.377.671a.63.63 0 0 0 .335.256l.151.04c.198.054.278-.046.18-.222Z" fill="#37474F"/><path d="M88.374 67.08a.604.604 0 0 0-.32-.237c-.119-.033-.173.02-.119.118.075.114.188.2.32.24.12.033.174-.02.12-.12Z" fill="#455A64"/><path opacity=".2" d="M88.265 67.05a.29.29 0 0 0-.161-.123c-.063-.018-.089 0-.063.061.04.057.097.1.164.12.062.018.088-.01.06-.059Z" fill="#fff"/><path d="M88.092 66.584a.586.586 0 0 0-.317-.237c-.122-.033-.177.02-.12.117a.573.573 0 0 0 .317.238c.123.033.175-.018.12-.118Z" fill="#455A64"/><path opacity=".2" d="M87.985 66.553a.306.306 0 0 0-.164-.123c-.062-.018-.088 0-.06.062a.306.306 0 0 0 .162.12c.062.017.09-.01.062-.06Z" fill="#fff"/><path d="m88.853 66.456.05-.048a.062.062 0 0 1 .059-.018l.075.02a.07.07 0 0 1 .036.03l.336.6a.111.111 0 0 1-.021.128l-.05.049a.063.063 0 0 1-.06.018l-.072-.02a.075.075 0 0 1-.039-.032l-.335-.6a.11.11 0 0 1 .02-.127Z" fill="#263238"/><path d="m89.236 67.189-.333-.6a.111.111 0 0 1 .018-.128l.052-.048a.058.058 0 0 1 .078-.01.056.056 0 0 1 .018.022l.335.6a.111.111 0 0 1-.02.128l-.05.048a.06.06 0 0 1-.098-.012Z" fill="#455A64"/><path d="m89.397 67.421.052-.048a.057.057 0 0 1 .058-.018l.075.02a.056.056 0 0 1 .036.033l.335.6a.11.11 0 0 1-.018.125l-.052.049a.06.06 0 0 1-.06.018l-.072-.02a.056.056 0 0 1-.039-.03l-.338-.601a.11.11 0 0 1 .023-.128Z" fill="#263238"/><path d="m89.782 68.172-.332-.6a.11.11 0 0 1 .018-.127l.052-.049a.058.058 0 0 1 .079-.007.056.056 0 0 1 .017.023l.335.6a.11.11 0 0 1-.018.124l-.052.049a.06.06 0 0 1-.053.02.06.06 0 0 1-.046-.032Z" fill="#455A64"/><path d="M85.32 66.962c-.393.582-.473.968-.154 2.001.32 1.034 1.206 2.026 2.832 1.886.685-.059.49-3.024-.333-2.83-1.192.28-1.785-.051-1.785-.051l-.56-1.006Z" fill="#F28F8F"/><path d="m98.548 71.955 2.715-5.547s1.127-3.586 2.857-4.37c1.462.891 1.655 1.943 1.772 3.032.153 1.412-.294 2.989-1.676 5.673-1.317 2.552-2.213 4.198-2.914 5.076-.868 1.087-2.003.873-3.897.225-1.894-.648-2.829-1.386-5.385-2.506-1.231-.536-2.026-.794-2.99-1.422a4.19 4.19 0 0 1-.99-.837 2.418 2.418 0 0 1-.55-1.033.716.716 0 0 0-.057-.21 1.622 1.622 0 0 0-.12-.176 1.332 1.332 0 0 1-.22-.342 2.101 2.101 0 0 1-.076-.423 1.587 1.587 0 0 0-.028-.194 1.245 1.245 0 0 0-.08-.192 1.517 1.517 0 0 1-.198-.497.27.27 0 0 1 .104-.255s-.135-.19-.18-.256a1.378 1.378 0 0 1-.148-.296.141.141 0 0 1 0-.125.124.124 0 0 1 .06-.048c.369-.19.725.035 1.016.255.758.57 1.111 1.082 1.935 1.57 1.13.67 1.252.135 1.252.135l-.717-1.276-.171-.31c-.102-.527.26-.813.61-.254.275.446 1.213 1.115 1.502 1.7.288.584.355 1.18 1.171 1.74.862.59 5.403 1.163 5.403 1.163Z" fill="#FFA8A7"/><path d="M98.547 71.96c.63.12 1.25.291 1.852.51a3.093 3.093 0 0 0-1.629-.978l-.223.467ZM86.824 68.014c.133.196.28.378.431.561.151.184.304.358.452.539.078.087.149.181.232.27.083.09.163.171.26.255a6.6 6.6 0 0 0 .54.46l-.247-.255a5.875 5.875 0 0 1-.247-.255c-.08-.09-.16-.169-.236-.256-.076-.087-.148-.178-.224-.27a13.134 13.134 0 0 0-.472-.526l-.489-.523ZM86.98 68.877c.071.169.158.331.26.485.102.15.21.296.322.436.112.14.229.28.354.413.12.136.25.263.39.38-.115-.14-.224-.283-.338-.423l-.336-.424-.335-.423a7.669 7.669 0 0 1-.316-.444Z" fill="#F28F8F"/><path d="M104.143 61.857c.798.549 1.902 1.577 1.902 3.815s-2.382 6.276-2.382 6.276-2.923-.618-4.214-2.195c0 0 1.128-2.552 1.842-4.229.714-1.676 1.816-3.379 2.852-3.667Z" fill="#455A64"/><path d="M94.755 52.606c-.971-4.493 3.195-4.338 4.188-4.338.992 0 3.688.577 3.823 2.425 1.299.331 1.27 2.437.813 3.281-.847 1.56-1.608 2.573-2.078 3.71-.065-.053-4.244-2.96-5.195-3.755l-1.065-.896c-.15-.153-.325-.286-.486-.427Z" fill="#263238"/><path d="M102.904 56.596c-.837.51-1.299-.089-1.299-.089l-.338 3.935c-1.818 1.937-6.133 1.225-4.063-.707l.045-.946a6.64 6.64 0 0 1-1.198-.156 2.021 2.021 0 0 1-.675-.317 2.106 2.106 0 0 1-.845-1.344 10.106 10.106 0 0 1-.116-2.854c.096-1.143.345-2.61.8-3.343.748-.543 2.657-.426 4.356.215-.006.463.13.916.392 1.301.159.236.372.431.621.572-.026.834-.013 1.062.112 1.442.07.22.213.551.657.434.21-.056.4-.485.636-.766.317-.37 1.221-.48 1.574.413.154.389.173.816.054 1.216-.12.4-.37.75-.713.995Z" fill="#FFA8A7"/><path d="M97.252 58.79c.886 0 2.484-.203 2.985-.693.502-.49.961-1.68.961-1.68s-.296 1.356-.693 1.922c-.398.567-1.18.74-1.748.86a9.846 9.846 0 0 1-1.53.117l.025-.525Z" fill="#F28F8F"/><path d="m98.363 53.004.81.431a.464.464 0 0 0-.543-.66.453.453 0 0 0-.267.229ZM95.928 52.744l-.837.35a.467.467 0 0 1 .005-.355.479.479 0 0 1 .255-.253.457.457 0 0 1 .342.012.445.445 0 0 1 .235.246Z" fill="#263238"/><path d="m98.372 55.984-1.579.444c.067.207.212.38.405.485.194.105.42.133.634.08a.81.81 0 0 0 .49-.392.78.78 0 0 0 .05-.617Z" fill="#B16668"/><path d="M98.3 56.307a.81.81 0 0 0-.582.175.782.782 0 0 0-.288.526.85.85 0 0 0 .407 0 .795.795 0 0 0 .391-.253.773.773 0 0 0 .178-.425.789.789 0 0 0-.106-.023ZM97.377 53.002l-.517 2.68-1.372-.71 1.889-1.97Z" fill="#F28F8F"/><path d="M98.791 54.025a.366.366 0 0 1-.256.324.383.383 0 0 1-.403-.107.368.368 0 0 1-.054-.408.382.382 0 0 1 .621-.079.368.368 0 0 1 .092.27ZM96.01 53.718a.366.366 0 0 1-.256.324.384.384 0 0 1-.404-.108.368.368 0 0 1 .31-.612.382.382 0 0 1 .258.126.367.367 0 0 1 .092.27Z" fill="#263238"/><path d="M98.3 92.546a.41.41 0 0 1-.364-.212.396.396 0 0 1-.03-.314l1.666-5.596a.416.416 0 0 1 .718-.05.398.398 0 0 1 .061.274l-1.665 5.597a.414.414 0 0 1-.387.301ZM106.069 88.142a.409.409 0 0 1-.365-.212.415.415 0 0 1-.028-.314l1.663-5.596a.415.415 0 0 1 .718-.05.398.398 0 0 1 .061.274l-1.665 5.6a.405.405 0 0 1-.384.298Z" fill="#37474F"/><path d="M112.756 79.128a.406.406 0 0 0-.247-.335l-2.145-1.217a1.32 1.32 0 0 0-1.182 0l-15.477 8.779a.414.414 0 0 0-.244.337v.627a.402.402 0 0 0 .244.337l2.148 1.218a1.318 1.318 0 0 0 1.182 0l15.461-8.782a.411.411 0 0 0 .247-.334l.013-.63Z" fill="#37474F"/><path d="m112.497 78.793-2.145-1.217a1.32 1.32 0 0 0-1.182 0l-12.729 7.217V89c.206.004.41-.043.593-.138l15.463-8.77a.411.411 0 0 0 .247-.335v-.63a.406.406 0 0 0-.247-.335Z" fill="#263238"/><path d="m109.169 77.576-15.464 8.779a.361.361 0 0 0-.177.13.35.35 0 0 0 .177.54l2.148 1.218a1.318 1.318 0 0 0 1.182 0l15.461-8.778a.363.363 0 0 0 .177-.13.349.349 0 0 0 0-.412.363.363 0 0 0-.177-.13l-2.145-1.217a1.32 1.32 0 0 0-1.182 0Z" fill="#455A64"/><path d="m98.469 43.265.92-1.702-.741-2.1v-1.276l2.268 1.276v1.276l-.977 1.659a.124.124 0 0 1-.065.056l-1.405.811Z" fill="#92E3A9"/><path opacity=".3" d="m98.469 43.265.92-1.702-.741-2.1v-1.276l2.268 1.276v1.276l-.977 1.659a.124.124 0 0 1-.065.056l-1.405.811Z" fill="#000"/><path d="M94.23 29.112a1.481 1.481 0 0 1 .68-1.156l.554-.316a1.529 1.529 0 0 1 1.359 0l7.949 4.496c.197.127.361.298.479.499.118.2.186.426.199.657v8.695a1.46 1.46 0 0 1-.199.657c-.118.201-.282.372-.479.499l-.556.326a1.516 1.516 0 0 1-1.359 0l-3.377-1.898-.964 1.643a.147.147 0 0 1-.26-.026l-1.038-2.914-2.315-1.311a1.481 1.481 0 0 1-.481-.498 1.45 1.45 0 0 1-.2-.658l.008-8.695Z" fill="#92E3A9"/><path opacity=".3" d="M105.448 41.986c-.012.231-.08.457-.198.658-.118.2-.282.371-.48.498l-.556.327a1.534 1.534 0 0 1-1.241.056c.319.117.563-.059.563-.442v-8.707a1.363 1.363 0 0 0-.2-.658l1.915-1.085c.121.2.189.426.197.658v8.695Z" fill="#000"/><path opacity=".3" d="M94.254 28.924c.078-.284.34-.373.654-.194l7.949 4.494c.201.122.367.293.481.497l1.912-1.084a1.38 1.38 0 0 0-.481-.498l-7.943-4.492a1.535 1.535 0 0 0-1.362 0l-.555.314a1.486 1.486 0 0 0-.655.963Z" fill="#fff"/><path d="M101.138 38.518a.29.29 0 0 1-.281.286.301.301 0 0 1-.145-.03c.042.14.064.285.065.43 0 .271-.228.411-.561.222l-2.517-1.424v-3.225a9.45 9.45 0 0 0 .756-.916c.065-.15 0-1.008 0-1.159 0-.15.413.054.675.477.065.102.115.212.149.327.07.224.12.454.15.687.041.287.025.58-.05.862l1.523.863a.86.86 0 0 1 .294.296c.096.154.151.33.158.51 0 .29-.161.36-.244.365a.923.923 0 0 1 .301.656c0 .224-.14.39-.369.311.066.146.098.303.096.462ZM96.238 33.999v3.486a.265.265 0 0 0 .122.212l.85.48c.067.04.125 0 .125-.07V34.63a.267.267 0 0 0-.125-.212l-.852-.487c-.065-.038-.12-.008-.12.069Z" fill="#FAFAFA"/></svg>