<svg width="360" height="348" fill="none" xmlns="http://www.w3.org/2000/svg"><path d="M182.407 347.999c98.082 0 177.592-43.595 177.592-97.371 0-53.777-79.51-97.372-177.592-97.372-98.081 0-177.592 43.595-177.592 97.372 0 53.776 79.511 97.371 177.592 97.371Z" fill="#F0FFF4"/><path d="M220.64 165.676c-10.583 5.802-10.583 15.208 0 21.01 10.583 5.802 27.735 5.802 38.31 0 10.575-5.802 10.583-15.208 0-21.01-10.583-5.803-27.735-5.795-38.31 0Z" fill="#E6E6E6"/><path d="m57.465 335.891 119.87-65.725c1.87-1.022 1.87-2.68 0-3.701l-28.055-15.393a7.778 7.778 0 0 0-3.374-.767 7.774 7.774 0 0 0-3.374.767L22.654 316.798c-1.863 1.021-1.863 2.679 0 3.7l28.054 15.393a7.768 7.768 0 0 0 3.378.769 7.768 7.768 0 0 0 3.379-.769ZM276.623 317.095l-69.411-37.98a.948.948 0 0 1-.462-.327.868.868 0 0 1-.176-.521c0-.186.062-.368.176-.52a.941.941 0 0 1 .462-.327l65.227-35.812a3.502 3.502 0 0 1 1.558-.363c.543 0 1.078.124 1.559.363l69.411 37.98a.943.943 0 0 1 .462.327.868.868 0 0 1 .176.521.868.868 0 0 1-.176.521.935.935 0 0 1-.462.326l-65.226 35.812a3.51 3.51 0 0 1-3.118 0Z" fill="#E0E0E0"/><path d="m62.411 103.616 1.582.896 32.364-17.755-1.574-.888-32.372 17.747Z" fill="#FAFAFA"/><path d="m94.784 85.87-30.79 16.88V23.533l30.79-16.874v79.21Z" fill="#fff"/><path d="m99.342.888-38.325 21.01v87.507l38.325-21.011V.888Zm-2.985 85.848-32.364 17.762V23.534L96.357 5.772v80.964Z" fill="#F0F0F0"/><path d="m96.356 86.757-1.574-.888V6.659l1.582-.874-.008 80.972Z" fill="#E0E0E0"/><path d="M99.342.887 97.737.013 59.41 21.031l1.605.866L99.343.887Z" fill="#FAFAFA"/><path d="m59.411 21.03 1.605.867v87.506l-1.605-.873v-87.5Z" fill="#E0E0E0"/><path d="M92.476 84.116 66.3 98.466v-72.29l26.176-14.35v72.29Z" fill="#F0F0F0"/><path d="M92.476 84.116 66.3 98.466v-72.29l26.176-14.35v72.29Z" fill="#F0F0F0"/><path d="M66.292 74.362c1.245.093 2.496.093 3.74 0a49.185 49.185 0 0 0 12.75-2.635c3.164-1.11 6.335-2.545 9.686-2.634v15.053l-3.546 1.946a12.143 12.143 0 0 0-4.862-2.568c-5.042-1.258-10.217 1.155-15.399 1.717a22.98 22.98 0 0 1-2.338.111l-.031-10.99ZM66.292 56.354c5.86-1.643 11.86-3.012 16.046-7.09 3.366-3.294 4.956-7.845 6.062-12.315 1.107-4.47 1.87-9.073 3.998-13.188l.07-.126v33.251c-.327.46-.654.926-1.005 1.377-3.85 4.951-9.515 9.08-15.983 9.399-3.04.155-6.18-.526-9.188-.51V56.353ZM66.292 39.822c2.26-1.896 3.976-4.306 4.99-7.003a16.15 16.15 0 0 0 .808-8.42c-.078-.414-.18-.829-.296-1.243l10.084-5.521c0 .629-.07 1.258-.086 1.887-.11 3.649 0 7.349-.826 10.909a21.019 21.019 0 0 1-4.13 8.212 22.36 22.36 0 0 1-7.341 5.849c-1.026.499-2.092.92-3.187 1.258l-.016-5.928ZM13.178 141.266l1.574.888 32.371-17.747-1.574-.895-32.371 17.754Z" fill="#FAFAFA"/><path d="m45.55 123.51-30.798 16.881v-79.21l30.797-16.873v79.202Z" fill="#fff"/><path d="m50.1 38.536-38.357 21.01v87.507l38.325-21.018.032-87.5Zm-2.977 85.848L14.75 142.146V61.182L47.123 43.42v80.964Z" fill="#F0F0F0"/><path d="m47.123 124.405-1.574-.896V44.306l1.574-.88v80.979Z" fill="#E0E0E0"/><path d="m50.1 38.535-1.606-.873-38.325 21.01 1.605.874L50.1 38.535Z" fill="#FAFAFA"/><path d="m10.169 58.672 1.605.873v87.506l-1.605-.873V58.672Z" fill="#E0E0E0"/><path d="m43.234 121.761-26.176 14.35v-72.29l26.176-14.35v72.29Z" fill="#F0F0F0"/><path d="m43.234 121.761-26.176 14.35v-72.29l26.176-14.35v72.29Z" fill="#F0F0F0"/><path d="M17.059 112.024c1.245.089 2.495.089 3.74 0a49.145 49.145 0 0 0 12.765-2.679c3.172-1.11 6.336-2.554 9.687-2.642v15.06l-3.546 1.939a12.256 12.256 0 0 0-4.855-2.561c-5.05-1.258-10.217 1.148-15.399 1.71-.776.083-1.557.122-2.338.118l-.054-10.945ZM17.059 94.003c5.86-1.643 11.868-3.012 16.045-7.09 3.367-3.293 4.956-7.852 6.063-12.314 1.107-4.463 1.87-9.074 3.998-13.196l.07-.118v33.244c-.327.466-.655.932-1.005 1.384-3.842 4.943-9.508 9.08-15.976 9.399-3.039.148-6.18-.526-9.195-.518v-10.79ZM17.059 77.463c2.26-1.895 3.977-4.303 4.993-6.998a16.145 16.145 0 0 0 .812-8.418 22.27 22.27 0 0 0-.296-1.244l10.069-5.52c-.042.631-.073 1.26-.094 1.887-.101 3.648 0 7.349-.826 10.908a21.019 21.019 0 0 1-4.13 8.213 22.36 22.36 0 0 1-7.341 5.849 22.632 22.632 0 0 1-3.187 1.258v-5.935ZM354.987 194.954l-1.761.999-59.833-32.808 1.753-.999 59.841 32.808Z" fill="#FAFAFA"/><path d="m295.146 162.147 58.081 31.838V48.96l-58.081-31.823v145.01Z" fill="#fff"/><path d="m290.065 164.965 66.481 36.449V47.146l-66.481-36.449v154.268Zm3.32-148.814 59.842 32.808v146.993l-59.842-32.807V16.151Z" fill="#F0F0F0"/><path d="m293.394 163.145 1.753-.999V17.136l-1.761-.984.008 146.993Z" fill="#E0E0E0"/><path d="M353.226 143.793v1.961l-59.833-32.807 1.753-.999 58.08 31.845ZM353.226 93.57v1.961l-59.833-32.807 1.753-1 58.08 31.846ZM290.065 10.698l1.793-.977 66.473 36.449-1.785.977-66.481-36.45Z" fill="#FAFAFA"/><path d="m358.331 46.17-1.784.978v154.268l1.784-.977V46.171ZM327.634 34.927l-1.792-.977v146.993l1.792-.969V34.927Z" fill="#E0E0E0"/><path d="m322.523 32.136 3.32 1.814v146.993l-3.312-1.828-.008-146.978Z" fill="#F0F0F0"/><path d="M290.065 60.902v3.634l66.481 36.449v-3.634l-66.481-36.449ZM290.065 111.118v3.634l66.481 36.448v-3.633l-66.481-36.449Z" fill="#F0F0F0"/><path d="m325.842 80.523 1.792-.984 25.592 14.032v1.961l-27.384-15.009ZM325.842 130.722l1.792-.984 25.592 14.031v1.962l-27.384-15.009Z" fill="#FAFAFA"/><path d="M225.853 153.225a.707.707 0 0 1 .145-.368.771.771 0 0 1 .322-.246 2.586 2.586 0 0 1 2.245 0 .78.78 0 0 1 .323.246.715.715 0 0 1 .144.368l-7.45 23.024a.525.525 0 0 1-.104.255.564.564 0 0 1-.223.174 1.861 1.861 0 0 1-1.559 0 .591.591 0 0 1-.221-.175.544.544 0 0 1-.106-.254l6.484-23.024ZM253.322 153.225a.72.72 0 0 0-.141-.367.772.772 0 0 0-.319-.247 2.599 2.599 0 0 0-1.126-.255c-.391 0-.777.087-1.126.255a.776.776 0 0 0-.318.247.72.72 0 0 0-.142.367l7.443 23.024a.534.534 0 0 0 .106.254.576.576 0 0 0 .221.175 1.861 1.861 0 0 0 1.558 0 .564.564 0 0 0 .223-.174.517.517 0 0 0 .105-.255l-6.484-23.024ZM241.384 154.783a.721.721 0 0 0-.143-.373.77.77 0 0 0-.325-.249 2.581 2.581 0 0 0-1.122-.255c-.39 0-.775.087-1.122.255a.765.765 0 0 0-.325.249.713.713 0 0 0-.143.373l.468 29.033a.538.538 0 0 0 .106.254.576.576 0 0 0 .221.175 1.861 1.861 0 0 0 1.559 0 .549.549 0 0 0 .327-.429l.499-29.033Z" fill="#455A64"/><path d="M268.262 141.934c0-3.997-2.751-7.993-8.307-11.035-11.121-6.098-29.138-6.098-40.258 0-5.556 3.042-8.315 7.038-8.307 11.035v2.146c.07 3.937 2.852 7.867 8.338 10.879 11.12 6.091 29.138 6.091 40.258 0 5.455-3.012 8.268-6.942 8.338-10.879l-.062-2.146Z" fill="#92E3A9"/><path opacity=".6" d="M268.262 141.934c0-3.997-2.751-7.993-8.307-11.035-11.121-6.098-29.138-6.098-40.258 0-5.556 3.042-8.315 7.038-8.307 11.035v2.146c.07 3.937 2.852 7.867 8.338 10.879 11.12 6.091 29.138 6.091 40.258 0 5.455-3.012 8.268-6.942 8.338-10.879l-.062-2.146Z" fill="#fff"/><path d="M219.666 130.9c-11.113 6.091-11.113 15.971 0 22.069 11.112 6.098 29.137 6.098 40.258 0 11.12-6.098 11.112-15.978 0-22.069-11.113-6.091-29.138-6.098-40.258 0Z" fill="#92E3A9"/><path opacity=".8" d="M219.666 130.9c-11.113 6.091-11.113 15.971 0 22.069 11.112 6.098 29.137 6.098 40.258 0 11.12-6.098 11.112-15.978 0-22.069-11.113-6.091-29.138-6.098-40.258 0Z" fill="#fff"/><path d="M246.028 136.774c3.546 1.947 3.546 5.1 0 7.039-3.545 1.939-9.297 1.946-12.842 0-3.546-1.947-3.546-5.092 0-7.039 3.545-1.946 9.297-1.946 12.842 0Z" fill="#92E3A9" opacity=".2"/><path d="M233.965 140.726c-3.117-2.96-4.902-10.465-1.894-12.833H247.4c3.008 2.368 1.2 9.836-1.886 12.833a.824.824 0 0 0-.086.081l-.109.097a3.012 3.012 0 0 1-.28.236l-.071.06-.233.162-.398.245a10.627 10.627 0 0 1-4.602 1.043c-1.598 0-3.175-.357-4.601-1.043a4.732 4.732 0 0 1-.398-.245l-.218-.155-.093-.067a4.031 4.031 0 0 1-.273-.229l-.117-.111a.328.328 0 0 1-.07-.074Z" fill="#F0F0F0"/><path d="M246.067 126.932c3.499 1.924 3.499 5.033 0 6.949-3.499 1.917-9.164 1.917-12.663 0-3.499-1.916-3.499-5.025 0-6.949 3.499-1.924 9.164-1.917 12.663 0Z" fill="#FAFAFA"/><path d="M243.589 128.307c2.127 1.17 2.127 3.057 0 4.226a8.863 8.863 0 0 1-3.854.877c-1.339 0-2.659-.3-3.853-.877-2.128-1.169-2.128-3.056 0-4.226a8.947 8.947 0 0 1 3.853-.869c1.339 0 2.658.298 3.854.869Z" fill="#E0E0E0"/><path d="M235.882 130.299a8.873 8.873 0 0 1 3.853-.877 8.88 8.88 0 0 1 3.854.877 3.41 3.41 0 0 1 1.27 1.11 3.412 3.412 0 0 1-1.27 1.111 8.88 8.88 0 0 1-3.854.877 8.873 8.873 0 0 1-3.853-.877 3.408 3.408 0 0 1-1.271-1.111 3.405 3.405 0 0 1 1.271-1.11Z" fill="#455A64"/><path d="M243.114 131.408a16.525 16.525 0 0 0 2.789-3.515c1.286-2.161 2.385-4.907 1.723-5.269-.663-.363-4.24 2.383-4.24 2.383.254-1.218.351-2.461.289-3.701-.117-1.924-.608-3.7-1.185-4.026-.576-.325-1.886 2.073-2.439 3.834-.553 1.761-.779 2.849-.779 2.849s-.491-2.02-1.107-3.7c-.678-1.828-1.293-2.22-1.769-2.057-.475.162-.779 1.028-.927 3.463a23.218 23.218 0 0 0 .117 3.478s-.951-.991-2.011-1.961c-1.06-.969-1.987-1.058-2.338-.858-.35.2-.101 1.709 1.699 4.803a17.626 17.626 0 0 0 3.406 4.255s2.509 1.554 6.772.022Z" fill="#92E3A9"/><path d="M243.114 131.408a16.55 16.55 0 0 0 2.789-3.515c1.286-2.161 2.385-4.907 1.723-5.27-.663-.362-4.24 2.383-4.24 2.383.254-1.218.351-2.46.289-3.7-.117-1.924-.608-3.7-1.185-4.026-.576-.326-1.886 2.072-2.439 3.834-.553 1.761-.779 2.849-.779 2.849s-.491-2.021-1.107-3.701c-.678-1.828-1.293-2.22-1.769-2.057-.475.163-.779 1.029-.927 3.464a23.223 23.223 0 0 0 .117 3.478s-.951-.992-2.011-1.961c-1.06-.97-1.987-1.059-2.338-.859-.35.2-.101 1.71 1.699 4.803a17.63 17.63 0 0 0 3.406 4.256s2.509 1.554 6.772.022Z" fill="#000" opacity=".2"/><path opacity=".2" d="M240.075 121.128c-.553 1.762-.779 2.85-.779 2.85l.335 1.48s.351-3.316.842-5.447a7.647 7.647 0 0 0-.398 1.117ZM236.178 123.778a21.112 21.112 0 0 1-.491-4.219 16.97 16.97 0 0 0-.234 2.132 23.357 23.357 0 0 0 .117 3.478l2.463 2.45a20.59 20.59 0 0 1-1.855-3.841ZM241.836 126.451l1.559-1.48c.258-1.217.354-2.46.288-3.7a12.603 12.603 0 0 0-.312-2.184 9.843 9.843 0 0 1-.179 3.538 32.15 32.15 0 0 1-1.356 3.826Z" fill="#000"/><path d="m30.743 319.93 6.749-4.144s3.265-16.512.842-31.084C34.92 264.143 20.2 257.083 14.86 259.103c-5.338 2.021-6.6 8.141 3.055 19.982 5.681 7.001 13.014 21.795 12.827 40.845Z" fill="#92E3A9"/><path d="m30.742 319.93 6.75-4.145s3.264-16.511.84-31.083c-3.413-20.559-18.133-27.619-23.471-25.599-5.339 2.02-6.601 8.141 3.054 19.982 5.681 7.001 13.015 21.795 12.827 40.845Z" fill="#fff" opacity=".3"/><path d="M33.197 311.781h-.07a.487.487 0 0 1-.314-.18.44.44 0 0 1-.09-.338c2.789-19.242-5.347-40.274-14.488-48.763a.445.445 0 0 1 .032-.607.499.499 0 0 1 .638-.044c9.352 8.636 17.604 30.039 14.807 49.54a.456.456 0 0 1-.176.293.503.503 0 0 1-.339.099Z" fill="#fff"/><path d="M13.77 330.351c-1.013.548-3.896-1.561-4.676-2.072a9.366 9.366 0 0 1-3.21-3.493 8.278 8.278 0 0 1-.78-5.181c.162-.929.392-1.846.686-2.745.273-.888.538-1.777.78-2.665a6.484 6.484 0 0 0 .412-2.679c-.249-1.82-1.948-3.101-3.499-4.196-1.706-1.221-3.49-2.827-3.483-5.018a7.532 7.532 0 0 1 2.034-4.588c1.107-1.332 2.416-2.501 3.413-3.9a5.23 5.23 0 0 0 1.161-3.412 5.382 5.382 0 0 0-.779-2.124c-.78-1.428-1.894-2.738-2.455-4.27-.56-1.532-.483-3.442.78-4.537 1.036-.903 2.571-1.029 3.974-.94a9.458 9.458 0 0 1 3.694 1.236c3.663 1.939 5.751 6.054 9.64 7.549 1.534.452 3.095.815 4.675 1.088 1.559.392 3.117 1.154 3.897 2.523 1.426 2.709-1.224 6.047-.218 8.918.888 2.546 3.49 3.523 4.956 5.81a5.173 5.173 0 0 1 .678 3.33 15.27 15.27 0 0 1-1.473 5.625 49.014 49.014 0 0 1-3.242 5.291s-16.81 10.376-16.965 10.45Z" fill="#92E3A9"/><path d="M13.77 330.349c-1.013.547-3.896-1.562-4.676-2.072a9.361 9.361 0 0 1-3.21-3.494 8.275 8.275 0 0 1-.78-5.18c.162-.929.392-1.847.686-2.746.273-.888.538-1.776.78-2.664a6.489 6.489 0 0 0 .412-2.679c-.249-1.821-1.948-3.101-3.499-4.196-1.706-1.221-3.49-2.827-3.483-5.018a7.53 7.53 0 0 1 2.034-4.588c1.107-1.333 2.416-2.502 3.413-3.901a5.23 5.23 0 0 0 1.161-3.411 5.382 5.382 0 0 0-.779-2.124c-.78-1.429-1.894-2.739-2.455-4.271-.56-1.532-.483-3.441.78-4.536 1.036-.903 2.571-1.029 3.974-.94a9.441 9.441 0 0 1 3.694 1.236c3.663 1.939 5.751 6.054 9.64 7.548 1.534.452 3.095.816 4.675 1.088 1.559.393 3.117 1.155 3.897 2.524 1.426 2.709-1.224 6.046-.218 8.918.888 2.546 3.49 3.523 4.956 5.81a5.172 5.172 0 0 1 .678 3.33 15.26 15.26 0 0 1-1.473 5.624 49.027 49.027 0 0 1-3.242 5.292s-16.81 10.376-16.965 10.45Z" fill="#fff" opacity=".65"/><path d="M23.558 324.895a.476.476 0 0 1-.321-.138.433.433 0 0 1-.124-.313c.78-17.2-7.793-36.197-13.988-41.711a.426.426 0 0 1-.133-.307c0-.115.048-.225.133-.307a.472.472 0 0 1 .324-.126c.12 0 .237.045.323.126 6.328 5.632 15.04 24.94 14.277 42.384a.42.42 0 0 1-.16.293.476.476 0 0 1-.331.099Z" fill="#fff"/><path d="M20.65 303.869h-.14a64.483 64.483 0 0 0-13.146-2.013.47.47 0 0 1-.318-.138.412.412 0 0 1-.118-.313.412.412 0 0 1 .145-.302.463.463 0 0 1 .33-.112 65.57 65.57 0 0 1 13.38 2.057.45.45 0 0 1 .261.179.412.412 0 0 1-.088.566.474.474 0 0 1-.305.099v-.023Z" fill="#fff"/><path d="M165.925 255.201V11.258c0-6.276-3.28-8.008-6.234-9.621-2.953-1.613-7.715-2.56-11.853-.289L41.793 59.518c-4.138 2.272-7.497 7.793-7.497 12.337v243.943c0 4.544 3 7.223 5.915 8.822 2.914 1.599 7.995 3.353 12.141 1.081l106.069-58.155c2.347-1.179 4.296-2.963 5.623-5.147a12.861 12.861 0 0 0 1.881-7.198Z" fill="#37474F"/><path d="m159.177 257.511-109.1 59.805V72.352L36.493 64.84a14.015 14.015 0 0 0-2.197 7.016v243.943c0 4.544 3 7.223 5.915 8.822 2.914 1.598 7.995 3.352 12.141 1.08l106.069-58.155c2.945-1.504 5.244-3.939 6.499-6.882l-.421-.23-5.322-2.923Z" fill="#263238"/><path d="M158.25 9.158 51.854 67.483a11.366 11.366 0 0 0-3.717 3.73 10.697 10.697 0 0 0-1.551 4.921v242.004c0 4.878 3.647 6.868 8.097 4.441l103.567-56.823a12.882 12.882 0 0 0 4.214-4.232 12.118 12.118 0 0 0 1.755-5.581V12.458c-.023-3.633-2.711-5.106-5.969-3.3Z" fill="#455A64"/><path d="M161.469 31.253v212.824c0 3.589-2.666 7.978-5.923 9.754l-100.31 55.002c-3.273 1.806-5.93.355-5.93-3.242V91.029c0-2.908 1.745-6.342 4.161-8.488l.561-.481c.383-.274.787-.522 1.208-.74l98.144-53.856.584-.325c4.138-2.265 7.505-.415 7.505 4.114Z" fill="#000"/><path d="M146.934 247.519a12.779 12.779 0 0 0 4.186-4.21 12.024 12.024 0 0 0 1.736-5.552V27.754l-27.275 14.95c-.927.621-70.354 38.58-70.354 38.58-.42.218-.824.466-1.208.74l-.56.48c-2.417 2.147-4.162 5.58-4.162 8.49v210.054l97.637-53.529Z" fill="#FAFAFA"/><path d="m94.083 50.718 15.071-8.259c.904-.496 1.629-.14 1.629.784a3.198 3.198 0 0 1-.492 1.466 3.4 3.4 0 0 1-1.137 1.095l-15.071 8.26c-.896.495-1.629.147-1.629-.778a3.2 3.2 0 0 1 .491-1.468 3.402 3.402 0 0 1 1.138-1.1ZM116.893 37.531c1.013-.555 1.831-.103 1.831 1.007a3.714 3.714 0 0 1-.536 1.717c-.318.525-.762.971-1.295 1.302-1.013.555-1.831.104-1.831-1.006a3.702 3.702 0 0 1 .536-1.718c.318-.524.761-.97 1.295-1.302Z" fill="#263238"/><path d="M44.138 101.124a5.82 5.82 0 0 0-.794-2.697 6.173 6.173 0 0 0-1.988-2.069 1.94 1.94 0 0 0-1.901-.148c-.351.2-1.715.925-2.081 1.132-.302.215-.54.5-.69.829-.15.328-.208.688-.168 1.044v19.871a5.82 5.82 0 0 0 .79 2.706 6.181 6.181 0 0 0 1.992 2.075 1.974 1.974 0 0 0 1.831.185 81.52 81.52 0 0 0 2.144-1.17c.303-.212.542-.496.694-.823.151-.327.21-.686.17-1.042v-19.893Z" fill="#455A64"/><path d="M42.073 102.252v19.878c0 1.791-1.24 2.561-2.774 1.725a6.171 6.171 0 0 1-1.984-2.07 5.816 5.816 0 0 1-.79-2.696V99.218c0-1.791 1.246-2.561 2.774-1.725a6.13 6.13 0 0 1 1.987 2.064c.482.827.752 1.75.787 2.695Z" fill="#37474F"/><path d="M44.138 135.908a5.812 5.812 0 0 0-.794-2.694 6.162 6.162 0 0 0-1.988-2.065 1.922 1.922 0 0 0-1.901-.148c-.351.2-1.715.925-2.081 1.133-.3.214-.537.498-.688.825a1.97 1.97 0 0 0-.17 1.039v19.879c.035.947.306 1.874.79 2.703a6.139 6.139 0 0 0 1.993 2.07 1.94 1.94 0 0 0 1.831.185 63.15 63.15 0 0 0 2.143-1.162c.303-.213.543-.498.695-.826.151-.329.21-.689.17-1.046v-19.893Z" fill="#455A64"/><path d="M42.073 137.039v19.879c0 1.791-1.24 2.561-2.774 1.717a6.146 6.146 0 0 1-1.986-2.065 5.786 5.786 0 0 1-.789-2.694v-19.878c0-1.791 1.247-2.561 2.775-1.717a6.132 6.132 0 0 1 1.987 2.064c.482.826.752 1.75.787 2.694Z" fill="#37474F"/><path d="M164.827 26.377 60.457 83.525a5.038 5.038 0 0 0-1.656 1.666 4.742 4.742 0 0 0-.682 2.197v218.707c.042.772.276 1.524.682 2.194.407.67.974 1.24 1.656 1.662l1.465.799a5.45 5.45 0 0 0 2.338.525 5.45 5.45 0 0 0 2.338-.525l104.378-57.245a5.045 5.045 0 0 0 1.654-1.666c.406-.671.64-1.424.683-2.197V31.024a4.73 4.73 0 0 0-.681-2.197 5.033 5.033 0 0 0-1.656-1.666l-1.465-.792a5.446 5.446 0 0 0-2.343-.523 5.442 5.442 0 0 0-2.341.53Z" fill="#E0E0E0"/><path d="M173.352 249.791c0 1.969-1.449 3.212-3.249 4.196l-102.57 56.246c-1.793.984-3.25.192-3.25-1.784V91.719a5.899 5.899 0 0 1 .865-3.073 6.308 6.308 0 0 1 2.37-2.248l102.585-56.246c.329-.18.703-.276 1.083-.276.381 0 .755.096 1.084.277.329.18.603.44.793.753.19.313.29.668.289 1.03V249.79Z" fill="#FAFAFA"/><path d="M173.352 31.026v.873a1.985 1.985 0 0 0-.296-1.027 2.13 2.13 0 0 0-.795-.75 2.266 2.266 0 0 0-2.166 0L67.517 86.369a6.156 6.156 0 0 0-2.338 2.22.204.204 0 0 0-.039.067l-6.35-3.478a4.72 4.72 0 0 1 1.69-1.695l104.347-57.104a5.448 5.448 0 0 1 2.338-.525c.811 0 1.612.18 2.338.525l1.465.8c.69.415 1.266.981 1.68 1.65.415.67.656 1.422.704 2.198Z" fill="#F0F0F0"/><path d="m65.188 117.938 107.261-58.813v-14.35L65.187 103.58v14.357Z" fill="#92E3A9"/><path opacity=".5" d="m65.188 117.938 107.261-58.813v-14.35L65.187 103.58v14.357Z" fill="#fff"/><path d="m73.456 104.434 35.847-19.642c.966-.525 1.745-.148 1.745.844a3.423 3.423 0 0 1-.527 1.574c-.303.478-.72.882-1.218 1.179l-35.847 19.634c-.967.533-1.746.156-1.746-.836a3.417 3.417 0 0 1 .525-1.575 3.635 3.635 0 0 1 1.22-1.178Z" fill="#FAFAFA"/><path opacity=".75" d="M163.44 53.27c1.808-.992 3.281-.185 3.281 1.798a6.654 6.654 0 0 1-.966 3.071 7.058 7.058 0 0 1-2.323 2.325c-1.816.991-3.281.192-3.273-1.799a6.648 6.648 0 0 1 .963-3.07 7.063 7.063 0 0 1 2.318-2.325Z" fill="#fff"/><path d="M163.44 54.787a3.92 3.92 0 0 0-1.281 1.276 3.702 3.702 0 0 0-.543 1.685c0 .74.351 1.154.865 1.22v.837l.741-.97c.07 0 .14-.051.21-.088a3.915 3.915 0 0 0 1.287-1.277 3.676 3.676 0 0 0 .544-1.691c0-1.095-.779-1.54-1.823-.992Z" fill="#455A64"/><path opacity=".75" d="M153.613 58.666c1.808-.991 3.273-.185 3.273 1.799a6.63 6.63 0 0 1-.965 3.067 7.048 7.048 0 0 1-2.324 2.32c-1.815 1-3.281.193-3.273-1.79a6.643 6.643 0 0 1 .965-3.072 7.064 7.064 0 0 1 2.324-2.324Z" fill="#fff"/><path d="m155.609 63.18-1.099-.599c.227-.404.353-.852.366-1.31a.995.995 0 0 0-.089-.618 1.07 1.07 0 0 0-.445-.46 1.15 1.15 0 0 0-1.25.101c-.457.286-.837.67-1.108 1.122a3.175 3.175 0 0 0-.451 1.476c-.016.196.019.393.104.573.084.18.215.336.379.456.147.08.314.12.484.118.275-.007.544-.084.779-.222a3.047 3.047 0 0 0 1.013-.962l1.106.607c.031.01.064.01.094 0a.224.224 0 0 0 .179-.096.189.189 0 0 0-.062-.185Zm-1.559-.628c-.236.395-.57.73-.974.977a.74.74 0 0 1-.84.093.69.69 0 0 1-.297-.316.65.65 0 0 1-.04-.421c.025-.456.163-.899.403-1.294.239-.395.574-.73.977-.978.168-.103.361-.161.561-.17a.509.509 0 0 1 .28.073.79.79 0 0 1 .274.327c.059.13.081.273.062.413a2.616 2.616 0 0 1-.382 1.259l-.024.037Z" fill="#455A64"/><path d="M65.188 297.546v11.065c0 1.939 1.433 1.931 3.195.969l100.871-55.32c1.769-.963 3.195-2.221 3.195-4.123V238.74L65.187 297.546Z" fill="#92E3A9"/><path opacity=".5" d="M65.188 297.546v11.065c0 1.939 1.433 1.931 3.195.969l100.871-55.32c1.769-.963 3.195-2.221 3.195-4.123V238.74L65.187 297.546Z" fill="#fff"/><path d="m89.79 290.577-1.09.599v4.115l-1.365.74v-3.064l-1.285.703v3.071l-1.356.748v-4.115l-1.091.6 3.093-5.758 3.094 2.361Z" fill="#92E3A9"/><path d="M107.814 284.729c-.273 0-.542-.069-.779-.199-.779-.43-1.223-1.481-1.223-2.828 0-2.301 1.293-4.891 2.883-5.765.277-.176.599-.278.932-.296.333-.019.665.048.962.193.779.429 1.223 1.48 1.223 2.827 0 2.301-1.301 4.892-2.891 5.765a2.295 2.295 0 0 1-1.107.303Zm1.956-8.666a1.843 1.843 0 0 0-.865.244c-1.465.807-2.665 3.227-2.665 5.395 0 1.192.374 2.11 1.005 2.458a1.474 1.474 0 0 0 1.434-.104c1.473-.807 2.665-3.227 2.665-5.395 0-1.192-.374-2.109-.997-2.457a1.201 1.201 0 0 0-.577-.141Z" fill="#fff"/><path d="M108.5 280.644a.743.743 0 0 1-.327-.082 1.263 1.263 0 0 1-.398-.502 1.2 1.2 0 0 1-.093-.622 2.445 2.445 0 0 1 .242-1.148c.173-.36.432-.676.756-.925a.76.76 0 0 1 .732 0c.176.131.314.302.4.498.086.196.117.409.091.62.014.395-.069.788-.242 1.148a2.57 2.57 0 0 1-.755.924.813.813 0 0 1-.406.089Zm.585-2.96a.425.425 0 0 0-.179.051 2.16 2.16 0 0 0-.593.768 2.056 2.056 0 0 0-.187.935c0 .444.141.688.265.74.125.051.117.059.281 0 .255-.211.457-.474.592-.768.135-.294.199-.614.187-.935 0-.444-.148-.68-.273-.74a.212.212 0 0 0-.093-.051ZM106.949 284.463a.244.244 0 0 1-.084-.027.244.244 0 0 1-.067-.056.208.208 0 0 1-.044-.161l.055-.378c.041-.461.185-.908.421-1.312.237-.405.561-.757.95-1.034l1.053-.577a1.04 1.04 0 0 1 .935-.074c.189.108.348.258.464.437.115.179.183.382.198.592l.047.325a.202.202 0 0 1-.104.217.203.203 0 0 1-.083.027.214.214 0 0 1-.164-.039.21.21 0 0 1-.058-.061.217.217 0 0 1-.028-.077l-.054-.326a.897.897 0 0 0-.11-.416.952.952 0 0 0-.295-.324.604.604 0 0 0-.53.059l-1.045.578a2.92 2.92 0 0 0-.799.899 2.768 2.768 0 0 0-.354 1.128l-.054.385a.21.21 0 0 1-.075.16.209.209 0 0 1-.081.045c-.03.01-.062.013-.094.01ZM128.317 272.903a.59.59 0 0 1-.366-.119 1.377 1.377 0 0 1-.383-.697 1.338 1.338 0 0 1 .071-.783c.045-.193.11-.381.195-.562l.085-.2c.154-.334.237-.694.242-1.058v-.518c0-1.666.904-3.464 2.057-4.1a1.424 1.424 0 0 1 1.395-.067c.319.239.568.551.724.908.155.356.212.744.165 1.127v.518c-.022.262.049.522.202.74l.094.104c.102.117.179.253.226.4.107.418.084.857-.067 1.263a2.225 2.225 0 0 1-.783 1.023l-3.46 1.895a.806.806 0 0 1-.397.126Zm2.696-7.793a1.27 1.27 0 0 0-.569.163c-1.013.555-1.831 2.22-1.831 3.7v.518a3.036 3.036 0 0 1-.281 1.229l-.085.199a2.607 2.607 0 0 0-.172.489c-.124.511 0 .895.14 1.006 0 0 .102.074.281 0l3.452-1.894c.269-.217.47-.498.584-.815.114-.316.136-.656.063-.984a.618.618 0 0 0-.14-.251l-.086-.104a1.43 1.43 0 0 1-.312-.992v-.518a1.78 1.78 0 0 0-.114-.912 1.882 1.882 0 0 0-.556-.753.814.814 0 0 0-.374-.081Z" fill="#fff"/><path d="M130.008 272.917a.687.687 0 0 1-.273-.052.965.965 0 0 1-.333-.281.88.88 0 0 1-.165-.392.203.203 0 0 1 .028-.164.221.221 0 0 1 .143-.095.24.24 0 0 1 .166.032c.049.03.084.077.099.13.007.077.033.15.075.216a.517.517 0 0 0 .167.162c.05.017.104.022.157.015a.315.315 0 0 0 .146-.06c.214-.154.393-.348.527-.569.134-.221.22-.465.253-.718a.217.217 0 0 1 .094-.132.238.238 0 0 1 .163-.038.224.224 0 0 1 .146.085c.035.046.05.103.041.159a2.289 2.289 0 0 1-.326.887c-.17.272-.395.509-.664.696a.902.902 0 0 1-.444.119ZM129.681 265.82a.226.226 0 0 1-.146-.053.201.201 0 0 1-.072-.132 1.428 1.428 0 0 1 0-.185c.002-.287.073-.57.208-.826.135-.257.331-.481.571-.654a.617.617 0 0 1 .312-.083c.11 0 .218.028.312.083.13.094.233.218.298.36a.868.868 0 0 1 .076.454v.192a.21.21 0 0 1-.083.145.234.234 0 0 1-.32-.031.207.207 0 0 1-.049-.158c.003-.05.003-.099 0-.148 0-.252-.07-.407-.148-.444a.185.185 0 0 0-.172 0c-.173.14-.311.315-.406.512a1.424 1.424 0 0 0-.139.627.75.75 0 0 0 0 .134.195.195 0 0 1-.005.083.215.215 0 0 1-.039.075.222.222 0 0 1-.151.078l-.047-.029ZM149.101 255.599a.23.23 0 0 1-.195-.104.211.211 0 0 1-.023-.163.223.223 0 0 1 .101-.133l4.941-2.709a.24.24 0 0 1 .169-.018.229.229 0 0 1 .135.1.2.2 0 0 1-.013.234.23.23 0 0 1-.065.055l-4.941 2.708a.208.208 0 0 1-.109.03ZM149.101 258.294a.227.227 0 0 1-.144-.035.202.202 0 0 1-.086-.115.194.194 0 0 1 .01-.14.209.209 0 0 1 .103-.102l4.941-2.709a.234.234 0 0 1 .168-.022.221.221 0 0 1 .136.096.205.205 0 0 1-.078.289l-4.941 2.709a.196.196 0 0 1-.109.029ZM149.101 261.003a.243.243 0 0 1-.112-.027.233.233 0 0 1-.083-.076.214.214 0 0 1-.022-.16.221.221 0 0 1 .1-.129l4.941-2.709a.235.235 0 0 1 .169-.024.23.23 0 0 1 .078.036.224.224 0 0 1 .087.142.21.21 0 0 1-.108.216l-4.941 2.709a.287.287 0 0 1-.109.022Z" fill="#fff"/><path d="M171.186 30.7c.335.001.657.13.893.355.237.226.369.532.369.85v217.886c0 1.332-.865 2.398-2.797 3.456L67.073 309.493c-.3.18-.643.284-.997.303-.78 0-.897-.844-.897-1.347V91.719a5.11 5.11 0 0 1 .749-2.643 5.462 5.462 0 0 1 2.033-1.938l102.586-56.246c.192-.104.41-.16.631-.163m0-.858c-.381 0-.755.097-1.083.28L67.509 86.398a6.309 6.309 0 0 0-2.368 2.249 5.899 5.899 0 0 0-.866 3.073v216.73c0 1.399.733 2.22 1.8 2.22a3.023 3.023 0 0 0 1.45-.421l102.57-56.246c1.8-.984 3.25-2.22 3.25-4.196v-217.9a2.01 2.01 0 0 0-.643-1.433 2.227 2.227 0 0 0-1.516-.595l-.008-.007Z" fill="#E0E0E0"/><path d="M82.355 88.957a.198.198 0 0 1 0-.118v-.614l-1.013.555c-.054 0-.078 0-.078-.09v-.214a.575.575 0 0 1 0-.126.633.633 0 0 1 0-.118l1.068-2.775c0-.045 0-.082.047-.104a.185.185 0 0 1 .07-.06l.14-.08h.094a.183.183 0 0 1 0 .133v2.138l.218-.125h.093a.218.218 0 0 1 0 .133v.11c.01.052.01.105 0 .156a.175.175 0 0 1-.093.09l-.218.125v.607a.29.29 0 0 1 0 .155.19.19 0 0 1-.094.096l-.164.09c-.023.058-.054.058-.07.036Zm0-1.288v-1.546l-.732 1.924.732-.378ZM83.556 87.936a1.896 1.896 0 0 1-.296-1.251 3.712 3.712 0 0 1 .296-1.57c.16-.395.453-.73.833-.954.124-.073.262-.123.406-.148a.49.49 0 0 1 .304.045.057.057 0 0 1 0 .059.128.128 0 0 1 0 .066l-.086.319a.316.316 0 0 1-.04.074h-.046a.598.598 0 0 0-.514.081 1.35 1.35 0 0 0-.57.651 2.962 2.962 0 0 0-.202 1.162 1.56 1.56 0 0 0 .203.948c.132.155.312.17.545 0 .09-.048.174-.105.25-.17.075-.06.14-.13.195-.208v-.992l-.421.23h-.086a.253.253 0 0 1 0-.133v-.141a.406.406 0 0 1 0-.155.189.189 0 0 1 .086-.09l.67-.37h.101a.274.274 0 0 1 0 .164v1.413a.563.563 0 0 1 0 .126.8.8 0 0 1-.039.096c-.189.306-.457.56-.779.74-.335.237-.616.23-.81.008ZM92.01 83.06c.004.226-.047.45-.148.653-.101.204-.25.384-.436.525-.32.17-.584-.067-.584-.54-.002-.225.05-.447.15-.65.102-.202.25-.38.434-.52.351-.178.585.06.585.533Z" fill="#455A64"/><path d="M91.45 81.129a3.34 3.34 0 0 0-1.357 1.939.339.339 0 0 0 .063.385c.109.066.272-.067.342-.289.135-.55.472-1.035.951-1.37a.643.643 0 0 1 .568-.072.627.627 0 0 1 .246.154c.069.07.118.153.145.245.062.14.226.103.343-.09a.58.58 0 0 0 .062-.458.834.834 0 0 0-.21-.341.895.895 0 0 0-.352-.213.935.935 0 0 0-.802.11Z" fill="#455A64"/><path d="M91.449 79.759a5.191 5.191 0 0 0-2.081 2.82c-.07.185-.047.37.047.429.109.059.265-.067.335-.274a4.22 4.22 0 0 1 1.699-2.302 1.187 1.187 0 0 1 .964-.172c.164.042.316.119.444.224.129.106.23.237.298.385.07.126.226.081.335-.096a.544.544 0 0 0 .047-.481 1.324 1.324 0 0 0-.366-.47 1.413 1.413 0 0 0-.544-.272 1.46 1.46 0 0 0-1.178.209ZM113.831 69.1a.117.117 0 0 1-.013-.051c0-.018.005-.036.013-.052a.23.23 0 0 1 .039-.118l.842-1.428a.632.632 0 0 1 .062-.104l.07-.067.304-.163h.07a.124.124 0 0 1 0 .097v3.648c.01.042.01.085 0 .126a.15.15 0 0 1-.07.081l-.312.17a.073.073 0 0 1-.078 0 .158.158 0 0 1 0-.096v-2.782l-.545.932a.132.132 0 0 1-.078.067h-.07l-.234-.26ZM115.809 68.05a.116.116 0 0 1 0-.103.24.24 0 0 1 .039-.119l.842-1.428a.827.827 0 0 1 .062-.104.29.29 0 0 1 .071-.066l.303-.163a.058.058 0 0 1 .071 0 .124.124 0 0 1 0 .096v3.678c.01.041.01.085 0 .126a.187.187 0 0 1-.071.081l-.311.17a.065.065 0 0 1-.078 0 .15.15 0 0 1 0-.088v-2.798l-.546.933a.175.175 0 0 1-.078.074.069.069 0 0 1-.035.009.074.074 0 0 1-.035-.01l-.234-.288ZM118.374 66.489h.07a.124.124 0 0 1 0 .096v.548a.244.244 0 0 1 0 .125.144.144 0 0 1-.07.09l-.359.192a.074.074 0 0 1-.078 0 .15.15 0 0 1 0-.09v-.569a.38.38 0 0 1 0-.126.193.193 0 0 1 .078-.089l.359-.177Zm0 1.976h.07c.015 0 0 .044 0 .089v.547c.01.04.01.08 0 .119a.144.144 0 0 1-.07.088l-.359.2a.065.065 0 0 1-.078 0 .135.135 0 0 1 0-.088v-.556a.38.38 0 0 1 0-.125.212.212 0 0 1 .078-.082l.359-.192ZM120.438 68.192a.065.065 0 0 1-.078 0 .124.124 0 0 1 0-.09v-.68l-1.192.659a.074.074 0 0 1-.078 0 .15.15 0 0 1 0-.09v-.399a.506.506 0 0 1 0-.155c0-.052.039-.104.062-.163l1.185-2.805a.46.46 0 0 1 .156-.23l.296-.162a.054.054 0 0 1 .035-.012c.013 0 .025.004.035.012a.114.114 0 0 1 0 .089v2.264l.335-.185h.07c.016 0 0 .045 0 .089v.4a.244.244 0 0 1 0 .126.17.17 0 0 1-.07.088l-.335.178v.688c.01.039.01.08 0 .119a.144.144 0 0 1-.07.088l-.351.17Zm-.109-1.48v-1.207l-.655 1.57.655-.364ZM121.99 63.536a.268.268 0 0 1 0-.126.258.258 0 0 1 .07-.081l1.457-.8h.07c.016 0 0 .045 0 .09v.399a.244.244 0 0 1 0 .126.17.17 0 0 1-.07.089l-1.083.592-.047.74a.935.935 0 0 1 .211-.185l.163-.104c.124-.072.262-.12.406-.14a.47.47 0 0 1 .319.08c.103.072.177.174.211.29.058.166.084.342.077.518.004.224-.022.448-.077.666-.049.188-.123.37-.219.54a1.62 1.62 0 0 1-.319.422c-.118.113-.252.21-.398.288-.136.085-.29.14-.452.163a.485.485 0 0 1-.319-.074.49.49 0 0 1-.187-.251 1.133 1.133 0 0 1-.078-.385.244.244 0 0 1 0-.126.198.198 0 0 1 .078-.081l.312-.17a.054.054 0 0 1 .035-.013c.012 0 .025.004.035.012v.074a.293.293 0 0 0 .078.17c.028.036.07.06.117.067.046.01.094.01.14 0a.936.936 0 0 0 .53-.444c.087-.173.133-.363.132-.555a.412.412 0 0 0-.132-.348.333.333 0 0 0-.359 0 .967.967 0 0 0-.179.126.682.682 0 0 0-.109.118l-.078.104a.313.313 0 0 1-.094.074l-.35.192a.064.064 0 0 1-.039.013.064.064 0 0 1-.039-.013.15.15 0 0 1 0-.088l.187-1.969ZM71.234 95.515V94.33l1.076-.585v1.177l-1.076.592ZM72.848 94.626v-2.353l1.075-.592v2.36l-1.075.585ZM74.46 93.747v-3.538l1.076-.585v3.53l-1.075.593ZM76.074 92.856V88.15l1.068-.592v4.714l-1.068.585ZM165.762 39.884a.292.292 0 0 0-.07-.091.293.293 0 0 0-.222-.07.297.297 0 0 0-.113.035l-4.006 2.22c-.162.15-.288.332-.368.532-.081.201-.115.416-.099.63v2.139c-.012.238.048.474.171.68a.458.458 0 0 0 .164.141.248.248 0 0 0 .241 0l4.006-2.22c.162-.15.288-.331.368-.532.081-.2.115-.415.099-.63v-2.153a1.213 1.213 0 0 0-.171-.681Zm-4.59 5.773a.53.53 0 0 1-.07-.311v-2.147a1.072 1.072 0 0 1 .078-.477 1.13 1.13 0 0 1 .28-.403l4.006-2.22a.17.17 0 0 1 .132 0l.047.044a.53.53 0 0 1 .07.31v2.154c.011.164-.015.328-.077.482a1.143 1.143 0 0 1-.281.406l-4.006 2.22c-.078.008-.14 0-.179-.059Z" fill="#455A64"/><path d="M162.216 42.273v2.531l-.631.348a.081.081 0 0 1-.079 0 .07.07 0 0 1-.028-.029.073.073 0 0 1-.01-.037v-1.888a.83.83 0 0 1 .258-.651l.49-.274ZM162.513 42.117l.756-.414v2.53l-.756.415v-2.53ZM163.557 41.547l.756-.414v2.538l-.756.415v-2.539ZM165.356 40.735v1.828a.904.904 0 0 1-.136.47.978.978 0 0 1-.362.344l-.257.14V40.98l.6-.326a.104.104 0 0 1 .141.033.08.08 0 0 1 .014.049ZM166.082 40.496c.109-.067.202.244.202.68v.4c.031.321-.039.643-.202.926l-.203.133v-2.028l.203-.11ZM154.79 46.966l3.904-3.286-1.208 4.825-.569-2.013-2.127.474Z" fill="#455A64"/><path d="M199.809 213.418V64.352a3.276 3.276 0 0 1 .437-1.535 3.492 3.492 0 0 1 1.121-1.181c.873-.481 1.559 0 1.559.984v149.036a3.312 3.312 0 0 1-.44 1.534 3.51 3.51 0 0 1-1.119 1.182c-.857.481-1.558.037-1.558-.954Z" fill="#92E3A9"/><path d="M200.534 87.605v-6.58a1.77 1.77 0 0 1 .241-.838c.149-.257.36-.477.616-.641.468-.26.85 0 .85.532v6.58c-.009.293-.091.579-.239.836a1.897 1.897 0 0 1-.611.644c-.475.266-.857.03-.857-.533Z" fill="#fff"/><path d="M188.924 98.448c0 2.02-1.496 3.315-3.343 4.322L79.863 160.74c-1.84 1.014-3.344.192-3.344-1.835v-35.184c0-1.11.307-2.202.891-3.164a6.512 6.512 0 0 1 2.437-2.32l105.726-58.014a2.33 2.33 0 0 1 2.235.004c.34.186.622.455.817.777.196.323.299.69.299 1.062v36.382Z" fill="#000" opacity=".2"/><path d="m188.449 63.117-103.38 56.608a5.02 5.02 0 0 0-1.652 1.651 4.726 4.726 0 0 0-.686 2.183v35.523c.044.767.28 1.512.685 2.176a4.98 4.98 0 0 0 1.652 1.643l1.45.784a5.392 5.392 0 0 0 2.338.531c.812 0 1.613-.182 2.338-.531l102.717-56.334c1.286-.703 2.993-2.783 2.993-4.189V67.72a4.694 4.694 0 0 0-.687-2.176 4.986 4.986 0 0 0-1.651-1.643l-1.457-.792a5.418 5.418 0 0 0-2.331-.52 5.414 5.414 0 0 0-2.329.528Z" fill="#92E3A9"/><path opacity=".25" d="m188.449 63.117-103.38 56.608a5.02 5.02 0 0 0-1.652 1.651 4.726 4.726 0 0 0-.686 2.183v35.523c.044.767.28 1.512.685 2.176a4.98 4.98 0 0 0 1.652 1.643l1.45.784a5.392 5.392 0 0 0 2.338.531c.812 0 1.613-.182 2.338-.531l102.717-56.334c1.286-.703 2.993-2.783 2.993-4.189V67.72a4.694 4.694 0 0 0-.687-2.176 4.986 4.986 0 0 0-1.651-1.643l-1.457-.792a5.418 5.418 0 0 0-2.331-.52 5.414 5.414 0 0 0-2.329.528Z" fill="#000"/><path d="M196.896 103.347c0 1.946-1.434 3.182-3.219 4.152l-101.603 55.72c-1.77.969-3.218.185-3.218-1.769v-33.614c0-1.067.296-2.115.858-3.039a6.254 6.254 0 0 1 2.344-2.223l101.619-55.742a2.233 2.233 0 0 1 2.146-.003 2.1 2.1 0 0 1 .786.745c.188.31.287.661.287 1.02v34.753Z" fill="#FAFAFA"/><path d="M194.745 67.32c.356 0 .697.135.948.374s.393.562.393.9v34.783c0 1.355-.865 2.428-2.814 3.493L91.669 162.554a2.169 2.169 0 0 1-1.029.31c-.88 0-.974-.984-.974-1.413v-33.614a5.14 5.14 0 0 1 .753-2.656 5.488 5.488 0 0 1 2.045-1.947l101.634-55.743a1.43 1.43 0 0 1 .671-.17m0-.74c-.377 0-.745.098-1.068.281l-101.62 55.742a6.248 6.248 0 0 0-2.343 2.224 5.838 5.838 0 0 0-.86 3.038v33.615c0 1.383.733 2.183 1.785 2.183a3.02 3.02 0 0 0 1.434-.415l101.604-55.72c1.784-.969 3.218-2.22 3.218-4.152V68.594a1.99 1.99 0 0 0-.63-1.444 2.208 2.208 0 0 0-1.52-.599v.03Z" fill="#E6E6E6"/><path d="M196.896 67.72v.873a1.964 1.964 0 0 0-.291-1.018 2.098 2.098 0 0 0-.788-.745 2.236 2.236 0 0 0-1.074-.272 2.24 2.24 0 0 0-1.073.274L92.059 122.574a6.09 6.09 0 0 0-2.338 2.22.25.25 0 0 0 0 .067l-6.281-3.441a4.545 4.545 0 0 1 1.675-1.688l103.373-56.615a5.414 5.414 0 0 1 2.338-.529c.812 0 1.612.181 2.337.529l1.45.792c.669.42 1.225.984 1.621 1.646a4.66 4.66 0 0 1 .662 2.165Z" fill="#92E3A9"/><path opacity=".45" d="M196.896 67.72v.873a1.964 1.964 0 0 0-.291-1.018 2.098 2.098 0 0 0-.788-.745 2.236 2.236 0 0 0-1.074-.272 2.24 2.24 0 0 0-1.073.274L92.059 122.574a6.09 6.09 0 0 0-2.338 2.22.25.25 0 0 0 0 .067l-6.281-3.441a4.545 4.545 0 0 1 1.675-1.688l103.373-56.615a5.414 5.414 0 0 1 2.338-.529c.812 0 1.612.181 2.337.529l1.45.792c.669.42 1.225.984 1.621 1.646a4.66 4.66 0 0 1 .662 2.165Z" fill="#fff"/><path d="M100.685 123.328c-2.423 1.332-4.387 5.284-4.387 8.829 0 1.917.576 3.308 1.48 3.989l.078-.607a4.772 4.772 0 0 1 .623-1.926 5.034 5.034 0 0 1 1.38-1.53l1.66-.903c.966-.533 1.792 0 2.003 1.258l.086.496a12.151 12.151 0 0 0 1.465-5.587c0-3.545-1.964-5.336-4.388-4.019Zm0 6.661c-.779.422-1.403-.222-1.403-1.443s.624-2.561 1.403-2.961c.78-.399 1.403.222 1.403 1.443 0 1.222-.623 2.561-1.403 2.99v-.029Z" fill="#92E3A9"/><path d="M99.141 136.909a2.58 2.58 0 0 1-1.246-.31c-1.224-.674-1.917-2.287-1.917-4.441 0-3.634 2.041-7.711 4.551-9.088a3.01 3.01 0 0 1 2.945-.163c1.224.666 1.917 2.287 1.917 4.441 0 3.633-2.034 7.711-4.543 9.088a3.563 3.563 0 0 1-1.707.473Zm3.118-13.713a2.872 2.872 0 0 0-1.38.4c-2.338 1.28-4.231 5.121-4.231 8.562 0 1.902.592 3.368 1.597 3.915a2.353 2.353 0 0 0 2.338-.163c2.338-1.28 4.232-5.121 4.232-8.562 0-1.902-.6-3.368-1.606-3.915a1.91 1.91 0 0 0-.982-.237h.032Z" fill="#92E3A9"/><path d="m110.808 120.421 23.854-13.077c.935-.518 1.691-.133 1.691.851a3.374 3.374 0 0 1-.506 1.545c-.294.471-.7.869-1.185 1.164l-23.854 13.077c-.935.511-1.699.133-1.699-.851a3.37 3.37 0 0 1 .509-1.547 3.575 3.575 0 0 1 1.19-1.162Z" fill="#455A64"/><path d="M109.515 128.916a.428.428 0 0 1-.306-.04.388.388 0 0 1-.185-.234.366.366 0 0 1 .042-.29.401.401 0 0 1 .246-.176l17.924-9.806a.41.41 0 0 1 .325-.075.402.402 0 0 1 .274.184.377.377 0 0 1 .034.317.377.377 0 0 1-.088.14.418.418 0 0 1-.14.093l-17.885 9.806a.385.385 0 0 1-.241.081ZM186.119 81.086a2.1 2.1 0 0 0 .688-.7c.168-.282.263-.598.278-.921 0-.592-.436-.836-.974-.54a2.094 2.094 0 0 0-.695.694c-.171.28-.269.596-.287.92.008.606.444.85.99.547ZM189.329 79.34a2.11 2.11 0 0 0 .693-.696c.171-.28.269-.595.289-.918 0-.592-.437-.836-.982-.54-.284.178-.52.416-.69.697-.169.28-.266.594-.285.916 0 .592.437.837.975.54ZM182.9 82.847c.286-.176.524-.414.695-.695.171-.28.269-.595.287-.919 0-.592-.437-.836-.982-.532-.284.176-.52.413-.689.692a1.976 1.976 0 0 0-.285.913c0 .593.436.859.974.54ZM133.314 118.304a3.405 3.405 0 0 0 1.108-1.129c.271-.454.425-.962.451-1.483 0-.962-.709-1.355-1.559-.874-.458.29-.837.678-1.108 1.134a3.2 3.2 0 0 0-.45 1.486c0 .962.693 1.355 1.558.866ZM97.66 141.335l88.427-48.482c.935-.511 1.691-.148 1.691.806a3.31 3.31 0 0 1-.51 1.525 3.534 3.534 0 0 1-1.181 1.14l-88.426 48.482c-.927.51-1.683.148-1.683-.807.04-.538.214-1.06.507-1.523a3.524 3.524 0 0 1 1.176-1.141Z" fill="#E0E0E0"/><path d="m98.932 154.507-1.014-.259c-.958-.237-2.104-.74-2.104-1.939.05-.478.216-.939.487-1.345.27-.407.638-.747 1.072-.994a1.023 1.023 0 0 1 1.003-.096c.16.073.297.186.395.326a.896.896 0 0 1 .16.474 3.677 3.677 0 0 1 1.559-2.398c.857-.474 1.559-.193 1.559.629 0 1.169-1.146 2.96-2.104 4.24l-1.013 1.362Z" fill="#92E3A9"/><path d="M107.27 149.994a1.617 1.617 0 0 1-.779-.193 1.928 1.928 0 0 1-.68-.766 1.826 1.826 0 0 1-.178-.988 5.357 5.357 0 0 1 .773-2.466 5.685 5.685 0 0 1 1.861-1.87c.279-.222.623-.356.984-.386.362-.031.725.045 1.04.217.315.172.567.431.722.743.155.312.206.662.146 1.002a4.084 4.084 0 0 1-.164 1.103l.857 1.117a.216.216 0 0 1 .039.122.213.213 0 0 1-.039.122.23.23 0 0 1-.218.126h-1.333a5.17 5.17 0 0 1-1.8 1.754 2.651 2.651 0 0 1-1.231.363Zm2.244-6.172a2.084 2.084 0 0 0-.997.296 5.14 5.14 0 0 0-1.69 1.693 4.839 4.839 0 0 0-.703 2.236c-.063.257-.037.526.073.768.11.242.299.443.54.575a1.347 1.347 0 0 0 1.53-.166 4.728 4.728 0 0 0 1.668-1.672.243.243 0 0 1 .092-.088.276.276 0 0 1 .126-.031h.982l-.608-.799a.21.21 0 0 1-.07-.229c.117-.355.178-.724.179-1.096a1.41 1.41 0 0 0-.118-.746 1.492 1.492 0 0 0-.489-.593 1.066 1.066 0 0 0-.515-.119v-.029ZM115.943 145.524h-.039a.242.242 0 0 1-.148-.074.22.22 0 0 1-.062-.148l-.218-3.382-2.112-.541a.242.242 0 0 1-.187-.199.234.234 0 0 1 .027-.132.254.254 0 0 1 .097-.098l5.034-2.76a.26.26 0 0 1 .281 0 .234.234 0 0 1 .078.259l-2.525 6.919a.24.24 0 0 1-.088.111.258.258 0 0 1-.138.045Zm-1.878-4.441 1.714.437c.051.013.095.04.127.079a.222.222 0 0 1 .053.136l.156 2.375 1.893-5.18-3.943 2.153Z" fill="#E0E0E0"/><path d="M115.709 141.972a.267.267 0 0 1-.148-.044.237.237 0 0 1-.09-.25.237.237 0 0 1 .044-.083l2.743-3.345a.256.256 0 0 1 .165-.092.27.27 0 0 1 .098.006.249.249 0 0 1 .152.111.233.233 0 0 1 .025.18.227.227 0 0 1-.043.083l-2.751 3.345a.24.24 0 0 1-.195.089ZM183.851 107.912h-.055a.242.242 0 0 1-.139-.082.226.226 0 0 1-.055-.147v-5.521a.213.213 0 0 1 .032-.117.23.23 0 0 1 .092-.083l3.679-2.028a.253.253 0 0 1 .341.088.23.23 0 0 1 .033.12v5.513a.218.218 0 0 1-.043.13.24.24 0 0 1-.113.085.25.25 0 0 1-.14.017.232.232 0 0 1-.125-.062l-1.598-1.48-1.683 3.464a.255.255 0 0 1-.226.103Zm.249-5.609v4.307l1.356-2.798a.22.22 0 0 1 .072-.088.231.231 0 0 1 .108-.045.248.248 0 0 1 .118.006.246.246 0 0 1 .1.061l1.426 1.347v-4.544l-3.18 1.754Z" fill="#E0E0E0"/><path d="M188.924 212.569c0 2.02-1.496 3.315-3.343 4.322L79.863 274.839c-1.84 1.013-3.344.192-3.344-1.836v-92.435c.001-1.111.308-2.202.892-3.164a6.514 6.514 0 0 1 2.436-2.32l105.726-57.992a2.322 2.322 0 0 1 2.236-.005c.34.186.622.455.818.778.196.323.298.689.297 1.062v93.642Z" fill="#000" opacity=".2"/><path d="m188.448 119.968-103.38 56.608a4.999 4.999 0 0 0-1.652 1.647 4.71 4.71 0 0 0-.686 2.179v91.029c.042.767.276 1.513.683 2.177a4.956 4.956 0 0 0 1.654 1.642l1.489.777a5.392 5.392 0 0 0 2.338.531c.812 0 1.613-.182 2.337-.531l102.57-56.246c1.286-.703 3.118-2.856 3.118-4.27v-90.903a4.69 4.69 0 0 0-.686-2.176 4.99 4.99 0 0 0-1.652-1.643l-1.458-.792a5.408 5.408 0 0 0-2.334-.543 5.414 5.414 0 0 0-2.341.514Z" fill="#92E3A9"/><path opacity=".25" d="m188.448 119.968-103.38 56.608a4.999 4.999 0 0 0-1.652 1.647 4.71 4.71 0 0 0-.686 2.179v91.029c.042.767.276 1.513.683 2.177a4.956 4.956 0 0 0 1.654 1.642l1.489.777a5.392 5.392 0 0 0 2.338.531c.812 0 1.613-.182 2.337-.531l102.57-56.246c1.286-.703 3.118-2.856 3.118-4.27v-90.903a4.69 4.69 0 0 0-.686-2.176 4.99 4.99 0 0 0-1.652-1.643l-1.458-.792a5.408 5.408 0 0 0-2.334-.543 5.414 5.414 0 0 0-2.341.514Z" fill="#000"/><path d="M196.895 215.635c0 1.939-1.434 3.182-3.219 4.151L92.073 275.514c-1.769.977-3.218.192-3.218-1.761v-89.068a5.862 5.862 0 0 1 .86-3.041 6.268 6.268 0 0 1 2.342-2.229l101.619-55.742a2.246 2.246 0 0 1 2.145.005c.326.179.597.436.785.746.189.309.288.66.289 1.018v90.193Z" fill="#FAFAFA"/><path d="M194.744 124.17c.356 0 .697.134.948.372.251.239.393.563.393.901v90.192c0 1.347-.865 2.428-2.814 3.486l-101.603 55.72a2.26 2.26 0 0 1-1.029.311c-.88 0-.974-.992-.974-1.413v-89.054a5.134 5.134 0 0 1 .752-2.656 5.487 5.487 0 0 1 2.046-1.947l101.634-55.742c.203-.114.435-.173.671-.17m0-.74a2.249 2.249 0 0 0-1.068.273L92.08 179.446a6.264 6.264 0 0 0-2.342 2.228 5.864 5.864 0 0 0-.86 3.041v89.038c0 1.384.733 2.221 1.784 2.221a3.046 3.046 0 0 0 1.434-.422L193.7 219.839c1.785-.97 3.218-2.22 3.218-4.152v-90.244a1.99 1.99 0 0 0-.63-1.445 2.208 2.208 0 0 0-1.52-.598v.03Z" fill="#E6E6E6"/><path d="M196.895 124.607v.874a1.964 1.964 0 0 0-.291-1.019 2.106 2.106 0 0 0-.788-.745 2.236 2.236 0 0 0-1.074-.271c-.377 0-.747.094-1.073.273L92.057 179.425a6.077 6.077 0 0 0-2.338 2.22.251.251 0 0 0 0 .066l-6.28-3.448a4.54 4.54 0 0 1 1.675-1.68l103.372-56.616a5.425 5.425 0 0 1 2.338-.528c.812 0 1.613.181 2.338.528l1.45.792a4.945 4.945 0 0 1 1.631 1.662c.397.67.62 1.419.652 2.186Z" fill="#92E3A9"/><path opacity=".45" d="M196.895 124.607v.874a1.964 1.964 0 0 0-.291-1.019 2.106 2.106 0 0 0-.788-.745 2.236 2.236 0 0 0-1.074-.271c-.377 0-.747.094-1.073.273L92.057 179.425a6.077 6.077 0 0 0-2.338 2.22.251.251 0 0 0 0 .066l-6.28-3.448a4.54 4.54 0 0 1 1.675-1.68l103.372-56.616a5.425 5.425 0 0 1 2.338-.528c.812 0 1.613.181 2.338.528l1.45.792a4.945 4.945 0 0 1 1.631 1.662c.397.67.62 1.419.652 2.186Z" fill="#fff"/><path d="M100.685 180.176c-2.423 1.332-4.387 5.284-4.387 8.837 0 1.909.576 3.3 1.48 3.981l.078-.607c.068-.674.28-1.328.625-1.922a5.015 5.015 0 0 1 1.378-1.526l1.66-.911c.966-.532 1.792 0 2.003 1.258l.086.496a12.132 12.132 0 0 0 1.465-5.58c0-3.552-1.964-5.343-4.388-4.026Zm0 6.661c-.779.422-1.403-.222-1.403-1.443s.624-2.554 1.403-2.961c.78-.407 1.403.222 1.403 1.481 0 1.258-.623 2.531-1.403 2.952v-.029Z" fill="#92E3A9"/><path d="M99.141 193.758a2.592 2.592 0 0 1-1.246-.311c-1.224-.666-1.917-2.287-1.917-4.441 0-3.633 2.041-7.711 4.551-9.088a3.01 3.01 0 0 1 2.945-.163c1.224.674 1.917 2.287 1.917 4.441 0 3.634-2.034 7.711-4.543 9.088a3.575 3.575 0 0 1-1.707.474Zm3.118-13.707a2.854 2.854 0 0 0-1.38.393c-2.338 1.28-4.231 5.121-4.231 8.562 0 1.902.592 3.368 1.597 3.915a2.324 2.324 0 0 0 2.338-.162c2.338-1.281 4.232-5.122 4.232-8.563 0-1.902-.6-3.367-1.606-3.915a1.908 1.908 0 0 0-.982-.23h.032Z" fill="#92E3A9"/><path d="m110.808 177.27 23.854-13.077c.935-.511 1.691-.133 1.691.851a3.34 3.34 0 0 1-.504 1.546c-.294.471-.7.869-1.187 1.162l-23.854 13.1c-.935.51-1.699.133-1.699-.851a3.36 3.36 0 0 1 .504-1.56 3.57 3.57 0 0 1 1.195-1.171Z" fill="#455A64"/><path d="M109.514 185.767a.42.42 0 0 1-.35-.185.367.367 0 0 1-.041-.292.389.389 0 0 1 .189-.234l17.923-9.806a.428.428 0 0 1 .484-.01.377.377 0 0 1 .115.12c.029.047.048.1.054.154a.387.387 0 0 1-.019.162.395.395 0 0 1-.228.233l-17.885 9.813a.478.478 0 0 1-.242.045ZM186.119 137.926c.284-.178.52-.416.689-.696.169-.281.267-.595.285-.917 0-.592-.437-.829-.974-.533a2.085 2.085 0 0 0-.695.69c-.171.28-.27.594-.287.916 0 .607.436.851.982.54ZM189.329 136.187c.286-.176.524-.414.695-.694.17-.281.269-.595.287-.919 0-.592-.437-.829-.982-.533-.284.176-.52.414-.689.693-.17.279-.267.592-.286.913 0 .592.437.837.975.54ZM182.9 139.696c.286-.177.524-.415.695-.695.171-.281.269-.595.287-.919 0-.592-.437-.829-.982-.533-.284.177-.52.414-.689.693a1.976 1.976 0 0 0-.285.913c0 .592.436.837.974.541ZM133.314 175.161c.458-.29.838-.678 1.108-1.133.271-.455.425-.964.451-1.486 0-.963-.709-1.355-1.559-.874a3.417 3.417 0 0 0-1.107 1.134 3.214 3.214 0 0 0-.451 1.486c0 .962.693 1.384 1.558.873ZM97.66 198.184l71.134-39.017c.928-.511 1.683-.148 1.683.814a3.327 3.327 0 0 1-.508 1.519 3.544 3.544 0 0 1-1.175 1.138l-71.133 39.017c-.927.51-1.683.148-1.683-.807.04-.538.214-1.06.507-1.523a3.524 3.524 0 0 1 1.176-1.141ZM97.66 205.273l40.469-22.202c.935-.51 1.691-.148 1.691.814a3.311 3.311 0 0 1-.511 1.521c-.294.461-.698.85-1.18 1.136l-40.468 22.202c-.927.511-1.683.148-1.683-.806a3.32 3.32 0 0 1 .507-1.523 3.536 3.536 0 0 1 1.176-1.142Z" fill="#E0E0E0"/><path d="m98.932 266.02-1.014-.251c-.958-.237-2.104-.74-2.104-1.939.05-.479.216-.94.487-1.346.27-.406.638-.746 1.072-.993a1.011 1.011 0 0 1 1.02-.087.96.96 0 0 1 .393.341.889.889 0 0 1 .146.486 3.681 3.681 0 0 1 1.558-2.398c.857-.473 1.559-.192 1.559.622 0 1.177-1.146 2.96-2.104 4.248l-1.013 1.317Z" fill="#92E3A9"/><path d="M107.27 261.519a1.56 1.56 0 0 1-.779-.192 1.924 1.924 0 0 1-.68-.762 1.816 1.816 0 0 1-.178-.985c.05-.869.315-1.715.772-2.47a5.71 5.71 0 0 1 1.862-1.874 2.106 2.106 0 0 1 2.027-.163c.296.191.533.453.685.761.152.307.214.648.18.986a4.09 4.09 0 0 1-.164 1.103l.857 1.11a.224.224 0 0 1 0 .251.237.237 0 0 1-.091.092.254.254 0 0 1-.127.034h-1.333a5.179 5.179 0 0 1-1.8 1.754 2.63 2.63 0 0 1-1.231.355Zm2.244-6.172a2.187 2.187 0 0 0-.997.296 5.149 5.149 0 0 0-1.691 1.698 4.85 4.85 0 0 0-.702 2.239c-.063.257-.037.526.073.768.11.241.3.443.54.575a1.347 1.347 0 0 0 1.53-.166 4.695 4.695 0 0 0 1.692-1.702.234.234 0 0 1 .092-.087.262.262 0 0 1 .126-.032h.982l-.608-.791a.233.233 0 0 1-.07-.109.215.215 0 0 1 0-.128c.116-.352.177-.719.179-1.088a1.42 1.42 0 0 0-.118-.746 1.498 1.498 0 0 0-.49-.594 1.061 1.061 0 0 0-.538-.148v.015ZM115.944 257.079h-.039a.253.253 0 0 1-.147-.076.232.232 0 0 1-.064-.146l-.218-3.382-2.112-.541a.26.26 0 0 1-.125-.073.242.242 0 0 1-.062-.126.221.221 0 0 1 .027-.133.247.247 0 0 1 .098-.097l5.034-2.76a.24.24 0 0 1 .28 0 .232.232 0 0 1 .08.118.227.227 0 0 1-.002.141l-2.525 6.882a.265.265 0 0 1-.225.193Zm-1.879-4.441 1.715.444a.249.249 0 0 1 .125.076.227.227 0 0 1 .054.132l.156 2.383 1.894-5.181-3.944 2.146Z" fill="#E0E0E0"/><path d="M115.71 253.49a.225.225 0 0 1-.148-.052.219.219 0 0 1-.064-.068.204.204 0 0 1-.032-.086.228.228 0 0 1 .049-.172l2.743-3.345a.258.258 0 0 1 .351-.044.23.23 0 0 1 .047.333l-2.751 3.323a.242.242 0 0 1-.195.111ZM183.851 219.432h-.055a.25.25 0 0 1-.139-.083.222.222 0 0 1-.055-.147v-5.513a.21.21 0 0 1 .032-.117.23.23 0 0 1 .092-.083l3.679-2.028a.253.253 0 0 1 .249 0 .223.223 0 0 1 .125.2v5.521a.22.22 0 0 1-.043.13.24.24 0 0 1-.113.085.26.26 0 0 1-.141.012.247.247 0 0 1-.124-.064l-1.598-1.48-1.683 3.471a.258.258 0 0 1-.226.096Zm.249-5.617v4.307l1.356-2.79a.215.215 0 0 1 .18-.133.253.253 0 0 1 .218.059l1.426 1.347v-4.537l-3.18 1.747Z" fill="#E0E0E0"/><path d="M95.346 214.613v42.924c0 .615.452.866 1.013.555l42.292-23.216a2.2 2.2 0 0 0 .714-.719c.176-.289.278-.613.299-.946v-42.924c0-.614-.46-.859-1.013-.555l-42.292 23.194a2.168 2.168 0 0 0-.723.726 2.04 2.04 0 0 0-.29.961Z" fill="#92E3A9"/><path opacity=".5" d="M95.346 214.613v42.924c0 .615.452.866 1.013.555l42.292-23.216a2.2 2.2 0 0 0 .714-.719c.176-.289.278-.613.299-.946v-42.924c0-.614-.46-.859-1.013-.555l-42.292 23.194a2.168 2.168 0 0 0-.723.726 2.04 2.04 0 0 0-.29.961Z" fill="#fff"/><path opacity=".5" d="m97.684 214.783 39.642-21.736v40.001l-39.642 21.736v-40.001Z" fill="#fff"/><path d="M97.684 254.785v-12.996l10.699-23.083 17.456 11.516-5.782-5.581 7.356-8.762 9.913 4.27v12.9l-39.642 21.736ZM123.837 204.824c1.745-.962 3.164-.185 3.164 1.732a6.416 6.416 0 0 1-.935 2.947 6.825 6.825 0 0 1-2.229 2.233c-1.754.962-3.172.185-3.172-1.731a6.424 6.424 0 0 1 .938-2.949 6.828 6.828 0 0 1 2.234-2.232Z" fill="#fff"/><path d="M145.993 186.839v42.924c0 .614.452.859 1.013.555l42.292-23.186c.294-.184.539-.43.715-.719.176-.289.278-.613.298-.947v-42.924c0-.614-.452-.858-1.013-.555l-42.292 23.187c-.295.182-.54.428-.716.717a2.045 2.045 0 0 0-.297.948Z" fill="#92E3A9"/><path opacity=".5" d="M145.993 186.839v42.924c0 .614.452.859 1.013.555l42.292-23.186c.294-.184.539-.43.715-.719.176-.289.278-.613.298-.947v-42.924c0-.614-.452-.858-1.013-.555l-42.292 23.187c-.295.182-.54.428-.716.717a2.045 2.045 0 0 0-.297.948Z" fill="#fff"/><path opacity=".5" d="m148.331 187.009 39.642-21.729v39.994l-39.642 21.736v-40.001Z" fill="#fff"/><path d="M148.331 227.008V214.02l10.707-23.083 17.449 11.515-5.783-5.58 7.365-8.762 9.904 4.263v12.899l-39.642 21.736ZM174.483 177.055c1.746-.962 3.164-.185 3.164 1.732a6.427 6.427 0 0 1-.934 2.947 6.828 6.828 0 0 1-2.23 2.233c-1.745.955-3.164.178-3.164-1.739a6.422 6.422 0 0 1 .936-2.943 6.832 6.832 0 0 1 2.228-2.23Z" fill="#fff"/><path d="m256.44 60.398-3.748-2.057c-1.38-.74-3.437-.629-5.736.637-3.187 1.739-5.907 5.972-7.014 9.524l-2.657-1.48c-1.364-.866-3.234-.999-5.307.133-.257.141-.514.296-.779.452l-.39.274-.343.237c-.179.133-.35.273-.522.414l-.195.148-.584.525-.094.082c-.21.2-.421.414-.631.629a17.726 17.726 0 0 0-1.722 2.139 11.995 11.995 0 0 0-2.291 6.394c0 3.752 2.447 6.15 5.455 7.682l2.953 1.62c1.75 1 3.646 1.75 5.627 2.22l4.87 1.222 4.847-6.55c4.676-6.246 10.131-14.89 10.131-20.552.024-1.813-.693-3.078-1.87-3.692Z" fill="#92E3A9"/><path opacity=".45" d="m256.44 60.398-3.748-2.057c-1.38-.74-3.437-.629-5.736.637-3.187 1.739-5.907 5.972-7.014 9.524l-2.657-1.48c-1.364-.866-3.234-.999-5.307.133-.257.141-.514.296-.779.452l-.39.274-.343.237c-.179.133-.35.273-.522.414l-.195.148-.584.525-.094.082c-.21.2-.421.414-.631.629a17.726 17.726 0 0 0-1.722 2.139 11.995 11.995 0 0 0-2.291 6.394c0 3.752 2.447 6.15 5.455 7.682l2.953 1.62c1.75 1 3.646 1.75 5.627 2.22l4.87 1.222 4.847-6.55c4.676-6.246 10.131-14.89 10.131-20.552.024-1.813-.693-3.078-1.87-3.692Z" fill="#fff"/><path d="m232.78 87.76-2.915-1.592c-2.992-1.532-5.455-3.922-5.455-7.682.124-2.293.92-4.508 2.299-6.394l3.834 2.102a11.904 11.904 0 0 0-2.291 6.394c.016 3.36 1.964 5.632 4.528 7.171Z" fill="#92E3A9"/><path d="m232.78 87.76-2.915-1.592c-2.992-1.532-5.455-3.922-5.455-7.681.124-2.294.92-4.508 2.299-6.395l3.834 2.102a11.904 11.904 0 0 0-2.291 6.394c.016 3.36 1.964 5.632 4.528 7.172Z" fill="#fff" opacity=".2"/><path d="M256.439 60.377c-1.379-.74-3.398-.533-5.627.696-3.841 2.101-7.013 7.822-7.489 11.604-.483-3.249-3.647-5.499-7.489-3.397a15.712 15.712 0 0 0-5.252 4.914l-3.857-2.131c.054-.09.117-.178.179-.267l.156-.214.397-.533c.39-.481.779-.948 1.247-1.399l.335-.326c.086-.074.164-.155.242-.229a14.114 14.114 0 0 1 2.696-1.946 6.03 6.03 0 0 1 2.915-.822 4.408 4.408 0 0 1 2.392.688l2.657 1.48c1.107-3.552 3.827-7.785 7.014-9.524 2.299-1.266 4.356-1.414 5.735-.637l3.749 2.043Z" fill="#92E3A9"/><path opacity=".75" d="M256.439 60.377c-1.379-.74-3.398-.533-5.627.696-3.841 2.101-7.013 7.822-7.489 11.604-.483-3.249-3.647-5.499-7.489-3.397a15.712 15.712 0 0 0-5.252 4.914l-3.857-2.131c.054-.09.117-.178.179-.267l.156-.214.397-.533c.39-.481.779-.948 1.247-1.399l.335-.326c.086-.074.164-.155.242-.229a14.114 14.114 0 0 1 2.696-1.946 6.03 6.03 0 0 1 2.915-.822 4.408 4.408 0 0 1 2.392.688l2.657 1.48c1.107-3.552 3.827-7.785 7.014-9.524 2.299-1.266 4.356-1.414 5.735-.637l3.749 2.043Z" fill="#fff"/><path d="m256.602 28.153-1.925-1.05c-.717-.4-1.769-.327-2.953.325-1.629.895-3.024 3.064-3.6 4.892l-1.364-.74a2.597 2.597 0 0 0-1.37-.35 2.586 2.586 0 0 0-1.35.416l-.397.237-.195.14-.179.119c-.094.067-.18.14-.265.215l-.102.074-.304.273-.046.037a6.341 6.341 0 0 0-.32.326 8.752 8.752 0 0 0-.888 1.095 6.148 6.148 0 0 0-1.177 3.286c0 1.932 1.255 3.16 2.798 3.945l1.511.829c.899.512 1.874.894 2.892 1.132l2.501.63 2.494-3.368c2.384-3.212 5.221-7.645 5.221-10.554a1.938 1.938 0 0 0-.205-1.087 2.066 2.066 0 0 0-.777-.822Z" fill="#92E3A9"/><path opacity=".3" d="m256.602 28.153-1.925-1.05c-.717-.4-1.769-.327-2.953.325-1.629.895-3.024 3.064-3.6 4.892l-1.364-.74a2.597 2.597 0 0 0-1.37-.35 2.586 2.586 0 0 0-1.35.416l-.397.237-.195.14-.179.119c-.094.067-.18.14-.265.215l-.102.074-.304.273-.046.037a6.341 6.341 0 0 0-.32.326 8.752 8.752 0 0 0-.888 1.095 6.148 6.148 0 0 0-1.177 3.286c0 1.932 1.255 3.16 2.798 3.945l1.511.829c.899.512 1.874.894 2.892 1.132l2.501.63 2.494-3.368c2.384-3.212 5.221-7.645 5.221-10.554a1.938 1.938 0 0 0-.205-1.087 2.066 2.066 0 0 0-.777-.822Z" fill="#000"/><path d="m244.453 42.2-1.488-.814c-1.559-.784-2.798-2.013-2.798-3.945a6.149 6.149 0 0 1 1.177-3.285l1.971 1.08a6.148 6.148 0 0 0-1.176 3.286c.007.753.225 1.49.632 2.137a4.365 4.365 0 0 0 1.682 1.541Z" fill="#92E3A9"/><path d="m244.453 42.202-1.488-.814c-1.559-.785-2.798-2.013-2.798-3.945a6.148 6.148 0 0 1 1.177-3.285l1.971 1.08a6.147 6.147 0 0 0-1.176 3.286c.007.753.225 1.49.632 2.137a4.364 4.364 0 0 0 1.682 1.541Z" fill="#000" opacity=".45"/><path d="M256.594 28.14c-.709-.363-1.745-.267-2.891.362-1.971 1.073-3.6 4.018-3.842 5.92a2.22 2.22 0 0 0-.408-1.154 2.4 2.4 0 0 0-.969-.797 2.546 2.546 0 0 0-2.465.205 8.124 8.124 0 0 0-2.704 2.523l-1.971-1.08.093-.133.086-.111.203-.274c.202-.252.413-.489.639-.74l.171-.17.125-.111a7.098 7.098 0 0 1 1.387-1.007c.452-.26.968-.403 1.496-.414a2.26 2.26 0 0 1 1.224.348l1.363.74c.577-1.828 1.972-3.997 3.608-4.892 1.177-.652 2.237-.74 2.946-.326l1.909 1.11Z" fill="#92E3A9"/><path opacity=".15" d="M256.594 28.14c-.709-.363-1.745-.267-2.891.362-1.971 1.073-3.6 4.018-3.842 5.92a2.22 2.22 0 0 0-.408-1.154 2.4 2.4 0 0 0-.969-.797 2.546 2.546 0 0 0-2.465.205 8.124 8.124 0 0 0-2.704 2.523l-1.971-1.08.093-.133.086-.111.203-.274c.202-.252.413-.489.639-.74l.171-.17.125-.111a7.098 7.098 0 0 1 1.387-1.007c.452-.26.968-.403 1.496-.414a2.26 2.26 0 0 1 1.224.348l1.363.74c.577-1.828 1.972-3.997 3.608-4.892 1.177-.652 2.237-.74 2.946-.326l1.909 1.11Z" fill="#000"/><path d="M218.527 28.669c.351-.287.638-.638.844-1.032.206-.394.327-.823.356-1.262 0-1.258-.982-.977-.982-.977a3.365 3.365 0 0 0 .779-2.02 1.087 1.087 0 0 0-.111-.571 1.15 1.15 0 0 0-.395-.443l-2.502-1.332a.967.967 0 0 0-1.036.073l-2.19 1.207a5.29 5.29 0 0 0-.491-1.614 1.004 1.004 0 0 0-.475-.503l-2.486-1.325c-.834-.518-2.284.467-2.284.859 0 .259.063 1.154.086 2.013v.555c.015.355-.017.71-.093 1.058-.03.104-.066.205-.11.304 0 .052-.046.118-.07.185l-.124.288-.359.822c0 .074-.062.155-.101.23-.374.858-.818 1.842-1.161 2.582l-.172.378-.343.74V39.03l2.549 1.399 8.159-4.485c.5-.285.924-.675 1.239-1.141.315-.466.513-.995.577-1.545a2.662 2.662 0 0 0-.156-1.162 3.66 3.66 0 0 0 1.379-2.34c-.008-.85-.327-1.087-.327-1.087Z" fill="#92E3A9"/><g opacity=".4" fill="#fff"><path d="M212.332 20.196a2.02 2.02 0 0 0-1.262.093 1.89 1.89 0 0 0-.928.817l-2.58-1.376c0-.392 1.45-1.377 2.284-.859l2.486 1.325ZM219.034 22.365a1.031 1.031 0 0 0-.959.126l-4.932 2.701a8.065 8.065 0 0 0 .163-2.879l2.198-1.206a.974.974 0 0 1 1.028-.081l2.502 1.339Z"/></g><path d="m207.702 40.41-2.579-1.414-.008-10.117 2.58 1.414.007 10.117Z" fill="#000" opacity=".2"/><path d="M210.142 24.734c-.203.74-2.447 5.558-2.447 5.558l-2.58-1.377s2.237-4.855 2.455-5.558c.102-1.207.102-2.42 0-3.626l2.579 1.376c.107 1.207.105 2.42-.007 3.627Z" fill="#fff" opacity=".2"/><path d="M206.566 31.157a.87.87 0 0 0-.141-.437.883.883 0 0 0-.335-.333l-1.636-.903a1.109 1.109 0 0 0-.943 0l-2.619 1.436a1.021 1.021 0 0 0-.335.333 1 1 0 0 0-.132.444v10.76a.943.943 0 0 0 .144.422c.081.128.191.237.323.319l1.637.903a.99.99 0 0 0 .475.103.962.962 0 0 0 .468-.103l2.626-1.444c.132-.08.243-.19.325-.318a.943.943 0 0 0 .143-.422v-10.76Z" fill="#92E3A9"/><path d="M202.964 32.601v11.62a.99.99 0 0 1-.475-.104l-1.637-.918a1.007 1.007 0 0 1-.323-.319.943.943 0 0 1-.144-.42V31.697a.988.988 0 0 1 .132-.444l2.447 1.347Z" fill="#fff" opacity=".2"/><path d="m206.386 30.72-3.421 1.88-2.447-1.346c.082-.135.197-.249.335-.333l2.595-1.436a1.103 1.103 0 0 1 .943 0l1.636.903c.15.077.274.192.359.333Z" fill="#fff" opacity=".4"/><path d="M215.005 277.803a1.555 1.555 0 0 1-.413-.059 1.314 1.314 0 0 1-.766-.631 1.21 1.21 0 0 1-.076-.96l10.217-29.344c1.121-2.588 3.056-4.785 5.54-6.291l42.401-23.245a4.086 4.086 0 0 1 1.892-.647 4.14 4.14 0 0 1 1.981.321c.62.267 1.157.682 1.559 1.205.401.523.654 1.135.732 1.778l5.214 14.209c.115.314.093.658-.059.958a1.303 1.303 0 0 1-.755.637 1.385 1.385 0 0 1-1.009-.057 1.278 1.278 0 0 1-.671-.717l-5.244-14.342a1.004 1.004 0 0 1-.055-.207 1.246 1.246 0 0 0-.199-.72 1.346 1.346 0 0 0-.583-.497 1.428 1.428 0 0 0-1.486.203l-42.401 23.245c-1.939 1.204-3.458 2.927-4.364 4.952L216.259 276.9c-.08.259-.245.486-.47.648a1.366 1.366 0 0 1-.784.255ZM277.675 312.817h-.156a1.34 1.34 0 0 1-.881-.473 1.212 1.212 0 0 1-.272-.925l4.231-33.615a9.522 9.522 0 0 1 1.539-3.848 10.064 10.064 0 0 1 3.067-2.908l42.401-23.246a5.082 5.082 0 0 1 4.047-.428 4.92 4.92 0 0 1 1.79 1.014 4.611 4.611 0 0 1 1.177 1.634v.067l8.4 29.033a1.201 1.201 0 0 1-.172 1.51 1.322 1.322 0 0 1-.472.302 1.388 1.388 0 0 1-1.108-.064 1.285 1.285 0 0 1-.43-.353 1.215 1.215 0 0 1-.233-.492l-8.386-28.989a2.105 2.105 0 0 0-.543-.768 2.25 2.25 0 0 0-.836-.473 2.309 2.309 0 0 0-1.886.227l-42.401 23.253a7.522 7.522 0 0 0-2.177 2.105 7.111 7.111 0 0 0-1.127 2.75L279 311.744a1.239 1.239 0 0 1-.451.772 1.359 1.359 0 0 1-.874.301Z" fill="#263238"/><path d="M278.259 276.324a8.796 8.796 0 0 1-4.161-.962l-48.612-26.642c-.62-.24-1.15-.65-1.523-1.177a3.087 3.087 0 0 1-.572-1.784c0-.635.199-1.256.572-1.783a3.337 3.337 0 0 1 1.523-1.177l49.492-27.161a9.463 9.463 0 0 1 4.162-.96c1.448 0 2.874.329 4.161.96l48.612 26.643c.619.24 1.149.65 1.523 1.177.373.527.572 1.148.572 1.783a3.09 3.09 0 0 1-.572 1.784 3.338 3.338 0 0 1-1.523 1.176L282.42 275.34a8.792 8.792 0 0 1-4.161.984Zm.888-59.324a6.295 6.295 0 0 0-2.938.659l-49.492 27.138c-.53.289-.857.644-.857.933 0 .288.327.644.857.932l48.604 26.702a6.872 6.872 0 0 0 2.934.655 6.869 6.869 0 0 0 2.934-.655l49.493-27.139c.53-.288.857-.651.857-.939 0-.289-.327-.644-.857-.933L282.07 217.71a6.27 6.27 0 0 0-2.93-.68l.007-.03Z" fill="#455A64"/><path d="M239.185 237.84a1.286 1.286 0 0 1-.77-.263 1.172 1.172 0 0 1-.43-.662l-4.987-21.707c-.044-.293.03-.59.207-.833a1.24 1.24 0 0 1 .75-.476c.304-.063.622-.014.89.137.268.151.466.393.553.676l4.995 21.648c.068.303.006.619-.17.879a1.238 1.238 0 0 1-.773.512 1.618 1.618 0 0 1-.265.089ZM262.495 225.022c-.281 0-.552-.091-.77-.258-.218-.167-.37-.4-.431-.659l-4.995-21.707a1.121 1.121 0 0 1 .199-.841c.177-.246.446-.419.752-.483s.627-.015.896.138c.269.152.467.397.553.683l4.996 21.706a1.113 1.113 0 0 1-.163.881c-.086.13-.2.241-.332.329a1.27 1.27 0 0 1-.44.182c-.087.02-.176.03-.265.029Z" fill="#37474F"/><path d="M277.668 196.24a1.157 1.157 0 0 0-.226-.583 1.234 1.234 0 0 0-.507-.394l-6.468-3.53a4.126 4.126 0 0 0-1.776-.4 4.13 4.13 0 0 0-1.777.4l-46.321 25.436a1.232 1.232 0 0 0-.507.393 1.146 1.146 0 0 0-.226.584v1.821c.02.21.098.411.227.583.129.171.303.307.506.393l6.437 3.531c.551.263 1.16.4 1.777.4s1.225-.137 1.776-.4l46.384-25.437c.202-.085.376-.219.505-.39.129-.17.207-.37.227-.579l-.031-1.828Z" fill="#37474F"/><path d="m276.934 195.263-6.468-3.53a4.126 4.126 0 0 0-1.776-.4 4.13 4.13 0 0 0-1.777.4l-38.139 20.944v12.204a3.83 3.83 0 0 0 1.777-.4l46.383-25.436c.202-.085.377-.22.506-.39.128-.171.207-.371.227-.58v-1.828a1.145 1.145 0 0 0-.225-.587 1.23 1.23 0 0 0-.508-.397Z" fill="#263238"/><path d="m266.945 191.735-46.352 25.436c-.214.07-.4.201-.531.375a.998.998 0 0 0-.202.598c0 .215.071.424.202.598.131.175.317.306.531.376l6.436 3.53a4.073 4.073 0 0 0 3.554 0l46.352-25.437c.203-.084.377-.218.506-.389s.207-.371.227-.58a1.153 1.153 0 0 0-.227-.583 1.231 1.231 0 0 0-.506-.394l-6.468-3.53a4.133 4.133 0 0 0-3.522 0Z" fill="#455A64"/><path d="m328.758 235.798-50.568-27.761a1.349 1.349 0 0 0-.644-.099c-.22.021-.431.096-.611.218l-48.16 26.413c-.519.319-.951.75-1.26 1.258a3.564 3.564 0 0 0-.517 1.665v7.053c-.021.209.015.42.107.611s.235.356.415.477l50.568 27.731a1.312 1.312 0 0 0 1.255-.111l48.16-26.421a3.793 3.793 0 0 0 1.258-1.255 3.563 3.563 0 0 0 .519-1.661v-7.053a1.148 1.148 0 0 0-.113-.598 1.21 1.21 0 0 0-.409-.467Z" fill="#92E3A9"/><path opacity=".15" d="m278.081 273.364-50.561-27.753a1.214 1.214 0 0 1-.415-.477 1.142 1.142 0 0 1-.107-.611v-7.053a3.371 3.371 0 0 1 .6-1.776l50.56 27.753a3.433 3.433 0 0 0-.592 1.776v7.053c-.024.208.011.419.101.61.091.191.233.356.414.478Z" fill="#000"/><path opacity=".25" d="M277.565 272.299v-7.075a3.57 3.57 0 0 1 .519-1.661c.309-.507.74-.937 1.258-1.255l48.16-26.413a1.27 1.27 0 0 1 .61-.224c.221-.021.444.016.645.105.18.122.323.286.415.477.092.191.129.402.107.611v7.053a3.563 3.563 0 0 1-.519 1.661c-.309.507-.74.937-1.258 1.255l-48.16 26.42a1.29 1.29 0 0 1-1.254.111 1.161 1.161 0 0 1-.415-.465 1.103 1.103 0 0 1-.108-.6Z" fill="#000"/><path d="m331.945 197.432-43.913-24.104a1.207 1.207 0 0 0-1.107.155l-6.445 3.531a4.743 4.743 0 0 0-2.119 2.893l-5.962 32.667c-.101.555 0 .94.312 1.095l43.913 24.097a1.183 1.183 0 0 0 1.114-.148l6.437-3.53c1.071-.671 1.83-1.707 2.12-2.894l5.961-32.666c.102-.563-.031-.94-.311-1.096Z" fill="#92E3A9"/><path opacity=".15" d="M316.304 236.672c-.093.562 0 .94.312 1.102l-43.905-24.104c-.289-.155-.413-.54-.312-1.088l5.962-32.674a4.13 4.13 0 0 1 .779-1.68l43.921 24.089a4.333 4.333 0 0 0-.78 1.673l-5.977 32.682Z" fill="#000"/><path opacity=".25" d="m317.738 237.619 6.437-3.53c1.071-.671 1.83-1.707 2.12-2.894l5.962-32.667c.101-.562 0-.939-.312-1.095a1.185 1.185 0 0 0-1.115.148l-6.436 3.53c-1.076.669-1.838 1.705-2.128 2.894l-5.954 32.667c-.101.562 0 .94.312 1.095a1.183 1.183 0 0 0 1.114-.148Z" fill="#000"/><path d="M245.639 269.204s4.122 9.621 4.325 13.381c.218 3.944 1.223 5.247.514 9.539-.156.933-.67 2.805-.779 3.568a1.08 1.08 0 0 0 .189.936c.102.134.233.244.385.324.152.08.32.127.493.138 1.801.355 4.801-2.856 6.235-6.357a99.45 99.45 0 0 0 3.569-12.33 5.113 5.113 0 0 0-.569-2.76 7.682 7.682 0 0 0-.826-1.428c-.592-1.717-.881-4.981-1.379-7.246l-12.157 2.235Z" fill="#FFA8A7"/><path d="M264.061 282.002c.239.399.403.835.483 1.287.047.792-1.831 3.383-2.563 4.322a6.129 6.129 0 0 0-1.356 4.485c-.02 2.577-1.003 5.064-2.775 7.016-2.35 2.705-5.511 4.667-9.063 5.625-4.372 1.28-5.915-.807-5.915-.807s-1.355-2.006-.537-2.827c.818-.821 21.726-19.101 21.726-19.101Z" fill="#37474F"/><path d="M259.144 274.215c.132 0 .374-.044.709.348.132.148.927 2.02 1.558 2.997.632.977 2.401 2.85 2.619 4.441-1.013 3.078-4.053 5.217-4.512 8.141-.46 2.923-.515 6.283-5.222 9.835-4.706 3.552-9.546 3.922-11.284 2.96-1.737-.962-1.558-2.716.85-6.083 2.571-3.575 4.309-11.323 4.309-11.323.232-1.085.391-2.182.476-3.286a21.165 21.165 0 0 0-.32-3.264 2.29 2.29 0 0 1 .218-1.48 2.598 2.598 0 0 1 1.294-.844 11.644 11.644 0 0 1 2.416-.777 3.994 3.994 0 0 1 2.493.289c.503.338 1.023.652 1.559.94.389.15.815.193 1.229.124a2.274 2.274 0 0 0 1.109-.516c.313-.232.541-.55.653-.912a1.71 1.71 0 0 0-.03-1.101 4.606 4.606 0 0 0-.124-.489Z" fill="#92E3A9"/><path opacity=".4" d="M259.144 274.215c.132 0 .374-.044.709.348.132.148.927 2.02 1.558 2.997.632.977 2.401 2.85 2.619 4.441-1.013 3.078-4.053 5.217-4.512 8.141-.46 2.923-.515 6.283-5.222 9.835-4.706 3.552-9.546 3.922-11.284 2.96-1.737-.962-1.558-2.716.85-6.083 2.571-3.575 4.309-11.323 4.309-11.323.232-1.085.391-2.182.476-3.286a21.165 21.165 0 0 0-.32-3.264 2.29 2.29 0 0 1 .218-1.48 2.598 2.598 0 0 1 1.294-.844 11.644 11.644 0 0 1 2.416-.777 3.994 3.994 0 0 1 2.493.289c.503.338 1.023.652 1.559.94.389.15.815.193 1.229.124a2.274 2.274 0 0 0 1.109-.516c.313-.232.541-.55.653-.912a1.71 1.71 0 0 0-.03-1.101 4.606 4.606 0 0 0-.124-.489Z" fill="#000"/><path d="M257.078 297.114a7.347 7.347 0 0 0-2.895-2.656 7.826 7.826 0 0 0-3.923-.852c-4.996 0-6.726 2.434-7.482 3.848-.911 1.695-1.854 4.759.211 5.639 2.221.948 4.8.659 8.86-1.273 4.06-1.931 5.229-4.706 5.229-4.706ZM256.175 282.822a.53.53 0 0 1-.452 0c-.779-.377-4.854-1.191-7.231.903-.312-.237-.25-.666.148-1.265 2.782-1.68 6.647-.925 7.582-.474a.47.47 0 0 1 .15.114.422.422 0 0 1 .102.343.43.43 0 0 1-.065.172.474.474 0 0 1-.234.207ZM247.977 286.494a1.402 1.402 0 0 1-.019-.684 1.44 1.44 0 0 1 .307-.618 9.802 9.802 0 0 1 7.224-.274.459.459 0 0 1 .244.274.431.431 0 0 1-.049.355.508.508 0 0 1-.234.207.53.53 0 0 1-.452 0c-.748-.362-4.621-1.132-7.021.74ZM245.936 292.902a2.582 2.582 0 0 1 .639-1.717c2.774-1.584 6.546-.851 7.465-.407a.47.47 0 0 1 .24.275.432.432 0 0 1-.045.354.527.527 0 0 1-.303.235.558.558 0 0 1-.39-.028c-.811-.392-5.315-1.28-7.606 1.288ZM254.725 288.686a.53.53 0 0 1-.452 0c-.779-.37-4.761-1.162-7.154.836a1.589 1.589 0 0 1 .038-.744c.071-.243.2-.466.376-.655a9.801 9.801 0 0 1 7.231-.273.459.459 0 0 1 .244.273.437.437 0 0 1-.049.356.513.513 0 0 1-.234.207Z" fill="#FAFAFA"/><path d="M241.406 281.454s-2.626 11.597-5.12 16.03c-2.493 4.433-3.771 6.572-7.068 9.858-.717.74-2.338 2.035-2.922 2.62a1.165 1.165 0 0 0-.322.41 1.117 1.117 0 0 0 .021.998c.081.155.197.291.34.398 1.325 1.324 7.208 1.887 10.622-.311 3.413-2.198 6.678-7.083 8.743-8.881a32.168 32.168 0 0 0 2.213-2.117c.702-.74.53-1.428.632-2.257.046-.407.039-1.48.039-1.48.553-1.947 1.932-4.981 2.673-6.868l-9.851-8.4Z" fill="#FFA8A7"/><path d="M249.309 305.579c.012.482-.062.963-.218 1.421-.366.74-3.437 2.265-4.606 2.798-1.614.695-2.888 1.95-3.561 3.508-1.208 2.383-3.538 4.078-6.195 5.18a20.044 20.044 0 0 1-11.284.977c-4.676-.858-5.05-3.5-5.05-3.5s-.218-2.487.958-2.865c1.177-.377 29.956-7.519 29.956-7.519Z" fill="#37474F"/><path d="M248.787 296.091c.125.051.358.133.475.651 0 .2-.187 2.302-.078 3.515.109 1.214.741 3.745.125 5.321-2.525 2.369-6.445 2.961-8.37 5.41-1.924 2.45-3.717 5.566-9.904 6.661-6.188 1.095-10.848-.822-11.97-2.501-1.122-1.68-.055-3.242 3.896-5.225 4.255-2.11 9.858-8.437 9.866-8.437a28.06 28.06 0 0 0 2.12-2.835 21.486 21.486 0 0 0 1.387-3.167c.174-.508.512-.951.966-1.266a2.908 2.908 0 0 1 1.637-.177c.891.042 1.774.178 2.634.407a4.01 4.01 0 0 1 2.15 1.428c.359.511.546 1.125.951 1.591.279.318.645.556 1.058.686.413.131.856.15 1.28.054a2.027 2.027 0 0 0 1.076-.537c.291-.281.481-.642.545-1.032.063-.179.115-.362.156-.547Z" fill="#92E3A9"/><path opacity=".4" d="M248.787 296.091c.125.051.358.133.475.651 0 .2-.187 2.302-.078 3.515.109 1.214.741 3.745.125 5.321-2.525 2.369-6.445 2.961-8.37 5.41-1.924 2.45-3.717 5.566-9.904 6.661-6.188 1.095-10.848-.822-11.97-2.501-1.122-1.68-.055-3.242 3.896-5.225 4.255-2.11 9.858-8.437 9.866-8.437a28.06 28.06 0 0 0 2.12-2.835 21.486 21.486 0 0 0 1.387-3.167c.174-.508.512-.951.966-1.266a2.908 2.908 0 0 1 1.637-.177c.891.042 1.774.178 2.634.407a4.01 4.01 0 0 1 2.15 1.428c.359.511.546 1.125.951 1.591.279.318.645.556 1.058.686.413.131.856.15 1.28.054a2.027 2.027 0 0 0 1.076-.537c.291-.281.481-.642.545-1.032.063-.179.115-.362.156-.547Z" fill="#000"/><path d="M235.048 316.288a7.194 7.194 0 0 0-1.302-3.803 7.733 7.733 0 0 0-3.187-2.614c-4.629-2.309-7.474-.888-8.907.074-1.715 1.14-4.17 3.531-2.72 5.307 1.558 1.916 4.107 2.842 8.853 2.96 4.745.118 7.263-1.924 7.263-1.924ZM241.633 302.664a.562.562 0 0 1-.421-.215c-.514-.703-3.896-3.36-7.154-2.531-.163-.355.117-.74.78-1.103 3.436-.251 6.624 2.221 7.255 3.094a.455.455 0 0 1-.002.542.568.568 0 0 1-.458.213ZM232.118 302.227c.053-.237.167-.459.331-.645.165-.185.375-.33.612-.421 1.298.061 2.57.368 3.741.903a9.709 9.709 0 0 1 3.078 2.213.466.466 0 0 1 .078.367.486.486 0 0 1-.226.307.603.603 0 0 1-.32.081.542.542 0 0 1-.421-.215c-.475-.681-3.686-3.189-6.873-2.59ZM226.92 307.208a2.901 2.901 0 0 1 1.465-1.28c3.382-.171 6.491 2.264 7.107 3.101a.447.447 0 0 1 .001.543.478.478 0 0 1-.149.13.485.485 0 0 1-.319.081.522.522 0 0 1-.421-.214c-.53-.748-4.24-3.641-7.684-2.361ZM237.229 307.407a.54.54 0 0 1-.42-.215c-.515-.695-3.803-3.293-7.014-2.553.084-.251.228-.481.419-.672.192-.191.427-.339.688-.431 1.301.063 2.576.372 3.75.909a9.733 9.733 0 0 1 3.084 2.222.466.466 0 0 1 .078.367.47.47 0 0 1-.226.306.56.56 0 0 1-.359.067Z" fill="#FAFAFA"/><path d="M269.734 214.292c-5.252 3.241-20.519 12.907-28.054 18.798-2.175 1.702-4.754 3.389-4.216 9.569.615 7.075 6.109 31.142 6.109 31.142l46.812-47.757-20.651-11.752Z" fill="#37474F"/><path d="M245.249 266.379c6.748-4.766 29.402-34.828 29.402-34.828l-.865-.222c-4.52-2.502-5.455-8.141-5.455-8.141-.865 2.435.343 5.972 1.715 8.045-1.715 1.258-10.131 7.282-16.833 11.774-2.052 1.175-3.537 3.067-4.138 5.269-1.722 6.521-3.896 16.756-3.826 18.103Z" fill="#263238"/><path d="m271.885 216.106 36.767 8.415c-2.112 9.495-4.107 11.841-5.759 13.795-2.463 2.908-5.899 5.92-15.383 10.02-9.64 4.145-18.205 8.06-20.449 8.948-1.691.673-2.821 3.952-3.772 7.985-.997 4.234-1.231 6.964-6.125 15.727-4.785 8.57-6.351 10.546-6.351 10.546s-6.772.363-11.058-3.575c0 0 7.606-29.81 9.172-35.161.881-2.997.974-4.588 5.097-7.733 3.53-2.694 19.778-13.729 19.778-13.729s-6.211-7.127-1.917-15.238Z" fill="#37474F"/><path d="M287.152 170.75c-3.709-.273-6.741 0-9.772 2.672-4.029 3.604-12.188 17.68-17.145 25.488l9.656 10.065 9.421-14.342 7.84-23.883Z" fill="#F28F8F"/><path d="M286.91 170.648c-2.853-.237-6.414-.651-9.352 2.095-2.556 2.405-9.11 12.359-9.11 12.359a18.16 18.16 0 0 0 5.058 6.231 18.266 18.266 0 0 0 6.608 2.724l7.559-23.342-.763-.067Z" fill="#455A64"/><path d="M297.017 172.274c5.4 1.539 9.297 2.657 15.414 7.097 1.41 1.569 3.024 5.181 2.486 11.612-.779 9.702-1.083 12.226-3.297 23.483-1.558 7.933-4.106 16.111-4.106 16.111-13.466 2.908-35.848-7.09-39.199-15.616 2.619-3.078 4.115-5.839 7.365-26.442 1.621-10.287 6.507-16.023 11.229-17.851 3.42.192 6.808.73 10.108 1.606Z" fill="#FAFAFA"/><path d="M253.556 186.634a.363.363 0 0 1 .319 0l11.51 3.042c.366.114.678.347.881.659l11.042 19.16c.086.148.086.267 0 .326l-1.161 1.08c-.054.052-.164.067-.319 0l-11.51-3.041a1.646 1.646 0 0 1-.881-.659l-11.035-19.16c-.086-.148-.093-.267 0-.326l1.154-1.081Z" fill="#455A64"/><path d="M264.715 190.979c.16.111.295.252.397.414l11.035 19.153c.086.141.086.252 0 .318l1.153-1.073c.063-.059.063-.177 0-.325l-11.042-19.161a1.506 1.506 0 0 0-.39-.414l-1.153 1.088Z" fill="#37474F"/><path d="m275.851 210.9-11.51-3.041a1.646 1.646 0 0 1-.881-.659l-11.035-19.161c-.163-.281 0-.436.289-.348l11.518 3.035c.364.12.675.355.88.666l11.035 19.153c.163.281.031.437-.296.355Z" fill="#263238"/><path d="m265.603 194.701-1.122-1.946a1.904 1.904 0 0 0-1.013-.74l-.452-.119c-.585-.155-.826.134-.538.644l1.13 1.947c.235.349.59.61 1.005.74l.452.118c.593.155.834-.133.538-.644Z" fill="#37474F"/><path d="M265.129 194.51a1.806 1.806 0 0 0-.959-.688c-.358-.096-.522.059-.358.34.223.332.562.578.958.696.359.096.522-.059.359-.348Z" fill="#455A64"/><path opacity=".2" d="M264.801 194.426a.87.87 0 0 0-.483-.355c-.187-.052-.265 0-.187.177a.9.9 0 0 0 .491.348c.187.052.265-.029.179-.17Z" fill="#fff"/><path d="M264.279 193.067a1.756 1.756 0 0 0-.951-.688c-.366-.096-.53.059-.358.341.22.329.557.574.95.688.367.096.522-.052.359-.341Z" fill="#455A64"/><path opacity=".2" d="M263.959 192.984a.92.92 0 0 0-.491-.356c-.187-.051-.265 0-.179.178a.914.914 0 0 0 .483.348c.187.052.273-.03.187-.17Z" fill="#fff"/><path d="m266.57 192.697.148-.141a.196.196 0 0 1 .082-.049.2.2 0 0 1 .097-.003l.226.06a.207.207 0 0 1 .109.088l1.005 1.74c.031.06.042.128.031.194a.322.322 0 0 1-.093.176l-.148.14a.186.186 0 0 1-.082.049.2.2 0 0 1-.097.003l-.218-.059a.223.223 0 0 1-.117-.089l-1.006-1.739a.313.313 0 0 1 .063-.37Z" fill="#263238"/><path d="m267.715 194.828-.998-1.74a.309.309 0 0 1-.034-.193.322.322 0 0 1 .089-.177l.156-.14a.16.16 0 0 1 .069-.048.193.193 0 0 1 .086-.01.175.175 0 0 1 .133.095l1.005 1.739c.031.06.042.128.031.194a.319.319 0 0 1-.093.176l-.148.141a.184.184 0 0 1-.072.047.197.197 0 0 1-.087.01.195.195 0 0 1-.081-.031.17.17 0 0 1-.056-.063Z" fill="#455A64"/><path d="m268.198 195.507.156-.141a.173.173 0 0 1 .078-.049.183.183 0 0 1 .093-.003l.226.059a.174.174 0 0 1 .11.097l1.005 1.739c.03.058.041.124.031.189a.307.307 0 0 1-.086.173l-.156.141a.182.182 0 0 1-.179.052l-.218-.059a.19.19 0 0 1-.069-.032.165.165 0 0 1-.048-.057l-1.013-1.739a.316.316 0 0 1 .07-.37Z" fill="#263238"/><path d="m269.359 197.676-.997-1.739a.311.311 0 0 1 .054-.37l.156-.141a.18.18 0 0 1 .071-.047.18.18 0 0 1 .165.026c.023.017.041.04.052.065l1.006 1.74c.03.058.041.124.031.189a.307.307 0 0 1-.086.173l-.156.141a.18.18 0 0 1-.071.047.199.199 0 0 1-.087.01.178.178 0 0 1-.081-.031.172.172 0 0 1-.057-.063Z" fill="#455A64"/><path d="M255.955 194.172c-1.176 1.687-1.418 2.805-.459 5.802.958 2.997 3.615 5.876 8.494 5.469 2.057-.17 1.473-8.77-.998-8.207-3.577.814-5.353-.148-5.353-.148l-1.684-2.916Z" fill="#F28F8F"/><path d="m295.645 208.673 8.144-16.089s3.382-10.398 8.572-12.67c4.387 2.582 4.964 5.632 5.315 8.792.46 4.092-.881 8.666-5.027 16.451-3.951 7.401-6.639 12.175-8.743 14.721-2.603 3.152-6.009 2.531-11.69.651-5.681-1.88-8.486-4.019-16.154-7.268-3.694-1.554-6.079-2.301-8.97-4.122a12.497 12.497 0 0 1-2.969-2.427 6.93 6.93 0 0 1-1.652-2.998 2.052 2.052 0 0 0-.171-.607 4.73 4.73 0 0 0-.359-.51 3.856 3.856 0 0 1-.662-.992 5.85 5.85 0 0 1-.226-1.228 4.476 4.476 0 0 0-.086-.563 3.454 3.454 0 0 0-.242-.555 4.31 4.31 0 0 1-.592-1.443.758.758 0 0 1 .052-.41.81.81 0 0 1 .26-.33s-.405-.548-.538-.74a3.954 3.954 0 0 1-.444-.859.393.393 0 0 1 0-.362.369.369 0 0 1 .179-.141c1.107-.548 2.174.104 3.047.74 2.276 1.65 3.336 3.138 5.806 4.552 3.39 1.946 3.756.392 3.756.392l-2.151-3.701-.514-.895c-.304-1.532.779-2.361 1.831-.74.826 1.295 3.639 3.234 4.504 4.929.866 1.695 1.068 3.426 3.515 5.047 2.587 1.71 16.209 3.375 16.209 3.375Z" fill="#FFA8A7"/><path d="M295.645 208.67c1.89.352 3.749.847 5.556 1.481a9.34 9.34 0 0 0-4.886-2.835l-.67 1.354ZM260.476 197.236c.397.57.841 1.095 1.293 1.628.452.533.912 1.036 1.356 1.562.234.251.444.525.694.784.249.259.491.496.779.74.515.472 1.056.916 1.621 1.332l-.74-.74c-.25-.236-.499-.481-.741-.74-.241-.259-.483-.488-.709-.74-.226-.251-.444-.518-.67-.784a38.788 38.788 0 0 0-1.418-1.525l-1.465-1.517ZM260.943 199.732c.213.491.474.962.78 1.406.304.437.631.859.966 1.266.335.407.686.814 1.06 1.199a11.4 11.4 0 0 0 1.169 1.102c-.343-.407-.67-.821-1.013-1.228l-1.006-1.229-1.005-1.228a22.489 22.489 0 0 1-.951-1.288Z" fill="#F28F8F"/><path d="M312.431 179.374c2.393 1.591 5.705 4.573 5.705 11.064 0 6.49-7.146 18.198-7.146 18.198s-8.767-1.791-12.64-6.365c0 0 3.382-7.4 5.525-12.263 2.143-4.862 5.447-9.798 8.556-10.634Z" fill="#455A64"/><path d="M284.267 152.544c-2.914-13.032 9.586-12.581 12.562-12.581 2.977 0 11.066 1.673 11.472 7.031 3.896.962 3.81 7.067 2.439 9.517-2.541 4.522-4.824 7.46-6.235 10.761-.194-.156-12.733-8.585-15.585-10.894l-3.195-2.598c-.452-.444-.975-.829-1.458-1.236Z" fill="#263238"/><path d="M308.714 164.097c-2.51 1.481-3.897-.259-3.897-.259l-1.013 11.412c-5.455 5.618-18.399 3.553-12.188-2.05l.133-2.745a20.553 20.553 0 0 1-3.593-.452 6.169 6.169 0 0 1-2.026-.917c-1.344-.94-2.252-2.338-2.533-3.901a28.354 28.354 0 0 1-.35-8.274c.288-3.315 1.036-7.571 2.4-9.695 2.244-1.576 7.972-1.236 13.069.622a6.417 6.417 0 0 0 1.176 3.774 5.468 5.468 0 0 0 1.863 1.658c-.078 2.42-.039 3.079.335 4.182.21.636.639 1.598 1.971 1.258.632-.163 1.201-1.406 1.91-2.22.95-1.074 3.662-1.392 4.722 1.198a5.211 5.211 0 0 1 .16 3.525 5.476 5.476 0 0 1-2.139 2.884Z" fill="#FFA8A7"/><path d="M291.764 170.491c2.658 0 7.45-.592 8.954-2.013 1.504-1.421 2.884-4.869 2.884-4.869s-.889 3.929-2.081 5.572c-1.192 1.643-3.538 2.147-5.244 2.494a30.52 30.52 0 0 1-4.59.341l.077-1.525Z" fill="#F28F8F"/><path d="m295.092 153.678 2.431 1.251c.171-.315.206-.681.099-1.021a1.392 1.392 0 0 0-.675-.8 1.416 1.416 0 0 0-1.056-.091 1.36 1.36 0 0 0-.471.253 1.28 1.28 0 0 0-.328.408ZM287.782 152.944l-2.51 1.014a1.316 1.316 0 0 1 .016-1.03c.145-.329.419-.591.764-.732a1.417 1.417 0 0 1 1.027.035c.324.14.577.396.703.713Z" fill="#263238"/><path d="m295.123 162.351-4.738 1.288a2.502 2.502 0 0 0 1.216 1.406c.58.304 1.26.386 1.901.229.312-.085.604-.229.856-.424.252-.194.46-.435.612-.709a2.2 2.2 0 0 0 .153-1.79Z" fill="#B16668"/><path d="M294.897 163.275a2.487 2.487 0 0 0-1.746.507c-.489.382-.8.931-.865 1.528.402.096.822.096 1.224 0a2.388 2.388 0 0 0 1.172-.735c.305-.351.491-.781.534-1.234a2.439 2.439 0 0 0-.319-.066ZM292.138 153.698l-1.551 7.771-4.114-2.057 5.665-5.714Z" fill="#F28F8F"/><path d="M296.377 156.675a1.043 1.043 0 0 1-.234.582 1.14 1.14 0 0 1-.535.36 1.186 1.186 0 0 1-.655.017 1.135 1.135 0 0 1-.555-.33 1.033 1.033 0 0 1-.16-1.182c.099-.19.255-.348.449-.453a1.174 1.174 0 0 1 1.415.225c.098.107.173.231.22.365.047.134.066.275.055.416ZM288.039 155.756a1.04 1.04 0 0 1-.234.581 1.127 1.127 0 0 1-.535.36 1.177 1.177 0 0 1-.655.018 1.144 1.144 0 0 1-.555-.331 1.031 1.031 0 0 1-.16-1.181c.099-.19.255-.348.449-.454a1.184 1.184 0 0 1 1.065-.031 1.106 1.106 0 0 1 .57.621c.047.134.066.276.055.417Z" fill="#263238"/><path d="M294.897 268.368a1.36 1.36 0 0 1-.342-.044 1.244 1.244 0 0 1-.437-.213 1.177 1.177 0 0 1-.313-.358 1.108 1.108 0 0 1-.084-.909l4.995-16.23c.123-.255.339-.459.608-.576.269-.116.573-.136.857-.057.284.079.528.252.688.488.16.235.226.518.185.796l-4.995 16.23a1.175 1.175 0 0 1-.427.621c-.21.157-.467.246-.735.252ZM318.206 255.601c-.116 0-.231-.015-.343-.044a1.248 1.248 0 0 1-.436-.213 1.14 1.14 0 0 1-.454-.804 1.12 1.12 0 0 1 .056-.463l4.988-16.23c.123-.255.339-.459.608-.575.269-.117.573-.137.857-.058.283.079.528.252.688.488.16.236.226.518.185.796l-4.996 16.237a1.168 1.168 0 0 1-.425.615 1.27 1.27 0 0 1-.728.251Z" fill="#37474F"/><path d="M338.265 229.461a1.145 1.145 0 0 0-.231-.58 1.235 1.235 0 0 0-.509-.389l-6.437-3.53a4.055 4.055 0 0 0-1.773-.406c-.616 0-1.224.139-1.773.406l-46.43 25.458a1.237 1.237 0 0 0-.506.394 1.151 1.151 0 0 0-.226.583v1.821c.019.21.096.411.225.583s.304.308.507.394l6.445 3.53a4.072 4.072 0 0 0 3.546 0l46.383-25.466c.203-.085.379-.219.509-.39.13-.17.21-.37.231-.58l.039-1.828Z" fill="#37474F"/><path d="m337.485 228.492-6.437-3.53a4.055 4.055 0 0 0-1.773-.406c-.616 0-1.224.139-1.773.406l-38.185 20.929v12.204a3.819 3.819 0 0 0 1.777-.4l46.391-25.436c.203-.085.379-.219.509-.39.13-.17.21-.37.232-.58v-1.828a1.155 1.155 0 0 0-.232-.58 1.235 1.235 0 0 0-.509-.389Z" fill="#263238"/><path d="m327.503 224.962-46.391 25.458c-.214.07-.399.201-.53.375a.991.991 0 0 0 0 1.196c.131.175.316.306.53.376l6.445 3.53a4.072 4.072 0 0 0 3.546 0l46.383-25.459c.213-.069.399-.2.53-.375a.996.996 0 0 0 .202-.598.996.996 0 0 0-.202-.598 1.074 1.074 0 0 0-.53-.375l-6.437-3.53a4.059 4.059 0 0 0-1.773-.406c-.616 0-1.224.139-1.773.406Z" fill="#455A64"/><path d="m295.402 125.491 2.759-4.937-2.221-6.09v-3.701l6.803 3.701v3.7l-2.93 4.81a.362.362 0 0 1-.195.163l-4.216 2.354Z" fill="#92E3A9"/><path opacity=".3" d="m295.402 125.491 2.759-4.937-2.221-6.09v-3.701l6.803 3.701v3.7l-2.93 4.81a.362.362 0 0 1-.195.163l-4.216 2.354Z" fill="#000"/><path d="M282.692 84.446a4.113 4.113 0 0 1 .597-1.91 4.366 4.366 0 0 1 1.445-1.442l1.66-.918a4.717 4.717 0 0 1 2.038-.461c.708 0 1.406.158 2.038.46l23.846 13.041a4.39 4.39 0 0 1 1.439 1.445c.353.583.557 1.236.595 1.907v25.215a4.13 4.13 0 0 1-.595 1.907 4.387 4.387 0 0 1-1.439 1.445l-1.668.948a4.677 4.677 0 0 1-4.076 0l-10.13-5.506-2.891 4.766a.446.446 0 0 1-.414.193.453.453 0 0 1-.223-.084.419.419 0 0 1-.143-.183l-3.117-8.452-6.943-3.804a4.372 4.372 0 0 1-1.445-1.443 4.102 4.102 0 0 1-.597-1.91l.023-25.214Z" fill="#92E3A9"/><path opacity=".3" d="M316.349 121.782a4.103 4.103 0 0 1-.595 1.907 4.378 4.378 0 0 1-1.438 1.446l-1.668.947a4.774 4.774 0 0 1-3.725.163c.958.34 1.691-.17 1.691-1.281v-25.25a3.857 3.857 0 0 0-.6-1.91l5.743-3.146a3.82 3.82 0 0 1 .592 1.91v25.214Z" fill="#000"/><path opacity=".3" d="M282.763 83.899c.233-.821 1.021-1.08 1.963-.562l23.847 13.032c.603.355 1.1.852 1.441 1.443l5.736-3.145a4.064 4.064 0 0 0-1.442-1.443l-23.83-13.025a4.737 4.737 0 0 0-2.042-.462c-.709 0-1.409.159-2.042.462l-1.668.91a4.396 4.396 0 0 0-1.282 1.204 4.146 4.146 0 0 0-.681 1.586Z" fill="#fff"/><path d="M303.421 111.727a.803.803 0 0 1-.114.406.863.863 0 0 1-.308.301.92.92 0 0 1-.856.033c.124.406.189.827.195 1.25 0 .785-.686 1.192-1.683.644l-7.551-4.129v-9.355a27.632 27.632 0 0 0 2.267-2.657c.195-.436 0-2.923 0-3.36 0-.436 1.239.156 2.026 1.384.193.295.342.614.445.948.21.65.361 1.316.452 1.99a6.16 6.16 0 0 1-.148 2.502l4.566 2.501c.364.212.667.508.881.859.29.446.454.956.475 1.48 0 .844-.483 1.043-.732 1.058.275.245.496.539.652.865.155.327.24.679.252 1.037 0 .651-.421 1.132-1.107.903.196.422.294.879.288 1.34ZM288.716 98.61v10.11a.747.747 0 0 0 .105.349.787.787 0 0 0 .261.265l2.548 1.392c.203.118.374 0 .374-.2v-10.087a.756.756 0 0 0-.109-.35.803.803 0 0 0-.265-.265l-2.556-1.413c-.195-.111-.358-.022-.358.2Z" fill="#FAFAFA"/></svg>