<svg width="39" height="65" fill="none" xmlns="http://www.w3.org/2000/svg"><path d="M19.694 51.815s-1.954-12.735-1.79-20.149c.164-7.414 0-15.748 0-15.748h.9s-.61 14.713.056 23.584c.665 8.872 2.409 12.313 2.409 12.313h-1.566" fill="#263238"/><path d="M25.515 1.589a2.244 2.244 0 0 0-.82-1.138c-.572-.342-1.322-.2-1.96 0-2.717.911-5.13 5.72-6.227 8.25l3.608 11.556c6.519-5.738 7.648-13.259 5.399-18.668Z" fill="#455A64"/><path d="M24.483.94a.769.769 0 0 1-.051.152l-.178.418a59.054 59.054 0 0 0-2.46 6.756 56.663 56.663 0 0 0-1.561 6.974c-.033.182-.056.329-.08.444a.635.635 0 0 1-.037.156.807.807 0 0 1 0-.16c0-.12.028-.267.047-.445.046-.39.126-.955.243-1.653.306-1.81.717-3.603 1.233-5.37a48.325 48.325 0 0 1 1.874-5.204c.281-.654.516-1.174.694-1.53.08-.168.145-.302.201-.413a.64.64 0 0 1 .075-.124Z" fill="#263238"/><path d="M18.513 23.023a10.781 10.781 0 0 1-3.993-3.697 10.067 10.067 0 0 1-1.574-5.078c-.127-2.56.703-5.071 1.64-7.476a.96.96 0 0 1 .384-.542 1.02 1.02 0 0 1 .938.133c2.455 1.334 3.946 3.863 4.742 6.44.566 1.71.754 3.51.553 5.29-.31 1.873-1.248 3.602-2.676 4.93" fill="#455A64"/><path d="M18.513 23.02a.675.675 0 0 1 0-.155v-.444c0-.382 0-.938-.051-1.627a42.184 42.184 0 0 0-.628-5.334c-.375-2.067-.83-3.916-1.167-5.254l-.399-1.586c-.042-.174-.08-.316-.103-.445a.625.625 0 0 1-.051-.124.722.722 0 0 1 .056.146c.033.111.075.254.131.423.113.373.263.889.469 1.573.36 1.334.834 3.183 1.214 5.258.322 1.764.518 3.546.585 5.334v1.627l-.023.444a.676.676 0 0 1-.033.165Z" fill="#263238"/><path d="M18.513 23.023a10.782 10.782 0 0 1-3.993-3.697 10.068 10.068 0 0 1-1.574-5.077c-.127-2.56.703-5.072 1.64-7.477a.96.96 0 0 1 .384-.542 1.02 1.02 0 0 1 .938.133c2.455 1.334 3.946 3.863 4.742 6.441.566 1.708.754 3.509.553 5.29-.31 1.873-1.248 3.601-2.676 4.929" fill="#000" opacity=".3"/><path d="M22.332 42.508c3.328.698 6.093 2.925 9.284 4 2.127.716 4.532.97 6.228 2.379-.408-.974-1.373-1.623-2.31-2.178a42.335 42.335 0 0 0-8.436-3.814c-1.513-.493-3.153-.889-4.686-.502M17.52 45.327c-4.17-.067-8.562-3.436-12.714-3.636 4.344-1.334 10.563-.245 12.714 3.636ZM19.146 35.831a14.261 14.261 0 0 1 6.668-.444c2.216.385 4.393.946 6.51 1.676-.216-1.374-1.406-2.405-2.489-3.316a17.055 17.055 0 0 0-2.61-1.907A6.049 6.049 0 0 0 24.09 31a5.17 5.17 0 0 0-1.91.492 4.927 4.927 0 0 0-1.553 1.161 5.326 5.326 0 0 0-1.481 3.16M10.584 31.467c-2.624-2.13-6.603-1.92-10.057-1.845a82.513 82.513 0 0 1 15.587 9.214c.15-2.316-2.212-4.685-5.53-7.37Z" fill="#455A64"/><path d="M10.584 31.467c-2.624-2.13-6.603-1.92-10.057-1.845a82.508 82.508 0 0 1 15.587 9.215c.15-2.316-2.212-4.685-5.53-7.37Z" fill="#000" opacity=".3"/><path d="M20.331 28.53a29.65 29.65 0 0 1 4.04-2.223c1.378-.595 2.67-1.542 4.002-2.222 1.734-.889 3.233-2.125 4.822-3.227 1.589-1.102 3.332-2.098 5.277-2.391a10.913 10.913 0 0 0-4.804.267 32.05 32.05 0 0 0-4.522 1.666c-2.048.89-4.129 1.778-5.806 3.192-1.678 1.413-3.187 2.822-3.009 4.947" fill="#455A64"/><path d="m31.541 45.326-.131-.053-.366-.183c-.314-.155-.764-.39-1.33-.662a36.262 36.262 0 0 0-2.02-.916 16.741 16.741 0 0 0-2.568-.848 5.826 5.826 0 0 0-2.676-.063 8.22 8.22 0 0 0-1.134.32 5.873 5.873 0 0 0-2.067 1.334c-.239.244-.356.395-.37.387a.775.775 0 0 1 .075-.116 3.73 3.73 0 0 1 .253-.307 5.615 5.615 0 0 1 2.076-1.418 7.978 7.978 0 0 1 1.148-.342 5.86 5.86 0 0 1 2.741.053c.89.216 1.757.506 2.592.867.384.165.75.325 1.083.49.332.164.646.306.937.444.562.284 1.007.529 1.312.706l.351.2c.057.076.099.103.094.107ZM14.403 43.365a.85.85 0 0 1 .263.071c.232.08.46.173.68.28a8.157 8.157 0 0 1 3.486 3.174c.12.205.227.417.319.636.04.077.07.159.089.244-.024 0-.178-.325-.502-.827a9.098 9.098 0 0 0-1.504-1.778 9.29 9.29 0 0 0-1.94-1.333c-.539-.311-.9-.445-.89-.467ZM5.176 31.266l.178.05.497.168.792.276c.31.11.642.27 1.017.444a24.376 24.376 0 0 1 5.431 3.285 25.6 25.6 0 0 1 2.554 2.342c.638.69 1.237 1.411 1.795 2.16.469.64.839 1.174 1.087 1.538l.286.445c.034.048.064.099.09.151a.908.908 0 0 1-.118-.133c-.07-.094-.178-.231-.31-.414-.262-.36-.632-.889-1.12-1.51a33.78 33.78 0 0 0-1.813-2.134 26.424 26.424 0 0 0-2.526-2.343 25.842 25.842 0 0 0-5.38-3.302c-.374-.16-.702-.33-1.007-.445l-.778-.298-.515-.204a.773.773 0 0 1-.16-.076ZM25.402 33.61a1.55 1.55 0 0 1-.333-.04l-.38-.067c-.15-.026-.323-.03-.515-.049a5.512 5.512 0 0 0-2.863.538c-.485.24-.926.55-1.308.92-.318.296-.6.626-.838.983a7.974 7.974 0 0 0-.572 1.035c.012-.105.04-.209.084-.306.106-.273.24-.535.399-.783.231-.371.51-.714.829-1.022a5.1 5.1 0 0 1 1.335-.951 5.298 5.298 0 0 1 2.944-.511c.192.026.37.03.52.066l.38.094c.109.02.216.05.318.093ZM29.596 21.276a.696.696 0 0 1-.16.089l-.468.24a59.58 59.58 0 0 0-1.696.91c-.708.396-1.533.89-2.414 1.49a20.076 20.076 0 0 0-2.699 2.142c-.429.404-.799.86-1.101 1.356-.277.498-.534.978-.778 1.44-.43.815-.817 1.65-1.158 2.503a14.65 14.65 0 0 0-.562 1.777c-.108.423-.145.663-.16.658-.013-.004 0-.057 0-.173 0-.116.043-.285.09-.498.127-.604.301-1.198.52-1.778.326-.862.704-1.705 1.134-2.524.24-.467.497-.952.769-1.45.308-.509.686-.977 1.124-1.39a19.604 19.604 0 0 1 2.728-2.152c.89-.596 1.729-1.08 2.441-1.471.713-.391 1.308-.676 1.72-.89l.469-.213a.92.92 0 0 1 .201-.066ZM17.9 33.255a1.916 1.916 0 0 1-.085-.334 71.182 71.182 0 0 0-.183-.916 23.606 23.606 0 0 0-.787-2.969c-.338-.97-.735-1.919-1.19-2.844l-.408-.85c-.056-.1-.1-.205-.131-.315.073.09.135.189.183.293.112.192.267.476.468.827a18.955 18.955 0 0 1 1.992 5.84c.065.392.112.707.136.925.013.114.014.229.004.343Z" fill="#263238"/><path d="M17.6 24.252a10.344 10.344 0 0 0-1.36-4.271 14.343 14.343 0 0 0-4.206-4.615 15.266 15.266 0 0 0-5.869-2.497l9.33 13.188 1.205 2.356a6.497 6.497 0 0 0 .9-4.16Z" fill="#455A64"/><path d="M30.979 50.242H9.286v3.644H30.98v-3.644Z" fill="#7E57C2"/><path d="m10.907 53.167 1.847 11.312h14.4l2.203-11.312h-18.45Z" fill="#7E57C2"/><path d="M30.97 53.892c0 .04-4.898.075-10.929.075-6.031 0-10.928-.035-10.928-.075 0-.04 4.892-.071 10.928-.071 6.036 0 10.928.013 10.928.07Z" fill="#263238"/></svg>