<svg width="24" height="40" fill="none" xmlns="http://www.w3.org/2000/svg"><path d="M11.814 31.55s-1.173-7.645-1.074-12.096c.098-4.45 0-9.454 0-9.454h.54s-.366 8.833.033 14.159c.4 5.326 1.446 7.391 1.446 7.391h-.94" fill="#263238"/><path d="M15.302 1.4a1.348 1.348 0 0 0-.492-.683c-.343-.206-.793-.12-1.175 0-1.631.547-3.08 3.434-3.737 4.952l2.165 6.938c3.911-3.445 4.589-7.96 3.24-11.207Z" fill="#455A64"/><path d="M14.685 1.01a.459.459 0 0 1-.031.091l-.107.251a35.447 35.447 0 0 0-1.476 4.056 34.029 34.029 0 0 0-.936 4.187c-.02.11-.034.197-.048.267a.387.387 0 0 1-.023.093.482.482 0 0 1 0-.096c0-.072.017-.16.028-.267a28.367 28.367 0 0 1 .886-4.216c.314-1.06.69-2.103 1.125-3.124a19.041 19.041 0 0 1 .537-1.167.39.39 0 0 1 .045-.074Z" fill="#263238"/><path d="M11.101 14.266a6.47 6.47 0 0 1-2.396-2.219 6.046 6.046 0 0 1-.944-3.048c-.076-1.537.422-3.045.984-4.488a.576.576 0 0 1 .23-.326.611.611 0 0 1 .563.08c1.473.8 2.368 2.319 2.846 3.867a7.436 7.436 0 0 1 .331 3.175 5.204 5.204 0 0 1-1.605 2.96" fill="#455A64"/><path d="M11.103 14.266a.405.405 0 0 1 0-.093v-.267c0-.23 0-.563-.03-.977a25.327 25.327 0 0 0-.378-3.202 47.258 47.258 0 0 0-.7-3.154l-.239-.953c-.025-.104-.047-.19-.062-.266a.376.376 0 0 1-.03-.075.433.433 0 0 1 .033.088c.02.067.045.152.079.253.068.225.158.534.281.945.217.8.5 1.91.729 3.157.193 1.058.31 2.128.35 3.202v.976l-.013.267a.412.412 0 0 1-.02.099Z" fill="#263238"/><path d="M11.105 14.27a6.471 6.471 0 0 1-2.396-2.22 6.046 6.046 0 0 1-.944-3.048c-.076-1.537.422-3.045.984-4.488a.576.576 0 0 1 .23-.326.611.611 0 0 1 .563.08c1.473.8 2.367 2.32 2.845 3.867a7.436 7.436 0 0 1 .332 3.175 5.204 5.204 0 0 1-1.605 2.96" fill="#000" opacity=".3"/><path d="M13.394 25.965c1.996.42 3.655 1.756 5.57 2.402 1.277.43 2.72.581 3.737 1.427-.245-.584-.824-.974-1.386-1.307a25.397 25.397 0 0 0-5.061-2.29c-.909-.296-1.893-.533-2.812-.301M10.507 27.654c-2.503-.04-5.137-2.062-7.629-2.182 2.607-.8 6.338-.147 7.629 2.182ZM11.48 21.957a8.552 8.552 0 0 1 4.001-.267c1.33.231 2.636.568 3.906 1.006-.13-.825-.844-1.444-1.493-1.99a10.236 10.236 0 0 0-1.567-1.145 3.626 3.626 0 0 0-1.88-.505 3.098 3.098 0 0 0-1.146.296c-.357.17-.674.407-.933.697a3.198 3.198 0 0 0-.888 1.897M6.342 19.337C4.768 18.06 2.38 18.185.308 18.23a49.503 49.503 0 0 1 9.352 5.532c.09-1.39-1.327-2.813-3.318-4.425Z" fill="#455A64"/><path d="M6.342 19.333C4.768 18.055 2.38 18.181.308 18.226a49.503 49.503 0 0 1 9.352 5.532c.09-1.39-1.327-2.813-3.318-4.425Z" fill="#000" opacity=".3"/><path d="M12.192 17.575c.769-.506 1.58-.952 2.423-1.335.827-.357 1.603-.925 2.402-1.334 1.04-.534 1.94-1.275 2.893-1.937.953-.662 2-1.26 3.166-1.436a6.544 6.544 0 0 0-2.882.16c-.93.266-1.838.6-2.713 1.001-1.23.534-2.478 1.067-3.484 1.916-1.007.849-1.912 1.694-1.805 2.97" fill="#455A64"/><path d="m18.921 27.656-.079-.032-.219-.109c-.188-.093-.458-.235-.799-.398a22.203 22.203 0 0 0-1.212-.55 10.044 10.044 0 0 0-1.54-.509 3.494 3.494 0 0 0-1.606-.037 4.933 4.933 0 0 0-.68.192c-.47.179-.892.452-1.24.8-.143.147-.214.238-.222.232a.468.468 0 0 1 .045-.069 3.16 3.16 0 0 1 .835-.753c.177-.11.366-.205.562-.282a4.79 4.79 0 0 1 .689-.206 3.515 3.515 0 0 1 1.645.032c.533.13 1.054.304 1.555.52.23.1.45.195.65.294.199.099.387.184.562.267.337.17.604.318.787.424l.21.12c.035.046.06.062.057.064ZM8.636 26.478a.51.51 0 0 1 .158.043c.14.048.275.104.407.168a4.894 4.894 0 0 1 2.092 1.905c.073.123.137.251.192.382a.559.559 0 0 1 .053.147c-.014 0-.107-.195-.3-.497a5.459 5.459 0 0 0-.903-1.067 5.572 5.572 0 0 0-1.164-.8c-.324-.187-.54-.267-.535-.28ZM3.101 19.216l.107.03.298.101.475.166c.186.066.385.162.61.266 1.174.517 2.27 1.18 3.26 1.972a15.38 15.38 0 0 1 1.532 1.407c.382.414.742.846 1.076 1.296.282.385.504.705.653.924l.171.267c.02.029.038.059.054.09a.539.539 0 0 1-.07-.08c-.043-.056-.107-.139-.186-.248-.158-.216-.38-.534-.672-.907a20.273 20.273 0 0 0-1.088-1.281c-.473-.5-.979-.97-1.516-1.406a15.502 15.502 0 0 0-3.228-1.983c-.225-.096-.422-.197-.604-.267l-.467-.178-.31-.123a.461.461 0 0 1-.095-.046ZM15.233 20.624a.93.93 0 0 1-.2-.024l-.227-.04c-.09-.016-.194-.019-.31-.03a3.305 3.305 0 0 0-1.717.323c-.29.144-.556.33-.785.553-.19.177-.36.375-.503.59-.13.199-.245.407-.343.621a.618.618 0 0 1 .05-.184 3.229 3.229 0 0 1 .737-1.083 3.06 3.06 0 0 1 .802-.571 3.177 3.177 0 0 1 1.765-.307c.116.016.223.019.313.04l.227.056c.066.012.13.03.191.056ZM17.752 13.22a.416.416 0 0 1-.096.054l-.281.144c-.242.126-.593.31-1.018.547-.424.238-.92.534-1.448.894-.578.384-1.12.814-1.62 1.286-.257.243-.479.516-.66.814-.166.3-.32.587-.467.865-.258.49-.49.99-.695 1.502a8.804 8.804 0 0 0-.337 1.067c-.065.254-.087.398-.096.395-.008-.002 0-.034 0-.104 0-.07.026-.17.054-.299.077-.362.18-.719.312-1.067.195-.517.423-1.023.68-1.516.144-.28.299-.57.462-.87.184-.305.411-.586.674-.835a11.76 11.76 0 0 1 1.637-1.291 19.422 19.422 0 0 1 1.465-.883c.427-.235.784-.406 1.032-.534l.28-.128a.552.552 0 0 1 .122-.04ZM10.736 20.407a1.15 1.15 0 0 1-.05-.2l-.11-.55a14.198 14.198 0 0 0-.473-1.782 15.211 15.211 0 0 0-.714-1.708l-.244-.51a.895.895 0 0 1-.08-.189c.045.055.082.114.11.176.068.115.16.286.282.497.59 1.102.992 2.285 1.195 3.506.04.235.067.424.081.555.008.068.01.137.003.205Z" fill="#263238"/><path d="M10.556 15.005a6.211 6.211 0 0 0-.816-2.565 8.608 8.608 0 0 0-2.524-2.77 9.157 9.157 0 0 0-3.521-1.499l5.598 7.917.723 1.414a3.903 3.903 0 0 0 .54-2.497Z" fill="#455A64"/><path d="M18.581 30.606H5.566v2.188H18.58v-2.188Z" fill="#7E57C2"/><path d="m6.539 32.365 1.107 6.79h8.64l1.322-6.79H6.538Z" fill="#7E57C2"/><path d="M18.578 32.798c0 .024-2.938.045-6.557.045-3.618 0-6.557-.021-6.557-.045 0-.024 2.936-.043 6.557-.043 3.622 0 6.557.008 6.557.043Z" fill="#263238"/></svg>