<svg width="7" height="12" fill="none" xmlns="http://www.w3.org/2000/svg"><path d="M1.016 10.582s-.478-3.66 1.123-7.149C3.033 1.483 4.505.627 5.385.585c.983-.053 1.926.838.988 2.105-.891 1.208-2.51 1.64-3.62 4.843-.73 2.113-.713 3.532-.713 3.532l-1.024-.483Z" fill="#407BFF"/><path opacity=".5" d="M1.016 10.582s-.478-3.66 1.123-7.149C3.033 1.483 4.505.627 5.385.585c.983-.053 1.926.838.988 2.105-.891 1.208-2.51 1.64-3.62 4.843-.73 2.113-.713 3.532-.713 3.532l-1.024-.483Z" fill="#fff"/><path d="M1.67 9.692a.064.064 0 0 0 .043-.017.054.054 0 0 0 .012-.02.05.05 0 0 0 .003-.021c-.207-3.991 2.063-7.216 3.74-8.232a.058.058 0 0 0 .018-.015.052.052 0 0 0 .01-.042.058.058 0 0 0-.026-.036.064.064 0 0 0-.047-.009.064.064 0 0 0-.022.009C3.7 2.339 1.4 5.605 1.608 9.636a.056.056 0 0 0 .018.04.062.062 0 0 0 .044.016Z" fill="#fff"/><path d="M2.037 11.06c.194-.906.798-1.818 2.036-2.758C5.31 7.362 6.987 6.53 6.8 5.635 6.613 4.74 5.312 4.86 4.384 5.3c-.928.44-3.071 2.263-2.857 5.52l.51.24Z" fill="#407BFF"/><path opacity=".65" d="M2.037 11.06c.194-.906.798-1.818 2.036-2.758C5.31 7.362 6.987 6.53 6.8 5.635 6.613 4.74 5.312 4.86 4.384 5.3c-.928.44-3.071 2.263-2.857 5.52l.51.24Z" fill="#fff"/><path d="M1.846 10.035a.065.065 0 0 0 .039-.015.056.056 0 0 0 .02-.033c.28-1.922 2.851-4.22 3.996-4.532a.061.061 0 0 0 .036-.028.053.053 0 0 0 .004-.043.057.057 0 0 0-.03-.033.066.066 0 0 0-.046-.004c-1.2.33-3.787 2.628-4.082 4.625a.053.053 0 0 0 .012.041c.01.012.024.02.04.022h.011Z" fill="#fff"/></svg>