<svg width="8" height="15" fill="none" xmlns="http://www.w3.org/2000/svg"><path d="M.52 13.46s-.597-4.704 1.403-9.19C3.041 1.762 4.881.662 5.982.608 7.21.54 8.388 1.686 7.216 3.315 6.102 4.867 4.078 5.423 2.691 9.54c-.913 2.716-.891 4.54-.891 4.54l-1.28-.62Z" fill="#407BFF"/><path opacity=".5" d="M.52 13.46s-.597-4.704 1.403-9.19C3.041 1.762 4.881.662 5.982.608 7.21.54 8.388 1.686 7.216 3.315 6.102 4.867 4.078 5.423 2.691 9.54c-.913 2.716-.891 4.54-.891 4.54l-1.28-.62Z" fill="#fff"/><path d="M1.337 12.317a.079.079 0 0 0 .054-.023.069.069 0 0 0 .02-.052C1.15 7.111 3.988 2.965 6.085 1.658a.073.073 0 0 0 .021-.02.068.068 0 0 0 .012-.053.074.074 0 0 0-.032-.046.079.079 0 0 0-.058-.011.079.079 0 0 0-.028.01C3.874 2.864 1 7.063 1.26 12.246a.068.068 0 0 0 .023.052.076.076 0 0 0 .054.02Z" fill="#fff"/><path d="M1.796 14.076c.243-1.166.997-2.337 2.545-3.546C5.888 9.322 7.983 8.252 7.75 7.101c-.234-1.151-1.86-.998-3.02-.431-1.16.566-3.839 2.91-3.572 7.097l.638.309Z" fill="#407BFF"/><path opacity=".65" d="M1.796 14.076c.243-1.166.997-2.337 2.545-3.546C5.888 9.322 7.983 8.252 7.75 7.101c-.234-1.151-1.86-.998-3.02-.431-1.16.566-3.839 2.91-3.572 7.097l.638.309Z" fill="#fff"/><path d="M1.558 12.758a.081.081 0 0 0 .048-.019.072.072 0 0 0 .024-.043c.35-2.471 3.565-5.424 4.995-5.827a.077.077 0 0 0 .046-.036.07.07 0 0 0 .005-.055.073.073 0 0 0-.037-.042.08.08 0 0 0-.057-.006c-1.5.424-4.735 3.379-5.104 5.947a.07.07 0 0 0 .016.053.08.08 0 0 0 .05.028h.014Z" fill="#fff"/></svg>