<svg width="62" height="41" fill="none" xmlns="http://www.w3.org/2000/svg"><path opacity=".2" d="M39.71 28.908c-3.484 2.207-6.386 3.97-7.893 4.023-1.193.038-1.696-.673-1.773-1.291a1.52 1.52 0 0 0-.803-1.163c-1.149-.665-3.492-.403-5.201.59-1.71.992-2.17 2.333-1.022 2.998.328.186.941.424 2.019.46 1.077.037 2.3.339 2.243 1.02-.104 1.145-2.694 2.584-7.159 4.876a127.01 127.01 0 0 1-2.388-1.42c-2.639-1.594-4.376-2.642-6.06-2.553-1.444.076-2.256.945-2.518 1.666a2.16 2.16 0 0 1-.974 1.105c-1.163.675-3.2.594-4.54-.184-1.34-.778-1.482-1.95-.32-2.617.329-.19.928-.441 1.921-.56 1.249-.152 2.756-.621 2.888-1.451.175-.988-2.018-2.198-5.046-3.875-.749-.411-1.53-.839-2.322-1.3l1.173-.697c4-2.364 5.474-3.384 7.241-3.431 1.182-.039 1.69.673 1.768 1.29a1.522 1.522 0 0 0 .797 1.162c1.155.665 3.493.405 5.207-.588 1.715-.992 2.173-2.335 1.018-3-.328-.19-.937-.422-2.015-.464-1.077-.042-2.3-.338-2.238-1.02.1-1.197 2.62-2.648 6.675-4.745l.873.508c3.678 2.131 5.906 3.417 7.896 3.314 1.44-.075 2.256-.944 2.518-1.666.183-.471.526-.863.97-1.106 1.164-.673 3.207-.588 4.54.185 1.332.773 1.485 1.952.323 2.616-.329.19-.928.442-1.921.555-1.245.154-2.747.628-2.888 1.453-.175 1.098 2.19 2.53 5.566 4.482l1.444.828Z" fill="#000"/><path opacity=".2" d="M53.935 21.117c-.066.83 1.336 1.182 2.557 1.22.969.044 1.51.249 1.796.409 1.011.584.57 1.785-.984 2.678-1.555.893-3.625 1.148-4.636.563a1.343 1.343 0 0 1-.699-1.034c-.08-.707-.684-1.514-2.128-1.476-1.66.047-3.735 1.528-6.866 3.442-.893.55-1.905 1.167-2.984 1.803l-.751-.43c-3.53-2.031-6.314-3.636-6.143-4.71.113-.69 1.43-1.084 2.518-1.222 1.088-.137 1.777-.416 2.153-.636 1.33-.764 1.206-2.093-.281-2.941-1.488-.848-3.777-.932-5.108-.175a2.443 2.443 0 0 0-1.102 1.244c-.223.631-.911 1.387-2.104 1.453-1.821.1-4.005-1.163-7.616-3.251l-.776-.452c1.127-.574 2.21-1.106 3.175-1.57 3.302-1.614 5.483-2.681 5.563-3.63.066-.832-1.334-1.183-2.556-1.23-.97-.038-1.51-.242-1.795-.403-1.013-.584-.571-1.786.977-2.678 1.55-.891 3.63-1.15 4.643-.565a1.35 1.35 0 0 1 .699 1.035c.082.697.69 1.514 2.128 1.477 1.617-.049 2.628-.774 5.508-2.75.94-.645 1.92-1.31 2.968-2.002.795.46 1.572.888 2.324 1.3 2.846 1.57 5.094 2.82 4.945 3.707-.108.684-1.425 1.083-2.512 1.22-1.088.139-1.787.418-2.157.632-1.336.77-1.206 2.094.28 2.952 1.486.858 3.782.931 5.118.162.499-.274.887-.714 1.096-1.244a2.322 2.322 0 0 1 2.11-1.453c1.501-.08 3.202.946 5.762 2.498.717.436 1.531.925 2.418 1.438-.831.427-1.638.83-2.389 1.21-3.688 1.862-5.065 2.385-5.15 3.409Z" fill="#000"/><path d="M29.525 7.544c.066-.83-1.336-1.181-2.556-1.23-.97-.037-1.51-.24-1.797-.403a.953.953 0 0 1-.543-.836v4.333a.955.955 0 0 0 .541.836c.112.063.229.117.35.16 2.418-1.198 3.937-2.07 4.005-2.86Z" fill="#37474F"/><path d="M29.176 16.451v4.335c1.192-.066 1.882-.822 2.104-1.453V15c-.222.631-.912 1.385-2.104 1.451Z" fill="#455A64"/><path d="m21.555 13.205-.774-.452v4.335l.774.452c3.61 2.093 5.797 3.35 7.617 3.251v-4.336c-1.82.101-4.006-1.162-7.617-3.25Z" fill="#263238"/><path d="M37.492 13.928c-1.482-.858-3.777-.93-5.107-.166a2.452 2.452 0 0 0-1.104 1.244v4.335c.212-.53.602-.97 1.104-1.244.721-.413 1.727-.58 2.733-.51.174-.034.338-.06.5-.08 1.104-.132 1.778-.418 2.154-.636 1.33-.764 1.206-2.088-.28-2.943ZM44.702 7.285c.372-.214 1.056-.499 2.158-.631 1.102-.133 2.405-.532 2.513-1.221a.347.347 0 0 0 .009-.084V9.69a.365.365 0 0 1 0 .076c-.093.585-1.064.958-2.022 1.141a5.568 5.568 0 0 1-2.366-.677c-1.497-.854-1.624-2.177-.292-2.946Z" fill="#37474F"/><path d="M39.246 23.42c-3.428-1.973-6.154-3.545-6.148-4.61v4.336c0 1.068 2.724 2.638 6.148 4.609l.747.432v-4.336l-.747-.431Z" fill="#263238"/><path d="M57.305 20.554c-1.549.898-3.625 1.15-4.638.565l-.07 4.295.07.04c1.013.584 3.09.333 4.638-.564.992-.57 1.528-1.266 1.525-1.847v-4.3c-.014.574-.547 1.253-1.525 1.81Z" fill="#455A64"/><path d="M51.968 20.091c-.08-.708-.682-1.514-2.128-1.476v4.335c1.446-.038 2.048.77 2.128 1.476a1.335 1.335 0 0 0 .634.994l.07-4.294a1.342 1.342 0 0 1-.704-1.035Z" fill="#37474F"/><path d="M42.976 22.05c-.895.551-1.905 1.169-2.984 1.804v4.337a169.49 169.49 0 0 0 2.984-1.804c3.131-1.92 5.207-3.395 6.864-3.442V18.61c-1.657.047-3.733 1.528-6.864 3.44ZM61.493 11.636v4.335c-.83.427-1.64.83-2.39 1.21-.398.199-.768.384-1.116.555a4.716 4.716 0 0 0-1.491-.267c-1.222-.044-2.62-.394-2.556-1.221.085-1.02 1.463-1.544 5.163-3.4.754-.382 1.56-.783 2.39-1.212Z" fill="#455A64"/><path d="M53.938 16.256c-.067.83 1.336 1.18 2.556 1.22.97.043 1.51.247 1.797.409 1.011.584.57 1.784-.985 2.677-1.554.894-3.625 1.148-4.636.564a1.342 1.342 0 0 1-.698-1.035c-.08-.706-.685-1.514-2.129-1.475-1.659.047-3.735 1.528-6.866 3.441-.892.55-1.905 1.167-2.984 1.804l-.745-.433c-3.53-2.032-6.314-3.635-6.143-4.71.113-.688 1.43-1.083 2.518-1.22 1.087-.138 1.777-.417 2.153-.637 1.33-.764 1.206-2.093-.282-2.943-1.487-.85-3.776-.93-5.107-.166a2.443 2.443 0 0 0-1.102 1.244c-.223.632-.911 1.387-2.104 1.453-1.821.1-4.006-1.163-7.617-3.251l-.775-.452c1.126-.574 2.21-1.106 3.175-1.57 3.302-1.614 5.482-2.681 5.563-3.632.066-.83-1.334-1.18-2.557-1.221-.969-.038-1.51-.243-1.795-.405-1.012-.582-.57-1.784.978-2.676 1.549-.891 3.63-1.15 4.643-.565a1.35 1.35 0 0 1 .699 1.035c.082.697.69 1.514 2.128 1.475 1.617-.047 2.628-.772 5.508-2.747.94-.646 1.92-1.31 2.968-2.003.795.46 1.572.888 2.324 1.3 2.846 1.57 5.094 2.82 4.945 3.707-.108.684-1.425 1.083-2.513 1.22-1.087.139-1.786.418-2.156.632-1.336.77-1.207 2.094.28 2.952 1.485.858 3.782.931 5.117.162.5-.274.888-.714 1.097-1.244a2.322 2.322 0 0 1 2.113-1.458c1.501-.08 3.202.945 5.762 2.496.718.438 1.531.926 2.418 1.44-.83.427-1.637.83-2.388 1.21-3.697 1.853-5.075 2.374-5.16 3.402Z" fill="#455A64"/><path d="M42.117.84c.698.398 1.368.772 2.027 1.133l.122.066c1.437.797 2.677 1.483 3.562 2.093 1.14.787 1.222 1.136 1.201 1.253-.059.373-1.032.78-2.21.923-1.179.143-1.89.446-2.29.677-.708.406-1.098.985-1.098 1.627 0 .719.501 1.422 1.378 1.928a6.147 6.147 0 0 0 2.988.741 5.068 5.068 0 0 0 2.48-.58 2.776 2.776 0 0 0 1.25-1.426c.191-.523.78-1.165 1.8-1.221h.148c1.37 0 3.068 1.027 5.413 2.442.507.309 1.15.698 1.872 1.122l-1.137.574-.68.348c-.525.26-.989.492-1.419.698-2.793 1.385-3.841 1.903-3.937 2.978a1.02 1.02 0 0 0 .27.778c.608.682 2.037.802 2.62.823.894.039 1.384.218 1.638.361a.616.616 0 0 1 .368.536c0 .462-.524 1.066-1.353 1.539a6.293 6.293 0 0 1-3.009.832 2.608 2.608 0 0 1-1.282-.27.98.98 0 0 1-.523-.77c-.095-.825-.774-1.788-2.38-1.788h-.107c-1.486.042-3.215 1.12-5.608 2.616-.456.283-.928.576-1.43.883a162.15 162.15 0 0 1-2.803 1.697l-.57-.33c-1.709-.983-3.317-1.918-4.431-2.696-1.41-.996-1.572-1.462-1.542-1.648.065-.38 1.016-.779 2.216-.925 1.163-.141 1.886-.448 2.286-.68.707-.407 1.096-.984 1.096-1.626 0-.719-.503-1.42-1.376-1.919a6.14 6.14 0 0 0-2.99-.741 5.049 5.049 0 0 0-2.468.575 2.81 2.81 0 0 0-1.257 1.429c-.186.523-.769 1.163-1.794 1.221h-.183c-1.69 0-3.779-1.209-7.238-3.21l-.221-.129c.932-.469 1.824-.907 2.598-1.282 3.529-1.725 5.66-2.767 5.762-3.918a1.028 1.028 0 0 0-.27-.776c-.605-.68-2.035-.806-2.62-.829-.892-.035-1.383-.214-1.634-.349a.617.617 0 0 1-.37-.535c0-.462.523-1.064 1.348-1.537a6.319 6.319 0 0 1 3.013-.832c.444-.02.884.072 1.282.269a.99.99 0 0 1 .524.77c.094.824.773 1.787 2.378 1.787h.107c1.67-.049 2.7-.754 5.448-2.64l.246-.174a164.84 164.84 0 0 1 2.794-1.88m-.013-.41a223.809 223.809 0 0 0-2.968 2.002c-2.89 1.968-3.903 2.694-5.518 2.74h-.096c-1.37 0-1.952-.79-2.032-1.477a1.348 1.348 0 0 0-.699-1.034 2.971 2.971 0 0 0-1.454-.314c-1.12.02-2.216.319-3.189.872-1.549.892-1.99 2.093-.978 2.676.285.162.826.366 1.795.405 1.223.047 2.62.397 2.557 1.22-.08.952-2.27 2.02-5.564 3.633a244.05 244.05 0 0 0-3.174 1.57l.775.451c3.479 2.012 5.633 3.257 7.415 3.257h.202c1.193-.066 1.88-.821 2.104-1.453.21-.53.6-.97 1.102-1.244a4.703 4.703 0 0 1 2.294-.523c.982-.01 1.95.23 2.813.698 1.488.855 1.612 2.179.282 2.943-.376.22-1.048.504-2.154.636-1.105.133-2.404.524-2.517 1.221-.175 1.068 2.619 2.671 6.143 4.71l.745.433a169.52 169.52 0 0 0 2.984-1.804c3.131-1.919 5.207-3.394 6.866-3.442h.098c1.374 0 1.952.787 2.03 1.478a1.34 1.34 0 0 0 .7 1.034c.449.228.949.336 1.452.316a6.67 6.67 0 0 0 3.183-.872c1.554-.893 1.996-2.093.985-2.678-.286-.162-.828-.366-1.797-.408-1.222-.044-2.619-.394-2.556-1.221.085-1.02 1.463-1.542 5.165-3.398.75-.38 1.557-.783 2.389-1.21a113.63 113.63 0 0 1-2.417-1.44c-2.47-1.512-4.138-2.51-5.6-2.51H53.3a2.326 2.326 0 0 0-2.109 1.453c-.21.53-.597.97-1.096 1.244-.711.37-1.504.553-2.305.532-.982.01-1.95-.23-2.813-.698-1.486-.858-1.615-2.182-.28-2.951.37-.215 1.048-.5 2.157-.632 1.108-.132 2.404-.532 2.512-1.221.149-.886-2.095-2.13-4.945-3.707-.75-.412-1.53-.839-2.324-1.3l.012.013Z" fill="#37474F"/><path d="M39.71 24.04c-3.484 2.206-6.386 3.97-7.893 4.022-1.193.039-1.696-.673-1.773-1.29a1.516 1.516 0 0 0-.803-1.164c-1.149-.665-3.492-.403-5.201.59-1.71.992-2.17 2.334-1.022 2.998.328.185.941.422 2.019.46 1.077.04 2.3.337 2.243 1.021-.104 1.145-2.694 2.582-7.159 4.876-.873-.508-1.681-.987-2.388-1.42-2.639-1.595-4.376-2.643-6.06-2.554-1.444.077-2.256.946-2.518 1.666a2.16 2.16 0 0 1-.974 1.106c-1.163.675-3.2.593-4.54-.185-1.34-.778-1.482-1.95-.32-2.617.329-.19.928-.44 1.921-.56 1.249-.151 2.756-.62 2.888-1.45.175-.988-2.018-2.199-5.046-3.875-.749-.412-1.53-.84-2.322-1.3l1.173-.698c4-2.363 5.474-3.384 7.241-3.433 1.182-.036 1.69.676 1.768 1.293a1.522 1.522 0 0 0 .797 1.162c1.155.665 3.493.405 5.207-.588 1.715-.993 2.173-2.336 1.018-3-.328-.19-.937-.423-2.015-.464-1.077-.042-2.3-.339-2.238-1.02.1-1.197 2.62-2.649 6.675-4.746l.873.508c3.678 2.132 5.906 3.417 7.896 3.314 1.44-.075 2.256-.943 2.518-1.666.183-.47.526-.862.97-1.105 1.164-.674 3.207-.588 4.54.184 1.332.773 1.485 1.952.323 2.626-.329.19-.928.441-1.921.554-1.245.152-2.747.628-2.888 1.453-.175 1.098 2.19 2.53 5.566 4.482l1.444.82Z" fill="#FAFAFA"/><path d="m20.372 13.264.712.412c3.618 2.093 5.8 3.361 7.835 3.361h.255c1.612-.085 2.53-1.074 2.829-1.896.155-.394.443-.72.815-.923a3.67 3.67 0 0 1 1.804-.408 4.912 4.912 0 0 1 2.394.595c.594.349.934.771.936 1.178.002.406-.334.67-.62.844-.286.174-.855.404-1.791.51-.699.085-2.969.46-3.192 1.745-.219 1.326 2.037 2.702 5.74 4.84l.942.542c-3.17 2-5.876 3.612-7.227 3.663h-.08c-.895 0-1.277-.51-1.335-.984a1.86 1.86 0 0 0-.974-1.425 3.786 3.786 0 0 0-1.861-.426 7.718 7.718 0 0 0-3.686 1.002c-1.163.67-1.83 1.517-1.83 2.327 0 .523.286.977.812 1.278.525.302 1.269.475 2.175.506.873.035 1.62.234 1.851.494a.187.187 0 0 1 .06.146c-.09.976-2.992 2.55-6.81 4.51-.744-.431-1.488-.873-2.22-1.32-2.598-1.57-4.314-2.617-6.036-2.617h-.22c-1.612.083-2.53 1.072-2.827 1.892a1.822 1.822 0 0 1-.823.925 3.67 3.67 0 0 1-1.805.41 4.915 4.915 0 0 1-2.389-.574c-.592-.35-.932-.77-.932-1.176 0-.406.335-.678.616-.84.281-.163.852-.404 1.781-.515.699-.086 2.986-.46 3.19-1.745.208-1.231-1.835-2.362-5.22-4.237l-.121-.066c-.547-.3-1.109-.609-1.678-.933l.257-.154.401-.239 1.381-.82c2.908-1.734 4.235-2.524 5.693-2.564h.078c.893 0 1.273.51 1.33.982a1.854 1.854 0 0 0 .972 1.425c.579.298 1.225.44 1.875.415a7.69 7.69 0 0 0 3.686-1.003c1.163-.67 1.83-1.515 1.83-2.325 0-.523-.29-.977-.812-1.279-.522-.301-1.255-.474-2.177-.51-.873-.032-1.614-.23-1.846-.493a.174.174 0 0 1-.056-.151c.088-1.047 3.018-2.668 6.318-4.375m0-.398c-4.058 2.093-6.576 3.548-6.676 4.745-.06.682 1.165.982 2.239 1.02 1.074.039 1.687.274 2.013.464 1.156.665.699 2.013-1.016 3a7.34 7.34 0 0 1-3.503.956 3.45 3.45 0 0 1-1.695-.368 1.523 1.523 0 0 1-.798-1.161c-.075-.602-.56-1.293-1.678-1.293h-.09c-1.767.049-3.24 1.07-7.24 3.433l-1.174.698c.793.46 1.571.888 2.322 1.3 3.028 1.676 5.213 2.886 5.047 3.874-.133.83-1.64 1.3-2.888 1.451-.989.119-1.588.37-1.921.56-1.163.67-1.025 1.847.32 2.617.785.43 1.668.65 2.564.642a4.02 4.02 0 0 0 1.98-.458 2.16 2.16 0 0 0 .975-1.105c.262-.72 1.074-1.59 2.518-1.666h.202c1.62 0 3.318 1.027 5.857 2.559.698.432 1.51.912 2.389 1.42 4.466-2.294 7.056-3.732 7.159-4.876.056-.684-1.17-.977-2.244-1.02-1.074-.044-1.69-.276-2.018-.461-1.15-.665-.699-2.011 1.021-2.999a7.313 7.313 0 0 1 3.51-.956 3.452 3.452 0 0 1 1.692.367 1.518 1.518 0 0 1 .803 1.163c.075.602.553 1.293 1.681 1.293h.091c1.507-.052 4.41-1.816 7.893-4.023l-1.446-.83c-3.377-1.952-5.748-3.384-5.567-4.481.142-.825 1.643-1.302 2.889-1.453.997-.114 1.596-.365 1.92-.555 1.163-.674 1.022-1.851-.323-2.626a5.292 5.292 0 0 0-2.558-.64 4.028 4.028 0 0 0-1.978.456 2.146 2.146 0 0 0-.97 1.106c-.261.722-1.078 1.59-2.517 1.665h-.238c-1.931 0-4.126-1.268-7.658-3.314l-.873-.508-.016.004Z" fill="#BA68C8"/><path d="M3.078 29.992c-.75-.411-1.531-.839-2.324-1.3v-4.334c.793.46 1.571.886 2.324 1.3 3.026 1.676 5.21 2.885 5.045 3.872-.133.832-1.64 1.301-2.888 1.453a6.587 6.587 0 0 0-.31.044c-.565-.325-1.187-.668-1.847-1.035Z" fill="#BA68C8"/><path opacity=".2" d="M3.078 29.992c-.75-.411-1.531-.839-2.324-1.3v-4.334c.793.46 1.571.886 2.324 1.3 3.026 1.676 5.21 2.885 5.045 3.872-.133.832-1.64 1.301-2.888 1.453a6.587 6.587 0 0 0-.31.044c-.565-.325-1.187-.668-1.847-1.035Z" fill="#000"/><path d="M14.984 22.857c-.729-.143-1.322-.433-1.279-.912v-4.288c0 .649 1.193.936 2.24.971 1.08.044 1.688.276 2.016.466 1.154.665.698 2.013-1.018 3a7.298 7.298 0 0 1-1.949.765l-.01-.002Z" fill="#BA68C8"/><path opacity=".1" d="M14.984 22.857c-.729-.143-1.322-.433-1.279-.912v-4.288c0 .649 1.193.936 2.24.971 1.08.044 1.688.276 2.016.466 1.154.665.698 2.013-1.018 3a7.298 7.298 0 0 1-1.949.765l-.01-.002Z" fill="#000"/><path d="M3.634 34.164c-.735-.423-1.108-.965-1.107-1.48v4.325c0 .523.367 1.06 1.106 1.484 1.344.78 3.382.86 4.54.187v-4.331c-1.15.675-3.187.593-4.539-.185Z" fill="#BA68C8"/><path opacity=".1" d="M3.634 34.164c-.735-.423-1.108-.965-1.107-1.48v4.325c0 .523.367 1.06 1.106 1.484 1.344.78 3.382.86 4.54.187v-4.331c-1.15.675-3.187.593-4.539-.185Z" fill="#000"/><path d="M8.184 34.353v4.337c.443-.245.787-.636.972-1.106v-4.337c-.185.47-.529.862-.972 1.106Z" fill="#BA68C8"/><path d="M8.184 34.353v4.337c.443-.245.787-.636.972-1.106v-4.337c-.185.47-.529.862-.972 1.106ZM17.733 34.13c-2.636-1.594-4.376-2.645-6.059-2.554-1.444.077-2.256.946-2.518 1.666v4.337c.262-.723 1.074-1.591 2.518-1.668 1.684-.089 3.423.96 6.06 2.554.698.432 1.51.912 2.388 1.42V35.55a104.79 104.79 0 0 1-2.389-1.42Z" fill="#BA68C8"/><path opacity=".2" d="M17.733 34.13c-2.636-1.594-4.376-2.645-6.059-2.554-1.444.077-2.256.946-2.518 1.666v4.337c.262-.723 1.074-1.591 2.518-1.668 1.684-.089 3.423.96 6.06 2.554.698.432 1.51.912 2.388 1.42V35.55a104.79 104.79 0 0 1-2.389-1.42Z" fill="#000"/><path d="M20.125 35.556v4.334c4.467-2.292 7.056-3.731 7.16-4.875V30.68c-.104 1.144-2.699 2.582-7.16 4.876ZM32.701 18.73c.143-.827 1.645-1.301 2.888-1.453.999-.113 1.598-.364 1.921-.555.524-.307.788-.715.788-1.144V19.9c0 .433-.25.85-.785 1.158-.326.19-.925.442-1.92.555-1.88-1.17-3.02-2.109-2.892-2.882Z" fill="#BA68C8"/><path opacity=".2" d="M32.701 18.73c.143-.827 1.645-1.301 2.888-1.453.999-.113 1.598-.364 1.921-.555.524-.307.788-.715.788-1.144V19.9c0 .433-.25.85-.785 1.158-.326.19-.925.442-1.92.555-1.88-1.17-3.02-2.109-2.892-2.882Z" fill="#000"/><path d="M29.249 25.608c-1.151-.665-3.493-.403-5.204.59-1.711.992-2.17 2.334-1.021 2.998.328.185.94.422 2.018.46.324.013.647.05.966.11 1.25-.292 2.495-.252 3.24.175a1.519 1.519 0 0 1 .802 1.162v-4.331a1.515 1.515 0 0 0-.801-1.164Z" fill="#BA68C8"/><path opacity=".2" d="M29.249 25.608c-1.151-.665-3.493-.403-5.204.59-1.711.992-2.17 2.334-1.021 2.998.328.185.94.422 2.018.46.324.013.647.05.966.11 1.25-.292 2.495-.252 3.24.175a1.519 1.519 0 0 1 .802 1.162v-4.331a1.515 1.515 0 0 0-.801-1.164Z" fill="#000"/><path d="M31.824 28.062v4.335c1.507-.053 4.41-1.816 7.893-4.023v-4.336c-3.484 2.208-6.386 3.971-7.893 4.024ZM30.05 26.773v4.334c.078.618.58 1.33 1.773 1.291v-4.335c-1.192.039-1.695-.673-1.772-1.29Z" fill="#BA68C8"/><path opacity=".1" d="M30.05 26.773v4.334c.078.618.58 1.33 1.773 1.291v-4.335c-1.192.039-1.695-.673-1.772-1.29Z" fill="#000"/><path d="M39.991 23.85v4.337l-.276-.16v-3.991l-1.444-.83c-2.459-1.42-4.383-2.567-5.177-3.507v-.89c0 1.066 2.72 2.638 6.148 4.61l.749.432Z" fill="#263238"/><path d="M59.105 12.848c.75-.38 1.557-.784 2.388-1.211-.887-.513-1.7-1.001-2.418-1.44-2.565-1.55-4.266-2.576-5.762-2.495a2.326 2.326 0 0 0-2.11 1.453c-.209.53-.597.97-1.096 1.243-1.336.77-3.63.698-5.118-.162-1.488-.86-1.615-2.182-.28-2.951.37-.215 1.048-.5 2.157-.632s2.404-.532 2.513-1.221c.148-.886-2.096-2.13-4.945-3.707-.751-.412-1.53-.839-2.325-1.3a223.809 223.809 0 0 0-2.968 2.003c-2.89 1.98-3.903 2.706-5.518 2.753-1.439.038-2.046-.773-2.128-1.476a1.348 1.348 0 0 0-.699-1.034c-1.013-.585-3.089-.332-4.643.565-1.554.896-1.99 2.093-.978 2.676.285.162.826.366 1.795.404 1.223.048 2.62.398 2.557 1.222-.08.95-2.27 2.018-5.564 3.631-.963.47-2.048 1.002-3.174 1.57l.775.452c3.611 2.093 5.796 3.351 7.617 3.252 1.193-.067 1.88-.822 2.104-1.453.21-.53.6-.97 1.102-1.244 1.33-.764 3.625-.698 5.107.166 1.483.863 1.612 2.178.282 2.942-.376.22-1.048.505-2.153.637-1.106.133-2.405.523-2.518 1.221-.175 1.068 2.619 2.67 6.143 4.71l.745.433a170.13 170.13 0 0 0 2.984-1.804c3.131-1.919 5.207-3.395 6.866-3.442 1.444-.038 2.048.77 2.129 1.476a1.34 1.34 0 0 0 .698 1.034c1.011.585 3.087.334 4.636-.563s1.996-2.093.985-2.678c-.286-.162-.828-.366-1.797-.408-1.222-.043-2.619-.394-2.556-1.22.087-1.025 1.465-1.546 5.167-3.402Z" fill="#FAFAFA"/><path d="M42.117.84c.698.398 1.368.772 2.027 1.133l.122.066c1.437.797 2.677 1.483 3.562 2.093 1.14.787 1.222 1.136 1.201 1.253-.059.373-1.032.78-2.21.923-1.179.143-1.89.446-2.29.677-.708.406-1.098.985-1.098 1.627 0 .719.501 1.422 1.378 1.928a6.147 6.147 0 0 0 2.988.741 5.068 5.068 0 0 0 2.48-.58 2.776 2.776 0 0 0 1.25-1.426c.191-.523.78-1.165 1.8-1.221h.148c1.37 0 3.068 1.027 5.413 2.442.507.309 1.15.698 1.872 1.122l-1.135.574-.683.348c-.524.26-.988.492-1.418.698-2.793 1.385-3.841 1.903-3.937 2.978a1.02 1.02 0 0 0 .27.778c.608.682 2.037.802 2.62.823.894.039 1.384.218 1.638.361a.616.616 0 0 1 .368.536c0 .462-.524 1.066-1.353 1.539a6.293 6.293 0 0 1-3.009.832 2.608 2.608 0 0 1-1.282-.27.98.98 0 0 1-.523-.77c-.095-.825-.774-1.788-2.379-1.788h-.108c-1.486.042-3.215 1.12-5.608 2.616-.456.283-.928.576-1.43.883-1.048.65-1.95 1.193-2.803 1.697l-.57-.33c-1.709-.983-3.317-1.918-4.431-2.696-1.41-.996-1.572-1.462-1.542-1.648.065-.38 1.016-.779 2.216-.925 1.163-.141 1.886-.448 2.286-.68.707-.407 1.096-.984 1.096-1.626 0-.719-.503-1.42-1.376-1.919a6.14 6.14 0 0 0-2.99-.741 5.049 5.049 0 0 0-2.468.575 2.81 2.81 0 0 0-1.257 1.429c-.186.523-.769 1.163-1.794 1.221h-.185c-1.688 0-3.777-1.209-7.236-3.21l-.221-.127a178.25 178.25 0 0 1 2.598-1.284c3.529-1.725 5.66-2.767 5.762-3.918a1.028 1.028 0 0 0-.27-.776c-.605-.679-2.035-.806-2.62-.829-.892-.035-1.383-.214-1.634-.349a.617.617 0 0 1-.37-.535c0-.462.523-1.064 1.348-1.537a6.319 6.319 0 0 1 3.013-.832c.444-.02.884.072 1.282.269a.99.99 0 0 1 .524.77c.094.824.773 1.787 2.378 1.787h.107c1.67-.049 2.7-.754 5.448-2.64l.246-.174a164.84 164.84 0 0 1 2.794-1.88m-.013-.41a223.809 223.809 0 0 0-2.968 2.002c-2.89 1.968-3.903 2.694-5.518 2.74h-.096c-1.37 0-1.952-.79-2.032-1.477a1.348 1.348 0 0 0-.699-1.034 2.971 2.971 0 0 0-1.454-.314c-1.12.02-2.216.319-3.189.872-1.549.892-1.99 2.093-.978 2.676.285.162.826.366 1.795.405 1.223.047 2.62.397 2.557 1.22-.08.952-2.27 2.02-5.564 3.633a244.05 244.05 0 0 0-3.174 1.57l.775.451c3.479 2.012 5.633 3.257 7.413 3.257h.204c1.193-.066 1.88-.821 2.104-1.453.21-.53.6-.97 1.102-1.244a4.703 4.703 0 0 1 2.294-.523c.982-.01 1.95.23 2.813.698 1.488.855 1.612 2.179.282 2.943-.376.22-1.048.504-2.154.636-1.105.133-2.404.524-2.517 1.221-.175 1.068 2.619 2.671 6.143 4.71l.745.433a169.52 169.52 0 0 0 2.984-1.804c3.131-1.919 5.207-3.394 6.866-3.442h.098c1.374 0 1.952.787 2.03 1.478a1.34 1.34 0 0 0 .7 1.034c.449.228.949.336 1.452.316a6.67 6.67 0 0 0 3.183-.872c1.554-.893 1.996-2.093.985-2.678-.286-.162-.828-.366-1.797-.408-1.222-.044-2.619-.394-2.556-1.221.085-1.02 1.463-1.542 5.165-3.398.75-.38 1.557-.783 2.389-1.21-.887-.513-1.701-1.002-2.419-1.44-2.469-1.51-4.138-2.51-5.598-2.51H53.3a2.326 2.326 0 0 0-2.109 1.453c-.21.53-.597.97-1.096 1.244-.711.37-1.504.553-2.305.532-.982.01-1.95-.23-2.813-.698-1.486-.858-1.615-2.182-.28-2.951.37-.215 1.048-.5 2.157-.632 1.108-.132 2.404-.532 2.512-1.221.149-.886-2.095-2.13-4.945-3.707-.75-.412-1.53-.839-2.324-1.3l.012.013Z" fill="#455A64"/></svg>