<svg width="64" height="56" fill="none" xmlns="http://www.w3.org/2000/svg"><path d="M36.121 55.73c-2.498-1.079-3.494-3.645-3.846-6.035-.06-.397-.185-.81-.043-1.19.142-.381.58-.692 1-.585.35.089.554.409.788.662.31.34.72.594 1.182.73.302.088.66.116.908-.064.339-.247.29-.726.22-1.12-.142-.731-.281-1.462-.417-2.193a3.42 3.42 0 0 1-.086-1.19c.064-.397.297-.794.689-.958.391-.164.94-.03 1.098.343.047.16.082.323.105.488.042.162.16.33.337.35.179.02.334-.119.443-.255.37-.467.58-1.026.768-1.58.188-.555.365-1.12.69-1.617.324-.497.82-.926 1.433-1.058.613-.132 1.338.12 1.595.65.256.53.008 1.15-.29 1.66A9.076 9.076 0 0 1 41 44.825a.735.735 0 0 0-.275.381c-.045.278.277.497.58.54.339.047.684-.037 1.027-.053.344-.016.734.063.916.334.251.376-.04.856-.352 1.19a8.285 8.285 0 0 1-2.207 1.667c-.299.155-.616.3-.835.544-.22.243-.307.621-.102.875.206.254.622.282.944.174.322-.109.59-.32.887-.477.557-.296 1.33-.378 1.799.032.146.144.253.316.314.504.06.187.073.386.035.578-.077.384-.238.75-.474 1.075-.75 1.178-1.83 2.153-3.128 2.826-1.297.648-2.552.964-4.006.718" fill="#F5F5F5"/><path d="M36.518 54.138c.192-1.362.47-2.712.832-4.044l.278-1.049c.092-.345.183-.686.29-1.014.217-.63.471-1.248.763-1.852.274-.579.556-1.121.824-1.625.269-.504.53-.97.789-1.384a14.148 14.148 0 0 1 1.802-2.345c.048-.05.087-.09.114-.12.028-.03.04-.04.042-.038a.392.392 0 0 1-.035.043l-.11.125c-.095.108-.237.264-.414.48-.501.596-.952 1.225-1.35 1.882-.253.415-.511.88-.778 1.385a36.859 36.859 0 0 0-.816 1.625c-.289.604-.54 1.222-.754 1.852-.111.327-.201.661-.29 1.01l-.278 1.05a33.799 33.799 0 0 0-.837 4.034" fill="#E0E0E0"/><path d="M37.943 48.026a.73.73 0 0 1-.074-.163c-.044-.105-.1-.264-.167-.451-.133-.384-.298-.92-.478-1.51-.18-.589-.352-1.122-.493-1.502l-.168-.45a.912.912 0 0 1-.057-.167c.035.049.064.102.086.157.05.102.116.254.193.442.155.378.336.909.517 1.501.181.593.334 1.111.455 1.513.057.183.103.336.145.46a.924.924 0 0 1 .04.17Z" fill="#E0E0E0"/><path d="M43.328 46.219a1.17 1.17 0 0 1-.218.06 17.6 17.6 0 0 0-.593.146c-.5.133-1.182.328-1.926.58-.744.25-1.406.506-1.884.702-.238.096-.428.18-.56.237-.066.033-.135.06-.207.082.06-.043.125-.079.193-.109.127-.065.314-.154.55-.264.467-.21 1.128-.472 1.873-.725a20.937 20.937 0 0 1 1.941-.56c.252-.06.458-.1.602-.125.075-.015.152-.023.229-.024ZM36.568 54.033a.35.35 0 0 1-.049-.056l-.129-.168a20.927 20.927 0 0 1-.454-.634c-.376-.54-.87-1.3-1.401-2.146a91.123 91.123 0 0 0-1.382-2.155l-.434-.647-.116-.176a.246.246 0 0 1-.037-.063s.02.017.05.055c.03.039.078.1.129.17.111.146.266.362.455.633.375.54.87 1.299 1.401 2.146.532.846 1.015 1.61 1.38 2.155l.435.646.116.176a.24.24 0 0 1 .036.064Z" fill="#E0E0E0"/><path d="M43.552 50.722a.272.272 0 0 1-.068.04l-.202.098-.748.356c-.632.301-1.498.726-2.455 1.19-.957.464-1.828.889-2.464 1.177-.32.144-.58.265-.76.335l-.217.087a.359.359 0 0 1-.075.027.32.32 0 0 1 .068-.04l.203-.098.747-.357c.631-.3 1.498-.725 2.454-1.19A115 115 0 0 1 42.5 51.17c.318-.144.58-.265.76-.335l.208-.087a.308.308 0 0 1 .084-.027Z" fill="#E0E0E0"/><path d="M17.998 27.34s-1.722.219-.755 3.66c.967 3.441 1.787 5.217 1.787 5.217s.13.779-.56.755c-.688-.024-2.092-.53-2.57.144-.492.703-.06 1.55 1.016 2.438 1.075.887 3.368 2.91 3.574 3.093.206.184.357.562-.116.614-.473.051-3.824-.307-3.914 1.154-.09 1.462 3.365 3.483 3.737 3.71.373.228.435.405.348.603-.087.199-1.197-.02-2.155-.087-.959-.067-2.083.01-2.059.857.025.847 1.84 2.99 7.13 4.582l2.507.591 1.85-1.664c3.726-3.781 4.133-6.462 3.694-7.208-.44-.746-1.45-.303-2.253.189-.803.492-1.643 1.19-1.823 1.058-.18-.132-.226-.315-.026-.681.2-.366 2.097-3.686 1.222-4.914-.876-1.227-3.59.6-4.024.769-.435.168-.513-.232-.435-.48.078-.249.963-3.042 1.418-4.305.455-1.264.368-2.192-.444-2.578-.783-.372-1.723.707-2.309 1.04-.585.334-.896-.396-.896-.396s-.255-1.911-1.29-5.337c-1.035-3.425-2.686-2.812-2.686-2.812" fill="#EBEBEB"/><path d="M25.966 55.238c-.75-2.513-2-7.01-3.095-10.871-1.094-3.86-2.089-7.342-2.825-9.863-.368-1.259-.667-2.277-.87-2.985-.101-.35-.18-.624-.236-.812l-.06-.212c-.014-.047-.018-.072-.018-.072s.01.022.026.07l.067.21c.059.188.145.459.252.808.217.702.524 1.72.898 2.979.75 2.513 1.754 6.006 2.849 9.858 1.094 3.853 2.335 8.354 3.071 10.875" fill="#E0E0E0"/><path d="M17.834 37.9a.968.968 0 0 1 .166.082c.103.055.25.14.435.246.36.212.852.518 1.387.863l1.365.889.416.265c.053.03.101.064.145.104a.946.946 0 0 1-.167-.08c-.103-.056-.25-.14-.434-.248-.358-.215-.845-.529-1.38-.873l-1.373-.88-.417-.264a.842.842 0 0 1-.143-.103ZM21.957 40.24c-.018-.01.627-.961 1.44-2.124.813-1.162 1.49-2.096 1.509-2.085.018.01-.627.962-1.441 2.125-.815 1.163-1.489 2.093-1.508 2.084ZM23.347 46.23a.736.736 0 0 1 .137-.121l.39-.312c.33-.265.783-.63 1.267-1.05.484-.421.91-.814 1.215-1.1.145-.133.264-.25.36-.34a.974.974 0 0 1 .146-.121.706.706 0 0 1-.116.139 20.02 20.02 0 0 1-1.544 1.475c-.487.42-.945.782-1.284 1.036-.171.133-.31.228-.409.295a.898.898 0 0 1-.162.1ZM19.106 44.862c.058.007.116.02.171.039l.46.132a116.713 116.713 0 0 1 2.998.927l.451.15a.82.82 0 0 1 .161.066.72.72 0 0 1-.17-.037l-.46-.133a109.235 109.235 0 0 1-2.999-.927l-.451-.152a.689.689 0 0 1-.161-.065ZM19.597 50.292c.074.01.148.027.219.05l.588.164c.496.142 1.178.341 1.932.567.754.227 1.434.433 1.925.588l.58.185c.072.02.142.047.21.078a1.24 1.24 0 0 1-.22-.05l-.589-.164a178.505 178.505 0 0 1-3.856-1.155l-.58-.187a1.332 1.332 0 0 1-.21-.076ZM24.932 51.852c.051-.057.108-.11.17-.157l.48-.412c.404-.348.96-.83 1.56-1.38a67.79 67.79 0 0 0 1.507-1.428l.449-.439c.053-.056.11-.108.172-.156a1.19 1.19 0 0 1-.145.175 35.069 35.069 0 0 1-1.928 1.9 37.428 37.428 0 0 1-1.576 1.367c-.21.168-.379.304-.499.396-.06.05-.123.094-.19.134Z" fill="#E0E0E0"/><path d="M10.519 6.817 9.104 6.42s-.37 1.085-1.612.753a1.217 1.217 0 0 1-.611-.363 1.045 1.045 0 0 1-.268-.62 1.11 1.11 0 0 1 .092-.561c.08-.178.204-.336.364-.461.364-.294 1.002-.472 1.902-.048l.996-2.91-1.4-.396-.579 1.705s-2.122-.097-2.796 1.875c-.645 1.887 1.06 2.854 1.854 3.08.603.172 2.72.627 3.473-1.657ZM8.757 1.21l1.42.404.413-1.21L9.17 0l-.413 1.21Z" fill="#F5F5F5"/><path d="m14.422 3.534.567-.132a.417.417 0 0 1 .053-.351.472.472 0 0 1 .133-.133.52.52 0 0 1 .18-.076.519.519 0 0 1 .29.004.476.476 0 0 1 .328.361.437.437 0 0 1-.016.222c-.054.168-.226.351-.626.381l.337 1.166.56-.133-.197-.682c.212-.117.376-.294.467-.504a.946.946 0 0 0 .036-.66c-.218-.757-1.015-.753-1.33-.677-.243.051-1.056.304-.782 1.214ZM16.425 5.012l-.57.14.142.486.571-.14-.143-.486ZM61.212 16.918l.551.181a.451.451 0 0 1 .104-.153.541.541 0 0 1 .548-.111c.093.027.175.08.233.151a.408.408 0 0 1 .095.246.443.443 0 0 1-.048.22.488.488 0 0 1-.152.176c-.145.11-.404.17-.752-.013l-.451 1.134.545.18.264-.662c.247.014.493-.046.699-.172.206-.125.361-.31.441-.523.29-.736-.363-1.144-.672-1.246-.236-.085-1.063-.298-1.405.592ZM61.803 19.159l-.553-.183-.187.471.553.183.187-.471Z" fill="#EBEBEB"/><path d="m2.758 22.674 1.16-.41s-.377-.893.633-1.267c.193-.075.407-.093.612-.052a1.041 1.041 0 0 1 .79.695.936.936 0 0 1 .024.476c-.072.367-.391.793-1.23.94l1.014 2.398 1.16-.405-.594-1.404s1.45-.95.77-2.577c-.66-1.555-2.347-1.378-2.995-1.149-.5.176-2.159.886-1.344 2.755ZM7.14 25.538l-1.17.412.421.997 1.17-.411-.42-.998ZM61.666 26.709l-.826.29s.266.633-.45.897a.789.789 0 0 1-.434.036.745.745 0 0 1-.378-.197.71.71 0 0 1-.182-.294.662.662 0 0 1-.016-.337c.052-.265.278-.56.87-.661l-.71-1.705-.818.287.42.996a1.56 1.56 0 0 0-.61.828c-.099.33-.076.68.065.997.465 1.102 1.657.977 2.12.815.352-.126 1.526-.629.949-1.953ZM58.56 24.682l.83-.292-.299-.706-.829.292.298.706Z" fill="#F5F5F5"/><path d="M64 55.955c0 .02-14.328.035-31.999.035C14.331 55.99 0 55.975 0 55.955c0-.02 14.325-.034 32.001-.034 17.677 0 31.999.016 31.999.034Z" fill="#263238"/><path d="M9.19 52.522c.145-.487-.213-.975-.604-1.323s-.86-.668-1.064-1.135c-.33-.756.113-1.735-.45-2.366-.331-.37-.925-.495-1.22-.891a1.899 1.899 0 0 1-.265-.708 7.012 7.012 0 0 0-1.961-3.349c-.066 1.12.2 2.234.77 3.227.227.397.508.783.58 1.227.123.718-.318 1.454-.124 2.163.222.807 1.215 1.348 1.261 2.179.04.702-.63 1.322-.58 2.02.041.3.16.585.347.834.594.903 1.47 1.525 2.794 1.505l1.624.052-1.108-3.435Z" fill="#FF725E"/><path d="M9.19 52.522c.145-.486-.213-.974-.604-1.322-.391-.348-.86-.668-1.064-1.135-.33-.757.113-1.735-.45-2.366-.331-.37-.925-.495-1.22-.892a1.899 1.899 0 0 1-.265-.707 7.011 7.011 0 0 0-1.961-3.35c-.066 1.12.2 2.235.77 3.228.227.397.508.783.58 1.226.123.718-.318 1.455-.124 2.164.222.807 1.215 1.348 1.261 2.178.04.703-.63 1.323-.58 2.021.041.3.16.585.347.833.594.904 1.47 1.525 2.794 1.506l1.624.051-1.108-3.435Z" fill="#000" opacity=".3"/><path d="M10.626 55.986c.148.021.3.019.448-.008a3.01 3.01 0 0 0 .526-.121c.235-.075.456-.185.652-.326a.835.835 0 0 0 .268-.326 1.42 1.42 0 0 0 .075-.442c.004-.16.017-.32.04-.479.03-.169.097-.33.197-.476.191-.307.51-.598.611-1.015.102-.416.032-.853-.043-1.297-.075-.445-.145-.926.038-1.392.182-.465.53-.882.708-1.403.179-.52.095-1.095.132-1.654.011-.285.083-.564.212-.823.13-.265.313-.51.455-.784.29-.558.34-1.19.418-1.811l.116-.946c.024-.32.085-.638.18-.948.11-.312.24-.618.39-.917a3 3 0 0 0 .188-.477c.027-.17.044-.34.052-.51a5.542 5.542 0 0 0-.044-1.026c-.043-.34-.111-.68-.152-1.022v-.06l-.009-.067-.065.03c-.343.16-.64.39-.87.672a3.57 3.57 0 0 0-.537.904c-.271.636-.368 1.303-.505 1.939-.136.636-.31 1.261-.666 1.79-.179.265-.395.506-.58.762a2 2 0 0 0-.403.844c-.097.627.281 1.177.203 1.733a1.807 1.807 0 0 1-.29.768c-.145.237-.32.456-.486.676a4.252 4.252 0 0 0-.435.684 2 2 0 0 0-.2.742c-.039.5.038.973 0 1.42-.045.427-.181.84-.401 1.219-.196.363-.415.693-.597 1.013a5.076 5.076 0 0 0-.247.472 2.206 2.206 0 0 0-.145.468c-.048.28-.052.564-.011.845.042.392.203.765.464 1.078.04.047.084.092.131.132.032.031.068.059.106.082.061.041.093.06.093.06a1.945 1.945 0 0 1-.315-.283 2.026 2.026 0 0 1-.434-1.072 2.669 2.669 0 0 1 .02-.833c.03-.156.08-.309.145-.456a4.66 4.66 0 0 1 .248-.466c.184-.317.404-.645.604-1.011a3.1 3.1 0 0 0 .415-1.24c.043-.456-.032-.932.008-1.419.02-.248.085-.491.196-.718.123-.235.268-.459.435-.67.165-.219.34-.438.491-.68.166-.244.272-.517.31-.8.079-.592-.297-1.145-.2-1.728.064-.292.197-.567.39-.807.184-.252.402-.493.58-.764.37-.544.548-1.181.683-1.82s.235-1.3.501-1.925c.129-.313.305-.609.524-.878.22-.27.507-.492.836-.645l-.074-.039c0 .02 0 .04.007.061.04.347.11.685.145 1.024a5.356 5.356 0 0 1-.007 1.504 2.816 2.816 0 0 1-.183.461c-.15.302-.28.611-.39.926a4.426 4.426 0 0 0-.184.963c-.037.319-.076.635-.114.947-.078.623-.13 1.245-.406 1.783-.145.264-.319.517-.454.787a2.1 2.1 0 0 0-.217.853c-.036.571.045 1.13-.125 1.636-.17.505-.521.926-.7 1.403-.178.478-.113.983-.035 1.426.079.443.157.88.053 1.273-.105.392-.403.686-.598 1-.102.152-.17.32-.201.497-.022.16-.034.322-.035.484 0 .146-.023.291-.07.431a.787.787 0 0 1-.25.31c-.191.141-.406.252-.637.329-.168.059-.342.103-.52.132a2.183 2.183 0 0 1-.329.03c-.091-.009-.13-.009-.13-.009Z" fill="#263238"/><path d="M15.754 38.542a.15.15 0 0 0-.016.045l-.035.132c-.032.118-.07.294-.132.513-.06.22-.21.468-.336.774a10.35 10.35 0 0 0-.385 1.05c-.125.397-.234.833-.35 1.304a5.156 5.156 0 0 1-.519 1.446c-.133.24-.29.484-.401.751a3.204 3.204 0 0 0-.233.85c-.083.602-.2 1.2-.351 1.791l-.918 3.422c-.282 1.053-.55 1.995-.77 2.79-.22.797-.386 1.432-.508 1.885l-.134.514-.033.132a.224.224 0 0 0 0 .046.164.164 0 0 0 .019-.044c.01-.035.025-.078.042-.132l.152-.509.542-1.875c.228-.787.493-1.74.79-2.786.297-1.046.599-2.21.926-3.424.15-.593.265-1.193.343-1.798.037-.284.113-.562.226-.829.114-.264.26-.501.394-.745.29-.482.404-1 .519-1.468.114-.467.216-.908.335-1.302.118-.395.243-.746.368-1.05.124-.305.262-.556.322-.784.059-.227.086-.396.113-.518.01-.055.018-.099.026-.132.004-.033.007-.05.004-.05Z" fill="#263238"/><path d="M10.913 55.994c1.06-.576 1.364-2.322.921-3.372-.442-1.05-1.216-2.01-1.335-3.13-.092-.861.218-1.745 0-2.586-.297-1.136-1.511-2.016-1.497-3.184.007-.654.416-1.27.383-1.925-.04-.802-.715-1.44-1.132-2.146-.64-1.083-.683-2.362-.902-3.57-.219-1.21-.724-2.514-1.904-3.11-.174 1.03-.471 1.736-.379 3.132.035.5.673 1.455.76 2.559.052.661.087 1.315.132 1.97.045.657.088 1.291.339 1.89.193.458.501.875.645 1.348.268.89-.086 1.852.132 2.757.184.764.764 1.422.883 2.197.165 1.088-.606 2.22-.212 3.259.197.515.66.925.793 1.461.103.413-.009.85.084 1.265.145.669 1.545 1.19 2.291 1.146" fill="#FF725E"/><path d="M5.736 33.989a.286.286 0 0 0 0 .058c0 .044.015.1.024.17.024.149.052.367.107.65.055.283.22.603.348.99.127.386.27.828.388 1.322.119.495.223 1.046.33 1.638.105.59.22 1.235.543 1.851.145.308.316.618.435.949.121.338.196.689.223 1.044.059.755.163 1.505.311 2.249l.915 4.304c.281 1.324.564 2.505.79 3.505.226 1 .412 1.798.54 2.362l.146.641c.017.07.03.123.042.166.004.02.01.038.017.057a.218.218 0 0 0 0-.059l-.032-.168-.133-.645c-.122-.565-.29-1.372-.509-2.367-.219-.997-.478-2.19-.767-3.51-.288-1.318-.58-2.777-.906-4.302a19.345 19.345 0 0 1-.313-2.248 4.01 4.01 0 0 0-.23-1.066c-.13-.336-.299-.647-.448-.954-.319-.607-.435-1.24-.545-1.83a27.248 27.248 0 0 0-.342-1.638 12.885 12.885 0 0 0-.406-1.323c-.142-.38-.3-.703-.364-.98-.064-.276-.094-.498-.125-.645a16.705 16.705 0 0 1-.034-.168.41.41 0 0 0-.005-.053Z" fill="#263238"/><path d="M54.693 4.947h.58c0-.06.012-.12.037-.175a.448.448 0 0 1 .11-.148.533.533 0 0 1 .356-.128.5.5 0 0 1 .273.07.436.436 0 0 1 .214.42.444.444 0 0 1-.076.208c-.098.148-.313.282-.701.22v1.19h.57v-.696c.233-.063.438-.194.582-.373a.956.956 0 0 0 .216-.619c0-.77-.757-.948-1.081-.948-.248-.006-1.092.049-1.08.979ZM56.059 6.844h-.578v.493h.578v-.493Z" fill="#FF725E"/><path d="M60.016 5.654a.4.4 0 0 0 0-.068V5.39c0-.042 0-.09-.008-.144a5.675 5.675 0 0 0-.026-.172l-.032-.202-.06-.225a3.516 3.516 0 0 0-.522-1.091 4.063 4.063 0 0 0-1.361-1.221 4.499 4.499 0 0 0-2.392-.56c-.097 0-.197 0-.29.018l-.299.04a4.59 4.59 0 0 0-1.177.367 4.602 4.602 0 0 0-1.056.703c-.322.297-.59.638-.796 1.01a3.444 3.444 0 0 0-.46 1.56 2.52 2.52 0 0 0-.007.333c.032.71.275 1.398.703 1.99v-.04l-.594 1.348-.035.081.092-.024 1.58-.397-.038-.007a4.442 4.442 0 0 0 1.809.722c.304.052.615.069.924.051.15-.002.298-.015.445-.038l.216-.03c.071-.012.145-.032.21-.047.973-.225 1.827-.759 2.408-1.506.217-.276.391-.577.518-.896.027-.07.053-.132.078-.2.025-.07.038-.133.054-.192l.047-.176c.015-.056.02-.11.028-.162.013-.102.033-.192.038-.264.004-.073 0-.143 0-.199V5.66a.123.123 0 0 0 0 .041c0 .03 0 .07-.01.12-.01.05-.01.12-.015.197-.006.077-.028.167-.045.265a3.718 3.718 0 0 1-1.06 1.956 4.3 4.3 0 0 1-2.058 1.112c-.068.015-.136.033-.206.045l-.213.03a3.16 3.16 0 0 1-.435.035 4.389 4.389 0 0 1-2.674-.764l-.017-.014h-.022l-1.581.397.055.057.596-1.348.008-.02-.013-.02a3.554 3.554 0 0 1-.687-1.946 2.4 2.4 0 0 1 .007-.324c.001-.108.01-.215.03-.322.055-.42.192-.828.404-1.205.201-.364.463-.697.775-.989a4.48 4.48 0 0 1 1.035-.689c.363-.172.75-.295 1.152-.364l.29-.04c.097-.014.195-.013.29-.02a4.454 4.454 0 0 1 2.352.539 4.027 4.027 0 0 1 1.35 1.19c.24.33.419.693.53 1.074l.066.223.036.198.03.172c.01.053.008.1.012.143 0 .082.012.147.016.194a.205.205 0 0 0 .005.072Z" fill="#263238"/><path d="M16.79 21.251h8.372s0-6.413 7.303-6.527c3.794-.06 5.76 2.208 6.56 3.944.928 2.017.647 4.316-.596 6.188-1.42 2.135-4.478 4.282-10.12 3.375l-.053 17.018h8.278V35.16s11.609-2.738 11.609-14.416c0-11.17-9.898-13.583-15.22-13.739-2.96-.086-4.032-.202-7.693.273-4.666.608-8.538 5.552-8.44 13.973ZM36.634 48.797h-8.401v7.16h8.401v-7.16Z" fill="#FF725E"/><path opacity=".1" d="M36.634 48.797h-8.401v7.16h8.401v-7.16ZM16.79 21.251h8.372s0-6.413 7.303-6.527c3.794-.06 5.76 2.208 6.56 3.944.928 2.017.647 4.316-.596 6.188-1.42 2.135-4.478 4.282-10.12 3.375l-.053 17.018h8.278V35.16s11.609-2.738 11.609-14.416c0-11.17-9.898-13.583-15.22-13.739-2.96-.086-4.032-.202-7.693.273-4.666.608-8.538 5.552-8.44 13.973Z" fill="#000"/><path d="M13.322 21.253h8.373s0-6.413 7.303-6.527c3.794-.06 5.76 2.208 6.56 3.944.928 2.017.647 4.316-.596 6.187-1.42 2.137-4.532 4.078-10.173 3.175V45.25h8.278V35.162s11.609-2.738 11.609-14.417C44.676 9.575 33.698 6.982 29 6.982c-3.593.004-15.836.796-15.678 14.271Z" fill="#FF725E"/><path opacity=".3" d="M13.322 21.253h8.373s0-6.413 7.303-6.527c3.794-.06 5.76 2.208 6.56 3.944.928 2.017.647 4.316-.596 6.187-1.42 2.137-4.532 4.078-10.173 3.175V45.25h8.278V35.162s11.609-2.738 11.609-14.417C44.676 9.575 33.698 6.982 29 6.982c-3.593.004-15.836.796-15.678 14.271Z" fill="#000"/><path d="M33.167 48.797h-8.401v7.16h8.4v-7.16Z" fill="#FF725E"/><path opacity=".3" d="M33.167 48.797h-8.401v7.16h8.4v-7.16Z" fill="#000"/><path d="M29.943 14.76a.787.787 0 0 1-.125 0c-.082 0-.201-.026-.356-.027a7.913 7.913 0 0 0-1.313.05c-.646.075-1.28.211-1.895.406a8.547 8.547 0 0 0-1.055.416 5.665 5.665 0 0 0-1.033.61c-.317.239-.6.512-.846.814a7.958 7.958 0 0 0-.633.876 7.468 7.468 0 0 0-.75 1.637 6.146 6.146 0 0 0-.252 1.177c-.017.14-.021.252-.026.326a.551.551 0 0 1-.011.113.584.584 0 0 1 0-.113c0-.076 0-.187.013-.328.033-.403.11-.802.23-1.19a7.255 7.255 0 0 1 .74-1.657c.19-.307.402-.603.636-.885a4.84 4.84 0 0 1 .855-.826c.323-.24.674-.448 1.047-.618a8.536 8.536 0 0 1 1.062-.423 9.848 9.848 0 0 1 1.912-.397c.438-.049.88-.058 1.32-.028.12.007.239.02.357.04a.989.989 0 0 1 .123.026ZM42.557 13.396l-.028-.03a1.992 1.992 0 0 1-.072-.092l-.277-.357c-.06-.077-.123-.165-.199-.257l-.26-.29-.3-.334c-.108-.116-.236-.229-.363-.352-.128-.123-.258-.254-.406-.38-.148-.125-.306-.253-.468-.386l-.248-.202-.27-.194c-.184-.133-.366-.265-.565-.397a18.688 18.688 0 0 0-2.744-1.479l-.764-.315-.758-.264c-.248-.094-.5-.16-.743-.234-.244-.074-.481-.15-.725-.201l-.693-.166c-.225-.054-.448-.087-.66-.132a6.544 6.544 0 0 0-.621-.107l-.58-.077c-.367-.057-.703-.068-.996-.095-.145-.01-.29-.025-.41-.03l-.345-.008-.478-.015h-.167a.15.15 0 0 1 .042 0h.949c.127 0 .264.016.412.025.29.023.632.032.999.086l.58.072c.201.02.407.069.621.104.215.036.435.073.666.132l.695.164c.241.05.479.133.725.2.247.068.497.132.745.233l.763.265.768.316c.965.42 1.887.918 2.754 1.489.2.132.383.274.567.405l.27.178c.086.066.166.132.247.204l.467.397c.145.132.275.264.404.384.13.12.252.239.361.356l.29.338.258.293c.074.093.136.183.194.265.113.155.202.276.264.364l.068.096a.161.161 0 0 1 .03.028ZM41.684 29.799a.408.408 0 0 1-.062.079l-.2.215a5.748 5.748 0 0 1-.316.34c-.129.129-.267.28-.435.436-.168.156-.348.33-.552.506-.205.176-.426.361-.663.554a18.25 18.25 0 0 1-3.386 2.131c-.28.132-.546.265-.803.366-.256.102-.495.207-.716.291-.22.085-.423.155-.6.217a8.841 8.841 0 0 1-.46.15l-.289.086a.544.544 0 0 1-.104.026.545.545 0 0 1 .098-.04l.29-.097c.126-.041.278-.094.454-.16.175-.066.378-.133.596-.227.217-.093.458-.182.708-.297.251-.115.52-.237.799-.37a21.813 21.813 0 0 0 1.75-.98 19.557 19.557 0 0 0 1.623-1.143c.236-.19.462-.37.664-.55.201-.179.39-.342.556-.498.167-.156.313-.3.444-.427.13-.127.238-.238.325-.33l.203-.211a.642.642 0 0 1 .076-.067ZM32.921 44.647c-.022 0-.04-2.124-.04-4.744 0-2.62.018-4.745.04-4.745.022 0 .038 2.124.038 4.745 0 2.622-.018 4.744-.038 4.744ZM33.24 55.469c-.022 0-.038-1.49-.038-3.33 0-1.838.016-3.33.037-3.33.022 0 .038 1.491.038 3.33 0 1.84-.017 3.33-.038 3.33Z" fill="#263238"/><path d="M41.478 20.236c-.145.265.395.482.707.568.318.07.647.091.973.06.435-.02.88-.058 1.255-.253.329-.186.592-.455.757-.774.162-.318.291-.65.384-.99 0 0-3.425.203-4.076 1.39Z" fill="#FF725E"/><path d="M41.478 20.236c-.145.264.395.481.707.567.318.071.647.092.973.061.435-.021.88-.058 1.255-.254.329-.186.592-.454.757-.774.162-.318.291-.65.384-.99 0 0-3.425.203-4.076 1.39Z" fill="#000" opacity=".4"/><path d="M51.152 19.39a3.51 3.51 0 0 0 1.934.553c.331.017.659-.077.92-.265.111-.094.196-.213.31-.303.078-.06.17-.107.244-.172.039-.03.069-.07.087-.113a.262.262 0 0 0 .019-.138.517.517 0 0 0-.2-.29c-.393-.204-.863-.197-1.315-.187-.453.017-.9.097-1.327.236-.35.109-.717.265-.895.556" fill="#FF725E"/><path d="M54.666 18.951a.57.57 0 0 0-.257-.265c-.393-.203-.806-.222-1.258-.212-.453.017-.9.097-1.327.236-.35.109-.717.265-.895.556l.223.123a3.51 3.51 0 0 0 1.934.553c.331.017.659-.078.92-.265.111-.094.196-.213.31-.303.078-.06.17-.107.244-.172.039-.03.069-.07.087-.113a.262.262 0 0 0 .019-.138Z" fill="#000" opacity=".4"/><path d="m44.465 24.135 7.225.087c.015 0 .03-.003.043-.01a.094.094 0 0 0 .033-.025.079.079 0 0 0 .014-.076l-.848-2.412s.125-1.207.297-2.656c.263-2.202.612-4.97.616-4.963-.494-1.264-3.41-1.478-3.41-1.478l-3.324.18-.116-.18-.957.407c-.208.088-.409.192-.6.31-.632.384-2.154 1.27-2.432 2.254-.642 2.282.445 4.828.445 4.828l.699-.499c.176-.123.36-.236.553-.337l1.4 3.424a.638.638 0 0 0-.206.189.571.571 0 0 0-.098.25c-.011.278.145.612.666.707Z" fill="#FF725E"/><path d="M47.565 20.101c.229-1.124.108-2.28-.015-3.417-.4.925-.386 1.983-.81 2.901-.052.097-.09.2-.113.306a.312.312 0 0 0 .008.16c.017.052.047.1.087.139.116.096.29.043.444.028.138-.024.271-.063.399-.117Z" fill="#000" opacity=".3"/><path d="M44.9 22.703c.58.184 1.197-.159 1.81-.22.406-.04.812.045 1.215.105.815.12 1.644.139 2.464.055a1.02 1.02 0 0 0 .362-.085.412.412 0 0 0 .14-.143.37.37 0 0 0 .05-.185c-1.365-.133-2.729-.204-4.094-.332a2.797 2.797 0 0 0-1.024.03c-.411.116-.724.411-1.014.704" fill="#000" opacity=".4"/><path d="M54.458 18.519c-.59-1.213-2.67-4.567-2.67-4.567l-1.61 1.842.375 3.618s.85-.867 3.23-.884c.172.007.341.048.494.122.153.073.286.177.39.304l-.21-.435Z" fill="#FF725E"/><path d="M44.788 17.876a4.676 4.676 0 0 1-.273-.794 4.633 4.633 0 0 1-.197-.808c.113.258.204.523.27.794.091.264.157.534.2.808ZM50.055 15.549a.929.929 0 0 1 .145.115c.128.113.248.233.36.36.374.418.638.91.77 1.436.067.29.083.59.044.886-.036.271-.093.51-.13.71-.038.201-.061.365-.073.479a.81.81 0 0 1-.02.176.727.727 0 0 1-.009-.179c.007-.162.023-.323.05-.484.03-.202.08-.443.114-.709.034-.289.016-.58-.05-.865a3.517 3.517 0 0 0-.739-1.42c-.265-.325-.473-.495-.462-.505ZM48.579 23.845a.662.662 0 0 1-.158.042 1.534 1.534 0 0 1-.188.033c-.074.01-.158.024-.253.028-.22.019-.443.019-.663 0a4.64 4.64 0 0 1-.798-.145 4.573 4.573 0 0 1-.748-.293 3.86 3.86 0 0 1-.549-.34c-.075-.052-.136-.108-.191-.154a1.608 1.608 0 0 1-.135-.125.526.526 0 0 1-.103-.116c.01-.01.165.15.462.357a4.232 4.232 0 0 0 1.286.605c.256.07.518.12.783.148.216.021.434.027.652.018.373-.018.6-.069.603-.058ZM50.81 23.095a.43.43 0 0 1 .057.193c.023.16.01.325-.04.481a.832.832 0 0 1-.29.41c-.105.08-.186.106-.19.1-.005-.007.063-.051.154-.133a.92.92 0 0 0 .248-.397c.116-.349.034-.653.061-.654ZM50.417 23.56a.659.659 0 0 1-.036.406.73.73 0 0 1-.274.323c-.016-.014.119-.145.203-.348.084-.202.085-.38.107-.382ZM49.125 19.21a2.802 2.802 0 0 1-.258.338c-.075.12-.16.233-.254.341a.816.816 0 0 1 .192-.38.878.878 0 0 1 .32-.3ZM44.164 16.005a3.702 3.702 0 0 1-.32-.193 4.363 4.363 0 0 0-1.712-.583 3.525 3.525 0 0 1-.381-.047c.128-.016.258-.016.387 0 .628.05 1.229.254 1.739.591.107.065.203.143.287.232ZM51.787 13.909c-.26.19-.502.4-.724.625a5.664 5.664 0 0 0-.55.765.762.762 0 0 1 .1-.257 2.65 2.65 0 0 1 .922-.998.876.876 0 0 1 .252-.135ZM48.804 12.817a1.113 1.113 0 0 1 .1.246c.061.236.061.481 0 .717a1.74 1.74 0 0 1-.591.911 2.13 2.13 0 0 1-1.334.434 2.41 2.41 0 0 1-1.355-.406 2.402 2.402 0 0 1-.74-.819 2.33 2.33 0 0 1-.247-.681 1.355 1.355 0 0 1-.026-.193.194.194 0 0 1 0-.069s.016.093.056.257c.057.23.146.452.266.661.177.311.428.582.735.794a2.36 2.36 0 0 0 1.304.396 2.08 2.08 0 0 0 1.289-.412c.284-.233.486-.538.58-.876.064-.228.073-.466.026-.698-.028-.175-.071-.26-.063-.262Z" fill="#263238"/><path d="M49.312 19.445c0-.066-.012-.144-.075-.177a.157.157 0 0 0-.13 0 .352.352 0 0 0-.107.08 1.61 1.61 0 0 0-.387.564l.71-.057-.011-.41ZM51.67 18.075a2.05 2.05 0 0 0-.516-1.005c.307.915.204 1.432.032 2.06l.037-.088c.199-.367.5-.597.447-.967Z" fill="#000" opacity=".3"/><path d="m50.25 48.825-.433 5.932-2.826-.03-.445-6.167 3.705.265Z" fill="#FFBE9D"/><path d="M49.897 53.977v.172s3.189 1.17 3.22 1.72l-6.333-.032.098-1.922c.944.404 1.931.454 3.015.062Z" fill="#FF725E"/><path d="M47.524 54.53a.256.256 0 0 0-.145.1.219.219 0 0 0-.035.164.227.227 0 0 0 .108.136c.054.03.12.041.182.03a.27.27 0 0 0 .154-.11.23.23 0 0 0 .034-.175.243.243 0 0 0-.13-.13.279.279 0 0 0-.191-.012" fill="#fff"/><path d="m46.784 55.835.023-.462 6.064.201s.282.114.248.294l-6.335-.033ZM49.92 54.164c0 .027-.157.04-.309.132-.152.093-.235.208-.262.197-.028-.01.019-.175.205-.28.187-.106.373-.08.366-.05ZM50.583 54.419c.007.027-.128.074-.234.193-.105.119-.136.244-.168.243-.032-.001-.05-.161.086-.305.134-.145.314-.151.316-.131ZM50.955 55.146c-.029 0-.071-.132.01-.29.081-.157.225-.214.238-.192.013.023-.077.106-.145.234-.068.129-.071.245-.103.248ZM49.735 5.441c.164-.37-.035-.818-.387-1.058a1.821 1.821 0 0 0-1.26-.223c-.43.082-.846.215-1.238.397a1.435 1.435 0 0 0-.663-.342 1.524 1.524 0 0 0-.76.027 1.41 1.41 0 0 0-.633.388c-.167.18-.276.4-.315.633a.972.972 0 0 0-.476.01.905.905 0 0 0-.402.233.788.788 0 0 0-.213.388.745.745 0 0 0 .037.434l1.96.628 2.14 3.439c.316.246.72.379 1.135.373a1.806 1.806 0 0 0 1.123-.403c.308-.254.505-.602.553-.978a1.458 1.458 0 0 0-.292-1.069 1.39 1.39 0 0 0 .301-.339c.171-.092.32-.214.439-.36a1.32 1.32 0 0 0 .252-.486c.19-.766-.459-1.602-1.301-1.692Z" fill="#263238"/><path d="M48.437 12.603c-.121-.56-.206-.943-.204-.939.001.004 1.16-.41 1.075-1.882-.04-.733-.346-1.887-.63-2.824-.255-.844-1.118-1.773-2.03-1.505l-2.764 1.23c-.276.082-.324.32-.259.578v.132l1.074 4.056.454 1.812c.096.372.342.697.689.912.347.215.769.304 1.184.249.226-.03.444-.1.639-.209.195-.108.364-.252.496-.422.133-.17.225-.364.273-.568a1.4 1.4 0 0 0 .003-.62Z" fill="#FFBE9D"/><path d="M48.667 7.938a.174.174 0 0 1-.023.137.205.205 0 0 1-.121.085.216.216 0 0 1-.154-.019.194.194 0 0 1-.059-.048.173.173 0 0 1-.009-.202.214.214 0 0 1 .274-.067.19.19 0 0 1 .06.048c.015.02.026.042.032.066ZM48.542 7.655c-.02.029-.196-.044-.41 0-.215.043-.35.17-.38.15-.029-.02 0-.056.06-.114a.582.582 0 0 1 .297-.151.579.579 0 0 1 .333.033c.081.03.109.07.1.082ZM46.563 8.372a.173.173 0 0 1-.024.137.215.215 0 0 1-.272.068.194.194 0 0 1-.059-.045.177.177 0 0 1-.035-.063.174.174 0 0 1 .024-.138.215.215 0 0 1 .272-.069.194.194 0 0 1 .06.047c.015.019.027.04.034.063ZM46.458 8.122c-.02.03-.196-.045-.41 0-.215.045-.351.17-.38.151-.03-.018 0-.057.059-.116a.587.587 0 0 1 .297-.15.591.591 0 0 1 .334.032c.076.032.11.067.1.083ZM47.548 9.365c.107-.053.22-.095.337-.124.053-.016.104-.036.105-.071a.255.255 0 0 0-.07-.142l-.251-.352c-.351-.501-.618-.916-.596-.926.022-.009.325.384.675.885l.245.355a.287.287 0 0 1 .074.191.128.128 0 0 1-.026.053.143.143 0 0 1-.048.037.386.386 0 0 1-.09.03 1.445 1.445 0 0 1-.355.064Z" fill="#263238"/><path d="M48.233 11.664a4.43 4.43 0 0 1-2.21-.109s.76.905 2.292.473l-.082-.364Z" fill="#EB996E"/><path d="M46.494 7.84c-.014.058-.236.056-.489.113-.252.057-.452.143-.492.098-.018-.021.011-.077.088-.132a.93.93 0 0 1 .746-.16c.103.017.157.055.147.082ZM48.46 7.032c-.036.053-.221.04-.436.078-.214.039-.384.105-.435.067-.023-.02 0-.07.063-.133a.725.725 0 0 1 .334-.14.745.745 0 0 1 .364.024c.089.037.124.078.11.104Z" fill="#263238"/><path d="M44.567 5.736a.956.956 0 0 0 .194.395c.096.118.219.214.36.283a1.173 1.173 0 0 0 .926.045c.229-.084.467-.243.699-.166.231.076.327.378.549.49.326.167.725-.121 1.088-.092.29.022.51.225.734.397.225.172.535.301.788.177a2.764 2.764 0 0 0-.256-.638 1.046 1.046 0 0 0-.53-.457c-.128-.047-.266-.062-.388-.12-.262-.121-.38-.396-.57-.604a1.2 1.2 0 0 0-.458-.297 1.3 1.3 0 0 0-.556-.073c-.313.029-.61.173-.926.161-.233-.009-.457-.104-.69-.1-.454 0-.794.37-1.047.715" fill="#263238"/><path d="M46.095 6.038c-.209-.014-.635-.054-.776-.189a1.24 1.24 0 0 0-.528-.316 1.336 1.336 0 0 0-.631-.033 1.02 1.02 0 0 0-.522.332.874.874 0 0 0-.203.549 1.492 1.492 0 0 0-.672.341c-.186.167-.32.377-.386.607-.067.242-.07.494-.007.736.064.242.19.467.37.654.087.1.166.205.237.314-.098.111-.185.23-.258.357-.332.67.568.926.568.926 0 .45.457.447.748.445.292 0 .453.71.68.682l-.23-2.192c.033.012.07.018.105.019.55.009.406-.94.23-1.19.163-.187.301-.39.411-.607.1-.33.106-.679.02-1.013.184-.02.934-.416.844-.422Z" fill="#263238"/><path d="M44.558 9.369a.415.415 0 0 0-.11-.187.472.472 0 0 0-.195-.115.508.508 0 0 0-.442.074c-.145.114-.222.305-.135.623.235.852 1.124.462 1.118.438a88.544 88.544 0 0 0-.236-.833Z" fill="#FFBE9D"/><path d="M44.42 9.944s-.013.014-.038.031a.178.178 0 0 1-.12.03c-.107-.01-.23-.131-.277-.286a.47.47 0 0 1-.013-.222.168.168 0 0 1 .027-.082.187.187 0 0 1 .064-.061.093.093 0 0 1 .058-.008c.02.004.037.013.05.028.019.02.017.038.023.04.006 0 .016-.02 0-.054a.107.107 0 0 0-.05-.045.139.139 0 0 0-.096 0 .236.236 0 0 0-.092.07.207.207 0 0 0-.043.101.485.485 0 0 0 .01.251.387.387 0 0 0 .117.204c.06.055.137.094.22.11a.197.197 0 0 0 .146-.057c.019-.03.019-.049.014-.05Z" fill="#EB996E"/><path d="M49.563 8.178s.085-.06.204-.191c.164-.191.265-.42.29-.662.02-.164.001-.33-.052-.49a1.046 1.046 0 0 0-.332-.47 1.42 1.42 0 0 0-.63-.283 1.49 1.49 0 0 0-.7.04c-.044.013-.085.033-.125.049-.041.015-.077.04-.115.06l-.058.028v-.058a.406.406 0 0 0-.117-.278.753.753 0 0 0-.274-.169 1.079 1.079 0 0 0-.622-.042c-.4.083-.74.25-1.06.284-.25.04-.51-.007-.724-.132a.542.542 0 0 1-.145-.133c-.024-.035-.035-.055-.032-.056a.764.764 0 0 0 .19.168c.211.111.46.15.7.107.167-.029.33-.073.487-.133.184-.067.373-.123.565-.168.107-.023.217-.033.328-.03.116.006.23.03.337.071.111.044.21.109.29.19a.48.48 0 0 1 .136.324l-.057-.03.12-.063c.045-.016.087-.037.133-.051.238-.075.494-.09.74-.046.247.045.476.149.665.3.163.135.282.308.345.5.065.205.074.42.025.628a1.245 1.245 0 0 1-.302.563.894.894 0 0 1-.161.132.266.266 0 0 1-.05.041ZM49.374 5.189a1.209 1.209 0 0 0-.301-.094.86.86 0 0 0-.357.03.696.696 0 0 0-.367.244l-.036.046-.022-.053a1.014 1.014 0 0 0-.352-.41 1.151 1.151 0 0 0-.532-.19c-.302-.01-.6.07-.85.226a3.895 3.895 0 0 1-.673.317 1.164 1.164 0 0 1-.51.056.836.836 0 0 1-.135-.035c-.03-.012-.045-.018-.044-.02.002-.004.066.016.183.027.167.01.334-.015.489-.073.229-.091.448-.2.656-.328.128-.073.264-.133.406-.181.156-.052.322-.071.487-.057.206.02.401.091.566.205.165.114.293.267.37.442h-.056a.76.76 0 0 1 .404-.257.901.901 0 0 1 .38-.017.718.718 0 0 1 .294.122Z" fill="#455A64"/><path d="M47.465 9.758a.342.342 0 0 0-.246-.063.39.39 0 0 0-.142.057.354.354 0 0 0-.104.105s-.007.007-.008.01a.159.159 0 0 0-.027.101.228.228 0 0 0 .049.106.257.257 0 0 0 .096.073.362.362 0 0 0 .38-.05.236.236 0 0 0 .074-.17.236.236 0 0 0-.072-.17Z" fill="#FF725E"/><path d="M47.537 10.17c-.011 0-.024-.039-.063-.093a.44.44 0 0 0-.202-.166.492.492 0 0 0-.27-.03c-.07.01-.114.028-.118.019-.005-.01.029-.041.107-.066a.474.474 0 0 1 .312.015c.099.04.177.114.218.205.03.07.026.115.016.117Z" fill="#263238"/><path d="M44.579 10.332s.042.066-.013.167a.281.281 0 0 1-.286.146.307.307 0 0 1-.125-.042.279.279 0 0 1-.094-.084.249.249 0 0 1-.043-.114.26.26 0 0 1 .06-.183c.075-.087.158-.09.158-.082 0 .008-.063.03-.114.11a.216.216 0 0 0-.035.148c.006.03.018.06.037.085a.255.255 0 0 0 .265.089c.053-.018.1-.05.132-.093.056-.082.046-.147.058-.147Z" fill="#FF725E"/><path d="M44.09 10.282c.007 0 0 .045-.068.074a.206.206 0 0 1-.201-.032.17.17 0 0 1-.055-.084.158.158 0 0 1 .002-.097.172.172 0 0 1 .077-.086c.06-.033.105-.02.103-.012-.001.008-.035.018-.07.05a.123.123 0 0 0-.014.146.14.14 0 0 0 .058.054.156.156 0 0 0 .083.015c.049-.01.075-.033.085-.028Z" fill="#FF725E"/><path d="M45.684 22.026s3.588.19 5.71.208c1.643.014 2.376-.384 2.704-1.348.275-.808-.316-2.36-.316-2.36-1.112 0-1.798.146-2.512.451l.19.71-5.787.454.01 1.885Z" fill="#FFBE9D"/><path d="M52.666 20.446a2.78 2.78 0 0 0-.541-.49 2.98 2.98 0 0 0-.699-.28.55.55 0 0 1 .23.018c.183.04.356.109.511.205.155.096.29.218.396.36.08.108.111.183.103.187Z" fill="#EB996E"/><path d="M44.37 18.975s-1.11.243-1.926.74l.87 2.151c.29.706 1.175 1.058 1.884.688 1.092-.57 1.477-2.231 1.477-2.231l1.2-4.746-1.988-1.136-1.51 4.534" fill="#FFBE9D"/><path d="m45.879 14.44.081-1.561-.445-1.587c-.025-.088-.036-.197.042-.25a.225.225 0 0 1 .268.008c.12.114.7 1.5.7 1.5s.88-.48 1.037-.504c.156-.024.352.408.365.441.006.097.006.194 0 .291 0 0 .544.015.593.082.04.138.06.28.062.422 0 0 .23.068.267.226.036.16.111.421 0 .48-.112.058-.338.171-.338.171s-.091.81-.116.884c-.025.074-.533.529-.533.529l-1.983-1.132Z" fill="#FFBE9D"/><path d="M44.03 22.583s.053.029.166.062c.166.047.34.06.512.037.276-.036.534-.144.742-.312a3.18 3.18 0 0 0 .958-1.34c.076-.208.138-.42.187-.634l.367-1.436.87-3.389v-.009h.007c.1-.09.2-.181.3-.276a4.7 4.7 0 0 0 .145-.144c.023-.025.048-.05.067-.076a.178.178 0 0 0 .024-.08c.04-.265.07-.539.102-.815v-.017l.017-.008.277-.142c.02-.012.052-.025.065-.036a.073.073 0 0 0 .026-.043.432.432 0 0 0 0-.133 1.847 1.847 0 0 0-.065-.287.386.386 0 0 0-.23-.17l-.025-.008v-.022a1.83 1.83 0 0 0-.038-.351.181.181 0 0 0-.017-.049c0-.01 0 0-.009-.008a.143.143 0 0 0-.024-.01 2.833 2.833 0 0 0-.53-.053h-.039V12.535a.264.264 0 0 0-.034-.089c-.015-.032-.032-.062-.05-.094a1.158 1.158 0 0 0-.119-.174.306.306 0 0 0-.074-.067.076.076 0 0 0-.077-.008c-.07.025-.138.054-.204.087-.27.132-.533.264-.791.407l-.038.021-.016-.037c-.136-.313-.272-.623-.406-.926l-.198-.454a.183.183 0 0 0-.059-.087.212.212 0 0 0-.1-.045.176.176 0 0 0-.107.002.158.158 0 0 0-.082.062.143.143 0 0 0-.022.094c0 .029.02.074.03.11l.066.227c.043.152.085.302.129.45l.25.873v.009l-.082 1.56v-.002l-1.32 3.92-.373 1.091-.1.287c-.023.068-.038.097-.038.097s.008-.035.028-.1l.091-.289c.084-.255.205-.624.357-1.095l1.296-3.928v.006l.076-1.56v.009c-.082-.284-.168-.575-.253-.872l-.13-.45-.067-.227a1.07 1.07 0 0 1-.03-.12.204.204 0 0 1 .03-.133.227.227 0 0 1 .117-.09.326.326 0 0 1 .283.059c.036.03.063.07.078.113l.199.454.407.926-.054-.017c.26-.14.52-.28.796-.412.07-.033.141-.062.215-.088a.158.158 0 0 1 .072-.01.186.186 0 0 1 .07.024.4.4 0 0 1 .09.082 1.63 1.63 0 0 1 .178.283c.022.035.035.073.042.113v.264l-.036-.035c.186 0 .372.02.553.058a.272.272 0 0 1 .036.014.09.09 0 0 1 .038.035c.011.021.02.044.025.067a1.955 1.955 0 0 1 .039.363l-.026-.032c.06.016.114.042.162.078.047.036.087.08.115.13.031.101.055.204.07.308a.43.43 0 0 1 0 .16.137.137 0 0 1-.053.082.76.76 0 0 1-.074.04l-.275.13.019-.025c-.034.277-.064.548-.105.816l-.008.052a.11.11 0 0 1-.028.057.689.689 0 0 1-.071.082l-.145.147c-.1.095-.2.186-.302.276l.01-.016c-.318 1.227-.614 2.368-.88 3.387-.131.51-.257.99-.373 1.434-.05.216-.114.429-.191.637a3.44 3.44 0 0 1-.276.552c-.185.301-.424.572-.706.802-.215.168-.48.276-.76.31a1.235 1.235 0 0 1-.521-.049.92.92 0 0 1-.123-.051l-.045-.017Z" fill="#EB996E"/><path d="M47.93 12.781c0 .01-.05.015-.127.018a1.592 1.592 0 0 0-.29.031.582.582 0 0 0-.246.12c-.052.046-.076.084-.087.08-.012-.004 0-.052.048-.112a.489.489 0 0 1 .267-.154.879.879 0 0 1 .31-.013c.078.01.124.021.124.03Z" fill="#EB996E"/><path d="M47.508 12.795c-.019-.007-.02-.048 0-.091.02-.044.05-.075.069-.068.018.007.021.048 0 .091-.022.044-.054.075-.069.068ZM48.608 13.275a1.46 1.46 0 0 1-.435.054.314.314 0 0 0-.135.025.287.287 0 0 0-.106.08c-.038.054-.025.099-.036.101-.012.003-.047-.043-.01-.123a.215.215 0 0 1 .103-.104.465.465 0 0 1 .174-.048c.148-.02.299-.016.445.015ZM48.51 13.752c.02 0 .032.098.027.218-.006.12-.028.216-.048.216s-.033-.1-.028-.22c.006-.12.028-.215.05-.214Z" fill="#EB996E"/><path d="m49.113 17.315.13-.404a.11.11 0 0 1 .032-.05.133.133 0 0 1 .17.001l.17.159.104-.383a.11.11 0 0 1 .039-.057.132.132 0 0 1 .139-.013c.021.012.039.029.05.05l.236.451-1.07.246ZM50.185 17.243a2.09 2.09 0 0 1-.511.151 2.06 2.06 0 0 1-.53.085 4.174 4.174 0 0 1 1.041-.236ZM41.566 14.982s-.054.05-.13.158a1.258 1.258 0 0 0-.195.498 3.23 3.23 0 0 0-.026.794 15.653 15.653 0 0 0 .388 2.72c.051.223.097.397.13.53l.037.141.012.05s-.008-.015-.018-.047l-.042-.142c-.036-.123-.085-.3-.145-.522a14.432 14.432 0 0 1-.394-2.723 3.235 3.235 0 0 1 .032-.794c.031-.179.102-.35.209-.502a.783.783 0 0 1 .142-.16ZM44.617 13.183l-.034.016-.095.042a6.003 6.003 0 0 0-.347.162c-.374.19-.737.397-1.088.621-.415.265-.782.506-1.05.68l-.317.205-.089.054a.177.177 0 0 1-.032.019.116.116 0 0 1 .03-.023l.084-.058.311-.213c.265-.178.63-.427 1.045-.686.352-.225.718-.43 1.096-.617.145-.07.267-.12.352-.153l.097-.037c.03-.01.03-.013.037-.012ZM51.53 14.043a.104.104 0 0 1-.026-.017l-.065-.052a2.698 2.698 0 0 0-.253-.173 5.467 5.467 0 0 0-.932-.43 10.008 10.008 0 0 0-1.302-.374l-.083-.02a.123.123 0 0 1-.029-.01h.03l.085.015a8.604 8.604 0 0 1 1.31.36c.328.114.64.262.932.439.122.075.233.163.332.262ZM44.657 24.139a.219.219 0 0 1-.056-.017 1.05 1.05 0 0 1-.145-.072.677.677 0 0 1-.2-.165.608.608 0 0 1-.116-.224.7.7 0 0 1 .056-.484.626.626 0 0 1 .084-.132c.023-.028.04-.04.04-.04a1.46 1.46 0 0 0-.105.176.72.72 0 0 0-.045.47c.042.155.145.29.29.38.12.079.2.103.197.108Z" fill="#fff"/><path d="M44.196 22.707c.03.052.053.109.068.167a.564.564 0 0 1 .04.173.518.518 0 0 1-.07-.165.49.49 0 0 1-.038-.175Z" fill="#fff"/><path d="m46.156 52.362 4.421-.02-.08-13.947-.042-14.187-5.99-.07-1.077 1.851a6.242 6.242 0 0 0-.828 2.4c-.073.642.455 2.732.638 3.261l1.648 4.77 1.31 15.942Z" fill="#263238"/><path d="m51.752 24.225 4.859 12.085c.288.778.383 1.605.28 2.422a5.262 5.262 0 0 1-.879 2.3l-5.641 10.052-3.172-3.622 4.72-8.994-4.16-6.157.7-8.067 1.96-.03 1.333.01Z" fill="#263238"/><path d="M50.052 28.272v.062c0 .04.008.104.013.182.01.163.024.397.04.7.034.612.08 1.492.146 2.578.065 1.086.12 2.38.193 3.822.034.72.072 1.475.11 2.258.027.397.016.793.02 1.19.004.397 0 .815 0 1.23 0 3.324.012 6.333.016 8.514v3.528-.245c0-.164 0-.397-.009-.703 0-.612-.011-1.491-.02-2.579l-.038-8.513v-1.23c0-.405.009-.805-.019-1.19l-.105-2.257c-.067-1.44-.128-2.734-.177-3.824-.05-1.09-.086-1.965-.113-2.578l-.026-.7v-.183c0-.05-.03-.062-.03-.062ZM49.94 24.463a.443.443 0 0 1 .03.133c.017.084.034.207.055.36a16.917 16.917 0 0 1 .118 2.404c0 .153-.01.279-.017.365a.412.412 0 0 1-.017.132 3.442 3.442 0 0 1-.02-.497c0-.308-.015-.732-.038-1.201-.024-.47-.056-.892-.08-1.19a4.084 4.084 0 0 1-.03-.506ZM48.967 24.734c.007.01-.076.044-.099.151a.159.159 0 0 0 .005.088c.01.028.028.053.052.074a.223.223 0 0 0 .217.036.202.202 0 0 0 .084-.073c.02-.03.03-.065.03-.101a.163.163 0 0 0-.029-.084.184.184 0 0 0-.069-.06.382.382 0 0 0-.19-.03s.015-.018.052-.028a.268.268 0 0 1 .163.014c.04.015.075.04.1.073a.22.22 0 0 1 .011.253.252.252 0 0 1-.116.098.282.282 0 0 1-.297-.052.212.212 0 0 1-.063-.102.225.225 0 0 1 .096-.24c.03-.018.051-.02.053-.017ZM46.647 24.494a.37.37 0 0 1 .04.132c.023.12.027.24.013.36-.021.179-.078.352-.167.512-.108.199-.268.37-.466.5a1.57 1.57 0 0 1-.668.242c-.193.026-.39.02-.58-.02a1.453 1.453 0 0 1-.368-.125.46.46 0 0 1-.118-.075 2.8 2.8 0 0 0 .498.152c.206.04.42.04.625 0 .206-.04.4-.118.572-.23.171-.112.315-.255.423-.42a1.31 1.31 0 0 0 .202-.54 2.097 2.097 0 0 0-.006-.488ZM52.335 25.654c-.094.01-.19 0-.28-.03a1.31 1.31 0 0 1-.569-.334 1.13 1.13 0 0 1-.309-.55.483.483 0 0 1 0-.255c.013 0 .015.096.058.245.059.191.166.367.312.514.147.148.329.262.532.333.15.055.258.064.256.077ZM54.061 38.684a.917.917 0 0 1-.256.186 1.26 1.26 0 0 1-.33.132.864.864 0 0 1-.444-.01 1.282 1.282 0 0 1-.62-.45 1.074 1.074 0 0 1-.17-.254c.078.068.149.143.211.224.154.186.362.33.6.414a1.015 1.015 0 0 0 .725-.097 2.92 2.92 0 0 1 .284-.145ZM52.954 39.452a3.419 3.419 0 0 1-.456-.529 3.415 3.415 0 0 1-.397-.567c.172.161.326.338.458.529.153.175.286.366.395.567Z" fill="#455A64"/><path d="M45.526 28.737c-.02.007-.07-.069-.115-.17-.045-.102-.064-.188-.045-.196.019-.008.07.069.114.17.044.102.065.196.047.196ZM48.333 29.105c-.022 0-.038-.064-.038-.145 0-.08.016-.147.038-.147s.038.066.038.147c0 .08-.018.145-.038.145ZM47.179 30.5c-.02 0-.044-.08-.05-.182-.008-.102 0-.184.022-.185.024-.002.045.08.053.181.007.102-.005.184-.025.185ZM45.072 31.517c-.017.012-.077-.037-.155-.087-.078-.05-.145-.089-.145-.107 0-.019.096-.008.184.05s.133.144.116.144ZM48.786 32.816c-.017-.01 0-.067.05-.132.049-.065.094-.102.111-.091.018.01 0 .068-.049.132-.05.063-.094.102-.112.091ZM46.493 33.18c-.02 0-.037-.11-.037-.243s.017-.245.037-.245c.02 0 .038.11.038.245s-.022.243-.038.243ZM45.743 34.664c-.012.014-.087-.016-.168-.07-.081-.054-.145-.11-.126-.126.019-.016.088.016.17.07.08.055.137.11.124.126ZM48.065 35.181c.009.017-.038.053-.104.08-.067.028-.128.035-.137.018-.008-.017.04-.053.106-.08.067-.029.128-.035.135-.018ZM46.494 37.601c-.018.008-.093-.094-.167-.229-.074-.135-.119-.251-.1-.264.019-.013.094.094.167.229.072.134.113.25.1.264ZM49.055 37.375c-.02-.009.014-.097.072-.2.058-.101.123-.175.145-.166.022.01-.014.098-.074.2-.06.102-.126.176-.143.166ZM47.932 39.426c-.022 0-.019-.107-.042-.23-.023-.125-.058-.224-.038-.234.02-.009.09.085.113.222.024.138-.013.247-.033.242ZM46.728 40.595c-.014.013-.087-.037-.16-.111-.075-.074-.122-.144-.106-.157.015-.014.086.037.16.11.074.075.122.145.106.158ZM49.647 41.038c-.014-.013.04-.085.12-.16.082-.076.157-.125.173-.111.016.013-.039.085-.119.16-.08.074-.158.124-.174.11ZM47.969 42.792c-.02 0-.02-.104 0-.226.02-.122.052-.217.074-.214.022.002.02.103 0 .225-.02.121-.054.218-.074.215ZM46.84 43.643c-.019.01-.082-.06-.145-.153-.062-.094-.094-.178-.077-.187.018-.01.082.058.145.152.064.094.095.177.077.188ZM49.56 44.714c.014.016-.06.083-.165.15-.104.068-.195.11-.209.095-.013-.016.063-.084.166-.151.103-.067.197-.108.209-.094ZM47.294 46.11c-.02-.007 0-.113.018-.245.02-.132.008-.24.03-.243.021-.003.059.108.044.25-.014.141-.074.246-.092.238ZM48.2 48.108c-.018.012-.079-.033-.138-.1-.06-.068-.093-.133-.077-.145.016-.012.077.033.136.1.06.068.094.133.078.145ZM47.21 49.449c-.018.01-.097-.067-.178-.176-.082-.108-.132-.204-.116-.214.016-.01.097.067.178.176.081.108.133.203.116.214ZM49.936 47.764c-.019-.007-.017-.056 0-.108.017-.053.056-.093.077-.086.02.006.017.055 0 .11-.018.054-.057.092-.077.084ZM48.733 50.958c-.019-.01.018-.103.047-.22.029-.118.039-.218.06-.219.022-.001.044.106.013.233-.03.127-.102.217-.12.206ZM49.516 30.52c-.02.009-.066-.044-.103-.118-.038-.074-.054-.14-.035-.148.019-.008.065.045.103.119.038.074.056.14.035.148ZM47.508 26.401c.012.016-.09.09-.199.196-.108.106-.182.204-.201.194-.019-.009.03-.132.145-.24.114-.109.24-.167.255-.15ZM49.296 26.358c-.022 0-.055-.075-.106-.165-.05-.09-.097-.164-.081-.178.016-.013.094.046.145.146.05.1.06.186.042.197ZM43.715 27.694c-.02-.008 0-.095.045-.195.045-.101.094-.179.114-.171.02.008 0 .094-.045.196-.045.101-.09.177-.114.17ZM43.896 29.693c-.015.015-.097-.027-.186-.095-.088-.067-.145-.132-.136-.148.009-.016.097.028.186.095.088.068.149.134.136.148ZM47.558 24.816c-.02 0-.06-.042-.089-.11-.029-.067-.037-.132-.019-.132.02 0 .06.042.089.11.029.067.038.126.019.132ZM51.064 25.792c-.02 0-.019-.083 0-.177.019-.094.056-.168.077-.164.02.004.019.085 0 .179-.019.094-.057.166-.077.162ZM51.888 27.303c-.02-.008.007-.106.059-.22.052-.116.109-.202.127-.195.02.006 0 .106-.057.22-.059.116-.11.202-.13.195ZM51.3 28.52c-.019.009-.088-.083-.155-.203-.067-.12-.104-.227-.086-.236.02-.007.088.084.154.204.067.12.106.226.087.236ZM52.555 29.743c-.019-.006 0-.083.032-.17.032-.088.082-.154.103-.147.02.006 0 .083-.032.17-.032.088-.077.154-.103.147ZM51.433 30.935c-.017.01-.062-.025-.099-.078-.036-.053-.053-.105-.034-.116.019-.01.06.025.098.08.038.053.052.105.035.114ZM51.672 33.403c-.014.011-.106-.053-.201-.148-.096-.096-.161-.182-.145-.195.016-.013.105.053.201.148.096.095.161.181.145.195ZM53.144 31.986c-.016.012-.096-.054-.177-.15-.081-.095-.133-.18-.117-.191.015-.012.095.055.176.15.082.093.135.18.118.19ZM53.951 33.94c-.019-.007.015-.106.074-.22.06-.114.122-.201.145-.193.023.008-.013.108-.073.222-.059.114-.127.2-.146.192ZM52.235 35.547c-.019.01-.085-.063-.178-.141-.093-.078-.178-.132-.17-.152.009-.02.12.016.22.102.102.086.146.182.128.191ZM52.342 37.203c0 .018-.072.034-.16.034-.089 0-.16-.016-.16-.034 0-.019.071-.035.16-.035.088 0 .16.016.16.035ZM54.107 36.743c-.02-.009.019-.092.046-.196.028-.103.04-.193.06-.194.023-.001.046.095.014.21-.032.115-.104.19-.12.18ZM55.858 37.297c-.018.007-.072-.087-.118-.207-.047-.12-.069-.224-.05-.23.02-.005.074.087.12.207.047.12.069.224.048.23ZM55.58 39.571c-.018-.01.027-.12.1-.249.072-.128.144-.224.166-.215.022.01-.026.12-.1.247-.074.127-.148.229-.167.217ZM53.98 40.906c-.019.007-.078-.085-.133-.205-.055-.12-.083-.224-.063-.232.02-.008.079.085.132.206.054.12.083.23.064.23ZM52.209 41.423c0 .019-.061.035-.135.035-.074 0-.134-.016-.134-.035 0-.019.061-.034.134-.034.072 0 .135.015.135.034ZM53.223 43.553c-.019 0-.06-.072-.09-.173-.03-.1-.036-.188-.016-.192.02-.004.06.073.09.174.03.1.036.18.016.191ZM51.94 42.84c-.017-.01 0-.072.049-.14.047-.067.095-.113.113-.104.017.01 0 .073-.048.14-.048.068-.095.114-.113.103ZM51.915 45.179c-.02 0-.05-.089-.064-.204-.015-.115-.01-.209.01-.212.02-.002.05.09.064.204.014.115.01.21-.01.212Z" fill="#FAFAFA"/></svg>