<svg width="36" height="19" fill="none" xmlns="http://www.w3.org/2000/svg"><path opacity=".15" d="M8.536 16.943c1.571-.741 3.115-1.57 4.737-2.168 1.327-.494 2.72-.845 3.95-1.548a3.589 3.589 0 0 0 1.182-.996 1.73 1.73 0 0 0 .29-1.475c-.198-.634-.769-.843-1.373-.873-1.49-.06-2.968.325-4.342.914-1.375.59-2.646 1.377-3.915 2.16a15.35 15.35 0 0 1-3.793 1.753c-1.413.422-2.87.77-4.168 1.493-.34.163-.629.418-.833.735-.408.738.276 1.502.983 1.655a6.789 6.789 0 0 0 2.58-.01c1.646-.285 3.184-.923 4.702-1.64ZM35.244.72c-.366-.443-.997-.636-1.653-.54-.657.096-1.26.432-1.844.762-.966.548-1.931 1.094-2.848 1.723-.472.327-1.048.637-1.435 1.068-.257.29-.524.61-.566.996-.079.67.494 1.047 1.06 1.188.459.103.934.113 1.397.031 1.173-.174 2.27-.687 3.293-1.257.962-.534 1.956-1.06 2.572-2.012.212-.295.333-.645.35-1.008a1.477 1.477 0 0 0-.326-.95Z" fill="#000"/></svg>