<svg width="42" height="22" fill="none" xmlns="http://www.w3.org/2000/svg"><path d="M37.405 4.27a14.404 14.404 0 0 0-3.01 1.409c-1.056.652-2.02 1.44-3.144 1.981-1.463.704-3.143.959-4.79.887-.931-.041-1.944-.228-2.544-.9a.87.87 0 0 1-.184-.606 1.044 1.044 0 0 1 .101-.457c.068-.144.168-.274.294-.38 1.353-1.206 3.247-1.703 5.063-2.092 1.815-.388 2.912-.878 4.7-1.744.765-.372 1.518-.776 2.29-1.128l.017-.01C37.436.668 38.584-.067 39.986.6c.69.329 1.074.955.75 1.64-.562 1.19-2.111 1.623-3.331 2.03ZM8.493 1.331.71 5.445l10.161 5.38.037-.02.283-.15c.092-.05.18-.097.27-.143 1.353-.718 2.31-1.247 2.235-1.65-.053-.305-.658-.478-1.157-.533a2.125 2.125 0 0 1-.772-.208.532.532 0 0 1-.223-.17.468.468 0 0 1-.094-.252c0-.19.152-.387.445-.543.542-.286 1.353-.315 1.828-.068.178.09.315.235.388.409.085.181.226.336.406.444.18.109.39.167.606.166.801.041 1.697-.432 3.171-1.216l.352-.185L8.493 1.33Zm19.304 10.211c-.32.168-.628.326-.931.477-.867.441-1.561.795-1.866 1.091a.42.42 0 0 0-.124.151.385.385 0 0 0-.038.186c.054.305.659.48 1.158.534.27.019.533.089.773.205a.757.757 0 0 1 .2.148.406.406 0 0 1 .117.277c0 .188-.154.386-.449.54-.54.287-1.352.316-1.825.07a.824.824 0 0 1-.39-.408c-.105-.265-.432-.585-1.012-.613-.677-.036-1.374.352-2.436.94l-.428.231c-.168.092-.341.187-.527.286l11.97 6.316c.258-.051.514-.102.77-.155a43.49 43.49 0 0 0 9.051-2.885l-14.013-7.39Z" fill="#E0E0E0"/></svg>