<svg width="93" height="49" fill="none" xmlns="http://www.w3.org/2000/svg"><path opacity=".15" d="M22.61 44.237c4.086-1.927 8.1-4.08 12.317-5.636 3.45-1.283 7.074-2.194 10.27-4.021a9.325 9.325 0 0 0 3.074-2.59 4.495 4.495 0 0 0 .753-3.835c-.513-1.646-1.997-2.19-3.568-2.267-3.873-.16-7.718.843-11.291 2.375-3.573 1.533-6.879 3.578-10.18 5.614a39.919 39.919 0 0 1-9.86 4.557c-3.673 1.097-7.464 2-10.838 3.881a5.287 5.287 0 0 0-2.165 1.909c-1.063 1.918.717 3.904 2.556 4.303 2.216.42 4.493.41 6.706-.027 4.28-.74 8.28-2.399 12.226-4.263ZM92.05 2.077C91.098.926 89.459.422 87.752.672c-1.707.25-3.278 1.124-4.794 1.981-2.51 1.424-5.021 2.843-7.405 4.48-1.226.848-2.724 1.655-3.732 2.775-.667.753-1.362 1.587-1.471 2.589-.204 1.741 1.285 2.72 2.756 3.088a9.24 9.24 0 0 0 3.632.081c3.05-.453 5.902-1.786 8.563-3.269C87.8 11.01 90.383 9.64 91.986 7.17a4.857 4.857 0 0 0 .908-2.62 3.837 3.837 0 0 0-.844-2.472Z" fill="#000"/></svg>