<svg width="53" height="29" fill="none" xmlns="http://www.w3.org/2000/svg"><path d="M46.506 5.916a17.782 17.782 0 0 0-3.763 1.812c-1.319.839-2.524 1.852-3.93 2.547-1.828.905-3.928 1.233-5.986 1.14-1.165-.052-2.431-.293-3.18-1.157a1.142 1.142 0 0 1-.23-.779c-.002-.202.04-.402.125-.587.086-.185.21-.352.368-.489 1.691-1.55 4.059-2.189 6.328-2.689 2.27-.5 3.64-1.129 5.875-2.243.957-.478 1.899-.997 2.862-1.45l.023-.012c1.547-.724 2.982-1.67 4.734-.81.863.422 1.343 1.227.937 2.108-.702 1.53-2.638 2.087-4.163 2.61ZM10.367 2.138.637 7.427l12.7 6.918.046-.028.354-.19c.115-.066.225-.126.338-.185 1.691-.924 2.887-1.604 2.794-2.12-.066-.394-.822-.617-1.446-.687a2.597 2.597 0 0 1-.966-.268.668.668 0 0 1-.278-.22.613.613 0 0 1-.117-.322c0-.244.189-.497.556-.698.676-.368 1.69-.406 2.284-.087.223.116.394.302.486.525.106.233.282.432.507.571.225.14.488.214.758.214 1 .053 2.12-.556 3.963-1.563l.44-.24-12.69-6.909Zm24.129 13.128c-.4.215-.785.419-1.164.613-1.084.567-1.951 1.022-2.332 1.403a.54.54 0 0 0-.155.194.508.508 0 0 0-.048.239c.068.392.824.616 1.448.686.338.025.666.115.966.264a.95.95 0 0 1 .25.19.53.53 0 0 1 .147.356c0 .242-.193.497-.562.695-.676.369-1.69.405-2.28.089a1.047 1.047 0 0 1-.488-.524c-.132-.34-.54-.752-1.266-.788-.846-.046-1.717.452-3.044 1.208l-.536.298c-.21.118-.426.24-.658.368l14.962 8.12c.323-.066.643-.131.962-.2a53.292 53.292 0 0 0 11.315-3.71l-17.517-9.5Z" fill="#E0E0E0"/></svg>