<svg width="120" height="120" fill="none" xmlns="http://www.w3.org/2000/svg"><path d="M17.573 110.09c23.433 13.216 61.421 13.216 84.854 0 23.432-13.215 23.429-34.64 0-47.856-23.43-13.216-61.421-13.216-84.854 0-23.432 13.215-23.43 34.64 0 47.856Z" fill="#EBF1FF"/><path d="M102.746 77.515c4.567 0 8.269-1.905 8.269-4.254 0-2.35-3.702-4.254-8.269-4.254s-8.27 1.904-8.27 4.254c0 2.35 3.703 4.254 8.27 4.254ZM17.425 102.404c4.187 0 7.582-1.747 7.582-3.901s-3.395-3.9-7.582-3.9c-4.187 0-7.581 1.746-7.581 3.9s3.394 3.901 7.581 3.901ZM73.713 109.902c4.357 0 7.89-1.818 7.89-4.061s-3.533-4.061-7.89-4.061c-4.357 0-7.889 1.818-7.889 4.061s3.532 4.061 7.89 4.061ZM34.557 90.473c4.357 0 7.89-1.819 7.89-4.061 0-2.243-3.533-4.061-7.89-4.061-4.357 0-7.889 1.818-7.889 4.06 0 2.243 3.532 4.062 7.89 4.062Z" fill="#E6E6E6"/><path d="M80.988 63.331c.193-2.503 5.507-11.893 7.131-13.348 1.625-1.455 4.494-5.133 3.258-7.222-1.236-2.09-4.868-1.16-8.28 5.353-2.646 5.051-3.468 16.223-3.468 16.223l1.359-1.006Z" fill="#407BFF"/><path d="M80.26 63.096h-.022a.14.14 0 0 1-.091-.06.154.154 0 0 1-.024-.112C81.625 52.44 84.816 45.9 89.878 42.93a.131.131 0 0 1 .155.015.148.148 0 0 1 .035.045.16.16 0 0 1-.014.167.144.144 0 0 1-.042.038c-4.98 2.923-8.124 9.394-9.615 19.777a.154.154 0 0 1-.048.089.134.134 0 0 1-.089.035Z" fill="#fff"/><path d="M81.523 51.188s4.265-7.959 7.797-11.603c1.958-2.02 3.16-3.322 3.054-4.85-.078-1.159-.97-1.778-2.889-1.267-3.823 1.014-5.873 5.196-7.193 9.879-.936 3.297-.769 7.841-.769 7.841Z" fill="#407BFF"/><path opacity=".2" d="M81.523 51.188s4.265-7.959 7.797-11.603c1.958-2.02 3.16-3.322 3.054-4.85-.078-1.159-.97-1.778-2.889-1.267-3.823 1.014-5.873 5.196-7.193 9.879-.936 3.297-.769 7.841-.769 7.841Z" fill="#000"/><path d="M82.018 49.88h-.02a.142.142 0 0 1-.092-.061.164.164 0 0 1-.026-.114c1.52-10.344 7.291-14.24 9.025-15.187a.13.13 0 0 1 .106-.009.156.156 0 0 1 .02.277c-1.703.933-7.375 4.762-8.874 14.967a.154.154 0 0 1-.048.092.134.134 0 0 1-.091.035Z" fill="#fff"/><path d="m23.71 13.859-1.942-1.208c-.718-.462-1.784-.372-2.975.371-1.647 1.027-3.057 3.52-3.636 5.613l-1.376-.854c-.707-.514-1.678-.604-2.749.078-2.161 1.347-3.915 4.33-3.915 6.66 0 2.214 1.264 3.624 2.82 4.53l1.529.954.02-.236c.307.112.612.212.908.302l2.517.719 2.517-3.865c2.402-3.68 5.263-8.756 5.263-12.107 0-.127-.005-.25-.017-.372l.532.302.503-.887Z" fill="#F28F8F"/><path d="m23.71 13.859-1.942-1.208c-.718-.462-1.784-.372-2.975.371-1.647 1.027-3.057 3.52-3.636 5.613l-1.376-.854c-.707-.514-1.678-.604-2.749.078-2.161 1.347-3.915 4.33-3.915 6.66 0 2.214 1.264 3.624 2.82 4.53l1.529.954.02-.236c.307.112.612.212.908.302l2.517.719 2.517-3.865c2.402-3.68 5.263-8.756 5.263-12.107 0-.127-.005-.25-.017-.372l.532.302.503-.887Z" fill="#E6E6E6"/><path d="M16.906 32.022 14.39 31.3c-2.408-.688-5.28-2.207-5.28-5.538 0-2.333 1.754-5.317 3.916-6.663 1.988-1.241 3.635.084 3.878 2.005.252-2.229 1.894-5.604 3.882-6.842 2.159-1.347 3.915-.547 3.915 1.784 0 3.322-2.863 8.427-5.263 12.11l-2.53 3.866Z" fill="#F0F0F0"/><path d="M41.387 14.424a1.476 1.476 0 0 0-.059-.447l1.507-1.863-1.93-1.172c-.181-.135-.444-.15-.796.07l-3.356 2.098-.45.281c.079-.418.133-.842.162-1.268 0-.178.014-.35.014-.52l.061.037 1.119-1.425-1.913-1.163c-.646-.456-1.765.408-1.765.75 0 .413.165 2.566 0 3.181-.165.616-1.887 4.87-1.887 4.87v8.871l6.292-3.925c.839-.519 1.398-1.618 1.398-2.364a2.491 2.491 0 0 0-.167-.972c.534-.332 1.068-1.537 1.068-2.05 0-.773-.246-.972-.246-.972.274-.252.499-.56.661-.906a3.11 3.11 0 0 0 .287-1.111Z" fill="#FAFAFA"/><path d="m34.102 27.934-1.988-1.24-.008-8.869 1.99 1.241.006 8.868Z" fill="#E6E6E6"/><path d="M42.7 18.616c0 .513-.532 1.718-1.066 2.05.116.31.171.644.162.978 0 .74-.573 1.845-1.398 2.359l-6.293 3.925v-8.865s1.729-4.257 1.89-4.873c.163-.616 0-2.766 0-3.18 0-.413 1.564-1.537 2.06-.36.494 1.178.536 2.38.248 3.944l3.803-2.373c.803-.501 1.12.217 1.12.779a3.195 3.195 0 0 1-.613 1.77s.758-.242.758.857a3.064 3.064 0 0 1-.274 1.108c-.159.346-.38.654-.652.906 0 0 .254.208.254.975ZM30.453 31.405l2.75-1.712-.01-10.32-2.74 1.712v10.32Z" fill="#F0F0F0"/><path d="m30.452 31.402-1.991-1.238V19.841l1.991 1.241v10.32Z" fill="#E6E6E6"/><path d="m31.204 18.133 1.989 1.241-2.74 1.712-1.992-1.24 2.743-1.713Z" fill="#F5F5F5"/><path d="M35.985 14.19c-.162.605-1.89 4.874-1.89 4.874l-1.986-1.208s1.723-4.254 1.888-4.87c.165-.616 0-2.769 0-3.182l1.991 1.208c-.003.413.165 2.566-.003 3.179Z" fill="#E6E6E6"/><path d="m105.406 27.69-.923-1.872.741-2.313V22.09l-2.271 1.416v1.416l.976 1.83c.015.029.039.051.067.063l1.41.876Z" fill="#407BFF"/><path opacity=".1" d="m105.406 27.69-.923-1.872.741-2.313V22.09l-2.271 1.416v1.416l.976 1.83c.015.029.039.051.067.063l1.41.876Z" fill="#000"/><path d="m100.138 18.901 6.253-3.925a1.423 1.423 0 0 1 1.362 0l.56.347c.199.14.364.327.483.549.118.221.187.47.199.725v5.471a1.731 1.731 0 0 1-.2.726c-.119.22-.284.409-.482.549l-6.259 3.925a1.426 1.426 0 0 1-1.362 0l-.559-.348a1.574 1.574 0 0 1-.482-.549 1.72 1.72 0 0 1-.198-.725V20.17c.014-.254.084-.502.203-.722.119-.22.284-.407.482-.546Z" fill="#407BFF"/><path opacity=".3" d="m100.138 18.901 6.253-3.925a1.423 1.423 0 0 1 1.362 0l.56.347c.199.14.364.327.483.549.118.221.187.47.199.725v5.471a1.731 1.731 0 0 1-.2.726c-.119.22-.284.409-.482.549l-6.259 3.925a1.426 1.426 0 0 1-1.362 0l-.559-.348a1.574 1.574 0 0 1-.482-.549 1.72 1.72 0 0 1-.198-.725V20.17c.014-.254.084-.502.203-.722.119-.22.284-.407.482-.546Z" fill="#fff"/><path d="M102.057 27.26c-.377.232-.682.045-.682-.426v-5.471c.013-.255.082-.504.2-.725a1.59 1.59 0 0 1 .482-.55l6.259-3.925c.378-.235.682-.045.682.426v5.471a1.717 1.717 0 0 1-.2.725 1.57 1.57 0 0 1-.482.55" fill="#407BFF"/><path d="M99.457 25.64c.012.255.08.504.198.725.118.222.283.41.482.55l.559.346a1.418 1.418 0 0 0 1.244.057c-.318.134-.559-.063-.559-.482v-5.471c.009-.256.078-.506.201-.725l-1.918-1.208c-.122.22-.19.47-.199.725l-.008 5.483Z" fill="#407BFF"/><path opacity=".1" d="M99.457 25.64c.012.255.08.504.198.725.118.222.283.41.482.55l.559.346a1.418 1.418 0 0 0 1.244.057c-.318.134-.559-.063-.559-.482v-5.471c.009-.256.078-.506.201-.725l-1.918-1.208c-.122.22-.19.47-.199.725l-.008 5.483Z" fill="#000"/><path d="m104.375 25.811.976 1.827a.15.15 0 0 0 .06.06.14.14 0 0 0 .157-.016.164.164 0 0 0 .049-.071l1.032-3.216V22.98l-2.274 1.416v1.416Z" fill="#407BFF"/><path d="m105.186 23.942-.699-.2c-.665-.19-1.46-.603-1.46-1.53.034-.378.149-.742.337-1.062.188-.32.444-.589.746-.783a.638.638 0 0 1 .689-.065.705.705 0 0 1 .271.253c.067.11.107.236.113.367.07-.603.523-1.551 1.074-1.896.599-.371 1.083-.15 1.083.495 0 .924-.792 2.331-1.457 3.352l-.697 1.069Z" fill="#fff"/><path d="m12.733 42.059 6.259-3.91a1.41 1.41 0 0 1 1.362 0l.56.344c.197.14.361.328.48.55.118.22.186.469.199.724v5.471a1.73 1.73 0 0 1-.2.724c-.118.222-.282.41-.48.55l-6.25 3.91a1.416 1.416 0 0 1-1.365 0l-.56-.344c-.2-.14-.367-.33-.487-.553a1.724 1.724 0 0 1-.2-.733v-5.46c.012-.255.08-.503.199-.725.119-.221.284-.41.483-.548Z" fill="#407BFF"/><path opacity=".3" d="m12.733 42.059 6.259-3.91a1.41 1.41 0 0 1 1.362 0l.56.344c.197.14.361.328.48.55.118.22.186.469.199.724v5.471a1.73 1.73 0 0 1-.2.724c-.118.222-.282.41-.48.55l-6.25 3.91a1.416 1.416 0 0 1-1.365 0l-.56-.344c-.2-.14-.367-.33-.487-.553a1.724 1.724 0 0 1-.2-.733v-5.46c.012-.255.08-.503.199-.725.119-.221.284-.41.483-.548Z" fill="#fff"/><path d="m18 50.855-.923-1.875.743-2.313v-1.416l-2.273 1.428v1.416l.979 1.812c.015.028.037.05.064.063l1.41.885Z" fill="#407BFF"/><path opacity=".1" d="m18 50.855-.923-1.875.743-2.313v-1.416l-2.273 1.428v1.416l.979 1.812c.015.028.037.05.064.063l1.41.885Z" fill="#000"/><path d="M14.663 50.421c-.378.236-.683.045-.683-.426v-5.47c.013-.256.082-.504.2-.725.12-.22.284-.408.483-.547l6.261-3.925c.375-.233.68-.042.68.426v5.47a1.728 1.728 0 0 1-.2.725c-.117.221-.282.41-.48.55" fill="#407BFF"/><path d="M12.05 48.79c.014.256.082.504.2.726.12.221.285.41.483.549l.56.344a1.434 1.434 0 0 0 1.247.06c-.322.13-.56-.066-.56-.486v-5.459c.009-.256.077-.505.199-.724l-1.916-1.193c-.123.22-.192.468-.201.725l-.011 5.459Z" fill="#407BFF"/><path opacity=".1" d="M12.05 48.79c.014.256.082.504.2.726.12.221.285.41.483.549l.56.344a1.434 1.434 0 0 0 1.247.06c-.322.13-.56-.066-.56-.486v-5.459c.009-.256.077-.505.199-.724l-1.916-1.193c-.123.22-.192.468-.201.725l-.011 5.459Z" fill="#000"/><path d="m16.973 48.971.976 1.812a.15.15 0 0 0 .059.06.136.136 0 0 0 .156-.015.156.156 0 0 0 .047-.072l1.033-3.216v-1.416l-2.271 1.416v1.431Z" fill="#407BFF"/><path d="M15.418 45.705c-.189.131-.346.31-.457.52a1.6 1.6 0 0 0-.184.688c0 .44.28.604.64.399.188-.133.344-.311.455-.521.111-.21.175-.446.186-.687.003-.441-.277-.631-.64-.399ZM17.78 44.228c-.188.132-.345.31-.457.52a1.62 1.62 0 0 0-.186.688c0 .44.28.619.643.398.187-.132.343-.31.454-.52.112-.21.175-.446.186-.687 0-.441-.288-.62-.64-.399ZM20.14 42.754a1.492 1.492 0 0 0-.454.52c-.111.21-.175.446-.186.688 0 .44.28.603.64.398.19-.13.346-.31.457-.52a1.6 1.6 0 0 0 .184-.688c0-.443-.285-.622-.64-.398Z" fill="#fff"/><path d="M79.102 2.426 51.914 19.365a2.813 2.813 0 0 0-.856.976c-.21.393-.332.835-.355 1.288v64.974c0 .833.543 1.171 1.211.754L79.102 70.42c.353-.248.646-.583.856-.976.21-.394.332-.835.355-1.289V3.181c0-.833-.542-1.171-1.21-.755Z" fill="#37474F"/><path d="M51.913 19.365 79.101 2.426c.599-.371 1.094-.139 1.192.51a3.07 3.07 0 0 0-.396-1.147 2.828 2.828 0 0 0-.796-.872l-.987-.604A2.517 2.517 0 0 0 76.904 0c-.421 0-.836.107-1.212.313l-27.188 16.93c-.357.24-.652.576-.856.974l3.41 2.114c.204-.395.499-.728.855-.966Z" fill="#455A64"/><path d="M47.293 84.479c.023.453.144.895.354 1.288.21.394.504.728.857.976l.987.604a2.524 2.524 0 0 0 2.215.106c-.56.232-1.004-.115-1.004-.86V21.621c.014-.456.136-.9.355-1.29l-3.409-2.113a2.83 2.83 0 0 0-.355 1.29v64.97Z" fill="#263238"/><path d="M52.563 27.456 78.448 11.33c.4-.25.727-.048.727.453v49.188a1.844 1.844 0 0 1-.214.773 1.694 1.694 0 0 1-.513.586L52.563 78.453c-.4.25-.727.048-.727-.453V28.815c.013-.272.086-.537.213-.773.126-.237.302-.437.514-.586Z" fill="#FAFAFA"/><path d="M65.234 13.418a.994.994 0 0 0-.3.344 1.081 1.081 0 0 0-.125.454c0 .302.19.413.425.265a.987.987 0 0 0 .3-.343c.075-.139.117-.294.125-.454 0-.293-.19-.41-.425-.265ZM61.21 18.091c-.246.177-.45.413-.595.69-.146.277-.23.587-.244.905 0 .585.38.824.84.531.247-.174.454-.41.602-.687.149-.277.234-.588.25-.907 0-.586-.383-.825-.853-.532ZM63.293 17.89c0 .392.28.54.607.331l5.593-3.493a1.36 1.36 0 0 0 .422-.466c.105-.189.167-.401.182-.621 0-.39-.28-.537-.604-.33L63.9 16.806a1.357 1.357 0 0 0-.423.464 1.48 1.48 0 0 0-.184.62Z" fill="#263238"/><path d="M49.18 29.402c.199.14.364.327.483.549.118.221.187.47.199.725 0 .468-.305.659-.682.426a1.588 1.588 0 0 1-.481-.551 1.73 1.73 0 0 1-.199-.726c.006-.468.305-.655.68-.423ZM49.178 35.07c.198.14.364.327.482.548.119.222.187.47.2.726 0 .47-.305.66-.682.425a1.587 1.587 0 0 1-.474-.544 1.725 1.725 0 0 1-.2-.715c0-.483.3-.673.674-.44Z" fill="#37474F"/><path d="M48.968 29.511c.198.14.363.328.482.55.118.22.187.47.2.724 0 .471-.305.662-.682.426a1.59 1.59 0 0 1-.482-.55 1.729 1.729 0 0 1-.2-.724c0-.468.307-.658.681-.426ZM48.968 35.181c.198.14.363.328.482.55.118.22.187.47.2.724 0 .471-.305.662-.682.426a1.589 1.589 0 0 1-.482-.55 1.729 1.729 0 0 1-.2-.724c0-.47.307-.661.681-.426Z" fill="#455A64"/><path d="M65.506 72.56a3.9 3.9 0 0 0-1.187 1.355 4.249 4.249 0 0 0-.49 1.789c0 1.159.751 1.627 1.677 1.05.489-.345.896-.81 1.187-1.356.292-.547.46-1.16.491-1.79.003-1.16-.75-1.627-1.678-1.047Z" fill="#263238"/><path d="M57.93 77.752c-.237 0-.262-.302-.262-.41V28.155c.015-.245.081-.484.196-.697.114-.213.272-.395.461-.532L84.21 10.801a.53.53 0 0 1 .255-.085c.237 0 .263.284.263.408v49.188a1.684 1.684 0 0 1-.196.696 1.55 1.55 0 0 1-.462.53L58.185 77.664a.5.5 0 0 1-.254.088Z" fill="#fff" stroke="#407BFF" stroke-width=".167" stroke-miterlimit="10"/><path d="M84.464 10.867c.106 0 .123.16.123.256v49.188a1.524 1.524 0 0 1-.176.622 1.4 1.4 0 0 1-.411.474L58.115 77.534a.387.387 0 0 1-.185.066c-.106 0-.123-.163-.123-.26V28.155c.014-.219.074-.431.176-.621s.242-.352.411-.475L84.28 10.933a.36.36 0 0 1 .185-.066Zm0-.302a.624.624 0 0 0-.325.105L58.254 26.797c-.211.148-.388.349-.514.585s-.2.5-.213.773V77.34c0 .357.165.562.403.562a.632.632 0 0 0 .324-.109L84.14 61.67c.211-.149.387-.35.514-.586.126-.236.199-.5.213-.773V11.123c0-.353-.165-.558-.403-.558Z" fill="#407BFF" stroke="#407BFF" stroke-width=".167" stroke-miterlimit="10"/><path d="M84.859 11.125c0-.501-.325-.704-.727-.453L58.247 26.798c-.212.149-.388.35-.515.586-.126.236-.199.5-.212.773v4.03l27.339-17.031v-4.031Z" fill="#407BFF"/><path opacity=".1" d="M84.859 11.125c0-.501-.325-.704-.727-.453L58.247 26.798c-.212.149-.388.35-.515.586-.126.236-.199.5-.212.773v4.03l27.339-17.031v-4.031Z" fill="#000"/><path d="M60.382 27.73a.278.278 0 0 0-.28.039c-.144.103-.263.24-.35.402a1.278 1.278 0 0 0-.148.528.324.324 0 0 0 .019.158.3.3 0 0 0 .09.125.26.26 0 0 0 .28-.042c.143-.103.262-.24.348-.4.086-.162.136-.342.147-.527a.323.323 0 0 0-.017-.157.301.301 0 0 0-.09-.127Z" fill="#fff"/><path d="m60.971 26.698-.061.04v-.136c0-.19-.123-.269-.28-.172l-1.175.73a.646.646 0 0 0-.196.223.7.7 0 0 0-.083.294v.139l-.065.039a.854.854 0 0 0-.26.296.93.93 0 0 0-.109.392v1.23c0 .253.165.358.37.232l1.853-1.157a.858.858 0 0 0 .262-.298.933.933 0 0 0 .108-.393v-1.235c.005-.248-.16-.35-.364-.224Zm-.872 2.44a.58.58 0 0 1-.3.097.37.37 0 0 1-.196-.055.52.52 0 0 1-.168-.21.569.569 0 0 1-.047-.273c.01-.226.07-.446.175-.642.105-.196.252-.362.43-.484a.448.448 0 0 1 .495-.042c.072.052.13.125.167.21a.56.56 0 0 1 .045.273c-.01.226-.07.446-.174.642a1.38 1.38 0 0 1-.428.484Zm.839-1.64c-.096.058-.171 0-.171-.108a.429.429 0 0 1 .05-.182.394.394 0 0 1 .12-.138c.096-.06.174 0 .174.105a.44.44 0 0 1-.046.183.405.405 0 0 1-.116.14h-.011ZM83.373 12.364l-1.81 1.126a.837.837 0 0 0-.254.29.911.911 0 0 0-.106.383v1.208c0 .245.162.347.36.224l1.078-.67.422.455c.01.01.022.017.035.02a.072.072 0 0 0 .07-.032.08.08 0 0 0 .012-.042v-.74l.193-.12a.835.835 0 0 0 .26-.29.91.91 0 0 0 .11-.384v-1.208c0-.244-.171-.344-.37-.22Z" fill="#fff"/><path d="M61.011 31.47c.945-.58 1.712-.11 1.712 1.056a4.3 4.3 0 0 1-.504 1.81 3.947 3.947 0 0 1-1.208 1.367c-.948.603-1.714.117-1.714-1.057.032-.639.204-1.26.502-1.812a3.91 3.91 0 0 1 1.212-1.365ZM64.42 30.047l5.68-3.539c.336-.208.607-.06.607.33-.015.22-.077.432-.183.621-.105.19-.25.348-.424.465l-5.68 3.539c-.332.208-.604.06-.604-.33.015-.219.077-.432.182-.62a1.36 1.36 0 0 1 .423-.466Z" fill="#407BFF"/><path d="m64.417 30.046 5.68-3.538c.335-.209.606-.06.606.329a1.48 1.48 0 0 1-.183.622c-.105.189-.25.348-.424.465l-5.68 3.538c-.332.209-.603.06-.603-.329.014-.22.076-.432.181-.621s.25-.348.423-.466Z" fill="#fff" opacity=".7"/><path d="m64.23 32.554 3.896-2.415c.23-.142.414-.042.414.226-.01.151-.053.297-.125.427a.934.934 0 0 1-.29.32l-3.895 2.415c-.229.142-.414.039-.414-.23.01-.15.053-.295.125-.424a.93.93 0 0 1 .29-.319Z" fill="#407BFF"/><path d="m64.226 32.554 3.896-2.415c.23-.142.414-.042.414.226-.01.151-.053.297-.125.427a.934.934 0 0 1-.289.32l-3.896 2.415c-.229.142-.413.039-.413-.23.01-.15.052-.295.124-.424a.93.93 0 0 1 .29-.319Z" fill="#fff" opacity=".7"/><path d="M61.011 63.214c.945-.58 1.712-.106 1.712 1.056a4.3 4.3 0 0 1-.504 1.81 3.947 3.947 0 0 1-1.208 1.367c-.948.603-1.714.117-1.714-1.057a4.275 4.275 0 0 1 .503-1.811 3.92 3.92 0 0 1 1.211-1.365ZM64.42 61.794l5.68-3.541c.336-.209.607-.06.607.329-.015.22-.077.433-.183.622-.105.189-.25.348-.424.465l-5.68 3.541c-.332.209-.604.06-.604-.332.015-.219.078-.431.183-.62a1.36 1.36 0 0 1 .422-.464Z" fill="#407BFF"/><path d="m64.417 61.797 5.68-3.542c.335-.208.606-.06.606.33a1.48 1.48 0 0 1-.183.621c-.105.189-.25.348-.424.465l-5.68 3.542c-.332.208-.603.06-.603-.332.015-.22.077-.432.182-.62s.25-.347.422-.464Z" fill="#fff" opacity=".7"/><path d="m64.23 64.303 3.896-2.415c.23-.142.414-.043.414.226-.01.15-.053.297-.125.426a.932.932 0 0 1-.29.32l-3.895 2.415c-.229.142-.414.04-.414-.226.01-.151.053-.297.125-.427a.93.93 0 0 1 .29-.319Z" fill="#407BFF"/><path d="m64.226 64.302 3.896-2.416c.23-.142.414-.042.414.227-.01.15-.053.296-.125.426a.933.933 0 0 1-.289.32l-3.896 2.415c-.229.142-.413.04-.413-.227.01-.15.052-.296.124-.426a.93.93 0 0 1 .29-.32Z" fill="#fff" opacity=".7"/><path d="m60.483 37.458 21.508-13.405c.336-.209.607-.04.607.377v23.191a1.536 1.536 0 0 1-.177.646 1.41 1.41 0 0 1-.43.49L60.483 62.24c-.336.209-.604.04-.604-.377V38.59c.01-.227.071-.448.176-.645a1.4 1.4 0 0 1 .428-.488Z" fill="#F5F5F5"/><path d="M68.377 42.771a.547.547 0 0 0-.22-.2.498.498 0 0 0-.548.07.575.575 0 0 0-.171.248l-7.551 15.483v3.493c0 .417.28.586.604.378l21.508-13.415a1.41 1.41 0 0 0 .43-.49c.105-.197.166-.418.177-.645v-7.73l-4.086-7.835c-.226-.438-.542-.41-.707.057l-5.44 15.565-3.996-4.979Z" fill="#407BFF"/><path d="M68.373 42.77a.546.546 0 0 0-.22-.199.5.5 0 0 0-.548.07.576.576 0 0 0-.172.248l-7.55 15.483v3.493c0 .417.28.586.604.377l21.508-13.414a1.41 1.41 0 0 0 .43-.49c.105-.197.166-.418.177-.646v-7.73l-4.086-7.834c-.226-.438-.542-.411-.707.057l-5.44 15.565-3.996-4.98Z" fill="#fff" opacity=".3"/><path d="M62.147 43.732c1.896-1.175 3.437-4.037 3.437-6.392 0-1.208-.403-2.035-1.043-2.416l-4.058 2.528a1.4 1.4 0 0 0-.428.487 1.526 1.526 0 0 0-.176.645v5.477c.604.293 1.395.202 2.268-.33Z" fill="#407BFF"/><path d="M62.143 43.735c1.896-1.175 3.437-4.037 3.437-6.392 0-1.208-.403-2.035-1.043-2.416l-4.058 2.528a1.398 1.398 0 0 0-.428.488 1.526 1.526 0 0 0-.176.644v5.477c.604.293 1.395.202 2.268-.33Z" fill="#fff" opacity=".6"/><path d="m60.483 69.325 21.508-13.409c.336-.208.607-.06.607.332a1.48 1.48 0 0 1-.183.62c-.106.189-.25.348-.424.464l-21.508 13.41c-.336.207-.604.06-.604-.333a1.47 1.47 0 0 1 .181-.62c.105-.189.25-.348.423-.464Z" fill="#407BFF"/><path d="m60.48 69.326 21.508-13.409c.335-.208.606-.06.606.332a1.48 1.48 0 0 1-.183.62c-.106.19-.25.348-.424.464L60.48 70.743c-.335.208-.604.06-.604-.333a1.47 1.47 0 0 1 .181-.62c.105-.189.25-.347.423-.464Z" fill="#fff" opacity=".6"/><path d="m60.483 72.159 21.508-13.4c.336-.209.607-.06.607.332a1.48 1.48 0 0 1-.183.62c-.106.188-.25.347-.424.464L60.483 73.584c-.336.208-.604.06-.604-.333.013-.22.075-.435.18-.625s.25-.35.424-.468Z" fill="#407BFF"/><path d="m60.48 72.154 21.508-13.4c.335-.208.606-.06.606.332a1.48 1.48 0 0 1-.183.62c-.106.189-.25.348-.424.464L60.48 73.58c-.335.208-.604.06-.604-.333.013-.22.075-.435.18-.625s.25-.35.424-.468Z" fill="#fff" opacity=".6"/><path d="m63.797 24.834 15.345-9.556c.47-.302.839-.054.839.529a2.13 2.13 0 0 1-.244.9c-.146.274-.35.508-.595.682L63.8 26.918c-.47.302-.84.06-.84-.514.017-.314.1-.62.246-.892.145-.273.348-.505.591-.678Z" fill="#FAFAFA"/><path d="m108.879 42.958 1.088 2.153-1.692 1.567-1.552-2.654 2.156-1.066Z" fill="#F28F8F"/><path d="M104.797 38.159c1.079 0 2.268.434 2.676 1.35l1.678 3.755s-.953 1.51-2.466 1.401l-1.888-6.506Z" fill="#E0E0E0"/><path d="M108.796 45.444c.316-.634.394-.664.581-.803.188-.139 1.34-.323 1.818-.368.559-.052.763.06.607.582a27.394 27.394 0 0 1-1.577 3.823c-.151.214-.179.413-.814.483-.59.06-1.331.096-1.549.108-.219.013-.521.076-.328-.618.25-.785.539-1.554.867-2.304.244-.577.395-.903.395-.903Z" fill="#407BFF"/><path d="M96.195 66.809c-.28-.151-.439.217-.682.513a2.2 2.2 0 0 0-.478.773c-.059.347.235.906.56 1.208.324.302.698.522.816 1.187.03.304.14.594.316.834s.412.422.68.524c.699.326 1.635.22 1.957 0 .375-.263.03-.552-.495-1.368-.688-1.062-1.225-1.811-1.225-2.817l-1.449-.854Z" fill="#263238"/><path d="m96.747 65.935-.56.905a.908.908 0 0 0-.132.638.865.865 0 0 0 .322.552l.017.015c.172.11.374.152.572.119a.843.843 0 0 0 .51-.303l.884-1.039-1.613-.887Z" fill="#FFA8A7"/><path d="M107.134 48.47c.036 1.142-.263 5.752-.993 7.79-.73 2.038-1.152 3.306-1.381 3.732-.23.426-6.846 7.376-6.846 7.376s-1.119-.087-1.3-1.262c0 0 2.71-4.976 3.296-5.996.588-1.02 2.668-2.585 2.668-2.585l-.19-8.925 4.746-.13Z" fill="#37474F"/><path d="M97.332 47.358c0-.196.56-2.451.84-3.493l2.049.76-.481 1.643-1.804 2.014a.759.759 0 0 1-.473-.331.873.873 0 0 1-.13-.593ZM105.675 72.76l1.399-.343-.463-2.2-1.399.344.463 2.2Z" fill="#FFA8A7"/><path d="M107.132 48.472h-6.712a27.292 27.292 0 0 0-.251 3.195c-.053 3.14 2.654 8.843 2.654 8.843a12.924 12.924 0 0 0 .173 3.802c.593 2.5 2.209 6.736 2.209 6.736s1.016.154 1.516-.477c0 0-.895-8.596-1.135-10.797-.26-2.386-.932-6.737-.932-6.737.443-.476.845-.996 1.2-1.552a8.014 8.014 0 0 0 1.275-3.019" fill="#37474F"/><path d="M102.583 38.223c-1.287.335-3.04.77-3.546 2.273-.506 1.504-1.236 4.17-1.236 4.17.28.529 1.831.966 2.371.661l.252-.905v4.04c1.007 1.183 4.514 1.732 6.712 0v-7.549c0-1.208-.621-2.657-2.335-2.763l-2.218.073Z" fill="#EBEBEB"/><path d="m100.422 44.432.646-2.195-.646 3.176v-.98Z" fill="#E0E0E0"/><path d="M102.1 32.053a.716.716 0 0 0-.342.042.762.762 0 0 0-.29.2c-.28.301-.216.854 0 2.13l.839.104-.207-2.476ZM106.994 31.686c.176.002.351-.034.514-.105.258-.16.325.157.182.431a1.26 1.26 0 0 1-.402.488c-.17.122-.367.196-.571.213 0-.04-.24-.71-.24-.71l.517-.317Z" fill="#263238"/><path d="M102.495 34.529c-.123.081-.302-.179-.456-.35a.541.541 0 0 0-.223-.167.503.503 0 0 0-.519.09.588.588 0 0 0-.164.233c-.254.58.325 1.353.666 1.606a.558.558 0 0 0 .696.067l.09 2.22c.15.355.38.664.668.9.289.237.627.393.984.455 1.208.175.96-.906.56-1.425v-.806c.302.069.613.085.92.048.156-.045.531-.535.774-1.084a5.28 5.28 0 0 0 .322-3.557c-.434-1.987-2.411-2.047-3.588-1.247s-.73 3.017-.73 3.017Z" fill="#FFA8A7"/><path d="M102.495 34.757c-.062 0-.299-.426-.456-.577-.215-.211.062-2.113.062-2.113a1.393 1.393 0 0 1 .209-1.208c.425-.483 1.248-.402 1.849-.423a5.11 5.11 0 0 0 2.153-.468c.856-.401.92-.447 1.024-.042.082.334.093.685.03 1.024-.063.34-.198.658-.394.932l-.279.49s-.261.235-1.058.34c-.797.106-2.156-.359-2.326-.383-.232-.033-.28.209-.406.87-.106.57-.196 1.555-.408 1.558Z" fill="#263238"/><path d="m102.103 32.206-.755-.438a.433.433 0 0 1 .24-.228.387.387 0 0 1 .319.023.479.479 0 0 1 .219.279c.036.12.028.25-.023.364Z" fill="#263238"/><path d="M104.793 37.352a8.19 8.19 0 0 1-1.507-.468 1.362 1.362 0 0 1-.54-.577c.059.247.164.478.308.68.279.395 1.739.685 1.739.685v-.32Z" fill="#F28F8F"/><path d="M104.83 34.49a.256.256 0 0 1-.064.175.222.222 0 0 1-.159.076.218.218 0 0 1-.161-.077.25.25 0 0 1-.063-.177.256.256 0 0 1 .064-.175.222.222 0 0 1 .16-.075.216.216 0 0 1 .16.076.25.25 0 0 1 .063.177ZM104.592 33.572l-.478.302a.319.319 0 0 1 .027-.338.26.26 0 0 1 .288-.098c.068.02.126.069.163.134Z" fill="#263238"/><path d="m104.694 36.11.511.208a.294.294 0 0 1-.139.165.261.261 0 0 1-.207.016.276.276 0 0 1-.094-.062.323.323 0 0 1-.071-.328Z" fill="#F28F8F"/><path d="m106.827 33.776-.436-.363a.264.264 0 0 1 .454.025.313.313 0 0 1 .036.112.316.316 0 0 1-.054.226ZM106.694 34.418a.262.262 0 0 1-.065.175.22.22 0 0 1-.159.076.232.232 0 0 1-.209-.158.278.278 0 0 1-.015-.096.256.256 0 0 1 .064-.175.224.224 0 0 1 .16-.075c.06.002.118.03.16.077a.27.27 0 0 1 .064.176Z" fill="#263238"/><path d="m105.639 34.388-.209 1.438.735-.094-.526-1.344Z" fill="#F28F8F"/><path d="m106.915 71.685-.045-.217c.145.03.774 1.156 1.398 1.645.682.535 1.273.852 1.577 1.093.409.323-.181.985-1.185 1.045-.498.027-1.399-.136-1.678-.423-.28-.287-.481-.76-.705-.966-.224-.205-.668-.386-.822-.649a2.065 2.065 0 0 1-.087-.812c0-.284.02-.604.109-.589l.034.163c.259.143.548.213.839.202.243-.012.682-.07.565-.492ZM105.411 58.311s-.595-4.568-.755-5.275a6.773 6.773 0 0 0 1.326-1.023c-.277.428-.58.837-.906 1.223l.335 5.075ZM101.82 58.15s.716 1.922 1.007 2.348c0 0-.073 1.468-.064 1.764l-.375.353a10 10 0 0 1 .168-1.978 12.6 12.6 0 0 1-.736-2.488Z" fill="#263238"/><path d="M99.749 46.27s5.64.652 6.303.432c.663-.22 1.552-.93 2.019-1.232.467-.302.822-.32.822-.196s-.408.797-.5 1.078c-.092.28.439.28 1.141.105.702-.175.981-.603 1.163-.356.182.248-.389 1.51-1.552 1.984s-2.027.157-2.989.202c-.962.045-6.888.453-8.222 0-.036-.23-.011-.468.07-.684.082-.217.217-.406.391-.545.403-.349.862-.616 1.354-.788ZM68.477 75.365c.013-.197.357-2.31.592-3.494l2.302.761L71 74.29l-1.912 1.999a.758.758 0 0 1-.478-.33.872.872 0 0 1-.135-.594Z" fill="#FFA8A7"/><path d="M73.523 57.473h1.118a3 3 0 0 1 2.201.984c.584.63.912 1.485.912 2.377v8.563H70.41v-8.563c0-.892.328-1.746.912-2.377a3 3 0 0 1 2.2-.984Z" fill="#263238"/><path d="m79.61 70.922 1.087 2.153-1.695 1.564-1.549-2.654 2.156-1.063Z" fill="#F28F8F"/><path d="M75.527 66.123c1.08 0 2.268.435 2.677 1.35l1.678 3.756s-.954 1.51-2.467 1.404l-1.888-6.51Z" fill="#455A64"/><path d="M76.399 103.375c.371.536.79 1.033 1.247 1.485a.644.644 0 0 1 .17.239c.048.157.11.534-.536.688a2.168 2.168 0 0 1-.994.001 2.248 2.248 0 0 1-.905-.445c-.473-.411-.417-1.132-.853-1.606-.324-.347-.763-.483-1.007-.906-.17-.302-.078-.661.076-1.105.154-.444.263-.848.41-.791l-.05.223c.154.354 1.12.577 1.592.408.254.618.538 1.222.85 1.809Z" fill="#263238"/><path d="M76.78 103.892a7.017 7.017 0 0 1-.381-.519 12.903 12.903 0 0 1-.663-1.38 1.328 1.328 0 0 1-.062-.906l.32-1.162-1.679-.417-.363 1.627c-.078.372.17.74.626 1.278.456.537.982 1.721 1.398 2.056.417.335.758.368.97.253.213-.114.267-.22-.167-.83Z" fill="#FFA8A7"/><path d="M71.886 104.397v-.257c.096.302.526 1.589 1.18 2.235.524.51 1.234 1.105 1.413 1.675.179.571-.987.795-1.474.701a2.943 2.943 0 0 1-1.695-.981c-.28-.372-.458-.813-.66-1.105-.2-.293-.66-.604-.766-.955a2.31 2.31 0 0 1 .093-.936c.078-.302.159-.661.26-.634v.212c.239.201.535.308.839.302.229 0 .813-.058.81-.257Z" fill="#263238"/><path d="m73.537 106.825-.473-.453a5.3 5.3 0 0 1-1.006-1.736 2.617 2.617 0 0 1-.174-.939v-1.017h-1.65v1.7c.079.371.84 1.355 1.267 1.998.351.553.886.938 1.494 1.075.629.091.956-.121.542-.628Z" fill="#FFA8A7"/><path d="M70.564 76.69c-1.278 3.02.047 13.65.047 13.65-.039.493-.56 1.456-.75 3.624-.229 2.548.359 8.943.359 8.943a1.664 1.664 0 0 0 1.678.073s1.574-9.635 1.87-12.168l.946-8.128 1.398 7.932a10.408 10.408 0 0 0-.923 1.98c-.333 1.12-1.007 7.503-1.007 7.503.228.225.5.39.795.484.296.094.608.113.911.057 0 0 3.23-8.756 3.376-10.544.087-1.072-1.362-13.834-1.362-13.834l-7.338.428Z" fill="#37474F"/><path d="m74.703 82.673.224-1.745s1.759-.393 2.556-1.208a4.543 4.543 0 0 1-2.078 1.492l-.235 1.684.28 3.904-.747-4.127Z" fill="#263238"/><path d="M72.834 66.205c-.47.123-.91.36-1.285.69-.375.332-.677.75-.882 1.224-.302.72-.33 1.54-.079 2.282l1.127 3.572s-.534 1.398-1.157 2.718c2.872 1.73 6.454.821 7.318-.441.037-.269-.014-1.477.056-2.847.073-1.465.26-3.12.048-4.022-.397-1.682-1.139-3.258-2.612-3.258l-2.534.082Z" fill="#455A64"/><path d="M72.396 66.203c-.979.148-2.416.362-2.914 2.874-.498 2.513-.646 3.433-.646 3.433.32.339.7.602 1.117.775.418.172.864.25 1.31.228l.506-1.932.627-5.378Z" fill="#455A64"/><path d="M72.95 68.324c-.169 0-.336-.036-.492-.105a1.286 1.286 0 0 1-.417-.301 1.401 1.401 0 0 1-.279-.451 1.484 1.484 0 0 1-.098-.531v-4.043h1.287v5.431Z" fill="#263238"/><path d="M76.548 59.076c.389.247.867 1.301.82 3.508-.04 1.872-.602 2.337-.884 2.47-.283.133-.825.051-1.354-.045v1.123s.73.906.685 1.434c-.044.528-1.057.637-1.742.133a4.696 4.696 0 0 1-1.119-1.268v-2.718a.678.678 0 0 1-.202.18.63.63 0 0 1-.74-.083c-.585-.42-.607-1.455-.266-1.812.341-.356 1.071-.253 1.208.26a3.95 3.95 0 0 0 1.958-.634c.44-.255.818-.618 1.102-1.061.285-.443.468-.953.534-1.487Z" fill="#FFA8A7"/><path d="M75.432 62.117a.25.25 0 0 1-.034.13.224.224 0 0 1-.096.089.203.203 0 0 1-.125.016.213.213 0 0 1-.112-.06.253.253 0 0 1-.055-.253.234.234 0 0 1 .075-.109.208.208 0 0 1 .118-.045.208.208 0 0 1 .16.064.254.254 0 0 1 .07.168Z" fill="#263238"/><path d="m75.492 63.702.506.175a.292.292 0 0 1-.046.101.267.267 0 0 1-.08.074.248.248 0 0 1-.204.021.287.287 0 0 1-.157-.147.324.324 0 0 1-.019-.224Z" fill="#F28F8F"/><path d="m77.22 61.392-.439-.329a.272.272 0 0 1 .072-.082.248.248 0 0 1 .2-.044.249.249 0 0 1 .095.045.322.322 0 0 1 .073.41ZM77.116 61.944a.254.254 0 0 1-.054.174.219.219 0 0 1-.153.082.217.217 0 0 1-.158-.066.253.253 0 0 1-.015-.336.22.22 0 0 1 .068-.055.206.206 0 0 1 .24.038.237.237 0 0 1 .072.163Z" fill="#263238"/><path d="m76.09 61.813.036 1.416.69-.233-.726-1.183ZM75.131 65.01c-.56-.079-1.706-.435-1.885-.924.071.248.212.466.403.625.341.317 1.482.676 1.482.676v-.377Z" fill="#F28F8F"/><path d="M79.524 73.408c.316-.634.394-.66.585-.8.19-.139 1.34-.326 1.818-.371.559-.051.763.06.606.586a27.784 27.784 0 0 1-1.588 3.82c-.151.216-.182.416-.814.482-.632.067-1.334.097-1.552.112-.218.015-.52.072-.324-.622.249-.784.537-1.553.864-2.304.254-.57.405-.903.405-.903Z" fill="#407BFF"/><path d="M71.003 74.303s5.115.583 5.778.362c.662-.22 1.552-.936 2.03-1.232.478-.295.822-.32.822-.199s-.408.8-.503 1.078c-.096.278.442.28 1.14.106.7-.175.982-.604 1.167-.357.184.248-.389 1.51-1.552 1.984-1.164.474-2.028.16-2.99.203-.962.042-6.471.507-7.805.054-.035-.231-.01-.468.07-.685.082-.217.217-.405.391-.544.432-.359.925-.62 1.452-.77Z" fill="#FFA8A7"/><path d="M71.371 72.882c.22-.642.406-1.296.56-1.96 0 0-.093 1.459-.473 2.24l-.087-.28Z" fill="#37474F"/><path d="m29.983 54.924-.909 2.12 1.692 1.564 1.463-2.666-2.246-1.018Z" fill="#F28F8F"/><path d="M34.155 50.074c-1.08 0-2.268.438-2.676 1.35-.409.912-1.678 3.759-1.678 3.759s.953 1.51 2.466 1.4l1.888-6.509Z" fill="#37474F"/><path d="M38.837 83.708h-1.493v2.346h1.493v-2.346ZM33.586 80.806l-1.492.055.074 2.345 1.493-.056-.075-2.344Z" fill="#FFA8A7"/><path d="M38.734 60.803c0 1.54.185 11.492.185 11.492.036.44.42 1.26.336 2.959-.112 2.31-.297 8.726-.297 8.726s-.699.749-1.678 0c0 0-1.353-8.72-1.619-11.009-.235-1.995-.63-7.421-.63-7.421l-1.383 6.386s.243 1.51.299 2.56c.056 1.05-.255 7.183-.255 7.183a1.537 1.537 0 0 1-1.625.066s-1.197-8.943-1.35-9.9c-.154-.957 1.048-11.041 1.048-11.041h6.97Z" fill="#37474F"/><path d="M36.49 50.148h.022a2.95 2.95 0 0 1 1.614 1.137 3.36 3.36 0 0 1 .623 1.97v7.548c-1.046 1.23-4.692 1.812-6.991 0v-7.85c0-1.253.646-2.763 2.427-2.874l2.305.07Z" fill="#455A64"/><path d="M36.993 43.724c.12-.014.241 0 .355.044a.796.796 0 0 1 .302.207c.28.302.224.89 0 2.216l-.873.109.216-2.576ZM31.901 43.358c-.187 0-.372-.04-.545-.117-.28-.166-.339.163-.193.446.097.205.242.38.42.507.177.128.382.204.595.221 0-.04.249-.734.249-.734l-.526-.323Z" fill="#263238"/><path d="M36.584 46.302c.13.085.316-.184.475-.365a.56.56 0 0 1 .233-.174.52.52 0 0 1 .54.095.601.601 0 0 1 .17.245c.279.604-.34 1.407-.691 1.67a.585.585 0 0 1-.727.07l-.093 2.306c-.156.37-.395.692-.696.938-.3.246-.651.408-1.024.472-1.255.184-.995-.933-.584-1.483v-.839a2.765 2.765 0 0 1-.954.054c-.165-.048-.56-.558-.808-1.129-.28-.64-.752-1.775-.333-3.699.45-2.068 2.517-2.131 3.73-1.298 1.214.833.761 3.137.761 3.137Z" fill="#FFA8A7"/><path d="M36.58 46.536c.067 0 .314-.44.476-.604.224-.22-.065-2.21-.065-2.21s.227-.752-.215-1.253c-.442-.5-1.3-.416-1.927-.44a5.257 5.257 0 0 1-2.237-.487c-.89-.416-.956-.465-1.066-.045a2.52 2.52 0 0 0-.031 1.065c.065.353.205.685.409.97l.442.175s.238.23 1.068.338c.766.062 1.536.046 2.299-.045.24-.036.28.215.422.906.112.604.207 1.627.425 1.63Z" fill="#263238"/><path d="m36.99 43.88.786-.456a.465.465 0 0 0-.105-.15.422.422 0 0 0-.322-.114.408.408 0 0 0-.166.053.501.501 0 0 0-.22.292.544.544 0 0 0 .027.375Z" fill="#263238"/><path d="M34.186 49.237a8.228 8.228 0 0 0 1.57-.486c.238-.136.433-.346.559-.604-.061.256-.17.497-.32.706-.296.411-1.811.713-1.811.713l.002-.329Z" fill="#F28F8F"/><path d="M34.469 45.986c0 .05.016.098.042.14a.24.24 0 0 0 .107.09c.043.018.09.022.136.011a.23.23 0 0 0 .119-.071.272.272 0 0 0 .047-.277.25.25 0 0 0-.089-.112.222.222 0 0 0-.13-.04.23.23 0 0 0-.166.077.268.268 0 0 0-.066.182ZM34.715 45.038l.5.302a.35.35 0 0 0 .02-.24.324.324 0 0 0-.137-.189.265.265 0 0 0-.314.034.3.3 0 0 0-.07.093Z" fill="#263238"/><path d="m34.484 47.691-.53.218a.31.31 0 0 0 .054.104c.025.03.055.056.088.073a.263.263 0 0 0 .218.013c.072-.03.13-.09.162-.166a.343.343 0 0 0 .008-.242Z" fill="#F28F8F"/><path d="m32.39 45.247.451-.38a.29.29 0 0 0-.08-.082.268.268 0 0 0-.217-.037.272.272 0 0 0-.1.052.346.346 0 0 0-.053.447ZM32.529 45.918c-.001.067.023.132.066.18a.23.23 0 0 0 .166.08.232.232 0 0 0 .167-.08.271.271 0 0 0 .068-.183.272.272 0 0 0-.059-.197.238.238 0 0 0-.079-.063.22.22 0 0 0-.191 0 .238.238 0 0 0-.08.063.26.26 0 0 0-.058.197v.003Z" fill="#263238"/><path d="m33.718 45.68-.078 1.512-.73-.268.808-1.244Z" fill="#F28F8F"/><path d="M37.344 85.257v-.233c-.142.067-.475 1.434-1.065 2.017-.473.462-1.119 1-1.278 1.51-.16.51.895.833 1.334.748.511-.096 1.398-.486 1.619-.845.22-.36.327-.89.506-1.156.179-.266.599-.559.696-.864.03-.285 0-.574-.086-.845-.07-.284-.143-.604-.233-.571v.175a1.117 1.117 0 0 1-.746.272c-.215.018-.75-.027-.747-.209ZM32.154 82.704c-.079 0-.143.12-.314.32-.254.28-.551.51-.878.682-.559.302-1.644.767-2.136 1.006-.305.15-.28.55.025.779.305.23 1.085.392 2.005.169.5-.121 1.155-.62 1.566-.604.411.015 1.186.021 1.49-.205.306-.227.185-.713.099-1.13-.087-.416-.23-1.147-.37-1.117v.142c-.178.302-1.093.414-1.487.2v-.242Z" fill="#263238"/><path d="M30.158 57.364c-.316-.637-.395-.664-.585-.803-.19-.14-1.34-.326-1.817-.369-.56-.05-.764.06-.607.583.433 1.317.96 2.595 1.577 3.823.151.214.182.413.814.48.632.066 1.334.096 1.552.111.218.016.52.073.324-.621a24.383 24.383 0 0 0-.864-2.304c-.23-.57-.394-.9-.394-.9Z" fill="#407BFF"/><path d="M41.62 59.278c-.014-.2-.559-2.452-.838-3.493l-2.048.76.481 1.64 1.801 2.014c.191-.04.36-.159.473-.33a.87.87 0 0 0 .131-.591Z" fill="#FFA8A7"/><path d="M39.208 58.184s-5.644.652-6.307.432c-.663-.22-1.552-.936-2.03-1.232-.478-.296-.822-.32-.822-.196s.408.797.503 1.075c.095.278-.442.28-1.14.105-.7-.175-.982-.604-1.167-.356-.185.248.389 1.51 1.552 1.984s2.028.16 2.99.202c.962.042 6.888.453 8.221 0 .036-.23.011-.467-.07-.683a1.257 1.257 0 0 0-.39-.543 4.214 4.214 0 0 0-1.34-.788Z" fill="#FFA8A7"/><path d="M36.96 50.319c.887.317 2.646.477 3.214 2.548.568 2.071.853 3.415.853 3.415-.335.483-1.678 1.042-2.293.833l-1.773-6.796Z" fill="#455A64"/><path d="m38.736 57.114-.607-2.325.607 3.273v-.948Z" fill="#37474F"/><path d="M26.004 62.002c-.028.039-.266.465-.266.465l-1.093 1.69-1.066 1.725a.283.283 0 0 1-.137.113.26.26 0 0 1-.173.004l-.073-.027c-.37-.148-.923-.398-1.658-.764-.59-.302-.56-.39-.56-.498a1.462 1.462 0 0 1 0-.26c.12-.247.493-.866.993-1.648.89-1.395 1.317-2.014 1.583-2.416a.28.28 0 0 1 .158-.119.26.26 0 0 1 .192.02c.478.172 1.448.622 1.957.845h.023c.274.16.123.858.12.87Z" fill="#407BFF"/><path d="m26.034 61.947-.28.519-1.068 1.724-1.119 1.682a.283.283 0 0 1-.137.113.26.26 0 0 1-.173.005l-.073-.028c-.369-.148-.922-.398-1.658-.764-.59-.301-.56-.389-.56-.498a1.463 1.463 0 0 1 0-.26c.56.266 2.33 1.172 2.389 1.139.14-.072 1.34-2.15 1.977-3.21.319-.528.462-.751.56-.932a.204.204 0 0 0 .045-.161.21.21 0 0 0-.028-.081.192.192 0 0 0-.057-.06h-.022a.47.47 0 0 1 .158.149.513.513 0 0 1 .08.21.502.502 0 0 1-.034.453Z" fill="#407BFF"/><path opacity=".1" d="m26.034 61.947-.28.519-1.068 1.724-1.119 1.682a.283.283 0 0 1-.137.113.26.26 0 0 1-.173.005l-.073-.028c-.369-.148-.922-.398-1.658-.764-.59-.301-.56-.389-.56-.498a1.463 1.463 0 0 1 0-.26c.56.266 2.33 1.172 2.389 1.139.14-.072 1.34-2.15 1.977-3.21.319-.528.462-.751.56-.932a.204.204 0 0 0 .045-.161.21.21 0 0 0-.028-.081.192.192 0 0 0-.057-.06h-.022a.47.47 0 0 1 .158.149.513.513 0 0 1 .08.21.502.502 0 0 1-.034.453Z" fill="#000"/><path d="m23.569 60.78 1.963.888-2.092 3.357-1.952-.969 2.08-3.276Z" fill="#FAFAFA"/><path d="M23.017 72.481c.537-.166 1.348-2.322 1.958-4.767.61-2.446.931-2.986.95-3.756.02-.77-.03-1.782-.03-1.782l-1.063 1.676a3.19 3.19 0 0 0-.28-.927c-.136-.302-.393-.54-.603-.36-.112.097.184.511.12 1.435-.005.368.029.736.1 1.096l-1.974 5.163.822 2.222Z" fill="#FFA8A7"/><path d="M15.073 61.773c-.624-.19-1.152.17-1.446 1.241a44.862 44.862 0 0 0-1.118 6.154c-.084.746-.18 1.651.48 1.72.504.055 1.958-.247 2.213-.519.34-.356.28-1.793.28-1.793h-.756l.21-1.476c.168-1.157.417-2.615.417-2.615l-.28-2.712Z" fill="#F28F8F"/><path d="m18.733 60.716-.254 2.418-2.21.278.32-3.21 2.144.514Z" fill="#FFA8A7"/><path d="M14.004 57.186c.182-2.234 1.303-3.152 2.17-3.376 1.75-.444 3.479.19 4.195 1.51a3.55 3.55 0 0 1 0 2.615c-.38.936-6.357-.755-6.357-.755" fill="#263238"/><path d="M20.48 58.389s.316.92.232.99c-.132.052-.271.078-.411.079l.179-1.07Z" fill="#FFA8A7"/><path d="M19.538 55.475c.417.386 1.119 1.087.931 3.02-.207 1.998-.654 2.539-.956 2.732-.202.13-1.094-.097-1.508-.36-.514-.328-1.655-1.177-2.002-2.321-.41-1.347-.204-2.953.697-3.373a2.756 2.756 0 0 1 1.455-.244c.496.053.972.24 1.383.546Z" fill="#FFA8A7"/><path d="M20.05 55.529a3.8 3.8 0 0 1-.3 1.55 3.538 3.538 0 0 1-.894 1.255s-.26-.728-.839-.562c-.578.166-.559.99-.145 1.438a.83.83 0 0 0 .4.265.78.78 0 0 0 .47-.009c-.083.571-.33 1.1-.708 1.51a3.056 3.056 0 0 1-1.815-.106 3.301 3.301 0 0 1-1.485-1.132c-1.278-1.658-.9-4.29 1.097-5.066a3.72 3.72 0 0 1 2.225-.236c.748.152 1.44.53 1.994 1.093ZM16.003 97.103l.954 1.431a2.958 2.958 0 0 1-1.384.302c-.853.036-1.088-.266-1.119-.338-.145-.335.081-.936.143-1.452l1.406.057Z" fill="#263238"/><path d="M16.9 97.84s1.155-.082 1.957-.19c.803-.109 1.432.302 1.245.667-.188.366-.63.652-1.314.906-.585.214-1.29.368-1.902.564-.613.197-1.03.438-1.384.302-.398-.147-.56-.32-.535-.63.087-.444.194-.882.322-1.314l1.61-.305Z" fill="#263238"/><path d="M14.453 95.657s.143 1.299.154 1.58c.011.28 1.175.368 1.398-.142l.037-1.589-1.589.151Z" fill="#F28F8F"/><path d="m15.628 96.46-.405 1.971s-.042.239.912.393c.953.154 2.441-.538 2.695-.677.255-.139.28-.42-.651-.365a37.49 37.49 0 0 1-1.264.06l.305-.875-1.592-.507Z" fill="#FFA8A7"/><path d="M14.454 70.063c-.797 1.337-1.552 2.515-1.714 4.019-.341 3.176.777 6.805 1.015 9.154a4.467 4.467 0 0 0-.752 2.292c0 .972 1.451 10.13 1.451 10.13s1.055.347 1.586-.151l.998-16.848-.526-2.05-2.058-6.546Z" fill="#455A64"/><path d="m17.038 78.66-.526-2.05a12.19 12.19 0 0 1-2.844-1.208s.54 1.057 2.08 1.637l.803 2.635.07 6.04.417-7.054Z" fill="#37474F"/><path d="M14.453 70.063c-.425.748-1.446 2.035-1.227 3.267.262 1.51 1.006 2.545 3.286 3.279l2.136 8.354s-1.119 1.126-1.451 2.195c-.333 1.07-1.572 9.3-1.572 9.3s.38.67 1.583.507c0 0 4.195-10.323 4.474-10.987.358-.68.484-1.474.356-2.244-.135-1.08-1.561-12.922-1.561-12.922l-6.024-.75Z" fill="#455A64"/><path d="M14.068 62.524a1.13 1.13 0 0 1 .457-.587.997.997 0 0 1 .698-.144c1.49.438 3.809 1.014 4.248 1.153 0 0-.199 3.101 1.518 4.194-.08.692-.517 3.672-.517 3.672s-2.064 1.08-3.762.55c-1.697-.532-2.268-1.3-2.268-1.3l.84-1.494c-.182-.486-.884-2.137-1.337-3.671a4.831 4.831 0 0 1 .123-2.373Z" fill="#FAFAFA"/><path d="M15.074 67.98c.706.458 1.446.853 2.212 1.18a3.938 3.938 0 0 1-1.98-.604l-.232-.577ZM20.953 66.907a3.188 3.188 0 0 1-1.43-1.45c.052.49.208.962.456 1.377.247.415.58.762.974 1.015v-.942Z" fill="#E0E0E0"/><path d="M19.482 62.948c.937.302 1.519.399 2.025.888.666.646 1.354 4.3 1.493 5.054.244 1.307.512 2.666.25 3.276-.19.44-1.226.77-1.678-.655-.096-.302-.115-.441-.2-.713-.427-1.365-1.07-3.973-1.07-3.973s-1.267-.755-.82-3.877Z" fill="#FFA8A7"/><path d="M14.941 54.67c-.333.207-.934.41-1.309 2.297a31.098 31.098 0 0 0-.542 4.807c.014.585 1.138 2.213 3.51 2.059 2.371-.154 3.232-1.655 3.232-1.655s-1.166-.513-1.073-2.717c0 0-.412.873-1.539.435s-2.279-5.227-2.279-5.227Z" fill="#263238"/></svg>