<svg width="360" height="330" fill="none" xmlns="http://www.w3.org/2000/svg"><path d="M52.72 302.742c70.297 36.344 184.263 36.344 254.56 0 70.297-36.343 70.289-95.263 0-131.607-70.289-36.343-184.263-36.343-254.56 0-70.297 36.344-70.29 95.264 0 131.607Z" fill="#EBF1FF"/><path d="M308.244 213.167c13.702 0 24.809-5.238 24.809-11.699 0-6.462-11.107-11.7-24.809-11.7-13.701 0-24.808 5.238-24.808 11.7 0 6.461 11.107 11.699 24.808 11.699ZM52.283 281.611c12.561 0 22.745-4.803 22.745-10.728s-10.184-10.728-22.745-10.728c-12.561 0-22.744 4.803-22.744 10.728s10.183 10.728 22.744 10.728ZM221.151 302.236c13.071 0 23.667-5 23.667-11.168 0-6.168-10.596-11.168-23.667-11.168-13.071 0-23.668 5-23.668 11.168 0 6.168 10.597 11.168 23.668 11.168ZM103.679 248.796c13.071 0 23.667-5 23.667-11.168 0-6.168-10.596-11.168-23.667-11.168-13.072 0-23.668 5-23.668 11.168 0 6.168 10.597 11.168 23.668 11.168Z" fill="#E6E6E6"/><path d="M242.956 174.158c.579-6.883 16.52-32.706 21.394-36.709 4.874-4.002 13.482-14.115 9.774-19.861s-14.606-3.189-24.842 14.722c-7.937 13.891-10.403 44.613-10.403 44.613l4.077-2.765Z" fill="#407BFF"/><path d="M240.775 173.511h-.067a.404.404 0 0 1-.153-.056.404.404 0 0 1-.191-.418c4.505-28.829 14.078-46.814 29.263-54.984a.424.424 0 0 1 .571.166.405.405 0 0 1-.042.461.423.423 0 0 1-.126.104c-14.942 8.037-24.372 25.831-28.844 54.386a.412.412 0 0 1-.143.244.428.428 0 0 1-.268.097Z" fill="#fff"/><path d="M244.558 140.763s12.795-21.888 23.391-31.91c5.873-5.555 9.48-9.133 9.161-13.335-.234-3.188-2.911-4.89-8.666-3.487-11.469 2.79-17.618 14.29-21.578 27.168-2.811 9.067-2.308 21.564-2.308 21.564Z" fill="#407BFF"/><path opacity=".2" d="M244.558 140.763s12.795-21.888 23.391-31.91c5.873-5.555 9.48-9.133 9.161-13.335-.234-3.188-2.911-4.89-8.666-3.487-11.469 2.79-17.618 14.29-21.578 27.168-2.811 9.067-2.308 21.564-2.308 21.564Z" fill="#000"/><path d="M246.043 137.168h-.058a.427.427 0 0 1-.353-.482c4.556-28.447 21.872-39.158 27.074-41.765a.423.423 0 0 1 .608.338.4.4 0 0 1-.231.4c-5.109 2.567-22.123 13.095-26.62 41.16a.415.415 0 0 1-.42.349Z" fill="#fff"/><path d="m71.118 38.118-5.823-3.321c-2.156-1.27-5.352-1.022-8.926 1.021-4.942 2.823-9.17 9.682-10.907 15.436l-4.128-2.35c-2.122-1.412-5.033-1.66-8.247.216-6.485 3.703-11.745 11.907-11.745 18.317 0 6.086 3.792 9.964 8.457 12.455l4.589 2.624.059-.648c.922.307 1.837.581 2.726.83l7.55 1.976 7.552-10.628c7.206-10.121 15.789-24.08 15.789-33.296 0-.349-.017-.689-.05-1.021l1.594.83 1.51-2.441Z" fill="#F28F8F"/><path d="m71.118 38.118-5.823-3.321c-2.156-1.27-5.352-1.022-8.926 1.021-4.942 2.823-9.17 9.682-10.907 15.436l-4.128-2.35c-2.122-1.412-5.033-1.66-8.247.216-6.485 3.703-11.745 11.907-11.745 18.317 0 6.086 3.792 9.964 8.457 12.455l4.589 2.624.059-.648c.922.307 1.837.581 2.726.83l7.55 1.976 7.552-10.628c7.206-10.121 15.789-24.08 15.789-33.296 0-.349-.017-.689-.05-1.021l1.594.83 1.51-2.441Z" fill="#E6E6E6"/><path d="m50.705 88.062-7.55-1.984c-7.224-1.894-15.84-6.07-15.84-15.229 0-6.418 5.26-14.622 11.745-18.325 5.966-3.413 10.907.233 11.637 5.513.755-6.127 5.68-15.41 11.645-18.815 6.477-3.703 11.746-1.503 11.746 4.907 0 9.134-8.591 23.175-15.79 33.305l-7.593 10.628Z" fill="#F0F0F0"/><path d="M124.149 39.67a3.74 3.74 0 0 0-.176-1.228l4.522-5.123-5.789-3.222c-.545-.373-1.334-.415-2.391.191l-10.067 5.771-1.351.772c.238-1.15.401-2.316.486-3.487 0-.49.042-.963.042-1.428l.185.1 3.356-3.92-5.739-3.197c-1.938-1.253-5.294 1.121-5.294 2.06 0 1.137.495 7.057 0 8.751-.495 1.694-5.663 13.393-5.663 13.393v24.395l18.877-10.794c2.517-1.428 4.195-4.45 4.195-6.501a6.344 6.344 0 0 0-.503-2.674c1.602-.913 3.204-4.226 3.204-5.638 0-2.125-.738-2.673-.738-2.673a8.063 8.063 0 0 0 1.985-2.491c.488-.952.78-1.991.859-3.056Z" fill="#FAFAFA"/><path d="m102.302 76.82-5.965-3.413-.025-24.386 5.973 3.412.017 24.387Z" fill="#E6E6E6"/><path d="M128.084 51.195c0 1.412-1.594 4.725-3.196 5.638.349.854.514 1.77.486 2.69 0 2.035-1.719 5.074-4.194 6.485l-18.877 10.794V52.424s5.185-11.708 5.671-13.401c.487-1.694 0-7.606 0-8.744 0-1.137 4.69-4.226 6.175-.988 1.485 3.238 1.611 6.543.747 10.844l11.41-6.526c2.408-1.379 3.356.598 3.356 2.142a8.333 8.333 0 0 1-1.838 4.866s2.274-.664 2.274 2.358a7.857 7.857 0 0 1-.82 3.048 7.938 7.938 0 0 1-1.957 2.49s.763.573.763 2.682ZM91.346 86.369l8.247-4.708-.025-28.38-8.222 4.707v28.38Z" fill="#F0F0F0"/><path d="m91.346 86.368-5.974-3.404V54.575l5.974 3.413v28.38Z" fill="#E6E6E6"/><path d="m93.602 49.867 5.965 3.413-8.221 4.708-5.974-3.413 8.23-4.708Z" fill="#F5F5F5"/><path d="M107.948 39.031c-.486 1.661-5.671 13.402-5.671 13.402l-5.957-3.321s5.168-11.7 5.663-13.394c.495-1.693 0-7.614 0-8.751l5.974 3.321c-.009 1.138.495 7.058-.009 8.743Z" fill="#E6E6E6"/><path d="m316.224 76.154-2.769-5.148 2.223-6.36V60.75l-6.812 3.895v3.894l2.928 5.032c.045.078.116.14.201.174l4.229 2.408Z" fill="#407BFF"/><path opacity=".1" d="m316.224 76.154-2.769-5.148 2.223-6.36V60.75l-6.812 3.895v3.894l2.928 5.032c.045.078.116.14.201.174l4.229 2.408Z" fill="#000"/><path d="m300.418 51.983 18.759-10.794a4.589 4.589 0 0 1 4.086 0l1.678.955c.597.382 1.093.9 1.449 1.508.356.61.561 1.293.598 1.996v15.046a4.449 4.449 0 0 1-.6 1.994 4.503 4.503 0 0 1-1.447 1.51l-18.776 10.794a4.588 4.588 0 0 1-4.086 0l-1.678-.955a4.483 4.483 0 0 1-1.444-1.51 4.431 4.431 0 0 1-.595-1.994V55.471c.044-.7.252-1.38.609-1.986a4.508 4.508 0 0 1 1.447-1.502Z" fill="#407BFF"/><path opacity=".3" d="m300.418 51.983 18.759-10.794a4.589 4.589 0 0 1 4.086 0l1.678.955c.597.382 1.093.9 1.449 1.508.356.61.561 1.293.598 1.996v15.046a4.449 4.449 0 0 1-.6 1.994 4.503 4.503 0 0 1-1.447 1.51l-18.776 10.794a4.588 4.588 0 0 1-4.086 0l-1.678-.955a4.483 4.483 0 0 1-1.444-1.51 4.431 4.431 0 0 1-.595-1.994V55.471c.044-.7.252-1.38.609-1.986a4.508 4.508 0 0 1 1.447-1.502Z" fill="#fff"/><path d="M306.173 74.975c-1.133.64-2.048.125-2.048-1.17V58.758a4.45 4.45 0 0 1 .601-1.995 4.494 4.494 0 0 1 1.447-1.51l18.776-10.794c1.132-.647 2.047-.124 2.047 1.171v15.046a4.437 4.437 0 0 1-.601 1.994 4.49 4.49 0 0 1-1.446 1.51" fill="#407BFF"/><path d="M298.379 70.517c.037.701.241 1.385.595 1.993a4.474 4.474 0 0 0 1.444 1.51l1.678.955a4.589 4.589 0 0 0 3.733.158c-.956.366-1.678-.174-1.678-1.328V58.759c.027-.704.235-1.39.604-1.993L299 53.446a4.125 4.125 0 0 0-.596 1.992l-.025 15.079Z" fill="#407BFF"/><path opacity=".1" d="M298.379 70.517c.037.701.241 1.385.595 1.993a4.474 4.474 0 0 0 1.444 1.51l1.678.955a4.589 4.589 0 0 0 3.733.158c-.956.366-1.678-.174-1.678-1.328V58.759c.027-.704.235-1.39.604-1.993L299 53.446a4.125 4.125 0 0 0-.596 1.992l-.025 15.079Z" fill="#000"/><path d="m313.136 70.982 2.928 5.023a.446.446 0 0 0 .797-.074l3.096-8.843v-3.895l-6.821 3.895v3.894Z" fill="#407BFF"/><path d="m315.57 65.842-2.098-.548c-1.997-.523-4.379-1.661-4.379-4.21a6.59 6.59 0 0 1 1.011-2.92 6.678 6.678 0 0 1 2.236-2.153 2.047 2.047 0 0 1 2.067-.179c.329.156.61.397.813.697a2 2 0 0 1 .341 1.01c.21-1.661 1.569-4.269 3.222-5.215 1.795-1.021 3.247-.415 3.247 1.362 0 2.54-2.375 6.41-4.371 9.216l-2.089 2.94Z" fill="#fff"/><path d="m38.206 115.67 18.776-10.753a4.54 4.54 0 0 1 4.086 0l1.678.946a4.518 4.518 0 0 1 1.44 1.512c.355.609.56 1.291.598 1.992v15.046a4.445 4.445 0 0 1-.597 1.992 4.5 4.5 0 0 1-1.441 1.512L43.995 138.67a4.557 4.557 0 0 1-4.094 0l-1.678-.947a4.494 4.494 0 0 1-1.464-1.522 4.441 4.441 0 0 1-.6-2.015v-15.012a4.416 4.416 0 0 1 .598-1.996 4.467 4.467 0 0 1 1.449-1.508Z" fill="#407BFF"/><path opacity=".3" d="m38.206 115.67 18.776-10.753a4.54 4.54 0 0 1 4.086 0l1.678.946a4.518 4.518 0 0 1 1.44 1.512c.355.609.56 1.291.598 1.992v15.046a4.445 4.445 0 0 1-.597 1.992 4.5 4.5 0 0 1-1.441 1.512L43.995 138.67a4.557 4.557 0 0 1-4.094 0l-1.678-.947a4.494 4.494 0 0 1-1.464-1.522 4.441 4.441 0 0 1-.6-2.015v-15.012a4.416 4.416 0 0 1 .598-1.996 4.467 4.467 0 0 1 1.449-1.508Z" fill="#fff"/><path d="m54.003 139.857-2.768-5.157 2.231-6.36v-3.894l-6.82 3.927v3.894l2.936 4.982a.426.426 0 0 0 .193.175l4.228 2.433Z" fill="#407BFF"/><path opacity=".1" d="m54.003 139.857-2.768-5.157 2.231-6.36v-3.894l-6.82 3.927v3.894l2.936 4.982a.426.426 0 0 0 .193.175l4.228 2.433Z" fill="#000"/><path d="M43.995 138.669c-1.133.648-2.047.125-2.047-1.17v-15.046a4.422 4.422 0 0 1 .6-1.99 4.473 4.473 0 0 1 1.447-1.505l18.784-10.795c1.125-.639 2.04-.116 2.04 1.171v15.046a4.451 4.451 0 0 1-.599 1.992 4.509 4.509 0 0 1-1.44 1.512" fill="#407BFF"/><path d="M36.159 134.186a4.44 4.44 0 0 0 .6 1.994 4.496 4.496 0 0 0 1.447 1.51l1.678.947a4.642 4.642 0 0 0 3.742.166c-.965.357-1.678-.183-1.678-1.337v-15.012c.024-.704.23-1.39.595-1.993l-5.747-3.28a4.123 4.123 0 0 0-.604 1.993l-.033 15.012Z" fill="#407BFF"/><path opacity=".1" d="M36.159 134.186a4.44 4.44 0 0 0 .6 1.994 4.496 4.496 0 0 0 1.447 1.51l1.678.947a4.642 4.642 0 0 0 3.742.166c-.965.357-1.678-.183-1.678-1.337v-15.012c.024-.704.23-1.39.595-1.993l-5.747-3.28a4.123 4.123 0 0 0-.604 1.993l-.033 15.012Z" fill="#000"/><path d="m50.925 134.676 2.928 4.982a.436.436 0 0 0 .789-.075l3.095-8.843v-3.894l-6.812 3.894v3.936Z" fill="#407BFF"/><path d="M46.26 125.691a4.178 4.178 0 0 0-1.37 1.429 4.12 4.12 0 0 0-.552 1.893c0 1.212.84 1.66 1.922 1.096a4.244 4.244 0 0 0 1.363-1.433 4.184 4.184 0 0 0 .558-1.889c.008-1.212-.83-1.735-1.921-1.096ZM53.35 121.632a4.218 4.218 0 0 0-1.37 1.43 4.172 4.172 0 0 0-.56 1.891c0 1.212.839 1.702 1.93 1.096a4.226 4.226 0 0 0 1.363-1.433 4.184 4.184 0 0 0 .558-1.888c0-1.212-.864-1.702-1.921-1.096ZM60.43 117.579a4.236 4.236 0 0 0-1.363 1.433 4.184 4.184 0 0 0-.558 1.888c0 1.213.839 1.661 1.921 1.096a4.165 4.165 0 0 0 1.37-1.428 4.12 4.12 0 0 0 .551-1.893c0-1.221-.855-1.71-1.921-1.096Z" fill="#fff"/><path d="m237.302 6.672-81.565 46.582a7.989 7.989 0 0 0-2.568 2.684 7.899 7.899 0 0 0-1.065 3.543v178.678c0 2.292 1.628 3.222 3.633 2.076l81.565-46.581a8.003 8.003 0 0 0 2.568-2.685 7.894 7.894 0 0 0 1.064-3.543V8.748c0-2.292-1.627-3.222-3.632-2.076Z" fill="#37474F"/><path d="m155.737 53.254 81.565-46.582c1.795-1.021 3.28-.382 3.574 1.403a7.993 7.993 0 0 0-1.186-3.156 8.08 8.08 0 0 0-2.388-2.398L234.34.86a8.097 8.097 0 0 0-7.265 0L145.51 47.416a7.361 7.361 0 0 0-2.567 2.682l10.227 5.813a7.365 7.365 0 0 1 2.567-2.657Z" fill="#455A64"/><path d="M141.877 232.313a7.892 7.892 0 0 0 1.063 3.545 7.974 7.974 0 0 0 2.57 2.683l2.961 1.66a8.17 8.17 0 0 0 6.645.291c-1.678.639-3.012-.315-3.012-2.366V59.456a7.248 7.248 0 0 1 1.066-3.546l-10.227-5.812a7.293 7.293 0 0 0-1.066 3.546v178.669Z" fill="#263238"/><path d="m157.691 75.507 77.655-44.348c1.2-.69 2.182-.133 2.182 1.245v135.269a4.755 4.755 0 0 1-.642 2.125 4.803 4.803 0 0 1-1.54 1.611l-77.655 44.34c-1.2.689-2.181.133-2.181-1.246V79.243a4.72 4.72 0 0 1 .638-2.127c.379-.65.908-1.2 1.543-1.61Z" fill="#FAFAFA"/><path d="M195.697 36.896a2.786 2.786 0 0 0-1.275 2.192c0 .83.57 1.138 1.275.73a2.775 2.775 0 0 0 1.275-2.192c0-.805-.571-1.129-1.275-.73ZM183.624 49.75a5.625 5.625 0 0 0-1.785 1.895 5.546 5.546 0 0 0-.731 2.488c0 1.611 1.141 2.267 2.516 1.462a5.599 5.599 0 0 0 1.81-1.89 5.533 5.533 0 0 0 .749-2.494c0-1.611-1.149-2.267-2.559-1.462ZM189.875 49.201c0 1.08.839 1.486 1.82.913l16.78-9.606a3.889 3.889 0 0 0 1.266-1.281 3.83 3.83 0 0 0 .546-1.709c0-1.07-.839-1.478-1.812-.905l-16.78 9.607c-.518.32-.954.758-1.27 1.275a3.82 3.82 0 0 0-.55 1.706Z" fill="#263238"/><path d="M147.532 80.853a4.47 4.47 0 0 1 1.449 1.509c.356.609.561 1.293.598 1.995 0 1.287-.914 1.81-2.047 1.171a4.511 4.511 0 0 1-1.442-1.516 4.458 4.458 0 0 1-.597-1.996c.017-1.287.915-1.802 2.039-1.163ZM147.532 96.439a4.49 4.49 0 0 1 1.446 1.51c.356.608.562 1.291.601 1.994 0 1.295-.915 1.818-2.047 1.17a4.507 4.507 0 0 1-1.423-1.495 4.444 4.444 0 0 1-.599-1.967c0-1.329.898-1.852 2.022-1.212Z" fill="#37474F"/><path d="M146.903 81.161a4.49 4.49 0 0 1 1.446 1.51c.356.609.562 1.292.601 1.994 0 1.295-.915 1.819-2.047 1.17a4.5 4.5 0 0 1-1.445-1.51 4.448 4.448 0 0 1-.602-1.993c0-1.287.922-1.81 2.047-1.17ZM146.903 96.755a4.49 4.49 0 0 1 1.446 1.51c.356.608.562 1.291.601 1.994 0 1.295-.915 1.818-2.047 1.17a4.494 4.494 0 0 1-1.445-1.51 4.448 4.448 0 0 1-.602-1.994c0-1.295.922-1.818 2.047-1.17Z" fill="#455A64"/><path d="M196.519 199.549a11.074 11.074 0 0 0-3.561 3.726 10.956 10.956 0 0 0-1.473 4.917c0 3.189 2.257 4.476 5.034 2.89a11.101 11.101 0 0 0 3.562-3.731 10.958 10.958 0 0 0 1.472-4.921c.009-3.189-2.248-4.476-5.034-2.881Z" fill="#263238"/><path d="M173.791 213.822c-.713 0-.788-.831-.788-1.13V77.432a4.354 4.354 0 0 1 .586-1.918 4.421 4.421 0 0 1 1.385-1.461l77.655-44.348c.232-.137.494-.217.764-.233.713 0 .788.78.788 1.121v135.269a4.344 4.344 0 0 1-.586 1.915 4.402 4.402 0 0 1-1.385 1.456l-77.655 44.348c-.23.144-.493.227-.764.241Z" fill="#fff" stroke="#407BFF" stroke-width=".502" stroke-miterlimit="10"/><path d="M253.393 29.888c.319 0 .369.44.369.706v135.269a3.927 3.927 0 0 1-.528 1.708 3.991 3.991 0 0 1-1.234 1.306l-77.655 44.347a1.226 1.226 0 0 1-.554.183c-.319 0-.369-.448-.369-.714V77.433a3.932 3.932 0 0 1 .528-1.71 3.989 3.989 0 0 1 1.234-1.304l77.655-44.348c.165-.108.356-.17.554-.183Zm0-.83a1.99 1.99 0 0 0-.973.29l-77.656 44.348a4.782 4.782 0 0 0-1.543 1.61 4.72 4.72 0 0 0-.638 2.127v135.26c0 .98.495 1.544 1.208 1.544.345-.014.681-.117.973-.299l77.656-44.339a4.797 4.797 0 0 0 1.542-1.61 4.73 4.73 0 0 0 .639-2.126V30.594c0-.972-.495-1.536-1.208-1.536Z" fill="#407BFF" stroke="#407BFF" stroke-width=".502" stroke-miterlimit="10"/><path d="M254.576 30.594c0-1.378-.973-1.934-2.181-1.245L174.74 73.696a4.775 4.775 0 0 0-1.544 1.61 4.732 4.732 0 0 0-.638 2.127v11.085l82.018-46.839V30.594Z" fill="#407BFF"/><path opacity=".1" d="M254.576 30.594c0-1.378-.973-1.934-2.181-1.245L174.74 73.696a4.775 4.775 0 0 0-1.544 1.61 4.732 4.732 0 0 0-.638 2.127v11.085l82.018-46.839V30.594Z" fill="#000"/><path d="M181.141 76.254a.907.907 0 0 0-.839.108 3.34 3.34 0 0 0-1.05 1.105c-.259.444-.411.94-.443 1.452a.828.828 0 0 0 .327.78.846.846 0 0 0 .839-.115 3.326 3.326 0 0 0 1.485-2.55.823.823 0 0 0-.319-.78Z" fill="#fff"/><path d="m182.911 73.422-.184.108v-.374c0-.523-.369-.739-.839-.473l-3.524 2.01a1.84 1.84 0 0 0-.59.61 1.81 1.81 0 0 0-.249.81v.382l-.193.107a2.422 2.422 0 0 0-1.107 1.894v3.379c0 .697.495.988 1.107.64l5.563-3.18c.322-.21.591-.49.783-.82.193-.33.303-.701.324-1.082v-3.396c.017-.681-.478-.964-1.091-.615Zm-2.617 6.71a1.854 1.854 0 0 1-.898.265 1.181 1.181 0 0 1-.587-.15 1.453 1.453 0 0 1-.646-1.329 3.859 3.859 0 0 1 .524-1.766 3.908 3.908 0 0 1 1.288-1.33 1.443 1.443 0 0 1 1.485-.116 1.431 1.431 0 0 1 .638 1.329 3.876 3.876 0 0 1-.523 1.764 3.924 3.924 0 0 1-1.281 1.332Zm2.517-4.51c-.286.158-.512 0-.512-.298a1.117 1.117 0 0 1 .512-.88c.285-.166.52 0 .52.29a1.141 1.141 0 0 1-.487.889h-.033ZM250.113 34.007l-5.429 3.097a2.38 2.38 0 0 0-.764.798 2.352 2.352 0 0 0-.318 1.053v3.322c0 .672.487.955 1.082.614l3.23-1.843 1.267 1.254a.212.212 0 0 0 .317-.037.207.207 0 0 0 .036-.113v-2.034l.579-.332a2.374 2.374 0 0 0 1.107-1.852v-3.321c0-.673-.512-.947-1.107-.606Z" fill="#fff"/><path d="M183.037 86.541c2.836-1.594 5.135-.299 5.135 2.906a11.089 11.089 0 0 1-1.512 4.975 11.223 11.223 0 0 1-3.623 3.76c-2.844 1.66-5.143.324-5.143-2.906a11.005 11.005 0 0 1 1.506-4.982 11.126 11.126 0 0 1 3.637-3.753ZM193.256 82.63l17.039-9.731c1.007-.573 1.821-.166 1.821.905a3.839 3.839 0 0 1-1.821 2.989l-17.039 9.731c-.999.573-1.813.166-1.813-.905a3.855 3.855 0 0 1 1.813-2.989Z" fill="#407BFF"/><path d="m193.255 82.63 17.04-9.73c1.006-.574 1.82-.167 1.82.904a3.824 3.824 0 0 1-.548 1.71c-.317.52-.753.958-1.272 1.28l-17.04 9.73c-.998.574-1.812.167-1.812-.904a3.83 3.83 0 0 1 .546-1.709c.315-.519.748-.958 1.266-1.28Z" fill="#fff" opacity=".7"/><path d="m192.685 89.53 11.687-6.642c.688-.39 1.242-.116 1.242.623-.03.414-.158.815-.374 1.172a2.665 2.665 0 0 1-.868.878l-11.687 6.643c-.688.39-1.242.108-1.242-.631.031-.413.159-.813.375-1.168a2.66 2.66 0 0 1 .867-.875Z" fill="#407BFF"/><path d="m192.685 89.531 11.687-6.642c.687-.39 1.241-.116 1.241.623-.03.414-.158.815-.374 1.171a2.661 2.661 0 0 1-.867.88l-11.687 6.642c-.688.39-1.242.108-1.242-.631a2.641 2.641 0 0 1 1.242-2.043Z" fill="#fff" opacity=".7"/><path d="M183.037 173.842c2.836-1.594 5.135-.29 5.135 2.906a11.093 11.093 0 0 1-1.512 4.976 11.226 11.226 0 0 1-3.623 3.759c-2.844 1.661-5.143.324-5.143-2.906a11.023 11.023 0 0 1 1.509-4.98 11.144 11.144 0 0 1 3.634-3.755ZM193.256 169.939l17.039-9.74c1.007-.572 1.821-.166 1.821.906a3.843 3.843 0 0 1-1.821 2.989l-17.039 9.739c-.999.573-1.813.166-1.813-.913a3.843 3.843 0 0 1 .548-1.704 3.88 3.88 0 0 1 1.265-1.277Z" fill="#407BFF"/><path d="m193.255 169.94 17.04-9.74c1.006-.573 1.82-.166 1.82.905a3.821 3.821 0 0 1-.548 1.71c-.317.52-.753.958-1.272 1.279l-17.04 9.74c-.998.573-1.812.166-1.812-.913a3.822 3.822 0 0 1 .548-1.704 3.876 3.876 0 0 1 1.264-1.277Z" fill="#fff" opacity=".7"/><path d="m192.685 176.831 11.687-6.642c.688-.391 1.242-.117 1.242.622a2.652 2.652 0 0 1-1.242 2.051l-11.687 6.643c-.688.39-1.242.108-1.242-.623a2.637 2.637 0 0 1 1.242-2.051Z" fill="#407BFF"/><path d="m192.685 176.83 11.687-6.642c.687-.391 1.241-.117 1.241.622a2.65 2.65 0 0 1-1.241 2.051l-11.687 6.643c-.688.39-1.242.108-1.242-.623a2.646 2.646 0 0 1 1.242-2.051Z" fill="#fff" opacity=".7"/><path d="m181.443 103.015 64.525-36.867c1.007-.573 1.82-.108 1.82 1.038v63.777a3.958 3.958 0 0 1-.533 1.777 3.999 3.999 0 0 1-1.287 1.345l-64.525 37.083c-1.007.573-1.813.108-1.813-1.038v-64.002a3.94 3.94 0 0 1 1.813-3.113Z" fill="#F5F5F5"/><path d="M205.127 117.62a1.598 1.598 0 0 0-1.508-.681 1.593 1.593 0 0 0-1.311 1.005l-22.652 42.579v9.607c0 1.146.839 1.611 1.812 1.038l64.525-36.892c.53-.342.971-.803 1.288-1.345a3.958 3.958 0 0 0 .533-1.777v-21.256l-12.258-21.547c-.679-1.204-1.627-1.13-2.122.158l-16.318 42.803-11.989-13.692Z" fill="#407BFF"/><path d="M205.127 117.62a1.598 1.598 0 0 0-1.508-.681 1.593 1.593 0 0 0-1.311 1.005l-22.652 42.579v9.607c0 1.146.839 1.611 1.812 1.038l64.525-36.892c.53-.342.971-.803 1.288-1.345a3.958 3.958 0 0 0 .533-1.777v-21.256l-12.258-21.547c-.679-1.204-1.627-1.13-2.122.158l-16.318 42.803-11.989-13.692Z" fill="#fff" opacity=".3"/><path d="M186.435 120.269c5.688-3.23 10.31-11.102 10.31-17.578 0-3.322-1.208-5.597-3.129-6.643l-12.173 6.95a3.98 3.98 0 0 0-1.284 1.342 3.933 3.933 0 0 0-.529 1.772v15.062c1.813.805 4.187.556 6.805-.905Z" fill="#407BFF"/><path d="M186.435 120.27c5.688-3.23 10.31-11.102 10.31-17.578 0-3.322-1.208-5.597-3.129-6.643L181.443 103a3.98 3.98 0 0 0-1.284 1.342 3.933 3.933 0 0 0-.529 1.772v15.062c1.813.805 4.187.556 6.805-.905Z" fill="#fff" opacity=".6"/><path d="m181.443 190.647 64.525-36.875c1.007-.572 1.82-.166 1.82.914a3.824 3.824 0 0 1-.55 1.706 3.879 3.879 0 0 1-1.27 1.275l-64.525 36.875c-1.007.572-1.813.166-1.813-.914.043-.603.23-1.188.545-1.706a3.845 3.845 0 0 1 1.268-1.275Z" fill="#407BFF"/><path d="m181.443 190.647 64.525-36.875c1.007-.573 1.82-.166 1.82.913a3.82 3.82 0 0 1-.55 1.706 3.86 3.86 0 0 1-1.27 1.275l-64.525 36.875c-1.007.573-1.813.166-1.813-.913.043-.604.23-1.188.545-1.706a3.845 3.845 0 0 1 1.268-1.275Z" fill="#fff" opacity=".6"/><path d="m181.443 198.436 64.525-36.85c1.007-.573 1.82-.166 1.82.914a3.82 3.82 0 0 1-.55 1.705 3.86 3.86 0 0 1-1.27 1.275l-64.525 36.875c-1.007.573-1.813.166-1.813-.913.04-.607.225-1.197.54-1.719a3.85 3.85 0 0 1 1.273-1.287Z" fill="#407BFF"/><path d="m181.443 198.436 64.525-36.85c1.007-.573 1.82-.166 1.82.913a3.82 3.82 0 0 1-.55 1.706 3.87 3.87 0 0 1-1.27 1.275l-64.525 36.875c-1.007.573-1.813.166-1.813-.914a3.837 3.837 0 0 1 1.813-3.005Z" fill="#fff" opacity=".6"/><path d="m191.393 68.3 46.034-26.28c1.41-.83 2.517-.15 2.517 1.453a5.474 5.474 0 0 1-.732 2.474 5.55 5.55 0 0 1-1.785 1.877l-46.026 26.205c-1.409.83-2.517.166-2.517-1.412.048-.864.3-1.704.736-2.454a5.55 5.55 0 0 1 1.773-1.864Z" fill="#FAFAFA"/><path d="m326.643 118.143 3.264 5.921-5.076 4.309-4.656-7.299 6.468-2.931Z" fill="#F28F8F"/><path d="M314.395 104.95c3.238 0 6.804 1.195 8.028 3.711l5.034 10.33s-2.861 4.151-7.399 3.852l-5.663-17.893Z" fill="#E0E0E0"/><path d="M326.392 124.985c.948-1.744 1.183-1.827 1.745-2.209.562-.382 4.018-.888 5.453-1.013 1.678-.141 2.29.166 1.821 1.603a71.958 71.958 0 0 1-4.732 10.511c-.453.59-.537 1.138-2.442 1.329-1.77.166-3.993.266-4.648.299-.654.033-1.56.207-.981-1.702a61.738 61.738 0 0 1 2.601-6.336c.73-1.586 1.183-2.482 1.183-2.482Z" fill="#407BFF"/><path d="M288.588 183.731c-.839-.415-1.317.598-2.047 1.411a6.015 6.015 0 0 0-1.435 2.126c-.176.955.705 2.491 1.678 3.321.973.831 2.097 1.437 2.45 3.263.091.839.419 1.634.948 2.296a4.505 4.505 0 0 0 2.039 1.441c2.097.897 4.908.606 5.872 0 1.125-.722.093-1.52-1.485-3.761-2.063-2.923-3.674-4.982-3.674-7.747l-4.346-2.35Z" fill="#263238"/><path d="m290.24 181.331-1.678 2.491a2.33 2.33 0 0 0-.398 1.752c.107.614.455 1.16.969 1.519l.05.042a2.603 2.603 0 0 0 1.716.326 2.584 2.584 0 0 0 1.531-.833l2.651-2.856-4.841-2.441Z" fill="#FFA8A7"/><path d="M321.4 133.305c.109 3.139-.789 15.818-2.978 21.423-2.19 5.605-3.457 9.092-4.145 10.263-.688 1.17-20.538 20.285-20.538 20.285s-3.356-.241-3.901-3.471c0 0 8.13-13.684 9.891-16.49 1.762-2.807 8.004-7.108 8.004-7.108l-.57-24.545 14.237-.357Z" fill="#37474F"/><path d="M291.994 130.25c0-.54 1.678-6.743 2.517-9.607l6.149 2.092-1.443 4.517-5.411 5.539a2.29 2.29 0 0 1-1.419-.913 2.238 2.238 0 0 1-.393-1.628ZM317.027 200.102l4.197-.945-1.39-6.048-4.197.945 1.39 6.048Z" fill="#FFA8A7"/><path d="M321.4 133.305h-20.135a68.581 68.581 0 0 0-.755 8.785c-.16 8.636 7.961 24.321 7.961 24.321a32.658 32.658 0 0 0 .521 10.453c1.778 6.875 6.628 18.525 6.628 18.525s3.045.423 4.547-1.312c0 0-2.685-23.639-3.407-29.692-.78-6.56-2.793-18.525-2.793-18.525a30.411 30.411 0 0 0 3.599-4.268 21.167 21.167 0 0 0 3.826-8.303" fill="#37474F"/><path d="M307.75 105.124c-3.86.922-9.12 2.117-10.638 6.252-1.519 4.135-3.709 11.467-3.709 11.467.839 1.453 5.496 2.657 7.115 1.818l.755-2.491v11.11c3.02 3.255 13.541 4.766 20.135 0v-20.758c0-3.321-1.862-7.307-7.005-7.597l-6.653.199Z" fill="#EBEBEB"/><path d="m301.273 122.195 1.938-6.036-1.938 8.735v-2.699Z" fill="#E0E0E0"/><path d="M306.298 88.16a2.329 2.329 0 0 0-1.896.665c-.839.83-.646 2.35 0 5.862l2.517.282-.621-6.808ZM320.989 87.147a4.018 4.018 0 0 0 1.543-.29c.772-.44.974.432.546 1.187a3.572 3.572 0 0 1-1.206 1.34 3.614 3.614 0 0 1-1.714.587c0-.108-.721-1.952-.721-1.952l1.552-.872Z" fill="#263238"/><path d="M307.481 94.969c-.369.224-.906-.49-1.367-.963a1.626 1.626 0 0 0-1.481-.534 1.624 1.624 0 0 0-1.238.965c-.763 1.595.974 3.72 1.997 4.418a1.789 1.789 0 0 0 2.089.182l.269 6.103a6.53 6.53 0 0 0 2.006 2.48 6.62 6.62 0 0 0 2.952 1.248c3.624.482 2.878-2.49 1.678-3.919v-2.217a8.76 8.76 0 0 0 2.76.133c.47-.124 1.594-1.469 2.324-2.98a13.417 13.417 0 0 0 .965-9.782c-1.3-5.463-7.232-5.63-10.764-3.43-3.532 2.201-2.19 8.296-2.19 8.296Z" fill="#FFA8A7"/><path d="M307.481 95.592c-.184 0-.898-1.171-1.367-1.586-.646-.582.184-5.813.184-5.813a3.558 3.558 0 0 1 .629-3.32c1.276-1.33 3.742-1.105 5.546-1.163 2.219.008 4.417-.43 6.46-1.287 2.567-1.105 2.76-1.23 3.071-.117.248.92.278 1.884.089 2.817a6.166 6.166 0 0 1-1.18 2.564l-.839 1.345s-.78.648-3.171.938c-2.391.291-6.469-.988-6.98-1.054-.697-.091-.839.573-1.217 2.391-.319 1.57-.587 4.276-1.225 4.285Z" fill="#263238"/><path d="m306.307 88.576-2.265-1.204a1.24 1.24 0 0 1 .72-.628 1.262 1.262 0 0 1 .957.063c.311.162.547.436.656.767.11.33.085.69-.068 1.002Z" fill="#263238"/><path d="M314.386 102.733a26.245 26.245 0 0 1-4.522-1.287 3.908 3.908 0 0 1-1.619-1.586c.177.678.491 1.313.923 1.868.838 1.088 5.218 1.885 5.218 1.885v-.88Z" fill="#F28F8F"/><path d="M314.495 94.853a.676.676 0 0 1-.192.481.693.693 0 0 1-.479.208.696.696 0 0 1-.481-.21.663.663 0 0 1-.19-.487.688.688 0 0 1 .671-.69.688.688 0 0 1 .671.698ZM313.782 92.337l-1.434.83a.822.822 0 0 1 .946-1.198.835.835 0 0 1 .488.368Z" fill="#263238"/><path d="m314.084 99.311 1.535.573a.835.835 0 0 1-.419.455.85.85 0 0 1-.621.044.845.845 0 0 1-.473-.434.826.826 0 0 1-.022-.638Z" fill="#F28F8F"/><path d="m320.486 92.894-1.309-.997a.848.848 0 0 1 1.141-.174.839.839 0 0 1 .331.55.816.816 0 0 1-.163.62ZM320.082 94.662a.676.676 0 0 1-.192.48.693.693 0 0 1-.479.209.698.698 0 0 1-.481-.211.663.663 0 0 1-.19-.487.688.688 0 0 1 .671-.69.698.698 0 0 1 .479.215.68.68 0 0 1 .192.484Z" fill="#263238"/><path d="m316.92 94.58-.629 3.951 2.206-.257-1.577-3.695Z" fill="#F28F8F"/><path d="m320.746 197.141-.135-.598c.437.083 2.324 3.18 4.195 4.525 2.047 1.47 3.818 2.342 4.732 3.006 1.225.889-.545 2.707-3.557 2.873-1.493.075-4.195-.373-5.034-1.162-.839-.789-1.443-2.093-2.114-2.657-.671-.565-2.005-1.063-2.467-1.785a5.265 5.265 0 0 1-.26-2.234c0-.781.059-1.661.327-1.619l.101.448a5.201 5.201 0 0 0 2.517.556c.73-.033 2.047-.19 1.695-1.353ZM316.24 160.365s-1.787-12.563-2.265-14.506a20.239 20.239 0 0 0 3.977-2.815 33.459 33.459 0 0 1-2.718 3.363l1.006 13.958ZM305.459 159.925s2.148 5.289 3.021 6.46c0 0-.218 4.036-.193 4.849l-1.124.972c-.03-1.826.139-3.649.503-5.439a32.621 32.621 0 0 1-2.207-6.842Z" fill="#263238"/><path d="M299.243 127.251s16.922 1.794 18.91 1.188c1.988-.606 4.656-2.558 6.057-3.388 1.401-.83 2.467-.88 2.467-.54 0 .341-1.225 2.192-1.502 2.965-.277.772 1.317.772 3.423.29 2.106-.481 2.945-1.66 3.49-.98.546.681-1.166 4.152-4.656 5.456-3.49 1.303-6.083.431-8.969.556-2.886.125-20.663 1.245-24.665 0a3.465 3.465 0 0 1 .211-1.883 3.5 3.5 0 0 1 1.173-1.496 12.804 12.804 0 0 1 4.061-2.168ZM205.429 207.254c.042-.54 1.074-6.352 1.779-9.607l6.904 2.093-1.107 4.558-5.739 5.497a2.287 2.287 0 0 1-1.434-.905 2.242 2.242 0 0 1-.403-1.636Z" fill="#FFA8A7"/><path d="M220.564 158.049h3.356c2.476 0 4.851.974 6.602 2.707a9.19 9.19 0 0 1 2.735 6.535v23.548h-22.031v-23.548c0-2.451.984-4.802 2.735-6.535a9.387 9.387 0 0 1 6.603-2.707Z" fill="#263238"/><path d="m238.828 195.04 3.264 5.92-5.084 4.301-4.648-7.298 6.468-2.923Z" fill="#F28F8F"/><path d="M226.58 181.838c3.238 0 6.804 1.196 8.029 3.712l5.033 10.329s-2.861 4.152-7.399 3.861l-5.663-17.902Z" fill="#455A64"/><path d="M229.197 284.276a29.307 29.307 0 0 0 3.742 4.085c.22.175.396.4.512.656.142.431.327 1.469-1.611 1.893-.983.213-2 .214-2.983.004a7.033 7.033 0 0 1-2.714-1.225c-1.418-1.129-1.25-3.113-2.559-4.417-.973-.955-2.29-1.329-3.02-2.491-.512-.83-.235-1.818.227-3.039.461-1.221.788-2.333 1.233-2.176l-.151.615c.461.971 3.356 1.586 4.774 1.121.762 1.7 1.614 3.36 2.55 4.974Z" fill="#263238"/><path d="M230.338 285.704c-.395-.457-.78-.922-1.141-1.429a34.226 34.226 0 0 1-1.989-3.794 3.371 3.371 0 0 1-.184-2.491l.956-3.197-5.034-1.146-1.09 4.476c-.235 1.021.512 2.034 1.879 3.512 1.368 1.478 2.945 4.733 4.195 5.655 1.25.921 2.274 1.013 2.911.697.638-.316.797-.606-.503-2.283Z" fill="#FFA8A7"/><path d="M215.656 287.09v-.706c.285.831 1.577 4.368 3.541 6.145 1.568 1.403 3.699 3.039 4.236 4.608.537 1.569-2.961 2.184-4.421 1.926a9.03 9.03 0 0 1-5.084-2.698c-.839-1.021-1.376-2.234-1.98-3.039-.604-.806-1.98-1.661-2.299-2.624a5.857 5.857 0 0 1 .277-2.574c.235-.83.478-1.818.78-1.744v.582a4.012 4.012 0 0 0 2.517.83c.688 0 2.441-.158 2.433-.706Z" fill="#263238"/><path d="m220.614 293.766-1.418-1.245a14.379 14.379 0 0 1-3.02-4.775 6.679 6.679 0 0 1-.52-2.582v-2.798h-4.95V287.04c.235 1.022 2.517 3.729 3.801 5.497a7.224 7.224 0 0 0 4.48 2.956c1.887.249 2.869-.332 1.627-1.727Z" fill="#FFA8A7"/><path d="M211.688 210.9c-3.835 8.303.142 37.539.142 37.539-.117 1.354-1.678 4.002-2.248 9.964-.688 7.008 1.074 24.594 1.074 24.594a5.385 5.385 0 0 0 5.033.2s4.724-26.496 5.613-33.463l2.836-22.352 4.195 21.813a27.585 27.585 0 0 0-2.769 5.447c-.998 3.08-3.02 20.633-3.02 20.633a6.078 6.078 0 0 0 2.385 1.33 6.13 6.13 0 0 0 2.733.157s9.69-24.08 10.126-28.995c.26-2.948-4.086-38.046-4.086-38.046l-22.014 1.179Z" fill="#37474F"/><path d="m224.104 227.348.672-4.799s5.277-1.079 7.668-3.321a13.665 13.665 0 0 1-6.234 4.102l-.704 4.633.839 10.736-2.241-11.351Z" fill="#263238"/><path d="M218.5 182.062a9.76 9.76 0 0 0-3.856 1.901 9.637 9.637 0 0 0-2.646 3.364 8.224 8.224 0 0 0-.235 6.277l3.381 9.823s-1.602 3.844-3.473 7.473c8.616 4.757 19.363 2.258 21.956-1.213.109-.739-.042-4.06.168-7.83.218-4.027.78-8.577.142-11.06-1.191-4.625-3.414-8.959-7.836-8.959l-7.601.224Z" fill="#455A64"/><path d="M217.183 182.062c-2.936.407-7.249.997-8.742 7.905-1.493 6.909-1.938 9.441-1.938 9.441a9.767 9.767 0 0 0 3.351 2.129 9.865 9.865 0 0 0 3.931.628l1.519-5.314 1.879-14.789Z" fill="#455A64"/><path d="M218.852 187.891a3.891 3.891 0 0 1-2.728-1.119 3.795 3.795 0 0 1-1.131-2.7v-11.118h3.859v14.937Z" fill="#263238"/><path d="M229.642 162.458c1.166.681 2.601 3.579 2.458 9.649-.117 5.148-1.804 6.427-2.651 6.792-.847.365-2.475.141-4.061-.125v3.089s2.19 2.491 2.056 3.944c-.134 1.453-3.172 1.752-5.227.366a13.364 13.364 0 0 1-3.356-3.488v-7.473a1.999 1.999 0 0 1-2.138.637 1.985 1.985 0 0 1-.689-.371c-1.754-1.154-1.821-4.002-.797-4.982 1.023-.98 3.213-.697 3.624.714a12.595 12.595 0 0 0 5.873-1.744 9.418 9.418 0 0 0 3.307-2.918 9.3 9.3 0 0 0 1.601-4.09Z" fill="#FFA8A7"/><path d="M226.294 170.82a.642.642 0 0 1-.391.6.66.66 0 0 1-.9-.443.642.642 0 0 1 .248-.671.67.67 0 0 1 .355-.126.667.667 0 0 1 .688.64Z" fill="#263238"/><path d="m226.47 175.178 1.519.482a.766.766 0 0 1-.378.48.794.794 0 0 1-.612.06.835.835 0 0 1-.471-.406.824.824 0 0 1-.058-.616Z" fill="#F28F8F"/><path d="m231.655 168.826-1.317-.905a.774.774 0 0 1 1.099-.224.825.825 0 0 1 .218 1.129ZM231.353 170.346a.66.66 0 0 1-.163.48.677.677 0 0 1-.458.226.685.685 0 0 1-.474-.182.672.672 0 0 1-.177-.708.66.66 0 0 1 .336-.368.658.658 0 0 1 .873.307c.037.077.059.16.063.245Z" fill="#263238"/><path d="m228.266 169.981.109 3.894 2.072-.639-2.181-3.255ZM225.388 178.774c-1.678-.216-5.118-1.195-5.655-2.541a3.46 3.46 0 0 0 1.209 1.719c1.023.872 4.446 1.86 4.446 1.86v-1.038Z" fill="#F28F8F"/><path d="M238.568 201.873c.948-1.743 1.183-1.818 1.754-2.2.57-.382 4.018-.897 5.453-1.021 1.678-.142 2.29.166 1.821 1.61a73.072 73.072 0 0 1-4.766 10.504c-.453.598-.545 1.146-2.441 1.329-1.896.182-4.002.265-4.656.307-.655.041-1.561.199-.974-1.711a62.864 62.864 0 0 1 2.593-6.335c.763-1.569 1.216-2.483 1.216-2.483Z" fill="#407BFF"/><path d="M213.005 204.332s15.345 1.602 17.333.996c1.988-.606 4.656-2.574 6.091-3.387 1.435-.814 2.467-.881 2.467-.548 0 .332-1.225 2.2-1.511 2.964-.285.764 1.326.772 3.423.29 2.098-.481 2.945-1.66 3.499-.979.554.681-1.166 4.151-4.656 5.455-3.49 1.304-6.083.44-8.969.556-2.886.116-19.414 1.395-23.416.15a3.474 3.474 0 0 1 1.385-3.38 12.287 12.287 0 0 1 4.354-2.117Z" fill="#FFA8A7"/><path d="M214.112 200.429a50.898 50.898 0 0 0 1.678-5.389s-.277 4.01-1.418 6.161l-.26-.772Z" fill="#37474F"/><path d="m89.953 151.051-2.727 5.828 5.076 4.302 4.388-7.332-6.737-2.798Z" fill="#F28F8F"/><path d="M102.47 137.715c-3.238 0-6.804 1.204-8.028 3.711-1.225 2.508-5.034 10.338-5.034 10.338s2.86 4.152 7.4 3.853l5.662-17.902Z" fill="#37474F"/><path d="M116.514 230.206h-4.48v6.451h4.48v-6.451ZM100.763 222.223l-4.477.152.224 6.448 4.477-.152-.224-6.448Z" fill="#FFA8A7"/><path d="M116.213 167.216c0 4.235.553 31.603.553 31.603.109 1.212 1.259 3.462 1.007 8.137-.335 6.352-.889 23.996-.889 23.996s-2.098 2.059-5.034 0c0 0-4.061-23.98-4.858-30.274-.704-5.488-1.887-20.409-1.887-20.409l-4.153 17.561s.73 4.152.898 7.042c.167 2.889-.764 19.753-.764 19.753a4.948 4.948 0 0 1-4.874.183s-3.591-24.594-4.053-27.227c-.461-2.632 3.147-30.365 3.147-30.365h20.907Z" fill="#37474F"/><path d="M109.476 137.914h.067a8.89 8.89 0 0 1 4.843 3.128 8.73 8.73 0 0 1 1.869 5.416v20.759c-3.138 3.379-14.078 4.982-20.975 0v-21.589c0-3.446 1.938-7.597 7.283-7.905l6.913.191Z" fill="#455A64"/><path d="M110.986 120.253a2.422 2.422 0 0 1 1.971.689c.839.831.672 2.45 0 6.095l-2.617.299.646-7.083ZM95.708 119.24a4.23 4.23 0 0 1-1.636-.323c-.839-.457-1.015.448-.579 1.228a3.71 3.71 0 0 0 1.26 1.394 3.76 3.76 0 0 0 1.785.607c0-.107.747-2.017.747-2.017l-1.577-.889Z" fill="#263238"/><path d="M109.752 127.336c.395.233.948-.506 1.427-1.005a1.698 1.698 0 0 1 2.319-.216c.225.178.4.409.508.673.839 1.661-1.015 3.869-2.072 4.592a1.878 1.878 0 0 1-2.182.191l-.277 6.343a6.769 6.769 0 0 1-2.087 2.581 6.874 6.874 0 0 1-3.072 1.297c-3.767.507-2.987-2.566-1.754-4.077v-2.308a9.011 9.011 0 0 1-2.86.149c-.495-.133-1.678-1.536-2.425-3.105-.84-1.76-2.257-4.882-.999-10.172 1.351-5.687 7.551-5.862 11.192-3.57 3.641 2.292 2.282 8.627 2.282 8.627Z" fill="#FFA8A7"/><path d="M109.752 127.984c.202 0 .94-1.213 1.427-1.661.671-.606-.193-6.078-.193-6.078s.679-2.068-.646-3.446c-1.326-1.378-3.901-1.146-5.781-1.212a16.985 16.985 0 0 1-6.712-1.337c-2.667-1.146-2.869-1.279-3.196-.125a6.373 6.373 0 0 0 1.133 5.597l1.325.481s.713.631 3.205.93c2.298.169 4.606.127 6.896-.124.722-.1.839.589 1.267 2.491.336 1.66.621 4.475 1.275 4.484Z" fill="#263238"/><path d="m110.977 120.685 2.358-1.254a1.274 1.274 0 0 0-.764-.668 1.29 1.29 0 0 0-1.015.087 1.397 1.397 0 0 0-.66.803 1.38 1.38 0 0 0 .081 1.032Z" fill="#263238"/><path d="M102.571 135.407a26.408 26.408 0 0 0 4.707-1.337 3.964 3.964 0 0 0 1.677-1.661 5.367 5.367 0 0 1-.956 1.943c-.889 1.129-5.437 1.96-5.437 1.96l.009-.905Z" fill="#F28F8F"/><path d="M103.41 126.472a.689.689 0 0 0 .448.633.707.707 0 0 0 .95-.525.7.7 0 0 0-.702-.822.712.712 0 0 0-.696.714ZM104.148 123.865l1.502.831a.892.892 0 0 0-.353-1.18.841.841 0 0 0-.649-.065.835.835 0 0 0-.5.414Z" fill="#263238"/><path d="m103.46 131.164-1.594.598a.843.843 0 0 0 1.082.523.875.875 0 0 0 .512-1.121Z" fill="#F28F8F"/><path d="m97.176 124.438 1.35-1.046a.84.84 0 0 0-1.19-.183.894.894 0 0 0-.16 1.229ZM97.596 126.281a.703.703 0 0 0 .2.499c.13.134.309.211.496.215a.72.72 0 0 0 .705-.722.689.689 0 0 0-.176-.542.704.704 0 0 0-.525-.231.71.71 0 0 0-.524.231.694.694 0 0 0-.176.542v.008Z" fill="#263238"/><path d="m101.161 125.626-.235 4.16-2.19-.739 2.425-3.421Z" fill="#F28F8F"/><path d="M112.034 234.465v-.639c-.427.183-1.426 3.944-3.196 5.547-1.418 1.27-3.356 2.748-3.834 4.151-.478 1.404 2.685 2.292 4.002 2.06 1.535-.266 4.195-1.337 4.857-2.325.663-.988.982-2.45 1.519-3.181.537-.73 1.795-1.536 2.089-2.374a5.336 5.336 0 0 0-.26-2.325c-.21-.781-.428-1.661-.696-1.569v.481a3.535 3.535 0 0 1-2.241.747c-.646.05-2.248-.074-2.24-.573ZM96.471 227.449c-.234 0-.428.332-.94.88a9.593 9.593 0 0 1-2.634 1.877c-1.678.83-4.933 2.109-6.41 2.765-.914.415-.838 1.511.076 2.142.915.631 3.255 1.079 6.016.465 1.501-.332 3.465-1.702 4.698-1.661 1.233.042 3.557.058 4.472-.565.914-.622.553-1.959.293-3.105-.26-1.146-.688-3.155-1.107-3.072v.39c-.537.83-3.28 1.138-4.464.548v-.664Z" fill="#263238"/><path d="M90.481 157.76c-.948-1.752-1.183-1.827-1.753-2.209-.57-.382-4.019-.897-5.453-1.013-1.678-.141-2.29.166-1.821 1.602a73.59 73.59 0 0 0 4.732 10.512c.453.59.545 1.138 2.441 1.321 1.896.182 4.002.265 4.656.307.655.041 1.56.199.974-1.711a63.667 63.667 0 0 0-2.593-6.335c-.688-1.569-1.183-2.474-1.183-2.474Z" fill="#407BFF"/><path d="M124.871 163.023c-.042-.548-1.678-6.742-2.517-9.606l-6.142 2.092 1.443 4.509 5.403 5.538a2.272 2.272 0 0 0 1.418-.908 2.23 2.23 0 0 0 .395-1.625Z" fill="#FFA8A7"/><path d="M117.63 160.017s-16.93 1.794-18.918 1.188c-1.989-.607-4.657-2.574-6.091-3.388-1.435-.814-2.467-.88-2.467-.54 0 .341 1.225 2.192 1.51 2.956.285.764-1.325.772-3.423.291-2.097-.482-2.945-1.661-3.498-.98-.554.681 1.166 4.152 4.656 5.455 3.49 1.304 6.082.44 8.969.556 2.886.117 20.663 1.246 24.665 0a3.447 3.447 0 0 0-.211-1.878 3.478 3.478 0 0 0-1.173-1.493 12.954 12.954 0 0 0-4.019-2.167Z" fill="#FFA8A7"/><path d="M110.894 138.388c2.659.872 7.936 1.312 9.639 7.008 1.703 5.696 2.559 9.391 2.559 9.391-1.007 1.328-5.034 2.865-6.879 2.292l-5.319-18.691Z" fill="#455A64"/><path d="m116.213 157.079-1.821-6.394 1.821 9.001v-2.607Z" fill="#37474F"/><path d="M78.024 170.512c-.084.108-.797 1.279-.797 1.279l-3.28 4.65-3.197 4.741a.834.834 0 0 1-.412.312.852.852 0 0 1-.52.012l-.218-.075c-1.107-.407-2.768-1.096-4.975-2.101-1.77-.83-1.678-1.071-1.678-1.37a3.687 3.687 0 0 1 0-.714c.361-.681 1.477-2.383 2.979-4.533 2.668-3.836 3.951-5.539 4.748-6.643a.838.838 0 0 1 .474-.327.851.851 0 0 1 .575.053c1.435.473 4.346 1.711 5.873 2.325h.067c.822.44.37 2.358.36 2.391Z" fill="#407BFF"/><path d="m78.108 170.362-.84 1.428-3.204 4.742-3.356 4.624a.844.844 0 0 1-.931.324l-.219-.074c-1.107-.407-2.768-1.096-4.975-2.101-1.77-.83-1.677-1.071-1.677-1.37a3.687 3.687 0 0 1 0-.714c1.677.73 6.988 3.221 7.164 3.13.42-.199 4.019-5.912 5.932-8.826.956-1.453 1.384-2.068 1.678-2.566a.547.547 0 0 0-.118-.83h-.067a1.346 1.346 0 0 1 .713.988 1.273 1.273 0 0 1-.1 1.245Z" fill="#407BFF"/><path opacity=".1" d="m78.108 170.362-.84 1.428-3.204 4.742-3.356 4.624a.844.844 0 0 1-.931.324l-.219-.074c-1.107-.407-2.768-1.096-4.975-2.101-1.77-.83-1.677-1.071-1.677-1.37a3.687 3.687 0 0 1 0-.714c1.677.73 6.988 3.221 7.164 3.13.42-.199 4.019-5.912 5.932-8.826.956-1.453 1.384-2.068 1.678-2.566a.547.547 0 0 0-.118-.83h-.067a1.346 1.346 0 0 1 .713.988 1.273 1.273 0 0 1-.1 1.245Z" fill="#000"/><path d="m70.716 167.157 5.89 2.441-6.276 9.234-5.856-2.666 6.242-9.009Z" fill="#FAFAFA"/><path d="M69.064 199.333c1.61-.457 4.044-6.385 5.873-13.111 1.829-6.726 2.793-8.212 2.852-10.329.059-2.118-.092-4.899-.092-4.899l-3.188 4.608a8.243 8.243 0 0 0-.84-2.549c-.41-.83-1.182-1.486-1.811-.988-.336.266.553 1.403.36 3.944a13.146 13.146 0 0 0 .302 3.014l-5.923 14.199 2.467 6.111Z" fill="#FFA8A7"/><path d="M45.228 169.889c-1.87-.523-3.456.465-4.337 3.413a114.157 114.157 0 0 0-3.356 16.922c-.252 2.051-.537 4.542 1.443 4.733 1.51.149 5.873-.681 6.636-1.428 1.024-.98.84-4.932.84-4.932h-2.266s.487-3.114.63-4.061c.503-3.18 1.25-7.19 1.25-7.19l-.84-7.457Z" fill="#F28F8F"/><path d="m56.21 166.974-.763 6.651-6.628.764.957-8.827 6.435 1.412Z" fill="#FFA8A7"/><path d="M42.024 157.268c.545-6.144 3.91-8.668 6.51-9.283 5.252-1.22 10.437.523 12.584 4.152a9.05 9.05 0 0 1 0 7.191c-1.14 2.574-19.07-2.076-19.07-2.076" fill="#263238"/><path d="M61.446 160.573s.948 2.532.696 2.723a3.727 3.727 0 0 1-1.233.216l.537-2.939Z" fill="#FFA8A7"/><path d="M58.618 152.568c1.25 1.063 3.356 2.989 2.794 8.303-.62 5.497-1.963 6.983-2.869 7.515-.604.357-3.28-.266-4.522-.988-1.544-.906-4.967-3.239-6.007-6.386-1.233-3.703-.613-8.12 2.089-9.274a8.917 8.917 0 0 1 4.366-.671 8.901 8.901 0 0 1 4.15 1.501Z" fill="#FFA8A7"/><path d="M60.162 152.71a9.694 9.694 0 0 1-.901 4.261 9.794 9.794 0 0 1-2.681 3.453s-.78-2.002-2.517-1.545c-1.737.457-1.678 2.724-.436 3.952a2.537 2.537 0 0 0 2.61.706 7.513 7.513 0 0 1-2.124 4.152 9.96 9.96 0 0 1-5.445-.292 9.866 9.866 0 0 1-4.455-3.112c-3.834-4.559-2.701-11.799 3.29-13.933a12.105 12.105 0 0 1 6.677-.649 12.026 12.026 0 0 1 5.982 3.007ZM48.022 267.038l2.86 3.936a9.567 9.567 0 0 1-4.152.83c-2.559.1-3.264-.731-3.356-.93-.436-.922.243-2.574.428-3.994l4.22.158Z" fill="#263238"/><path d="M50.707 269.072s3.465-.224 5.873-.523c2.407-.299 4.295.83 3.733 1.835-.562 1.005-1.888 1.793-3.943 2.491-1.754.589-3.868 1.013-5.705 1.553-1.838.539-3.088 1.204-4.153.83-1.191-.407-1.678-.88-1.603-1.735.26-1.22.582-2.425.965-3.612l4.833-.839Z" fill="#263238"/><path d="M43.374 263.068s.428 3.571.462 4.343c.034.772 3.524 1.013 4.195-.39l.109-4.368-4.766.415Z" fill="#F28F8F"/><path d="m46.89 265.269-1.217 5.422s-.126.656 2.735 1.079c2.861.423 7.324-1.478 8.088-1.86.763-.382.839-1.154-1.955-1.005-2.794.15-3.792.166-3.792.166l.914-2.408-4.773-1.394Z" fill="#FFA8A7"/><path d="M43.374 192.682c-2.39 3.678-4.656 6.917-5.142 11.052-1.024 8.735 2.332 18.715 3.045 25.175a11.61 11.61 0 0 0-2.257 6.302c0 2.674 4.354 27.858 4.354 27.858s3.163.955 4.758-.415l2.995-46.332-1.578-5.638-6.175-18.002Z" fill="#455A64"/><path d="m51.126 216.321-1.577-5.638a38.437 38.437 0 0 1-8.532-3.321s1.619 2.906 6.241 4.5l2.408 7.249.21 16.606 1.25-19.396Z" fill="#37474F"/><path d="M43.374 192.682c-1.275 2.059-4.337 5.597-3.683 8.984.789 4.152 3.02 7 9.858 9.018l6.41 22.975s-3.356 3.097-4.354 6.036c-.999 2.94-4.715 25.574-4.715 25.574s1.14 1.844 4.748 1.395c0 0 12.585-28.389 13.424-30.215a9.112 9.112 0 0 0 1.065-6.17c-.403-2.972-4.681-35.538-4.681-35.538l-18.072-2.059Z" fill="#455A64"/><path d="M42.208 171.949a3.162 3.162 0 0 1 1.373-1.613 3.215 3.215 0 0 1 2.092-.397c4.472 1.204 11.427 2.79 12.744 3.172 0 0-.596 8.527 4.555 11.533-.243 1.902-1.552 10.097-1.552 10.097s-6.191 2.973-11.284 1.511c-5.092-1.461-6.804-3.57-6.804-3.57l2.517-4.11c-.545-1.337-2.651-5.879-4.01-10.097a12.223 12.223 0 0 1 .369-6.526Z" fill="#FAFAFA"/><path d="M45.228 186.953a45.156 45.156 0 0 0 6.636 3.246 12.595 12.595 0 0 1-5.94-1.66l-.696-1.586ZM62.864 184.005a9.192 9.192 0 0 1-4.287-3.985 8.756 8.756 0 0 0 1.365 3.785 8.867 8.867 0 0 0 2.922 2.791v-2.591Z" fill="#E0E0E0"/><path d="M58.459 173.111c2.81.83 4.556 1.096 6.074 2.441 1.997 1.777 4.06 11.824 4.48 13.9.73 3.595 1.535 7.332.747 9.009-.57 1.212-3.675 2.117-5.034-1.802-.285-.83-.344-1.212-.596-1.959-1.283-3.753-3.213-10.928-3.213-10.928s-3.8-2.075-2.458-10.661Z" fill="#FFA8A7"/><path d="M44.834 150.352c-.999.573-2.802 1.129-3.927 6.319a78.677 78.677 0 0 0-1.627 13.218c.042 1.611 3.414 6.087 10.529 5.663 7.114-.423 9.698-4.55 9.698-4.55s-3.498-1.412-3.221-7.473c0 0-1.234 2.4-4.615 1.196-3.38-1.204-6.837-14.373-6.837-14.373Z" fill="#263238"/></svg>