<svg width="63" height="15" fill="none" xmlns="http://www.w3.org/2000/svg"><path d="M8.134 5.05a4.983 4.983 0 0 1 2.284 2.877l.137.557a4.996 4.996 0 0 1-3.627 5.727 5.009 5.009 0 0 1-6.009-3.145l-.162-.548a4.995 4.995 0 0 1 1.89-5.156 5.007 5.007 0 0 1 5.487-.313Z" fill="#fff"/><path d="M.92 6.677a5.422 5.422 0 0 0 1.618 7.172 5.436 5.436 0 0 0 7.287-1.02l1.67.255a.316.316 0 0 0 .361-.336.314.314 0 0 0-.07-.173l-1.06-1.312a5.422 5.422 0 0 0-2.79-6.803A5.437 5.437 0 0 0 .92 6.677Zm7.206-1.634a4.986 4.986 0 0 1 2.29 2.875l.136.556a4.995 4.995 0 0 1-3.617 5.73 5.009 5.009 0 0 1-6.013-3.13l-.164-.55A4.996 4.996 0 0 1 2.64 5.367a5.01 5.01 0 0 1 5.485-.324Z" fill="#455A64"/><path d="M4.87 12.254a.792.792 0 0 1-.575-.248l-1.779-1.9A.786.786 0 1 1 3.67 9.033l1.155 1.234 2.73-3.461a.786.786 0 0 1 1.232.971l-3.3 4.187a.787.787 0 0 1-.583.298l-.033-.008Z" fill="#BA68C8"/><path d="M58.78 1.211a5 5 0 0 0-3.678.037l-.524.244a4.999 4.999 0 0 0-2.19 6.423 5 5 0 0 0 6.238 2.685l.524-.219a5.002 5.002 0 0 0 2.825-4.71 4.996 4.996 0 0 0-3.208-4.46h.012Z" fill="#fff"/><path d="M58.94.818a5.446 5.446 0 0 0-6.636 2.289h-1.687a.317.317 0 0 0-.213.55l1.247 1.133a5.421 5.421 0 0 0 2.093 5.453 5.435 5.435 0 0 0 7.988-1.748A5.422 5.422 0 0 0 58.934.818h.006Zm2.71 6.871a4.982 4.982 0 0 1-2.497 2.697l-.524.22a5.009 5.009 0 0 1-6.225-2.7 4.995 4.995 0 0 1 2.193-6.416l.524-.244a5.01 5.01 0 0 1 5.376 1.086 5 5 0 0 1 1.153 5.357Z" fill="#455A64"/><path d="M56.224 8.763a.79.79 0 0 1-.573-.246L53.866 6.62a.785.785 0 0 1 1.144-1.075l1.16 1.221 2.727-3.466a.784.784 0 0 1 1.235.968L56.84 8.456a.789.789 0 0 1-.583.3l-.033.007Z" fill="#BA68C8"/></svg>