<svg width="10" height="8" fill="none" xmlns="http://www.w3.org/2000/svg"><path d="M3.692.292a4.31 4.31 0 0 0-1.97 1.46 3.762 3.762 0 0 0-.75 2.214c-.006.79.244 1.564.72 2.224A4.296 4.296 0 0 0 3.64 7.672c.795.307 1.672.391 2.52.241A4.506 4.506 0 0 0 8.4 6.833a3.906 3.906 0 0 0 1.207-2.04 3.68 3.68 0 0 0-.234-2.309C8.936 1.505 8.092.724 7.027.314A4.743 4.743 0 0 0 3.692.292Zm.147.333A4.314 4.314 0 0 1 6.135.431c.769.145 1.474.495 2.026 1.007a3.546 3.546 0 0 1 1.074 1.866 3.35 3.35 0 0 1-.24 2.1 3.73 3.73 0 0 1-1.473 1.622 4.24 4.24 0 0 1-2.21.6 4.233 4.233 0 0 1-2.202-.625 3.719 3.719 0 0 1-1.451-1.64 3.354 3.354 0 0 1 .02-2.78C2.086 1.692 2.864.989 3.838.625Z" fill="#455A64"/><path d="M3.838.627a3.922 3.922 0 0 0-1.79 1.329 3.423 3.423 0 0 0-.683 2.016 3.417 3.417 0 0 0 .656 2.022 3.91 3.91 0 0 0 1.773 1.349 4.311 4.311 0 0 0 2.293.219 4.101 4.101 0 0 0 2.04-.984c.558-.505.94-1.15 1.098-1.855a3.349 3.349 0 0 0-.213-2.101C8.614 1.73 7.846 1.019 6.876.645A4.315 4.315 0 0 0 3.838.627Z" fill="#fff"/><path d="m.271 6.115 1.546-.023-.599-1.349-1.125.972a.227.227 0 0 0-.074.12.213.213 0 0 0 .013.136c.02.044.053.08.095.106a.27.27 0 0 0 .144.038ZM5.933 5.534H4.74a.095.095 0 0 1-.064-.024.08.08 0 0 1-.02-.026.075.075 0 0 1-.006-.032.081.081 0 0 1 .026-.059.096.096 0 0 1 .064-.024h1.194a.096.096 0 0 1 .064.025.081.081 0 0 1 .02.026c.004.01.006.021.006.032a.08.08 0 0 1-.026.058.095.095 0 0 1-.064.024ZM5.337 6.388a.72.72 0 0 1-.486-.185.603.603 0 0 1-.202-.445.08.08 0 0 1 .026-.058.095.095 0 0 1 .064-.024h1.194a.095.095 0 0 1 .064.024.08.08 0 0 1 .02.027c.004.01.006.02.006.031a.603.603 0 0 1-.201.445.72.72 0 0 1-.485.185Z" fill="#455A64"/><path d="M6.612 2.072a1.87 1.87 0 0 0-.63-.362 1.953 1.953 0 0 0-1.968.415 1.646 1.646 0 0 0-.527 1.144c-.005.3.076.594.236.855.16.261.392.48.673.631a.472.472 0 0 1 .18.163.42.42 0 0 1 .066.224.071.071 0 0 0 .022.053.085.085 0 0 0 .057.021H5.95a.085.085 0 0 0 .058-.022.071.071 0 0 0 .023-.052c.001-.078.024-.155.067-.222a.475.475 0 0 1 .177-.164c.278-.15.509-.363.669-.62a1.558 1.558 0 0 0 .095-1.508c-.099-.21-.244-.4-.426-.556Z" fill="#407BFF"/><path d="M6.612 2.073a1.87 1.87 0 0 0-.63-.362 1.953 1.953 0 0 0-1.968.416 1.646 1.646 0 0 0-.527 1.144c-.005.299.076.594.236.855.16.26.392.479.673.63a.472.472 0 0 1 .18.164.42.42 0 0 1 .066.223.071.071 0 0 0 .022.053.085.085 0 0 0 .057.021H5.95a.085.085 0 0 0 .058-.021.071.071 0 0 0 .023-.053c.001-.078.024-.154.067-.222a.475.475 0 0 1 .177-.163c.278-.15.509-.364.669-.62a1.558 1.558 0 0 0 .095-1.508c-.099-.21-.244-.4-.426-.557Z" fill="#fff" opacity=".35"/><path d="M6.359 3.646a.166.166 0 0 0-.068-.085.192.192 0 0 0-.11-.03.473.473 0 0 0-.19.063.427.427 0 0 0-.14.133l-.013.017h-.023a.978.978 0 0 1-.397-.239L5.4 3.489l.014-.021a.482.482 0 0 0 .112-.198.455.455 0 0 0 .006-.223.19.19 0 0 0-.075-.092.219.219 0 0 0-.238 0 .19.19 0 0 0-.075.092.464.464 0 0 0 .007.223c.02.072.058.14.11.198l.015.02-.018.017a.977.977 0 0 1-.396.239h-.024l-.013-.017a.428.428 0 0 0-.14-.133.473.473 0 0 0-.19-.063.192.192 0 0 0-.11.03.166.166 0 0 0-.068.085c-.01.029-.01.06.003.089a.136.136 0 0 0 .062.067c.074.041.16.061.246.057a.973.973 0 0 0 .144-.011h.023l.01.02c.042.07.077.143.103.219.093.315.128.643.105.968v.164h.096v-.171A2.783 2.783 0 0 0 5 4.058a1.38 1.38 0 0 0-.092-.206l-.016-.03.035-.012a1.084 1.084 0 0 0 .397-.237l.023-.022.024.022a1.06 1.06 0 0 0 .396.237l.036.012-.017.03a1.382 1.382 0 0 0-.092.205 2.786 2.786 0 0 0-.108.99v.166h.095v-.169a2.72 2.72 0 0 1 .104-.963 1.24 1.24 0 0 1 .103-.22l.01-.02h.024a.96.96 0 0 0 .143.012.465.465 0 0 0 .246-.057.133.133 0 0 0 .05-.068.122.122 0 0 0-.002-.082Zm-1.69.124h-.042a.393.393 0 0 1-.196-.04.058.058 0 0 1-.025-.026.051.051 0 0 1-.005-.033.08.08 0 0 1 .034-.042.093.093 0 0 1 .055-.014c.08.01.151.047.2.104l.048.046-.069.005Zm.666-.36-.027-.041a.361.361 0 0 1-.077-.302.092.092 0 0 1 .039-.05A.107.107 0 0 1 5.335 3a.109.109 0 0 1 .065.016c.02.012.033.03.04.05a.361.361 0 0 1-.077.302l-.028.042Zm.906.322a.4.4 0 0 1-.198.04H5.933l.048-.045a.313.313 0 0 1 .2-.104.094.094 0 0 1 .056.013c.016.01.028.025.034.042.01.028-.022.046-.03.054Z" fill="#FAFAFA"/></svg>