<svg width="13" height="11" fill="none" xmlns="http://www.w3.org/2000/svg"><path d="M5.365.376a5.402 5.402 0 0 0-2.461 1.876 4.927 4.927 0 0 0-.94 2.847 4.92 4.92 0 0 0 .9 2.859A5.39 5.39 0 0 0 5.3 9.864c.994.394 2.09.502 3.15.31a5.57 5.57 0 0 0 2.802-1.39 5.054 5.054 0 0 0 1.508-2.622 4.856 4.856 0 0 0-.293-2.968C11.92 1.934 10.866.932 9.535.404a5.775 5.775 0 0 0-4.17-.028Zm.185.428a5.251 5.251 0 0 1 2.869-.25 5.061 5.061 0 0 1 2.533 1.294 4.59 4.59 0 0 1 1.342 2.4 4.42 4.42 0 0 1-.3 2.699 4.75 4.75 0 0 1-1.841 2.086c-.82.509-1.781.777-2.763.771a5.182 5.182 0 0 1-2.752-.803 4.74 4.74 0 0 1-1.814-2.108 4.424 4.424 0 0 1 .024-3.575C3.36 2.176 4.331 1.272 5.55.804Z" fill="#455A64"/><path d="M5.548.806a4.916 4.916 0 0 0-2.239 1.709 4.483 4.483 0 0 0-.853 2.591c-.005.924.28 1.83.82 2.6A4.906 4.906 0 0 0 5.493 9.44a5.25 5.25 0 0 0 2.866.282 5.07 5.07 0 0 0 2.55-1.265 4.598 4.598 0 0 0 1.372-2.385 4.418 4.418 0 0 0-.265-2.701c-.498-1.147-1.458-2.06-2.671-2.542A5.254 5.254 0 0 0 5.548.806Z" fill="#fff"/><path d="m1.09 7.862 1.932-.03-.749-1.734-1.407 1.25a.294.294 0 0 0-.092.154.282.282 0 0 0 .016.175.302.302 0 0 0 .12.137.33.33 0 0 0 .18.048ZM8.167 7.115H6.673a.116.116 0 0 1-.079-.03.103.103 0 0 1 0-.15.112.112 0 0 1 .08-.032h1.493a.118.118 0 0 1 .08.031.105.105 0 0 1 .031.075.098.098 0 0 1-.032.075.11.11 0 0 1-.08.03ZM7.42 8.212a.887.887 0 0 1-.607-.237.785.785 0 0 1-.251-.572.098.098 0 0 1 .032-.074.11.11 0 0 1 .08-.03h1.493a.116.116 0 0 1 .079.03.103.103 0 0 1 .032.074c0 .215-.09.42-.25.572a.887.887 0 0 1-.607.237Z" fill="#455A64"/><path d="M9.015 2.664a2.323 2.323 0 0 0-.788-.466 2.407 2.407 0 0 0-2.46.534c-.407.396-.641.92-.658 1.471-.007.385.095.764.295 1.1.2.335.49.615.841.81.093.05.17.123.225.21a.551.551 0 0 1 .083.287.088.088 0 0 0 .028.068.099.099 0 0 0 .072.028h1.534c.026 0 .052-.01.071-.028a.093.093 0 0 0 .03-.068c.001-.1.03-.198.083-.285a.6.6 0 0 1 .221-.21c.348-.193.636-.467.837-.797a2.05 2.05 0 0 0 .119-1.939 2.163 2.163 0 0 0-.533-.715Z" fill="#407BFF"/><path d="M9.015 2.666a2.323 2.323 0 0 0-.788-.466 2.407 2.407 0 0 0-2.46.534c-.407.396-.641.92-.658 1.471-.007.385.095.764.295 1.1.2.335.49.615.841.81.093.05.17.123.225.21a.55.55 0 0 1 .083.287.087.087 0 0 0 .028.068.099.099 0 0 0 .072.028h1.534c.026 0 .052-.01.071-.028a.093.093 0 0 0 .03-.068c.001-.1.03-.198.083-.285a.6.6 0 0 1 .221-.21c.348-.193.636-.467.837-.797a2.051 2.051 0 0 0 .119-1.939 2.163 2.163 0 0 0-.533-.715Z" fill="#fff" opacity=".35"/><path d="M8.699 4.688a.213.213 0 0 0-.085-.11.235.235 0 0 0-.139-.038.58.58 0 0 0-.236.08.541.541 0 0 0-.174.171l-.017.022h-.03a1.208 1.208 0 0 1-.495-.307l-.023-.02.018-.028a.6.6 0 0 0 .147-.541.244.244 0 0 0-.093-.117.268.268 0 0 0-.298 0 .244.244 0 0 0-.094.117.613.613 0 0 0 .147.541l.019.027-.024.021a1.208 1.208 0 0 1-.495.307h-.029l-.017-.022a.541.541 0 0 0-.174-.17.58.58 0 0 0-.237-.081.235.235 0 0 0-.138.038.213.213 0 0 0-.085.11.161.161 0 0 0 .003.113.174.174 0 0 0 .078.087c.093.053.2.079.308.073.06 0 .12-.005.18-.014h.028l.013.026c.052.09.095.184.129.281.115.406.16.826.13 1.245v.21h.12v-.22a3.675 3.675 0 0 0-.135-1.273c-.031-.09-.07-.179-.115-.264l-.02-.038.044-.016a1.34 1.34 0 0 0 .495-.304l.029-.029.03.029a1.312 1.312 0 0 0 .495.304l.045.016-.02.038a1.801 1.801 0 0 0-.116.264 3.68 3.68 0 0 0-.135 1.274v.212h.119v-.217c-.03-.417.014-.835.13-1.239.033-.097.076-.191.128-.281l.014-.026h.029c.059.01.119.014.179.015a.568.568 0 0 0 .308-.074.17.17 0 0 0 .062-.087.161.161 0 0 0-.003-.105Zm-2.112.159h-.053a.48.48 0 0 1-.245-.053.074.074 0 0 1-.031-.032.068.068 0 0 1-.006-.043.103.103 0 0 1 .042-.054.113.113 0 0 1 .07-.017c.098.012.188.06.25.134l.059.058-.086.007Zm.832-.462-.034-.054a.493.493 0 0 1-.097-.388.118.118 0 0 1 .05-.064.131.131 0 0 1 .08-.02.133.133 0 0 1 .082.02.12.12 0 0 1 .05.064.477.477 0 0 1-.096.388l-.035.054Zm1.133.412a.487.487 0 0 1-.247.053H8.168l.059-.059a.388.388 0 0 1 .25-.134.115.115 0 0 1 .07.018c.02.013.034.032.042.054.012.035-.027.059-.037.068Z" fill="#FAFAFA"/></svg>