<svg width="180" height="180" fill="none" xmlns="http://www.w3.org/2000/svg"><path d="M28.157 20.778a14.923 14.923 0 0 0-1.438-6.459 14.449 14.449 0 0 0-4.066-5.129 13.874 13.874 0 0 0-5.849-2.731 13.651 13.651 0 0 0-6.416.233 13.949 13.949 0 0 0-5.649 3.15 14.54 14.54 0 0 0-3.706 5.41 14.96 14.96 0 0 0 .931 12.87l.042.053c.54.942 1.214 1.59 1.9 2.6l8.173 11.174c.237.325.543.588.895.77a2.473 2.473 0 0 0 2.267 0c.351-.182.658-.445.894-.77l8.012-10.99a31.59 31.59 0 0 0 2.042-2.784l.03-.04a14.797 14.797 0 0 0 1.938-7.357Zm-14.079 6.33a6.061 6.061 0 0 1-3.443-1.077 6.36 6.36 0 0 1-2.283-2.872A6.59 6.59 0 0 1 8 19.462a6.465 6.465 0 0 1 1.696-3.276 6.14 6.14 0 0 1 3.173-1.75 6.017 6.017 0 0 1 3.581.364 6.244 6.244 0 0 1 2.782 2.356 6.546 6.546 0 0 1 1.044 3.555c0 .84-.16 1.672-.47 2.449a6.412 6.412 0 0 1-1.344 2.076 6.185 6.185 0 0 1-2.011 1.387 6.026 6.026 0 0 1-2.373.486ZM180 108.922a6.56 6.56 0 0 0-.639-2.84 6.362 6.362 0 0 0-1.793-2.254 6.129 6.129 0 0 0-2.575-1.2 6.018 6.018 0 0 0-2.823.103 6.149 6.149 0 0 0-2.487 1.385 6.415 6.415 0 0 0-1.634 2.378 6.608 6.608 0 0 0-.444 2.88 6.55 6.55 0 0 0 .84 2.785v.024c.238.398.539.712.839 1.145l3.602 4.927c.104.143.24.26.395.34a1.091 1.091 0 0 0 1.001 0c.155-.08.291-.197.395-.34l3.54-4.843c.323-.393.624-.805.901-1.233v-.02a6.486 6.486 0 0 0 .882-3.237Zm-6.205 2.784c-.54 0-1.068-.166-1.517-.475-.449-.31-.8-.75-1.006-1.266a2.905 2.905 0 0 1-.156-1.629 2.855 2.855 0 0 1 .748-1.443 2.708 2.708 0 0 1 1.398-.772 2.653 2.653 0 0 1 1.578.161c.499.213.926.575 1.226 1.038a2.914 2.914 0 0 1 .253 2.647 2.832 2.832 0 0 1-.591.917 2.72 2.72 0 0 1-.887.613 2.656 2.656 0 0 1-1.046.217v-.008ZM158.595 159.452c6.068-6.264 6.068-16.421 0-22.686-6.068-6.264-15.907-6.264-21.975 0-6.068 6.265-6.068 16.422 0 22.686 6.068 6.265 15.907 6.265 21.975 0Z" fill="#F5F5F5"/><path d="M147.614 161.464a12.65 12.65 0 0 1-7.187-2.248 13.272 13.272 0 0 1-4.766-5.992 13.759 13.759 0 0 1-.738-7.716 13.497 13.497 0 0 1 3.54-6.838 12.804 12.804 0 0 1 6.622-3.655 12.55 12.55 0 0 1 7.474.759 13.032 13.032 0 0 1 5.806 4.918 13.666 13.666 0 0 1 2.18 7.419c-.003 3.54-1.366 6.934-3.79 9.437-2.425 2.504-5.712 3.912-9.141 3.916Zm0-24.42c-2.12 0-4.193.649-5.956 1.865a10.997 10.997 0 0 0-3.948 4.967 11.4 11.4 0 0 0-.61 6.394 11.182 11.182 0 0 0 2.934 5.666 10.616 10.616 0 0 0 5.489 3.029c2.079.427 4.235.208 6.193-.63a10.791 10.791 0 0 0 4.811-4.076 11.321 11.321 0 0 0 1.807-6.148c-.003-2.934-1.133-5.747-3.143-7.822s-4.735-3.242-7.577-3.245Z" fill="#fff"/><path d="M147.526 152.674a4.662 4.662 0 0 1-2.647-.829 4.887 4.887 0 0 1-1.755-2.209 5.063 5.063 0 0 1-.271-2.842 4.97 4.97 0 0 1 1.305-2.519 4.716 4.716 0 0 1 2.441-1.345 4.628 4.628 0 0 1 2.753.282 4.796 4.796 0 0 1 2.138 1.813c.523.809.802 1.761.801 2.734a5 5 0 0 1-1.397 3.476 4.692 4.692 0 0 1-3.368 1.439Zm0-7.556a2.5 2.5 0 0 0-1.417.444 2.618 2.618 0 0 0-.939 1.182 2.712 2.712 0 0 0-.145 1.52c.099.511.341.98.698 1.348.357.369.811.619 1.306.721a2.482 2.482 0 0 0 1.473-.15 2.566 2.566 0 0 0 1.144-.97 2.682 2.682 0 0 0-.321-3.317 2.51 2.51 0 0 0-1.799-.77v-.008Z" fill="#fff"/><path d="M147.527 147.762h-6.021l1.052 1.916-14.172 6.705.478.823 14.218-6.629.974 1.905 3.471-4.72Z" fill="#E0E0E0"/><path d="m128.386 156.381-.15-.151a2.854 2.854 0 0 0-1.313-.755 2.771 2.771 0 0 0-1.503.032l-5.651 1.698 3.147 1.427-1.263 3.472 5.304-1.933a2.902 2.902 0 0 0 1.425-1.148 3.053 3.053 0 0 0 .482-1.799l-.478-.843ZM59.813 159.746l.115-.039.336-.1 1.286-.398 4.819-1.395-.046.083c-.247-.855-.524-1.809-.817-2.835v-.044l.039-.036a15.81 15.81 0 0 0 3.359-4.079 11.39 11.39 0 0 0 1.124-2.784 8.358 8.358 0 0 0 .181-3.181 10.112 10.112 0 0 0-3.166-5.965 11.482 11.482 0 0 0-6.548-2.915 9.375 9.375 0 0 0-5.266 1.09 10.605 10.605 0 0 0-3.925 3.408 10.01 10.01 0 0 0-1.687 4.628c-.023.398-.081.796-.073 1.193.007.398.019.796.03 1.161.062.747.19 1.486.386 2.207.191.678.45 1.334.77 1.957.314.58.686 1.125 1.11 1.626.772.894 1.683 1.65 2.696 2.235a13.557 13.557 0 0 0 4.776 1.702h.027v.024l.385 1.805c.039.199.07.354.089.465l.03.163a.624.624 0 0 1-.038-.143l-.108-.453-.416-1.821.035.032a13.373 13.373 0 0 1-4.834-1.667 10.576 10.576 0 0 1-2.735-2.246 9.73 9.73 0 0 1-1.156-1.651 10.64 10.64 0 0 1-.809-1.988 13.03 13.03 0 0 1-.385-2.239l-.034-1.193c0-.397.05-.795.073-1.193.168-1.7.757-3.326 1.71-4.724a10.81 10.81 0 0 1 3.995-3.483 9.555 9.555 0 0 1 5.392-1.11 11.645 11.645 0 0 1 6.676 2.971 9.937 9.937 0 0 1 2.16 2.827c.147.256.276.521.386.796.119.257.22.522.3.795.081.278.17.549.243.823.073.274.096.561.146.839a8.59 8.59 0 0 1-.196 3.257 11.465 11.465 0 0 1-1.156 2.823 15.958 15.958 0 0 1-3.416 4.108l.027-.08.797 2.836.02.063-.062.02-4.873 1.336-1.283.346-.323.084-.166.059ZM66.998 159.75a28.173 28.173 0 0 1-3.347 1.062 28.178 28.178 0 0 1-3.405.847 29.639 29.639 0 0 1 3.347-1.058 28.791 28.791 0 0 1 3.405-.851ZM65.493 163.008a2.7 2.7 0 0 1-1.155.485 2.695 2.695 0 0 1-1.245.111c.386-.151.786-.26 1.194-.326a6.088 6.088 0 0 1 1.206-.27Z" fill="#E0E0E0"/><path d="M61.188 159.375a.454.454 0 0 1-.039-.112c-.023-.087-.05-.199-.089-.338-.077-.315-.184-.749-.323-1.3l-1.156-4.8a224.485 224.485 0 0 1-.77-3.312 2.239 2.239 0 0 0-.335-.819.553.553 0 0 0-.705-.243.837.837 0 0 0-.28.33.87.87 0 0 0-.082.43c.01.318.131.622.343.854.227.243.508.425.819.531.31.106.641.133.964.078.339-.053.659-.193.932-.406.273-.213.49-.493.632-.815.315-.67.394-1.432.223-2.155a1.94 1.94 0 0 0-.481-.974.754.754 0 0 0-.92-.132.82.82 0 0 0-.173.951c.168.324.415.598.715.795a3.783 3.783 0 0 0 1.973.839c.343.032.69-.021 1.009-.155.302-.145.566-.361.77-.632.206-.263.33-.585.355-.923a1.224 1.224 0 0 0-.293-.895.779.779 0 0 0-.347-.253.747.747 0 0 0-.423-.025.958.958 0 0 0-.364.244.996.996 0 0 0-.222.384c-.189.585-.023 1.237.046 1.838.185 1.193.385 2.33.59 3.352.385 2.036.72 3.686.947 4.843.108.561.197 1.002.258 1.316.023.144.046.255.062.346a.65.65 0 0 1 0 .12.533.533 0 0 1-.035-.116c-.023-.087-.05-.198-.085-.338-.073-.314-.169-.751-.296-1.308-.25-1.137-.609-2.784-1.013-4.831-.2-1.022-.42-2.144-.617-3.357-.042-.306-.092-.612-.123-.934a2.373 2.373 0 0 1 .077-.994c.055-.173.147-.33.269-.46.122-.13.271-.23.436-.292a.95.95 0 0 1 .99.33 1.428 1.428 0 0 1 .343 1.038c-.022.38-.156.744-.385 1.042-.23.303-.527.543-.867.7-.35.147-.729.207-1.105.175a4.031 4.031 0 0 1-2.08-.879 2.269 2.269 0 0 1-.77-.903.938.938 0 0 1 .248-1.203.868.868 0 0 1 1.184.142c.276.299.464.675.54 1.081a3.522 3.522 0 0 1-.243 2.303 2.35 2.35 0 0 1-.698.888c-.3.232-.65.385-1.02.444-.356.059-.72.027-1.06-.092a2.2 2.2 0 0 1-.897-.592 1.508 1.508 0 0 1-.385-.99c-.01-.184.028-.368.11-.531.083-.163.207-.3.36-.396a.672.672 0 0 1 .531-.028.89.89 0 0 1 .385.326c.176.271.3.573.366.891.274 1.193.528 2.306.77 3.324l1.08 4.808c.119.557.215.994.284 1.312.027.14.05.251.07.342a.384.384 0 0 1 0 .136ZM66.731 161.234c-.876.363-1.777.657-2.696.879-.905.291-1.83.514-2.766.668a18.333 18.333 0 0 1 2.697-.879c.905-.29 1.829-.513 2.765-.668Z" fill="#E0E0E0"/><path d="M171.439 179.603c0 .056-36.759.104-82.097.104-45.337 0-82.104-.048-82.104-.104 0-.055 36.751-.103 82.104-.103s82.097.044 82.097.103Z" fill="#263238"/><path d="M164.655 19.64H14.101v9.958h150.554V19.64Z" fill="#E0E0E0"/><path d="M164.628 38.746H14.074v87.165h150.554V38.746Z" fill="#fff"/><path d="M14.101 29.523h20.674l2.045-6.156h33.512l2.045 6.156h92.278v9.432H14.101v-9.432Z" fill="#EBEBEB"/><path d="M19.07 23.614c0 .232-.067.458-.192.65a1.142 1.142 0 0 1-.508.43 1.1 1.1 0 0 1-1.234-.253 1.204 1.204 0 0 1-.245-1.274c.085-.214.23-.396.417-.525a1.108 1.108 0 0 1 1.43.145 1.197 1.197 0 0 1 .33.828ZM22.573 23.614c0 .232-.066.458-.19.65a1.141 1.141 0 0 1-.509.43 1.1 1.1 0 0 1-1.234-.253 1.204 1.204 0 0 1-.245-1.274c.085-.214.23-.396.416-.525a1.108 1.108 0 0 1 1.432.145 1.17 1.17 0 0 1 .33.827ZM26.073 23.614c0 .232-.066.458-.19.65a1.141 1.141 0 0 1-.509.43 1.1 1.1 0 0 1-1.234-.253 1.204 1.204 0 0 1-.245-1.274c.085-.214.23-.396.416-.525a1.108 1.108 0 0 1 1.432.145 1.197 1.197 0 0 1 .33.828Z" fill="#263238"/><path d="M148.015 37.081H44.725c-.76 0-1.49-.312-2.027-.866a3.008 3.008 0 0 1-.84-2.092c0-.785.303-1.538.84-2.092a2.821 2.821 0 0 1 2.027-.867h103.29c.76 0 1.489.312 2.027.867a3.01 3.01 0 0 1 .839 2.092 3.01 3.01 0 0 1-.839 2.092 2.823 2.823 0 0 1-2.027.866Z" fill="#FAFAFA"/><path d="M47.194 34.513v1.002h-.49v-.922c0-.283-.126-.398-.342-.398-.216 0-.408.151-.408.47v.866h-.49v-2.425h.49v.843a.757.757 0 0 1 .539-.207.644.644 0 0 1 .527.214.688.688 0 0 1 .174.557ZM48.732 35.43a.67.67 0 0 1-.386.112.541.541 0 0 1-.463-.156.58.58 0 0 1-.168-.472v-.716h-.262V33.8h.262v-.425h.489v.425h.42v.398h-.42v.716a.212.212 0 0 0 .052.168.195.195 0 0 0 .16.063.31.31 0 0 0 .196-.068l.12.354ZM50.048 35.43a.685.685 0 0 1-.385.112.542.542 0 0 1-.464-.156.58.58 0 0 1-.168-.472v-.716h-.262V33.8h.262v-.425h.49v.425h.423v.398h-.424v.716a.214.214 0 0 0 .054.166.2.2 0 0 0 .158.065.32.32 0 0 0 .2-.068l.116.354ZM52.18 34.642a.871.871 0 0 1-.23.642.818.818 0 0 1-.613.257.641.641 0 0 1-.508-.21v.795h-.49V33.74h.478v.203a.648.648 0 0 1 .531-.227.798.798 0 0 1 .617.27.853.853 0 0 1 .216.656Zm-.496 0a.454.454 0 0 0-.09-.235.419.419 0 0 0-.657-.026.452.452 0 0 0-.078.48c.033.079.088.146.158.193a.421.421 0 0 0 .556-.07.444.444 0 0 0 .11-.342ZM52.388 34.056a.322.322 0 0 1 .101-.202.303.303 0 0 1 .41 0 .322.322 0 0 1 .089.334.321.321 0 0 1-.168.194.3.3 0 0 1-.355-.078.32.32 0 0 1-.077-.248Zm0 1.165a.322.322 0 0 1 .101-.201.303.303 0 0 1 .41 0 .322.322 0 0 1 .089.333.322.322 0 0 1-.168.194.3.3 0 0 1-.355-.078.32.32 0 0 1-.077-.248ZM54.204 32.781h.439l-1.04 3.058h-.436l1.037-3.058ZM55.212 32.781h.435L54.61 35.84h-.44l1.04-3.058Z" fill="#E0E0E0"/><path d="M147.921 54.42H57.928a5.001 5.001 0 0 1-3.593-1.537 5.332 5.332 0 0 1-1.488-3.708 5.336 5.336 0 0 1 1.49-3.708 5.005 5.005 0 0 1 3.591-1.537h89.993a5.007 5.007 0 0 1 3.592 1.537 5.339 5.339 0 0 1 1.489 3.708 5.331 5.331 0 0 1-1.488 3.709 5.001 5.001 0 0 1-3.593 1.536Z" fill="#FAFAFA"/><path d="M147.925 54.423a5.209 5.209 0 0 0 2.08-.485 5.148 5.148 0 0 0 1.691-1.294 5.35 5.35 0 0 0 1.044-1.887 5.487 5.487 0 0 0 .208-1.92 5.349 5.349 0 0 0-.57-2.076 5.223 5.223 0 0 0-1.514-1.782 4.916 4.916 0 0 0-2.33-.938c-.448-.04-.896-.053-1.345-.04h-14.341l-74.909.028a4.89 4.89 0 0 0-2.553.731 5.072 5.072 0 0 0-1.81 1.935 5.277 5.277 0 0 0 .13 5.189 5.048 5.048 0 0 0 1.903 1.835 5.033 5.033 0 0 0 2.5.597h25.107l33.678.024 22.726.032h8.316-8.316l-22.726.035-33.678.02H58.109a5.169 5.169 0 0 1-2.593-.62 5.284 5.284 0 0 1-2.307-2.545 5.508 5.508 0 0 1-.299-3.472 5.367 5.367 0 0 1 1.837-2.924 5.078 5.078 0 0 1 3.192-1.136l74.929.132h14.34c.454-.012.908.003 1.36.043.856.11 1.671.443 2.369.967a5.193 5.193 0 0 1 1.484 1.719c.365.68.579 1.434.627 2.21a5.6 5.6 0 0 1-.223 1.948 5.4 5.4 0 0 1-.771 1.531 5.14 5.14 0 0 1-2.022 1.682 5.117 5.117 0 0 1-1.541.426c-.381.035-.566.035-.566.035Z" fill="#263238"/><path d="m59.992 50.295.189-.437c.238.169.52.26.808.262.336 0 .47-.115.47-.27 0-.473-1.421-.147-1.421-1.086 0-.43.335-.795 1.032-.795.297-.006.59.071.848.223l-.174.445a1.336 1.336 0 0 0-.678-.199c-.335 0-.466.131-.466.29 0 .466 1.422.144 1.422 1.07 0 .422-.34.796-1.036.796a1.68 1.68 0 0 1-.994-.299ZM64.202 49.736h-1.421c.028.123.098.23.198.303.099.073.22.107.341.095a.622.622 0 0 0 .47-.19l.29.325c-.148.146-.331.247-.53.29-.2.045-.407.03-.599-.04a1.096 1.096 0 0 1-.487-.362 1.15 1.15 0 0 1-.23-.572 1.015 1.015 0 0 1 .292-.722.927.927 0 0 1 .71-.275.906.906 0 0 1 .705.279.965.965 0 0 1 .273.726c0 .036-.008.096-.012.143Zm-1.429-.33h.925a.489.489 0 0 0-.162-.285.461.461 0 0 0-.601 0 .488.488 0 0 0-.162.285ZM66.185 49.434v1.11h-.508V50.3a.625.625 0 0 1-.251.216.603.603 0 0 1-.323.054c-.44 0-.701-.254-.701-.588 0-.334.235-.58.805-.58h.435c0-.24-.142-.399-.435-.399a.882.882 0 0 0-.54.18l-.196-.398c.242-.16.523-.24.81-.235.558.024.904.298.904.883Zm-.543.497v-.199h-.385c-.254 0-.335.096-.335.227s.115.234.304.234a.395.395 0 0 0 .25-.059.414.414 0 0 0 .166-.203ZM67.85 48.572v.517h-.123a.45.45 0 0 0-.371.145.483.483 0 0 0-.126.388v.919h-.547V48.6h.52v.254a.75.75 0 0 1 .647-.282ZM68.02 49.572a1.03 1.03 0 0 1 .312-.736.964.964 0 0 1 .735-.262.837.837 0 0 1 .493.113c.15.088.27.22.347.38l-.424.234a.475.475 0 0 0-.173-.195.454.454 0 0 0-.247-.071.512.512 0 0 0-.368.157.546.546 0 0 0 0 .76c.098.1.23.156.368.156a.448.448 0 0 0 .248-.07.468.468 0 0 0 .172-.196l.424.239a.884.884 0 0 1-.348.376.844.844 0 0 1-.492.113.941.941 0 0 1-.735-.263 1.029 1.029 0 0 1-.312-.736ZM72.129 49.434v1.11h-.547v-1.027c0-.314-.139-.457-.386-.457-.246 0-.45.167-.45.525v.958h-.547v-2.676h.547v.939a.821.821 0 0 1 .597-.231.715.715 0 0 1 .591.236.765.765 0 0 1 .195.623ZM73.476 50.217c0-.093.036-.182.1-.247a.334.334 0 0 1 .479 0 .356.356 0 0 1 0 .495.334.334 0 0 1-.48 0 .356.356 0 0 1-.099-.248ZM74.39 50.217c.001-.069.022-.136.06-.193a.341.341 0 0 1 .152-.127.33.33 0 0 1 .368.078.354.354 0 0 1 .072.38.347.347 0 0 1-.125.157.332.332 0 0 1-.43-.044.348.348 0 0 1-.097-.25ZM75.304 50.217c0-.093.036-.182.1-.247a.334.334 0 0 1 .479 0 .356.356 0 0 1-.11.57.33.33 0 0 1-.37-.075.351.351 0 0 1-.099-.248Z" fill="#E0E0E0"/><path d="M42.366 63.54c0 .06-3.613.104-8.066.104-4.453 0-8.066-.044-8.066-.103 0-.06 3.61-.103 8.066-.103 4.457 0 8.066.055 8.066.103Z" fill="#000"/><path d="M42.998 68.313H26.234v17.305h16.764V68.313Z" fill="#FF725E"/><path d="M144.861 72.392c0 .056-20.8.104-46.47.104-25.669 0-46.474-.048-46.474-.104 0-.055 20.801-.103 46.474-.103 25.674 0 46.47.044 46.47.103ZM77.342 78.904c0 .06-5.485.104-12.245.104-6.76 0-12.25-.044-12.25-.104s5.482-.103 12.25-.103c6.767 0 12.245.047 12.245.103Z" fill="#000"/><path d="M130.01 84.947c0 .056-17.276.104-38.582.104-21.305 0-38.58-.048-38.58-.104 0-.056 17.271-.107 38.58-.107 21.309 0 38.582.048 38.582.107Z" fill="#E0E0E0"/><path d="M42.366 94.564c0 .056-3.613.104-8.066.104-4.453 0-8.066-.048-8.066-.104 0-.055 3.61-.103 8.066-.103 4.457 0 8.066.036 8.066.103Z" fill="#000"/><path d="M42.998 99.313H26.234v17.305h16.764V99.313Z" fill="#FF725E"/><path d="M150.385 103.389c0 .059-22.045.103-49.232.103-27.187 0-49.236-.044-49.236-.103 0-.06 22.041-.104 49.236-.104 27.195 0 49.232.048 49.232.104ZM77.342 109.9c0 .056-5.485.104-12.245.104-6.76 0-12.25-.048-12.25-.104 0-.055 5.482-.103 12.25-.103 6.767 0 12.245.048 12.245.103Z" fill="#000"/><path d="M143.445 115.943c0 .06-20.28.104-45.295.104s-45.303-.044-45.303-.104c0-.059 20.28-.103 45.303-.103 25.022 0 45.295.048 45.295.103Z" fill="#E0E0E0"/><path d="m164.654 126.122-.081-106.48.081.084H14.112l.1-.103v106.479l-.093-.095 150.554.095-150.554.092h-.092V19.52H164.762v.083c-.073 64.845-.108 105.835-.108 106.519Z" fill="#263238"/><path d="M66.263 27.357c0 .06-5.316.104-11.872.104s-11.872-.044-11.872-.104 5.316-.103 11.872-.103 11.872.048 11.872.103Z" fill="#000"/><path d="M44.847 46.934H23.76v6.557h21.086v-6.557Z" fill="#455A64"/><path d="M82.185 64.103c0 .06-6.549.104-14.638.104-8.089 0-14.637-.044-14.637-.104S59.458 64 67.547 64c8.09 0 14.638.048 14.638.103ZM82.185 94.564c0 .056-6.549.104-14.638.104-8.089 0-14.637-.048-14.637-.104 0-.055 6.548-.103 14.637-.103 8.09 0 14.638.036 14.638.103ZM145.981 50.921c-.485.001-.959-.147-1.363-.424a2.517 2.517 0 0 1-.904-1.135 2.599 2.599 0 0 1 .53-2.758c.343-.354.78-.595 1.256-.692a2.377 2.377 0 0 1 1.416.145c.448.191.83.516 1.099.933a2.594 2.594 0 0 1-.306 3.19 2.41 2.41 0 0 1-1.728.741Zm0-4.656c-.409 0-.808.123-1.148.357a2.114 2.114 0 0 0-.763.956c-.156.39-.198.818-.119 1.232.08.413.276.794.564 1.092a2.05 2.05 0 0 0 1.058.584c.4.083.815.041 1.193-.12.377-.161.7-.434.927-.785.227-.35.348-.763.348-1.185 0-.564-.217-1.106-.603-1.505-.386-.4-.91-.625-1.457-.626Z" fill="#FF725E"/><path d="M148.993 52.043a.195.195 0 0 1-.139-.06l-1.595-1.634a.204.204 0 0 1 0-.283.192.192 0 0 1 .211-.043c.024.01.045.025.063.043l1.595 1.635a.21.21 0 0 1 .039.216.199.199 0 0 1-.174.126Z" fill="#FF725E"/><path d="M108.552 78.463c0 .055-6.306.103-14.087.103-7.78 0-14.09-.048-14.09-.103 0-.056 6.31-.104 14.09-.104 7.781 0 14.087.044 14.087.104ZM126.757 78.01c0 .06-3.301.103-7.369.103s-7.373-.044-7.373-.103c0-.06 3.301-.104 7.373-.104 4.071 0 7.369.048 7.369.104ZM108.415 109.9c0 .056-6.306.104-14.087.104-7.78 0-14.086-.048-14.086-.104 0-.055 6.305-.103 14.086-.103 7.781 0 14.087.048 14.087.103Z" fill="#000"/><path d="M32.797 118.086c-3.128 1.67-5.523 4.549-7.245 7.718-1.722 3.17-2.835 6.641-3.933 10.113l-.963 17.803c3.636-6.387 6.548-13.894 7.342-21.259l-2.42-.223c1.622-.254 2.986-1.467 3.853-2.906.866-1.44 1.31-3.098 1.744-4.733l-2.95.454c2.335-1.629 3.973-4.124 4.572-6.967Z" fill="#455A64"/><path d="M32.794 118.085c-3.128 1.67-5.524 4.549-7.246 7.718-1.722 3.17-2.835 6.641-3.933 10.113l-.963 17.803c3.637-6.387 6.549-13.894 7.342-21.259l-2.419-.223c1.622-.254 2.985-1.467 3.852-2.906.867-1.44 1.31-3.098 1.745-4.732l-2.95.453c2.335-1.629 3.972-4.124 4.572-6.967Z" fill="#000" opacity=".3"/><path d="M20.116 157.866s-7.892-9.751-7.8-19.06h3.186s-3.467-2.354-3.19-3.67c.278-1.316.385-6.299.385-6.299l2.916.752s-2.188-1.13-2.461-2.915c-.273-1.786.64-10.065.64-10.065s3.55 3.858 4.645 7.806c1.094 3.949 3.944 8.558 3.104 20.595-.84 12.037-1.425 12.856-1.425 12.856ZM24.116 158.788s8.551-5.881 10.45-13.385l-2.565-.739s3.286-1.106 3.343-2.227c.058-1.121 1.04-5.15 1.04-5.15l-2.503-.051s1.999-.398 2.596-1.79 1.622-8.231 1.622-8.231-3.675 2.294-5.393 5.225c-1.718 2.931-5.008 5.985-6.876 15.854-1.868 9.87-1.714 10.494-1.714 10.494Z" fill="#455A64"/><path d="M15.925 125.113a.523.523 0 0 1 .031.1l.07.298c.061.282.146.668.258 1.157.22 1.006.512 2.466.843 4.275a204.852 204.852 0 0 1 2.1 14.224c.627 5.583.959 10.665 1.101 14.347.073 1.841.112 3.329.12 4.374V165.391a.318.318 0 0 1 0 .104.336.336 0 0 1 0-.104v-.306c0-.29-.024-.684-.043-1.193-.03-1.03-.092-2.517-.185-4.354a235.102 235.102 0 0 0-1.155-14.315 231.034 231.034 0 0 0-2.038-14.224c-.316-1.81-.585-3.273-.77-4.283-.093-.493-.166-.883-.22-1.161-.02-.128-.038-.227-.05-.307a.34.34 0 0 1-.062-.135Z" fill="#263238"/><path d="M19.021 163.84s-7.222-8.439-9.468-13.576l1.695-.744c-1.229.207-2.484-.338-3.436-1.165-.914-.874-1.7-1.88-2.334-2.986l2.23-.398c-2.048-.601-3.794-1.992-4.876-3.885 2.634.445 5.007 1.937 6.975 3.801a35.587 35.587 0 0 1 4.238 5.059 17.867 17.867 0 0 1 1.64 2.783c1.206 2.593 3.34 8.005 3.336 11.111Z" fill="#455A64"/><path d="M34.68 132.152a.32.32 0 0 1-.03.088l-.108.246-.435.943c-.385.795-.928 1.988-1.591 3.463a189.745 189.745 0 0 0-4.8 11.632c-1.718 4.604-3.081 8.847-4.029 11.929a194.237 194.237 0 0 0-1.078 3.671l-.297 1.006-.08.258c0 .056-.032.088-.035.084-.004-.004 0-.032 0-.092l.061-.262.255-1.01c.223-.875.57-2.136 1.02-3.687.898-3.105 2.25-7.36 3.975-11.973a165.371 165.371 0 0 1 4.862-11.619c.678-1.46 1.244-2.633 1.648-3.436l.47-.927.127-.234a.458.458 0 0 1 .066-.08ZM19.632 167.467a3.52 3.52 0 0 1-.116-.605c-.057-.398-.154-.95-.288-1.642a35.853 35.853 0 0 0-1.468-5.285 35.148 35.148 0 0 0-2.284-4.971 36.944 36.944 0 0 0-.836-1.427 3.64 3.64 0 0 1-.297-.533c.135.15.256.312.362.485.228.322.536.795.894 1.404a30.637 30.637 0 0 1 2.35 4.966 30.94 30.94 0 0 1 1.417 5.333c.116.7.193 1.264.227 1.662.03.203.043.408.04.613Z" fill="#263238"/><path d="M29.16 165.473H13.35v3.328H29.16v-3.328ZM14.863 168.809l1.71 11.194h9.553l1.595-11.194H14.863Z" fill="#FF725E"/><path d="M28.19 168.807c0 .055-2.989.103-6.679.103-3.69 0-6.675-.048-6.675-.103 0-.056 2.989-.104 6.675-.104s6.68.044 6.68.104Z" fill="#263238"/><path d="M97.039 171.739v8.255l16.132-.08c-.116-1.674-8.972-5.014-8.972-5.014l.178-3.181-7.338.02Z" fill="#455A64"/><path d="M99.654 174.149a.696.696 0 0 0-.369.327.735.735 0 0 0-.07.496.65.65 0 0 0 .274.402c.14.091.308.123.47.087a.75.75 0 0 0 .389-.35.788.788 0 0 0 .073-.529.67.67 0 0 0-.332-.376.62.62 0 0 0-.493-.021" fill="#fff" opacity=".6"/><path d="M97.039 179.992v-1.316l15.407.187s.802.497.728 1.049l-16.135.08ZM104.207 175.061c0 .087-.385.131-.77.398-.386.266-.582.644-.655.612-.073-.032.038-.533.504-.863.467-.33.936-.227.921-.147ZM106.323 175.821c0 .084-.32.235-.582.601-.262.365-.331.751-.408.747-.077-.004-.135-.485.196-.934.331-.45.79-.493.794-.414ZM107.274 177.924c-.073.02-.189-.398 0-.879s.559-.664.593-.593c.035.072-.188.327-.343.716-.154.39-.173.748-.25.756ZM104.048 172.706c-.031.08-.385-.032-.836 0-.45.032-.77.199-.824.123-.054-.075.285-.397.805-.421.52-.024.894.23.855.298Z" fill="#263238"/><path d="M104.145 175.429c.043-.165.055-.336.035-.505a2.855 2.855 0 0 0-.428-1.3 2.547 2.547 0 0 0-.632-.688.532.532 0 0 0-.543-.1.647.647 0 0 0-.32.545c.025.431.173.844.425 1.188.253.344.598.603.993.745.386.126.801.13 1.189.011.389-.119.734-.356.991-.68.126-.149.224-.322.289-.509a.562.562 0 0 0 0-.33.4.4 0 0 0-.22-.238.642.642 0 0 0-.5.052 2.77 2.77 0 0 0-.386.218 3.485 3.485 0 0 0-.92.943 1.362 1.362 0 0 0-.224.441 4.866 4.866 0 0 1 1.229-1.233c.216-.127.501-.31.728-.226.1.039.139.163.093.306a1.353 1.353 0 0 1-.255.421 1.83 1.83 0 0 1-.89.599 1.773 1.773 0 0 1-1.062-.014 1.929 1.929 0 0 1-.874-.648 2.018 2.018 0 0 1-.401-1.03.407.407 0 0 1 .046-.206.385.385 0 0 1 .142-.152.375.375 0 0 1 .362.072c.233.166.436.375.597.616.243.356.405.764.474 1.193.05.33.043.509.062.509Z" fill="#263238"/><path d="m91.15 172.928.274 2.128-.18 4.792-6.048.151-.216-4.943.686-2.939 5.485.811Z" fill="#455A64"/><path d="M88.255 179.487c-.039 0 .05-1.463.192-3.273.143-1.809.293-3.28.328-3.284.034-.004-.05 1.467-.193 3.276-.142 1.81-.293 3.281-.327 3.281Z" fill="#263238"/><path d="m91.265 179.051-6.11.075v.875l6.114-.004-.004-.946ZM85.175 176.295s.043-.1.154-.251c.16-.216.341-.416.54-.596.291-.273.62-.5.974-.676a3.129 3.129 0 0 1 2-.283c.68.13 1.3.481 1.771 1.003.178.204.327.433.443.68.05.087.082.182.097.282a6.893 6.893 0 0 0-.632-.871 3.188 3.188 0 0 0-2.269-.962 3.636 3.636 0 0 0-2.311.93c-.497.426-.743.768-.767.744Z" fill="#263238"/><path d="M88.225 39.184 88.18 60.76l8.971.442.262-5.25s3.186.653 4.006-2.385c.528-1.953.386-17.036.386-17.036l-13.579 2.653Z" fill="#B78876"/><path d="M102.979 38.04c-1.414.418-1.722 2.784-1.722 2.784l-2.215 5.055c-1.129-.911-2.646-.86-2.931 1.193-.208 1.479 1.575 1.777 1.575 1.777-1.04 1.825-1.74 3.3-3.255 5.034-1.625 1.89-2.55 2.076-4.322 2.1h-1.956s-.96-3.21-2.731-11.23c-1.965-8.9 8.227-7.754 10.119-10.025 3.077-3.694 11.902 1.997 7.438 3.313Z" fill="#263238"/><path d="M105.462 36.102a2.031 2.031 0 0 0-.676-1.213 1.92 1.92 0 0 0-1.277-.469c.146-.253.2-.552.154-.843a1.266 1.266 0 0 0-.408-.747 1.954 1.954 0 0 0-.765-.382 1.922 1.922 0 0 0-.849-.016 5.804 5.804 0 0 0-1.61.596 2.813 2.813 0 0 0-1.04-1.42 3.062 3.062 0 0 0-1.73-.44c-2.754 0-4.202 1.944-5.681 3.928-.216.37-.525.672-.894.875a2.326 2.326 0 0 1-.828.096 5.851 5.851 0 0 0-2.971.928 6.105 6.105 0 0 0-2.121 2.34c-.963 1.92-1.684 6.363.812 9.146l1.503 3.464 14.379-11.763c.104.056 1.005.51 1.699.135 1.721-.938.997-2.497.997-2.497.139-.1 1.453-.763 1.306-1.718Z" fill="#263238"/><path d="M92.159 47.68a3.33 3.33 0 0 1-.05 1.638c-.081.55-.3 1.068-.636 1.503-.062-.032.227-.692.412-1.555.185-.863.208-1.586.273-1.586ZM93.238 46.613c.075.531.046 1.072-.085 1.59a4.007 4.007 0 0 1-.474 1.504c.038-.522.122-1.04.25-1.547a8.593 8.593 0 0 1 .309-1.547ZM96.344 43.055c.023.032-.231.222-.555.612-.412.516-.74 1.1-.967 1.726-.22.633-.4 1.282-.535 1.94a3.028 3.028 0 0 1-.224.796c-.016-.284.006-.57.066-.847a9.85 9.85 0 0 1 .481-1.988 5.1 5.1 0 0 1 1.064-1.75 1.75 1.75 0 0 1 .67-.49ZM97.601 40.629c.027 0 .12.207.177.58.065.493.038.994-.08 1.476a3.757 3.757 0 0 1-.605 1.336c-.22.306-.385.453-.42.433-.035-.02.55-.743.805-1.825.254-1.081.054-1.992.123-2ZM86.897 46.02c-.031.06-.305-.04-.613-.218-.308-.18-.535-.366-.504-.426.03-.06.304.044.612.223s.536.366.505.422ZM91.232 43.715c.035.335-.056.671-.254.939-.278.473-.651.72-.69.672-.038-.048.243-.358.493-.795.25-.438.385-.832.451-.816ZM92.563 42.977c-.005.407-.14.802-.386 1.12-.358.566-.808.868-.843.796-.035-.071.32-.397.655-.942.173-.336.364-.662.574-.974ZM99.186 33.931s-.17-.131-.493-.322a3.228 3.228 0 0 0-1.502-.398 3.933 3.933 0 0 0-2.207.609 5.602 5.602 0 0 0-1.876 2.163 9.672 9.672 0 0 0-.77 2.024l-.039.135-.12-.067a4.392 4.392 0 0 0-1.999-.53 4.651 4.651 0 0 0-1.629.255 6.8 6.8 0 0 0-1.333.688c.087-.106.188-.199.3-.274.304-.228.635-.411.987-.545a4.518 4.518 0 0 1 1.675-.314 4.472 4.472 0 0 1 2.104.521l-.158.072c.178-.72.436-1.417.77-2.076a5.672 5.672 0 0 1 1.969-2.235 4.009 4.009 0 0 1 2.31-.593 3.117 3.117 0 0 1 1.541.49c.124.08.24.175.343.282.097.072.131.111.127.115Z" fill="#455A64"/><path d="M103.907 35.113c-.019 0 .246-.072.512.238a.92.92 0 0 1 .208.676 1.068 1.068 0 0 1-.174.45c-.091.134-.21.244-.35.322-.33.194-.721.249-1.09.155a3.153 3.153 0 0 1-1.121-.565 10.57 10.57 0 0 0-1.101-.795 4.392 4.392 0 0 0-1.325-.481 5.368 5.368 0 0 0-2.697.19 7.307 7.307 0 0 0-1.999 1.05c-1.048.776-1.564 1.428-1.599 1.392.104-.165.224-.318.359-.457.352-.392.74-.75 1.155-1.07a7.137 7.137 0 0 1 2.03-1.121 5.463 5.463 0 0 1 2.812-.215c.487.093.956.264 1.391.51.387.24.759.505 1.113.794.31.252.664.438 1.044.55.325.092.672.053.971-.108a.915.915 0 0 0 .473-.644.841.841 0 0 0-.15-.6.765.765 0 0 0-.462-.271Z" fill="#455A64"/><path d="M145.699 51.67c-.339-.31-4.908 1.666-4.908 1.666s-3.409 2.784-4.811 4.394l-.866.744-12.966 10.406-15.947-6.847-3.467 9.181s17.904 7.36 20.631 6.1c2.962-1.368 13.998-13.293 14.025-13.333l1.595-1.59s.843 0 1.483-.056c.639-.056 2.511-1.324 2.511-1.324.178-.353.3-.733.362-1.126a.741.741 0 0 0-.036-.47.711.711 0 0 0-.31-.345c.065-.306.075-.62.03-.93-.073-.525-.77-1.134-.77-1.134a1.68 1.68 0 0 0 .428-.83c.154-.61-.605-1.194-.605-1.194s2.654-1.86 3.297-2.19c.643-.33.663-.812.324-1.122Z" fill="#B78876"/><path d="M108.55 145.733c.054-.604.081-1.07.081-1.36l1.803-29.677s-1.514-8.669-2.23-10.967l-6.437-2.573-8.578 3.448-.089-1.153-12.623 4.509s-.327 8.896 0 11.604c.108.87.435 3.117.836 5.766 0 0 .408 5.754.493 6.076.304 1.173.385 4.048.385 6.927 0 3.658.193 8.012.416 10.08.224 2.068.328 24.83.328 24.83h9.321l1.198-36.25c.2-3.885.501-9.826.694-14.125l2.188 13.385c0 .489 1.332 8.144 1.332 8.144a74.83 74.83 0 0 0-.57 7.261c-.154 6.76-.92 21.585-.92 21.585h9.121s2.743-21.426 3.274-27.51h-.023Z" fill="#263238"/><path d="M110.138 112.913a3.641 3.641 0 0 1-.844-.465 11.615 11.615 0 0 1-1.803-1.475 12.133 12.133 0 0 1-1.486-1.809 3.452 3.452 0 0 1-.474-.855c.211.242.407.498.585.767.465.62.971 1.206 1.514 1.754a16.167 16.167 0 0 0 1.737 1.499c.27.175.528.371.771.584ZM93.852 118.308a1.169 1.169 0 0 1-.177-.295 8.87 8.87 0 0 1-.385-.859 14.525 14.525 0 0 1-.851-3.002 14.829 14.829 0 0 1-.185-3.121c.023-.398.054-.72.088-.943.007-.117.032-.233.074-.342.03 0 0 .497-.02 1.288a17.47 17.47 0 0 0 .24 3.082c.17 1.017.427 2.017.77 2.987.273.743.473 1.189.446 1.205Z" fill="#455A64"/><path d="M95.203 129.485a2.664 2.664 0 0 1-.12-.517c-.066-.377-.15-.85-.253-1.42-.2-1.245-.47-2.883-.77-4.696-.517-3.328-.867-5.595-1.03-6.649.21.623.357 1.267.44 1.921.223 1.193.5 2.859.793 4.692.293 1.833.536 3.503.705 4.708.073.573.139 1.05.19 1.432.034.174.049.351.045.529Z" fill="#455A64"/><path d="M73.209 79.984s-1.229 8.944-1.46 12.077c-.139 1.889 1.718 4.374 3.136 4.577 1.417.203 6.194.477 6.194.477l.385-5.61-.123-1.118-1.483-.286.446-8.9-7.095-1.217Z" fill="#B78876"/><path d="M80.118 81.5c.039.159.058.322.058.485.023.314.039.768.05 1.332.027 1.122 0 2.677-.092 4.374-.093 1.698-.227 3.261-.331 4.375-.058.556-.104 1.01-.143 1.32a2.148 2.148 0 0 1-.08.481 2.285 2.285 0 0 1 0-.49c.018-.357.045-.794.076-1.327.073-1.165.166-2.688.27-4.374.104-1.686.142-3.253.154-4.375v-1.328c-.003-.159.01-.317.038-.473Z" fill="#AA6550"/><path d="M80.589 108.125c2.427.93 5.084 1.006 7.661.775 2.577-.231 5.127-.767 7.704-1.018a35.786 35.786 0 0 1 11.668.795 2 2 0 0 0 .824.08.68.68 0 0 0 .371-.174.722.722 0 0 0 .211-.359c.069-.445-.405-.756-.805-.927a33.486 33.486 0 0 0-13.919-2.688 33.534 33.534 0 0 0-13.788 3.325" fill="#000" opacity=".3"/><path d="m117.743 66.102-13.682-7.03a43.242 43.242 0 0 0-6.502-.295h-9.056s-10.97 3.34-12.785 6.422l-4.703 14.555 9.299 1.447 1.155 10.458s-1.155 12.109-1.155 13.866c-.025.814.022 1.629.142 2.434 0 0 18.605-2.919 23.185-1.38 4.58 1.539 5.817 1.38 5.817 1.38s-.385-5.026-.721-7.953l-1.055-14.594-.77-11.134 8.609 2.72 2.222-10.896Z" fill="#FF725E"/><path d="M80.228 81.314c-.035 0-.127-.6-.331-1.57a27.327 27.327 0 0 0-1.079-3.71 30.186 30.186 0 0 0-1.595-3.548l-.562-1.041a1.708 1.708 0 0 1-.189-.398c.1.107.189.225.262.354.158.234.385.58.62 1.018a23.684 23.684 0 0 1 1.664 3.543 22.12 22.12 0 0 1 1.025 3.754c.085.489.139.887.166 1.165.023.143.03.288.019.433ZM97.775 85.45a.697.697 0 0 1-.05.194l-.173.537c-.077.234-.174.517-.3.843-.128.326-.263.7-.44 1.097a33.9 33.9 0 0 1-1.317 2.784 39.802 39.802 0 0 1-1.926 3.221c-.732 1.105-1.541 2.104-2.269 2.986a27.148 27.148 0 0 1-2.08 2.231c-.304.31-.601.569-.851.795-.25.227-.478.43-.663.585l-.431.35a.893.893 0 0 1-.158.115s.042-.055.135-.147l.404-.397c.177-.16.385-.362.64-.605.254-.243.531-.505.828-.82a37.864 37.864 0 0 0 4.283-5.23 36.424 36.424 0 0 0 1.926-3.18c.54-.994.998-1.948 1.348-2.747.185-.398.328-.768.462-1.086.135-.318.247-.596.335-.827.09-.23.15-.398.209-.525a.808.808 0 0 1 .088-.175ZM104.092 60.035a4.61 4.61 0 0 0-.72 1.774 6.306 6.306 0 0 0 0 2.087c.149.85.342 1.692.578 2.522.473 1.781.97 3.368 1.352 4.513.181.54.331.994.454 1.356.064.163.113.332.146.505a2.743 2.743 0 0 1-.223-.477c-.127-.31-.308-.764-.516-1.332a52.732 52.732 0 0 1-1.414-4.51 23.47 23.47 0 0 1-.551-2.533 6.271 6.271 0 0 1 .031-2.143c.095-.477.275-.932.532-1.34.084-.16.197-.303.331-.422Z" fill="#263238"/><path d="M78.277 75.352a1.958 1.958 0 0 1-.732.513 3.583 3.583 0 0 1-2.095.303 3.639 3.639 0 0 1-1.911-.935 1.978 1.978 0 0 1-.547-.712c.027-.024.227.258.64.6.535.448 1.177.74 1.859.847a3.774 3.774 0 0 0 2.02-.238c.473-.199.746-.406.766-.378ZM104.496 68.79a1.652 1.652 0 0 1-.111.305 11.628 11.628 0 0 1-2.439 3.59 9.1 9.1 0 0 1-4.345 2.439 7.883 7.883 0 0 1-2.942.13 8.46 8.46 0 0 1-2.978-1.093c-1.891-1.09-3.49-2.47-5.239-3.13a7.966 7.966 0 0 0-4.83-.274 8.43 8.43 0 0 0-3 1.42c-.632.481-.93.82-.944.795.27-.318.57-.607.897-.862a8.307 8.307 0 0 1 3.817-1.669 8.194 8.194 0 0 1 4.126.408c1.79.668 3.401 2.052 5.27 3.126a8.392 8.392 0 0 0 2.907 1.097c.959.14 1.933.099 2.878-.12a9.03 9.03 0 0 0 4.283-2.357 11.916 11.916 0 0 0 2.065-2.68c.196-.35.343-.633.435-.824.043-.104.093-.205.15-.302ZM113.068 63.688c.076.146.136.3.177.46.127.431.202.876.224 1.325a6.314 6.314 0 0 1-1.298 4.167 15.384 15.384 0 0 1-1.718 1.678 4.703 4.703 0 0 0-1.156 1.516 2.636 2.636 0 0 0-.258 1.264c.023.31.089.477.069.481-.019.004-.027-.036-.058-.115a1.568 1.568 0 0 1-.088-.358 2.545 2.545 0 0 1 .204-1.332 4.687 4.687 0 0 1 1.156-1.59 17.118 17.118 0 0 0 1.683-1.667 6.398 6.398 0 0 0 1.313-4.032 10.076 10.076 0 0 0-.25-1.797ZM90.816 97.212c-.12.067-.25.117-.385.147-.371.11-.75.193-1.132.247a3.81 3.81 0 0 1-1.73-.103 2.54 2.54 0 0 1-.905-.525 7.948 7.948 0 0 1-.74-.835 3.9 3.9 0 0 0-.77-.74 3.725 3.725 0 0 0-.882-.438 3.79 3.79 0 0 0-1.653-.163c-.376.043-.743.15-1.086.319a2.65 2.65 0 0 1-.385.183c.1-.105.218-.19.347-.255.34-.203.716-.338 1.105-.398a3.711 3.711 0 0 1 1.726.124c.331.105.646.257.936.453.308.214.583.474.817.771.22.288.46.56.716.816.244.221.528.391.836.5.537.165 1.1.212 1.656.14.936-.115 1.522-.278 1.53-.243ZM108.53 96.368a.641.641 0 0 1-.123.107 3.86 3.86 0 0 1-.385.262 5.575 5.575 0 0 1-1.541.672 6.322 6.322 0 0 1-2.5.151 6.058 6.058 0 0 1-2.843-1.192 29.04 29.04 0 0 1-2.272-2.112 7.267 7.267 0 0 0-2.019-1.432 3.725 3.725 0 0 0-1.598-.365c-.385 0-.609.067-.613.043a2.157 2.157 0 0 1 .609-.127c.57-.026 1.137.08 1.66.314.77.346 1.476.829 2.084 1.428.705.644 1.406 1.427 2.269 2.084a5.94 5.94 0 0 0 2.746 1.153 6.5 6.5 0 0 0 2.442-.1 6.345 6.345 0 0 0 1.541-.6c.175-.107.357-.203.543-.286Z" fill="#fff"/><path d="M141.272 39.701a19.82 19.82 0 0 1-7.127-5.966 20.642 20.642 0 0 1-3.735-8.653 20.966 20.966 0 0 1 .469-9.46 20.497 20.497 0 0 1 4.571-8.214 19.648 19.648 0 0 1 7.681-5.183 19.11 19.11 0 0 1 9.121-1.028 19.322 19.322 0 0 1 8.583 3.352 20.1 20.1 0 0 1 6.179 7.002 20.883 20.883 0 0 1 2.295 12.378c-.525 4.273-2.351 8.263-5.215 11.395-2.864 3.132-6.618 5.244-10.72 6.03-4.102.787-8.34.208-12.102-1.653Zm16.417-35.447a17.843 17.843 0 0 0-12.676-1.2c-4.228 1.172-7.912 3.866-10.387 7.594-2.475 3.73-3.578 8.248-3.11 12.742.468 4.495 2.475 8.669 5.661 11.77 3.186 3.1 7.34 4.925 11.713 5.143 4.373.218 8.678-1.184 12.139-3.953 3.461-2.77 5.849-6.724 6.735-11.15a19.5 19.5 0 0 0-1.905-12.993c-1.852-3.466-4.709-6.247-8.17-7.953Z" fill="#263238"/><path d="M174.506 61.95a2.39 2.39 0 0 1-1.85.307 2.459 2.459 0 0 1-1.521-1.13l-12.877-21.549a.445.445 0 0 1 .135-.596l2.746-1.75a.413.413 0 0 1 .574.131l13.544 21.008a2.594 2.594 0 0 1-.031 2.886 2.48 2.48 0 0 1-.72.693Z" fill="#263238"/><path d="M141.747 38.677a19.836 19.836 0 0 1-7.133-5.965 20.651 20.651 0 0 1-3.738-8.655 20.969 20.969 0 0 1 .467-9.464 20.511 20.511 0 0 1 4.572-8.217 19.655 19.655 0 0 1 7.684-5.186 19.114 19.114 0 0 1 9.125-1.027 19.325 19.325 0 0 1 8.585 3.354 20.105 20.105 0 0 1 6.18 7.007 20.88 20.88 0 0 1 2.292 12.377c-.525 4.272-2.351 8.262-5.215 11.393-2.863 3.132-6.616 5.244-10.717 6.032-4.102.788-8.339.21-12.102-1.649Zm16.417-35.446a17.843 17.843 0 0 0-12.676-1.2c-4.228 1.171-7.912 3.865-10.387 7.594-2.475 3.729-3.578 8.247-3.11 12.742.468 4.494 2.475 8.668 5.661 11.769 3.186 3.1 7.34 4.925 11.713 5.143 4.373.219 8.678-1.183 12.139-3.953 3.461-2.769 5.849-6.723 6.735-11.15a19.5 19.5 0 0 0-1.905-12.992c-1.852-3.467-4.709-6.248-8.17-7.953Z" fill="#455A64"/><path d="m158.514 38.155 3.452-2.198 13.694 22.915c.268.45.352.99.235 1.503a1.99 1.99 0 0 1-.863 1.233l-.2.128a1.875 1.875 0 0 1-1.455.242 1.932 1.932 0 0 1-1.196-.89l-13.693-22.916.026-.017Z" fill="#455A64"/><path d="M135.535 15.511a3.71 3.71 0 0 1 .108-.628 5.99 5.99 0 0 1 .181-.724c.087-.32.19-.634.308-.943l.196-.536c.073-.187.17-.37.258-.569.174-.398.409-.795.644-1.213a15.689 15.689 0 0 1 1.887-2.497 15.568 15.568 0 0 1 2.365-2.012c.374-.252.76-.484 1.156-.696.185-.1.362-.203.539-.286l.516-.227c.294-.13.595-.245.902-.342.227-.085.46-.154.697-.207.198-.058.4-.102.604-.131-.189.083-.385.15-.585.203a6.082 6.082 0 0 0-.682.238c-.3.106-.594.228-.882.366l-.504.235c-.178.083-.351.19-.532.29-.385.195-.74.45-1.136.704a15.747 15.747 0 0 0-2.312 1.988 16.356 16.356 0 0 0-1.875 2.454c-.235.397-.474.795-.651 1.193-.089.19-.189.37-.266.552l-.216.53c-.146.33-.235.647-.331.922-.083.233-.152.47-.208.712a4.211 4.211 0 0 1-.181.624Z" fill="#E0E0E0"/></svg>