<svg width="101" height="100" fill="none" xmlns="http://www.w3.org/2000/svg"><path d="M16.143 11.543a8.29 8.29 0 0 0-.799-3.589 8.027 8.027 0 0 0-2.259-2.849 7.708 7.708 0 0 0-3.25-1.517 7.584 7.584 0 0 0-3.564.13 7.75 7.75 0 0 0-3.138 1.749 8.077 8.077 0 0 0-2.059 3.006 8.31 8.31 0 0 0 .517 7.15l.024.029c.3.523.674.883 1.055 1.444l4.54 6.208c.132.18.302.327.498.427a1.374 1.374 0 0 0 1.259 0c.195-.1.366-.247.497-.427l4.451-6.106c.405-.493.784-1.01 1.134-1.546l.017-.022a8.22 8.22 0 0 0 1.077-4.087ZM8.32 15.06a3.367 3.367 0 0 1-1.913-.6 3.533 3.533 0 0 1-1.268-1.595 3.661 3.661 0 0 1-.196-2.053c.133-.69.461-1.323.943-1.82a3.411 3.411 0 0 1 1.763-.973 3.343 3.343 0 0 1 1.989.202c.63.27 1.167.725 1.545 1.31a3.653 3.653 0 0 1 .319 3.335 3.562 3.562 0 0 1-.746 1.153c-.32.33-.7.592-1.118.77-.418.18-.865.271-1.318.27ZM100.5 60.514a3.655 3.655 0 0 0-.355-1.578 3.543 3.543 0 0 0-.996-1.252c-.421-.333-.91-.561-1.43-.667a3.343 3.343 0 0 0-1.57.057 3.416 3.416 0 0 0-1.38.77 3.56 3.56 0 0 0-.909 1.32 3.662 3.662 0 0 0 .22 3.148v.013c.133.221.3.396.467.636l2 2.737a.608.608 0 0 0 .995 0l1.967-2.69c.18-.219.346-.447.501-.685v-.011a3.614 3.614 0 0 0 .49-1.798Zm-3.448 1.546c-.3 0-.593-.092-.843-.264a1.556 1.556 0 0 1-.558-.703 1.614 1.614 0 0 1-.087-.905c.059-.304.203-.583.416-.802.212-.219.482-.368.776-.428.295-.06.6-.03.877.089.277.118.514.32.68.577a1.602 1.602 0 0 1 .142 1.47c-.076.19-.188.364-.329.51-.14.145-.308.261-.492.34-.185.08-.382.12-.582.12v-.004ZM88.604 88.58c3.37-3.48 3.37-9.122 0-12.602a8.442 8.442 0 0 0-12.208 0c-3.372 3.48-3.372 9.122 0 12.602a8.442 8.442 0 0 0 12.208 0Z" fill="#F5F5F5"/><path d="M82.505 89.7a7.027 7.027 0 0 1-3.992-1.249 7.372 7.372 0 0 1-2.648-3.329 7.642 7.642 0 0 1-.41-4.286 7.495 7.495 0 0 1 1.966-3.799 7.119 7.119 0 0 1 3.68-2.03 6.976 6.976 0 0 1 4.152.421 7.24 7.24 0 0 1 3.225 2.732 7.59 7.59 0 0 1 1.211 4.122 7.548 7.548 0 0 1-2.106 5.243 7.08 7.08 0 0 1-5.078 2.175Zm0-13.566c-1.177 0-2.329.36-3.308 1.036a6.11 6.11 0 0 0-2.194 2.76 6.333 6.333 0 0 0-.339 3.551 6.212 6.212 0 0 0 1.63 3.148 5.9 5.9 0 0 0 3.05 1.683 5.782 5.782 0 0 0 3.44-.35 6 6 0 0 0 2.673-2.264 6.291 6.291 0 0 0 1.004-3.416 6.257 6.257 0 0 0-1.746-4.346 5.87 5.87 0 0 0-4.21-1.802Z" fill="#fff"/><path d="M82.457 84.815c-.524 0-1.036-.16-1.471-.461a2.715 2.715 0 0 1-.975-1.227c-.2-.5-.253-1.049-.15-1.579.102-.53.354-1.017.725-1.4.37-.381.842-.641 1.356-.746a2.57 2.57 0 0 1 1.53.156c.483.207.896.558 1.187 1.007.29.45.445.979.445 1.52 0 .724-.28 1.418-.776 1.93-.497.512-1.17.8-1.871.8Zm0-4.198c-.28 0-.554.086-.787.247-.233.16-.415.389-.522.656a1.506 1.506 0 0 0-.08.845c.054.284.189.544.387.749.198.204.45.344.725.4.275.056.56.028.819-.083.259-.11.48-.298.636-.539a1.489 1.489 0 0 0-.178-1.843 1.396 1.396 0 0 0-1-.427v-.005Z" fill="#fff"/><path d="M82.458 82.09h-3.345l.585 1.065-7.873 3.724.265.458 7.898-3.683.542 1.058 1.928-2.622Z" fill="#E0E0E0"/><path d="m71.827 86.874-.084-.083a1.584 1.584 0 0 0-.73-.42 1.549 1.549 0 0 0-.834.017l-3.14.944 1.749.793-.702 1.928 2.947-1.073c.323-.12.6-.343.791-.638.19-.295.285-.645.268-1l-.265-.468ZM33.727 88.747l.065-.022.186-.056.715-.22 2.677-.776-.026.046c-.137-.474-.291-1.005-.454-1.575v-.024l.022-.02a8.781 8.781 0 0 0 1.866-2.266 6.317 6.317 0 0 0 .625-1.547c.146-.576.18-1.177.1-1.767a5.618 5.618 0 0 0-1.759-3.314 6.378 6.378 0 0 0-3.638-1.619 5.208 5.208 0 0 0-2.925.605 5.89 5.89 0 0 0-2.18 1.894 5.562 5.562 0 0 0-.938 2.57c-.013.222-.045.443-.04.664.004.22.01.442.017.645.034.414.105.825.214 1.226.106.376.25.74.428 1.087.174.322.38.625.616.903.43.497.935.916 1.498 1.242.82.48 1.72.8 2.653.945h.015v.014l.214 1.002.05.259c.01.062.017.088.017.09a.357.357 0 0 1-.022-.079l-.06-.252-.23-1.012.018.018a7.433 7.433 0 0 1-2.685-.926 5.88 5.88 0 0 1-1.52-1.248 5.416 5.416 0 0 1-.641-.916 5.926 5.926 0 0 1-.45-1.105 7.246 7.246 0 0 1-.214-1.244l-.02-.663c0-.22.029-.441.041-.662.094-.945.421-1.849.95-2.625a6.005 6.005 0 0 1 2.22-1.935 5.308 5.308 0 0 1 2.996-.616 6.467 6.467 0 0 1 3.708 1.65c.49.444.896.976 1.2 1.57.082.142.153.29.215.442.066.143.122.29.167.442.044.155.094.305.134.457.041.153.054.312.082.467a4.77 4.77 0 0 1-.11 1.809 6.374 6.374 0 0 1-.641 1.568 8.869 8.869 0 0 1-1.899 2.282l.015-.044.443 1.575.011.036-.034.01-2.707.743-.713.192-.18.047-.092.033ZM37.721 88.75c-.607.236-1.228.433-1.86.59-.62.196-1.252.353-1.891.47.608-.232 1.23-.428 1.86-.587.62-.196 1.252-.354 1.891-.473ZM36.885 90.557a1.5 1.5 0 0 1-.642.27c-.223.074-.459.095-.691.061.215-.084.437-.144.663-.18a3.37 3.37 0 0 1 .67-.151Z" fill="#E0E0E0"/><path d="M34.492 88.538a.24.24 0 0 1-.021-.062c-.013-.048-.028-.11-.05-.187-.042-.176-.102-.416-.18-.723L33.6 84.9c-.135-.564-.28-1.18-.428-1.84a1.246 1.246 0 0 0-.186-.456.317.317 0 0 0-.172-.142.306.306 0 0 0-.22.008.468.468 0 0 0-.201.422.737.737 0 0 0 .19.475c.127.134.283.236.455.294a1.123 1.123 0 0 0 1.053-.182c.152-.118.273-.274.352-.453.175-.372.218-.795.124-1.197a1.08 1.08 0 0 0-.267-.541.417.417 0 0 0-.512-.073.454.454 0 0 0-.096.528c.094.18.23.332.398.442.315.258.695.42 1.095.466.191.017.383-.012.561-.086.168-.08.314-.201.428-.352a.943.943 0 0 0 .197-.512.684.684 0 0 0-.163-.497.415.415 0 0 0-.428-.155.532.532 0 0 0-.325.35c-.105.324-.013.686.026 1.02.102.663.214 1.294.327 1.862.214 1.131.4 2.048.526 2.69.06.312.11.558.144.732.013.08.026.141.034.192a.349.349 0 0 1 0 .067.297.297 0 0 1-.02-.064l-.046-.188-.165-.727c-.14-.632-.338-1.546-.563-2.684-.111-.568-.233-1.19-.342-1.865-.024-.17-.051-.34-.069-.519a1.318 1.318 0 0 1 .043-.552.666.666 0 0 1 .392-.418.526.526 0 0 1 .55.184.79.79 0 0 1 .19.576 1.05 1.05 0 0 1-.214.58 1.274 1.274 0 0 1-.481.388 1.303 1.303 0 0 1-.614.097 2.237 2.237 0 0 1-1.156-.488 1.26 1.26 0 0 1-.428-.501.522.522 0 0 1 .138-.669.48.48 0 0 1 .658.079c.154.166.258.375.3.6.1.43.052.882-.135 1.28a1.301 1.301 0 0 1-.388.493 1.247 1.247 0 0 1-.567.247c-.197.032-.4.015-.589-.051-.19-.066-.36-.18-.498-.33a.838.838 0 0 1-.214-.55.58.58 0 0 1 .062-.294.559.559 0 0 1 .2-.22.374.374 0 0 1 .295-.016c.087.038.16.101.214.182.097.15.166.318.203.494.152.663.293 1.282.428 1.847l.6 2.671.157.73c.015.076.028.138.04.19a.21.21 0 0 1 0 .074ZM37.574 89.574c-.487.201-.987.365-1.498.488-.503.162-1.016.286-1.536.371.486-.201.987-.365 1.498-.488a10.73 10.73 0 0 1 1.536-.371Z" fill="#E0E0E0"/><path d="M95.742 99.769c0 .03-20.422.057-45.609.057S4.521 99.8 4.521 99.77c0-.03 20.417-.058 45.612-.058 25.196 0 45.609.025 45.609.058Z" fill="#263238"/><path d="M91.972 10.911H8.332v5.532h83.64v-5.532Z" fill="#E0E0E0"/><path d="M91.952 21.523H8.313v48.424h83.64V21.523Z" fill="#fff"/><path d="M8.333 16.401h11.484l1.137-3.42H39.57l1.137 3.42h51.264v5.24H8.332v-5.24Z" fill="#EBEBEB"/><path d="M11.091 13.117a.665.665 0 0 1-.105.36.634.634 0 0 1-.283.24.611.611 0 0 1-.685-.141.67.67 0 0 1-.136-.708.645.645 0 0 1 .23-.291.615.615 0 0 1 .796.08.647.647 0 0 1 .184.46ZM13.038 13.117a.664.664 0 0 1-.106.36.634.634 0 0 1-.282.24.611.611 0 0 1-.686-.141.67.67 0 0 1-.136-.708.645.645 0 0 1 .231-.291.616.616 0 0 1 .795.08.647.647 0 0 1 .184.46ZM14.981 13.117a.665.665 0 0 1-.106.36.633.633 0 0 1-.282.24.61.61 0 0 1-.686-.141.67.67 0 0 1-.136-.708.646.646 0 0 1 .232-.291.615.615 0 0 1 .795.08.647.647 0 0 1 .183.46Z" fill="#263238"/><path d="M82.727 20.595H25.344c-.422 0-.827-.173-1.125-.481a1.67 1.67 0 0 1-.467-1.163c0-.436.168-.854.467-1.162a1.567 1.567 0 0 1 1.125-.481h57.383c.422 0 .827.173 1.126.481.298.308.466.726.466 1.162 0 .436-.168.854-.466 1.163a1.567 1.567 0 0 1-1.126.481Z" fill="#FAFAFA"/><path d="M26.712 19.174v.556h-.272v-.512c0-.157-.07-.221-.19-.221s-.227.084-.227.26v.482h-.272v-1.347h.272v.468a.42.42 0 0 1 .3-.115.357.357 0 0 1 .293.12.382.382 0 0 1 .096.309ZM27.572 19.68a.372.372 0 0 1-.214.062.3.3 0 0 1-.258-.087.32.32 0 0 1-.093-.262v-.398h-.146v-.22h.146v-.237h.271v.237h.234v.22h-.234v.398a.117.117 0 0 0 .03.094.109.109 0 0 0 .088.034c.04 0 .078-.012.11-.037l.066.196ZM28.3 19.68a.38.38 0 0 1-.213.062.301.301 0 0 1-.258-.087.322.322 0 0 1-.093-.262v-.398h-.146v-.22h.146v-.237h.272v.237h.235v.22h-.235v.398a.12.12 0 0 0 .03.093.112.112 0 0 0 .087.035c.04 0 .08-.012.112-.037l.064.196ZM29.485 19.242a.484.484 0 0 1-.127.357.455.455 0 0 1-.341.143.355.355 0 0 1-.283-.117v.441h-.271v-1.325h.265v.113a.37.37 0 0 1 .295-.126.444.444 0 0 1 .343.15.471.471 0 0 1 .12.364Zm-.276 0a.253.253 0 0 0-.05-.13.232.232 0 0 0-.365-.014.25.25 0 0 0-.043.265c.019.044.05.082.088.108a.235.235 0 0 0 .31-.038.247.247 0 0 0 .06-.19ZM29.6 18.923a.178.178 0 0 1 .056-.112.168.168 0 0 1 .228 0 .179.179 0 0 1 .05.186.178.178 0 0 1-.094.107.167.167 0 0 1-.198-.043.178.178 0 0 1-.042-.138Zm0 .647a.178.178 0 0 1 .056-.112.168.168 0 0 1 .228 0 .179.179 0 0 1 .05.186.179.179 0 0 1-.094.107.166.166 0 0 1-.198-.043.178.178 0 0 1-.042-.138ZM30.61 18.206h.245l-.578 1.699h-.242l.576-1.699ZM31.17 18.206h.241l-.576 1.699h-.243l.577-1.699Z" fill="#E0E0E0"/><path d="M82.67 30.225H32.676a2.778 2.778 0 0 1-1.995-.853 2.962 2.962 0 0 1-.827-2.06c0-.773.298-1.514.827-2.06a2.78 2.78 0 0 1 1.995-.854h49.996a2.78 2.78 0 0 1 1.995.854c.529.546.827 1.287.827 2.06 0 .772-.297 1.513-.827 2.06a2.779 2.779 0 0 1-1.995.853Z" fill="#FAFAFA"/><path d="M82.677 30.23c.399-.008.792-.1 1.155-.269.358-.17.678-.415.94-.72.261-.303.459-.66.58-1.047a3.04 3.04 0 0 0-.202-2.22 2.901 2.901 0 0 0-.84-.99 2.732 2.732 0 0 0-1.295-.522 6.354 6.354 0 0 0-.747-.022h-7.967l-41.615.016c-.5.001-.99.142-1.419.406-.421.26-.768.631-1.005 1.075a2.931 2.931 0 0 0 .072 2.883c.258.43.623.782 1.057 1.02.429.229.907.343 1.39.33h13.947l18.71.014 12.625.018h4.62-4.62l-12.626.02-18.709.01H32.78c-.5.014-.996-.105-1.44-.344a2.935 2.935 0 0 1-1.282-1.414 3.06 3.06 0 0 1-.166-1.928 2.982 2.982 0 0 1 1.02-1.625 2.82 2.82 0 0 1 1.774-.63l41.626.072h7.967c.252-.006.504.002.755.024a2.78 2.78 0 0 1 1.316.537c.34.252.622.578.824.955.203.378.322.797.349 1.228.022.365-.02.732-.124 1.082a3.002 3.002 0 0 1-.428.85c-.29.407-.678.729-1.124.935-.272.124-.56.203-.856.237-.212.02-.314.02-.314.02Z" fill="#263238"/><path d="m33.824 27.933.105-.243a.79.79 0 0 0 .45.146c.185 0 .26-.064.26-.15 0-.263-.79-.082-.79-.604 0-.238.187-.441.574-.441a.893.893 0 0 1 .47.123l-.095.248a.742.742 0 0 0-.377-.11c-.186 0-.259.072-.259.16 0 .26.79.08.79.595 0 .234-.189.442-.576.442a.932.932 0 0 1-.552-.166ZM36.161 27.628h-.79a.29.29 0 0 0 .11.168c.055.04.123.06.19.053a.343.343 0 0 0 .261-.106l.16.18a.59.59 0 0 1-.897-.062.638.638 0 0 1-.127-.317.563.563 0 0 1 .162-.402.53.53 0 0 1 .394-.152.503.503 0 0 1 .392.155.537.537 0 0 1 .152.403c0 .02-.005.053-.007.08Zm-.794-.183h.514a.271.271 0 0 0-.09-.159.256.256 0 0 0-.334 0 .271.271 0 0 0-.09.159ZM37.266 27.46v.616h-.282v-.135a.335.335 0 0 1-.319.15c-.244 0-.39-.14-.39-.326s.13-.323.447-.323h.242c0-.132-.079-.22-.242-.22a.49.49 0 0 0-.3.099l-.108-.221a.786.786 0 0 1 .449-.13c.31.013.503.165.503.49Zm-.302.276v-.11h-.214c-.141 0-.186.052-.186.125 0 .073.064.13.17.13a.22.22 0 0 0 .138-.032.23.23 0 0 0 .092-.113ZM38.19 26.977v.287h-.069a.25.25 0 0 0-.206.08.268.268 0 0 0-.07.216v.51h-.303v-1.078h.288v.142a.429.429 0 0 1 .36-.157ZM38.287 27.532a.572.572 0 0 1 .173-.409.536.536 0 0 1 .409-.146.465.465 0 0 1 .274.063c.083.05.15.123.192.211l-.235.13a.265.265 0 0 0-.096-.108.252.252 0 0 0-.137-.04.284.284 0 0 0-.204.088.303.303 0 0 0 0 .422.284.284 0 0 0 .204.087.249.249 0 0 0 .137-.039.26.26 0 0 0 .096-.109l.235.133a.49.49 0 0 1-.193.209.47.47 0 0 1-.273.062.523.523 0 0 1-.409-.145.558.558 0 0 1-.173-.409ZM40.567 27.456v.616h-.304v-.57c0-.175-.077-.254-.214-.254s-.25.093-.25.291v.533h-.304v-1.487h.303v.521a.456.456 0 0 1 .332-.128.397.397 0 0 1 .329.131.425.425 0 0 1 .108.346ZM41.318 27.896c0-.052.02-.1.055-.137a.185.185 0 0 1 .266 0 .198.198 0 0 1 0 .274.185.185 0 0 1-.266 0 .198.198 0 0 1-.055-.137ZM41.825 27.894c0-.038.012-.076.033-.107a.183.183 0 0 1 .29-.027.197.197 0 0 1 .04.211.193.193 0 0 1-.07.087.184.184 0 0 1-.239-.025.193.193 0 0 1-.053-.14ZM42.333 27.896c0-.052.02-.1.055-.137a.185.185 0 0 1 .267 0 .198.198 0 0 1-.061.317.184.184 0 0 1-.206-.043.195.195 0 0 1-.055-.137Z" fill="#E0E0E0"/><path d="M24.033 35.295c0 .033-2.007.057-4.481.057-2.474 0-4.481-.024-4.481-.057s2.005-.058 4.48-.058c2.477 0 4.482.031 4.482.058Z" fill="#000"/><path d="M24.384 37.949H15.07v9.614h9.313V37.95Z" fill="#FF725E"/><path d="M80.976 40.213c0 .031-11.556.058-25.816.058s-25.818-.027-25.818-.058c0-.03 11.555-.057 25.818-.057 14.262 0 25.816.024 25.816.057ZM43.46 43.83c0 .033-3.047.058-6.802.058-3.756 0-6.805-.025-6.805-.058s3.045-.057 6.805-.057 6.803.026 6.803.057Z" fill="#000"/><path d="M72.72 47.188c0 .031-9.598.058-21.434.058s-21.433-.027-21.433-.058c0-.03 9.595-.06 21.433-.06s21.434.027 21.434.06Z" fill="#E0E0E0"/><path d="M24.033 52.528c0 .03-2.007.057-4.481.057-2.474 0-4.481-.026-4.481-.057 0-.031 2.005-.057 4.48-.057 2.477 0 4.482.02 4.482.057Z" fill="#000"/><path d="M24.384 55.166H15.07v9.614h9.313v-9.614Z" fill="#FF725E"/><path d="M84.044 57.43c0 .033-12.246.058-27.35.058-15.104 0-27.352-.025-27.352-.058s12.244-.057 27.352-.057 27.35.026 27.35.057ZM43.46 61.053c0 .031-3.047.058-6.802.058-3.756 0-6.805-.027-6.805-.058 0-.03 3.045-.057 6.805-.057s6.803.026 6.803.057Z" fill="#000"/><path d="M80.184 64.406c0 .033-11.267.057-25.163.057-13.897 0-25.168-.024-25.168-.057s11.267-.057 25.167-.057c13.901 0 25.164.026 25.164.057Z" fill="#E0E0E0"/><path d="m91.97 70.062-.045-59.154.045.047H8.337l.056-.058v59.154l-.051-.053 83.639.053-83.64.05h-.05V10.84H92.03v.046c-.04 36.024-.06 58.796-.06 59.176Z" fill="#263238"/><path d="M37.307 15.194c0 .033-2.953.057-6.595.057s-6.595-.024-6.595-.057 2.953-.057 6.595-.057 6.595.026 6.595.057Z" fill="#000"/><path d="M25.411 26.07H13.697v3.644h11.714V26.07Z" fill="#455A64"/><path d="M46.155 35.61c0 .034-3.638.058-8.131.058-4.494 0-8.132-.024-8.132-.057s3.638-.058 8.132-.058c4.493 0 8.131.027 8.131.058ZM46.155 52.528c0 .03-3.638.057-8.131.057-4.494 0-8.132-.026-8.132-.057 0-.031 3.638-.057 8.132-.057 4.493 0 8.131.02 8.131.057ZM81.593 28.282a1.33 1.33 0 0 1-.757-.236 1.396 1.396 0 0 1-.502-.63 1.448 1.448 0 0 1-.078-.813 1.42 1.42 0 0 1 .373-.72c.19-.196.433-.33.697-.384.264-.054.538-.026.787.08.249.107.461.287.61.519a1.438 1.438 0 0 1-.17 1.772c-.254.263-.6.411-.96.412Zm0-2.587c-.227 0-.449.069-.638.198-.189.13-.336.315-.423.531a1.22 1.22 0 0 0-.066.685c.044.23.153.44.313.606a1.114 1.114 0 0 0 1.25.258c.21-.09.39-.241.516-.436a1.212 1.212 0 0 0-.142-1.494 1.13 1.13 0 0 0-.81-.348Z" fill="#FF725E"/><path d="M83.269 28.91a.108.108 0 0 1-.077-.033l-.886-.908a.11.11 0 0 1-.032-.078.113.113 0 0 1 .032-.079.108.108 0 0 1 .076-.032.106.106 0 0 1 .076.032l.886.908a.116.116 0 0 1-.016.17.107.107 0 0 1-.06.02Z" fill="#FF725E"/><path d="M60.803 43.586c0 .03-3.504.057-7.826.057-4.323 0-7.828-.026-7.828-.057 0-.031 3.505-.058 7.828-.058 4.322 0 7.826.025 7.826.058ZM70.917 43.335c0 .033-1.834.058-4.094.058-2.26 0-4.096-.025-4.096-.058s1.834-.057 4.096-.057 4.094.026 4.094.057ZM60.725 61.053c0 .031-3.503.058-7.825.058-4.323 0-7.826-.027-7.826-.058 0-.03 3.503-.057 7.826-.057 4.322 0 7.825.026 7.825.057Z" fill="#000"/><path d="M18.718 65.602c-1.738.928-3.069 2.528-4.025 4.288-.957 1.761-1.575 3.69-2.185 5.618l-.535 9.89c2.02-3.547 3.637-7.718 4.078-11.81l-1.343-.123c.9-.142 1.658-.816 2.14-1.615.48-.8.727-1.721.969-2.629l-1.64.252a6.295 6.295 0 0 0 2.54-3.87Z" fill="#455A64"/><path d="M18.716 65.603c-1.738.928-3.069 2.528-4.025 4.288-.957 1.761-1.575 3.69-2.185 5.618l-.535 9.89c2.02-3.547 3.638-7.718 4.079-11.81l-1.344-.123c.9-.142 1.658-.816 2.14-1.615.481-.8.727-1.721.97-2.63l-1.64.253a6.295 6.295 0 0 0 2.54-3.87Z" fill="#000" opacity=".3"/><path d="M11.672 87.702s-4.385-5.417-4.334-10.589h1.77s-1.926-1.307-1.772-2.039c.154-.73.214-3.499.214-3.499l1.62.418s-1.215-.628-1.367-1.62c-.152-.992.355-5.59.355-5.59s1.973 2.142 2.58 4.336c.608 2.193 2.192 4.754 1.725 11.44-.466 6.688-.791 7.143-.791 7.143ZM13.895 88.214s4.75-3.267 5.805-7.436l-1.425-.41s1.826-.614 1.858-1.237c.032-.624.578-2.861.578-2.861l-1.391-.029s1.11-.221 1.442-.994c.331-.773.9-4.573.9-4.573s-2.04 1.275-2.995 2.903c-.955 1.628-2.782 3.325-3.82 8.808-1.038 5.483-.952 5.83-.952 5.83Z" fill="#455A64"/><path d="M9.343 69.509a.283.283 0 0 1 .017.055l.038.166c.034.156.081.37.144.642.122.56.284 1.37.468 2.375.375 2.008.818 4.8 1.166 7.902.35 3.102.533 5.925.613 7.97.04 1.024.062 1.85.066 2.43V91.886a.173.173 0 0 1 0 .057.185.185 0 0 1 0-.057v-.17c0-.161-.013-.38-.024-.663-.017-.572-.051-1.398-.102-2.419-.099-2.043-.298-4.86-.642-7.953-.345-3.093-.777-5.89-1.132-7.902-.176-1.005-.326-1.818-.428-2.38l-.122-.644c-.011-.07-.022-.126-.028-.17a.193.193 0 0 1-.034-.075Z" fill="#263238"/><path d="M11.064 91.02s-4.012-4.688-5.26-7.542l.942-.413c-.683.115-1.38-.188-1.909-.648a7.344 7.344 0 0 1-1.297-1.659l1.24-.22a4.635 4.635 0 0 1-2.71-2.159c1.464.247 2.782 1.076 3.876 2.112.868.859 1.656 1.8 2.354 2.81.349.486.654 1.003.911 1.546.67 1.44 1.856 4.447 1.853 6.173Z" fill="#455A64"/><path d="M19.765 73.418a.174.174 0 0 1-.017.049l-.06.137-.241.523a82.475 82.475 0 0 0-.884 1.924 105.34 105.34 0 0 0-2.667 6.462 119.804 119.804 0 0 0-2.238 6.627c-.259.86-.462 1.547-.6 2.04l-.164.558-.045.144c0 .03-.017.049-.02.046v-.05l.035-.146.141-.561c.124-.486.317-1.187.567-2.048a93.813 93.813 0 0 1 2.209-6.652 91.981 91.981 0 0 1 2.7-6.455c.377-.81.692-1.462.916-1.909l.261-.514.07-.13a.25.25 0 0 1 .037-.045ZM11.402 93.035a1.961 1.961 0 0 1-.064-.336 19.925 19.925 0 0 0-.976-3.848 19.516 19.516 0 0 0-1.734-3.555A2.002 2.002 0 0 1 8.464 85c.074.084.142.174.2.27.127.179.298.442.497.78.516.876.953 1.8 1.306 2.759.35.96.613 1.952.787 2.962a13 13 0 0 1 .126.924c.017.112.024.226.022.34Z" fill="#263238"/><path d="M16.696 91.93H7.913v1.85h8.783v-1.85ZM8.753 93.783l.95 6.218h5.307l.886-6.218H8.753Z" fill="#FF725E"/><path d="M16.153 93.782c0 .03-1.66.057-3.71.057s-3.71-.026-3.71-.057c0-.031 1.661-.058 3.71-.058 2.047 0 3.71.024 3.71.058Z" fill="#263238"/><path d="M54.412 95.412v4.586l8.962-.044c-.064-.93-4.984-2.785-4.984-2.785l.098-1.768-4.076.011Z" fill="#455A64"/><path d="M55.864 96.757a.389.389 0 0 0-.205.181.408.408 0 0 0-.04.276.36.36 0 0 0 .153.223.34.34 0 0 0 .26.049.415.415 0 0 0 .217-.195.437.437 0 0 0 .04-.294.37.37 0 0 0-.184-.209.347.347 0 0 0-.273-.011" fill="#fff" opacity=".6"/><path d="M54.412 100v-.732l8.56.104s.445.276.404.584l-8.964.044ZM58.395 97.26c0 .048-.214.072-.428.22-.213.148-.323.358-.363.34-.04-.017.021-.296.28-.48.259-.183.52-.125.511-.08ZM59.565 97.681c0 .047-.177.13-.323.334-.145.203-.184.418-.227.415-.043-.002-.075-.27.11-.519.183-.25.438-.274.44-.23ZM60.097 98.85c-.04.012-.105-.22 0-.488.105-.267.31-.368.33-.329.019.04-.105.181-.19.398-.087.216-.097.415-.14.42ZM58.306 95.952c-.017.044-.214-.018-.464 0s-.428.11-.458.068c-.03-.041.158-.22.447-.234.289-.013.496.128.475.166Z" fill="#263238"/><path d="M58.36 97.463a.743.743 0 0 0 .02-.28 1.58 1.58 0 0 0-.238-.723 1.42 1.42 0 0 0-.35-.382.297.297 0 0 0-.302-.055.366.366 0 0 0-.178.303c.014.239.096.469.236.66.14.19.332.335.552.413.214.07.445.073.66.007a1.124 1.124 0 0 0 .711-.66.313.313 0 0 0 0-.184.22.22 0 0 0-.121-.132.36.36 0 0 0-.279.028 1.609 1.609 0 0 0-.214.122 1.93 1.93 0 0 0-.511.523.755.755 0 0 0-.124.246c.185-.27.417-.502.682-.685.12-.071.279-.173.405-.126.055.022.077.09.051.17a.752.752 0 0 1-.141.234c-.13.159-.302.275-.495.332a.986.986 0 0 1-.59-.007 1.071 1.071 0 0 1-.486-.36 1.125 1.125 0 0 1-.222-.572.227.227 0 0 1 .105-.2.208.208 0 0 1 .2.04c.13.093.242.21.332.343.135.198.225.424.264.663.027.183.023.282.034.282Z" fill="#263238"/><path d="m51.14 96.073.153 1.182-.1 2.662-3.36.084-.12-2.746.38-1.632 3.048.45Z" fill="#455A64"/><path d="M49.53 99.721c-.02 0 .029-.813.108-1.818.08-1.005.163-1.822.182-1.825.019-.002-.028.816-.107 1.82-.08 1.006-.163 1.823-.182 1.823Z" fill="#263238"/><path d="m51.204 99.477-3.394.042v.486l3.396-.002-.002-.526ZM47.82 97.946s.024-.056.086-.14c.089-.12.189-.231.3-.33.161-.152.344-.279.54-.376.345-.174.735-.23 1.112-.158.377.072.722.268.984.557.099.114.181.24.246.378a.45.45 0 0 1 .053.157 3.804 3.804 0 0 0-.35-.484 1.77 1.77 0 0 0-1.261-.534 2.018 2.018 0 0 0-1.284.516c-.276.237-.413.427-.426.414Z" fill="#263238"/><path d="m49.516 21.774-.026 11.987 4.984.245.145-2.916s1.77.362 2.226-1.325c.293-1.085.214-9.464.214-9.464l-7.543 1.473Z" fill="#B78876"/><path d="M57.713 21.144c-.785.232-.957 1.546-.957 1.546l-1.23 2.808c-.627-.506-1.47-.477-1.629.662-.115.822.876.988.876.988-.578 1.014-.968 1.834-1.809 2.797-.903 1.05-1.416 1.153-2.4 1.166h-1.088s-.533-1.783-1.517-6.238c-1.091-4.944 4.57-4.308 5.622-5.57 1.71-2.052 6.612 1.11 4.132 1.84Z" fill="#263238"/><path d="M59.094 20.062a1.131 1.131 0 0 0-.376-.674 1.066 1.066 0 0 0-.71-.26.715.715 0 0 0-.14-.884 1.069 1.069 0 0 0-.897-.22 3.222 3.222 0 0 0-.895.33 1.563 1.563 0 0 0-.577-.788 1.701 1.701 0 0 0-.961-.245c-1.53 0-2.335 1.08-3.157 2.182-.12.206-.291.374-.496.486a1.29 1.29 0 0 1-.46.053 3.252 3.252 0 0 0-1.65.516 3.393 3.393 0 0 0-1.18 1.3c-.534 1.067-.934 3.535.452 5.081l.835 1.924 7.988-6.534c.058.03.559.283.944.075.956-.521.554-1.387.554-1.387.077-.056.807-.425.726-.955Z" fill="#263238"/><path d="M51.702 26.495c.067.301.057.614-.028.91a1.797 1.797 0 0 1-.353.835c-.034-.017.126-.384.229-.863.103-.48.115-.882.152-.882ZM52.3 25.906c.042.295.026.595-.047.884a2.224 2.224 0 0 1-.263.835c.021-.29.068-.578.14-.86.03-.291.087-.579.17-.859ZM54.025 23.924c.012.017-.129.123-.308.34-.23.287-.411.61-.538.959a8.445 8.445 0 0 0-.297 1.078 1.684 1.684 0 0 1-.124.441 1.76 1.76 0 0 1 .036-.47c.05-.377.14-.747.268-1.105.13-.362.33-.693.59-.972a.972.972 0 0 1 .373-.271ZM54.727 22.576c.015 0 .066.115.098.323.036.273.02.552-.045.82-.063.267-.177.52-.336.741-.122.17-.214.252-.233.241-.02-.01.306-.413.447-1.014.141-.6.03-1.107.069-1.111ZM48.778 25.573c-.017.034-.17-.022-.34-.121-.172-.1-.298-.203-.28-.236.016-.034.168.024.34.123.17.1.297.204.28.235ZM51.185 24.292a.746.746 0 0 1-.141.521c-.154.263-.362.4-.383.373-.022-.026.134-.198.274-.441.139-.243.214-.462.25-.453ZM51.925 23.881a1.044 1.044 0 0 1-.214.623c-.199.314-.449.482-.468.442-.02-.04.177-.22.364-.523.096-.187.202-.368.318-.542ZM55.605 18.856s-.094-.073-.274-.179a1.791 1.791 0 0 0-.834-.22 2.184 2.184 0 0 0-1.227.337c-.442.3-.802.715-1.042 1.202a5.375 5.375 0 0 0-.428 1.125l-.021.075-.067-.038a2.44 2.44 0 0 0-1.11-.294 2.584 2.584 0 0 0-.905.142c-.26.099-.508.227-.74.382a.76.76 0 0 1 .166-.153 2.512 2.512 0 0 1 1.479-.477c.406 0 .807.098 1.168.29l-.087.04c.099-.4.242-.788.428-1.154.25-.507.628-.936 1.093-1.241a2.227 2.227 0 0 1 1.284-.33c.303.014.598.108.856.272.069.045.133.098.19.157.054.04.073.062.071.064Z" fill="#455A64"/><path d="M58.227 19.514c-.01 0 .137-.04.285.132a.511.511 0 0 1 .116.376.595.595 0 0 1-.291.428.803.803 0 0 1-.606.087 1.752 1.752 0 0 1-.623-.314c-.195-.16-.399-.308-.612-.442a2.438 2.438 0 0 0-.736-.267 2.984 2.984 0 0 0-1.498.106 4.06 4.06 0 0 0-1.11.583c-.583.43-.87.793-.889.773.058-.091.125-.177.2-.254.195-.218.41-.417.641-.594a3.968 3.968 0 0 1 1.128-.623 3.035 3.035 0 0 1 1.562-.12c.27.052.532.147.773.283.215.134.422.281.618.442.172.14.37.244.58.305.18.051.373.03.54-.06a.505.505 0 0 0 .263-.358.469.469 0 0 0-.084-.333.425.425 0 0 0-.257-.15Z" fill="#455A64"/><path d="M81.445 28.71c-.189-.172-2.727.927-2.727.927s-1.893 1.546-2.672 2.44l-.482.414-7.203 5.781-8.86-3.804-1.925 5.1s9.946 4.09 11.461 3.39c1.646-.76 7.777-7.386 7.792-7.408l.886-.883s.468 0 .824-.031c.355-.031 1.395-.736 1.395-.736.099-.196.166-.407.201-.625a.412.412 0 0 0-.02-.261.396.396 0 0 0-.172-.192c.036-.17.041-.345.017-.517-.041-.291-.428-.63-.428-.63a.93.93 0 0 0 .237-.461c.086-.338-.336-.663-.336-.663s1.475-1.034 1.832-1.217c.357-.183.368-.45.18-.623Z" fill="#B78876"/><path d="M60.808 80.97c.03-.336.045-.594.045-.756l1.001-16.486s-.84-4.816-1.239-6.093l-3.575-1.43-4.766 1.916-.05-.64-7.012 2.504s-.182 4.942 0 6.447c.06.483.242 1.731.465 3.203 0 0 .226 3.196.273 3.375.17.652.214 2.25.214 3.849 0 2.032.108 4.451.232 5.6.124 1.148.181 13.793.181 13.793h5.18l.665-20.138c.11-2.158.278-5.459.385-7.847l1.215 7.436c0 .272.74 4.525.74 4.525a41.54 41.54 0 0 0-.316 4.033c-.086 3.756-.511 11.992-.511 11.992h5.067S60.525 84.35 60.82 80.97h-.013Z" fill="#263238"/><path d="M61.688 62.732a2.036 2.036 0 0 1-.469-.259 6.441 6.441 0 0 1-1.001-.82 6.687 6.687 0 0 1-.826-1.005 1.921 1.921 0 0 1-.263-.475c.117.135.226.277.325.427.258.344.539.67.84.974.303.301.626.58.966.833.15.097.293.206.428.325ZM52.643 65.734a.643.643 0 0 1-.099-.164 4.964 4.964 0 0 1-.214-.477 8.069 8.069 0 0 1-.473-1.668 8.244 8.244 0 0 1-.102-1.734c.013-.22.03-.4.049-.524a.637.637 0 0 1 .04-.19c.018 0 0 .277-.01.716a9.87 9.87 0 0 0 .56 3.371c.153.413.264.661.249.67Z" fill="#455A64"/><path d="M53.392 71.943a1.474 1.474 0 0 1-.066-.287l-.141-.788c-.112-.692-.261-1.602-.428-2.61l-.572-3.693c.117.346.198.704.244 1.067a144.511 144.511 0 0 1 .832 5.222c.041.318.078.583.106.796.019.096.027.195.025.293Z" fill="#455A64"/><path d="M41.178 44.441s-.683 4.968-.811 6.71c-.077 1.049.954 2.43 1.742 2.542.787.113 3.44.265 3.44.265l.215-3.117-.069-.62-.824-.16.248-4.944-3.941-.676Z" fill="#B78876"/><path d="M45.012 45.284c.02.089.032.179.032.27.013.174.021.426.028.74.015.623 0 1.487-.052 2.43a63.653 63.653 0 0 1-.184 2.43c-.032.31-.057.561-.079.733-.005.091-.02.18-.045.268-.01-.09-.01-.182 0-.272.01-.199.026-.442.043-.738l.15-2.43c.057-.937.079-1.807.085-2.43v-.738a1.308 1.308 0 0 1 .022-.263Z" fill="#AA6550"/><path d="M45.274 60.067c1.349.517 2.825.559 4.257.43 1.431-.127 2.848-.425 4.28-.565 2.17-.209 4.357-.06 6.481.442.148.047.304.062.458.044a.378.378 0 0 0 .206-.096.398.398 0 0 0 .117-.2c.039-.247-.224-.42-.447-.514a18.595 18.595 0 0 0-7.732-1.494c-2.65.061-5.258.69-7.66 1.847" fill="#000" opacity=".3"/><path d="m65.915 36.731-7.601-3.906a24.025 24.025 0 0 0-3.612-.163H49.67s-6.095 1.855-7.103 3.568l-2.612 8.085 5.165.804.642 5.81s-.642 6.727-.642 7.703c-.014.453.013.905.08 1.352 0 0 10.335-1.621 12.88-.766 2.544.855 3.231.766 3.231.766s-.214-2.792-.4-4.418l-.587-8.108-.427-6.185 4.782 1.511 1.235-6.053Z" fill="#FF725E"/><path d="M45.072 45.184c-.019 0-.07-.333-.184-.872a15.175 15.175 0 0 0-.599-2.061 16.772 16.772 0 0 0-.886-1.971l-.312-.579a.948.948 0 0 1-.105-.22c.056.059.105.125.146.196.087.13.214.322.344.565.361.628.67 1.287.925 1.969.25.676.44 1.374.569 2.085.047.272.077.493.092.647.013.08.017.16.01.241ZM54.822 47.475a.388.388 0 0 1-.028.108l-.096.299c-.043.13-.096.287-.167.468-.07.18-.145.389-.244.61-.186.441-.428.976-.732 1.546-.304.57-.663 1.175-1.07 1.79a19.785 19.785 0 0 1-1.26 1.658c-.405.49-.81.904-1.156 1.24-.169.172-.334.316-.473.441-.139.126-.265.24-.368.325l-.24.195a.512.512 0 0 1-.087.064s.023-.031.075-.082l.224-.22c.099-.09.214-.202.356-.337.14-.134.295-.28.46-.455a20.745 20.745 0 0 0 2.38-2.905c.414-.607.77-1.215 1.07-1.767.299-.552.554-1.083.748-1.527.103-.22.182-.426.257-.603.075-.176.137-.331.186-.46.05-.127.084-.22.116-.29a.446.446 0 0 1 .05-.098ZM58.33 33.357c-.2.295-.336.631-.4.986a3.516 3.516 0 0 0 0 1.16c.083.472.19.94.321 1.4.263.99.54 1.871.751 2.507.1.3.184.553.253.754.035.09.063.184.081.28a1.486 1.486 0 0 1-.124-.265c-.07-.172-.171-.424-.287-.74a29.293 29.293 0 0 1-.785-2.505c-.128-.463-.23-.933-.306-1.407a3.476 3.476 0 0 1 .017-1.191c.053-.265.153-.518.295-.745a.828.828 0 0 1 .184-.234Z" fill="#263238"/><path d="M43.989 41.87a1.088 1.088 0 0 1-.407.285 1.99 1.99 0 0 1-1.164.168 2.022 2.022 0 0 1-1.062-.52 1.1 1.1 0 0 1-.303-.395c.015-.013.126.144.355.334.298.248.654.41 1.033.47.378.06.766.014 1.122-.132.263-.11.415-.226.425-.21ZM58.555 38.22a.9.9 0 0 1-.062.17 6.473 6.473 0 0 1-1.355 1.995 5.056 5.056 0 0 1-2.414 1.355 4.379 4.379 0 0 1-1.635.072 4.7 4.7 0 0 1-1.654-.607c-1.05-.605-1.939-1.372-2.91-1.739a4.425 4.425 0 0 0-2.684-.152c-.6.149-1.166.416-1.667.789-.35.267-.515.455-.524.441.15-.177.317-.337.499-.479a4.614 4.614 0 0 1 2.12-.927 4.553 4.553 0 0 1 2.292.227c.995.37 1.89 1.14 2.928 1.736.498.303 1.045.51 1.615.61a4.335 4.335 0 0 0 1.599-.066 5.017 5.017 0 0 0 2.38-1.31c.449-.437.835-.939 1.147-1.49.109-.194.19-.35.241-.457.024-.058.052-.114.084-.167ZM63.317 35.388c.042.082.075.168.098.257.07.239.113.486.124.735a3.506 3.506 0 0 1-.72 2.316 8.502 8.502 0 0 1-.955.932 2.612 2.612 0 0 0-.642.841c-.105.218-.155.46-.143.703.013.172.049.265.038.267-.01.002-.015-.02-.032-.064a.866.866 0 0 1-.05-.199c-.028-.252.01-.509.114-.74.15-.338.37-.64.642-.883.332-.286.645-.595.935-.926a3.558 3.558 0 0 0 .73-2.24 5.625 5.625 0 0 0-.139-.999ZM50.955 54.013a.824.824 0 0 1-.214.082c-.206.06-.417.107-.63.137-.32.055-.648.035-.96-.057a1.413 1.413 0 0 1-.503-.292 4.42 4.42 0 0 1-.41-.464 2.166 2.166 0 0 0-.429-.41 2.07 2.07 0 0 0-.49-.244 2.104 2.104 0 0 0-.918-.09c-.21.023-.413.083-.603.176-.069.04-.14.074-.214.102a.705.705 0 0 1 .192-.142c.19-.112.398-.188.614-.22a2.062 2.062 0 0 1 1.48.32 2.1 2.1 0 0 1 .453.428c.123.16.256.312.398.453.136.123.293.218.464.279.298.09.612.117.92.077.52-.064.846-.155.85-.135ZM60.796 53.543a.366.366 0 0 1-.069.06c-.068.052-.14.101-.214.145a3.09 3.09 0 0 1-.856.374c-.453.12-.924.148-1.388.084a3.366 3.366 0 0 1-1.58-.663c-.44-.368-.862-.76-1.262-1.173a4.037 4.037 0 0 0-1.121-.795 2.069 2.069 0 0 0-.889-.204c-.214 0-.338.038-.34.024a1.197 1.197 0 0 1 .338-.07c.316-.015.632.045.923.174.428.192.82.46 1.157.793.392.358.781.794 1.26 1.158.45.34.974.561 1.526.64.452.068.912.05 1.357-.055.298-.073.586-.185.856-.333a2.74 2.74 0 0 1 .302-.16Z" fill="#fff"/><path d="M78.984 22.06a11.017 11.017 0 0 1-3.96-3.314 11.474 11.474 0 0 1-2.074-4.807 11.646 11.646 0 0 1 .26-5.256 11.387 11.387 0 0 1 2.54-4.563 10.915 10.915 0 0 1 4.267-2.88c1.622-.6 3.358-.795 5.067-.57 1.71.224 3.343.862 4.768 1.861 1.425 1 2.602 2.333 3.433 3.89a11.601 11.601 0 0 1 1.275 6.877 11.448 11.448 0 0 1-2.898 6.33 10.843 10.843 0 0 1-5.955 3.35 10.63 10.63 0 0 1-6.723-.918Zm9.12-19.692a9.911 9.911 0 0 0-7.041-.667c-2.35.651-4.396 2.147-5.771 4.219a10.795 10.795 0 0 0-1.728 7.079 10.662 10.662 0 0 0 3.145 6.538 10.047 10.047 0 0 0 6.507 2.857A9.988 9.988 0 0 0 89.96 20.2a10.584 10.584 0 0 0 3.741-6.195c.492-2.46.117-5.02-1.058-7.218a10.344 10.344 0 0 0-4.539-4.418Z" fill="#263238"/><path d="M97.448 34.415a1.327 1.327 0 0 1-1.028.17 1.366 1.366 0 0 1-.844-.627l-7.154-11.971a.248.248 0 0 1-.03-.182.24.24 0 0 1 .105-.15l1.525-.972a.23.23 0 0 1 .32.073l7.523 11.671a1.43 1.43 0 0 1 .204 1.087 1.427 1.427 0 0 1-.22.516 1.38 1.38 0 0 1-.401.385Z" fill="#263238"/><path d="M79.247 21.487a11.018 11.018 0 0 1-3.962-3.314 11.476 11.476 0 0 1-2.077-4.808c-.316-1.75-.227-3.551.26-5.258a11.389 11.389 0 0 1 2.54-4.565 10.917 10.917 0 0 1 4.268-2.88 10.62 10.62 0 0 1 5.07-.572c1.709.225 3.343.863 4.769 1.864 1.425 1 2.602 2.334 3.433 3.892a11.603 11.603 0 0 1 1.273 6.877 11.45 11.45 0 0 1-2.897 6.33 10.846 10.846 0 0 1-5.954 3.35 10.631 10.631 0 0 1-6.723-.916Zm9.12-19.692a9.912 9.912 0 0 0-7.041-.667c-2.35.651-4.396 2.147-5.771 4.219a10.795 10.795 0 0 0-1.728 7.079 10.663 10.663 0 0 0 3.145 6.538 10.047 10.047 0 0 0 6.507 2.857 9.988 9.988 0 0 0 6.744-2.196 10.584 10.584 0 0 0 3.741-6.194c.492-2.46.117-5.02-1.058-7.218a10.344 10.344 0 0 0-4.539-4.418Z" fill="#455A64"/><path d="m88.561 21.198 1.918-1.221 7.607 12.73c.15.25.196.55.13.835a1.104 1.104 0 0 1-.479.686l-.11.07a1.041 1.041 0 0 1-.81.135 1.073 1.073 0 0 1-.663-.495l-7.608-12.73.015-.01Z" fill="#455A64"/><path d="M75.796 8.617c.01-.118.03-.235.06-.349.025-.136.059-.27.1-.402.049-.177.106-.352.172-.524l.109-.298c.04-.104.094-.205.143-.316.096-.22.227-.442.358-.674a8.748 8.748 0 0 1 1.048-1.387A8.643 8.643 0 0 1 79.1 3.55c.208-.14.422-.269.642-.386.103-.055.201-.113.3-.16l.286-.125c.164-.073.33-.136.501-.19.127-.047.256-.086.387-.115.11-.032.223-.057.336-.073a2.213 2.213 0 0 1-.325.113c-.129.036-.255.08-.379.132-.166.059-.33.127-.49.203l-.28.13c-.099.047-.195.107-.295.162-.214.108-.411.25-.632.391a8.75 8.75 0 0 0-1.284 1.105 9.09 9.09 0 0 0-1.042 1.363c-.13.22-.263.441-.361.662-.05.106-.105.206-.148.307l-.12.294c-.081.184-.13.36-.184.513-.046.13-.085.261-.115.395a2.324 2.324 0 0 1-.101.347Z" fill="#E0E0E0"/></svg>