<svg width="120" height="120" fill="none" xmlns="http://www.w3.org/2000/svg"><path d="M18.771 13.85a9.949 9.949 0 0 0-.958-4.305 9.631 9.631 0 0 0-2.711-3.42 9.25 9.25 0 0 0-3.9-1.82 9.1 9.1 0 0 0-4.277.155 9.3 9.3 0 0 0-3.765 2.1 9.693 9.693 0 0 0-2.471 3.607 9.973 9.973 0 0 0 .62 8.58l.029.035c.36.628.808 1.06 1.266 1.733l5.449 7.45c.157.216.362.391.596.512a1.65 1.65 0 0 0 1.511 0c.235-.12.439-.296.597-.513l5.341-7.327a21.06 21.06 0 0 0 1.361-1.855l.02-.027a9.864 9.864 0 0 0 1.292-4.904Zm-9.386 4.221a4.04 4.04 0 0 1-2.295-.719 4.239 4.239 0 0 1-1.522-1.914 4.394 4.394 0 0 1-.235-2.465 4.31 4.31 0 0 1 1.13-2.184A4.094 4.094 0 0 1 8.58 9.623a4.012 4.012 0 0 1 2.388.243c.755.323 1.4.87 1.854 1.57.454.702.696 1.527.696 2.37 0 .56-.106 1.116-.314 1.633a4.275 4.275 0 0 1-.895 1.385c-.384.396-.84.71-1.341.924a4.017 4.017 0 0 1-1.582.324ZM120 72.616a4.385 4.385 0 0 0-.426-1.894 4.241 4.241 0 0 0-1.195-1.502 4.079 4.079 0 0 0-1.717-.8 4.01 4.01 0 0 0-1.882.069 4.102 4.102 0 0 0-1.658.923 4.272 4.272 0 0 0-1.089 1.585 4.395 4.395 0 0 0 .263 3.777v.016c.16.265.36.474.56.763l2.401 3.285c.07.095.16.173.264.226a.724.724 0 0 0 .667 0 .752.752 0 0 0 .263-.226l2.36-3.229c.215-.262.416-.536.601-.822v-.013a4.322 4.322 0 0 0 .588-2.158Zm-4.137 1.856c-.36 0-.712-.11-1.011-.317-.3-.207-.533-.5-.671-.844a1.928 1.928 0 0 1 .395-2.048c.254-.263.579-.442.932-.514a1.768 1.768 0 0 1 1.052.107c.333.142.617.383.817.692a1.924 1.924 0 0 1 .169 1.765 1.882 1.882 0 0 1-.394.61 1.775 1.775 0 0 1-1.289.553v-.004ZM105.725 106.296c4.045-4.176 4.045-10.947 0-15.123-4.046-4.177-10.605-4.177-14.65 0-4.046 4.176-4.046 10.947 0 15.123 4.045 4.176 10.604 4.176 14.65 0Z" fill="#F5F5F5"/><path d="M98.407 107.64a8.435 8.435 0 0 1-4.792-1.499 8.847 8.847 0 0 1-3.177-3.995 9.169 9.169 0 0 1-.492-5.143 8.995 8.995 0 0 1 2.36-4.559 8.544 8.544 0 0 1 4.415-2.437 8.37 8.37 0 0 1 4.982.506 8.692 8.692 0 0 1 3.871 3.279 9.113 9.113 0 0 1 1.453 4.946 9.058 9.058 0 0 1-2.527 6.291 8.496 8.496 0 0 1-6.093 2.611Zm0-16.28a6.988 6.988 0 0 0-3.97 1.244 7.332 7.332 0 0 0-2.633 3.31 7.599 7.599 0 0 0-.407 4.263 7.457 7.457 0 0 0 1.956 3.778 7.088 7.088 0 0 0 3.66 2.019 6.95 6.95 0 0 0 4.129-.42 7.202 7.202 0 0 0 3.207-2.717 7.553 7.553 0 0 0 1.204-4.1 7.507 7.507 0 0 0-2.095-5.214 7.044 7.044 0 0 0-5.051-2.163Z" fill="#fff"/><path d="M98.348 101.777a3.102 3.102 0 0 1-1.765-.553 3.254 3.254 0 0 1-1.17-1.472 3.377 3.377 0 0 1-.18-1.895c.123-.636.425-1.22.87-1.679a3.148 3.148 0 0 1 1.627-.897 3.084 3.084 0 0 1 1.835.188c.581.249 1.077.67 1.426 1.21.348.539.534 1.173.534 1.822a3.336 3.336 0 0 1-.932 2.317 3.126 3.126 0 0 1-2.245.959Zm0-5.037c-.336 0-.665.103-.944.296-.28.193-.498.467-.626.788-.13.32-.163.673-.097 1.014.065.34.227.653.465.898a1.655 1.655 0 0 0 1.853.38c.31-.132.576-.357.763-.646a1.786 1.786 0 0 0-.214-2.212 1.676 1.676 0 0 0-1.2-.512v-.006Z" fill="#fff"/><path d="M98.35 98.508h-4.014l.701 1.278-9.447 4.469.318.549 9.478-4.419.65 1.27 2.314-3.147Z" fill="#E0E0E0"/><path d="m85.592 104.249-.1-.101a1.893 1.893 0 0 0-.876-.503 1.853 1.853 0 0 0-1.001.021l-3.768 1.132 2.098.952-.842 2.314 3.536-1.289c.388-.143.721-.411.95-.765.229-.354.341-.774.321-1.199l-.318-.562ZM39.873 106.496l.077-.027.223-.066.858-.265 3.212-.931-.03.056c-.165-.57-.35-1.206-.545-1.89v-.029l.026-.024c.89-.77 1.647-1.689 2.24-2.72.33-.581.581-1.205.749-1.856a5.573 5.573 0 0 0 .12-2.12 6.743 6.743 0 0 0-2.11-3.977 7.655 7.655 0 0 0-4.366-1.943 6.25 6.25 0 0 0-3.51.726 7.068 7.068 0 0 0-2.617 2.272 6.674 6.674 0 0 0-1.125 3.086c-.015.265-.053.53-.048.795.005.265.012.53.02.774.041.498.127.99.257 1.472.128.451.3.888.514 1.304.21.387.457.75.74 1.084a7.019 7.019 0 0 0 1.797 1.49 9.045 9.045 0 0 0 3.184 1.135h.018v.015l.257 1.204c.025.133.046.236.059.31l.02.109a.436.436 0 0 1-.025-.096l-.072-.302-.278-1.214.023.021a8.92 8.92 0 0 1-3.222-1.11 7.073 7.073 0 0 1-1.823-1.498 6.517 6.517 0 0 1-.77-1.1 7.12 7.12 0 0 1-.54-1.326 8.689 8.689 0 0 1-.257-1.492l-.023-.796c0-.265.033-.53.049-.795a6.772 6.772 0 0 1 1.14-3.15 7.207 7.207 0 0 1 2.663-2.322 6.37 6.37 0 0 1 3.595-.74 7.76 7.76 0 0 1 4.45 1.981 6.632 6.632 0 0 1 1.44 1.885c.098.17.184.347.258.53.079.171.146.349.2.53.054.186.113.366.162.55.048.182.064.373.097.558a5.726 5.726 0 0 1-.13 2.172 7.663 7.663 0 0 1-.771 1.882 10.636 10.636 0 0 1-2.278 2.738l.018-.053.532 1.89.012.043-.04.013-3.249.891-.855.23-.216.056-.11.04ZM44.665 106.5c-.729.282-1.474.519-2.231.708a18.72 18.72 0 0 1-2.27.564c.73-.279 1.475-.514 2.231-.705a19.13 19.13 0 0 1 2.27-.567ZM43.662 108.668a1.8 1.8 0 0 1-.77.323c-.268.09-.551.115-.83.075a3.87 3.87 0 0 1 .796-.218c.262-.087.531-.148.804-.18Z" fill="#E0E0E0"/><path d="M40.79 106.246a.305.305 0 0 1-.025-.075c-.016-.058-.034-.132-.06-.225-.05-.21-.123-.499-.215-.867l-.77-3.2c-.162-.676-.337-1.415-.514-2.208a1.497 1.497 0 0 0-.223-.546.38.38 0 0 0-.206-.171.366.366 0 0 0-.264.01.56.56 0 0 0-.187.22.581.581 0 0 0-.055.286.885.885 0 0 0 .229.57c.152.161.339.283.546.353a1.3 1.3 0 0 0 .643.052c.225-.035.439-.128.621-.27a1.41 1.41 0 0 0 .421-.544 2.2 2.2 0 0 0 .15-1.436 1.296 1.296 0 0 0-.322-.65.5.5 0 0 0-.614-.087.546.546 0 0 0-.116.633c.114.216.278.399.479.53.378.31.834.505 1.314.56.23.02.46-.014.673-.104.201-.096.377-.24.514-.421.137-.176.22-.39.236-.615a.82.82 0 0 0-.195-.597.499.499 0 0 0-.514-.186.639.639 0 0 0-.242.163.664.664 0 0 0-.148.257c-.126.39-.015.824.03 1.224.124.796.258 1.554.394 2.235.257 1.357.48 2.458.631 3.229.072.374.131.668.172.878l.041.23a.411.411 0 0 1 0 .08.382.382 0 0 1-.023-.077l-.056-.226c-.049-.209-.113-.501-.198-.872a146.47 146.47 0 0 1-.675-3.221 67.283 67.283 0 0 1-.411-2.237c-.028-.204-.062-.408-.082-.623a1.58 1.58 0 0 1 .051-.663.801.801 0 0 1 .18-.306.768.768 0 0 1 .29-.195.63.63 0 0 1 .66.22.95.95 0 0 1 .229.692 1.259 1.259 0 0 1-.257.695 1.528 1.528 0 0 1-.578.466 1.561 1.561 0 0 1-.737.117 2.683 2.683 0 0 1-1.387-.586 1.513 1.513 0 0 1-.513-.602.627.627 0 0 1 .166-.802.577.577 0 0 1 .789.094c.184.2.309.45.36.722.12.515.063 1.058-.162 1.534a1.554 1.554 0 0 1-.465.592c-.2.155-.434.257-.68.297a1.44 1.44 0 0 1-1.305-.456 1.008 1.008 0 0 1-.257-.66.697.697 0 0 1 .074-.354.671.671 0 0 1 .24-.264.448.448 0 0 1 .354-.019.59.59 0 0 1 .257.218c.117.18.2.381.244.593.182.796.351 1.538.513 2.217l.72 3.205c.079.371.143.662.19.874.017.093.033.167.045.228a.253.253 0 0 1 0 .091ZM44.489 107.488a12.14 12.14 0 0 1-1.798.586c-.603.194-1.22.343-1.844.446a12.145 12.145 0 0 1 1.798-.586c.603-.194 1.22-.343 1.844-.446Z" fill="#E0E0E0"/><path d="M114.289 119.725c0 .037-24.505.069-54.73.069-30.224 0-54.735-.032-54.735-.069 0-.037 24.5-.069 54.735-.069s54.73.029 54.73.069Z" fill="#263238"/><path d="M109.765 13.094H9.398v6.638h100.367v-6.638Z" fill="#E0E0E0"/><path d="M109.742 25.828H9.375v58.11h100.367v-58.11Z" fill="#fff"/><path d="M9.398 19.682H23.18l1.364-4.104h22.34l1.364 4.104h61.517v6.288H9.398v-6.288Z" fill="#EBEBEB"/><path d="M12.709 15.74a.798.798 0 0 1-.127.433.761.761 0 0 1-.34.287.733.733 0 0 1-.822-.169.803.803 0 0 1-.164-.85.775.775 0 0 1 .279-.349.739.739 0 0 1 .954.096.778.778 0 0 1 .22.552ZM15.045 15.74a.797.797 0 0 1-.127.433.76.76 0 0 1-.34.287.733.733 0 0 1-.822-.169.803.803 0 0 1-.164-.85.774.774 0 0 1 .278-.349.739.739 0 0 1 .955.096.778.778 0 0 1 .22.552ZM17.377 15.74a.797.797 0 0 1-.127.433.76.76 0 0 1-.34.287.733.733 0 0 1-.822-.169.803.803 0 0 1-.164-.85.775.775 0 0 1 .279-.349.738.738 0 0 1 .954.096.778.778 0 0 1 .22.552Z" fill="#263238"/><path d="M98.671 24.714H29.813a1.88 1.88 0 0 1-1.351-.577 2.005 2.005 0 0 1-.56-1.395c0-.523.201-1.025.56-1.395a1.88 1.88 0 0 1 1.35-.578h68.86c.506 0 .992.208 1.35.578.359.37.56.872.56 1.395s-.201 1.025-.56 1.395c-.358.37-.844.577-1.35.577Z" fill="#FAFAFA"/><path d="M31.453 23.009v.668h-.326v-.615c0-.188-.084-.265-.228-.265-.144 0-.272.1-.272.313v.577H30.3V22.07h.326v.562a.504.504 0 0 1 .36-.138.43.43 0 0 1 .35.143.458.458 0 0 1 .116.372ZM32.485 23.617a.446.446 0 0 1-.257.074.361.361 0 0 1-.309-.104.384.384 0 0 1-.112-.315v-.477h-.174v-.265h.174v-.284h.326v.284h.28v.265h-.28v.477a.14.14 0 0 0 .035.112.127.127 0 0 0 .107.042.206.206 0 0 0 .13-.045l.08.236ZM33.36 23.617a.456.456 0 0 1-.257.074.361.361 0 0 1-.309-.104.384.384 0 0 1-.112-.315v-.477h-.174v-.265h.174v-.284h.326v.284h.283v.265h-.283v.477a.141.141 0 0 0 .036.111.134.134 0 0 0 .106.043.214.214 0 0 0 .133-.045l.077.236ZM34.782 23.091a.58.58 0 0 1-.153.428.546.546 0 0 1-.41.171.427.427 0 0 1-.338-.14v.53h-.327v-1.59h.319v.134a.444.444 0 0 1 .354-.15.534.534 0 0 1 .412.18.568.568 0 0 1 .143.437Zm-.331 0a.301.301 0 0 0-.06-.157.28.28 0 0 0-.438-.017.301.301 0 0 0-.052.32.295.295 0 0 0 .105.129.281.281 0 0 0 .371-.047.296.296 0 0 0 .074-.228ZM34.919 22.708c.006-.052.03-.1.067-.134a.202.202 0 0 1 .274 0 .215.215 0 0 1 .059.222.214.214 0 0 1-.112.13.2.2 0 0 1-.237-.053.214.214 0 0 1-.051-.165Zm0 .777c.006-.052.03-.1.067-.135a.202.202 0 0 1 .274 0 .215.215 0 0 1 .059.223.214.214 0 0 1-.112.129.2.2 0 0 1-.237-.052.214.214 0 0 1-.051-.165ZM36.132 21.848h.293l-.694 2.038h-.29l.69-2.038ZM36.803 21.848h.29l-.691 2.038h-.293l.694-2.038Z" fill="#E0E0E0"/><path d="M98.604 36.27H38.609c-.898 0-1.76-.368-2.395-1.024a3.555 3.555 0 0 1-.992-2.472c.001-.927.358-1.816.993-2.472a3.337 3.337 0 0 1 2.394-1.025h59.995c.898.001 1.759.37 2.394 1.025.635.656.992 1.545.993 2.472 0 .927-.357 1.817-.992 2.472a3.334 3.334 0 0 1-2.395 1.025Z" fill="#FAFAFA"/><path d="M98.612 36.277c.478-.01.95-.12 1.386-.324.43-.204.813-.498 1.127-.863.314-.365.551-.793.696-1.257a3.643 3.643 0 0 0-.241-2.664 3.489 3.489 0 0 0-1.009-1.188 3.278 3.278 0 0 0-1.554-.626 7.66 7.66 0 0 0-.896-.026h-9.56l-49.939.018c-.6.002-1.188.17-1.702.488a3.382 3.382 0 0 0-1.207 1.29 3.517 3.517 0 0 0 .087 3.459c.31.517.748.94 1.269 1.224a3.356 3.356 0 0 0 1.666.397h16.738l22.451.016 15.151.021H98.62 93.075l-15.15.024-22.452.014H38.735a3.445 3.445 0 0 1-1.728-.414 3.522 3.522 0 0 1-1.538-1.696 3.672 3.672 0 0 1-.2-2.315 3.578 3.578 0 0 1 1.225-1.95 3.386 3.386 0 0 1 2.128-.757l49.951.088h9.561c.302-.008.605.002.906.03.571.072 1.115.294 1.58.643.407.302.745.694.989 1.146.243.453.386.956.418 1.473a3.75 3.75 0 0 1-.149 1.3c-.117.366-.29.71-.514 1.02a3.422 3.422 0 0 1-1.348 1.121 3.405 3.405 0 0 1-1.027.284c-.254.024-.377.024-.377.024Z" fill="#263238"/><path d="m39.988 33.52.126-.292a.947.947 0 0 0 .54.175c.222 0 .312-.077.312-.18 0-.316-.947-.098-.947-.724 0-.286.223-.53.688-.53a1.07 1.07 0 0 1 .565.148l-.116.297a.89.89 0 0 0-.451-.132c-.224 0-.311.087-.311.193 0 .31.947.096.947.713 0 .281-.226.53-.69.53a1.12 1.12 0 0 1-.663-.198ZM42.792 33.154h-.947a.348.348 0 0 0 .132.202.329.329 0 0 0 .227.063.415.415 0 0 0 .314-.127l.192.217a.707.707 0 0 1-.752.166.73.73 0 0 1-.325-.24.765.765 0 0 1-.153-.382.676.676 0 0 1 .195-.482.635.635 0 0 1 .473-.183.604.604 0 0 1 .47.186.643.643 0 0 1 .182.484c0 .024-.005.064-.008.096Zm-.952-.22h.616a.326.326 0 0 0-.108-.19.308.308 0 0 0-.4 0 .326.326 0 0 0-.108.19ZM44.118 32.952v.74h-.339v-.162a.402.402 0 0 1-.383.18c-.292 0-.467-.17-.467-.392 0-.223.157-.387.537-.387h.29c0-.16-.095-.265-.29-.265a.588.588 0 0 0-.36.119l-.13-.265a.943.943 0 0 1 .539-.157c.372.016.603.2.603.589Zm-.362.331v-.132H43.5c-.169 0-.223.063-.223.15 0 .088.077.157.203.157a.263.263 0 0 0 .167-.04.276.276 0 0 0 .11-.135ZM45.227 32.373v.344h-.082a.299.299 0 0 0-.248.097.32.32 0 0 0-.083.258v.613h-.365V32.39h.347v.17a.515.515 0 0 1 .431-.188ZM45.343 33.039a.686.686 0 0 1 .209-.49.643.643 0 0 1 .49-.176c.114-.01.23.017.329.076.1.058.18.147.23.253l-.282.156a.318.318 0 0 0-.115-.13.304.304 0 0 0-.165-.047.341.341 0 0 0-.245.105.364.364 0 0 0 0 .506.341.341 0 0 0 .245.105.298.298 0 0 0 .166-.047.313.313 0 0 0 .114-.131l.283.159a.589.589 0 0 1-.232.25.563.563 0 0 1-.328.076.628.628 0 0 1-.49-.175.667.667 0 0 1-.209-.49ZM48.08 32.947v.74h-.365v-.684c0-.21-.093-.305-.257-.305s-.3.111-.3.35v.638h-.365v-1.784h.364v.626a.546.546 0 0 1 .398-.154.477.477 0 0 1 .395.157.51.51 0 0 1 .13.416ZM48.98 33.475c0-.061.024-.12.066-.165a.223.223 0 0 1 .32 0 .237.237 0 0 1 0 .33.222.222 0 0 1-.32 0 .237.237 0 0 1-.066-.165ZM49.59 33.473a.24.24 0 0 1 .039-.13.227.227 0 0 1 .102-.084.22.22 0 0 1 .245.052.24.24 0 0 1-.035.358.221.221 0 0 1-.287-.029.233.233 0 0 1-.064-.167ZM50.199 33.475c0-.061.024-.12.066-.165a.222.222 0 0 1 .32 0 .237.237 0 0 1-.074.381.22.22 0 0 1-.246-.05.231.231 0 0 1-.066-.166Z" fill="#E0E0E0"/><path d="M28.239 42.354c0 .04-2.41.069-5.378.069s-5.377-.03-5.377-.069c0-.04 2.406-.069 5.377-.069 2.971 0 5.378.037 5.378.07Z" fill="#000"/><path d="M28.66 45.54H17.484v11.536H28.66V45.539Z" fill="#FF725E"/><path d="M96.57 48.256c0 .038-13.866.07-30.979.07-17.112 0-30.982-.032-30.982-.07 0-.037 13.867-.069 30.982-.069s30.98.03 30.98.07ZM51.552 52.596c0 .04-3.657.07-8.164.07-4.506 0-8.166-.03-8.166-.07 0-.04 3.655-.069 8.166-.069 4.512 0 8.164.032 8.164.07Z" fill="#000"/><path d="M86.663 56.626c0 .037-11.517.07-25.72.07s-25.72-.033-25.72-.07c0-.037 11.514-.071 25.72-.071s25.72.032 25.72.071Z" fill="#E0E0E0"/><path d="M28.239 63.034c0 .037-2.41.069-5.378.069s-5.377-.032-5.377-.07c0-.036 2.406-.068 5.377-.068 2.971 0 5.378.024 5.378.069Z" fill="#000"/><path d="M28.66 66.2H17.484v11.536H28.66V66.2Z" fill="#FF725E"/><path d="M100.253 68.917c0 .04-14.696.069-32.82.069-18.125 0-32.824-.03-32.824-.07 0-.04 14.694-.068 32.823-.068 18.13 0 32.821.031 32.821.069ZM51.552 73.264c0 .037-3.657.07-8.164.07-4.506 0-8.166-.033-8.166-.07 0-.037 3.655-.069 8.166-.069 4.512 0 8.164.032 8.164.07Z" fill="#000"/><path d="M95.62 77.288c0 .04-13.52.069-30.196.069-16.676 0-30.202-.03-30.202-.07 0-.04 13.52-.068 30.202-.068 16.681 0 30.196.032 30.196.069Z" fill="#E0E0E0"/><path d="m109.763 84.075-.053-70.985.053.056H9.403l.068-.07v70.986l-.062-.064 100.367.064-100.367.06h-.062V13.008h100.488v.056c-.048 43.23-.072 70.556-.072 71.012Z" fill="#263238"/><path d="M44.168 18.233c0 .04-3.544.069-7.914.069-4.37 0-7.914-.03-7.914-.069 0-.04 3.543-.069 7.914-.069 4.37 0 7.914.032 7.914.069Z" fill="#000"/><path d="M29.892 31.285H15.836v4.372h14.056v-4.372Z" fill="#455A64"/><path d="M54.785 42.733c0 .04-4.365.069-9.758.069-5.392 0-9.758-.03-9.758-.069 0-.04 4.366-.069 9.758-.069 5.393 0 9.758.032 9.758.069ZM54.785 63.034c0 .037-4.365.069-9.758.069-5.392 0-9.758-.032-9.758-.07 0-.036 4.366-.068 9.758-.068 5.393 0 9.758.024 9.758.069ZM97.311 33.938c-.323.001-.639-.098-.908-.283a1.676 1.676 0 0 1-.603-.756 1.738 1.738 0 0 1-.093-.975c.063-.327.218-.628.447-.864.228-.236.52-.396.837-.461.317-.065.645-.032.944.096.299.128.553.345.733.622a1.726 1.726 0 0 1-.204 2.128c-.306.315-.72.493-1.153.493Zm0-3.104c-.272 0-.538.082-.765.238a1.412 1.412 0 0 0-.508.637c-.105.26-.132.546-.08.822.053.276.184.529.377.728a1.337 1.337 0 0 0 1.5.31c.251-.108.467-.29.618-.524a1.455 1.455 0 0 0-.17-1.794 1.355 1.355 0 0 0-.972-.417Z" fill="#FF725E"/><path d="M99.322 34.692a.129.129 0 0 1-.093-.04l-1.063-1.089a.133.133 0 0 1-.037-.094.136.136 0 0 1 .037-.094.13.13 0 0 1 .092-.04.125.125 0 0 1 .09.04l1.064 1.09a.137.137 0 0 1 .026.143.134.134 0 0 1-.046.06.128.128 0 0 1-.07.024Z" fill="#FF725E"/><path d="M72.362 52.303c0 .037-4.203.07-9.39.07-5.188 0-9.394-.033-9.394-.07 0-.037 4.206-.069 9.393-.069 5.188 0 9.391.03 9.391.07ZM84.5 52.002c0 .04-2.202.07-4.913.07-2.712 0-4.915-.03-4.915-.07 0-.04 2.2-.068 4.915-.068 2.714 0 4.912.031 4.912.069ZM72.27 73.264c0 .037-4.204.07-9.391.07s-9.391-.033-9.391-.07c0-.037 4.204-.069 9.39-.069 5.188 0 9.392.032 9.392.07Z" fill="#000"/><path d="M21.863 78.723c-2.085 1.113-3.682 3.032-4.83 5.145-1.148 2.113-1.89 4.427-2.622 6.742l-.642 11.868c2.424-4.257 4.366-9.262 4.895-14.172l-1.613-.149c1.081-.17 1.99-.978 2.568-1.937.578-.96.873-2.066 1.163-3.155l-1.967.302a7.554 7.554 0 0 0 3.048-4.644Z" fill="#455A64"/><path d="M21.863 78.722c-2.085 1.114-3.682 3.033-4.83 5.146-1.148 2.112-1.89 4.427-2.622 6.741l-.642 11.868c2.424-4.257 4.366-9.262 4.895-14.172l-1.613-.148c1.081-.17 1.99-.978 2.568-1.938.578-.96.873-2.065 1.163-3.155l-1.967.303a7.554 7.554 0 0 0 3.048-4.645Z" fill="#000" opacity=".3"/><path d="M13.408 105.242s-5.261-6.5-5.2-12.706h2.124s-2.311-1.57-2.126-2.447c.184-.877.256-4.199.256-4.199l1.944.501s-1.458-.753-1.64-1.943c-.183-1.19.426-6.71.426-6.71s2.367 2.572 3.097 5.204c.729 2.633 2.63 5.705 2.07 13.73-.56 8.024-.95 8.57-.95 8.57ZM16.076 105.857s5.7-3.921 6.967-8.923l-1.71-.493s2.19-.737 2.229-1.484c.038-.748.693-3.433.693-3.433l-1.67-.035s1.334-.265 1.732-1.193c.398-.928 1.08-5.487 1.08-5.487s-2.45 1.53-3.595 3.483c-1.145 1.954-3.338 3.99-4.583 10.57-1.246 6.579-1.143 6.995-1.143 6.995Z" fill="#455A64"/><path d="M10.613 83.41c.01.021.016.044.02.066l.047.2c.04.188.097.445.172.77.146.671.341 1.644.562 2.85.45 2.41.981 5.761 1.4 9.483.418 3.722.64 7.11.734 9.565.049 1.227.075 2.218.08 2.916v1.002a.21.21 0 0 1 0 .069.222.222 0 0 1 0-.069v-.204c0-.194-.016-.456-.028-.796-.021-.686-.062-1.678-.124-2.902a156.766 156.766 0 0 0-.77-9.544 154.127 154.127 0 0 0-1.358-9.482c-.211-1.207-.39-2.182-.514-2.856l-.146-.774-.034-.204a.233.233 0 0 1-.041-.09Z" fill="#263238"/><path d="M12.68 109.223s-4.815-5.625-6.313-9.05l1.13-.496c-.819.138-1.656-.225-2.29-.776A8.81 8.81 0 0 1 3.65 96.91l1.486-.265a5.562 5.562 0 0 1-3.25-2.59c1.756.297 3.338 1.29 4.65 2.534a23.695 23.695 0 0 1 2.825 3.372c.419.583.785 1.204 1.094 1.856.803 1.728 2.226 5.336 2.224 7.406Z" fill="#455A64"/><path d="M23.12 88.102a.208.208 0 0 1-.02.058l-.072.164-.29.629c-.257.53-.62 1.325-1.06 2.308a126.55 126.55 0 0 0-3.2 7.755 143.828 143.828 0 0 0-2.686 7.952c-.311 1.032-.555 1.856-.72 2.447l-.197.671-.054.172c0 .037-.02.059-.023.056-.003-.003 0-.021 0-.061l.04-.175.17-.673c.15-.584.38-1.424.68-2.458.6-2.07 1.5-4.907 2.65-7.982 1.151-3.075 2.335-5.8 3.242-7.746a84.84 84.84 0 0 1 1.099-2.29l.313-.618.085-.156a.293.293 0 0 1 .043-.053ZM13.084 111.642a2.369 2.369 0 0 1-.077-.403 24.263 24.263 0 0 0-.192-1.095 23.91 23.91 0 0 0-.979-3.523 24.204 24.204 0 0 0-2.08-4.266 2.39 2.39 0 0 1-.198-.355c.09.1.17.208.242.323.151.215.357.531.595.936a20.406 20.406 0 0 1 1.567 3.311c.42 1.153.736 2.343.945 3.555.077.467.128.843.151 1.108.02.135.029.272.026.409Z" fill="#263238"/><path d="M19.437 110.316H8.898v2.219h10.539v-2.219ZM9.906 112.539l1.14 7.463h6.369l1.063-7.463H9.906Z" fill="#FF725E"/><path d="M18.786 112.538c0 .037-1.993.069-4.453.069s-4.45-.032-4.45-.069c0-.037 1.992-.069 4.45-.069 2.457 0 4.453.029 4.453.069Z" fill="#263238"/><path d="M64.695 114.494v5.503l10.755-.053c-.078-1.116-5.981-3.343-5.981-3.343l.118-2.121-4.892.014Z" fill="#455A64"/><path d="M66.436 116.104a.468.468 0 0 0-.246.218.491.491 0 0 0-.047.331c.025.111.09.207.183.268a.407.407 0 0 0 .313.058.5.5 0 0 0 .26-.233.526.526 0 0 0 .048-.353.45.45 0 0 0-.221-.251.425.425 0 0 0-.328-.014" fill="#fff" opacity=".6"/><path d="M64.695 119.999v-.878l10.272.125s.534.331.485.7l-10.757.053ZM69.475 116.71c0 .058-.256.087-.513.265-.257.178-.388.429-.437.408-.049-.021.026-.355.337-.575.31-.22.624-.151.613-.098ZM70.88 117.217c0 .055-.214.156-.389.4-.174.244-.22.501-.272.498-.051-.002-.09-.323.131-.623.221-.299.526-.328.53-.275ZM71.517 118.62c-.048.013-.125-.265 0-.586.126-.321.373-.443.396-.395.023.048-.126.217-.229.477-.102.26-.115.498-.167.504ZM69.368 115.141c-.02.053-.257-.021-.557 0-.3.021-.514.133-.55.082-.036-.05.19-.265.537-.281.347-.015.596.154.57.199Z" fill="#263238"/><path d="M69.434 116.955a.891.891 0 0 0 .023-.337 1.89 1.89 0 0 0-.285-.866 1.697 1.697 0 0 0-.421-.459.364.364 0 0 0-.172-.084.342.342 0 0 0-.19.018.423.423 0 0 0-.213.363c.016.287.115.563.283.792.168.229.398.402.662.496.257.085.533.087.793.008.259-.079.489-.237.66-.453.084-.1.15-.215.193-.339a.378.378 0 0 0 0-.22.262.262 0 0 0-.147-.16.432.432 0 0 0-.334.035 1.96 1.96 0 0 0-.256.146c-.242.167-.45.38-.614.628a.909.909 0 0 0-.15.294c.224-.322.501-.601.82-.822.144-.084.334-.206.485-.151.067.027.093.109.062.205a.91.91 0 0 1-.17.281c-.155.19-.361.329-.593.398a1.18 1.18 0 0 1-.708-.009 1.282 1.282 0 0 1-.583-.432 1.349 1.349 0 0 1-.267-.687.273.273 0 0 1 .03-.137.258.258 0 0 1 .096-.101.247.247 0 0 1 .24.048c.156.111.291.25.399.411.162.237.27.509.316.795.033.22.028.339.04.339Z" fill="#263238"/><path d="m60.77 115.287.182 1.418-.12 3.195-4.032.1-.144-3.295.457-1.959 3.657.541Z" fill="#455A64"/><path d="M58.838 119.664c-.026 0 .033-.975.128-2.181.095-1.207.195-2.187.218-2.19.024-.003-.033.978-.128 2.184-.095 1.207-.195 2.187-.218 2.187Z" fill="#263238"/><path d="m60.846 119.371-4.073.05v.584l4.075-.003-.002-.631ZM56.785 117.534s.028-.067.103-.167c.106-.145.227-.278.36-.398.194-.182.412-.333.649-.451a2.095 2.095 0 0 1 2.514.48c.118.136.218.289.295.454a.534.534 0 0 1 .064.188 4.578 4.578 0 0 0-.42-.581 2.126 2.126 0 0 0-1.513-.641 2.418 2.418 0 0 0-1.541.62c-.331.284-.496.512-.511.496Z" fill="#263238"/><path d="m58.82 26.128-.031 14.384 5.98.294.175-3.5s2.124.435 2.67-1.59c.353-1.302.258-11.357.258-11.357l-9.052 1.769Z" fill="#B78876"/><path d="M68.656 25.37c-.942.28-1.148 1.857-1.148 1.857l-1.476 3.369c-.752-.607-1.764-.573-1.954.795-.139.986 1.05 1.185 1.05 1.185-.693 1.217-1.16 2.2-2.17 3.356-1.084 1.26-1.7 1.384-2.881 1.4h-1.305s-.64-2.14-1.82-7.486c-1.31-5.933 5.485-5.17 6.746-6.683 2.051-2.463 7.934 1.33 4.958 2.208Z" fill="#263238"/><path d="M70.313 24.073a1.357 1.357 0 0 0-.45-.808 1.28 1.28 0 0 0-.852-.313.858.858 0 0 0-.17-1.06 1.283 1.283 0 0 0-1.076-.265 3.87 3.87 0 0 0-1.073.397 1.875 1.875 0 0 0-.693-.946 2.042 2.042 0 0 0-1.153-.294c-1.836 0-2.802 1.296-3.788 2.619-.144.246-.35.448-.596.583a1.55 1.55 0 0 1-.552.063 3.9 3.9 0 0 0-1.98.62 4.07 4.07 0 0 0-1.414 1.56c-.642 1.28-1.123 4.241.541 6.097l1.002 2.309 9.586-7.842c.07.037.67.34 1.133.09 1.147-.625.664-1.665.664-1.665.093-.066.969-.509.871-1.145Z" fill="#263238"/><path d="M61.443 31.793c.08.36.069.737-.033 1.092-.054.367-.2.712-.424 1.002-.041-.021.151-.461.275-1.036.123-.576.138-1.058.182-1.058ZM62.161 31.086c.05.354.031.714-.056 1.06a2.67 2.67 0 0 1-.316 1.002c.025-.348.08-.693.167-1.03.036-.35.105-.696.205-1.032ZM64.23 28.707c.016.021-.154.148-.37.408a4.07 4.07 0 0 0-.644 1.15c-.147.423-.267.855-.357 1.294a2.02 2.02 0 0 1-.149.53c-.01-.189.004-.379.044-.564.06-.452.168-.897.32-1.325a3.4 3.4 0 0 1 .71-1.167c.121-.144.275-.255.447-.326ZM65.073 27.09c.018 0 .08.138.118.387.043.328.025.662-.054.983a2.503 2.503 0 0 1-.403.891c-.147.204-.257.302-.28.29-.023-.014.367-.497.537-1.218.169-.72.035-1.328.082-1.333ZM57.934 30.687c-.02.04-.203-.027-.408-.146-.206-.12-.357-.244-.337-.284.02-.04.203.03.408.149.206.12.357.244.337.28ZM60.823 29.149a.895.895 0 0 1-.17.625c-.185.316-.434.48-.46.448-.025-.031.162-.238.33-.53.166-.291.256-.554.3-.543ZM61.711 28.656a1.252 1.252 0 0 1-.257.748c-.239.376-.539.578-.562.53-.023-.048.213-.265.436-.628.116-.224.243-.441.383-.65ZM66.127 22.626s-.113-.088-.329-.215a2.151 2.151 0 0 0-1.002-.265 2.622 2.622 0 0 0-1.47.406c-.532.36-.963.857-1.252 1.442-.22.428-.392.88-.513 1.35l-.026.09-.08-.046a2.93 2.93 0 0 0-1.332-.352 3.103 3.103 0 0 0-1.086.17c-.312.119-.61.272-.889.458a.913.913 0 0 1 .2-.183 2.68 2.68 0 0 1 .658-.363c.357-.14.735-.211 1.117-.21.487 0 .968.118 1.402.348l-.105.047c.118-.48.29-.944.513-1.383.3-.61.754-1.123 1.313-1.49.464-.286 1-.423 1.54-.395.364.016.718.128 1.027.326.083.054.16.117.229.188.064.048.087.074.085.077Z" fill="#455A64"/><path d="M69.274 23.415c-.013 0 .164-.048.341.16a.615.615 0 0 1 .139.45.716.716 0 0 1-.116.3.687.687 0 0 1-.233.214.964.964 0 0 1-.727.103 2.101 2.101 0 0 1-.747-.376 7.099 7.099 0 0 0-.735-.53 2.926 2.926 0 0 0-.883-.321 3.58 3.58 0 0 0-1.798.127 4.876 4.876 0 0 0-1.332.7c-.699.517-1.043.952-1.066.928.069-.11.15-.212.239-.305.235-.261.493-.5.77-.713.41-.322.867-.575 1.353-.748a3.642 3.642 0 0 1 1.875-.143c.325.062.637.176.927.34.258.16.506.337.742.53.207.168.443.292.696.366a.864.864 0 0 0 .647-.072.606.606 0 0 0 .316-.43.562.562 0 0 0-.1-.4.51.51 0 0 0-.308-.18Z" fill="#455A64"/><path d="M97.135 34.452c-.226-.207-3.272 1.11-3.272 1.11s-2.273 1.856-3.207 2.93l-.578.495-8.644 6.938-10.63-4.565-2.312 6.121s11.936 4.907 13.754 4.067c1.975-.912 9.332-8.862 9.35-8.889l1.063-1.06s.562 0 .988-.037c.427-.037 1.675-.883 1.675-.883.118-.236.2-.489.241-.75a.494.494 0 0 0-.024-.313.474.474 0 0 0-.207-.23c.043-.205.05-.415.02-.621-.048-.35-.513-.756-.513-.756.145-.152.244-.345.285-.554.103-.405-.403-.795-.403-.795s1.769-1.24 2.198-1.46c.429-.22.442-.542.216-.748Z" fill="#B78876"/><path d="M72.37 97.163c.036-.403.054-.713.054-.907l1.202-19.784s-1.01-5.78-1.487-7.311l-4.29-1.716-5.72 2.299c-.035-.475-.059-.77-.059-.77l-8.415 3.007s-.218 5.93 0 7.736c.072.58.29 2.078.558 3.844 0 0 .272 3.835.328 4.05.203.782.257 2.699.257 4.618 0 2.439.128 5.342.277 6.72.15 1.379.219 16.553.219 16.553h6.214l.799-24.166c.133-2.59.334-6.55.462-9.416l1.459 8.923c0 .326.888 5.429.888 5.429a49.907 49.907 0 0 0-.38 4.841c-.103 4.506-.614 14.389-.614 14.389h6.081s1.828-14.283 2.183-18.34h-.016Z" fill="#263238"/><path d="M73.427 75.277a2.447 2.447 0 0 1-.563-.31 7.728 7.728 0 0 1-1.202-.984 8.029 8.029 0 0 1-.99-1.206 2.307 2.307 0 0 1-.317-.57 4.9 4.9 0 0 1 .39.512c.31.413.647.804 1.01 1.169.362.36.75.695 1.158 1 .18.116.352.246.514.389ZM62.572 78.88a.768.768 0 0 1-.118-.197 5.959 5.959 0 0 1-.257-.572 9.68 9.68 0 0 1-.567-2.002 9.889 9.889 0 0 1-.123-2.08c.015-.266.035-.48.059-.63a.762.762 0 0 1 .048-.227c.02 0 0 .331-.012.859-.008.688.045 1.376.159 2.054.113.678.285 1.345.513 1.991.183.496.316.793.298.803Z" fill="#455A64"/><path d="M63.471 86.33a1.766 1.766 0 0 1-.08-.344c-.044-.25-.1-.566-.169-.946-.133-.83-.313-1.922-.513-3.131l-.686-4.432c.14.415.238.844.293 1.28a172.437 172.437 0 0 1 .999 6.267c.049.382.092.7.126.954.023.116.033.234.03.353Z" fill="#455A64"/><path d="M48.814 53.328s-.82 5.962-.973 8.051c-.093 1.26 1.145 2.916 2.09 3.051.945.136 4.13.319 4.13.319l.256-3.741-.082-.745-.989-.19.298-5.934-4.73-.81Z" fill="#B78876"/><path d="M53.415 54.34c.025.106.038.214.038.323.016.21.026.512.034.888.018.748 0 1.784-.062 2.916a75.855 75.855 0 0 1-.22 2.916c-.04.372-.07.674-.096.88a1.427 1.427 0 0 1-.054.321 1.518 1.518 0 0 1 0-.326l.052-.885c.049-.777.11-1.792.18-2.916.069-1.124.095-2.169.102-2.916v-.886a1.567 1.567 0 0 1 .026-.315Z" fill="#AA6550"/><path d="M53.732 72.08c1.618.62 3.39.67 5.108.516 1.718-.154 3.418-.511 5.136-.678a23.845 23.845 0 0 1 7.778.53c.178.055.365.073.55.053a.454.454 0 0 0 .246-.116.477.477 0 0 0 .141-.24c.046-.296-.27-.503-.537-.617a22.314 22.314 0 0 0-9.278-1.792c-3.18.073-6.31.827-9.193 2.216" fill="#000" opacity=".3"/><path d="m78.499 44.076-9.121-4.687a28.816 28.816 0 0 0-4.335-.196h-6.037s-7.314 2.227-8.523 4.281l-3.136 9.703 6.2.965.77 6.972s-.77 8.072-.77 9.244a9.096 9.096 0 0 0 .094 1.622s12.404-1.946 15.457-.92c3.053 1.026 3.877.92 3.877.92s-.256-3.351-.48-5.302l-.704-9.73-.513-7.422 5.74 1.813 1.48-7.263Z" fill="#FF725E"/><path d="M53.488 54.22c-.023 0-.085-.4-.221-1.047a18.22 18.22 0 0 0-.719-2.474 20.137 20.137 0 0 0-1.063-2.364l-.375-.695a1.14 1.14 0 0 1-.126-.265c.067.071.126.15.175.236.105.156.257.387.413.679a15.79 15.79 0 0 1 1.11 2.362c.3.81.529 1.648.683 2.502.056.326.092.591.11.777.016.095.02.192.013.289ZM65.187 56.969a.461.461 0 0 1-.033.13l-.116.358c-.051.156-.115.344-.2.562-.085.217-.175.466-.293.731-.223.53-.513 1.172-.878 1.856a26.54 26.54 0 0 1-1.284 2.147c-.488.737-1.027 1.403-1.512 1.991a18.11 18.11 0 0 1-1.387 1.487c-.203.207-.4.38-.568.53-.167.151-.318.287-.441.39l-.288.233a.617.617 0 0 1-.105.077s.028-.037.09-.098l.27-.265c.117-.106.256-.241.426-.403.17-.162.354-.336.552-.546a24.905 24.905 0 0 0 2.855-3.486c.498-.729.925-1.458 1.284-2.12.36-.663.665-1.3.899-1.833.123-.265.218-.511.308-.723.09-.212.164-.398.224-.552.059-.153.1-.265.138-.35a.532.532 0 0 1 .06-.116ZM69.397 40.027c-.24.355-.403.758-.48 1.183-.077.46-.077.93 0 1.391.1.567.228 1.128.385 1.681.316 1.188.647 2.246.902 3.009.12.36.22.663.303.904.042.109.075.221.097.337-.06-.101-.11-.207-.149-.318a24.907 24.907 0 0 1-.344-.889 35.111 35.111 0 0 1-.942-3.006 15.506 15.506 0 0 1-.367-1.688 4.171 4.171 0 0 1 .02-1.43c.063-.317.183-.62.355-.893a.996.996 0 0 1 .22-.28Z" fill="#263238"/><path d="M52.187 50.242c-.135.151-.302.268-.488.343a2.389 2.389 0 0 1-1.396.202 2.426 2.426 0 0 1-1.274-.624 1.32 1.32 0 0 1-.365-.475c.018-.016.151.173.426.4.357.299.785.494 1.24.565.454.071.919.017 1.346-.159.316-.132.498-.27.511-.252ZM69.667 45.863c-.018.07-.043.14-.075.204a7.77 7.77 0 0 1-1.626 2.394 6.068 6.068 0 0 1-2.896 1.625 5.255 5.255 0 0 1-1.962.088 5.639 5.639 0 0 1-1.985-.73c-1.26-.726-2.326-1.646-3.492-2.086a5.31 5.31 0 0 0-3.22-.182c-.72.178-1.4.5-2 .946-.422.32-.62.546-.63.53.18-.212.38-.405.598-.575a5.538 5.538 0 0 1 2.545-1.112 5.462 5.462 0 0 1 2.75.271c1.194.446 2.268 1.368 3.513 2.084a5.593 5.593 0 0 0 1.94.732 5.2 5.2 0 0 0 1.917-.08A6.022 6.022 0 0 0 67.9 48.4a7.952 7.952 0 0 0 1.376-1.786c.131-.234.229-.422.29-.55.029-.069.062-.136.1-.2ZM75.381 42.465c.051.097.09.2.118.307.085.287.135.584.15.883a4.206 4.206 0 0 1-.866 2.778 10.19 10.19 0 0 1-1.145 1.119 3.133 3.133 0 0 0-.77 1.01 1.754 1.754 0 0 0-.173.843c.016.207.06.318.047.32-.013.003-.019-.023-.039-.076a1.035 1.035 0 0 1-.06-.239c-.034-.303.013-.61.137-.888.18-.406.443-.767.77-1.06.399-.343.774-.714 1.123-1.11a4.269 4.269 0 0 0 .875-2.689 6.746 6.746 0 0 0-.167-1.198ZM60.547 64.815a.982.982 0 0 1-.257.098c-.248.073-.5.128-.755.164a2.54 2.54 0 0 1-1.153-.069 1.694 1.694 0 0 1-.603-.35 5.296 5.296 0 0 1-.494-.556 2.6 2.6 0 0 0-.513-.494 2.481 2.481 0 0 0-.588-.291 2.526 2.526 0 0 0-1.102-.109c-.25.029-.496.1-.724.212a1.763 1.763 0 0 1-.257.122.846.846 0 0 1 .231-.17c.228-.135.478-.225.737-.265a2.475 2.475 0 0 1 1.15.083c.222.07.432.171.625.302.205.142.389.316.544.514.148.192.307.373.478.543.163.148.352.262.557.335.358.109.734.14 1.104.092.624-.076 1.015-.185 1.02-.161ZM72.356 64.25a.434.434 0 0 1-.082.072 2.56 2.56 0 0 1-.257.175 3.711 3.711 0 0 1-1.027.448 4.215 4.215 0 0 1-1.667.1 4.038 4.038 0 0 1-1.895-.795 19.291 19.291 0 0 1-1.515-1.407 4.844 4.844 0 0 0-1.346-.955 2.485 2.485 0 0 0-1.065-.244c-.257 0-.406.045-.409.03a1.437 1.437 0 0 1 .406-.085c.38-.018.758.053 1.107.209.514.23.984.552 1.39.952.47.43.937.951 1.512 1.389.539.409 1.168.673 1.83.769a4.334 4.334 0 0 0 1.629-.067 4.238 4.238 0 0 0 1.027-.4c.117-.071.238-.135.362-.19Z" fill="#fff"/><path d="M94.181 26.472a13.219 13.219 0 0 1-4.751-3.977 13.769 13.769 0 0 1-2.49-5.769 13.974 13.974 0 0 1 .313-6.306A13.664 13.664 0 0 1 90.3 4.944a13.097 13.097 0 0 1 5.12-3.455c1.947-.72 4.03-.955 6.081-.685a12.883 12.883 0 0 1 5.722 2.234 13.409 13.409 0 0 1 4.12 4.668 13.928 13.928 0 0 1 1.529 8.252 13.734 13.734 0 0 1-3.477 7.596 13.008 13.008 0 0 1-7.146 4.02c-2.734.525-5.56.139-8.068-1.102Zm10.945-23.63a11.895 11.895 0 0 0-8.45-.801c-2.82.782-5.275 2.577-6.925 5.063a12.954 12.954 0 0 0-2.074 8.494c.312 2.997 1.65 5.78 3.774 7.846 2.124 2.068 4.893 3.284 7.809 3.43a11.986 11.986 0 0 0 8.092-2.636c2.307-1.846 3.9-4.482 4.49-7.433.59-2.951.14-6.023-1.27-8.662a12.415 12.415 0 0 0-5.446-5.302Z" fill="#263238"/><path d="M116.338 41.298a1.591 1.591 0 0 1-1.233.205 1.64 1.64 0 0 1-1.014-.753l-8.584-14.366a.297.297 0 0 1-.035-.218.29.29 0 0 1 .125-.18l1.83-1.166a.277.277 0 0 1 .383.088l9.029 14.005a1.717 1.717 0 0 1 .245 1.303 1.703 1.703 0 0 1-.746 1.082Z" fill="#263238"/><path d="M94.496 25.784a13.22 13.22 0 0 1-4.754-3.976 13.771 13.771 0 0 1-2.493-5.77c-.379-2.1-.272-4.261.312-6.31a13.666 13.666 0 0 1 3.048-5.478A13.1 13.1 0 0 1 95.73.793a12.743 12.743 0 0 1 6.083-.685 12.887 12.887 0 0 1 5.724 2.236c1.71 1.2 3.122 2.801 4.12 4.672a13.927 13.927 0 0 1 1.528 8.251 13.746 13.746 0 0 1-3.477 7.596 13.016 13.016 0 0 1-7.145 4.02c-2.734.526-5.559.14-8.067-1.099Zm10.945-23.63a11.894 11.894 0 0 0-8.45-.8c-2.82.78-5.275 2.576-6.925 5.062a12.954 12.954 0 0 0-2.073 8.495c.312 2.996 1.65 5.778 3.774 7.846 2.123 2.067 4.893 3.283 7.808 3.429a11.986 11.986 0 0 0 8.093-2.636c2.307-1.846 3.899-4.482 4.489-7.433.591-2.951.14-6.023-1.269-8.661a12.417 12.417 0 0 0-5.447-5.302Z" fill="#455A64"/><path d="m105.673 25.438 2.302-1.465 9.129 15.276c.178.3.235.66.156 1.002a1.321 1.321 0 0 1-.575.822l-.133.085a1.25 1.25 0 0 1-.97.162 1.286 1.286 0 0 1-.797-.594l-9.129-15.277.017-.01Z" fill="#455A64"/><path d="M90.355 10.34c.012-.141.036-.281.072-.418.03-.164.07-.325.12-.483a6.68 6.68 0 0 1 .206-.628l.131-.358c.049-.125.113-.247.172-.38.116-.264.273-.53.43-.808a10.5 10.5 0 0 1 1.257-1.664c.482-.5 1.01-.95 1.577-1.342.25-.168.506-.322.77-.464.124-.066.242-.135.36-.19l.344-.152c.196-.087.397-.163.601-.228.152-.056.307-.102.465-.138.132-.038.267-.067.403-.087a2.66 2.66 0 0 1-.39.135 4.058 4.058 0 0 0-.455.16c-.2.07-.396.151-.588.243l-.336.157c-.118.055-.234.127-.355.193-.257.13-.493.3-.757.47-.554.389-1.07.833-1.541 1.325a10.9 10.9 0 0 0-1.25 1.635c-.157.266-.316.53-.435.796-.059.127-.125.246-.177.368l-.144.353c-.097.22-.156.432-.22.615a4.327 4.327 0 0 0-.14.474c-.028.142-.069.281-.12.417Z" fill="#E0E0E0"/></svg>