<svg width="200" height="200" fill="none" xmlns="http://www.w3.org/2000/svg"><path d="M31.287 23.084a16.582 16.582 0 0 0-1.598-7.177 16.054 16.054 0 0 0-4.518-5.698 15.417 15.417 0 0 0-6.5-3.036 15.169 15.169 0 0 0-7.128.26 15.5 15.5 0 0 0-6.276 3.499 16.155 16.155 0 0 0-4.119 6.013 16.621 16.621 0 0 0 1.035 14.3l.047.057c.599 1.047 1.348 1.768 2.11 2.89l9.082 12.416c.263.36.603.652.994.854a2.749 2.749 0 0 0 2.518 0c.392-.202.732-.494.995-.855l8.902-12.212c.81-.987 1.568-2.02 2.269-3.093l.034-.044a16.44 16.44 0 0 0 2.153-8.174Zm-15.644 7.034a6.735 6.735 0 0 1-3.826-1.198 7.066 7.066 0 0 1-2.536-3.19 7.323 7.323 0 0 1-.392-4.108 7.183 7.183 0 0 1 1.885-3.64 6.823 6.823 0 0 1 3.526-1.946 6.686 6.686 0 0 1 3.979.405 6.939 6.939 0 0 1 3.09 2.618 7.274 7.274 0 0 1 1.16 3.95c.001.934-.176 1.858-.522 2.721a7.125 7.125 0 0 1-1.493 2.307 6.871 6.871 0 0 1-2.235 1.541 6.695 6.695 0 0 1-2.636.54ZM200 121.021a7.319 7.319 0 0 0-.71-3.156 7.07 7.07 0 0 0-1.993-2.504 6.776 6.776 0 0 0-2.861-1.333 6.673 6.673 0 0 0-3.137.114 6.835 6.835 0 0 0-2.762 1.538 7.118 7.118 0 0 0-1.816 2.643 7.323 7.323 0 0 0 .439 6.294v.027c.265.442.599.791.933 1.272l4.002 5.475c.116.159.266.288.439.377a1.214 1.214 0 0 0 1.112 0c.173-.089.323-.218.439-.377l3.933-5.382a15.29 15.29 0 0 0 1.002-1.369v-.023a7.213 7.213 0 0 0 .98-3.596Zm-6.895 3.093a2.97 2.97 0 0 1-1.686-.528 3.11 3.11 0 0 1-1.117-1.406 3.224 3.224 0 0 1-.173-1.81 3.165 3.165 0 0 1 .83-1.604 3.01 3.01 0 0 1 1.554-.857 2.945 2.945 0 0 1 1.753.178 3.054 3.054 0 0 1 1.362 1.154 3.2 3.2 0 0 1 .512 1.74c0 .412-.078.82-.23 1.201a3.157 3.157 0 0 1-.657 1.019 3.05 3.05 0 0 1-.985.681c-.369.158-.764.24-1.163.241v-.009ZM176.225 177.166c6.742-6.961 6.742-18.246 0-25.207-6.743-6.96-17.675-6.96-24.417 0-6.743 6.961-6.743 18.246 0 25.207 6.742 6.961 17.674 6.961 24.417 0Z" fill="#F5F5F5"/><path d="M164.018 179.403a14.051 14.051 0 0 1-7.986-2.499 14.736 14.736 0 0 1-5.295-6.657 15.28 15.28 0 0 1-.82-8.573 14.995 14.995 0 0 1 3.933-7.598 14.238 14.238 0 0 1 7.358-4.062 13.954 13.954 0 0 1 8.305.844 14.487 14.487 0 0 1 6.451 5.464 15.185 15.185 0 0 1 2.422 8.244c-.003 3.933-1.518 7.704-4.212 10.486-2.693 2.781-6.346 4.346-10.156 4.351Zm0-27.134c-2.356 0-4.659.722-6.617 2.073a12.213 12.213 0 0 0-4.387 5.518 12.66 12.66 0 0 0-.678 7.105 12.421 12.421 0 0 0 3.26 6.296 11.806 11.806 0 0 0 6.098 3.365c2.311.474 4.706.231 6.882-.7a12.004 12.004 0 0 0 5.346-4.529 12.577 12.577 0 0 0 2.007-6.831c-.003-3.26-1.259-6.386-3.492-8.691-2.233-2.305-5.261-3.602-8.419-3.606Z" fill="#fff"/><path d="M163.919 169.636a5.171 5.171 0 0 1-2.941-.921 5.429 5.429 0 0 1-1.95-2.454 5.622 5.622 0 0 1-.301-3.158 5.523 5.523 0 0 1 1.45-2.798 5.239 5.239 0 0 1 2.712-1.495 5.13 5.13 0 0 1 3.059.313 5.332 5.332 0 0 1 2.376 2.015 5.59 5.59 0 0 1 .89 3.037 5.559 5.559 0 0 1-1.552 3.862 5.213 5.213 0 0 1-3.743 1.599Zm0-8.395c-.56 0-1.108.172-1.574.493a2.909 2.909 0 0 0-1.043 1.313 3.012 3.012 0 0 0-.162 1.69c.11.567.38 1.089.776 1.498.396.409.901.687 1.451.8a2.753 2.753 0 0 0 1.637-.166c.517-.222.96-.597 1.271-1.078a2.986 2.986 0 0 0 .478-1.625 2.986 2.986 0 0 0-.834-2.061 2.796 2.796 0 0 0-2-.855v-.009Z" fill="#fff"/><path d="M163.92 164.176h-6.69l1.168 2.129-15.746 7.45.531.914 15.798-7.365 1.082 2.116 3.857-5.244ZM142.652 173.755l-.166-.168a3.17 3.17 0 0 0-1.459-.839 3.096 3.096 0 0 0-1.67.035l-6.279 1.887 3.497 1.586-1.404 3.857 5.894-2.147a3.222 3.222 0 0 0 1.583-1.276c.381-.589.569-1.29.535-1.998l-.531-.937ZM66.46 177.494l.128-.044.373-.111 1.43-.441 5.353-1.551-.051.092c-.274-.949-.582-2.01-.907-3.15v-.048l.042-.04a17.579 17.579 0 0 0 3.733-4.533c.55-.968.97-2.009 1.25-3.093a9.29 9.29 0 0 0 .2-3.535 11.241 11.241 0 0 0-3.518-6.628 12.755 12.755 0 0 0-7.276-3.238 10.412 10.412 0 0 0-5.85 1.21 11.777 11.777 0 0 0-4.362 3.787 11.125 11.125 0 0 0-1.874 5.143c-.026.442-.09.884-.082 1.325.009.442.022.884.035 1.291.067.829.21 1.65.427 2.452.213.753.5 1.481.856 2.174.35.645.763 1.25 1.233 1.807.859.993 1.871 1.832 2.996 2.483a15.067 15.067 0 0 0 5.307 1.891h.03v.026l.428 2.006c.043.221.077.394.099.517.021.124.034.177.034.182a.73.73 0 0 1-.043-.16l-.12-.503-.462-2.024.039.035a14.869 14.869 0 0 1-5.372-1.851 11.755 11.755 0 0 1-3.038-2.496 10.814 10.814 0 0 1-1.284-1.834 11.831 11.831 0 0 1-.9-2.209 14.471 14.471 0 0 1-.427-2.488l-.039-1.325c0-.442.056-.884.081-1.326a11.29 11.29 0 0 1 1.9-5.249 12.017 12.017 0 0 1 4.44-3.87 10.615 10.615 0 0 1 5.991-1.233 12.938 12.938 0 0 1 7.417 3.301 11.042 11.042 0 0 1 2.401 3.141c.163.284.306.579.428.884.133.285.244.581.334.883.09.31.189.61.27.915.081.305.107.623.163.932a9.545 9.545 0 0 1-.219 3.619 12.742 12.742 0 0 1-1.284 3.137 17.731 17.731 0 0 1-3.796 4.564l.03-.088.886 3.15.021.071-.068.022-5.414 1.485-1.426.384-.36.093-.183.066ZM74.442 177.497a31.225 31.225 0 0 1-3.72 1.18 31.454 31.454 0 0 1-3.783.941 32.683 32.683 0 0 1 3.72-1.175 31.688 31.688 0 0 1 3.783-.946ZM72.769 181.112a2.991 2.991 0 0 1-1.285.539 3.003 3.003 0 0 1-1.382.124 6.447 6.447 0 0 1 1.327-.362 6.703 6.703 0 0 1 1.34-.301Z" fill="#E0E0E0"/><path d="M67.988 177.082a.492.492 0 0 1-.043-.124c-.026-.097-.056-.221-.099-.376-.085-.35-.205-.832-.36-1.444l-1.283-5.333a251.4 251.4 0 0 1-.856-3.681 2.496 2.496 0 0 0-.372-.91.635.635 0 0 0-.343-.286.614.614 0 0 0-.44.016.937.937 0 0 0-.311.367.967.967 0 0 0-.092.477c.01.354.146.692.38.95.254.27.566.472.911.59a2.19 2.19 0 0 0 1.072.086 2.257 2.257 0 0 0 1.035-.45c.303-.237.545-.549.702-.906.35-.744.438-1.591.249-2.395a2.154 2.154 0 0 0-.535-1.082.844.844 0 0 0-.488-.25.828.828 0 0 0-.535.104.89.89 0 0 0-.27.494.91.91 0 0 0 .077.562c.188.36.462.664.796.883a4.21 4.21 0 0 0 2.191.933c.382.035.767-.024 1.122-.173.335-.16.629-.401.856-.702.229-.293.366-.65.394-1.025a1.365 1.365 0 0 0-.326-.994.84.84 0 0 0-.856-.31c-.153.058-.29.151-.403.272a1.107 1.107 0 0 0-.247.427c-.21.649-.026 1.374.051 2.041.206 1.325.428 2.589.655 3.725.428 2.262.8 4.095 1.053 5.381.12.623.218 1.114.287 1.463.025.159.05.282.068.384a.703.703 0 0 1 0 .133.586.586 0 0 1-.038-.129c-.026-.097-.056-.221-.095-.375-.081-.349-.188-.835-.33-1.454a244.855 244.855 0 0 1-1.125-5.368 113.247 113.247 0 0 1-.685-3.729c-.047-.34-.102-.681-.137-1.039-.05-.37-.02-.747.086-1.104.06-.192.163-.366.298-.511a1.27 1.27 0 0 1 .485-.324c.198-.053.407-.046.602.019.194.065.367.185.498.347a1.588 1.588 0 0 1 .381 1.154 2.096 2.096 0 0 1-.428 1.157 2.541 2.541 0 0 1-.963.778 2.6 2.6 0 0 1-1.228.194 4.465 4.465 0 0 1-2.312-.976 2.525 2.525 0 0 1-.856-1.003 1.046 1.046 0 0 1-.111-.724c.05-.247.19-.465.388-.613a.963.963 0 0 1 1.316.157c.307.333.515.75.599 1.202a3.91 3.91 0 0 1-.27 2.558c-.176.39-.442.729-.775.987a2.486 2.486 0 0 1-1.134.493c-.395.066-.8.031-1.178-.101a2.455 2.455 0 0 1-.996-.659 1.676 1.676 0 0 1-.428-1.1 1.161 1.161 0 0 1 .123-.589 1.12 1.12 0 0 1 .4-.44.73.73 0 0 1 .59-.031.978.978 0 0 1 .428.362c.195.3.333.636.407.99.303 1.325.586 2.563.855 3.694l1.199 5.341c.133.619.24 1.105.317 1.459.03.154.055.278.077.38a.42.42 0 0 1 0 .15ZM74.147 179.15c-.974.404-1.975.73-2.996.977a21.405 21.405 0 0 1-3.073.742 20.2 20.2 0 0 1 2.996-.976 21.55 21.55 0 0 1 3.073-.743Z" fill="#E0E0E0"/><path d="M190.49 199.555c0 .062-40.844.115-91.22.115-50.375 0-91.228-.053-91.228-.115 0-.062 40.835-.115 91.228-.115 50.393 0 91.22.049 91.22.115Z" fill="#263238"/><path d="M182.953 21.82H15.669v11.063h167.284V21.82Z" fill="#E0E0E0"/><path d="M182.927 43.045H15.644v96.851h167.283V43.045Z" fill="#fff"/><path d="M15.669 32.799h22.97l2.273-6.84h37.236l2.273 6.84h102.532v10.48H15.669v-10.48Z" fill="#EBEBEB"/><path d="M21.19 26.234c0 .257-.073.508-.212.721-.138.214-.334.38-.564.479-.23.098-.483.124-.727.074a1.246 1.246 0 0 1-.645-.356 1.312 1.312 0 0 1-.344-.665 1.339 1.339 0 0 1 .072-.75c.095-.238.256-.44.463-.583a1.23 1.23 0 0 1 1.59.16 1.332 1.332 0 0 1 .367.92ZM25.081 26.234c0 .257-.074.508-.212.721-.138.214-.335.38-.565.479-.23.098-.483.124-.727.074a1.246 1.246 0 0 1-.644-.356 1.312 1.312 0 0 1-.344-.665 1.339 1.339 0 0 1 .071-.75c.096-.238.257-.44.464-.583a1.23 1.23 0 0 1 1.59.16c.117.12.21.264.273.422.063.158.095.327.094.498ZM28.971 26.234c0 .257-.074.508-.212.721-.138.214-.335.38-.565.479-.23.098-.482.124-.727.074a1.246 1.246 0 0 1-.644-.356 1.337 1.337 0 0 1-.273-1.416c.096-.237.257-.44.464-.582a1.23 1.23 0 0 1 1.59.16c.117.12.21.264.273.422.063.158.095.327.094.498Z" fill="#263238"/><path d="M164.463 41.193H49.695a3.135 3.135 0 0 1-2.252-.962 3.342 3.342 0 0 1-.932-2.325c0-.872.335-1.708.932-2.324a3.135 3.135 0 0 1 2.252-.963h114.768c.845 0 1.655.346 2.252.963.597.616.933 1.452.933 2.324 0 .872-.336 1.708-.933 2.325a3.134 3.134 0 0 1-2.252.962Z" fill="#FAFAFA"/><path d="M52.443 38.344v1.114H51.9v-1.025c0-.314-.142-.442-.381-.442-.24 0-.454.168-.454.521v.964h-.543V36.78h.543v.937a.84.84 0 0 1 .6-.23.715.715 0 0 1 .585.239.765.765 0 0 1 .193.618ZM54.147 39.361a.744.744 0 0 1-.428.124.602.602 0 0 1-.515-.173.643.643 0 0 1-.187-.525v-.796h-.291v-.441h.29v-.473h.544v.473h.467v.441h-.467v.796a.231.231 0 0 0 .058.187.22.22 0 0 0 .178.069.344.344 0 0 0 .218-.075l.133.393ZM55.61 39.361a.76.76 0 0 1-.428.124.602.602 0 0 1-.515-.173.643.643 0 0 1-.187-.525v-.796h-.29v-.441h.29v-.473h.544v.473h.47v.441h-.47v.796a.236.236 0 0 0 .06.185.222.222 0 0 0 .175.071c.08 0 .159-.026.223-.075l.128.393ZM57.981 38.486a.97.97 0 0 1-.255.713.91.91 0 0 1-.682.286.712.712 0 0 1-.565-.234v.884h-.544v-2.651h.531v.225a.74.74 0 0 1 .59-.252.888.888 0 0 1 .686.301.948.948 0 0 1 .24.728Zm-.552 0a.503.503 0 0 0-.1-.261.465.465 0 0 0-.73-.029.501.501 0 0 0-.086.533.49.49 0 0 0 .176.215.47.47 0 0 0 .617-.077.491.491 0 0 0 .123-.38ZM58.213 37.836a.357.357 0 0 1 .112-.224.336.336 0 0 1 .456 0 .357.357 0 0 1 .098.371.358.358 0 0 1-.186.216.334.334 0 0 1-.395-.088.358.358 0 0 1-.085-.275Zm0 1.295a.357.357 0 0 1 .112-.224.336.336 0 0 1 .456 0 .357.357 0 0 1 .098.37.358.358 0 0 1-.186.216.332.332 0 0 1-.395-.087.358.358 0 0 1-.085-.275ZM60.232 36.417h.488l-1.155 3.398h-.484l1.151-3.398ZM61.35 36.417h.483l-1.151 3.398h-.488l1.155-3.398Z" fill="#E0E0E0"/><path d="M164.361 60.463H64.367a5.557 5.557 0 0 1-3.992-1.707 5.924 5.924 0 0 1-1.653-4.12 5.929 5.929 0 0 1 1.654-4.12 5.562 5.562 0 0 1 3.991-1.709h99.994a5.56 5.56 0 0 1 3.99 1.709 5.927 5.927 0 0 1 1.655 4.12 5.924 5.924 0 0 1-1.654 4.12 5.554 5.554 0 0 1-3.991 1.707Z" fill="#FAFAFA"/><path d="M164.361 60.463a5.793 5.793 0 0 0 2.311-.54 5.708 5.708 0 0 0 1.878-1.438 5.947 5.947 0 0 0 1.161-2.096c.202-.69.281-1.414.231-2.134a5.929 5.929 0 0 0-.634-2.306 5.804 5.804 0 0 0-1.682-1.98 5.466 5.466 0 0 0-2.589-1.043 12.761 12.761 0 0 0-1.494-.044h-15.934l-83.234.031c-.999.003-1.98.284-2.837.813a5.636 5.636 0 0 0-2.01 2.15 5.86 5.86 0 0 0-.685 2.902 5.848 5.848 0 0 0 .828 2.863 5.608 5.608 0 0 0 2.115 2.04 5.592 5.592 0 0 0 2.778.662H92.46l37.42.027 25.252.035H164.373h-9.24l-25.252.04-37.42.022H64.564a5.743 5.743 0 0 1-2.88-.69 5.87 5.87 0 0 1-2.565-2.827 6.12 6.12 0 0 1-.332-3.857 5.964 5.964 0 0 1 2.041-3.25 5.642 5.642 0 0 1 3.547-1.261l83.255.145H163.564c.505-.012 1.009.004 1.511.05a5.558 5.558 0 0 1 2.632 1.073 5.774 5.774 0 0 1 1.649 1.91c.405.755.644 1.594.697 2.455a6.234 6.234 0 0 1-.248 2.165 6.02 6.02 0 0 1-.856 1.701 5.721 5.721 0 0 1-2.247 1.87 5.684 5.684 0 0 1-1.712.472c-.424.04-.629.04-.629.04Z" fill="#263238"/><path d="m66.661 55.877.21-.486c.265.187.578.289.899.291.372 0 .522-.128.522-.3 0-.526-1.58-.164-1.58-1.206 0-.477.373-.884 1.147-.884.33-.007.656.079.942.247l-.192.495a1.484 1.484 0 0 0-.754-.22c-.372 0-.518.145-.518.322 0 .517 1.58.159 1.58 1.188 0 .469-.377.884-1.152.884a1.866 1.866 0 0 1-1.104-.331ZM71.339 55.254h-1.58a.58.58 0 0 0 .22.336c.11.081.245.119.38.105a.691.691 0 0 0 .522-.212l.321.363a1.204 1.204 0 0 1-.588.322 1.18 1.18 0 0 1-.665-.046 1.217 1.217 0 0 1-.542-.4 1.276 1.276 0 0 1-.255-.636 1.128 1.128 0 0 1 .324-.803 1.032 1.032 0 0 1 .789-.306 1.005 1.005 0 0 1 .783.31c.103.105.183.231.235.37.052.14.076.288.069.437 0 .04-.009.106-.013.16Zm-1.588-.367h1.027a.543.543 0 0 0-.179-.317.512.512 0 0 0-.669 0 .543.543 0 0 0-.179.317ZM73.543 54.922v1.233h-.565v-.27a.694.694 0 0 1-.279.24.67.67 0 0 1-.358.06c-.488 0-.78-.282-.78-.653 0-.371.262-.645.895-.645h.484c0-.265-.159-.442-.484-.442a.98.98 0 0 0-.6.199l-.217-.442c.268-.177.58-.267.898-.26.621.026 1.006.33 1.006.98Zm-.603.552v-.22h-.428c-.283 0-.373.106-.373.251 0 .146.129.261.338.261a.438.438 0 0 0 .279-.066.46.46 0 0 0 .184-.226ZM75.388 53.968v.574h-.137a.498.498 0 0 0-.412.16.533.533 0 0 0-.14.432v1.02h-.608v-2.156h.578v.283a.858.858 0 0 1 .323-.246.831.831 0 0 1 .396-.067ZM75.576 55.078a1.144 1.144 0 0 1 .347-.818c.11-.104.239-.184.38-.234.14-.05.289-.07.437-.057a.93.93 0 0 1 .549.125c.166.098.3.245.384.422l-.47.261a.528.528 0 0 0-.193-.217.506.506 0 0 0-.274-.079c-.153 0-.3.063-.409.175a.606.606 0 0 0 0 .843.568.568 0 0 0 .41.175.497.497 0 0 0 .274-.078.52.52 0 0 0 .192-.218l.47.265a.98.98 0 0 1-.386.418.938.938 0 0 1-.547.126 1.047 1.047 0 0 1-.817-.292 1.116 1.116 0 0 1-.347-.817ZM80.143 54.922v1.232h-.608v-1.14c0-.349-.153-.508-.427-.508s-.501.186-.501.584v1.064h-.608v-2.973h.608v1.043a.912.912 0 0 1 .663-.257.793.793 0 0 1 .657.262.851.851 0 0 1 .216.693ZM81.641 55.794c0-.104.04-.202.11-.275a.371.371 0 0 1 .533 0 .396.396 0 0 1 0 .55.371.371 0 0 1-.533 0 .395.395 0 0 1-.11-.276ZM82.66 55.793c0-.077.023-.151.065-.215a.366.366 0 0 1 .579-.054.393.393 0 0 1 .08.423.387.387 0 0 1-.139.174.368.368 0 0 1-.478-.049.385.385 0 0 1-.107-.279ZM83.674 55.794c0-.104.04-.202.11-.275a.371.371 0 0 1 .533 0 .396.396 0 0 1-.122.634.367.367 0 0 1-.41-.085.39.39 0 0 1-.11-.274Z" fill="#E0E0E0"/><path d="M47.08 70.597c0 .067-4.015.115-8.962.115-4.948 0-8.963-.048-8.963-.115 0-.066 4.01-.115 8.963-.115 4.952 0 8.962.062 8.962.115Z" fill="#000"/><path d="M47.782 75.896H29.155v19.229h18.627V75.896Z" fill="#FF725E"/><path d="M160.963 80.429c0 .062-23.112.115-51.634.115-28.522 0-51.639-.053-51.639-.115 0-.062 23.112-.115 51.639-.115 28.526 0 51.634.048 51.634.115ZM85.938 87.667c0 .066-6.094.115-13.606.115-7.511 0-13.61-.049-13.61-.115s6.09-.115 13.61-.115 13.606.053 13.606.115Z" fill="#000"/><path d="M144.459 94.382c0 .062-19.196.115-42.869.115-23.672 0-42.868-.053-42.868-.115 0-.062 19.191-.12 42.868-.12 23.677 0 42.869.053 42.869.12Z" fill="#E0E0E0"/><path d="M47.08 105.062c0 .061-4.015.114-8.962.114-4.948 0-8.963-.053-8.963-.114 0-.062 4.01-.115 8.963-.115 4.952 0 8.962.039 8.962.115Z" fill="#000"/><path d="M47.782 110.338H29.155v19.229h18.627v-19.229Z" fill="#FF725E"/><path d="M167.1 114.867c0 .066-24.494.115-54.703.115-30.208 0-54.707-.049-54.707-.115 0-.067 24.49-.115 54.707-.115 30.217 0 54.703.053 54.703.115ZM85.938 122.107c0 .062-6.094.115-13.606.115-7.511 0-13.61-.053-13.61-.115 0-.062 6.09-.115 13.61-.115s13.606.053 13.606.115Z" fill="#000"/><path d="M159.387 128.819c0 .067-22.534.115-50.328.115-27.795 0-50.337-.048-50.337-.115 0-.066 22.534-.115 50.337-.115 27.803 0 50.328.053 50.328.115Z" fill="#E0E0E0"/><path d="M182.953 140.13c0-.76-.034-46.304-.09-118.31l.09.092H15.682l.111-.115v118.311l-.102-.106 167.283.106-167.283.102h-.103V21.683H183.073v.092c-.081 72.05-.12 117.595-.12 118.355Z" fill="#263238"/><path d="M73.629 30.39c0 .067-5.906.116-13.191.116-7.285 0-13.19-.049-13.19-.115s5.906-.115 13.19-.115c7.285 0 13.191.053 13.191.115Z" fill="#000"/><path d="M49.832 52.138H26.403v7.286h23.429v-7.286Z" fill="#455A64"/><path d="M91.318 71.222c0 .067-7.276.115-16.264.115s-16.264-.048-16.264-.115c0-.066 7.276-.115 16.264-.115s16.264.053 16.264.115ZM91.318 105.062c0 .061-7.276.114-16.264.114s-16.264-.053-16.264-.114c0-.062 7.276-.115 16.264-.115s16.264.039 16.264.115ZM162.208 56.575a2.66 2.66 0 0 1-1.514-.472 2.799 2.799 0 0 1-1.005-1.26 2.898 2.898 0 0 1-.155-1.625 2.832 2.832 0 0 1 .745-1.44 2.695 2.695 0 0 1 1.395-.77 2.64 2.64 0 0 1 1.573.162c.498.213.923.574 1.222 1.036a2.89 2.89 0 0 1 .457 1.563 2.859 2.859 0 0 1-.798 1.983c-.509.526-1.2.822-1.92.823Zm0-5.174c-.454 0-.898.137-1.276.397s-.672.63-.847 1.062c-.174.433-.22.909-.132 1.369.088.46.306.882.627 1.213.321.332.729.558 1.174.65.446.092.907.045 1.326-.134.42-.18.778-.483 1.031-.872a2.425 2.425 0 0 0-.284-2.99 2.258 2.258 0 0 0-1.619-.695Z" fill="#FF725E"/><path d="M165.55 57.82a.216.216 0 0 1-.154-.065l-1.772-1.816a.223.223 0 0 1-.062-.157.224.224 0 0 1 .132-.205.21.21 0 0 1 .234.048l1.772 1.816a.228.228 0 0 1 .044.24.229.229 0 0 1-.077.1.213.213 0 0 1-.117.04Z" fill="#FF725E"/><path d="M120.615 87.171c0 .062-7.007.115-15.652.115-8.646 0-15.656-.053-15.656-.115 0-.062 7.01-.115 15.656-.115 8.645 0 15.652.049 15.652.115ZM140.846 86.673c0 .066-3.668.115-8.187.115-4.52 0-8.192-.049-8.192-.115s3.668-.115 8.192-.115 8.187.053 8.187.115ZM120.465 122.107c0 .062-7.006.115-15.652.115-8.645 0-15.652-.053-15.652-.115 0-.062 7.007-.115 15.652-.115 8.646 0 15.652.053 15.652.115Z" fill="#000"/><path d="M36.444 131.201c-3.475 1.855-6.137 5.054-8.05 8.576-1.914 3.521-3.15 7.378-4.37 11.236l-1.07 19.781c4.04-7.096 7.276-15.438 8.157-23.621l-2.688-.247c1.802-.283 3.318-1.631 4.28-3.23.963-1.6 1.456-3.442 1.94-5.258l-3.28.504c2.596-1.81 4.415-4.583 5.081-7.741Z" fill="#455A64"/><path d="M36.444 131.201c-3.475 1.855-6.137 5.054-8.05 8.576-1.914 3.521-3.15 7.378-4.37 11.236l-1.07 19.781c4.04-7.096 7.276-15.438 8.157-23.621l-2.688-.247c1.802-.283 3.318-1.631 4.28-3.23.963-1.6 1.456-3.442 1.94-5.258l-3.28.504c2.596-1.81 4.415-4.583 5.081-7.741Z" fill="#000" opacity=".3"/><path d="M22.354 175.402s-8.77-10.834-8.667-21.177h3.54s-3.852-2.616-3.544-4.078c.308-1.463.428-6.999.428-6.999l3.24.835s-2.431-1.255-2.735-3.239c-.304-1.984.71-11.183.71-11.183s3.947 4.286 5.162 8.674c1.216 4.387 4.383 9.508 3.45 22.882-.933 13.375-1.584 14.285-1.584 14.285ZM26.801 176.426s9.502-6.534 11.612-14.872l-2.85-.822s3.65-1.228 3.715-2.474c.064-1.246 1.155-5.722 1.155-5.722l-2.782-.057s2.221-.442 2.885-1.989c.663-1.546 1.802-9.146 1.802-9.146s-4.083 2.55-5.992 5.806c-1.91 3.256-5.564 6.65-7.64 17.616-2.076 10.967-1.905 11.66-1.905 11.66Z" fill="#455A64"/><path d="M17.702 139.012a.551.551 0 0 1 .034.11l.077.331c.069.314.163.743.287 1.286.244 1.118.57 2.74.938 4.75.748 4.016 1.634 9.601 2.332 15.804a224.498 224.498 0 0 1 1.224 15.942c.081 2.046.124 3.698.133 4.86v1.67a.347.347 0 0 1 0 .115.37.37 0 0 1 0-.115v-.34c0-.322-.026-.76-.047-1.325a252.027 252.027 0 0 0-.206-4.838 261.203 261.203 0 0 0-1.284-15.907 256.807 256.807 0 0 0-2.264-15.804c-.35-2.011-.65-3.637-.856-4.759-.102-.548-.184-.981-.244-1.29-.021-.141-.043-.252-.055-.34a.39.39 0 0 1-.069-.15Z" fill="#263238"/><path d="M21.139 182.039s-8.025-9.376-10.52-15.085l1.883-.826c-1.366.23-2.76-.375-3.818-1.294a14.693 14.693 0 0 1-2.594-3.319l2.478-.441c-2.275-.669-4.215-2.214-5.418-4.317 2.927.495 5.564 2.152 7.751 4.224a39.484 39.484 0 0 1 4.708 5.62 19.836 19.836 0 0 1 1.823 3.093c1.34 2.881 3.711 8.894 3.707 12.345Z" fill="#455A64"/><path d="M38.537 146.833a.353.353 0 0 1-.034.097l-.12.274-.484 1.047c-.428.884-1.031 2.209-1.767 3.848a211.154 211.154 0 0 0-5.333 12.924c-1.91 5.117-3.424 9.831-4.477 13.255a219.223 219.223 0 0 0-1.199 4.078l-.33 1.118-.089.287c0 .062-.034.098-.038.093-.005-.004 0-.035 0-.101l.068-.292.282-1.122c.249-.972.634-2.373 1.135-4.096.997-3.451 2.5-8.179 4.417-13.304a183.934 183.934 0 0 1 5.401-12.91 141.449 141.449 0 0 1 1.832-3.818l.522-1.029.141-.261a.485.485 0 0 1 .073-.088ZM21.82 186.067a3.906 3.906 0 0 1-.13-.671 40.617 40.617 0 0 0-.32-1.825 39.822 39.822 0 0 0-1.63-5.872 39.03 39.03 0 0 0-2.539-5.523 40.18 40.18 0 0 0-.929-1.586 4.035 4.035 0 0 1-.33-.592c.15.167.285.347.403.539.253.358.595.883.993 1.559a34.068 34.068 0 0 1 2.611 5.519 34.375 34.375 0 0 1 1.575 5.925c.128.778.214 1.405.252 1.847.033.225.047.453.043.68Z" fill="#263238"/><path d="M32.408 183.854H14.843v3.698h17.565v-3.698ZM16.516 187.557l1.9 12.438h10.615l1.772-12.438H16.516Z" fill="#FF725E"/><path d="M31.33 187.557c0 .062-3.322.115-7.422.115s-7.417-.053-7.417-.115c0-.061 3.321-.114 7.417-.114s7.421.048 7.421.114Z" fill="#263238"/><path d="M107.826 190.819v9.172l17.924-.088c-.128-1.86-9.968-5.572-9.968-5.572l.197-3.534-8.153.022Z" fill="#455A64"/><path d="M110.732 193.502a.778.778 0 0 0-.41.363.818.818 0 0 0-.078.552c.041.184.15.345.305.446a.677.677 0 0 0 .521.097.827.827 0 0 0 .433-.389.871.871 0 0 0 .081-.587.736.736 0 0 0-.369-.419.69.69 0 0 0-.547-.023" fill="#fff" opacity=".6"/><path d="M107.826 199.992v-1.463l17.12.208s.89.552.809 1.166l-17.929.089ZM115.791 194.509c0 .098-.428.146-.856.442-.428.296-.646.716-.728.681-.081-.036.043-.592.561-.959s1.04-.252 1.023-.164ZM118.141 195.357c0 .093-.355.261-.647.667-.291.407-.368.835-.453.831-.086-.005-.15-.539.218-1.039.368-.499.877-.548.882-.459ZM119.198 197.694c-.081.022-.21-.441 0-.976.21-.535.621-.738.659-.658.039.079-.21.362-.381.795-.171.433-.192.831-.278.839ZM115.616 191.898c-.035.088-.428-.035-.929 0-.501.035-.856.221-.916.137-.06-.084.317-.442.894-.468.578-.027.993.256.951.331Z" fill="#263238"/><path d="M115.718 194.92c.049-.182.062-.373.039-.561a3.165 3.165 0 0 0-.475-1.444 2.85 2.85 0 0 0-.702-.765.595.595 0 0 0-.604-.11.698.698 0 0 0-.255.254.731.731 0 0 0-.1.351c.028.479.192.938.472 1.32.281.382.664.67 1.103.827.43.141.89.145 1.322.013a2.246 2.246 0 0 0 1.101-.755c.14-.166.249-.358.321-.566a.634.634 0 0 0 0-.366.434.434 0 0 0-.244-.265.721.721 0 0 0-.557.057c-.148.07-.291.151-.428.243-.402.279-.75.634-1.023 1.047a1.536 1.536 0 0 0-.248.491 5.387 5.387 0 0 1 1.365-1.37c.24-.141.557-.345.809-.252.112.044.154.181.103.34a1.513 1.513 0 0 1-.282.469 2.03 2.03 0 0 1-.99.664 1.963 1.963 0 0 1-1.18-.015 2.137 2.137 0 0 1-.971-.719 2.252 2.252 0 0 1-.446-1.145.454.454 0 0 1 .21-.398.422.422 0 0 1 .402.08c.259.185.484.417.663.684.27.396.45.849.527 1.326.055.367.047.565.068.565Z" fill="#263238"/><path d="m101.282 192.146.304 2.363-.201 5.325-6.72.167-.24-5.492.762-3.265 6.095.902Z" fill="#455A64"/><path d="M98.063 199.431c-.043 0 .056-1.626.214-3.636.159-2.01.326-3.645.364-3.649.039-.005-.056 1.63-.214 3.64-.158 2.011-.325 3.645-.364 3.645Z" fill="#263238"/><path d="m101.41 198.944-6.788.084V200l6.792-.004-.004-1.052ZM94.64 195.883s.046-.11.17-.278a4.51 4.51 0 0 1 .6-.663 4.522 4.522 0 0 1 1.082-.751 3.478 3.478 0 0 1 2.223-.314 3.55 3.55 0 0 1 1.968 1.114c.197.226.363.481.492.755a.914.914 0 0 1 .107.314 7.702 7.702 0 0 0-.702-.968 3.54 3.54 0 0 0-2.521-1.069 4.035 4.035 0 0 0-2.568 1.034c-.552.473-.826.853-.852.826Z" fill="#263238"/><path d="m98.033 43.533-.051 23.974 9.968.49.291-5.832s3.54.725 4.451-2.65c.587-2.17.428-18.929.428-18.929l-15.087 2.947Z" fill="#B78876"/><path d="M114.421 42.268c-1.57.464-1.913 3.093-1.913 3.093l-2.461 5.616c-1.254-1.012-2.94-.954-3.257 1.325-.231 1.644 1.751 1.976 1.751 1.976-1.156 2.028-1.935 3.667-3.617 5.593-1.806 2.099-2.833 2.306-4.802 2.333h-2.174s-1.066-3.566-3.035-12.477c-2.183-9.889 9.142-8.616 11.244-11.14 3.419-4.104 13.225 2.219 8.264 3.681Z" fill="#263238"/><path d="M117.186 40.113a2.263 2.263 0 0 0-.751-1.348 2.131 2.131 0 0 0-1.419-.521 1.428 1.428 0 0 0-.282-1.767 2.178 2.178 0 0 0-.85-.424 2.14 2.14 0 0 0-.944-.018 6.451 6.451 0 0 0-1.789.663 3.123 3.123 0 0 0-1.155-1.578 3.403 3.403 0 0 0-1.922-.49c-3.06 0-4.669 2.16-6.313 4.365-.24.41-.583.747-.993.972-.298.09-.61.127-.92.106a6.503 6.503 0 0 0-3.302 1.032 6.785 6.785 0 0 0-2.356 2.6c-1.07 2.134-1.87 7.07.903 10.162l1.669 3.849 15.977-13.07c.116.062 1.117.566 1.888.15 1.913-1.042 1.108-2.774 1.108-2.774.154-.11 1.614-.849 1.451-1.91Z" fill="#263238"/><path d="M102.399 52.974a3.704 3.704 0 0 1-.056 1.82 3.59 3.59 0 0 1-.706 1.67c-.069-.035.252-.768.458-1.727.205-.959.231-1.763.304-1.763ZM103.605 51.795c.084.59.052 1.19-.094 1.767a4.448 4.448 0 0 1-.526 1.67c.042-.58.135-1.156.278-1.719a9.555 9.555 0 0 1 .342-1.718ZM107.056 47.837c.025.035-.257.247-.617.68a6.789 6.789 0 0 0-1.074 1.918 16.863 16.863 0 0 0-.595 2.156 3.377 3.377 0 0 1-.248.883 3.499 3.499 0 0 1 .073-.94c.101-.755.28-1.495.535-2.21a5.655 5.655 0 0 1 1.181-1.944c.203-.24.458-.426.745-.543ZM108.451 45.145c.03 0 .132.23.196.645a4.434 4.434 0 0 1-.089 1.64 4.19 4.19 0 0 1-.672 1.484c-.244.34-.428.503-.467.481-.038-.022.612-.826.895-2.028.282-1.201.06-2.213.137-2.222ZM96.557 51.132c-.034.066-.338-.044-.68-.243-.343-.199-.596-.407-.561-.473.034-.066.338.049.68.248.343.198.595.406.56.468ZM101.371 48.573c.039.372-.062.745-.282 1.043-.308.526-.723.8-.766.746-.043-.053.269-.397.548-.883.278-.486.428-.924.5-.906ZM102.852 47.752a2.082 2.082 0 0 1-.428 1.246c-.398.627-.898.963-.937.884-.039-.08.355-.442.728-1.047.192-.374.405-.735.637-1.083ZM110.214 37.704s-.188-.146-.548-.358a3.587 3.587 0 0 0-1.669-.442 4.367 4.367 0 0 0-2.452.676 6.226 6.226 0 0 0-2.085 2.404 10.747 10.747 0 0 0-.856 2.249l-.043.15-.132-.075a4.884 4.884 0 0 0-2.222-.588 5.165 5.165 0 0 0-1.81.283 7.558 7.558 0 0 0-1.481.764 1.52 1.52 0 0 1 .334-.304 4.465 4.465 0 0 1 1.096-.606 5.022 5.022 0 0 1 1.861-.349 4.967 4.967 0 0 1 2.337.58l-.175.079c.198-.8.485-1.575.856-2.307a6.302 6.302 0 0 1 2.187-2.483 4.454 4.454 0 0 1 2.568-.658 3.465 3.465 0 0 1 1.712.543c.137.09.265.195.381.314.107.08.145.124.141.128Z" fill="#455A64"/><path d="M115.457 39.012c-.021 0 .274-.08.569.265.086.103.15.223.19.352.039.129.054.265.042.4-.026.18-.093.35-.194.499a1.146 1.146 0 0 1-.389.358 1.606 1.606 0 0 1-1.211.172 3.501 3.501 0 0 1-1.245-.627c-.39-.321-.799-.617-1.224-.884a4.88 4.88 0 0 0-1.473-.535 5.967 5.967 0 0 0-2.996.212 8.137 8.137 0 0 0-2.221 1.167c-1.164.861-1.738 1.586-1.776 1.546.115-.183.248-.353.398-.508a9.55 9.55 0 0 1 1.284-1.189 7.933 7.933 0 0 1 2.255-1.245 6.072 6.072 0 0 1 3.125-.24 5.077 5.077 0 0 1 1.545.566c.43.267.843.562 1.237.884.344.28.738.487 1.16.61.361.102.746.06 1.078-.12.135-.07.252-.171.343-.295.091-.124.154-.268.184-.42a.94.94 0 0 0-.167-.667.854.854 0 0 0-.514-.3Z" fill="#455A64"/><path d="M161.895 57.414c-.377-.344-5.453 1.852-5.453 1.852s-3.788 3.093-5.346 4.882l-.963.826-14.406 11.563-17.719-7.608-3.852 10.202s19.893 8.178 22.923 6.778c3.292-1.52 15.554-14.771 15.584-14.815l1.772-1.768s.937 0 1.648-.061c.71-.062 2.79-1.472 2.79-1.472.198-.392.333-.814.403-1.25a.827.827 0 0 0-.041-.522.789.789 0 0 0-.345-.384c.073-.34.084-.69.035-1.034-.082-.583-.856-1.26-.856-1.26.241-.253.406-.574.475-.923.171-.676-.672-1.325-.672-1.325s2.949-2.068 3.663-2.435c.715-.366.737-.901.36-1.246Z" fill="#B78876"/><path d="M120.615 161.924c.06-.672.089-1.189.089-1.511l2.004-32.975s-1.683-9.632-2.479-12.186l-7.152-2.858-9.531 3.831c-.06-.791-.099-1.282-.099-1.282l-14.025 5.011s-.364 9.884 0 12.892c.12.968.484 3.464.929 6.407 0 0 .453 6.394.547 6.751.339 1.304.428 4.498.428 7.697 0 4.065.215 8.903.463 11.201.248 2.297.364 27.588.364 27.588h10.357l1.331-40.278c.223-4.317.557-10.918.771-15.694l2.431 14.872c0 .544 1.481 9.049 1.481 9.049a83.11 83.11 0 0 0-.634 8.068c-.171 7.511-1.023 23.983-1.023 23.983h10.135s3.048-23.806 3.638-30.566h-.025Z" fill="#263238"/><path d="M122.378 125.462a4.034 4.034 0 0 1-.938-.517 12.87 12.87 0 0 1-2.003-1.639 13.415 13.415 0 0 1-1.652-2.01 3.834 3.834 0 0 1-.526-.95c.235.269.452.554.65.853.516.689 1.078 1.34 1.682 1.948.605.602 1.25 1.159 1.931 1.666.3.195.586.412.856.649ZM104.282 131.454a1.343 1.343 0 0 1-.197-.327 9.966 9.966 0 0 1-.428-.955 16.212 16.212 0 0 1-.946-3.336 16.503 16.503 0 0 1-.205-3.468c.026-.442.06-.8.098-1.047a1.26 1.26 0 0 1 .082-.38c.034 0 0 .552-.022 1.431a19.715 19.715 0 0 0 1.122 6.743c.304.826.526 1.321.496 1.339ZM105.788 143.87a2.968 2.968 0 0 1-.132-.574c-.074-.419-.169-.944-.283-1.578-.222-1.383-.522-3.203-.856-5.218-.573-3.698-.963-6.216-1.142-7.387.232.692.396 1.407.487 2.134.249 1.325.557 3.177.882 5.213.325 2.037.595 3.893.783 5.232.082.636.154 1.166.21 1.59.038.194.056.391.051.588Z" fill="#455A64"/><path d="M81.346 88.87s-1.366 9.937-1.623 13.418c-.154 2.099 1.91 4.861 3.484 5.086 1.575.225 6.883.53 6.883.53l.428-6.234-.137-1.242-1.648-.318.496-9.888-7.883-1.352Z" fill="#B78876"/><path d="M89.024 90.558c.042.176.064.357.064.538.026.35.043.853.056 1.48.03 1.247 0 2.974-.103 4.86a126.61 126.61 0 0 1-.368 4.861c-.064.619-.115 1.122-.158 1.467a2.4 2.4 0 0 1-.09.535 2.537 2.537 0 0 1 0-.544c.021-.397.051-.883.085-1.476.082-1.294.184-2.986.3-4.86.115-1.873.158-3.614.171-4.86v-1.476c-.003-.176.011-.352.043-.525Z" fill="#AA6550"/><path d="M89.546 120.134c2.696 1.034 5.65 1.117 8.513.861 2.863-.256 5.696-.853 8.56-1.131a39.74 39.74 0 0 1 12.964.884c.296.093.608.123.916.088a.749.749 0 0 0 .411-.193.794.794 0 0 0 .235-.399c.077-.495-.449-.839-.895-1.029a37.175 37.175 0 0 0-15.465-2.987 37.232 37.232 0 0 0-15.32 3.694" fill="#000" opacity=".3"/><path d="m130.831 73.446-15.203-7.812c-2.397-.29-4.812-.4-7.224-.327H98.341s-12.19 3.712-14.205 7.136L78.91 88.614l10.332 1.608 1.284 11.621s-1.284 13.454-1.284 15.407c-.028.904.025 1.809.158 2.704 0 0 20.673-3.243 25.762-1.533 5.089 1.71 6.463 1.533 6.463 1.533s-.428-5.585-.801-8.837l-1.173-16.215-.856-12.372 9.566 3.022 2.47-12.106Z" fill="#FF725E"/><path d="M89.148 90.35c-.038 0-.141-.667-.368-1.745a30.356 30.356 0 0 0-1.198-4.123 33.536 33.536 0 0 0-1.772-3.94l-.625-1.159a1.897 1.897 0 0 1-.21-.441c.112.118.21.25.291.393.176.26.428.645.69 1.131a26.315 26.315 0 0 1 1.848 3.937 24.58 24.58 0 0 1 1.139 4.17c.094.544.154.986.184 1.295.026.16.033.321.021.482ZM108.644 94.94a.77.77 0 0 1-.056.217l-.193.597c-.085.26-.192.574-.334.937-.141.362-.291.777-.487 1.22a37.82 37.82 0 0 1-1.464 3.092 44.297 44.297 0 0 1-2.14 3.579c-.813 1.228-1.712 2.337-2.521 3.318a30.253 30.253 0 0 1-2.311 2.479c-.339.344-.668.632-.946.883-.278.252-.53.478-.736.65l-.48.389a1.01 1.01 0 0 1-.175.128s.047-.062.15-.164l.449-.441c.197-.177.428-.403.71-.672.283-.27.591-.561.92-.91a41.884 41.884 0 0 0 4.76-5.81 40.585 40.585 0 0 0 2.14-3.535 41.252 41.252 0 0 0 1.498-3.053c.205-.442.364-.853.514-1.206.149-.354.274-.663.372-.92.098-.256.167-.441.231-.583a.881.881 0 0 1 .099-.194ZM115.667 66.703c-.4.59-.673 1.262-.801 1.97a7.054 7.054 0 0 0 0 2.32c.166.945.381 1.88.642 2.801a86.702 86.702 0 0 0 1.503 5.015c.201.601.368 1.105.505 1.507.071.181.125.37.162.561a2.93 2.93 0 0 1-.248-.53 41.649 41.649 0 0 1-.573-1.48 58.08 58.08 0 0 1-1.571-5.01 25.92 25.92 0 0 1-.612-2.815 6.952 6.952 0 0 1 .034-2.382c.105-.53.305-1.035.591-1.489.094-.178.218-.336.368-.468Z" fill="#263238"/><path d="M86.982 83.726a2.176 2.176 0 0 1-.813.57 3.98 3.98 0 0 1-2.328.337 4.044 4.044 0 0 1-2.123-1.04 2.199 2.199 0 0 1-.608-.79c.03-.027.252.287.71.667a4.254 4.254 0 0 0 2.067.94 4.194 4.194 0 0 0 2.243-.264c.527-.221.83-.451.852-.42ZM116.116 76.431a1.78 1.78 0 0 1-.124.34c-.094.222-.239.54-.449.937a12.958 12.958 0 0 1-2.26 3.053 10.113 10.113 0 0 1-4.828 2.709 8.758 8.758 0 0 1-3.27.146 9.398 9.398 0 0 1-3.308-1.215c-2.102-1.211-3.878-2.744-5.821-3.478a8.85 8.85 0 0 0-5.367-.305 9.364 9.364 0 0 0-3.334 1.578c-.702.535-1.032.91-1.049.883.3-.354.634-.675.997-.958a9.23 9.23 0 0 1 4.241-1.854 9.105 9.105 0 0 1 4.585.453c1.99.742 3.779 2.28 5.855 3.473a9.319 9.319 0 0 0 3.231 1.22 8.664 8.664 0 0 0 3.197-.133 10.035 10.035 0 0 0 4.76-2.62 13.257 13.257 0 0 0 2.294-2.978c.218-.389.381-.703.483-.915.047-.116.103-.228.167-.336ZM125.635 70.764c.085.162.151.334.197.512.141.478.224.972.248 1.472a7.013 7.013 0 0 1-1.442 4.63 16.964 16.964 0 0 1-1.909 1.865 5.216 5.216 0 0 0-1.284 1.683c-.21.435-.309.919-.287 1.405.026.345.099.53.077.535-.021.004-.03-.04-.064-.129a1.749 1.749 0 0 1-.098-.397 2.823 2.823 0 0 1 .226-1.48 5.213 5.213 0 0 1 1.284-1.768c.665-.571 1.29-1.19 1.871-1.851a7.117 7.117 0 0 0 1.459-4.48 11.286 11.286 0 0 0-.278-1.997ZM100.909 108.014a1.631 1.631 0 0 1-.428.163 8.729 8.729 0 0 1-1.258.274c-.64.11-1.297.071-1.922-.115a2.818 2.818 0 0 1-1.005-.583 8.802 8.802 0 0 1-.822-.928 4.362 4.362 0 0 0-.856-.822 4.17 4.17 0 0 0-.98-.486 4.22 4.22 0 0 0-1.837-.181 3.686 3.686 0 0 0-1.207.354c-.137.079-.28.147-.427.203.112-.116.242-.212.385-.283a3.397 3.397 0 0 1 1.228-.442 4.126 4.126 0 0 1 1.918.137c.367.117.718.286 1.04.504.341.238.647.526.907.857.246.32.511.622.796.906.272.246.587.435.929.557a4.375 4.375 0 0 0 1.84.154c1.04-.128 1.691-.309 1.699-.269ZM120.593 107.073a.682.682 0 0 1-.137.12c-.137.106-.28.203-.428.291a6.17 6.17 0 0 1-1.712.747 7.013 7.013 0 0 1-2.777.168 6.73 6.73 0 0 1-3.159-1.326 31.97 31.97 0 0 1-2.525-2.346 8.074 8.074 0 0 0-2.243-1.59 4.137 4.137 0 0 0-1.776-.407c-.428 0-.676.075-.681.049a.705.705 0 0 1 .171-.058 2.42 2.42 0 0 1 .506-.084 4.07 4.07 0 0 1 1.844.349 7.92 7.92 0 0 1 2.316 1.587c.783.715 1.562 1.586 2.521 2.315a6.6 6.6 0 0 0 3.051 1.281 7.23 7.23 0 0 0 2.714-.11 7.116 7.116 0 0 0 1.712-.667 5.51 5.51 0 0 1 .603-.319Z" fill="#fff"/><path d="M156.973 44.116a22.024 22.024 0 0 1-7.919-6.63 22.945 22.945 0 0 1-4.15-9.613 23.287 23.287 0 0 1 .522-10.512 22.766 22.766 0 0 1 5.079-9.126 21.825 21.825 0 0 1 8.533-5.76 21.24 21.24 0 0 1 10.136-1.141 21.47 21.47 0 0 1 9.536 3.723c2.85 2 5.203 4.665 6.866 7.781a23.206 23.206 0 0 1 2.55 13.753c-.584 4.748-2.613 9.181-5.795 12.661-3.182 3.48-7.353 5.826-11.911 6.7-4.558.875-9.266.231-13.447-1.836ZM175.214 4.73a19.823 19.823 0 0 0-14.084-1.334c-4.698 1.303-8.791 4.296-11.541 8.439s-3.976 9.164-3.456 14.157c.52 4.994 2.75 9.632 6.29 13.077 3.54 3.446 8.155 5.473 13.015 5.715 4.859.243 9.643-1.315 13.488-4.392 3.845-3.077 6.499-7.47 7.483-12.389a21.662 21.662 0 0 0-2.117-14.436c-2.058-3.852-5.232-6.942-9.078-8.837Z" fill="#263238"/><path d="M193.901 68.831a2.655 2.655 0 0 1-2.056.342 2.731 2.731 0 0 1-1.689-1.256l-14.308-23.943a.496.496 0 0 1-.058-.364.481.481 0 0 1 .208-.3l3.051-1.943a.458.458 0 0 1 .347-.06c.119.027.223.1.291.206l15.048 23.342c.207.315.35.67.42 1.043.07.374.066.758-.012 1.13a2.848 2.848 0 0 1-.442 1.033c-.213.31-.486.572-.8.77Z" fill="#263238"/><path d="M157.499 42.975a22.04 22.04 0 0 1-7.925-6.628 22.958 22.958 0 0 1-4.154-9.617 23.306 23.306 0 0 1 .52-10.515 22.781 22.781 0 0 1 5.08-9.13 21.829 21.829 0 0 1 8.537-5.763A21.24 21.24 0 0 1 169.696.181c3.42.449 6.689 1.726 9.54 3.727 2.851 2 5.204 4.668 6.867 7.785a23.21 23.21 0 0 1 2.546 13.753c-.584 4.747-2.613 9.18-5.794 12.66-3.182 3.479-7.352 5.826-11.909 6.7a21.264 21.264 0 0 1-13.447-1.83ZM175.741 3.59a19.824 19.824 0 0 0-14.084-1.334c-4.699 1.302-8.792 4.295-11.542 8.438-2.75 4.143-3.975 9.164-3.456 14.158.52 4.994 2.751 9.631 6.29 13.077 3.54 3.445 8.156 5.472 13.015 5.715 4.859.242 9.643-1.315 13.488-4.392 3.845-3.077 6.499-7.471 7.483-12.39a21.668 21.668 0 0 0-2.116-14.435c-2.058-3.852-5.233-6.943-9.078-8.837Z" fill="#455A64"/><path d="m176.129 42.394 3.836-2.443 15.215 25.462c.298.499.392 1.099.261 1.67a2.208 2.208 0 0 1-.959 1.37l-.222.141a2.084 2.084 0 0 1-1.617.27 2.146 2.146 0 0 1-1.328-.99L176.1 42.412l.029-.018Z" fill="#455A64"/><path d="M150.6 17.235c.02-.236.06-.47.12-.698.05-.272.118-.541.201-.804.097-.355.211-.705.342-1.048l.219-.596c.081-.208.188-.41.286-.632.193-.442.454-.884.715-1.348a17.5 17.5 0 0 1 2.097-2.774 17.317 17.317 0 0 1 2.628-2.236c.415-.28.844-.538 1.284-.773.206-.11.402-.225.599-.318l.574-.252a9.74 9.74 0 0 1 1.001-.38c.253-.094.512-.17.775-.23.221-.064.445-.113.672-.146a4.397 4.397 0 0 1-.651.226c-.257.073-.51.161-.757.265a9.678 9.678 0 0 0-.98.406l-.561.261c-.197.093-.389.212-.591.323-.428.216-.821.499-1.262.782-.923.649-1.783 1.389-2.568 2.209a18.167 18.167 0 0 0-2.084 2.726c-.262.442-.527.884-.724 1.325-.098.213-.21.411-.295.615l-.24.587c-.162.367-.261.72-.368 1.025a7.205 7.205 0 0 0-.231.791 4.623 4.623 0 0 1-.201.694Z" fill="#E0E0E0"/></svg>